/* XPM */
static char *result[] = {
/* columns rows colors chars-per-pixel */
"64 62 228 2 ",
"   c #000000",
".  c #00000B",
"X  c #00001C",
"o  c #000012",
"O  c #1E0000",
"+  c #2A0000",
"@  c #210000",
"#  c #2C081C",
"$  c #311009",
"%  c #302A1D",
"&  c #2F241E",
"*  c #00002B",
"=  c #000022",
"-  c #000133",
";  c #000A37",
":  c #001137",
">  c #001C3A",
",  c #081B35",
"<  c #09162B",
"1  c #2B1824",
"2  c #01233B",
"3  c #0D263D",
"4  c #012B3F",
"5  c #16293E",
"6  c #2F2427",
"7  c #312D27",
"8  c #26293B",
"9  c #312D34",
"0  c #302D3A",
"q  c #32313C",
"w  c #4E1634",
"e  c #4E3636",
"r  c #6C4B3B",
"t  c #001A4A",
"y  c #042846",
"u  c #002C59",
"i  c #002B57",
"p  c #003456",
"a  c #103149",
"s  c #252E42",
"d  c #323444",
"f  c #3A3945",
"g  c #333749",
"h  c #35394A",
"j  c #3A3B4B",
"k  c #343D53",
"l  c #373B58",
"z  c #24344B",
"x  c #0E3E68",
"c  c #001D6A",
"v  c #443E47",
"b  c #622941",
"n  c #384558",
"m  c #304554",
"M  c #0B4D71",
"N  c #254C6C",
"B  c #384A69",
"V  c #3A5578",
"C  c #314E72",
"Z  c #38677E",
"A  c #564848",
"S  c #484A56",
"D  c #514B55",
"F  c #644A45",
"G  c #6C544C",
"H  c #70544F",
"J  c #685859",
"K  c #715554",
"L  c #755858",
"P  c #744D51",
"I  c #76625F",
"U  c #565D67",
"Y  c #43667A",
"T  c #5F606A",
"R  c #676869",
"E  c #776865",
"W  c #656978",
"Q  c #747378",
"!  c #705F60",
"~  c #835B59",
"^  c #89655E",
"/  c #876B65",
"(  c #956B65",
")  c #9A6964",
"_  c #8C7266",
"`  c #92756A",
"'  c #967B70",
"]  c #A26E69",
"[  c #A56B66",
"{  c #AB766E",
"}  c #B37B72",
"|  c #AB7971",
" . c #AC8B7B",
".. c #A48576",
"X. c #BA877A",
"o. c #C5897C",
"O. c #DB8A7D",
"+. c #DD947F",
"@. c #3A558B",
"#. c #3C5986",
"$. c #344E87",
"%. c #36658E",
"&. c #2B6AAF",
"*. c #485C82",
"=. c #487090",
"-. c #797D85",
";. c #4675A9",
":. c #497CB7",
">. c #567BB2",
",. c #0074C7",
"<. c #0069C0",
"1. c #2B8AA9",
"2. c #4B839D",
"3. c #4E8AA3",
"4. c #4A81BD",
"5. c #5391AE",
"6. c #7E8286",
"7. c #0088CC",
"8. c #0F94D2",
"9. c #3E81C6",
"0. c #2EABDB",
"q. c #3BBBE5",
"w. c #1CA3D9",
"e. c #4785C7",
"r. c #5589CB",
"t. c #4E8DD3",
"y. c #5598D6",
"u. c #5293CF",
"i. c #628DCC",
"p. c #649AD4",
"a. c #6E97CF",
"s. c #59A7D9",
"d. c #57B2DE",
"f. c #62A3DA",
"g. c #64AAD9",
"h. c #69B8DC",
"j. c #42BFE7",
"k. c #5DB5E2",
"l. c #61B5E4",
"z. c #65BDE4",
"x. c #64BBEB",
"c. c #6BB7E6",
"v. c #3EC4E9",
"b. c #44C3EA",
"n. c #45C4EA",
"m. c #47CAF3",
"M. c #5EC0E0",
"N. c #6AC5E9",
"B. c #6CC8EB",
"V. c #64C7E9",
"C. c #73C5E9",
"Z. c #75CBED",
"A. c #79CAEB",
"S. c #78C7E7",
"D. c #6BCBF3",
"F. c #74CEF1",
"G. c #6AD3F7",
"H. c #77D7F9",
"J. c #86868A",
"K. c #8F9095",
"L. c #B99683",
"P. c #949FA7",
"I. c #96A3AE",
"U. c #A9A9AB",
"Y. c #B7B6B7",
"T. c #A9ACB1",
"R. c #DA8E80",
"E. c #C89A8A",
"W. c #DB9887",
"Q. c #CD8D80",
"!. c #E49B8A",
"~. c #EB9D8B",
"^. c #E69887",
"/. c #CBA38D",
"(. c #DAA589",
"). c #D6AB93",
"_. c #DDB198",
"`. c #CDA790",
"'. c #E3A18E",
"]. c #EAA18E",
"[. c #EAA591",
"{. c #ECAC95",
"}. c #E5A892",
"|. c #F3AB95",
" X c #E2B59B",
".X c #EEB39A",
"XX c #E5B99E",
"oX c #E8B89C",
"OX c #F3B49B",
"+X c #F3B99E",
"@X c #F9B49B",
"#X c #F1A38F",
"$X c #EBBDA1",
"%X c #F6BEA2",
"&X c #FBBDA2",
"*X c #F4C3A5",
"=X c #FAC3A6",
"-X c #FBC7A9",
";X c #FDCBAC",
":X c #F5C7A9",
">X c #FFD0AF",
",X c #FFD3B2",
"<X c #FEDCBC",
"1X c #FFD8B8",
"2X c #EFC0A3",
"3X c #90B1C2",
"4X c #86CBE8",
"5X c #D3D4D5",
"6X c #C8C9CA",
"7X c #FFDFC2",
"8X c #FFE4C7",
"9X c #CCD9EA",
"0X c #D7DCE9",
"qX c #D4EAF6",
"wX c #D9ECF7",
"eX c #D8E8F5",
"rX c #D8F0FB",
"tX c #E4E4E4",
"yX c #EAEAEA",
"uX c #ECEDF2",
"iX c #EFF0F1",
"pX c #E0F1FA",
"aX c #E8F6FF",
"sX c #F3F3F3",
"dX c #FFFFFF",
"fX c #F9F8F8",
"gX c #F6F1EF",
"hX c None",
/* pixels */
"hXhXhXhXhXhXhXhXhXhXhXhXhXhXhXhXhXhXhXhXhXhXhXhXhXhXhXhXhXhXhXhXhXhXhXhXhXhXhXhXhXhXhXhXhXhXhXhXhXhXhXhXhXhXhXhXhXhXhXhXhXhXhXhX",
"hXhXhXhXhXhXhXhXhXhXhXhXhXhXhXhXhXhXhXhXhXhXhXhXhXhXhXhXhXhXhXhXhXhXhXhXhXhXhXhXhXhXhXhXhXhXhXhXhXhXhXhXhXhXhXhXhXhXhXhXhXhXhXhX",
"hXhXhXhXhXhXhXhXhXhXhXhXhXhXhXhXhXhXhXhXhXhXhXhXhXhXhXhXhXhXhXhXhXhXhXhXhXhXhXhXhXhXhXhXhXhXhXhXhXhXhXhXhXhXhXhXhXhXhXhXhXhXhXhX",
"hXhXhXhXhXhXhXhXhXhXhXhXhXhXhXhXhXhXhXhXhXhXhXhXhXhXhXhXhXhXhXhXhXhXhXhXhXhXhXhXhXhXhXhXhXhXhXhXhXhXhXhXhXhXhXhXhXhXhXhXhXhXhXhX",
"hXhXhXhXhXhXhXhXhXhXhXhXhXhXhXhXhXhXhXhXhXhXhXhXhXhXhXhXhXhXhXhXhXhXhXhXhXhXhXhXhXhXhXhXhXhXhXhXhXhXhXhXhXhXhXhXhXhXhXhXhXhXhXhX",
"hXhXhXhXhXhXhXhXhXhXhXhXhXhXhXhXhXhXhXhXhXhXhXhXhXhXhXhXhXhXhXhXhXhXhXhXhXhXhXhXhXhXhXhXhXhXhXhXhXhXhXhXhXhXhXhXhXhXhXhXhXhXhXhX",
"hXhXhXhXhXhXhXhXhXhXhXhXhXhXhXhXhXhXhXhXhXhXhXhXhXhXhXhXhXhXhXhXhXhXhXhXhXhXhXhXhXhXhXhXhXhXhXhXhXhXhXhXhXhXhXhXhXhXhXhXhXhXhXhX",
"hXhXhXhXhXhXhXhXhXhXhXhXhXhXhXhXhXhXhXhXhXhXhXhXhXhXhXhXhXhXhXhXhXhXhXhXhXhXhXhXhXhXhXhXhXhXhXhXhXhXhXhXhXhXhXhXhXhXhXhXhXhXhXhX",
"hXhXhXhXhXhXhXhXhXhXhXhXhXhXhXhXhXhXhXhXhXhXhXhXhXhXhXhXhXhXhXhXhXhXT tX0XtXtX6X< hXhXhXhXhXhXhXhXhXhXhXhXhXhXhXhXhXhXhXhXhXhXhX",
"hXhXhXhXhXhXhXhXhXhXhXhXhXhXhXhXhXhXhXhXhXhXhXhXhXhXhXhXhXhXhXhXhX  T dXdXdXdXdX  X hXhXhXhXhXhXhXhXhXhXhXhXhXhXhXhXhXhXhXhXhXhX",
"hXhXhXhXhXhXhXhXhXhXhXhXhXhXhXhXhXhXhXhXhXhXhXhXhXhXhXhXhXhX8 U J.-.R Q Q Q Q Q Q Q J.S 8 hXhXhXhXhXhXhXhXhXhXhXhXhXhXhXhXhXhXhX",
"hXhXhXhXhXhXhXhXhXhXhXhXhXhXhXhXhXhXhXhXhXhXhXhXhXhXhXhXhXhX  U.yX5XdXdXdXdXdXsXtXiXtXJ.X hXhXhXhXhXhXhXhXhXhXhXhXhXhXhXhXhXhXhX",
"hXhXhXhXhXhXhXhXhXhXhXhXhXhXhXhXhXhXhXhXhXhXhXhXhXhXhXhXhXhXS   J.Y.dXdXdXdXdXdX5XsXn X j hXhXhXhXhXhXhXhXhXhXhXhXhXhXhXhXhXhXhX",
"hXhXhXhXhXhXhXhXhXhXhXhXhXhXhXhXhXhXhXhXhXhXhXhXhXhXhXhXhXhXhX* U.6XT.T.T.T.T.Y.Y.Y.J.* hXhXhXhXhXhXhXhXhXhXhXhXhXhXhXhXhXhXhXhX",
"hXhXhXhXhXhXhXhXhXhXhXhXhXhXhXhXhXhXhXhXhXhXhXhXhXhX3 2 3 2 > z                   . . s 5 2 hXhXhXhXhXhXhXhXhXhXhXhXhXhXhXhXhXhX",
"hXhXhXhXhXhXhXhXhXhXhXhXhXhXhXhXhXhXhXhXhXhXhXhX5 ` ;X-X-X-X;X.XW.!.W.'.!.'.'.W.[.'.'.W.[.o.s hXhXhXhXhXhXhXhXhXhXhXhXhXhXhXhXhX",
"hXhXhXhXhXhXhXhXhXhXhXhXhXhXhXhXhXhXhXhXhXhXhXy h >X1X1X,X1X,X,X;X;X;X;X;X;X;X;X-X-X-X%X^.~.} - hXhXhXhXhXhXhXhXhXhXhXhXhXhXhXhX",
"hXhXhXhXhXhXhXhXhXhXhXhXhXhXhXhXhXhXhXhXhXhXhX3  .;X7X1X7X7X,X,X1X-X;X;X;X;X;X;X&X+X%X[..XOXo.A 5 hXhXhXhXhXhXhXhXhXhXhXhXhXhXhX",
"hXhXhXhXhXhXhXhXhXhXhXhXhXhXhXhXhXhXhXhXhXhXf y >X1X;X<X7X7X,X-X-X;X;X;X;X;X;X;X;X;X;X>X;X[.#X) > hXhXhXhXhXhXhXhXhXhXhXhXhXhXhX",
"hXhXhXhXhXhXhXhXhXhXhXhXhXhXhXhXhXhXhXhXhXhXf , :X7X1X8X7X8X7X-X;X;X;X;X;X;X;X;X;X;X;X;X:X.X~.( > hXhXhXhXhXhXhXhXhXhXhXhXhXhXhX",
"hXhXhXhXhXhXhXhXhXhXhXhXhXhXhXhXhXhXhXhXhXhXf y *X>X;X;X>X;X;X=X-X=X=X-X-X-X;X;X;X;X;X;X;X*X~.( > hXhXhXhXhXhXhXhXhXhXhXhXhXhXhX",
"hXhXhXhXhXhXhXhXhXhXhXhXhXhXhXhXhXhXhXhXhXhXf y :X;X;X-X;X;X=X}.{.{.[.OX*X+X;X;X;X;X;X-X;X*X~.( > hXhXhXhXhXhXhXhXhXhXhXhXhXhXhX",
"hXhXhXhXhXhXhXhXhXhXhXhXhXhXhXhXhXhXhXhXhXhXf 3 *X;X;X;X*X%X%X&X&X=X*X%X+X-X;X;X-X;X;X;X-X{.~.) > hXhXhXhXhXhXhXhXhXhXhXhXhXhXhX",
"hXhXhXhXhXhXhXhXhXhXhXhXhXhXhXhXhXhXhXhXhXhXf 2 *X;X;X>X!.O.R.R.O.R.O.R.O.OX;X-X;X;X;X;X;XOX@X^ 2 hXhXhXhXhXhXhXhXhXhXhXhXhXhXhX",
"hXhXhXhXhXhXhXhXhXhXhXhXhXhXhXhXhXhXhXhXhXhXf y =X;X;X;X*X*X=X*X*X=X*X*X%X=X;X;X;X;X;X;X{.{.@X( 2 hXhXhXhXhXhXhXhXhXhXhXhXhXhXhX",
"hXhXhXhXhXhXhXhXhXhXhXhXhXhXhXhXhXhXhXhXhXhXs : *X;X;X>X;X,XW.L.<X .}.>X;X,X>X;X;X;X;X-X;X(.* s : d hXhXhXhXhXhXhXhXhXhXhXhXhXhX",
"hXhXhXhXhXhXhXhXhXhXhXhXhXhXhXhXhXhXhXhXhXz J A %XoXXX X:X+X(.oX X(.(.2X*X.X XXX;X;X;X-X>XXXJ ` / h d hXhXhXhXhXhXhXhXhXhXhXhXhX",
"hXhXhXhXhXhXhXhXhXhXhXhXhXhXhXhXhXY 5.@.*.  )..._.~ P b XXE P.  K.Y.P._ }.w P ^ ;X-X;X;X;X;X+X_.;XA z $.=.3.2.2.5.n hXhXhXhXhXhX",
"hXhXhXhXhXhXhXhXhXhXhXhXhXhXhX6 Y N.G.x.r.  E.( $X&X&X&X-XQ U.  K.6XT._ >X%X&X&X;X;X;X;X-X|.[   $XF %.l.D.G.H.D.G.h.n hXhXhXhXhX",
"hXhXhXhXhXhXhXhXhXhXhXhXhXhXhX+ 2.G.s.y.:.  } ~ $X,X;X;X;XI 5XyX5X5X6X/ ,X;X;X;X;X;X;X;X;XOXX.X $XF Z d.u.k.s.V.V.G.Y # hXhXhXhX",
"hXhXhXhXhXhXhXhXhXhXhXhXhXhX1 Y N.B.z.N.g.  X.( W.;X;X;X;XJ J.J.J.K.-._ ,X-X-X;X;X;X>X{.'.|.} [ -Xe c y.z.N.V.B.B.B.z.j q hXhXhX",
"hXhXhXhXhXhXhXhXhXhXhXhXhXhX. J.dXdXdXdXgXR E.L XX=X=X;X;X'.+.+.+.^.R.{.>X-X-X=X-X%X=X%X^.W.o.W.W.l Y.dXdXdXdXdXdXdXdXS 8 hXhXhX",
"hXhXhXhXhXhXhXhXhXhXhXhXhXhXo 6.aXwXpXpX0XaXP.. !.].+X>X;X>X,X,X,X>X,X,X;X,X;XOX-X{.'.[.[.o.- <   a.uX0XeXpXpXpXpXpXpXS 8 hXhXhX",
"hXhXhXhXhXhXhXhXhXhXhXhXhXhX1 Z m.j.j.b.0.8.&.l ] o.+X.X.XOX.X.XOX.X.X.X.X.X.X%X.X%X}.{.].o.< *.;.u.w.8.q.n.j.b.b.j.j.n 0 hXhXhX",
"hXhXhXhXhXhXhXhXhXhXhXhXhXhX# *.F.B.B.g.c.u.t.Y   F #X^.!.~.~.^.^.^.!.^.^.^.^.^.^.^.~.^.#XQ.  :.;.#.c.F.Z.B.B.B.C.Z.B.n 0 hXhXhX",
"hXhXhXhXhXhXhXhXhXhXhXhXhXhX# Y H.Z.Z.C.Z.C.c.B n >.r K H H J L K K L L K H H K H K H K r W 4.r.k n Z.A.Z.Z.F.Z.F.Z.F.n 0 hXhXhX",
"hXhXhXhXhXhXhXhXhXhXhXhXhXhXX -.sXiXiXiXiXuXfXJ.t 4.y u p i   , 4 4 p   ; u u u u u u u t $.t.t.x R sXiXiXiXgXiXiXsXuXS 8 hXhXhX",
"hXhXhXhXhXhXhXhXhXhXhXhXhXhXg d . o .         3 n r.p.g.f.g.=.U $ q e %.5.f.f.f.f.f.f.g.f.g.p.r.V 1         . X     = d hXhXhXhX",
"hXhXhXhXhXhXhXhXhXhXhXhXhXhXhX4 L L ~ } ] ] { A a ,.7.j.n.n.m.0.N & 1.G.G.v.m.n.n.n.m.0.q.0.8.,.N e { ] ] ] ( A } { A s hXhXhXhX",
"hXhXhXhXhXhXhXhXhXhXhXhXhXhXhX* o. ./.Q.&X@X#X~ B 0X0XeXrXwXqXaXI.  qXM 3XpXeXwXwXwXwX0XeX9X0XeXW e @XOX@X;X}._ (.}._ ; hXhXhXhX",
"hXhXhXhXhXhXhXhXhXhXhXhXhXhXhX* L.L.).E =X'.].P S dXdXdXdXdXdXdXY.  fXyXgXdXdXdXdXdXdXdXdXdXdXdXJ.w [.'.!.;X:X:X .`.' - hXhXhXhX",
"hXhXhXhXhXhXhXhXhXhXhXhXhXhX: I ;X*X*X-X=X:X@XP p i.g.C.C.C.S.H.3.@ S.4XA.B.Z.Z.Z.Z.Z.Z.Z.C.r.p.N e [.=X=X;X;X;X%X-X/ : hXhXhXhX",
"hXhXhXhXhXhXhXhXhXhXhXhXhXhXhX.  . ./.,X.X%X|.^ p r.u.y.N.s.N.D.3.+ h.N 5.G.N.B.B.N.N.B.N.z.s.r.N F |.+X>X;X:X1XL.).E * hXhXhXhX",
"hXhXhXhXhXhXhXhXhXhXhXhXhXhXhXD $X`. X_.;X;X;X^ y ,.7.q.b.b.j.m.2.+ n.H.G.q.n.b.b.b.b.b.b.7.<.,.M F =X;X;X;X*XXX..L._.s hXhXhXhX",
"hXhXhXhXhXhXhXhXhXhXhXhXhXhXhXD ).1X,Xq -X;X-X^ m 9X9XeXqXqXqXpXI.  9XM 3XrXqXqXqXqXqXqXqXqX9XeXW A +X;X:X;X XI *X*X`.8 hXhXhXhX",
"hXhXhXhXhXhXhXhXhXhXhXhXhXhXhXo  ./.).*X;X-X>X/ n dXdXdXdXdXdXdXY.  fXyXsXdXdXdXdXdXdXdXdXdXdXdX6.e >X;X;X;X-X*X/. XI - hXhXhXhX",
"hXhXhXhXhXhXhXhXhXhXhXhXhXhXhX* X. .`.,X;X*X>X_ y p.i.h.Z.A.Z.H.3.O S.4X4XG.Z.Z.Z.A.Z.S.Z.c.i.f.N G ;X;X;X;X;X1X ./.=Xf s hXhXhX",
"hXhXhXhXhXhXhXhXhXhXhXhXhXhXhX< ..<X;X-X;X>X1X` t e.e.9.t.V.V.G.3.+ M.N 5.G.V.V.V.d.k.d.9.u.9.e.M G ,X>X;X;X;X;X:X>XE : hXhXhXhX",
"hXhXhXhXhXhXhXhXhXhXhXhXhXhXhX-  .<X;X;X*X/.).L p y.t.t.k.x.l.x.;.+ k.V.x.l.x.l.l.x.l.z.y.l.t.y.N A /././.*X;X;X;X1X_ : hXhXhXhX",
"hXhXhXhXhXhXhXhXhXhXhXhXhXhXhXhX` L.$X,X_.  * 3 f #.#.#.$.V @.@.B 9 @.$.@.@.@.@.@.@.C @.@.%.:.V k 8 * X    X;X>X_. .I hXhXhXhXhX",
"hXhXhXhXhXhXhXhXhXhXhXhXhXhXhXhXhX   X1X;XL.> v k ;.;.:.n ;.7 % 9 g 7 % 7 % 6 7 $ V :.n ;.4.4.;.B e >  .%X;X;X1XL.  hXhXhXhXhXhX",
"hXhXhXhXhXhXhXhXhXhXhXhXhXhXhXhXhXhXJ J L E hXd h #.V V k B d g d d g g g g g g d n V k B $.C #.k q hXJ E J J ! J hXhXhXhXhXhXhX",
"hXhXhXhXhXhXhXhXhXhXhXhXhXhXhXhXhXhX> 2 > 3 hX0 k e.=.$ d 9 d d d d d d d 0 d d d d 9 9 k :.:.4.C 9 hXs - > 2 2 hXhXhXhXhXhXhXhX",
"hXhXhXhXhXhXhXhXhXhXhXhXhXhXhXhXhXhXhXhXhXhXhXd d & 9 d d d d d d d d d d d d d d d d d d 6 6 & q d hXhXhXhXhXhXhXhXhXhXhXhXhXhX",
"hXhXhXhXhXhXhXhXhXhXhXhXhXhXhXhXhXhXhXhXhXhXhXd f g d d d d d d d d d q d d d d d d d d d d g g d d hXhXhXhXhXhXhXhXhXhXhXhXhXhX",
"hXhXhXhXhXhXhXhXhXhXhXhXhXhXhXhXhXhXhXhXhXhXhXd g d d d d d s d d d d d d d d d d d d d d d d d d d hXhXhXhXhXhXhXhXhXhXhXhXhXhX",
"hXhXhXhXhXhXhXhXhXhXhXhXhXhXhXhXhXhXhXhXhXhXhXd g q d d d d d d d g g g d g g d g d d d d d q d g d hXhXhXhXhXhXhXhXhXhXhXhXhXhX",
"hXhXhXhXhXhXhXhXhXhXhXhXhXhXhXhXhXhXhXhXhXhXhXg g d d d d q d g d d d d q d d d d d d d d d d d g d hXhXhXhXhXhXhXhXhXhXhXhXhXhX",
"hXhXhXhXhXhXhXhXhXhXhXhXhXhXhXhXhXhXhXhXhXhXhXd j d d d d d d d hXhXhXhXhXhXhXhXhXhXj d d d d d d d hXhXhXhXhXhXhXhXhXhXhXhXhXhX",
"hXhXhXhXhXhXhXhXhXhXhXhXhXhXhXhXhXhXhXhXhXhXhXhXd d d d d d g d hXhXhXhXhXhXhXhXhXhXd j d d d d d hXhXhXhXhXhXhXhXhXhXhXhXhXhXhX",
"hXhXhXhXhXhXhXhXhXhXhXhXhXhXhXhXhXhXhXhXhXhXhXhXhXh g d d d f d hXhXhXhXhXhXhXhXhXhXhXhXd f g g g hXhXhXhXhXhXhXhXhXhXhXhXhXhXhX",
"hXhXhXhXhXhXhXhXhXhXhXhXhXhXhXhXhXhXhXhXhXhXhXhXhXhXhXg d d h g hXhXhXhXhXhXhXhXhXhXhXhXhXhXhXhXhXhXhXhXhXhXhXhXhXhXhXhXhXhXhXhX"
};
