/* XPM */
static char *result[] = {
/* columns rows colors chars-per-pixel */
"64 64 128 2 ",
"   c #4B3C4D",
".  c #433F54",
"X  c #3D4056",
"o  c #4E424F",
"O  c #4C4453",
"+  c #4E4956",
"@  c #444758",
"#  c #4D4D5A",
"$  c #524652",
"%  c #544A55",
"&  c #5B4C57",
"*  c #554E5A",
"=  c #5A4E59",
"-  c #4E515E",
";  c #54515D",
":  c #5A525C",
">  c #5F585E",
",  c #604F57",
"<  c #614F58",
"1  c #675157",
"2  c #695157",
"3  c #64535B",
"4  c #6C565A",
"5  c #63585E",
"6  c #6C5A5D",
"7  c #70575A",
"8  c #715B5C",
"9  c #7A5E5E",
"0  c #4F5361",
"q  c #545461",
"w  c #5A5662",
"e  c #535865",
"r  c #5C5964",
"t  c #545C6B",
"y  c #5C5F6A",
"u  c #615965",
"i  c #6B5F61",
"p  c #645E69",
"a  c #715F60",
"s  c #5C606C",
"d  c #5E6571",
"f  c #5F6873",
"g  c #6D6163",
"h  c #65626C",
"j  c #68656E",
"k  c #746565",
"l  c #7B6662",
"z  c #756866",
"x  c #7B6965",
"c  c #7D6C68",
"v  c #616671",
"b  c #696671",
"n  c #646B75",
"m  c #696A72",
"M  c #666E79",
"N  c #696F79",
"B  c #6B737C",
"V  c #71767E",
"C  c #74797F",
"Z  c #805F5D",
"A  c #84625E",
"S  c #8C665F",
"D  c #856561",
"F  c #896660",
"G  c #866C65",
"H  c #8F6A62",
"J  c #946D63",
"K  c #996D62",
"L  c #85726A",
"P  c #8D746A",
"I  c #8E786C",
"U  c #967165",
"Y  c #9B7366",
"T  c #9C7768",
"R  c #957C6F",
"E  c #9C7B6C",
"W  c #997F71",
"Q  c #A37E6D",
"!  c #978071",
"~  c #9D8474",
"^  c #A5806E",
"/  c #A9826F",
"(  c #A48472",
")  c #AA8572",
"_  c #A48976",
"`  c #AD8B76",
"'  c #A68B78",
"]  c #AC8E79",
"[  c #B18D77",
"{  c #B28E78",
"}  c #AE917B",
"|  c #B4957D",
" . c #B9977F",
".. c #B6987F",
"X. c #B9997F",
"o. c #6D7780",
"O. c #6F7881",
"+. c #757781",
"@. c #727A82",
"#. c #797D86",
"$. c #768087",
"%. c #798087",
"&. c #778289",
"*. c #7B848B",
"=. c #7E888E",
"-. c #7F8990",
";. c #81878C",
":. c #81898E",
">. c #838C92",
",. c #879196",
"<. c #889296",
"1. c #8A9599",
"2. c #8E999D",
"3. c #919C9F",
"4. c #B69980",
"5. c #BA9B81",
"6. c #BBA286",
"7. c #BEA789",
"8. c #929DA1",
"9. c #95A1A3",
"0. c #98A4A7",
"q. c #9BA7A9",
"w. c #9DAAAB",
"e. c #C09E83",
"r. c #C2AC8D",
"t. c #C6B392",
"y. c #C8B694",
"u. c None",
/* pixels */
"u.u.u.u.u.u.u.u.u.u.u.u.% * * % % % % * % % = % % % % * % % % % % % % % O % % % % $ % = % % = % % = % % u.u.u.u.u.u.u.u.u.u.u.u.",
"u.u.u.u.u.u.u.u.u.= p p V +.@.+.#.@.@.+.@.+.@.C C @.@.@.C C $.:.:.&.:.<.:.<.:.*.;.#.@.+.@.@.C C @.@.@.B h h * u.u.u.u.u.u.u.u.u.",
"u.u.u.u.u.u.u.u.m %.*.*.B n n n m n n n n n n n n n n n n n n B B N B B B B B N M M n n n n n n n n n B %.%.%.m u.u.u.u.u.u.u.u.",
"u.u.u.u.u.u.w b V B e e = % % = $ % % % = = % % % % & % & % + O o + $ $ $ $ $ % % $ % $ = + % % & % % : e e B C b w u.u.u.u.u.u.",
"u.u.u.u.u.  B @.h   1 1 A J U J K 3 i H J J J J J J J J U J A ; : 9 J U J J J J J J J Y H i 3 J J J J A 2 4 o v @.B o u.u.u.u.u.",
"u.u.u.u.h +.t w L _ [ { [ ` ` ` ( i k ( [ ` ` ` [ [ ` ] ` ) Y 3 k ` [ ` ` ` [ ` ` ) ` Q H 4 g ` ` ` ` { { ` H 4 q s V h u.u.u.u.",
"u.u.u.r +.&.e k ] 6.] ~ } X.| { Q = c } 5...4. .} ~ } ....| E 6 k } X.X...| ~ } | ] ] ) U 3 k 4...| ..} _ ^ / Y 4 e &.+.r u.u.u.",
"u.u.$ h %.s ; ! X.| R @ ! ..| | Q & k ' 5.{ | ..I O ~ | ..| ` 3 k } | | | ! O I ....| 5.E 3 g | | | X.R @ R | ` A ; h #.h % u.u.",
"u.u.h #.o.@ I { X.| ` Q ` ..| ..( < k ] 5.| | | ` E ` | ..| Q & k } X.| ..] Q ` | | | 4.E 3 k | ..| | ` E ` | | ( 9 # O.@.h u.u.",
"u.u.h #.o.X P { ..| | ....| | ..( , k ] 4.| | | 4.4.........Q , k } ..| | | ..| | | { 4.E 3 g 4...| | .. ...| ..` 9 @ O.#.j u.u.",
"u.% m @.M = W | ..| | | | | | ..Q , k ] 5.| | ..7.r.6.4.5.5.E 3 k }  .| | | | | | | 4.4.E 3 k | | | | | | | | ..( A = n @.m $ u.",
"u.p @.o.- G |  .| | | | | | | | ( = k ]  .5.5.r.t.t...| | ..Q , k ] ..| | | | | | 4.{ 4.E 3 g | ..| | | | | ..| ` J 4 ; @.@.p u.",
"u.u @.o.; x { 4.| | | | | | | | ( , k ] 5.5.6.7.r.r.X.| | | Q & k } ..{ ..| | | | | | ..E 3 g ..| | | | | | ..| ` J 4 q O.@.u u.",
"u.u @.o.- x 4.4.| | | | | | | ..Q , l ] 5.| | } | ] | | ..| ^ 3 k } ..| | | | | | | .. .T < k | | | | | | | | | ) U 4 q O.@.u u.",
"u.u @.@.- x { 4.] | | | | | |  .Q & k ] X.| | | | | | |  ...E , k ] 4.| | | | | | | 4.5.( i k | | | | | | | ..` ^ J 4 q O.+.u u.",
"u.u @.o.- x 4.4.| 4...| ....| Q Q = c ] 5.| | 4.| ....` ] ` Q 3 l | 5...4.| 4.| 4.{ Q ^ E i k 4. ... .| } ` ) Q Q U 4 q O.+.u u.",
"u.u +.O.q i ( { ` ` [ [ ` [ [ Q J = g ~ { ` ` [ { ` [ ` ` [ ( u i ( | [ ` ` { ` [ ` ^ Y A : g _ [ [ ) [ [ ` ) Q K J 3 q O.C r u.",
"u.u @.o.q + = 4 4 4 4 4 4 4 4 6 = * + * 4 7 4 4 4 4 4 4 7 4 = + + = 2 4 4 4 4 4 4 4 8 8 3 + % = 4 7 4 4 4 4 4 8 7 : + w @.@.u u.",
"u.u @.@.w % w e e 0 q 0 q 0 q 0 q w w q 0 q q 0 0 0 0 0 0 q e w q q q e q 0 q 0 q 0 0 0 q w w e 0 q q q 0 0 q q q ; = ; @.@.u u.",
"u.u @.@.w ; s @.&.*.*.*.*.*.*.*.*.*.*.*.*.*.*.*.-.*.*.*.*.*.*.*.*.*.&.*.*.*.*.&.*.&.*.*.*.*.*.&.*.*.&.&.&.*.*.*.@.v ; q @.+.u u.",
"u.u @.@.; w M @.>.>.,.>.>.>.>.>.>.>.>.1.8.8.w.w.q.w.q.w.w.8.>.>.,.>.,.>.,.>.,.>.,.,.>.>.,.>.>.>.,.,.>.,.,.>.*.*.O.f w w O.@.u u.",
"u.r @.O.q ; @.>.>.*.-.>.>.>.>.>.>.>.>.>.,.1.8.0.8.1.2.2.2.,.>.>.>.-.-.>.=.>.=.>.>.:.>.>.=.>.>.>.-.-.-.>.=.=.>.>.&.n : q O.@.u u.",
"u.u @.@.q ; @.,.<.*.; y *.>.>.>.>.>.>.>.-.2.8.8.8.8.2.<.,.,.-.>.>.>.>.>.>.>.>.>.>.>.>.-.>.>.>.>.>.>.,.$.y : &.<.&.n : q @.@.u u.",
"u.u +.@.q ; @.>.>.%.B @.*.>.>.>.-.>.-.>.>.-.>.2.8.<.1.,.-.-.>.>.=.>.-.>.=.>.-.>.=.>.=.>.-.>.-.-.>.-.>.=.@.B :.*.O.f w q o.@.u u.",
"u.u @.B q q M B o.@.&.-.*.-.,.>.>.>.>.,.>.>.,.,.1.,.,.,.>.>.>.>.>.,.>.,.>.>.>.,.,.,.-.,.,.-.>.,.-.,.,.,.-.&.B f n f w ; @.@.u u.",
"u.p ;.*.* w n B B o.@.o.O.O.O.O.O.O.o.@.@.O.O.o.o.o.o.o.O.@.@.O.O.O.O.V O.O.O.O.O.B O.O.O.O.O.O.O.O.V B O.O.M n M n w q O.@.u u.",
"u.p %.%.; % r s s s s s s s s s s s s s s y y s s s s s y y s s s s s s s y s s s s s s s s s s s s s s s s s s d r % ; @.@.u u.",
"u.p ;.*.q % ; = : * = * = : * * * * * * ; = = : ; = = * = ; * * * * ; = * = : * = * = = ; ; = % ; ; = = ; : = = * * = q @.@.u u.",
"u.p >.:.* % ; # # # # # # # * # * ; ; * # # + # # # # # # # * ; ; * # + # # # # # # # - ; ; ; % # - # # # # # - # ; * : O.@.r u.",
"u.p :.:.; + 7 D F A A A D F A A 6 * # 4 D F D A D D A A F A 6 * # 4 A H F A D D A A A S 4 # ; 6 A A A A A A A S S a + e @.C u u.",
"u.p :.*.* 8 E ^ Q Q Q Q Q Q Q Q ^ i 6 E ( Q Q Q Q Q Q Q ^ Q Y 3 i E Q Q Q Q Q Q ^ ^ ^ Q H 6 6 Q ^ Q ^ ^ ^ ^ ^ T Y U 4 q O.+.u u.",
"u.p ;.@.- x ..5...........4...| ( 3 z ] 5... ... .4. .| ] { E 3 k | 5...............{ / S 3 z X.X.X.........` ^ T U 4 q O.+.u u.",
"u.p %.&.# l { ..| | | ..| | | | Q & k ] X.| | | | | | { | | ` 6 k ] 4.{ ..| | | | | } | T 3 k ..| | | | | } ) ` Q J 4 q V @.r u.",
"u.u +.o.q l | ..] | | } | | | ..^ & k ] X.| | | | ..| | ..5.E & k } 4.| | | { { | | | 5.E 3 g | ..| | | | | | ] / J 4 q O.@.u u.",
"u.u @.o.0 l | 5...5.6.6.5...| ..^ & z ] X.| | | | | | | | | ^ & k } 4.| 4.4.6.5.4.4...X.T 3 k ..| | | | | | ..| ` J 4 q O.@.u u.",
"u.u +.o.; x ] 5.6.6.r.y.r.4.[ ..^ 3 k ] X.| | | | | | | ..| Q & k } 5.{ { 4.y.t.7.6... .E 3 g ..| | | | | | | | ` J 4 ; O.+.u u.",
"u.u +.O.q l | 5.| ..7.r.7.5.4...^ , k ] X.| | | | | | | ..| Q 3 z } 5.4.4.6.t.7.4.| |  .E 3 g | | | | | | | | ..` J 6 q O.+.u u.",
"u.u +.o.- l } ..| | 6.6.6.5.....^ & k ] | | | | | | | | ..| ^ & z { 5.4.5.5.6.6...| |  .E 3 z | X.| | X.| | ....` J 4 ; O.@.u u.",
"u.u +.O.; x | ..| | | } | { | | ( , l ] X.| | | | | | | | | Q , k ] 4.{ | | } | | | | 4.R 3 k 4.| | | | | |  .| ) J 4 - =.:.h u.",
"u.r @.O.- l { ..| ..| | | | | ..( = k ] ..| | | | | | | ..| Q 3 a 4.4.] | | | 4.| | | 4.E 3 g | | | | | | | | ..` J 4 ; *.:.p u.",
"u.u @.@.q x | ..{ | | | | | | ..( < k ] 5.| | | | | | | | | ^ & k ' 4.{ | | | | | | | 4.E 3 g | | | | | | | ..| ` J 1 - =.:.h u.",
"u.u +.o.# x | ..| | | 4.| | | ..Q & z ] 4.| | | | | | | | | E 3 k 4.4.4.| | | | | | | 4.E 3 k | ..| | | | | | | ( J 4 ; *.;.p u.",
"u.u @.O.* l { ..| | | | | | .. .` 3 l ] ..| | | | | | | ..[ Y : k ' 4.{ { 4.{ | { | |  .T 3 k | | | | | | | ..| ) Y 4 ; %.%.u u.",
"u.u @.o.- x ..5.| ..| 4.] ] ` ( Q 3 c ] 5.| 4.| ........[ ) Y 3 k 4.4.4.4.4.4.4.4.| ] { R 4 k 5.....| ....| ) Q ^ E 4 - *.:.p u.",
"u.u +.O.q i ( { [ ] [ [ ] [ ` Q H % g W { [ ` [ ` ` ` { [ ^ S : i ( { ] ` [ ] [ ] ` ` [ W i u ( [ [ ` [ ` { ) Y J H 3 q %.%.p u.",
"u.u @.O.q + = 4 7 3 4 4 7 4 7 7 3 * * & 4 7 4 4 4 4 4 4 7 4 5 % # & 4 4 4 4 4 4 4 4 a 7 = + * = 4 4 4 4 4 6 6 8 8 3 + ; $.#.u u.",
"u.u +.@.w % q e e 0 q 0 - q 0 0 q q q e q 0 q 0 q e - e - ; q e w q 0 0 - - q - - q - - q w w q 0 0 q 0 q q 0 0 q ; = ; @.@.u u.",
"u.u +.@.q ; v @.*.&.#.*.*.*.*.*.*.*.&.*.*.*.*.*.&.=.&.*.*.*.&.&.*.*.*.*.-.*.*.-.*.*.-.*.*.#.*.*.*.*.*.*.&.&.=.&.O.n ; ; @.+.u u.",
"u.u @.@.q w M %.*.=.>.,.>.,.>.,.>.,.>.,.>.>.,.>.,.,.>.,.,.,.-.,.-.2.8.9.w.w.w.q.w.q.w.w.2.>.>.>.>.>.>.>.,.,.,.=.@.N w q @.@.r u.",
"u.u @.O.q ; @.>.>.:.:.:.>.:.>.=.>.-.-.>.-.>.>.-.=.-.>.=.>.=.-.>.-.,.,.<.2.2.2.2.8.0.8.1.>.>.>.-.>.>.>.>.=.:.=.>.,.@.; ; @.@.u u.",
"u.u @.@.w ; @.,.<.%.; y &.>.>.-.:.>.>.>.>.>.>.>.>.>.>.-.>.>.,.-.,.-.-.,.<.<.2.,.<.9.1.=.-.>.>.>.>.>.>.*.y = *.,.,.@.; w @.+.u u.",
"u.r @.O.q q M O.*.=.C @.=.>.>.>.>.>.>.>.>.>.-.>.-.>.>.>.=.,.=.>.,.-.-.,.-.-.<.9.2.>.-.>.>.>.>.>.>.>.>.*.@.C &.>.=.O.; q O.@.u u.",
"u.u @.@.q w f n n M *.*.=.>.>.>.>.,.>.>.>.>.>.>.,.>.>.>.,.>.,.-.,.>.>.,.,.>.,.<.<.,.>.>.>.>.>.>.>.>.-.*.=.@.O.B B M w ; O.@.r u.",
"u.u @.O.q : M M M N @.@.O.O.@.@.O.V O.@.@.O.@.@.O.O.O.V O.O.O.V O.O.O.O.O.V B O.O.O.O.O.O.C @.@.O.@.@.O.O.@.@.B B n : q @.@.u u.",
"u.u @.V w % r s d s s y y y s s s y y y s s s s s s s s s s s s y s s s s y s s s s s s y y y y s y y y s s s s d r % ; @.@.u u.",
"u.u @.@.; = * * * * ; = * : * ; = ; * = ; * * * ; = = = ; = = * = * = ; ; * = = = = ; ; ; : * ; * = ; = ; ; = * * * = q V @.u u.",
"u.u @.@.q * ; * - ; * ; ; ; * - * * ; ; ; ; * ; ; ; ; * ; - # ; ; ; ; - ; * ; ; * ; ; # * ; ; ; ; ; ; * ; ; * * # * * q @.@.u u.",
"u.u @.@.q % 7 Z A A A Z 9 A A A 6 * * 3 A A A A Z 9 A A A D 8 * # 4 A A A 9 A 9 Z A A A 6 * * 4 A 9 A A Z Z 9 A G 8 % q @.@.u u.",
"u.u +.O.q 7 Q Q Q Q / ) / Q ^ ( Q , 6 E / ^ ^ ^ / [ ( Q ^ Q J 3 6 E / ^ ^ / / / Q / / / U 3 i Q ^ ^ ^ / ) ) Q Q Y Y 4 q O.+.u u.",
"u.u +.o.q x | ......_ k _ | ....( = k ] 5.} ....~ k _ 5.` Q H 4 z } 4....._ x ~  .| | | E 3 k | ......~ k _ ( Y J J 4 ; O.+.u u.",
"u.u V B q x ..4...5._ c ~ | [ Q K = c ] 5.| 4.5.( x _ 5...| ^ , z } X.| X.' x ~ | / T Q J 4 z ......X._ x _ 5.` T J 7 q B V r u.",
"u.w v d r : P Q E E Q ^ Q E Q T D * w P Q E Q E ^ ( Q E ^ E G * : P ^ E E ^ _ ^ E E T E 9 * r P Q E E Q ( Q Q E J A : w f v w u.",
"u.w w = ; * * % = % % * % = = * * q * + % = * = % % * * = % * ; # % = = * * % % = * : = * ; * O = % = * % * % = : : * ; : w u u.",
"u.u w % * * : ; ; ; ; ; ; ; ; * = ; * : ; ; ; ; * ; ; ; ; ; ; ; : ; : ; ; ; ; ; ; ; * * ; ; : : ; ; ; ; ; ; ; ; * * : * * w u u."
};
