/* XPM */
static char *result[] = {
/* columns rows colors chars-per-pixel */
"64 64 97 2 ",
"   c #4D414E",
".  c #4D4553",
"X  c #4D4D5A",
"o  c #514753",
"O  c #534A56",
"+  c #5C4D57",
"@  c #544E59",
"#  c #584E58",
"$  c #56505B",
"%  c #5A525B",
"&  c #64555C",
"*  c #6A575B",
"=  c #67585D",
"-  c #6D5A5D",
";  c #72575B",
":  c #735C5E",
">  c #785F5F",
",  c #77605F",
"<  c #7B615F",
"1  c #4F5462",
"2  c #555561",
"3  c #5C5662",
"4  c #555865",
"5  c #5B5A65",
"6  c #5D5D69",
"7  c #605965",
"8  c #645E69",
"9  c #765F60",
"0  c #5F636E",
"q  c #5E6671",
"w  c #64646E",
"e  c #68656E",
"r  c #766260",
"t  c #7E6360",
"y  c #7E6863",
"u  c #616671",
"i  c #696671",
"p  c #636B75",
"a  c #696B73",
"s  c #656D78",
"d  c #6B6F79",
"f  c #67707A",
"g  c #6C737C",
"h  c #6F787F",
"j  c #71757E",
"k  c #84635F",
"l  c #88655F",
"z  c #8E685F",
"x  c #836561",
"c  c #896761",
"v  c #836C65",
"b  c #8C6A63",
"n  c #836E68",
"m  c #956E64",
"M  c #986F63",
"N  c #8D7067",
"B  c #867169",
"V  c #89736A",
"C  c #8E796E",
"Z  c #957165",
"A  c #9B7265",
"S  c #947569",
"D  c #9B7769",
"F  c #96786B",
"G  c #9D7A6B",
"H  c #907D72",
"J  c #A17566",
"K  c #A37C6B",
"L  c #A6816E",
"P  c #AC836F",
"I  c #A78673",
"U  c #A88673",
"Y  c #AC8A75",
"T  c #AA8D79",
"R  c #B18B75",
"E  c #B08E78",
"W  c #B4937C",
"Q  c #6D7780",
"!  c #6E7881",
"~  c #757781",
"^  c #737A82",
"/  c #797E86",
"(  c #778087",
")  c #798087",
"_  c #778189",
"`  c #7C848B",
"'  c #7E888E",
"]  c #7F8990",
"[  c #81868C",
"{  c #81898E",
"}  c #838D92",
"|  c #869095",
" . c #889195",
".. c #879298",
"X. c #8A959B",
"o. c #BA9B81",
"O. c None",
/* pixels */
"O.O.O.O.O.O.O.O.O.O.O.O.O # O O # O O # O O O O O # # O O O X O O O O O O O o O O O O O O O # # O # # O O.O.O.O.O.O.O.O.O.O.O.O.",
"O.O.O.O.O.O.O.O.O.# 8 w j ^ / ^ ~ ^ ^ ^ ^ ^ / h h ^ ^ h / ! ^ { { ` }  .{  .{ ` ` ) h ( ( h ^ j h ^ ^ g w w # O.O.O.O.O.O.O.O.O.",
"O.O.O.O.O.O.O.O.a / _ _ g i p p a p p s a a p p p d a d a a a g g a g g g g g d d a p d a a p p a p g h ) _ ) i O.O.O.O.O.O.O.O.",
"O.O.O.O.O.O.3 i ~ g 4 4 % O O O O O O o X . O O O . . . . O X . . o .         O . O . O O o o X X o @ $ 5 5 h h i 3 O.O.O.O.O.O.",
"O.O.O.O.O.  d ^ u   * z l x c A M M A b = = m A < & & = $ $ % $ $ 4 % % % % % % % $ $ $ $ $ $ $ $ $ % # O $   u ^ d   O.O.O.O.O.",
"O.O.O.O.8 j 0 4 : z A J b < b A A A A Z x x A A Z N , Z t $ X % $ $ $ $ $ $ $ $ $ $ $ $ $ $ $ $ $ $ $ $ $ $ $ $ 2 0 h 8 O.O.O.O.",
"O.O.O.3 ~ _ 4 - D L t Z c < S Y c x M A r x m c z Z : z t % $ $ $ $ $ $ $ $ $ $ $ $ $ $ $ $ O # $ $ $ $ $ $ $ $ # 6 _ ~ 5 O.O.O.",
"O.O.o w ) u . b W T X c c x S R : % b A t c b & - A < k % X $ $ $ $ $ $ $ $ $ $ $ $ $ $ $ $ $ $ $ $ $ $ $ $ $ $ @ # w / w o O.O.",
"O.O.i ~ Q 2 o v Y W D A c t S Y M m M M k k m M M m : m x = % $ $ $ $ $ $ $ $ $ $ $ $ $ $ $ $ $ $ $ $ $ $ $ $ $ # @ $ Q ^ i O.O.",
"O.O.i / ^ X . x E W Y A c x S Y M m A M t t A M M M : m c x r @ $ $ $ $ $ # $ $ $ $ $ $ $ $ $ $ $ $ $ $ $ $ $ $ $ @ $ ! / u O.O.",
"O.o a ^ p + + v Y o.I D l < S Y m m A m t x A A Z M : b A M > X $ $ $ $ $ $ $ $ $ $ $ $ $ $ $ $ $ $ $ $ $ $ $ $ $ $ @ a ^ i o O.",
"O.8 ~ Q 1 v v N Y o.I A l x S R M m J m t x Z A Z M 9 b A M r X $ $ $ $ $ $ $ $ $ $ $ $ $ $ $ $ $ $ # $ $ $ $ $ $ $ @ $ ^ ^ 8 O.",
"O.7 ^ h 2 y V N I o.Y J l x S Y M m A M t x A Z A M 9 c A M 9 X $ $ $ $ $ $ $ $ $ $ $ $ $ $ $ $ $ $ $ $ $ $ $ $ $ $ # 2 ^ ^ 5 O.",
"O.7 ~ h 2 y V V U o.I A l t S Y m m A M t x M A A Z 9 b M m : X $ $ $ $ $ $ $ $ $ $ $ $ $ $ $ $ # $ $ $ $ $ $ $ $ $ O 2 ^ ^ 7 O.",
"O.7 ^ Q 1 v V b Y o.K A l t Z L Z m A m t x A A M M 9 c m c r @ $ $ $ $ $ $ $ $ $ $ $ $ $ $ # $ $ $ $ $ $ $ $ $ $ $ O 2 ^ ~ 7 O.",
"O.7 ^ Q 2 B V V I W U K b > S Y G m A M x x M Z M M 9 b m x : X $ $ $ $ $ $ $ $ $ $ $ $ $ $ $ $ $ $ $ $ $ $ $ $ $ $ # 2 ! ^ 7 O.",
"O.7 ^ Q $ y B b Z K J J x : x K A A A Z : : A A A m & c x & X % $ $ $ @ $ $ $ $ $ $ $ $ $ $ $ $ $ $ $ $ # $ $ $ $ $ O 2 ^ ~ 5 O.",
"O.7 ~ ^ 2 # & = - : - ; + X # - : ; : & X O * : - & X # & % @ $ $ $ $ $ $ $ $ # $ $ $ $ $ $ $ $ $ # $ $ $ $ $ $ $ $ # 2 ^ ^ 7 O.",
"O.7 ^ ^ 2 O $ 2 1 1 1 4 5 6 4 4 4 4 1 4 5 5 4 4 4 4 6 4 2 $ # $ $ $ $ $ $ $ $ $ $ @ $ $ # $ $ $ $ $ $ $ $ $ $ $ $ $ @ 2 ! ~ 7 O.",
"O.7 ^ Q $ w p p ! ] ` g q p f s a p f s s s s a s s s s 0 6 2 $ $ $ $ $ $ $ $ $ $ $ $ $ $ $ $ $ $ $ $ $ $ $ $ $ $ $ @ 2 ^ ^ 7 O.",
"O.7 ^ h 2 a g a _ X.] ^ ! f q q q s s q p s q s s p p p f p 6 @ $ $ $ $ $ $ $ $ $ $ $ $ $ # $ $ $ $ $ $ $ $ $ $ $ $ # 2 ^ j 7 O.",
"O.7 ^ h $ i a p ^ | } ` ! f s p s s q s p p s q s q q s p p 5 O $ $ $ $ $ $ $ $ $ $ $ $ $ $ $ $ # $ $ $ @ $ $ $ $ $ O 2 ! ^ 7 O.",
"O.7 ^ ! $ a a h g w w ] ! q s s s s p p s p s s p p p $ 6 q 6 O $ $ $ $ $ $ $ $ $ $ $ $ $ $ $ $ $ $ $ $ $ $ $ $ $ $ O 2 ! ~ 7 O.",
"O.7 ^ ! $ i i g g g g ..( q q p s q s s q s s q p p p 0 q p 6 # $ $ $ $ $ # $ $ $ $ $ $ $ $ $ $ $ $ $ $ $ $ $ $ $ $ # 2 ^ ^ 7 O.",
"O.7 j h 2 a a p ^ ..' _ f p p p s q s s p p p f q q f s p 0 5 $ $ $ # $ $ $ $ $ $ $ $ $ $ $ $ $ $ $ $ $ $ $ $ $ $ $ @ 2 ^ ! 5 O.",
"O.w [ ) $ i g a _ ..' Q ! g p p s s s s f p f q f f f q p 0 5 $ $ $ $ $ $ $ $ $ $ $ $ $ $ $ $ $ $ $ $ $ $ $ $ $ $ $ @ 3 ^ ~ 7 O.",
"O.7 ` ` 2 $ 5 6 0 0 0 p u q 0 q 0 0 0 0 0 0 0 0 0 0 q 4 3 $ $ $ $ $ $ $ $ $ $ $ $ $ $ $ @ $ $ $ $ $ $ $ $ $ $ $ $ $ @ 2 ^ ~ 7 O.",
"O.7 ` ) $ O # $ # # O # # O O # # # # $ @ O # # # # # $ $ $ $ $ $ $ $ $ # $ $ $ $ # $ $ $ $ $ $ $ $ # $ $ $ $ $ $ $ @ 2 ! ^ 7 O.",
"O.e { { $ O $ X X X @ X $ $ # X X X X X % $ $ X X X $ $ @ $ $ $ $ $ $ $ $ $ $ $ $ $ $ $ $ $ $ $ $ $ $ $ $ $ $ $ $ $ # 2 ^ ^ 5 O.",
"O.7 { ` $ & - r k k x x = @ = c x c l , $ % < b c : X - 9 % X $ $ $ $ $ $ $ $ $ $ $ $ $ $ $ $ $ $ # $ $ $ $ $ $ $ $ O 2 ^ j 7 O.",
"O.e { ` X , y b D P D K N t c A A A A A , t A A A Z : b c = $ $ $ $ $ $ $ $ $ $ $ $ $ $ $ $ $ # $ $ $ $ $ $ $ $ $ $ O 2 ^ ~ 7 O.",
"O.7 [ / 2 n V N Y o.K L b t S I Z Z A Z k x Z A Z Z : m t 9 & $ @ $ $ $ @ $ $ $ $ $ # $ $ $ $ $ $ $ $ $ $ $ $ $ $ $ # 2 ! ^ 7 O.",
"O.7 ` / X n V N U o.T L k < F R M m A m < x Z A M M : m b x - @ $ $ $ $ $ $ $ $ $ $ $ $ $ $ $ $ $ $ $ $ # $ $ $ $ $ O 2 ^ ^ 3 O.",
"O.5 ^ Q 2 n V N U o.U A l k S Y M M A M t x A A Z M : b J A r X $ $ $ $ $ $ $ $ $ $ $ # $ $ $ $ $ # $ $ $ $ $ $ $ $ # 2 ^ ^ 7 O.",
"O.7 ~ Q 2 v V N I o.I A l x S Y M m A M x x A M A M : b A Z > X $ $ $ $ $ # $ $ $ $ $ $ $ $ $ $ $ $ $ $ $ $ $ $ $ $ O 4 ^ ^ 7 O.",
"O.7 ~ Q 1 n V N U o.Y J l < S Y m m A M t k Z A Z M : b A M , X $ $ $ $ $ $ $ $ $ $ $ $ $ $ $ $ $ $ $ $ $ $ $ $ $ $ $ $ ! ^ 7 O.",
"O.7 ^ Q 2 n B N U o.U A l x S Y m m M m t x M A A Z 9 c A M 9 X $ $ $ $ $ $ $ $ $ $ $ $ $ $ $ $ $ $ $ $ $ $ $ $ $ $ # 2 ^ ^ 7 O.",
"O.7 ^ Q 1 B B N U o.T J k x S Y m m A M t x A M M M 9 b A M > X $ $ $ $ $ $ $ $ $ $ $ @ $ $ $ $ $ $ $ $ $ $ $ $ $ $ @ 2 h ^ 7 O.",
"O.7 ^ ~ 2 y V N U o.U A l t S Y M m A M t x Z M Z M : b A A , X $ $ $ $ # $ $ $ $ $ $ $ $ # $ $ $ $ $ $ $ $ $ $ $ $ O $ [ { 8 O.",
"O.7 ^ Q $ B V N Y o.U A k x S Y M M A M t x A A A M 9 c A Z : X $ # $ $ $ $ $ $ $ $ $ $ $ $ $ $ $ O $ $ $ $ $ $ $ $ O $ ' { 8 O.",
"O.7 ^ ~ 2 v V V I o.Y A c x F Y m m A M x x M M Z m : b A A , X $ $ $ $ $ $ $ $ $ $ $ # $ $ # $ $ $ $ $ $ $ $ $ $ $ O $ ] } 8 O.",
"O.7 ^ Q 1 v n N Y o.G A l < S R M m A M t x Z A A m : b A m , X $ $ $ $ $ $ $ $ $ $ $ $ $ $ $ $ $ $ $ # $ $ $ $ $ $ O $ ` ' 7 O.",
"O.7 ^ Q 2 v V N G T U K b > Z Y K m M M t x A M A m , b b c : X $ $ $ $ $ $ $ $ $ $ $ $ $ $ $ $ $ $ $ $ $ $ $ $ $ $ @ 2 ) ) 7 O.",
"O.7 ^ Q 1 n C c m L L A b x Z K m m M M t x A M A m , b m l , $ $ $ $ $ $ $ $ $ $ $ $ $ $ $ $ $ $ $ $ $ $ $ $ $ % $ @ $ [ [ w O.",
"O.7 ^ ! @ y V b A K J J k - x K A A D m 9 9 M A A Z = k x 9 = $ @ $ $ $ $ $ @ $ $ $ $ $ $ $ $ $ $ $ $ # $ $ $ $ $ $ # 2 ) ) 7 O.",
"O.5 ~ ! 2 + & = - - - ; % X # - ; ; : & X O = : ; % X % & % X $ $ $ $ $ $ $ $ $ $ $ $ $ $ $ $ $ $ $ $ $ $ $ $ $ $ $ O $ ( / 7 O.",
"O.7 ~ ^ 2 O @ 2 4 1 1 2 3 5 5 4 4 4 2 4 5 5 4 2 4 4 3 2 $ $ # $ $ $ $ $ $ $ $ $ $ $ $ $ $ $ $ $ $ $ $ $ $ $ $ $ $ $ O 2 h ~ 7 O.",
"O.7 ^ Q 2 u i s ! ] _ ^ h h g p s p s s s s s s s s s q 0 6 2 @ # $ $ $ $ $ $ $ # $ $ $ $ @ $ $ $ $ $ $ $ $ $ $ $ $ # 2 ^ ^ 7 O.",
"O.7 ^ h $ a d a ( ..' ^ ^ f p p q s p p p p s p p p q q q u 5 # $ $ $ $ $ $ # $ $ $ $ $ $ $ $ $ $ $ $ $ $ $ $ $ $ $ O 2 ^ ^ 7 O.",
"O.7 ^ h $ a d p ^ | '  .( s q p s p p p s q q s p p s p s p 6 # $ $ # $ $ $ $ $ $ $ $ $ $ $ $ $ $ $ $ # $ $ $ $ $ $ @ 3 ! ^ 7 O.",
"O.7 ~ h $ a a g g u u { ! q p f s s p p s q s p p p q $ 5 q 0 O $ $ $ $ $ $ $ $ $ $ $ $ $ $ $ $ $ $ $ $ $ @ $ $ $ $ @ 2 ! ~ 7 O.",
"O.7 ^ h $ a a g g g g  .^ f q p q p s s p s s p s p s 0 p q 5 @ $ $ $ $ $ $ $ $ $ # $ $ $ # $ $ $ $ $ $ $ $ $ $ $ $ @ 2 ^ ^ 7 O.",
"O.7 ^ h $ p d p ^ ..` ' ( f q s p p p q p p p p q s q s f p 6 O $ $ $ $ $ $ $ $ $ $ $ $ $ $ $ $ $ $ $ $ $ $ $ $ $ $ # 2 ^ j 7 O.",
"O.7 ^ h $ i a d ( } ` ` Q q s f s p s s p f p p s s s s q 0 6 # $ $ $ $ $ $ $ $ $ $ $ $ $ $ # $ $ $ $ $ $ $ $ $ $ $ O 2 ! ^ 7 O.",
"O.7 ^ ^ 3 3 3 5 q q u p q 0 q 0 0 0 0 0 0 0 0 0 0 0 0 q 6 $ $ $ $ $ $ $ $ $ $ $ $ $ $ $ $ $ $ $ $ $ $ $ $ # $ $ $ $ O 2 ! ~ 7 O.",
"O.7 ~ ! 2 O $ $ # @ O O # # @ @ # @ # @ $ $ $ $ @ # @ # # $ $ $ $ $ $ $ $ $ $ $ @ $ $ $ $ $ $ $ $ # $ $ $ $ $ $ $ $ # 2 ^ ^ 7 O.",
"O.7 ~ ! 2 X $ @ X $ $ X @ @ $ X X X $ X $ $ $ X X $ $ $ $ % $ $ $ $ $ $ $ $ $ $ $ $ $ $ $ $ $ $ $ $ $ $ $ $ $ $ $ $ @ 2 ^ ^ 5 O.",
"O.5 ^ ^ $ & 9 r t k x c 9 X & x c l c , % $ < c x : X - - % X % $ $ $ $ $ $ $ $ $ $ $ $ $ $ $ $ $ $ $ $ $ $ $ $ $ $ @ 3 ^ j 7 O.",
"O.7 ^ Q 2 r x b K R K J c t b L A J J A t t A A A Z : b M c : @ $ $ $ $ $ $ $ $ # $ $ $ $ $ $ $ $ # $ $ $ # $ $ $ $ @ 2 ^ ^ 7 O.",
"O.7 ~ h 1 n V S F H y A c x F T , - z A t c b , , A , x , t , X $ $ $ $ $ @ $ $ $ $ $ $ $ @ $ $ $ $ $ $ $ $ $ $ $ $ @ 2 ^ ^ 7 O.",
"O.7 j g 2 n n F G n : A b < Z Y < : Z A t c m r x A , x - , , $ @ $ $ $ $ $ $ $ $ $ $ $ $ $ $ $ $ $ $ $ $ $ $ $ $ $ # 2 g g 7 O.",
"O.3 w q 4 r t v S J M A > & : m Z A A x & = b A Z k % t k = % $ $ $ $ $ $ $ $ $ $ $ $ $ $ $ $ $ $ $ $ $ $ $ $ $ $ # @ 5 q u 3 O.",
"O.3 3 $ 2 # # % % # % % # X # % $ % % $ @ X $ % $ $ @ @ $ $ @ $ $ $ $ # $ $ $ $ $ $ $ $ $ $ $ $ @ $ $ $ @ $ $ $ $ $ $ $ # 7 7 O.",
"O.5 3 @ # @ 2 @ # $ @ @ $ $ $ # $ $ $ $ $ % $ @ @ $ $ $ $ $ $ $ $ $ $ $ $ $ $ $ # $ $ $ $ $ $ $ $ $ $ $ $ $ $ $ $ $ @ # # 3 5 O."
};
