/* XPM */
static char *result[] = {
/* columns rows colors chars-per-pixel */
"64 62 223 2 ",
"   c #000000",
".  c #000009",
"X  c #000013",
"o  c #00001C",
"O  c #130B08",
"+  c #250000",
"@  c #2A0100",
"#  c #2F000C",
"$  c #310000",
"%  c #2E1904",
"&  c #33110E",
"*  c #2F221A",
"=  c #3D2D19",
"-  c #000026",
";  c #00002C",
":  c #010A2C",
">  c #000033",
",  c #000737",
"<  c #00163B",
"1  c #001B3C",
"2  c #051535",
"3  c #0D1630",
"4  c #3B0024",
"5  c #3D0129",
"6  c #2D1625",
"7  c #311723",
"8  c #0F253C",
"9  c #04263E",
"0  c #182332",
"q  c #312925",
"w  c #3E352E",
"e  c #2A2938",
"r  c #312C34",
"t  c #332F38",
"y  c #32323D",
"u  c #3F3634",
"i  c #2A2525",
"p  c #433738",
"a  c #553E3B",
"s  c #47282C",
"d  c #773337",
"f  c #000941",
"g  c #082B45",
"h  c #172A41",
"j  c #2D3645",
"k  c #323443",
"l  c #36394A",
"z  c #393C4B",
"x  c #333649",
"c  c #323353",
"v  c #33395A",
"b  c #2B2D49",
"n  c #173A6B",
"m  c #403C47",
"M  c #413E48",
"N  c #583F4B",
"B  c #374156",
"V  c #0F426E",
"C  c #294667",
"Z  c #374868",
"A  c #294A74",
"S  c #324A7C",
"D  c #374C71",
"F  c #3A5378",
"G  c #376379",
"H  c #5B474B",
"J  c #484857",
"K  c #574D53",
"L  c #5C5054",
"P  c #5A565C",
"I  c #6B5C5A",
"U  c #655657",
"Y  c #64504E",
"T  c #4D5B6E",
"R  c #43667B",
"E  c #676567",
"W  c #716F74",
"Q  c #79625E",
"!  c #93655F",
"~  c #856A65",
"^  c #976662",
"/  c #8C7369",
"(  c #99776E",
")  c #B17B71",
"_  c #87575A",
"`  c #AD8B7B",
"'  c #A58677",
"]  c #BA877A",
"[  c #AF8D7A",
"{  c #9E8274",
"}  c #C3897E",
"|  c #C6877A",
" . c #CB8D76",
".. c #1B5386",
"X. c #3B5A87",
"o. c #374C87",
"O. c #007C9E",
"+. c #3C608C",
"@. c #3E6291",
"#. c #3872AF",
"$. c #436A98",
"%. c #4A7B96",
"&. c #436C8C",
"*. c #757A84",
"=. c #747181",
"-. c #4573AA",
";. c #487BB7",
":. c #4A73A7",
">. c #405388",
",. c #0075CA",
"<. c #3D7ECD",
"1. c #0081A3",
"2. c #3B86A3",
"3. c #39809C",
"4. c #4A839C",
"5. c #7D8186",
"6. c #4D88A3",
"7. c #528DA7",
"8. c #5B99B3",
"9. c #4980BE",
"0. c #0D95D5",
"q. c #2497D2",
"w. c #33A9DC",
"e. c #2CA5D2",
"r. c #3DB5E2",
"t. c #4B86C9",
"y. c #5685C7",
"u. c #4F8DD2",
"i. c #488AD1",
"p. c #559BD3",
"a. c #5798D7",
"s. c #5093D1",
"d. c #59A9C7",
"f. c #58A5D9",
"g. c #4AB2DD",
"h. c #61A8DB",
"j. c #65B5D7",
"k. c #66B2CF",
"l. c #5DAEE2",
"z. c #43BFE6",
"x. c #5EB5E3",
"c. c #64BCE3",
"v. c #65B9E6",
"b. c #45C2EA",
"n. c #47C3EA",
"m. c #46C9F2",
"M. c #5ACAF0",
"N. c #63C3E5",
"B. c #6CC2E6",
"V. c #64C6EA",
"C. c #6CC6E9",
"Z. c #6CCAEB",
"A. c #63CAED",
"S. c #70CBEC",
"D. c #69CDF2",
"F. c #71CDF1",
"G. c #6DD4F8",
"H. c #72D4F6",
"J. c #72D0EF",
"K. c #86878B",
"L. c #8B8D92",
"P. c #949599",
"I. c #B69381",
"U. c #969BA3",
"Y. c #9DA7B2",
"T. c #A9A9AC",
"R. c #AEAEB1",
"E. c #B6B6B7",
"W. c #C98D81",
"Q. c #C59C86",
"!. c #DE9585",
"~. c #D99888",
"^. c #DC8F81",
"/. c #E49C8B",
"(. c #E69A89",
"). c #CCA48D",
"_. c #C7A08B",
"`. c #D4AA92",
"'. c #DAAE95",
"]. c #DEB298",
"[. c #CDA790",
"{. c #E6A28E",
"}. c #EBA28E",
"|. c #EBA591",
" X c #ECAC95",
".X c #E5A791",
"XX c #E4B69C",
"oX c #EEB199",
"OX c #EBBA9E",
"+X c #F2B59C",
"@X c #F3B99E",
"#X c #F3AB95",
"$X c #EDBEA1",
"%X c #F5BDA1",
"&X c #FABFA3",
"*X c #F4C2A4",
"=X c #FCC2A6",
"-X c #F7C5A8",
";X c #FBC7A8",
":X c #FDCBAC",
">X c #FFD0AF",
",X c #FECFB0",
"<X c #FFD3B3",
"1X c #FFDBBB",
"2X c #FED7B7",
"3X c #C0BFC0",
"4X c #C9C8C9",
"5X c #DDDBDB",
"6X c #D5D5D6",
"7X c #FFE3C6",
"8X c #D9DCE5",
"9X c #E1DFE0",
"0X c #DBECF6",
"qX c #DCF0FA",
"wX c #E6E7E8",
"eX c #E3EBF5",
"rX c #E5F3FA",
"tX c #EAF5FD",
"yX c #EBFBFF",
"uX c #E8F5FA",
"iX c #FFFFFF",
"pX c #F3F6F6",
"aX c None",
/* pixels */
"aXaXaXaXaXaXaXaXaXaXaXaXaXaXaXaXaXaXaXaXaXaXaXaXaXaXaXaXaXaXaXaXaXaXaXaXaXaXaXaXaXaXaXaXaXaXaXaXaXaXaXaXaXaXaXaXaXaXaXaXaXaXaXaX",
"aXaXaXaXaXaXaXaXaXaXaXaXaXaXaXaXaXaXaXaXaXaXaXaXaXaXaXaXaXaXaXaXaXaXaXaXaXaXaXaXaXaXaXaXaXaXaXaXaXaXaXaXaXaXaXaXaXaXaXaXaXaXaXaX",
"aXaXaXaXaXaXaXaXaXaXaXaXaXaXaXaXaXaXaXaXaXaXaXaXaXaXaX. aXaXaXaXaXaXaXaXaXaXaXaXaXaXaXaXaXaXaXaXaXaXaXaXaXaXaXaXaXaXaXaXaXaXaXaX",
"aXaXaXaXaXaXaXaXaXaXaXaXaXaXaXaXaXaXaXaXaXaXaXaXP wX5XpXK.  aXaXaXaXaXaXaXaXaXaXaXaXaXaXaXaXaXaXaXaXaXaXaXaXaXaXaXaXaXaXaXaXaXaX",
"aXaXaXaXaXaXaXaXaXaXaXaXaXaXaXaXaXaXaXaXaXaXaXe W iXiXiXP.X aXaXaXaXaXaXaXaXaXaXaXaXaXaXaXaXaXaXaXaXaXaXaXaXaXaXaXaXaXaXaXaXaXaX",
"aXaXaXaXaXaXaXaXaXaXaXaXaXaXaXaXaXaXaXaXaXaXaX  3 wXwXpXW   aXaXaXaXaXaXaXaXaXaXaXaXaXaXaXaXaXaXaXaXaXaXaXaXaXaXaXaXaXaXaXaXaXaX",
"aXaXaXaXaXaXaXaXaXaXaXaXaXaXaXaXaXaXaXaX3 W 3XU.T.L.L.K.P.T.E.L., aXaXaXaXaXaXaXaXaXaXaXaXaXaXaXaXaXaXaXaXaXaXaXaXaXaXaXaXaXaXaX",
"aXaXaXaXaXaXaXaXaXaXaXaXaXaXaXaXaXaXaXaX. P.4XpX6XiXiXiXiX4X4XR.  aXaXaXaXaXaXaXaXaXaXaXaXaXaXaXaXaXaXaXaXaXaXaXaXaXaXaXaXaXaXaX",
"aXaXaXaXaXaXaXaXaXaXaXaXaXaXaXaXaXaXaXaXJ   L.iX5XiXiXiXiX5XR.  J aXaXaXaXaXaXaXaXaXaXaXaXaXaXaXaXaXaXaXaXaXaXaXaXaXaXaXaXaXaXaX",
"aXaXaXaXaXaXaXaXaXaXaXaXaXaXaXaXaXaXaXaXaX1 5.L.P.5.5.5.5.P.L.h 9 aXaXaXaXaXaXaXaXaXaXaXaXaXaXaXaXaXaXaXaXaXaXaXaXaXaXaXaXaXaXaX",
"aXaXaXaXaXaXaXaXaXaXaXaXaXaXaXaXaXaXaXH Y H 5 # # 4 4 4 4 + 4 H Y I I U I aXaXaXaXaXaXaXaXaXaXaXaXaXaXaXaXaXaXaXaXaXaXaXaXaXaXaX",
"aXaXaXaXaXaXaXaXaXaXaXaXaXaXaXaXaXk I /./.#X+X#X X X#X X X X#X|.-X<X:X:X<X).z aXaXaXaXaXaXaXaXaXaXaXaXaXaXaXaXaXaXaXaXaXaXaXaXaX",
"aXaXaXaXaXaXaXaXaXaXaXaXaXaXaXaXaX>  .}.^.{.@X;X%X:X:X>X:X:X:X:X<X,X2X2X2X1XQ > aXaXaXaXaXaXaXaXaXaXaXaXaXaXaXaXaXaXaXaXaXaXaXaX",
"aXaXaXaXaXaXaXaXaXaXaXaXaXaXaXaX1 ! !.{.%X+XoX-X@X:X:X:X:X:X:X:X<X:X2X7X2X,X'.M aXaXaXaXaXaXaXaXaXaXaXaXaXaXaXaXaXaXaXaXaXaXaXaX",
"aXaXaXaXaXaXaXaXaXaXaXaXaXaXaXaX< ] }.!.oX>X:X:X:X:X:X:X:X:X:X:X:X:X1X7X,X2X2XK 8 aXaXaXaXaXaXaXaXaXaXaXaXaXaXaXaXaXaXaXaXaXaXaX",
"aXaXaXaXaXaXaXaXaXaXaXaXaXaXaXaX< ) }./.;X:X:X:X:X;X:X:X:X:X:X:X:X:X7X7X2X1X<XH 8 aXaXaXaXaXaXaXaXaXaXaXaXaXaXaXaXaXaXaXaXaXaXaX",
"aXaXaXaXaXaXaXaXaXaXaXaXaXaXaXaXf ] }./.:X:X:X:X:X;X:X:X*X:X@X%X%X;X:X:X:X:X:XL 8 aXaXaXaXaXaXaXaXaXaXaXaXaXaXaXaXaXaXaXaXaXaXaX",
"aXaXaXaXaXaXaXaXaXaXaXaXaXaXaXaX< ) (./.>X:X:X:X:X:X:X:XoX:X+X#X X:X:X:X:X:X:XL 8 aXaXaXaXaXaXaXaXaXaXaXaXaXaXaXaXaXaXaXaXaXaXaX",
"aXaXaXaXaXaXaXaXaXaXaXaXaXaXaXaX< ) }.(.oX:X:X:X;X:X;X:X@X+X@X+X@XoX X@X:X:X:XL 8 aXaXaXaXaXaXaXaXaXaXaXaXaXaXaXaXaXaXaXaXaXaXaX",
"aXaXaXaXaXaXaXaXaXaXaXaXaXaXaXaX< ) }.@X*X:X:X;X:X:X:X>X}. .(.(.^.(.^.|.,X;X:XL 8 aXaXaXaXaXaXaXaXaXaXaXaXaXaXaXaXaXaXaXaXaXaXaX",
"aXaXaXaXaXaXaXaXaXaXaXaXaXaXaXaX9 ) /.{.}.oX:X:X;X;X>X>X:X;X*X$X;X$X*X;X:X>X:XL 8 aXaXaXaXaXaXaXaXaXaXaXaXaXaXaXaXaXaXaXaXaXaXaX",
"aXaXaXaXaXaXaXaXaXaXaXaXaXaXaXaXh - o 2 :X:X:X:X>X;X*XXX;X>X~._.1XI. X:X*XXX:XL h aXaXaXaXaXaXaXaXaXaXaXaXaXaXaXaXaXaXaXaXaXaXaX",
"aXaXaXaXaXaXaXR 8.6.6.7.%.o.>.8 I [ I.I.:X:X:X:X:X>X[.  ].>X). ._.} `.<X_.  OXI 2 F $.o.7.%.aXaXaXaXaXaXaXaXaXaXaXaXaXaXaXaXaXaX",
"aXaXaXaXaX6 R N.G.F.G.G.F.v.v.- I.-X[ @X:X;X:X:X;X:X~.^ *X*XC 8XW Y.E :X.X^ .XK O @.a.v.G.Z.%.6 aXaXaXaXaXaXaXaXaXaXaXaXaXaXaXaX",
"aXaXaXaXaX+ 4.G.N.N.f.x.s.f.p.- [ I.  ^.oX:X:X:X:X=X@X=X:X*XP E.E L.W :X;X=X&XH O $.t.s.p.D.d.+ aXaXaXaXaXaXaXaXaXaXaXaXaXaXaXaX",
"aXaXaXaX6 R B.C.Z.C.B.C.v.a.y.; I.).X ~.=X:X:X:X:X:X>X:X:X*Xj y P B Y >X:X:X>XL   7.F.v.B.C.S.4.+ aXaXaXaXaXaXaXaXaXaXaXaXaXaXaX",
"aXaXaXaXX 5.iXiXiXiXiXiXiXiXiX  { &X^ !.}..X*X>X:X:X:X:X:X@XW pXwX0XE :X:X:X>XP . E.iXiXiXiXiXT.  aXaXaXaXaXaXaXaXaXaXaXaXaXaXaX",
"aXaXaXaXo *.qX0X0XqXqXqX0X8X8X../ | | | {.@X@X+X@X;X@X:X;X%XQ d d d ^ >X:X%X@XL f Y.eX0XqX0XrXU.  aXaXaXaXaXaXaXaXaXaXaXaXaXaXaX",
"aXaXaXaX7 G m.z.b.b.b.b.w.q.w.a.#.. < > {.@X{. X@X:X%X>X>X:X=X=X=X=X=X>X>X:X}.s D g.0.z.b.z.m.3.$ aXaXaXaXaXaXaXaXaXaXaXaXaXaXaX",
"aXaXaXaX6 R F.C.C.C.Z.Z.J.G.f.t.y.>.i | {.+X|. XoXoXoX X X X X X XoX X.XoX .~ J #.u.B.h.B.C.H.6.+ aXaXaXaXaXaXaXaXaXaXaXaXaXaXaX",
"aXaXaXaX6 R Z.B.C.C.C.C.V.C.c.t.s.$.X ~./.!.!.!.!.!.!.!.!.!.!.!.!.!.(.!./.^   T C.v.B.N.C.B.F.4.@ aXaXaXaXaXaXaXaXaXaXaXaXaXaXaX",
"aXaXaXaX. K.iXiXiXiXiXiXiXiXiXq X.u.s.B = p w w p w w p M M M m m m p p % 6.A P iXiXiXiXiXiXiXR.  aXaXaXaXaXaXaXaXaXaXaXaXaXaXaX",
"aXaXaXaX: W wX5X5X5X5X9X5X9X6X* X.u.t.o.A S S S S S S C j j y j j x S S C ;.S L 9X5X5X5X5X5XwXL.X aXaXaXaXaXaXaXaXaXaXaXaXaXaXaX",
"aXaXaXaXaXe                   * +.u.f.x.l.x.l.x.l.l.x.%.+ l j z 6 + f.x.v.a.Z 0               3 z aXaXaXaXaXaXaXaXaXaXaXaXaXaXaX",
"aXaXaXaXaXg ~ W.} W.} W.} } ] q +.i.p.N.f.J.Z.Z.Z.A.Z.j.d.j k + 4.d.A.D.x.u.A a W.} } } } W.( g aXaXaXaXaXaXaXaXaXaXaXaXaXaXaXaX",
"aXaXaXaXaX< ^ #X}.^ (.}.}.}.{.q o.l.c.V.x.Z.N.N.V.V.V.M.M.j.+ 4.D.D.Z.V.A.p.C H }.}.}.}.!.) | , aXaXaXaXaXaXaXaXaXaXaXaXaXaXaXaX",
"aXaXaXaXaX; [ [ _.{ *X:X.X+X{.  T.iXiXiXiXiXiXiXiXiXiX4XI pX  R.iXiXiXiXiXiXK.q (.{.>X~ `./ [.. aXaXaXaXaXaXaXaXaXaXaXaXaXaXaXaX",
"aXaXaXaXaX; [ ].].<X:X%X|. X/.  U.eXeXrXrXrXrXrXrXrXeXrXyX0X  Y.uXrXrXrXrXuX=.s .X}.:XI.XX).OXK aXaXaXaXaXaXaXaXaXaXaXaXaXaXaXaX",
"aXaXaXaXaX; ' *XOX:X:X:X,X%X!.q ..0.b.b.n.b.n.n.b.b.m.e.O.z.$ 2.m.b.w.r.q.0.V N (.:X*X:X-X].;X~ > aXaXaXaXaXaXaXaXaXaXaXaXaXaXaX",
"aXaXaXaXaX- [ ` Q.<X:X:X:X%XOX* o.h.h.B.S.B.S.C.S.C.Z.k.8.B.+ 7.H.C.v.C.j.a.C H %X*X%X>XXXQ _.  aXaXaXaXaXaXaXaXaXaXaXaXaXaXaXaX",
"aXaXaXaX< U >X` `.` -X:X;X<X X* X.q.f.V.V.V.V.V.N.V.V.D.M.A.@ 6.D.N.A.A.x.i.A a @X:X>X' OX*X>X( > aXaXaXaXaXaXaXaXaXaXaXaXaXaXaX",
"aXaXaXaXaX> ' :X-X/ -X:X;X:X-X  T.iXiXiXiXiXiXiXiXiXiXE.P pX  R.iXiXiXiXiXiX5.p :X:X>X/ *X<X).1 aXaXaXaXaXaXaXaXaXaXaXaXaXaXaXaX",
"aXaXaXaXaX8 '.` Q.<X:X:X:X:X:X  P.pXeXtXrXrXrXrXuXuXuXyXyXrX  Y.yXrXrXuXrXuXW a >X:X;X>XXX~ `.o aXaXaXaXaXaXaXaXaXaXaXaXaXaXaXaX",
"aXaXaXaX1 K *X`.XX,X;X:X:X:X*Xq ..,.q.w.w.r.r.b.z.n.n.e.1.g.$ 2.m.z.z.w.q.,.V Y :X-X:X:X*X`.).; aXaXaXaXaXaXaXaXaXaXaXaXaXaXaXaX",
"aXaXaXaXaX- / 2X:X:X:X:X,X<X:X* &.s.h.y.v.C.B.S.J.S.J.k.8.B.+ 7.H.S.S.h.y.a.A H <X<X:X;X:X2X_.; aXaXaXaXaXaXaXaXaXaXaXaXaXaXaXaX",
"aXaXaXaXaX> ' <X;X;X:X'.U / / 7 X.u.p.u.f.p.f.a.a.a.p.f.l.p.@ $.f.p.p.a.t.u.D u / I '.>X;X2X_.; aXaXaXaXaXaXaXaXaXaXaXaXaXaXaXaX",
"aXaXaXaXaXaXaXz XX<X<X'.j k , x y ;.$.Z v D v c c c c c b c k x c c Z v D F z k 1 ; '.2X-XK L aXaXaXaXaXaXaXaXaXaXaXaXaXaXaXaXaX",
"aXaXaXaXaXaXaXo [.$XXXXX%X/ < r T ;.-.-.Z t.F * k t y y y t k y y k :.Z 9.;.Z u > ' *XXX].; aXaXaXaXaXaXaXaXaXaXaXaXaXaXaXaXaXaX",
"aXaXaXaXaXaXaXaX> > > > > b aXt Z $.@.t t % r j k x k k k k k k k k q y @ F Z r aXg > > > aXaXaXaXaXaXaXaXaXaXaXaXaXaXaXaXaXaXaX",
"aXaXaXaXaXaXaXaXaXaXaXaXaXaXaXr D $.-.v k c k k k k k k k k k k k k x x r &.Z r aXaXaXaXaXaXaXaXaXaXaXaXaXaXaXaXaXaXaXaXaXaXaXaX",
"aXaXaXaXaXaXaXaXaXaXaXaXaXaXaXx r % % y k k k k y k k k k k k k k k k k x * t k aXaXaXaXaXaXaXaXaXaXaXaXaXaXaXaXaXaXaXaXaXaXaXaX",
"aXaXaXaXaXaXaXaXaXaXaXaXaXaXaXk k l l k k k k k k k k k k k k k k k k k k x l k aXaXaXaXaXaXaXaXaXaXaXaXaXaXaXaXaXaXaXaXaXaXaXaX",
"aXaXaXaXaXaXaXaXaXaXaXaXaXaXaXk k k k k k k k k k k k k k k k k k k k k k k k k aXaXaXaXaXaXaXaXaXaXaXaXaXaXaXaXaXaXaXaXaXaXaXaX",
"aXaXaXaXaXaXaXaXaXaXaXaXaXaXaXk k k k k k k l l l l l l l l l l l k k k k k k l k aXaXaXaXaXaXaXaXaXaXaXaXaXaXaXaXaXaXaXaXaXaXaX",
"aXaXaXaXaXaXaXaXaXaXaXaXaXaXaXk k k k k k l k aXaXaXaXaXaXaXaXaXaXk k k k k k k k aXaXaXaXaXaXaXaXaXaXaXaXaXaXaXaXaXaXaXaXaXaXaX",
"aXaXaXaXaXaXaXaXaXaXaXaXaXaXk x k k y k k l aXaXaXaXaXaXaXaXaXaXaXk l k k k k l k aXaXaXaXaXaXaXaXaXaXaXaXaXaXaXaXaXaXaXaXaXaXaX",
"aXaXaXaXaXaXaXaXaXaXaXaXaXaXk x k k k k k z aXaXaXaXaXaXaXaXaXaXaXaXk k k k k k aXaXaXaXaXaXaXaXaXaXaXaXaXaXaXaXaXaXaXaXaXaXaXaX",
"aXaXaXaXaXaXaXaXaXaXaXaXaXaXk l l k l k k k aXaXaXaXaXaXaXaXaXaXaXaXaXx k k l k aXaXaXaXaXaXaXaXaXaXaXaXaXaXaXaXaXaXaXaXaXaXaXaX",
"aXaXaXaXaXaXaXaXaXaXaXaXaXaXk k k k k k aXaXaXaXaXaXaXaXaXaXaXaXaXaXaXz l l k aXaXaXaXaXaXaXaXaXaXaXaXaXaXaXaXaXaXaXaXaXaXaXaXaX",
"aXaXaXaXaXaXaXaXaXaXaXaXaXaXaXaXaXaXaXaXaXaXaXaXaXaXaXaXaXaXaXaXaXaXaXaXaXx aXaXaXaXaXaXaXaXaXaXaXaXaXaXaXaXaXaXaXaXaXaXaXaXaXaX",
"aXaXaXaXaXaXaXaXaXaXaXaXaXaXaXaXaXaXaXaXaXaXaXaXaXaXaXaXaXaXaXaXaXaXaXaXaXaXaXaXaXaXaXaXaXaXaXaXaXaXaXaXaXaXaXaXaXaXaXaXaXaXaXaX",
"aXaXaXaXaXaXaXaXaXaXaXaXaXaXaXaXaXaXaXaXaXaXaXaXaXaXaXaXaXaXaXaXaXaXaXaXaXaXaXaXaXaXaXaXaXaXaXaXaXaXaXaXaXaXaXaXaXaXaXaXaXaXaXaX"
};
