/* XPM */
static char *result[] = {
/* columns rows colors chars-per-pixel */
"64 59 93 2 ",
"   c black",
".  c #050200",
"X  c #070401",
"o  c #0D0B08",
"O  c #0F0D0B",
"+  c #12100D",
"@  c #141210",
"#  c #141311",
"$  c #161512",
"%  c #171615",
"&  c #181716",
"*  c #1A1917",
"=  c #1A1918",
"-  c #1A1A18",
";  c #1B1A19",
":  c #1C1B1A",
">  c #1D1B1A",
",  c #1D1C1B",
"<  c #1E1E1D",
"1  c #1F1E1D",
"2  c #20201F",
"3  c #222120",
"4  c #242423",
"5  c #252423",
"6  c #252524",
"7  c #262624",
"8  c #262625",
"9  c #272726",
"0  c #272727",
"q  c #282826",
"w  c #282827",
"e  c #292927",
"r  c #282828",
"t  c #292928",
"y  c gray16",
"u  c #2A2A28",
"i  c #2A2A29",
"p  c #2B2B29",
"a  c #2A2A2A",
"s  c #2B2B2A",
"d  c #2C2C2A",
"f  c #2C2C2B",
"g  c #2D2D2B",
"h  c #2D2D2C",
"j  c #2D2E2D",
"k  c #2E2E2D",
"l  c #2E2F2E",
"z  c #2F2F2E",
"x  c #313130",
"c  c #323231",
"v  c #323332",
"b  c gray20",
"n  c #333433",
"m  c #353635",
"M  c #383938",
"N  c #393A39",
"B  c #3C3C3C",
"V  c #3C3D3C",
"C  c #414241",
"Z  c #454645",
"A  c #494A49",
"S  c #4A4B4A",
"D  c #4F504F",
"F  c #515352",
"G  c #555756",
"H  c #565857",
"J  c #5B5D5C",
"K  c #5C5D5D",
"L  c #646665",
"P  c #6B6D6C",
"I  c #727574",
"U  c #747675",
"Y  c #797B7B",
"T  c #8A8D8C",
"R  c #8C8F8E",
"E  c #939695",
"W  c #969999",
"Q  c #999C9C",
"!  c #A9ADAC",
"~  c #B2B6B5",
"^  c #B7BABA",
"/  c #B7BBBA",
"(  c #B8BCBB",
")  c #BBBFBE",
"_  c #C2C6C5",
"`  c #C5C9C8",
"'  c #C6CAC9",
"]  c #C9CDCC",
"[  c #D8DCDB",
"{  c #E0E5E4",
"}  c #ECF1F0",
"|  c #F0F5F4",
" . c None",
/* pixels */
" . . . . . . . . . . . . . . . . . . . . . . . . . . . . . . . . . . . . . . . . . . . . . . . . . . . . . . . . . . . . . . . .",
" . . . . . . . . . . . . . . . . . . . . . . . . . . . . . . . . . . . . . . . . . . . . . . . . . . . . . . . . . . . . . . . .",
" . . . . . . . . . . . . . . . . . . . . . . . . . . . . . . . . . . . . . . . . . . . . . . . . . . . . . . . . . . . . . . . .",
" . . . . . . . . . . . . . . . . . . . . . . . . . . . . . . . . . . . . . . . . . . . . . . . . . . . . . . . . . . . . . . . .",
" . . . . . . . . . . . . . . . . . . . . . . . . . . . . . . . . . . . . . . . . . . . . . . . . . . . . . . . . . . . . . . . .",
" . . . . . . . . . . . . . . . . . . . . . . . . . . . . . . . . . . . . . . . . . . . . . . . . . . . . . . . . . . . . . . . .",
" . . . . . . . . . . . . . . . . . . . . . . . . . . . . . . . . . . . . . . . . . . . . . . . . . . . . . . . . . . . . . . . .",
" . . . . . . . . . . . . . . . . . . . . . . . . . . . . . . . . . . . . . . . . . . . . . . . . . . . . . . . . . . . . . . . .",
" . . . . . . . . . . . . . . . . . . . . . . . . . . . . . . . . . . . . . . . . . . . . . . . . . . . . . . . . . . . . . . . .",
" . . . . . . . . . . . . . . . . . . . . . . . . . . . . . . . . . . . . . . . . . .w 0 w w w e  . . . . . . . . . . . . . . . .",
" . . . . . . . . . . . . . . . . . . . . . . . . . . . . . . . . . . . . . . . . .r f g i f h w  . . . . . . . . . . . . . . . .",
" . . . . . . . . . . . .e r 0 w 0  . . . . . . . . . . . . . . . . . . . . . . .w w s s i s s w w  . . . . . . . . . . . . . . .",
" . . . . . . . . . . .e w s w t d w  . . . . . . . . . . . . . . . . . . . . .w s t w w w w w t d w  . . . . . . . . . . . . . .",
" . . . . . . . . . .r q i h s s h w w  . . . . . . . . . . . . . . . . . . .r w h s i i i i i s h w r  . . . . . . . . . . . . .",
" . . . . . . . . .q w t w w w w w w t w  . . . . . . . . . . . . . . . . .w t w t i i i i i i i t w i w q  . . . . . . . . . . .",
" . . . . . . . . .0 h f t t t t t i h s w  . . . . . . . . . . . . . . .e t h i 0 w r r w r w r w t w 0  . . . . . . . . . . . .",
" . . . . . . .e w w t i s s s s s s i w w e r  . . . . . . . . . . . .w w w i s w  . . . . . . .w t r  . . . . . . . . . . . . .",
" . . . . . . .q w t w w w r w w q w w t f h w  . . . . . . . . . . .0 f g w t f 0  . . . . . . .w w  . . . . . . . . . . . . . .",
" . . . . . . . .r w s w  . . . . . .w f h i w w 0  . . . . . . . . .w i d w i k 9  . . . . . . . . . . . . . . . . . . . . . . .",
" . . . . . . . . .q 0  . . . . . . .w w t w i h w  . . . . . . . . .e t s w w t q  . . . . . . . . . . . . . . . . . . . . . . .",
" . . . . . . . . . . . . . . . . . . . .w t h f w w  . . . . . . .0 w w i t w w  . . . . . . . . . . . . . . . . . . . . . . . .",
" . . . . . . . . . . . . . . . . . . . . .w f t w s w  . . . . .0 i t w i i e  . . . . . . . . . . . . . . . . . . . . . . . . .",
" . . . . . . . . . . . . . . . . . . . . .0 q w i h t w  . . . .w k s w s f e  . . . . . . . . . . . . . . . . . . . . . . . . .",
" . . . . . . . . . . . . . . . . . . . . . . .e s i w w q  . . .w s i w f f r  . . . . . . . . . . . . . . . . . . . . . . . . .",
" . . . . . . . . . . . . . . . . . . . . . . .w s t w f f e  . .w i i w w e  . . . . . . . . . . . . . . . . . . . . . . . . . .",
" . . . . . . . . . . . . . . . . . . . . . . .e s t w t t w r q 0 t s w r  . . . . . . . . . . . . . . . . . . . . . . . . . . .",
" . . . . . . . . . . . . . . . . . . . . . . .w s t w w w t s i t w s w  . . . . . . . . . . . . . . . . . . . . . . . . . . . .",
" . . . . . . . . . . . . . . . . . . . . . . .w s t w w w t u t w w s w e  . . . . . . . . . . . . . . . . . . . . . . . . . . .",
" . . . . . . . . . . . . . . . . . . . . . . .w s t w w w w w w w w s w 0  . . . . . . . . . . . . . . . . . . . . . . . . . . .",
" . . . . . . . . . . . . . . . . . . . . . . .w s t w w w w w w w w s w 0  . . . . . . . . . . . . . . . . . . . . . . . . . . .",
" . . . . . . . . . . . . . . . . . . . . . . .w s t w w w w w w w w s w 0  . . . . . . . . . . . . . . . . . . . . . . . . . . .",
" . . . . . . . . . . . . . . . . . . . . . . .w s t w w w w w w w w f t 0  . . . . . . . . . . . . . . . . . . . . . . . . . . .",
" . . . . . . . . . . . . . . . . . . . . . . .w s t w w w w w w w t h i 0  . . . . . . . . . . . . . . . . . . . . . . . . . . .",
" . . . . . . . . . . . . . . . . . . . . . . .e s t w w w w w w t w q q  . . . . . . . . . . . . . . . . . . . . . . . . . . . .",
" . . . . . . . . . . . . . . . . . . . . . . .w s t w w w w w t s w e  . . . . . . . . . . . . . . . . . . . . . . . . . . . . .",
" . . . . . . . . . . . . . . . . . . . . . . .e s t w w w w w t s w  . . . . . . . . . . . . . . . . . . . . . . . . . . . . . .",
" . . . . . . . . . . . . . . . . . . . . .e w w t e w w w w w w t w w w r r  . . . . . . . . . . . . . . . . . . . . . . . . . .",
" . . . . . . . . . . . . . . . . . . . . .w f t w w w w w w w w w w w t s p w  . . . . . . . . . . . . . . . . . . . . . . . . .",
" . . . . . . . . . . . . . . . . . . . .r w h t w w w w w w w w w w i s h h r  . . . . . . . . . . . . . . . . . . . . . . . . .",
" . . . . . . . . . . . . . . . . . . . . .w s e w w w w w w w w w w w w i i 0  . . . . . . . . . . . . . . . . . . . . . . . . .",
" . . . . . . . . . . . . . . . . . . . . .w s e w w w w w w w w w w w w i i r  . . . . . . . . . . . . . . . . . . . . . . . . .",
" . . . . . . . . . . . . . . . . . . . . .w s e w w w w w w w w w w w w i i r  . . . . . . . . . . . . . . . . . . . . . . . . .",
" . . . . . . . . . . . . . . . . . . . . .w f i 6 : % 2 w i t 4 - & 3 w s i r  . . . . . . . . . . . . . . . . . . . . . . . . .",
" . . . . . . . . . . . . . . . . . . . . .w k l @       8 x j .       y z i r  . . . . . . . . . . . . . . . . . . . . . . . . .",
" . . . . . . . . . . . . . . . . . . . . .w e 3 m D H Z i , 3 N F G C 8 5 i 0  . . . . . . . . . . . . . . . . . . . . . . . . .",
" . . . . . . . . . . . . . . . . . . . . .w +   L ~ ` W b     I ( _ R ;   s e  . . . . . . . . . . . . . . . . . . . . . . . . .",
" . . . . . . . . . . . . . . . . . . . . .0     Y [ | ^ M     T { } ! O   w 0  . . . . . . . . . . . . . . . . . . . . . . . . .",
" . . . . . . . . . . . . . . . . . . . . .e     P / ] Q n     U ) ' E :   7  . . . . . . . . . . . . . . . . . . . . . . . . . .",
" . . . . . . . . . . . . . . . . . . . . . . .< V H K A i = 2 B H J S w >  . . . . . . . . . . . . . . . . . . . . . . . . . . .",
" . . . . . . . . . . . . . . . . . . . . . . .v o       9 c z X       a  . . . . . . . . . . . . . . . . . . . . . . . . . . . .",
" . . . . . . . . . . . . . . . . . . . . . . . . .$ * 4 s h f q 1 # *  . . . . . . . . . . . . . . . . . . . . . . . . . . . . .",
" . . . . . . . . . . . . . . . . . . . . . . . . .q 0 w w w e r w w  . . . . . . . . . . . . . . . . . . . . . . . . . . . . . .",
" . . . . . . . . . . . . . . . . . . . . . . . . . . . . . . . . . . . . . . . . . . . . . . . . . . . . . . . . . . . . . . . .",
" . . . . . . . . . . . . . . . . . . . . . . . . . . . . . . . . . . . . . . . . . . . . . . . . . . . . . . . . . . . . . . . .",
" . . . . . . . . . . . . . . . . . . . . . . . . . . . . . . . . . . . . . . . . . . . . . . . . . . . . . . . . . . . . . . . .",
" . . . . . . . . . . . . . . . . . . . . . . . . . . . . . . . . . . . . . . . . . . . . . . . . . . . . . . . . . . . . . . . .",
" . . . . . . . . . . . . . . . . . . . . . . . . . . . . . . . . . . . . . . . . . . . . . . . . . . . . . . . . . . . . . . . .",
" . . . . . . . . . . . . . . . . . . . . . . . . . . . . . . . . . . . . . . . . . . . . . . . . . . . . . . . . . . . . . . . .",
" . . . . . . . . . . . . . . . . . . . . . . . . . . . . . . . . . . . . . . . . . . . . . . . . . . . . . . . . . . . . . . . ."
};
