/* XPM */
static char *result[] = {
/* columns rows colors chars-per-pixel */
"64 64 107 2 ",
"   c black",
".  c #040100",
"X  c #080502",
"o  c #0D0A08",
"O  c #0D0B08",
"+  c #0E0C09",
"@  c #100E0B",
"#  c #110F0C",
"$  c #110F0D",
"%  c #12100E",
"&  c #141211",
"*  c #171513",
"=  c #171615",
"-  c #191715",
";  c #181716",
":  c #191716",
">  c #1A1817",
",  c #1A1A18",
"<  c #1B1B19",
"1  c #1C1B1A",
"2  c #1E1E1C",
"3  c #201F1E",
"4  c #21201F",
"5  c #212120",
"6  c #222220",
"7  c #232221",
"8  c #242423",
"9  c #252524",
"0  c #262624",
"q  c #262625",
"w  c #272726",
"e  c #272727",
"r  c #282826",
"t  c #282827",
"y  c #292927",
"u  c #282828",
"i  c #292928",
"p  c #2A2A28",
"a  c #2A2A29",
"s  c #2A2B29",
"d  c #2B2B29",
"f  c #2B2B2A",
"g  c #2B2C2B",
"h  c #2C2C2A",
"j  c #2C2C2B",
"k  c #2D2D2B",
"l  c #2C2C2C",
"z  c #2D2D2C",
"x  c #2D2D2D",
"c  c #2D2E2D",
"v  c #2E2E2C",
"b  c #2E2E2D",
"n  c #2F2F2E",
"m  c #30302F",
"M  c #323231",
"N  c #333332",
"B  c #353534",
"V  c #363635",
"C  c #3C3D3C",
"Z  c #3F403F",
"A  c #454645",
"S  c #494A49",
"D  c #4B4C4C",
"F  c #4E504F",
"G  c #515251",
"H  c #555756",
"J  c #575958",
"K  c #5B5C5C",
"L  c #5B5D5C",
"P  c #5D5F5E",
"I  c #606261",
"U  c #616362",
"Y  c #616363",
"T  c #676968",
"R  c #6D6F6E",
"E  c #6D6F6F",
"W  c #6D706F",
"Q  c #717372",
"!  c #757777",
"~  c #767877",
"^  c #7C7F7E",
"/  c #7D807F",
"(  c #808382",
")  c #848686",
"_  c #8C8F8E",
"`  c #909393",
"'  c #919493",
"]  c #A2A5A4",
"[  c #A4A7A6",
"{  c #ACB0AF",
"}  c #ADB1B0",
"|  c #B5B8B8",
" . c #B9BDBC",
".. c #BCC0BF",
"X. c #C0C4C3",
"o. c #C4C8C7",
"O. c #C5C9C8",
"+. c #C6CAC9",
"@. c #C9CDCC",
"#. c #D1D6D5",
"$. c #D3D8D7",
"%. c #D5DAD9",
"&. c #D9DDDC",
"*. c #E2E7E6",
"=. c #EFF4F3",
"-. c #F1F6F5",
";. c None",
/* pixels */
";.;.;.;.;.;.;.;.;.;.;.;.;.;.;.;.;.;.;.;.;.;.;.;.;.;.;.;.;.;.;.;.;.;.;.;.;.;.;.;.;.;.;.;.;.;.;.;.;.;.;.;.;.;.;.;.;.;.;.;.;.;.;.;.",
";.;.;.;.;.;.;.;.;.;.;.;.;.;.;.;.;.;.;.;.;.;.;.;.;.;.;.;.;.;.;.;.;.;.;.;.;.;.;.;.;.;.;.;.;.;.;.;.;.;.;.;.;.;.;.;.;.;.;.;.;.;.;.;.",
";.;.;.;.;.;.;.;.;.;.;.;.;.;.;.;.;.;.;.;.;.;.;.;.;.;.;.;.;.;.;.;.;.;.;.;.;.;.;.;.;.;.;.;.;.;.;.;.;.;.;.;.;.;.;.;.;.;.;.;.;.;.;.;.",
";.;.;.;.;.;.;.;.;.;.;.;.;.;.;.;.;.;.;.;.;.;.;.;.;.;.;.;.;.;.;.;.;.;.;.;.;.;.;.;.;.;.;.;.;.;.;.;.;.;.;.;.;.;.;.;.;.;.;.;.;.;.;.;.",
";.;.;.;.;.;.;.;.;.;.;.;.;.;.;.;.;.;.;.;.;.;.;.;.;.;.;.;.;.;.;.;.;.;.;.;.;.;.;.;.;.;.;.;.;.;.;.;.;.;.;.;.;.;.;.;.;.;.;.;.;.;.;.;.",
";.;.;.;.;.;.;.;.;.;.;.;.;.;.;.;.;.;.;.;.;.;.;.;.;.;.;.;.;.;.;.;.;.;.;.;.;.;.;.;.;.;.;.;.;.;.;.;.;.;.;.;.;.;.;.;.;.;.;.;.;.;.;.;.",
";.;.;.;.;.;.;.;.;.;.;.;.;.;.;.;.;.;.;.;.;.;.;.;.;.;.;.;.;.;.;.;.;.;.;.;.;.;.;.;.;.;.;.;.;.;.;.;.;.;.;.;.;.;.;.;.;.;.;.;.;.;.;.;.",
";.;.;.;.;.;.;.;.;.;.;.;.;.;.;.;.;.;.;.;.;.;.;.;.;.;.;.;.;.;.;.;.;.;.;.;.;.;.;.;.;.;.;.;.;.;.;.;.;.;.;.;.;.;.;.;.;.;.;.;.;.;.;.;.",
";.;.;.;.;.;.;.;.;.;.;.;.;.;.;.;.;.;.;.;.;.;.;.;.;.;.;.;.;.;.;.;.;.;.;.;.;.;.;.;.;.;.;.;.;.;.;.;.;.;.;.;.;.;.;.;.;.;.;.;.;.;.;.;.",
";.;.;.;.;.;.;.;.;.;.;.;.;.;.;.;.;.;.;.;.;.;.;.;.;.;.;.;.;.;.;.;.;.;.;.;.;.;.;.;.;.;.;.;.;.;.;.;.;.;.;.;.;.;.;.;.;.;.;.;.;.;.;.;.",
";.;.;.;.;.;.;.;.;.;.;.;.;.;.;.;.;.;.;.;.;.;.;.;.;.u y t t t t t r e t u ;.;.;.;.;.;.;.;.;.;.;.;.;.;.;.;.;.;.;.;.;.;.;.;.;.;.;.;.",
";.;.;.;.;.;.;.;.;.;.;.;.;.;.;.;.;.;.;.;.;.;.;.;.;.u f b h f f f f z z e ;.;.;.;.;.;.;.;.;.;.;.;.;.;.;.;.;.;.;.;.;.;.;.;.;.;.;.;.",
";.;.;.;.;.;.;.;.;.;.;.;.;.;.;.;.;.;.;.;.e e e u t t a f a a a a a f f t u r r u t ;.;.;.;.;.;.;.;.;.;.;.;.;.;.;.;.;.;.;.;.;.;.;.",
";.;.;.;.;.;.;.;.;.;.;.;.;.;.;.;.;.;.;.u t f i t t t t t t t t t t t t t t t i f t r ;.;.;.;.;.;.;.;.;.;.;.;.;.;.;.;.;.;.;.;.;.;.",
";.;.;.;.;.;.;.;.;.;.;.;.;.;.;.;.;.;.;.u t n z f a i t t t t t t t t t i a f z n p u ;.;.;.;.;.;.;.;.;.;.;.;.;.;.;.;.;.;.;.;.;.;.",
";.;.;.;.;.;.;.;.;.;.;.;.;.;.;.;.;.;.;.y r j a t t t t t t t t t t t t t t t a j t y ;.;.;.;.;.;.;.;.;.;.;.;.;.;.;.;.;.;.;.;.;.;.",
";.;.;.;.;.;.;.;.;.;.;.;.;.;.;.;.;.;.;.u t f a t t t t t t t t t t t t t t t i f t u ;.;.;.;.;.;.;.;.;.;.;.;.;.;.;.;.;.;.;.;.;.;.",
";.;.;.;.;.;.;.;.;.;.;.;.;.;.;.;.;.;.;.;.t f a t t t t t t t t t t t t t t t i h t t ;.;.;.;.;.;.;.;.;.;.;.;.;.;.;.;.;.;.;.;.;.;.",
";.;.;.;.;.;.;.;.;.;.;.;.;.;.;.;.;.;.;.y t f a t t t t t t t t t t t t t t t i f u y ;.;.;.;.;.;.;.;.;.;.;.;.;.;.;.;.;.;.;.;.;.;.",
";.;.;.;.;.;.;.;.;.;.;.;.;.;.;.;.;.;.e y t s l i =       < a x g 4       + w j f t y y ;.;.;.;.;.;.;.;.;.;.;.;.;.;.;.;.;.;.;.;.;.",
";.;.;.;.;.;.;.;.;.;.;.;.;.;.;.;.;.y t t t i z a X       % g m z 1         w c a t t t e ;.;.;.;.;.;.;.;.;.;.;.;.;.;.;.;.;.;.;.;.",
";.;.;.;.;.;.;.;.;.;.;.;.;.;.;.;.e t z j i 9 & 5 F Q / W S <   % Z T ^ ~ J f $ 7 i f v t y ;.;.;.;.;.;.;.;.;.;.;.;.;.;.;.;.;.;.;.",
";.;.;.;.;.;.;.;.;.;.;.;.;.;.;.y t t f f f 3   . ( X.%. .!       Y } $.@.' M   $ f f f t t u u ;.;.;.;.;.;.;.;.;.;.;.;.;.;.;.;.;.",
";.;.;.;.;.;.;.;.;.;.;.;.;.;.t d j i t t t ;     ` &.-.#.)       E o.=.*.[ B     t t t t f h t ;.;.;.;.;.;.;.;.;.;.;.;.;.;.;.;.;.",
";.;.;.;.;.;.;.;.;.;.;.;.;.y t j z j t t r -   @ ^ | +.{ R       L ] O..._ N     u y t h z k t t ;.;.;.;.;.;.;.;.;.;.;.;.;.;.;.;.",
";.;.;.;.;.;.;.;.;.;.;.r e t t t f z t r ;.;.: 0 A K U H C 6 = 2 V G I P D z > ;.;.;.t z j i t t t e ;.;.;.;.;.;.;.;.;.;.;.;.;.;.",
";.;.;.;.;.;.;.;.;.;.;.t f b f t t t t ;.;.;.;.g         O z M n ,         q ;.;.;.;.r t t t a z k t e ;.;.;.;.;.;.;.;.;.;.;.;.;.",
";.;.;.;.;.;.;.;.;.e t t i j b a t ;.;.;.;.;.;.;.&     # 8 z n b w *     o ;.;.;.;.;.;.;.e t v k a t t t ;.;.;.;.;.;.;.;.;.;.;.;.",
";.;.;.;.;.;.;.;.t t z a t i a t u ;.;.;.;.;.;.;.;.y t i u t t t t t t t ;.;.;.;.;.;.;.;.;.t i i t a j i u ;.;.;.;.;.;.;.;.;.;.;.",
";.;.;.;.;.;.;.y y i z z a t u ;.;.;.;.;.;.;.;.;.;.;.u y e u r y r u r ;.;.;.;.;.;.;.;.;.;.;.e e i z z d e y ;.;.;.;.;.;.;.;.;.;.",
";.;.;.;.;.;.u t t t a z a t ;.;.;.;.;.;.;.;.;.;.;.;.;.;.;.;.;.;.;.;.;.;.;.;.;.;.;.;.;.;.;.;.;.e t z a t t i t ;.;.;.;.;.;.;.;.;.",
";.;.;.;.;.t t z j i t t t ;.;.;.;.;.;.;.;.;.;.;.;.;.;.;.;.;.;.;.;.;.;.;.;.;.;.;.;.;.;.;.;.;.;.;.e t t t f v i t ;.;.;.;.;.;.;.;.",
";.;.;.u t t t a f i t y ;.;.;.;.;.;.;.;.;.;.;.;.;.;.;.;.;.;.;.;.;.;.;.;.;.;.;.;.;.;.;.;.;.;.;.;.;.;.t t f a t y u t ;.;.;.;.;.;.",
";.;.;.y j j i t f a t ;.;.;.;.;.;.;.;.;.;.;.;.;.;.;.;.;.;.;.;.;.;.;.;.;.;.;.;.;.;.;.;.;.;.;.;.;.;.;.u t f i t f z t u ;.;.;.;.;.",
";.;.;.t z j i t f a t ;.;.;.;.;.;.;.;.;.;.;.;.;.;.;.;.;.;.;.;.;.;.;.;.;.;.;.;.;.;.;.;.;.;.;.;.;.;.;.r t f i t f z t u ;.;.;.;.;.",
";.;.;.t a f t t f a e ;.;.;.;.;.;.;.;.;.;.;.;.;.;.;.;.;.;.;.;.;.;.;.;.;.;.;.;.;.;.;.;.;.;.;.;.;.;.;.t t f i t a f t ;.;.;.;.;.;.",
";.;.;.t a f t t f a e ;.;.;.;.;.;.;.;.;.;.;.;.;.;.;.;.;.;.;.;.;.;.;.;.;.;.;.;.;.;.;.;.;.;.;.;.;.;.;.t t f i t a f t ;.;.;.;.;.;.",
";.;.;.t a f t t f a e ;.;.;.;.;.;.;.;.;.;.;.;.;.;.;.;.;.;.;.;.;.;.;.;.;.;.;.;.;.;.;.;.;.;.;.;.;.;.;.t t f i t a f t ;.;.;.;.;.;.",
";.;.;.t a f t t f a e ;.;.;.;.;.;.;.;.;.;.;.;.;.;.;.;.;.;.;.;.;.;.;.;.;.;.;.;.;.;.;.;.;.;.;.;.;.;.;.t t f i t a f t ;.;.;.;.;.;.",
";.;.;.t a f t t f a e ;.;.;.;.;.;.;.;.;.;.;.;.;.;.;.;.;.;.;.;.;.;.;.;.;.;.;.;.;.;.;.;.;.;.;.;.;.;.;.t t f i t a f t ;.;.;.;.;.;.",
";.;.;.t a f t t f a e ;.;.;.;.;.;.;.;.;.;.;.;.;.;.;.;.;.;.;.;.;.;.;.;.;.;.;.;.;.;.;.;.;.;.;.;.;.;.;.t t f i t a f t ;.;.;.;.;.;.",
";.;.;.t j h t t f a t ;.;.;.;.;.;.;.;.;.;.;.;.;.;.;.;.;.;.;.;.;.;.;.;.;.;.;.;.;.;.;.;.;.;.;.;.;.;.;.e t f i t f j t ;.;.;.;.;.;.",
";.;.;.t z k i t f a y ;.;.;.;.;.;.;.;.;.;.;.;.;.;.;.;.;.;.;.;.;.;.;.;.;.;.;.;.;.;.;.;.;.;.;.;.;.;.;.t t f i t j b t y ;.;.;.;.;.",
";.;.;.t t t t i f p t ;.;.;.;.;.;.;.;.;.;.;.;.;.;.;.;.;.;.;.;.;.;.;.;.;.;.;.;.;.;.;.;.;.;.;.;.;.;.;.t t f i t t t t ;.;.;.;.;.;.",
";.;.;.;.;.y t a a i t r t ;.;.;.;.;.;.;.;.;.;.;.;.;.;.;.;.;.;.;.;.;.;.;.;.;.;.;.;.;.;.;.;.;.;.;.r t e t a a t y e ;.;.;.;.;.;.;.",
";.;.;.;.;.;.t f a t i f t y ;.;.;.;.;.;.;.;.;.;.;.;.;.;.;.;.;.;.;.;.;.;.;.;.;.;.;.;.;.;.;.;.;.r t f i t i f e t ;.;.;.;.;.;.;.;.",
";.;.;.;.;.;.t z f t i v f u ;.;.;.;.;.;.;.;.;.;.;.;.;.;.;.;.;.;.;.;.;.;.;.;.;.;.;.;.;.;.;.;.;.e i b a t a z t u ;.;.;.;.;.;.;.;.",
";.;.;.;.;.u t b h t i f i u ;.;.;.;.;.;.;.;.;.;.;.;.;.;.;.;.;.;.;.;.;.;.;.;.;.;.;.;.;.;.;.;.;.y t j i t f b y e ;.;.;.;.;.;.;.;.",
";.;.;.;.;.;.y t t t i h t t ;.;.;.;.;.;.;.;.;.;.;.;.;.;.;.;.;.;.;.;.;.;.;.;.;.;.;.;.;.;.;.;.;.e t h a t t t t ;.;.;.;.;.;.;.;.;.",
";.;.;.;.;.;.;.;.t t f j t t ;.;.;.;.;.;.;.;.;.;.;.;.;.;.;.;.;.;.;.;.;.;.;.;.;.;.;.;.;.;.;.;.;.e t j f t t u ;.;.;.;.;.;.;.;.;.;.",
";.;.;.;.;.;.;.;.e e j z t t ;.;.;.;.;.;.;.;.;.;.;.;.;.;.;.;.;.;.;.;.;.;.;.;.;.;.;.;.;.;.;.;.;.e t j z t r ;.;.;.;.;.;.;.;.;.;.;.",
";.;.;.;.;.;.;.;.u t b v t t ;.;.;.;.;.;.;.;.;.;.;.;.;.;.;.;.;.;.;.;.;.;.;.;.;.;.;.;.;.;.;.;.;.u t z b a y ;.;.;.;.;.;.;.;.;.;.;.",
";.;.;.;.;.;.;.;.e t n b t t ;.;.;.;.;.;.;.;.;.;.;.;.;.;.;.;.;.;.;.;.;.;.;.;.;.;.;.;.;.;.;.;.;.u t z n f u ;.;.;.;.;.;.;.;.;.;.;.",
";.;.;.;.;.;.;.;.;.t t a i r ;.;.;.;.;.;.;.;.;.;.;.;.;.;.;.;.;.;.;.;.;.;.;.;.;.;.;.;.;.;.;.;.;.e t f t t e ;.;.;.;.;.;.;.;.;.;.;.",
";.;.;.;.;.;.;.;.;.;.y t f t ;.;.;.;.;.;.;.;.;.;.;.;.;.;.;.;.;.;.;.;.;.;.;.;.;.;.;.;.;.;.;.;.;.y a t t ;.;.;.;.;.;.;.;.;.;.;.;.;.",
";.;.;.;.;.;.;.;.;.;.;.r t e ;.;.;.;.;.;.;.;.;.;.;.;.;.;.;.;.;.;.;.;.;.;.;.;.;.;.;.;.;.;.;.;.;.y t t ;.;.;.;.;.;.;.;.;.;.;.;.;.;.",
";.;.;.;.;.;.;.;.;.;.;.;.u ;.;.;.;.;.;.;.;.;.;.;.;.;.;.;.;.;.;.;.;.;.;.;.;.;.;.;.;.;.;.;.;.;.;.;.r ;.;.;.;.;.;.;.;.;.;.;.;.;.;.;.",
";.;.;.;.;.;.;.;.;.;.;.;.;.;.;.;.;.;.;.;.;.;.;.;.;.;.;.;.;.;.;.;.;.;.;.;.;.;.;.;.;.;.;.;.;.;.;.;.;.;.;.;.;.;.;.;.;.;.;.;.;.;.;.;.",
";.;.;.;.;.;.;.;.;.;.;.;.;.;.;.;.;.;.;.;.;.;.;.;.;.;.;.;.;.;.;.;.;.;.;.;.;.;.;.;.;.;.;.;.;.;.;.;.;.;.;.;.;.;.;.;.;.;.;.;.;.;.;.;.",
";.;.;.;.;.;.;.;.;.;.;.;.;.;.;.;.;.;.;.;.;.;.;.;.;.;.;.;.;.;.;.;.;.;.;.;.;.;.;.;.;.;.;.;.;.;.;.;.;.;.;.;.;.;.;.;.;.;.;.;.;.;.;.;.",
";.;.;.;.;.;.;.;.;.;.;.;.;.;.;.;.;.;.;.;.;.;.;.;.;.;.;.;.;.;.;.;.;.;.;.;.;.;.;.;.;.;.;.;.;.;.;.;.;.;.;.;.;.;.;.;.;.;.;.;.;.;.;.;.",
";.;.;.;.;.;.;.;.;.;.;.;.;.;.;.;.;.;.;.;.;.;.;.;.;.;.;.;.;.;.;.;.;.;.;.;.;.;.;.;.;.;.;.;.;.;.;.;.;.;.;.;.;.;.;.;.;.;.;.;.;.;.;.;.",
";.;.;.;.;.;.;.;.;.;.;.;.;.;.;.;.;.;.;.;.;.;.;.;.;.;.;.;.;.;.;.;.;.;.;.;.;.;.;.;.;.;.;.;.;.;.;.;.;.;.;.;.;.;.;.;.;.;.;.;.;.;.;.;.",
";.;.;.;.;.;.;.;.;.;.;.;.;.;.;.;.;.;.;.;.;.;.;.;.;.;.;.;.;.;.;.;.;.;.;.;.;.;.;.;.;.;.;.;.;.;.;.;.;.;.;.;.;.;.;.;.;.;.;.;.;.;.;.;."
};
