/* XPM */
static char *result[] = {
/* columns rows colors chars-per-pixel */
"64 47 73 1 ",
"  c black",
". c #030000",
"X c #050200",
"o c #090604",
"O c #0C0906",
"+ c #0E0C09",
"@ c #13110F",
"# c #151311",
"$ c #161513",
"% c #191816",
"& c #1A1917",
"* c #1B1A19",
"= c #1D1C1B",
"- c #1F1F1D",
"; c #20201F",
": c #212120",
"> c #222120",
", c #222221",
"< c #232221",
"1 c #232322",
"2 c #262625",
"3 c #272727",
"4 c #282826",
"5 c #282827",
"6 c #292927",
"7 c #282828",
"8 c #292928",
"9 c #2A2A28",
"0 c #2A2A29",
"q c #2B2B29",
"w c #2A2A2A",
"e c #2B2B2A",
"r c #2C2C2A",
"t c #2C2C2B",
"y c #2D2D2B",
"u c #2D2D2C",
"i c #30302E",
"p c #303130",
"a c #313130",
"s c #303230",
"d c #323231",
"f c #333433",
"g c #3B3C3B",
"h c #3D3E3D",
"j c #484949",
"k c #494A4A",
"l c #4C4D4D",
"z c #4D4E4D",
"x c #595B5A",
"c c #606161",
"v c #646666",
"b c #6B6D6D",
"n c #6C6E6D",
"m c #717372",
"M c #767978",
"N c #7F8181",
"B c #7F8281",
"V c #868888",
"C c #919493",
"Z c #999C9B",
"A c #A3A6A5",
"S c #A6A9A8",
"D c #ABAEAD",
"F c #ADB0AF",
"G c #BABEBD",
"H c #BDC1C0",
"J c #C4C8C7",
"K c #C6CAC9",
"L c #DCE1E0",
"P c #E0E5E4",
"I c #E7EBEA",
"U c #E9EEED",
"Y c None",
/* pixels */
"YYYYYYYYYYYYYYYYYYYYYYYYYYYYYYYYYYYYYYYYYYYYYYYYYYYYYYYYYYYYYYYY",
"YYYYYYYYYYYYYYYYYYYYYYYYYYYYYYYYYYYYYYYYYYYYYYYYYYYYYYYYYYYYYYYY",
"YYYYYYYYYYYYYYYYYYYYYYYYYYYYYYYYYYYYYYYYYYYYYYYYYYYYYYYYYYYYYYYY",
"YYYYYYYYYYYYYYYYYYYYYYYYYYYYYYYYYYYYYYYYYYYYYYYYYYYYYYYYYYYYYYYY",
"YYYYYYYYYYYYYYYYYYYYYYYYYYYYYYYYYYYYYYYYYYYYYYYYYYYYYYYYYYYYYYYY",
"YYYYYYYYYYYYYYYYYYYYYYYYYYYYYYYYYYYYYYYYYYYYYYYYYYYYYYYYYYYYYYYY",
"YYYYYYYYYYYYYYYYYYYYYYYYYYYYYYYYYYYYYYYYYYYYYYYYYYYYYYYYYYYYYYYY",
"YYYYYYYYYYYYYYYYYYYYYYYYYYYYYYYYYYYYYYYYYYYYYYYYYYYYYYYYYYYYYYYY",
"YYYYYYYYYYYYYYYYYYYYYYYYYYYYYYYYYYYYYYYYYYYYYYYYYYYYYYYYYYYYYYYY",
"YYYYYYYYYYYYYYYYYYYYYYYYYYYYYYYYYYYYYYYYYYYYYYYYYYYYYYYYYYYYYYYY",
"YYYYYYYYYYYYYYYYYYYYYYYYYYYYYYYYYYYYYYYYYYYYYYYYYYYYYYYYYYYYYYYY",
"YYYYYYYYYYYYYYYYYYYYYYYYYYYYYYYYYYYYYYYYYYYYYYYYYYYYYYYYYYYYYYYY",
"YYYYYYYYYYYYYYYYYYYYYYYYYYYYYYYYYYYYYYYYYYYYYY3YYYYYYYYYYYYYYYYY",
"YYYYYYYYYYYYYYYYYYYYYYYYYYYYYYYYYYYYYYYYYYYYY706YYYYYYYYYYYYYYYY",
"YYYYYYYYYYYYY74674YYYYYYYYYYYYYYYYYYYYYYYYYY4505647YYYYYYYYYYYYY",
"YYYYYYYYYYYY5et0t04YYYYYYYYYYYYYYYYYYYYYYYY6ee580te5YYYYYYYYYYYY",
"YYYYYYYYYYY350e0e054YYYYYYYYYYYYYYYYYYYYYY53qreq0e053YYYYYYYYYYY",
"YYYYYYYYYY5ee55555eq4YYYYYYYYYYYYYYYYYYYY6ee5555555ee5YYYYYYYYYY",
"YYYYYYYYY73ereeeeete54YYYYYYYY646656YYYY55eu07Y5eyere4444YYYYYYY",
"YYYYYYYY6e05555555550e5YYYYYY5t0888t5YY5e0505YYY5855558ee4YYYYYY",
"YYYYYYY75eu85YYYYY30ue43Y34775te00qt5764ru85YYYYYYY59t0er44YYYYY",
"YYYYYY6e05e5YYYYYYY5e55588885555555555555e5YYYYYYYYY5e5559e5YYYY",
"YYYYY45te57YYYYYYYYY58tq00qe05555555500e55YYYYYYYYYYY68e58t55YYY",
"YYYY3e85e5YYYYYYYYYYY6e5555555555555555e8YYYYYYYYYYYYY5e5558e5YY",
"YYYY5u05u5YYYYYYYYYYYY58e55555555555555e5YYYYYYYYYYYYYY35e5qi5YY",
"YYYY7e85r3YYYYYYYYYYYYY5r55555555555555e8YYYYYYYYYYYYYYY5t58r5YY",
"YYY650t55YYYYYYYYYYYYYYY55et@  &uu=  +tu7YYYYYYYYYYYYYYYY5856YYY",
"YY5e85t5YYYYYYYYYYYYYYYYY6t0;Xo,0w1O.-0t7YYYYYYYYYYYYYYYYY55YYYY",
"YYY4585YYYYYYYYYYYYYYYYYY5* bDSc  xAFm $7YYYYYYYYYYYYYYYYY7YYYYY",
"YYYY45YYYYYYYYYYYYYYYYYYY5  CIPB  MLUZ  5YYYYYYYYYYYYYYYYYYYYYYY",
"YYYYY7YYYYYYYYYYYYYYYYYYYY  NJHn  vGKV  3YYYYYYYYYYYYYYYYYYYYYYY",
"YYYYYYYYYYYYYYYYYYYYYYYYYYY<glkf>:djzh1YYYYYYYYYYYYYYYYYYYYYYYYY",
"YYYYYYYYYYYYYYYYYYYYYYYYYYYY   #pa%   sYYYYYYYYYYYYYYYYYYYYYYYYY",
"YYYYYYYYYYYYYYYYYYYYYYYYYYYYY2r0000t2YYYYYYYYYYYYYYYYYYYYYYYYYYY",
"YYYYYYYYYYYYYYYYYYYYYYYYYYYYY35766553YYYYYYYYYYYYYYYYYYYYYYYYYYY",
"YYYYYYYYYYYYYYYYYYYYYYYYYYYYYYYYYYYYYYYYYYYYYYYYYYYYYYYYYYYYYYYY",
"YYYYYYYYYYYYYYYYYYYYYYYYYYYYYYYYYYYYYYYYYYYYYYYYYYYYYYYYYYYYYYYY",
"YYYYYYYYYYYYYYYYYYYYYYYYYYYYYYYYYYYYYYYYYYYYYYYYYYYYYYYYYYYYYYYY",
"YYYYYYYYYYYYYYYYYYYYYYYYYYYYYYYYYYYYYYYYYYYYYYYYYYYYYYYYYYYYYYYY",
"YYYYYYYYYYYYYYYYYYYYYYYYYYYYYYYYYYYYYYYYYYYYYYYYYYYYYYYYYYYYYYYY",
"YYYYYYYYYYYYYYYYYYYYYYYYYYYYYYYYYYYYYYYYYYYYYYYYYYYYYYYYYYYYYYYY",
"YYYYYYYYYYYYYYYYYYYYYYYYYYYYYYYYYYYYYYYYYYYYYYYYYYYYYYYYYYYYYYYY",
"YYYYYYYYYYYYYYYYYYYYYYYYYYYYYYYYYYYYYYYYYYYYYYYYYYYYYYYYYYYYYYYY",
"YYYYYYYYYYYYYYYYYYYYYYYYYYYYYYYYYYYYYYYYYYYYYYYYYYYYYYYYYYYYYYYY",
"YYYYYYYYYYYYYYYYYYYYYYYYYYYYYYYYYYYYYYYYYYYYYYYYYYYYYYYYYYYYYYYY",
"YYYYYYYYYYYYYYYYYYYYYYYYYYYYYYYYYYYYYYYYYYYYYYYYYYYYYYYYYYYYYYYY",
"YYYYYYYYYYYYYYYYYYYYYYYYYYYYYYYYYYYYYYYYYYYYYYYYYYYYYYYYYYYYYYYY"
};
