/* XPM */
static char *result[] = {
/* columns rows colors chars-per-pixel */
"64 52 74 1 ",
"  c black",
". c #020000",
"X c #0A0603",
"o c #0C0906",
"O c #0F0D0B",
"+ c #151412",
"@ c #171615",
"# c #181615",
"$ c #191816",
"% c #1A1918",
"& c #1D1C1B",
"* c #1D1D1B",
"= c #1E1D1C",
"- c #1E1E1D",
"; c #1F1E1D",
": c #1F1F1D",
"> c #1F1F1E",
", c #21211F",
"< c #242423",
"1 c #252524",
"2 c #262524",
"3 c #262625",
"4 c #272726",
"5 c #272727",
"6 c #282826",
"7 c #282827",
"8 c #292927",
"9 c #282828",
"0 c #292928",
"q c #2A2A29",
"w c #2B2B29",
"e c #2B2B2A",
"r c #2B2C2B",
"t c #2C2C2A",
"y c #2C2C2B",
"u c #2D2D2C",
"i c #2E2E2D",
"p c #2F2F2E",
"a c #2F302E",
"s c #2F302F",
"d c #30302F",
"f c gray23",
"g c #3E3E3E",
"h c #434444",
"j c #464746",
"k c #545655",
"l c #5A5C5B",
"z c #606261",
"x c #626363",
"c c #646665",
"v c #656767",
"b c #6A6C6B",
"n c #6C6E6D",
"m c #717373",
"M c #717473",
"N c #757777",
"B c #7E8080",
"V c #818383",
"C c #888A8A",
"Z c #8F9291",
"A c #979A99",
"S c #999C9B",
"D c #9B9E9E",
"F c #A1A5A4",
"G c #A3A6A5",
"H c #C4C8C7",
"J c #C7CBCA",
"K c #CDD1D0",
"L c #CFD3D3",
"P c #DADEDD",
"I c #DDE2E1",
"U c #E4E9E8",
"Y c #E7ECEB",
"T c None",
/* pixels */
"TTTTTTTTTTTTTTTTTTTTTTTTTTTTTTTTTTTTTTTTTTTTTTTTTTTTTTTTTTTTTTTT",
"TTTTTTTTTTTTTTTTTTTTTTTTTTTTTTTTTTTTTTTTTTTTTTTTTTTTTTTTTTTTTTTT",
"TTTTTTTTTTTTTTTTTTTTTTTTTTTTTTTTTTTTTTTTTTTTTTTTTTTTTTTTTTTTTTTT",
"TTTTTTTTTTTTTTTTTTTTTTTTTTTTTTTTTTTTTTTTTTTTTTTTTTTTTTTTTTTTTTTT",
"TTTTTTTTTTTTTTTTTTTTTTTTTTTTTTTTTTTTTTTTTTTTTTTTTTTTTTTTTTTTTTTT",
"TTTTTTTTTTTTTTTTTTTTTTTTTTTTTTTTTTTTTTTTTTTTTTTTTTTTTTTTTTTTTTTT",
"TTTTTTTTTTTTTTTTTTTTTTTTTTTTTTTTTTTTTTTTTTTTTTTTTTTTTTTTTTTTTTTT",
"TTTTTTTTTTTTTTTTTTTTTTTTTTTTTTTTTTTTTTTTTTTTTTTTTTTTTTTTTTTTTTTT",
"TTTTTTTTTTTTTTTTTTTTTTTTTTTTTTTTTTTTTTTTTTTTTTTT6TTTTTTTTTTTTTTT",
"TTTTTTTTTTTTTTTTTTTTTTTTTTTTTTTTTTTTTTTTTTTTTTT708TTTTTTTTTTTTTT",
"TTTTTTTTTTTTTTTTTTTTTTTTTTTTTTTTTTTTTTTTTTTTTT67q75TTTTTTTTTTTTT",
"TTTTTTTTTTTTTTTTTTTTTTTTTTTTTTTTTTTTTTTTTTTTT70e7eq5TTTTTTTTTTTT",
"TTTTTTTTTTTTTTT856TTTTTTTTTTTTTTTTTTTTTTTTTT67eyeye75TTTTTTTTTTT",
"TTTTTTTTTTTTTT67u78TTTTTTTTTTTTTTTTTTTTTTTT60q77777q07TTTTTTTTTT",
"TTTTTTTTTTTTTT7eie7TTTTTTTTTTTTTTTTTTTTTTT97euq657quy78TTTTTTTTT",
"TTTTTTTTTTTT97q77777075TTTTTTTTTTTTTTTTTT5007e7TTT7t7006TTTTTTTT",
"TTTTTTTTTTTT7tyqqqqeyy79TTTTTTTTTTTTTTTT97yu095TTT670ii76TTTTTTT",
"TTTTTTTTTT87070qqq0777078TTTTTTTTTTTTTT8707y78TTTTTT7uqq79TTTTTT",
"TTTTTTTTTT7yu0766770eqeu7TTTTTTTTTTTTTT7uu075TTTTTTT8969u79TTTTT",
"TTTTTTTT7777y09TTT50uwq0776TTTTTTTTTT6770u79TTTTTTTTTTTT7u76TTTT",
"TTTTTTTT6uy787TTTTT89677yu7TTTTTTTTTT6ue775TTTTTTTTTTTTT77i6TTTT",
"TTTTTT6570e76TTTTTTTTTT7u07767777776770e7TTTTTTTTTTTTTTTTT07TTTT",
"TTTTTT5pe7y7TTTTTTTTTTT677qeyeeeeeeye07e7TTTTTTTTTTTTTTTTT56TTTT",
"TTTTTT7ie7u0TTTTTTTTTTTTT7e077777777777e6TTTTTTTTTTTTTTTTTTTTTTT",
"TTTTTTT67079TTTTTTTTTTTTT7y777777777777e9TTTTTTTTTTTTTTTTTTTTTTT",
"TTTTTTTT7q8TTTTTTTTTTTTTT7e777777777777e9TTTTTTTTTTTTTTTTTTTTTTT",
"TTTTTTTT77TTTTTTTTTTTTTTT5e777777777777e9TTTTTTTTTTTTTTTTTTTTTTT",
"TTTTTTTTTTTTTTTTTTTTTTTTT5e777777777777e9TTTTTTTTTTTTTTTTTTTTTTT",
"TTTTTTTTTTTTTTTTTTTTTTTTT4y01*=2003-&<0y9TTTTTTTTTTTTTTTTTTTTTTT",
"TTTTTTTTTTTTTTTTTTTTTTTTT4ii   Ops+   ui9TTTTTTTTTTTTTTTTTTTTTTT",
"TTTTTTTTTTTTTTTTTTTTTTTTT74=hcxg$@fzvj;37TTTTTTTTTTTTTTTTTTTTTTT",
"TTTTTTTTTTTTTTTTTTTTTTTTT7o VKJM  bHLC  7TTTTTTTTTTTTTTTTTTTTTTT",
"TTTTTTTTTTTTTTTTTTTTTTTTT7  ZUIB  NPYA  7TTTTTTTTTTTTTTTTTTTTTTT",
"TTTTTTTTTTTTTTTTTTTTTTTTTTX nFDl  kSGm .TTTTTTTTTTTTTTTTTTTTTTTT",
"TTTTTTTTTTTTTTTTTTTTTTTTTTTy%  *yy>  #rTTTTTTTTTTTTTTTTTTTTTTTTT",
"TTTTTTTTTTTTTTTTTTTTTTTTTTTT.  :ad,   TTTTTTTTTTTTTTTTTTTTTTTTTT",
"TTTTTTTTTTTTTTTTTTTTTTTTTTTTT7q7777q7TTTTTTTTTTTTTTTTTTTTTTTTTTT",
"TTTTTTTTTTTTTTTTTTTTTTTTTTTTTT5TTTT5TTTTTTTTTTTTTTTTTTTTTTTTTTTT",
"TTTTTTTTTTTTTTTTTTTTTTTTTTTTTTTTTTTTTTTTTTTTTTTTTTTTTTTTTTTTTTTT",
"TTTTTTTTTTTTTTTTTTTTTTTTTTTTTTTTTTTTTTTTTTTTTTTTTTTTTTTTTTTTTTTT",
"TTTTTTTTTTTTTTTTTTTTTTTTTTTTTTTTTTTTTTTTTTTTTTTTTTTTTTTTTTTTTTTT",
"TTTTTTTTTTTTTTTTTTTTTTTTTTTTTTTTTTTTTTTTTTTTTTTTTTTTTTTTTTTTTTTT",
"TTTTTTTTTTTTTTTTTTTTTTTTTTTTTTTTTTTTTTTTTTTTTTTTTTTTTTTTTTTTTTTT",
"TTTTTTTTTTTTTTTTTTTTTTTTTTTTTTTTTTTTTTTTTTTTTTTTTTTTTTTTTTTTTTTT",
"TTTTTTTTTTTTTTTTTTTTTTTTTTTTTTTTTTTTTTTTTTTTTTTTTTTTTTTTTTTTTTTT",
"TTTTTTTTTTTTTTTTTTTTTTTTTTTTTTTTTTTTTTTTTTTTTTTTTTTTTTTTTTTTTTTT",
"TTTTTTTTTTTTTTTTTTTTTTTTTTTTTTTTTTTTTTTTTTTTTTTTTTTTTTTTTTTTTTTT",
"TTTTTTTTTTTTTTTTTTTTTTTTTTTTTTTTTTTTTTTTTTTTTTTTTTTTTTTTTTTTTTTT",
"TTTTTTTTTTTTTTTTTTTTTTTTTTTTTTTTTTTTTTTTTTTTTTTTTTTTTTTTTTTTTTTT",
"TTTTTTTTTTTTTTTTTTTTTTTTTTTTTTTTTTTTTTTTTTTTTTTTTTTTTTTTTTTTTTTT",
"TTTTTTTTTTTTTTTTTTTTTTTTTTTTTTTTTTTTTTTTTTTTTTTTTTTTTTTTTTTTTTTT",
"TTTTTTTTTTTTTTTTTTTTTTTTTTTTTTTTTTTTTTTTTTTTTTTTTTTTTTTTTTTTTTTT"
};
