/* XPM */
static char *result[] = {
/* columns rows colors chars-per-pixel */
"64 59 91 1 ",
"  c black",
". c #010000",
"X c #020000",
"o c #050200",
"O c #090603",
"+ c #0A0704",
"@ c #100E0B",
"# c #100F0C",
"$ c #12110F",
"% c #161513",
"& c #161514",
"* c #171715",
"= c #191816",
"- c #191817",
"; c #1A1917",
": c #1B1A1A",
"> c #1F1E1C",
", c #1F1F1E",
"< c #20201E",
"1 c #20201F",
"2 c #21211F",
"3 c #212120",
"4 c #222220",
"5 c #222221",
"6 c #232221",
"7 c #232322",
"8 c #242322",
"9 c #242423",
"0 c #252423",
"q c #262625",
"w c #272625",
"e c #272726",
"r c #272727",
"t c #282726",
"y c #282826",
"u c #282827",
"i c #292927",
"p c #282828",
"a c #292928",
"s c #2A2A28",
"d c #2A2A29",
"f c #2B2B29",
"g c #2B2B2A",
"h c #2C2C2A",
"j c #2C2C2B",
"k c #2D2D2C",
"l c #2E2E2C",
"z c #2E2E2D",
"x c #2F2F2E",
"c c #30302F",
"v c #323231",
"b c #333332",
"n c #373737",
"m c #393A39",
"M c #3D3E3D",
"N c #3E3F3E",
"B c #494A49",
"V c #4A4B4A",
"C c #626463",
"Z c #646665",
"A c #676968",
"S c #696B6B",
"D c #7A7C7B",
"F c #7E8181",
"G c #838685",
"H c #888A89",
"J c #888B8B",
"K c #898C8B",
"L c #909392",
"P c #919493",
"I c #969998",
"U c #999C9B",
"Y c #9A9D9D",
"T c #9DA09F",
"R c #A0A3A3",
"E c #A1A5A4",
"W c #A5A9A8",
"Q c #A6AAA9",
"! c #ACB0AF",
"~ c #AFB2B1",
"^ c #B2B6B5",
"/ c #B5B8B8",
"( c #D5D9D8",
") c #D6DAD9",
"_ c #D8DDDC",
"` c #DADEDD",
"' c #E3E8E7",
"] c #E5E9E9",
"[ c #E5EAE9",
"{ c #E7EBEA",
"} c None",
/* pixels */
"}}}}}}}}}}}}}}}}}}}}}}}}}}}}}}}}}}}}}}}}}}}}}}}}}}}}}}}}}}}}}}}}",
"}}}}}}}}}}}}}}}}}}}}}}}}}}}}}}}}}}}}}}}}}}}}}}}}}}}}}}}}}}}}}}}}",
"}}}}}}}}}}}}}}}}}}}}}}}}}}}}}}}}}}}}}}}}}}}}}}}}}}}}}}}}}}}}}}}}",
"}}}}}}}}}}}}}}}}}}}}}}}}}}}}}}}}}}}}}}}}}}}}}}}}}}}}}}}}}}}}}}}}",
"}}}}}}}}}}}}}}}}}}}}}}}}}}}}}}}}}}}}}}}}}}}}}}}}}}}}}}}}}}}}}}}}",
"}}}}}}}}}}}}}}}}}}}}}}}}}}}}}}}}}}}}}}}}}}}}}}}}}}}}}}}}}}}}}}}}",
"}}}}}}}}}}}}}}}}}}}}}}}}}}}}}}}}}}}}}}}}}}}}}}}}}}}}}}}}}}}}}}}}",
"}}}}}}}}}}}}}}}}}}}}}}}}}}}}}}}}}}}}}}}}}}}}}}}}}}}}}}}}}}}}}}}}",
"}}}}}}}}}}}}}}}}}}}}}}}}}}}}}}}}}}}}}}}}}}}}}}}}}}}}}}}}}}}}}}}}",
"}}}}}}}}}}}}}}}}}}}}}}}}}}}}}}}}}}}}}}}}}}}}}}}}}}}}}}}}}}}}}}}}",
"}}}}}}}}}}}}}}}}}}}}}}}}}}}}}}}}}}}}}}}}}}}}}uuuuuu}}}}}}}}}}}}}",
"}}}}}}}}}}}}}}}}}}}}}}}}}}}}}}}}}}}}}}}}}}}}yfzggzfy}}}}}}}}}}}}",
"}}}}}}}}}}}}}}}}}}rypyyyru}}}}}}}}}}}}}}}}}rudgddgdur}}}}}}}}}}}",
"}}}}}}}}}}}}}}}}}yuguuuuddr}}}}}}}}}}}}}}}ugduuuuuudgu}}}}}}}}}}",
"}}}}}}}}}}}}}}}}pygzkkkklkuy}}}}}}}}}}}}}yukjddddadjzui}}}}}}}}}",
"}}}}}}}}}}}}}}}uuuudgjjgdauuy}}}}}}}}}}}uuuadgggggghjduyuuu}}}}}",
"}}}}}}}}}}}}}}pulhuuuyuyurdlar}}}}}}}}}idkduuupuuuuuuirrdku}}}}}",
"}}}}}}}}}}}}}yuuglgu}}}}puljaup}}}}}}}uuajkup}}}}}}}}}}}ugjur}}}",
"}}}}}}}}}}}}ruhauguy}}}}}ugauggu}}}}}ygfuagu}}}}}}}}}}}}}uhjui}}",
"}}}}}}}}}}}pukxjuuu}}}}}}}prakku}}}}}ykkauu}}}}}}}}}}}}}}pipu}}}",
"}}}}}}}}}}iusgkzr}}}}}}}}}}uakdu}}}}}ugkai}}}}}}}}}}}}}}}}}}}}}}",
"}}}}}}}}}yukuuuuu}}}}}}}}}}udkdp}}}}}ugkar}}}}}}}}}}}}}}}}}}}}}}",
"}}}}}}}}yukai}}}}}}}}}}}}}}idkdp}}}}}ugkay}}}}}}}}}}}}}}}}}}}}}}",
"}}}}}}}pujdu}}}}}}}}}}}}}}}ydkdp}}}}}ugkai}}}}}}}}}}}}}}}}}}}}}}",
"}}}}}}}}iri}}}}}}}}}}}}}}}}ydkdp}}}}}ugkai}}}}}}}}}}}}}}}}}}}}}}",
"}}}}}}}}}}}}}}}}}}}}}}}}}}}ydkdp}}}}}ugkai}}}}}}}}}}}}}}}}}}}}}}",
"}}}}}}}}}}}}}}}}}}}}}}}}}}}ydkdy}}}}}igkai}}}}}}}}}}}}}}}}}}}}}}",
"}}}}}}}}}}}}}}}}}}}}}}}}}}}ydkdr}}}}}ugkai}}}}}}}}}}}}}}}}}}}}}}",
"}}}}}}}}}}}}}}}}}}}}}}}}}}}ydkdu}}}}}pfkai}}}}}}}}}}}}}}}}}}}}}}",
"}}}}}}}}}}}}}}}}}}}}}}}}}}}pdjaup}}}yuajau}}}}}}}}}}}}}}}}}}}}}}",
"}}}}}}}}}}}}}}}}}}}}}}}}}}}pdguuuuuuuuugau}}}}}}}}}}}}}}}}}}}}}}",
"}}}}}}}}}}}}}}}}}}}}}}}}}}}uaduadhjhdaudau}}}}}}}}}}}}}}}}}}}}}}",
"}}}}}}}}}}}}}}}}}}}}}}}}}puuuauuaaaaauuauuip}}}}}}}}}}}}}}}}}}}}",
"}}}}}}}}}}}}}}}}}}}}}}}}}ukduuuuuuuuuuuuudku}}}}}}}}}}}}}}}}}}}}",
"}}}}}}}}}}}}}}}}}}}}}}}}}ukduuuuuuuuuuuuudku}}}}}}}}}}}}}}}}}}}}",
"}}}}}}}}}}}}}}}}}}}}}}}}}ugauuuuuuuuuuuuuagi}}}}}}}}}}}}}}}}}}}}",
"}}}}}}}}}}}}}}}}}}}}}}}}}ugauuuuuuuuuuuuuagi}}}}}}}}}}}}}}}}}}}}",
"}}}}}}}}}}}}}}}}}}}}}}}}}ugauuuuuuuuuuuuuagi}}}}}}}}}}}}}}}}}}}}",
"}}}}}}}}}}}}}}}}}}}}}}}}}ugdu935quauq530udgi}}}}}}}}}}}}}}}}}}}}",
"}}}}}}}}}}}}}}}}}}}}}}}}}ukx9   Ojcg    qxji}}}}}}}}}}}}}}}}}}}}",
"}}}}}}}}}}}}}}}}}}}}}}}}}ujde,%;8ada7-&<tggr}}}}}}}}}}}}}}}}}}}}",
"}}}}}}}}}}}}}}}}}}}}}}}}}u0 mFEICo $AURDb wu}}}}}}}}}}}}}}}}}}}}",
"}}}}}}}}}}}}}}}}}}}}}}}}}u= B^[(J   L_'!M >r}}}}}}}}}}}}}}}}}}}}",
"}}}}}}}}}}}}}}}}}}}}}}}}}i@ V/{)K   P`]~N &r}}}}}}}}}}}}}}}}}}}}",
"}}}}}}}}}}}}}}}}}}}}}}}}}}* NHQYZ. #STWGn :}}}}}}}}}}}}}}}}}}}}}",
"}}}}}}}}}}}}}}}}}}}}}}}}}}}pae57quauq76uai}}}}}}}}}}}}}}}}}}}}}}",
"}}}}}}}}}}}}}}}}}}}}}}}}}}}}4   +zvkX   9}}}}}}}}}}}}}}}}}}}}}}}",
"}}}}}}}}}}}}}}}}}}}}}}}}}}}}}21tsgjgse13}}}}}}}}}}}}}}}}}}}}}}}}",
"}}}}}}}}}}}}}}}}}}}}}}}}}}}}}}puyppyyur}}}}}}}}}}}}}}}}}}}}}}}}}",
"}}}}}}}}}}}}}}}}}}}}}}}}}}}}}}}}}}}}}}}}}}}}}}}}}}}}}}}}}}}}}}}}",
"}}}}}}}}}}}}}}}}}}}}}}}}}}}}}}}}}}}}}}}}}}}}}}}}}}}}}}}}}}}}}}}}",
"}}}}}}}}}}}}}}}}}}}}}}}}}}}}}}}}}}}}}}}}}}}}}}}}}}}}}}}}}}}}}}}}",
"}}}}}}}}}}}}}}}}}}}}}}}}}}}}}}}}}}}}}}}}}}}}}}}}}}}}}}}}}}}}}}}}",
"}}}}}}}}}}}}}}}}}}}}}}}}}}}}}}}}}}}}}}}}}}}}}}}}}}}}}}}}}}}}}}}}",
"}}}}}}}}}}}}}}}}}}}}}}}}}}}}}}}}}}}}}}}}}}}}}}}}}}}}}}}}}}}}}}}}",
"}}}}}}}}}}}}}}}}}}}}}}}}}}}}}}}}}}}}}}}}}}}}}}}}}}}}}}}}}}}}}}}}",
"}}}}}}}}}}}}}}}}}}}}}}}}}}}}}}}}}}}}}}}}}}}}}}}}}}}}}}}}}}}}}}}}",
"}}}}}}}}}}}}}}}}}}}}}}}}}}}}}}}}}}}}}}}}}}}}}}}}}}}}}}}}}}}}}}}}",
"}}}}}}}}}}}}}}}}}}}}}}}}}}}}}}}}}}}}}}}}}}}}}}}}}}}}}}}}}}}}}}}}"
};
