/* XPM */
static char *result[] = {
/* columns rows colors chars-per-pixel */
"64 64 93 2 ",
"   c black",
".  c #020000",
"X  c #050100",
"o  c #080502",
"O  c #080503",
"+  c #090604",
"@  c #0C0907",
"#  c #0F0C09",
"$  c #110F0D",
"%  c #171614",
"&  c #191816",
"*  c #191817",
"=  c #1A1917",
"-  c #1C1B1A",
";  c #1C1C1A",
":  c #1D1C1B",
">  c #1E1E1C",
",  c #201F1E",
"<  c #21201F",
"1  c #222120",
"2  c #222221",
"3  c #242322",
"4  c #242422",
"5  c #242423",
"6  c #252423",
"7  c #252524",
"8  c #262524",
"9  c #262625",
"0  c #272726",
"q  c #272727",
"w  c #282826",
"e  c #282827",
"r  c #292927",
"t  c #282828",
"y  c #292928",
"u  c gray16",
"i  c #2A2A28",
"p  c #2A2A29",
"a  c #2B2B29",
"s  c #2A2B2A",
"d  c #2B2B2A",
"f  c #2C2C2A",
"g  c #2C2C2B",
"h  c #2D2D2B",
"j  c #2C2C2C",
"k  c #2D2D2C",
"l  c #2D2D2D",
"z  c #2D2E2D",
"x  c #2E2E2C",
"c  c #2E2E2D",
"v  c #2E2F2E",
"b  c #2F2F2E",
"n  c #2F302F",
"m  c #303130",
"M  c #313130",
"N  c #323231",
"B  c #323332",
"V  c #343534",
"C  c #353635",
"Z  c #383938",
"A  c #3A3A3A",
"S  c #3A3B3A",
"D  c #3F403F",
"F  c #404140",
"G  c #424342",
"H  c #434443",
"J  c #454645",
"K  c #454646",
"L  c #464847",
"P  c #4C4D4C",
"I  c #525453",
"U  c #606262",
"Y  c #6A6C6B",
"T  c #707271",
"R  c #757877",
"E  c #828584",
"W  c #878989",
"Q  c #939696",
"!  c #9B9E9D",
"~  c #9EA1A0",
"^  c #A5A9A8",
"/  c #A8ABAA",
"(  c #ACAFAF",
")  c #AFB3B2",
"_  c #B0B3B3",
"`  c #B2B6B5",
"'  c #CDD1D0",
"]  c #D2D6D5",
"[  c #DBE0DF",
"{  c #DEE3E2",
"}  c #E9EDEC",
"|  c #E9EEED",
" . c None",
/* pixels */
" . . . . . . . . . . . . . . . . . . . . . . . . . . . . . . . . . . . . . . . . . . . . . . . . . . . . . . . . . . . . . . . .",
" . . . . . . . . . . . . . . . . . . . . . . . . . . . . . . . . . . . . . . . . . . . . . . . . . . . . . . . . . . . . . . . .",
" . . . . . . . . . . . . . . . . . . . . . . . . . . . . . . . . . . . . . . . . . . . . . . . . . . . . . . . . . . . . . . . .",
" . . . . . . . . . . . . . . . . . . . . . . . . . . . . . . . . . . . . . . . . . . . . . . . . . . . . . . . . . . . . . . . .",
" . . . . . . . . . . . . . . . . . . . . . . . . . . . . . . . . . . . . . . . . . . . . . . . . . . . . . . . . . . . . . . . .",
" . . . . . . . . . . . . . . . . . . . . . . . . . . . . . . . . . . . . . . . . . . . . . . . . . . . . . . . . . . . . . . . .",
" . . . . . . . . . . . . . . . . . . . . . . . . . . . . . . . . . . . . . . . . . . . . . . . . . . . . . . . . . . . . . . . .",
" . . . . . . . . . . . . . . . . . . . . . . . . . . . . . . . . . . . . . . . . . . . . . . . . . . . . . . . . . . . . . . . .",
" . . . . . . . . . . . . . . . . . . . . . . . . . . . . . . . . . . . . . . . . . . . . . . . . . . . . . . . . . . . . . . . .",
" . . . . . . . . . . . . . . . . . . . . . . . . . . . . . . . . . . . . . . . . . . . . . . . . . . . . . . . . . . . . . . . .",
" . . . . . . . . . . . . . . . . . . . . . . . . . . . . . . . . . . . . . . . . . . . . . . . . . . . . . . . . . . . . . . . .",
" . . . . . . . . . . . . . . . . . . . . . . . . . . . . . . . . . . . . . . . . . . . . . . . . . . . . . . . . . . . . . . . .",
" . . . . . . . . . . . . . . . . . . . . . . . . . . . . . . . . . . . . . . . . . . . . . . . . . . . . . . . . . . . . . . . .",
" . . . . . . . . . . . . . . . . . . . . . . . . .w w e w w w w t q w t  . . . . . . . . . . . . . . . . . . . . . . . . . . . .",
" . . . . . . . . . . . . . . . . . . . . . . . .r e y 0 e e e e e e i e w  . . . . . . . . . . . . . . . . . . . . . . . . . . .",
" . . . . . . . . . . . . . . . . . . . . . . .q e h c g d d d d f k c a q t  . . . . . . . . . . . . . . . . . . . . . . . . . .",
" . . . . . . . . . . . . . . . . . .r e w w q r e p p y y y y y y p p y e e t w e e e  . . . . . . . . . . . . . . . . . . . . .",
" . . . . . . . . . . . . . . . . .r y k d p y y e e e e e e e e e e e e e y y p g g e e  . . . . . . . . . . . . . . . . . . . .",
" . . . . . . . . . . . . . . .t q w d k g d a p y e e e e e e e e e e e y p d f k k y r q  . . . . . . . . . . . . . . . . . . .",
" . . . . . . . . . . . . . .r e e e e y y e e e e e e e e e e e e e e e e e e e y y e 0 e e t  . . . . . . . . . . . . . . . . .",
" . . . . . . . . . . . . .r e h k p e e e e e e e e e e e e e e e e e e e e e e e e e d k d t w  . . . . . . . . . . . . . . . .",
" . . . . . . . . . . .r t e e d d y e e e e e e e e e e e e e e e e e e e e e e e e e p d p e e r  . . . . . . . . . . . . . . .",
" . . . . . . . . . .q e p y e e e e e e e e e e e e e e e e e e e e e e e e e e e e e e e e r p e e  . . . . . . . . . . . . . .",
" . . . . . . . . . .e y c g y e e e e y p y 5 %     @ > 0 s d p 7 & .   + : 0 p u e e e e e p k k e q  . . . . . . . . . . . . .",
" . . . . . . . . . .q e g d y e e e e p c g *           9 n M l :           4 c j y e e e e y g d r w  . . . . . . . . . . . . .",
" . . . . . . . . . .r r d p e e e e e 0 6 8 c A H J D V y 3 2 7 k Z G K F C p 5 7 e e e e e y d p r q  . . . . . . . . . . . . .",
" . . . . . . . . . .e e d a e e e e e -     I W / ) ! T B       P E ^ _ ~ R S     5 e e e e y d p w  . . . . . . . . . . . . . .",
" . . . . . . . . . .q e d d e e e e e O     Y ` { } ' Q S       U ( [ | ] ! L     , e e e e y d p e  . . . . . . . . . . . . . .",
" . . . . . . . . . .w e d p e e e e e O     Y ` { } ' Q S       U ( [ | ] ! L     , e e e e y d p e r  . . . . . . . . . . . . .",
" . . . . . . . .r e e e y y e e e e e -     I W / ) ! T B       P E ^ _ ~ R S     5 e e e e e y y q e e r  . . . . . . . . . . .",
" . . . . . . .e e p y e e e e e e e e 0 6 8 c A H J D V y 3 2 7 k Z G K F C p 5 7 e e e e e e e e e y i e q  . . . . . . . . . .",
" . . . . . . .w g c d e e e e e e e e p z g =           0 m N v >           7 b k y e e e e e e e y g c y e  . . . . . . . . . .",
" . . . . . . .t p g p e e e e e e e e y p y 5 & X   $ 1 d c v k e ; o   # < p k d y e e e e e e e y d g e q  . . . . . . . . . .",
" . . . . . . .q y d p e e e e e e e e e e e e e e e e e e e e e e e e e e e e e e e e e e e e e e e p d q r  . . . . . . . . . .",
" . . . . . . .e d k p e e e e e e e e y d d e e r t q r t t t w w w w w q q t r e e d d y e e e e e p d q r  . . . . . . . . . .",
" . . . . . . .e f c d e e e e e e e e p k k e e  . . . . . . . . . . . . . . . .e e k h p e e e e e p d q r  . . . . . . . . . .",
" . . . . . . .t r e e e e e e e e r e e e e w  . . . . . . . . . . . . . . . . . .w e e e e e e e e p d q r  . . . . . . . . . .",
" . . . . . . . . .t t e p y e e y p e r e t  . . . . . . . . . . . . . . . . . . . .t r r e p y e e p d q r  . . . . . . . . . .",
" . . . . . . . . . .q e d p e e p d e w  . . . . . . . . . . . . . . . . . . . . . . . .w e d p e e p d q r  . . . . . . . . . .",
" . . . . . . . . . .t e d d e e p g e e  . . . . . . . . . . . . . . . . . . . . . . . .e e g p e y d g e q  . . . . . . . . . .",
" . . . . . . . . . .w 0 d p e e p d e q  . . . . . . . . . . . . . . . . . . . . . . . .q e d y e y g c y e  . . . . . . . . . .",
" . . . . . . . . . .r r d p e e p d e e  . . . . . . . . . . . . . . . . . . . . . . . .e e d p e e y i e q  . . . . . . . . . .",
" . . . . . . . . . .r r d p e e p f e w  . . . . . . . . . . . . . . . . . . . . . . . .w e g d y q e e w  . . . . . . . . . . .",
" . . . . . . . . . .r r d p e e p g e e  . . . . . . . . . . . . . . . . . . . . . . . .e e g g p e e  . . . . . . . . . . . . .",
" . . . . . . . . . .e e d d e e y d e q t  . . . . . . . . . . . . . . . . . . . . . .t q e g k p e  . . . . . . . . . . . . . .",
" . . . . . . . . . .r e c g y e e y e e e w  . . . . . . . . . . . . . . . . . . . .w e e e a g p w  . . . . . . . . . . . . . .",
" . . . . . . . . . .r e g d y e e e e e p y t  . . . . . . . . . . . . . . . . . .t y p e e y d p r q  . . . . . . . . . . . . .",
" . . . . . . . . . . .q e e t y y e e p g k e w  . . . . . . . . . . . . . . . .w e k g i e y g d e t  . . . . . . . . . . . . .",
" . . . . . . . . . . . . .r e y p y e y p p e e t e  . . . . . . . . . . . .r e e e p y e e p k k e q  . . . . . . . . . . . . .",
" . . . . . . . . . . . . . .t p d y e e e e r d g e t  . . . . . . . . . .e 0 g d r e e e e y p e e  . . . . . . . . . . . . . .",
" . . . . . . . . . . . . . .e g k p e e e e y g c y r  . . . . . . . . .r e p g d e e y d p e e r  . . . . . . . . . . . . . . .",
" . . . . . . . . . . . . .w w k k p e e e e e a d e r  . . . . . . .e e e e e y e e e d k d t w  . . . . . . . . . . . . . . . .",
" . . . . . . . . . . . . . .w e e e e y e e e p d e q  . . . . . . .r g x d e e e y e e e e t  . . . . . . . . . . . . . . . . .",
" . . . . . . . . . . . . . . . .q e d g p e e p d e q  . . . . . . .e d k p e y d g y e q  . . . . . . . . . . . . . . . . . . .",
" . . . . . . . . . . . . . . . . .e y g p e e p d e q  . . . . . . .e y d y e y d g e e  . . . . . . . . . . . . . . . . . . . .",
" . . . . . . . . . . . . . . . . . .q e e e p g f e t  . . . . . . .e y g d i e e e t  . . . . . . . . . . . . . . . . . . . . .",
" . . . . . . . . . . . . . . . . . . .r q y x c g e w  . . . . . . .e y k c g e r  . . . . . . . . . . . . . . . . . . . . . . .",
" . . . . . . . . . . . . . . . . . . . .t e p g d e r  . . . . . . .w y g f e r  . . . . . . . . . . . . . . . . . . . . . . . .",
" . . . . . . . . . . . . . . . . . . . . . .w e p y t  . . . . . . .e p e w w  . . . . . . . . . . . . . . . . . . . . . . . . .",
" . . . . . . . . . . . . . . . . . . . . . . .r e p t  . . . . . .r e d q t  . . . . . . . . . . . . . . . . . . . . . . . . . .",
" . . . . . . . . . . . . . . . . . . . . . . . .e r t  . . . . . . .q e t  . . . . . . . . . . . . . . . . . . . . . . . . . . .",
" . . . . . . . . . . . . . . . . . . . . . . . . . . . . . . . . . . . . . . . . . . . . . . . . . . . . . . . . . . . . . . . .",
" . . . . . . . . . . . . . . . . . . . . . . . . . . . . . . . . . . . . . . . . . . . . . . . . . . . . . . . . . . . . . . . .",
" . . . . . . . . . . . . . . . . . . . . . . . . . . . . . . . . . . . . . . . . . . . . . . . . . . . . . . . . . . . . . . . ."
};
