/* XPM */
static char *result[] = {
/* columns rows colors chars-per-pixel */
"64 78 245 2 ",
"   c #000000",
".  c #000807",
"X  c #001406",
"o  c #010119",
"O  c #00141D",
"+  c #00181C",
"@  c #300A0E",
"#  c #000D23",
"$  c #000223",
"%  c #001522",
"&  c #011924",
"*  c #001A2B",
"=  c #0B1C26",
"-  c #181C26",
";  c #181B28",
":  c #0E1535",
">  c #271E28",
",  c #2C1D2B",
"<  c #092D34",
"1  c #2D202B",
"2  c #262227",
"3  c #3B232D",
"4  c #35212B",
"5  c #382536",
"6  c #2E2C2E",
"7  c #00281B",
"8  c #590804",
"9  c #6E0000",
"0  c #4C0D2D",
"q  c #48342C",
"w  c #462734",
"e  c #592B39",
"r  c #4F2D2D",
"t  c #652D29",
"y  c #65302D",
"u  c #6C322C",
"i  c #77352B",
"p  c #652E3D",
"a  c #6C313E",
"s  c #68313A",
"d  c #78363A",
"f  c #7B2934",
"g  c #691C2B",
"h  c #474031",
"j  c #795330",
"k  c #6C4C32",
"l  c #1B2F51",
"z  c #01314F",
"x  c #2A334D",
"c  c #570D52",
"v  c #681B55",
"b  c #760B45",
"n  c #582B43",
"m  c #4D2D51",
"M  c #642C41",
"N  c #7A2B47",
"B  c #7C2A48",
"V  c #6D3241",
"C  c #673041",
"Z  c #743443",
"A  c #7B3648",
"S  c #7A3547",
"D  c #722F57",
"F  c #065151",
"G  c #364E56",
"H  c #3C727B",
"J  c #545659",
"K  c #4A4849",
"L  c #574A64",
"P  c #744A70",
"I  c #57696C",
"U  c #5B7278",
"Y  c #4D6D72",
"T  c #6D6E70",
"R  c #604152",
"E  c #B60400",
"W  c #B50F00",
"Q  c #893102",
"!  c #BE3300",
"~  c #A92300",
"^  c #863B2C",
"/  c #883C38",
"(  c #963830",
")  c #911124",
"_  c #C23D00",
"`  c #C40000",
"'  c #974233",
"]  c #934C2D",
"[  c #A9482E",
"{  c #AA4932",
"}  c #AC4B3D",
"|  c #A54739",
" . c #B34D33",
".. c #B74D38",
"X. c #BE5135",
"o. c #BD503A",
"O. c #B95B3B",
"+. c #AC5F37",
"@. c #95683A",
"#. c #AC6139",
"$. c #B0763B",
"%. c #8B5311",
"&. c #C5470E",
"*. c #C3492B",
"=. c #C9552D",
"-. c #C34C31",
";. c #C55435",
":. c #CA5634",
">. c #CD5835",
",. c #C75B38",
"<. c #C95D3A",
"1. c #C65538",
"2. c #D15936",
"3. c #CB653C",
"4. c #D36B3C",
"5. c #D87700",
"6. c #823947",
"7. c #8A3C46",
"8. c #833A49",
"9. c #8B3C4A",
"0. c #863641",
"q. c #913D44",
"w. c #873157",
"e. c #A03F41",
"r. c #AA0C65",
"t. c #913A67",
"y. c #B42C74",
"u. c #880F59",
"i. c #9C4443",
"p. c #954546",
"a. c #96564E",
"s. c #A34642",
"d. c #A64B42",
"f. c #A35C4B",
"g. c #9A6B42",
"h. c #AE694C",
"j. c #B4724B",
"k. c #8C4F77",
"l. c #B2497C",
"z. c #957A7C",
"x. c #CD6B41",
"c. c #C96742",
"v. c #D26C41",
"b. c #D47A49",
"n. c #CA6E5D",
"m. c #CB7668",
"M. c #CF7A6A",
"N. c #C35D47",
"B. c #DF8600",
"V. c #E08917",
"C. c #DA8930",
"Z. c #E08C27",
"A. c #E08D33",
"S. c #E1903E",
"D. c #B68247",
"F. c #B58F75",
"G. c #DC854E",
"H. c #D8854D",
"J. c #DB8B52",
"K. c #DC8852",
"L. c #DA9357",
"P. c #CB8A4B",
"I. c #E29447",
"U. c #E29653",
"Y. c #E39855",
"T. c #E49B5B",
"R. c #EA9E5D",
"E. c #E39757",
"W. c #E08F54",
"Q. c #E8A05E",
"!. c #E8A268",
"~. c #E5A471",
"^. c #E5A77A",
"/. c #E6A97C",
"(. c #E8AB7B",
"). c #D49563",
"_. c #737686",
"`. c #BA5B8C",
"'. c #AE5286",
"]. c #817689",
"[. c #B57592",
"{. c #C8578C",
"}. c #DB5995",
"|. c #CD558E",
" X c #E25B9A",
".X c #D86099",
"XX c #E8629E",
"oX c #EF65A3",
"OX c #F767A7",
"+X c #EE7AAD",
"@X c #788686",
"#X c #759298",
"$X c #7299A2",
"%X c #7DA5AE",
"&X c #578C92",
"*X c #888688",
"=X c #9A9698",
"-X c #8D9695",
";X c #8C9DA7",
":X c #AF8EA6",
">X c #88AAB2",
",X c #A4A8A9",
"<X c #ACB3B5",
"1X c #B6B4B6",
"2X c #D49389",
"3X c #C28D8B",
"4X c #E8AC84",
"5X c #E8B28D",
"6X c #EBB997",
"7X c #F1BD98",
"8X c #EBBEA2",
"9X c #E2BBB7",
"0X c #FE8AB9",
"qX c #ECC8B7",
"wX c #F0CDB9",
"eX c #F5C19F",
"rX c #95BAC2",
"tX c #9CC2CA",
"yX c #A5C5CB",
"uX c #B5D1D7",
"iX c #B0CBD1",
"pX c #C8D4D5",
"aX c #D6D8D9",
"sX c #CFC5C5",
"dX c #F2D5C5",
"fX c #F3D8CA",
"gX c #ECD8D6",
"hX c #F5DFD3",
"jX c #F6DDDA",
"kX c #E7CECD",
"lX c #F7E5DD",
"zX c #F6E1D5",
"xX c #D0DEE1",
"cX c #DBE7EA",
"vX c #D9EAED",
"bX c #E7EAEA",
"nX c #F8EBE4",
"mX c #F8EBE8",
"MX c #FBF2ED",
"NX c #EDF2F3",
"BX c #FCF5F2",
"VX c #FFFFFF",
"CX c #F5F6F7",
"ZX c #E4EEF0",
"AX c None",
/* pixels */
"AXAXAXAXAXAXAXAXAXAXAXAXAXAXAXAXAXAXAXAXAXAXAXAXAXAXAXAXAXAXAXAXAXAXAXAXAXAXAXAXAXAXAXAXAXAXAXAXAXAXAXAXAXAXAXAXAXAXAXAXAXAXAXAX",
"AXAXAXAXAXAXAXAXAXAXAXAXAXAXAXAXAXAXAXAXAXAXAXAXAXAXAXAXAXAXAXAXAXAXAXAXAXAXAXAXAXAXAXAXAXAXAXAXAXAXAXAXAXAXAXAXAXAXAXAXAXAXAXAX",
"AXAXAXAXAXAXAXAXAXAXAXAXAXAXAXAXAXAXAXAXAXAXAXAXAXAXAXAXAXAXAXAXAXAXAXAXAXAXAXAXAXAXAXAXAXAXAXAXAXAXAXAXAXAXAXAXAXAXAXAXAXAXAXAX",
"AXAXAXAXAXAXAXAXAXAXAXAXAXAXAXAXAXAXAXAXAXAXAXAXAXAXAXAXAXAXAXAXAXAXAXAXAXAXAXAXAXAXAXAXAXAXAXAXAXAXAXAXAXAXAXAXAXAXAXAXAXAXAXAX",
"AXAXAXAXAXAXAXAXAXAXAXAXAXAXAXAXAXAXAXAXAXAXAXAXAXAXAXAXAXAXAXAXAXAXAXAXAXAXAXAXAXAXAXAXAXAXAXAXAXAXAXAXAXAXAXAXAXAXAXAXAXAXAXAX",
"AXAXAXAXAXAXAXAXAXAXAXAXAXAXAXAXAXAXAXAXAXAXAXAXAXAXAXAXAXAXAXAXAXAXAXAXAXAXAXAXAXAXAXAXAXAXAXAXAXAXAXAXAXAXAXAXAXAXAXAXAXAXAXAX",
"AXAXAXAXAXAXAXAXAXAXAXAXAXAXAXAXAXAXAXAXAXAXAXAXAXAXAXAXAXAXAXAXAXAXAXAXAXAXAXAXAXAXAXAXAXAXAXAXAXAXAXAXAXAXAXAXAXAXAXAXAXAXAXAX",
"AXAXAXAXAXAXAXAXAXAXAXAXAXAXAXAXAXAXAXAXAXAXAXAXAXAXAXAXAXAXAXAXAXAXAXAXAXAXAXAXAXAXAXAXAXAXAXAXAXAXAXAXAXAXAXAXAXAXAXAXAXAXAXAX",
"AXAXAXAXAXAXAXAXAXAXAXAXAXAXAXAXAXAXAXAXAXAXAXAXAXAXAXAXAXAXAXAXAXAXAXAXAXAXAXAXAXAXAXAXAXAXAXAXAXAXAXAXAXAXAXAXAXAXAXAXAXAXAXAX",
"AXAXAXAXAXAXAXAXAXAXAXAXAXAXAXAXAXAXAXAXAXAXAXAXAXAXAXAXAXAXAXAXAXAXAXAXAXAXAXAXAXAXAXAXAXAXAXAXAXAXAXAXAXAXAXAXAXAXAXAXAXAXAXAX",
"AXAXAXAXAXAXAXAXAXAXAXAXAXAXAXAXAXAXAXAXAXAXAXAXAXAXAXAXAXAXAXAXAXAXAXAXAXAXAXAXAXAXAXAXAXAXAXAXAXAXAXAXAXAXAXAXAXAXAXAXAXAXAXAX",
"AXAXAXAXAXAXAXAXAXAXAXAXAXAXAXAXAXAXAXAXAXAXAXAXAXAXAXAXAXAXAXAXAXAXAXAXAXAXAXAXAXAXAXAXAXAXAXAXAXAXAXAXAXAXAXAXAXAXAXAXAXAXAXAX",
"AXAXAXAXAXAXAXAXAXAXAXAXAXAXAXAXAXAXAXAXAXAXAXAXAXAXAXAX3 y y y y u y y y y u r AXAXAXAXAXAXAXAXAXAXAXAXAXAXAXAXAXAXAXAXAXAXAXAX",
"AXAXAXAXAXAXAXAXAXAXAXAXAXAXAXAXAXAXAXAXAXAXAXAX> 3 w w 9.1.1.>.>.:.:.:.>.1.>.[ = w AXAXAXAXAXAXAXAXAXAXAXAXAXAXAXAXAXAXAXAXAXAX",
"AXAXAXAXAXAXAXAXAXAXAXAXAXAXAXAXAXAXAXAXAXAX= % e | =.X.-.;.X.H.K.X.-.;.;.;.;.;.;. .% & AXAXAXAXAXAXAXAXAXAXAXAXAXAXAXAXAXAXAXAX",
"AXAXAXAXAXAXAXAXAXAXAXAXAXAXAXAXAXAXAXAXAX& n | ..1.;.,.U.L.<.J.J.-.;.;.;.;.;.1.;.;.X.X.r AXAXAXAXAXAXAXAXAXAXAXAXAXAXAXAXAXAXAX",
"AXAXAXAXAXAXAXAXAXAXAXAXAXAXAXAXAXAXAXAX= V } 1.;.;.;.3.T.Q.3.3.3.-.1.1.;.-.-.-.-.-.-.-.X.t AXAXAXAXAXAXAXAXAXAXAXAXAXAXAXAXAXAX",
"AXAXAXAXAXAXAXAXAXAXAXAXAXAXAXAXAXAXAX3 V 8.;.;.;.;.;.;.b.b.3.;.;.;.X.o.*.b.K.K.G.K.K.W.2. .t AXAXAXAXAXAXAXAXAXAXAXAXAXAXAXAXAX",
"AXAXAXAXAXAXAXAXAXAXAXAXAXAXAXAXAXAXAXw 9.8.o.1.&.&.&._ ! ! ! *.;.,.b.x.b.b.j.D.j.D.D.D.] 4.c.g AXAXAXAXAXAXAXAXAXAXAXAXAXAXAXAX",
"AXAXAXAXAXAXAXAXAXAXAXAXAXAXAXAXAXAX1 e 8.A o.&.m.2X2X2X2X2X2Xn.*.b.T.!.P.a.c v v v v v v j.H.O.o AXAXAXAXAXAXAXAXAXAXAXAXAXAXAX",
"AXAXAXAXAXAXAXAXAXAXAXAXAXAXAXAXAXO e 9.8.8.X.! kXVXVXVXVXVXVX9X4.Q.T.L.& }.OXOXOXoXoXoXOXt.g.P.$ I VXVXAXAXAXAXAXAXAXAXAXAXAXAX",
"AXAXAXAXAXAXAXAXAXAXAXAXAXAXAXAXAX% e 8.7.1.&.,XZXZXrXiXVXVXVXVXdXV.L.2 L }.OX{.L P P P * {.{.  T VXVXVXVXVXAXAXAXAXAXAXAXAXAXAX",
"AXAXAXAXAXAXAXAXAXAXAXAXAXAXAXAX% e 6.A 7.;.` gXvXtXrXyXVXVXVXVXBXhXS.  }.OXy.1XCXbX<XNXT   y.|.G uXiXNXVXVXVXAXAXAXAXAXAXAXAXAX",
"AXAXAXAXAXAXAXAXAXAXAXAXAXAXAXAX& p 8.6.7.=.=XNXxXiXNXNXVXVXVXVXVXzXi |.OXOX:XpXVXVXyXVXbX@Xy.}.F >X>XVXVXVXVXAXAXAXAXAXAXAXAXAX",
"AXAXAXAXAXAXAXAXAXAXAXAXAXAXAXAXo / s.Z N =.aXVXNXNXVXCX,XCXvXNXCXiX@ XXOXy.,XvXVXCX@XVXVX,Xr.}.F cXbX<XiXVXVXAXAXAXAXAXAXAXAXAX",
"AXAXAXAXAXAXAXAXAXAXAXAXAXAXAXAXu  .1.i.h.[ BXVXVXVXVXCX=XCXiXZXbXH D oX|.0 H <XpXsX  sXaX@Xw.|.3XVXVX1X%XZXVXAXAXAXAXAXAXAXAXAX",
"AXAXAXAXAXAXAXAXAXAXAXAXAXAXAX% ..>.;.v.L.o aXNXVXVXVXVXVXVXxXZX1X  `.oX1 +         ;       x k.0XZXVXVXcXZXCXAXAXAXAXAXAXAXAXAX",
"AXAXAXAXAXAXAXAXAXAXAXAXAXAXAX% { 1.;.x.L.2   $XcXVXVXVXVXVXVXxX&Xb OXoXn + ; - - - ; - - + x l.+XtXCXCXVXcX%XAXAXAXAXAXAXAXAXAX",
"AXAXAXAXAXAXAXAXAXAXAXAXAXAXAX& C d.;.4.L.2   >XtXxXVXVXVXVXpXtX$Xb OXoXn + - - - ; - - - - X w.+XtXtXtXyX;X  AXAXAXAXAXAXAXAXAX",
"AXAXAXAXAXAXAXAXAXAXAXAX    AX+ Z 7.7.i.,. .@ & >XiXuXuXuXuXiX#XX w.OXoXn + - - ; ; - - - - X t.oXG tXuX#X; o AXAXAXAXAXAXAXAXAX",
"AXAXAXAXAXAXAXAXAXAXAX=XNXaX< o a 8.N f.U.U.L.y F U Y I I Y U z   t.OXOXn + - - ; ; - - - - X t.XX  Y U G   AXAXAXAXAXAXAXAXAXAX",
"AXAXAXAXAXAXAXAXAXAX  <XVX9Xd.4 a 8.A p.b.b.b.O.8             @.@.D OXoXn       2 - -       X t.oXO     . AXAXAXAXAXAXAXAXAXAXAX",
"AXAXAXAXAXAXAXAXAXAX-XsX9X` ..w p S S 7.-.-.-.:.{ i ] g.@.] %.S.$.m .XOX0 =X1X_.      U ,XT   k.oXO - - AXAXAXAXAXAXAXAXAXAXAXAX",
"AXAXAXAXAXAXAXAXAX  aXjXE ..A ; / i.p.s.-.;.;.1.:.1.x.U.Q.6X7XeXF.. P oX@ aXVXbXT *X-XuXVX1X0 `.|.  - AXAXAXAXAXAXAXAXAXAXAXAXAX",
"AXAXAXAXAXAXAXAXAX  pXjXE A 6.* { :.:.:.<.1.1.-.;.;.=.3.(.BXVXVXaX5 k.oXb $XcXVXVXVXVXVXVX-Xr.XXK I 2 AXAXAXAXAXAXAXAXAXAXAXAXAX",
"AXAXAXAXAXAXAXAXAX  pXnXW A 6.* { :.-.x.T.1.1.1.1.-.3.(.VXVXVXVXVXaX  P OXu.pXVXVXVXVXVX:Xo l.|.I VXJ AXAXAXAXAXAXAXAXAXAXAXAXAX",
"AXAXAXAXAXAXAXAXAX  aXjXE S 6.* { 1.-.x.T.L.E.E.E.E.W.^.VXVXVXVXVXcX  P k..X[._.].].].].< l.{.D I VXI AXAXAXAXAXAXAXAXAXAXAXAXAX",
"AXAXAXAXAXAXAXAXAX  aXVXsXb 8.> d o.:.v.Q.T.T.T.T.T.U.^.VXVXwX6X8X5Xj.: L '.{.}.}. X}. X}.OX`.6 ).8Xh AXAXAXAXAXAXAXAXAXAXAXAXAX",
"AXAXAXAXAXAXAXAXAXAX*XbXVX~ e # * S e.h.Q.T.Q.T.Q.T.Y./.VXfX~.A.I.I.T.j.x L '.`.`.`.`.`.`.'.a.P.R.H.q AXAXAXAXAXAXAXAXAXAXAXAXAX",
"AXAXAXAXAXAXAXAXAXAX  ].9XQ w ^ ^ ( q.p.H.H.H.H.H.H.G.~.hXY.U.T.T.T.T.R.j.R l l l l l l z k P.R.T.T.q AXAXAXAXAXAXAXAXAXAXAXAXAX",
"AXAXAXAXAXAXAXAXAXAXAX@ 8 t p.1.>.>.} 7.*.-.-.-.-.X.,.J.5.I.U.U.U.U.U.T.!.#.k j j j j j k P.R.U.I.H.q AXAXAXAXAXAXAXAXAXAXAXAXAX",
"AXAXAXAXAXAXAXAXAXAXAXAXi 2.:.1.;.:. .p.;.;.1.-.;.;.-.;.m.^.4X/././.^.T.T.R.Q.Q.Q.Q.R.R.R.T.!.4X^.m.w AXAXAXAXAXAXAXAXAXAXAXAXAX",
"AXAXAXAXAXAXAXAXAXAX$ ^ 2.:.;.;.1.;.;.;.;.1.;.;.=.;.*.M.VXVXVXVXVXVXBXT.T.T.T.T.T.T.Y.T.T.A.wXVXVXCXJ AXAXAXAXAXAXAXAXAXAXAXAXAX",
"AXAXAXAXAXAXAXAXAX& w i.:.-.;.;.;.;.;.;.-.-.-.-.*.X.=.^.VXVXVXVXVXVXVXBXBX5XV.S.S.S.S.S.B.fXVXVXVXVXJ AX> * % AXAXAXAXAXAXAXAXAX",
"AXAXAXAXAXAXAXAXAX$ / 1.;.;.;.:.>.1.-.<.J.J.J.U.J.J.U.^.VXVXVXVXVXVXVXVXVXMXnXnXnXnXnXnXnXBXVXVXVXVXJ   # ^ [ # AXAXAXAXAXAXAXAX",
"AXAXAXAXAXAXAXAXAXw | >.;.:.:.d.s.d.e.h.Q.T.T.T.T.T.U.^.VXVXfX8X8XfXVXVXVXVXVXVXVXVXVXVXVXVXVXVXVX8Xq e > ' ..# AXAXAXAXAXAXAXAX",
"AXAXAXAXAXAXAXAX% / o.;.;.;.d.9.C e 0 a.!.T.T.Q.T.Q.Y.~.fXfXwXqXqXwXdXfXVXVXVXVXVXVXVXVXVXVXmXwXfXqXK N 5 ^ X.# AXAXAXAXAXAXAXAX",
"AXAXAXAXAXAXAXAX:  .>.;.1...M Z 4 ; ; j W.J.J.J.K.K.K.L.5X5XlXMXMXlX5X6XzXlXlXnXlXlXnXlXnXnXdX4XeXmXK a s [  .# AXAXAXAXAXAXAXAX",
"AXAXAXAXAXAXAX= A o.;.-.} p 1 & O s p.i.-.>.,.,.,.,.*.M.CXVX6XB.B.5XVXBX4X!.~.~.~.~.~.~.~.T.wXVXMXZ.3 d o.2.{ # AXAXAXAXAXAXAXAX",
"AXAXAXAXAXAXAX&  .>.d.p & 5 6.3 # ' >.-.<.T.T.T.T.T.T.Y.E.Y.Y.T.T.T.Y.Y.CXVXVXVXVXVXVXVXVXVXfXZ.L.T.6 { :.1.{ # AXAXAXAXAXAXAXAX",
"AXAXAXAXAXAXAX& X.2.'   *XVXc.0.6 s 9.8.p.,.,.,.,.,.3.,.1.Y.T.T.T.T.T.T.~./.~.^.~.^.^.^.^.^.~.U.Q.Y.q d 9.a 4 = AXAXAXAXAXAXAXAX",
"AXAXAXAXAXAXAX= y i r AXAX=X<.W 8 M 8.Z 8.;.;.;.;.;.;.,.J.A.Z.A.A.A.A.A.V.V.I.Y.Y.Y.U.Y.U.Y.Y.U.V.&.4 Z p.p + AXAXAXAXAXAXAXAXAX",
"AXAXAXAXAXAXAXAXAXAXAXAXAXAX9 gX*X  / } 6.;.1.1.;.;.;.1.T.fXzXhXhXhXhXhXhXlX5XZ.T.T.T.T.L.I.B.4XzXkXK 0 p w AXAXAXAXAXAXAXAXAXAX",
"AXAXAXAXAXAXAXAXAXAXAXAXAXAX,XgXz.  ^ 1.s.| X.;.-.X.,.b.Y.VXVXVXVXVXVXVXVXVXnX5XZ.S.S.I.Z.6XdXhXVXVXJ   + AXAXAXAXAXAXAXAXAXAXAX",
"AXAXAXAXAXAXAXAXAXAXAXAXAXJ VXM.9 : ^ 2.;.q.x.v.4.x.b.Q.Y.CXVXVXVXVXVXVXVXVXVXnX6X8X8X8X6XmXVXVXVXgXK AXAXAXAXAXAXAXAXAXAXAXAXAX",
"AXAXAXAXAXAXAXAXAXAXAXAXAXJ NXM.( w u ;.;.:.J.T.T.T.Q.T.T.nXBXBXBXBXBXBXVXVXVXVXVXVXVXVXVXVXVXVXmXE 3 AXAXAXAXAXAXAXAXAXAXAXAXAX",
"AXAXAXAXAXAXAXAXAXAXAXAXAXAX  S 8.e % t ;.;.-.K.T.T.T.T.T.U.U.U.U.U.U.U.BXVXVXVXVXVXVXVXVXVXVXVXNXf , AXAXAXAXAXAXAXAXAXAXAXAXAX",
"AXAXAXAXAXAXAXAXAXAXAXAXAXAX& X.i.w # y 2.;.:.:.G.!.T.T.T.3.,.;.b.T.T.T.~.T.lXVXVXVXVXVXVXVXCXnXX.; AXAXAXAXAXAXAXAXAXAXAXAXAXAX",
"AXAXAXAXAXAXAXAXAXAXAXAXAXAXAXr  .1.' % u q.q.q.p.h.f.f.4.,.;.:.3.3.v.R.Q.I.(.7X6X7X6X6X7X4X3X[.) * AXAXAXAXAXAXAXAXAXAXAXAXAXAX",
"AXAXAXAXAXAXAXAXAXAXAXAXAXAXAXAXi ' u * * e A 8.S N B S e.' i./ u ^ s.h.h.h.h.#.#.#.#.+.#.[ ) g w AXAXAXAXAXAXAXAXAXAXAXAXAXAXAX",
"AXAXAXAXAXAXAXAXAXAXAXAXAXAXAXAXAX$ & > ; O e s Z 8.8.6.A S p.( ^ i e N B N N N N N N N N C p e AXAXAXAXAXAXAXAXAXAXAXAXAXAXAXAX",
"AXAXAXAXAXAXAXAXAXAXAXAXAXAXAXAXAXAXAXAXAXAXO O e Z Z 8.6.A o.>.>.} , V a Z a a a a a a Z w + AXAXAXAXAXAXAXAXAXAXAXAXAXAXAXAXAX",
"AXAXAXAXAXAXAXAXAXAXAXAXAXAXAXAXAXAXAXAXAXAXAXAXAXO 3 A 6.A } ;.1.o.7.+ % % - 1 1 1 1 1 & = - AXAXAXAXAXAXAXAXAXAXAXAXAXAXAXAXAX",
"AXAXAXAXAXAXAXAXAXAXAXAXAXAXAXAXAXAXAXAXAXAXAXAXAXAXAX1 6.A S } :.1.X.- ; & s 9.6.8.6.6.w & - AXAXAXAXAXAXAXAXAXAXAXAXAXAXAXAXAX",
"AXAXAXAXAXAXAXAXAXAXAXAXAXAXAXAXAXAXAXAXAXAXAXAXAXAXAXAX1 6.A } :.;.X.Z > C 8.8.A 8.8.3 - AXAXAXAXAXAXAXAXAXAXAXAXAXAXAXAXAXAXAX",
"AXAXAXAXAXAXAXAXAXAXAXAXAXAXAXAXAXAXAXAXAXAXAXAXAXAXAXAXAX4 S 9.} :.:.o.> Z 9.9.Z 3 w - AXAXAXAXAXAXAXAXAXAXAXAXAXAXAXAXAXAXAXAX",
"AXAXAXAXAXAXAXAXAXAXAXAXAXAXAXAXAXAXAXAXAXAXAXAXAXAXAXAXAX& 4 V p.i.s.:.d e w 3 ; O AXAXAXAXAXAXAXAXAXAXAXAXAXAXAXAXAXAXAXAXAXAX",
"AXAXAXAXAXAXAXAXAXAXAXAXAXAXAXAXAXAXAXAXAXAXAXAXAXAXAXAXAX= e e Z A 8.} q.* t ^ ( ' AXAXAXAXAXAXAXAXAXAXAXAXAXAXAXAXAXAXAXAXAXAX",
"AXAXAXAXAXAXAXAXAXAXAXAXAXAXAXAXAXAXAXAXAXAXAXAXAXAXAXAXAX& a w 3 Z a A 8.u  .2.>.1.* AXAXAXAXAXAXAXAXAXAXAXAXAXAXAXAXAXAXAXAXAX",
"AXAXAXAXAXAXAXAXAXAXAXAXAXAXAXAXAXAXAXAXAXAXAXAXAXAXAXAXAXAXO = = & > Z A o.:.1.1.{ = AXAXAXAXAXAXAXAXAXAXAXAXAXAXAXAXAXAXAXAXAX",
"AXAXAXAXAXAXAXAXAXAXAXAXAXAXAXAXAXAXAXAXAXAXAXAXAXAXAXAXAXAXAXAXAXAX; = Z o.:.1.{ $ AXAXAXAXAXAXAXAXAXAXAXAXAXAXAXAXAXAXAXAXAXAX",
"AXAXAXAXAXAXAXAXAXAXAXAXAXAXAXAXAXAXAXAXAXAXAXAXAXAXAXAXAXAXAXAXAXAXAX- A 8.9.Z > AXAXAXAXAXAXAXAXAXAXAXAXAXAXAXAXAXAXAXAXAXAXAX",
"AXAXAXAXAXAXAXAXAXAXAXAXAXAXAXAXAXAXAXAXAXAXAXAXAXAXAXAXAXAXAXAXAXAXAXAX3 w w 1 AXAXAXAXAXAXAXAXAXAXAXAXAXAXAXAXAXAXAXAXAXAXAXAX",
"AXAXAXAXAXAXAXAXAXAXAXAXAXAXAXAXAXAXAXAXAXAXAXAXAXAXAXAXAXAXAXAXAXAXAXAXAXAXAXAXAXAXAXAXAXAXAXAXAXAXAXAXAXAXAXAXAXAXAXAXAXAXAXAX",
"AXAXAXAXAXAXAXAXAXAXAXAXAXAXAXAXAXAXAXAXAXAXAXAXAXAXAXAXAXAXAXAXAXAXAXAXAXAXAXAXAXAXAXAXAXAXAXAXAXAXAXAXAXAXAXAXAXAXAXAXAXAXAXAX",
"AXAXAXAXAXAXAXAXAXAXAXAXAXAXAXAXAXAXAXAXAXAXAXAXAXAXAXAXAXAXAXAXAXAXAXAXAXAXAXAXAXAXAXAXAXAXAXAXAXAXAXAXAXAXAXAXAXAXAXAXAXAXAXAX",
"AXAXAXAXAXAXAXAXAXAXAXAXAXAXAXAXAXAXAXAXAXAXAXAXAXAXAXAXAXAXAXAXAXAXAXAXAXAXAXAXAXAXAXAXAXAXAXAXAXAXAXAXAXAXAXAXAXAXAXAXAXAXAXAX",
"AXAXAXAXAXAXAXAXAXAXAXAXAXAXAXAXAXAXAXAXAXAXAXAXAXAXAXAXAXAXAXAXAXAXAXAXAXAXAXAXAXAXAXAXAXAXAXAXAXAXAXAXAXAXAXAXAXAXAXAXAXAXAXAX"
};
