/* XPM */
static char *result[] = {
/* columns rows colors chars-per-pixel */
"64 72 242 2 ",
"   c #000100",
".  c #000407",
"X  c #170008",
"o  c #000013",
"O  c #000318",
"+  c #00131D",
"@  c #001102",
"#  c #330003",
"$  c #2C2D16",
"%  c #00002D",
"&  c #000623",
"*  c #001623",
"=  c #011924",
"-  c #051928",
";  c #141C26",
":  c #191C26",
">  c #181926",
",  c #05022E",
"<  c #231E29",
"1  c #271D28",
"2  c #351228",
"3  c #0D272D",
"4  c #2B212A",
"5  c #39222C",
"6  c #382432",
"7  c #302E32",
"8  c #002500",
"9  c #4E100D",
"0  c #73080A",
"q  c #550827",
"w  c #660E2C",
"e  c #482728",
"r  c #572B2B",
"t  c #482734",
"y  c #582B38",
"u  c #50392E",
"i  c #6C3229",
"p  c #76362C",
"a  c #64293B",
"s  c #69313D",
"d  c #773639",
"f  c #6E282E",
"g  c #714E2E",
"h  c #4F443D",
"j  c #083848",
"k  c #363743",
"l  c #281A4A",
"z  c #6A1352",
"x  c #662C44",
"c  c #782846",
"v  c #6B3243",
"b  c #733443",
"n  c #7B3545",
"m  c #7E3846",
"M  c #7B3749",
"N  c #7A3749",
"B  c #76235C",
"V  c #6C2056",
"C  c #4E3662",
"Z  c #503753",
"A  c #3C4954",
"S  c #2D7374",
"D  c #004755",
"F  c #514A52",
"G  c #6D454B",
"H  c #4E5963",
"J  c #64496B",
"K  c #764C70",
"L  c #556D71",
"P  c #646568",
"I  c #77787A",
"U  c #6C7177",
"Y  c #910000",
"T  c #AA0C00",
"R  c #B63004",
"E  c #873B2C",
"W  c #903433",
"Q  c #9B3021",
"!  c #C12C00",
"~  c #C13700",
"^  c #99422E",
"/  c #984237",
"(  c #97542F",
")  c #AB493D",
"_  c #A94836",
"`  c #B34D33",
"'  c #B34C3B",
"]  c #B94A36",
"[  c #A7593C",
"{  c #BC5139",
"}  c #BA5238",
"|  c #B2442B",
" . c #97683A",
".. c #997139",
"X. c #A16729",
"o. c #C64A07",
"O. c #D3770D",
"+. c #C34A2A",
"@. c #C6542A",
"#. c #C34D32",
"$. c #C55335",
"%. c #CA5634",
"&. c #CC5A36",
"*. c #C65A39",
"=. c #C85A3A",
"-. c #D25935",
";. c #CA633C",
":. c #D3703B",
">. c #900352",
",. c #833A47",
"<. c #8C3D45",
"1. c #843A49",
"2. c #883B49",
"3. c #923E48",
"4. c #89335C",
"5. c #8B356A",
"6. c #B03574",
"7. c #C43F7E",
"8. c #884548",
"9. c #9C4442",
"0. c #944045",
"q. c #924F55",
"w. c #A24644",
"e. c #AC4A42",
"r. c #AA5447",
"t. c #B87D4A",
"y. c #AA6F4C",
"u. c #9A426A",
"i. c #924B74",
"p. c #A2655F",
"a. c #C85C43",
"s. c #CB6943",
"d. c #CB7648",
"f. c #D47D4A",
"g. c #D67847",
"h. c #CB6B53",
"j. c #CD7767",
"k. c #DD8501",
"l. c #DC831C",
"z. c #E18809",
"x. c #D8842E",
"c. c #E08B29",
"v. c #E18E33",
"b. c #E18F39",
"n. c #E39137",
"m. c #E6902F",
"M. c #9D897D",
"N. c #DA864C",
"B. c #DA8A53",
"V. c #DD9256",
"C. c #DC9559",
"Z. c #DA9658",
"A. c #C98952",
"S. c #E29345",
"D. c #E2944C",
"F. c #E29653",
"G. c #E39856",
"H. c #E39659",
"J. c #E49B5B",
"K. c #EA9E5D",
"L. c #E89B56",
"P. c #E1864F",
"I. c #E9A05F",
"U. c #F1A056",
"Y. c #D89570",
"T. c #E5A26A",
"R. c #E7A776",
"E. c #DB9F77",
"W. c #717B83",
"Q. c #B25486",
"!. c #837286",
"~. c #C94989",
"^. c #C75589",
"/. c #D75B94",
"(. c #D4528E",
"). c #E95E9D",
"_. c #DB619A",
"`. c #CB6297",
"'. c #E3639D",
"]. c #EB64A1",
"[. c #F366A5",
"{. c #F969A9",
"}. c #E072A3",
"|. c #6E8E96",
" X c #748F92",
".X c #5C888D",
"XX c #878889",
"oX c #8A8792",
"OX c #939898",
"+X c #8D8D92",
"@X c #B28A8B",
"#X c #8A9FA6",
"$X c #8AB3BC",
"%X c #8FA9B0",
"&X c #B8BABB",
"*X c #ADA9AA",
"=X c #D69A92",
"-X c #CF9189",
";X c #CEA19D",
":X c #E8AF86",
">X c #E9B796",
",X c #E9B190",
"<X c #D4AEAD",
"1X c #E9BEA5",
"2X c #E0A7BB",
"3X c #E28AB3",
"4X c #EDC3AA",
"5X c #EEC9B3",
"6X c #EECDBA",
"7X c #F1CBB3",
"8X c #F2CCB5",
"9X c #99BCC4",
"0X c #ACBFC4",
"qX c #E0AFC4",
"wX c #9DC3CA",
"eX c #A7C6CD",
"rX c #AACCD3",
"tX c #B6D2D8",
"yX c #C5C8CA",
"uX c #C4D7DC",
"iX c #D6D8D9",
"pX c #D6CBCC",
"aX c #F1D4C3",
"sX c #F3DACD",
"dX c #F7D9CB",
"fX c #F4DDD4",
"gX c #F6E5DC",
"hX c #F8E4D9",
"jX c #E1E0DF",
"kX c #CBDDE1",
"lX c #DBE6E8",
"zX c #E7E8E8",
"xX c #F8EBE6",
"cX c #FBF1ED",
"vX c #EBF3F5",
"bX c #F3F4F4",
"nX c #FCF5F2",
"mX c #FEF8F6",
"MX c #FEFEFE",
"NX c #F5F8F9",
"BX c #E0EDF0",
"VX c None",
/* pixels */
"VXVXVXVXVXVXVXVXVXVXVXVXVXVXVXVXVXVXVXVXVXVXVXVXVXVXVXVXVXVXVXVXVXVXVXVXVXVXVXVXVXVXVXVXVXVXVXVXVXVXVXVXVXVXVXVXVXVXVXVXVXVXVXVX",
"VXVXVXVXVXVXVXVXVXVXVXVXVXVXVXVXVXVXVXVXVXVXVXVXVXVXVXVXVXVXVXVXVXVXVXVXVXVXVXVXVXVXVXVXVXVXVXVXVXVXVXVXVXVXVXVXVXVXVXVXVXVXVXVX",
"VXVXVXVXVXVXVXVXVXVXVXVXVXVXVXVXVXVXVXVXVXVXVXVXVXVXVXVXVXVXVXVXVXVXVXVXVXVXVXVXVXVXVXVXVXVXVXVXVXVXVXVXVXVXVXVXVXVXVXVXVXVXVXVX",
"VXVXVXVXVXVXVXVXVXVXVXVXVXVXVXVXVXVXVXVXVXVX4 t r r r r r r r r r r r VXVXVXVXVXVXVXVXVXVXVXVXVXVXVXVXVXVXVXVXVXVXVXVXVXVXVXVXVX",
"VXVXVXVXVXVXVXVXVXVXVXVXVXVXVXVXVXVX- = * * x ) %.$.#.#.$.{ $.{ $.$.$.i & = VXVXVXVXVXVXVXVXVXVXVXVXVXVXVXVXVXVXVXVXVXVXVXVXVXVX",
"VXVXVXVXVXVXVXVXVXVXVXVXVXVXVXVX* & t 3.` _ _ ] #.$.N.d.#.$.%.%.$.%.%.` ` ^ * & VXVXVXVXVXVXVXVXVXVXVXVXVXVXVXVXVXVXVXVXVXVXVXVX",
"VXVXVXVXVXVXVXVXVXVXVXVXVXVXVX1 s E w.{ %.%.g.g.d.$.H.N.#.$.$.$.$.$.$.%.&.$.W / i VXVXVXVXVXVXVXVXVXVXVXVXVXVXVXVXVXVXVXVXVXVXVX",
"VXVXVXVXVXVXVXVXVXVXVXVXVXVX< v w.$.%.%.$.#.F.T.V.$.B.g.#.$.$.$.$.$.$.$.$.$.-.-._ e VXVXVXVXVXVXVXVXVXVXVXVXVXVXVXVXVXVXVXVXVXVX",
"VXVXVXVXVXVXVXVXVXVXVXVXVX= s 9.$.$.$.$.$.$.V.K.B.$.$.$.$.$.$.@.$.$.$.$.$.$.$.#.-.' - VXVXVXVXVXVXVXVXVXVXVXVXVXVXVXVXVXVXVXVXVX",
"VXVXVXVXVXVXVXVXVXVXVXVX< s N 9.%.$.$.$.$.$.-.a.s.$.$.$.$.] #.+.s.K.H.H.H.H.H.K.g.#.| 2 VXVXVXVXVXVXVXVXVXVXVXVXVXVXVXVXVXVXVXVX",
"VXVXVXVXVXVXVXVXVXVXVXVX: m N 9.%.$.~ R ! ! ! ! R ! +.#.=.N.A.N.d. ......... . .( ( P.' w VXVXVXVXVXVXVXVXVXVXVXVXVXVXVXVXVXVXVX",
"VXVXVXVXVXVXVXVXVXVXVXVXt m N 9.#.+.Y.=X=X=X=X=X=X=X*.@.N.J.I.Z.y.z B B B B B B V q.A.f.(   VXVXVXVXVXVXVXVXVXVXVXVXVXVXVXVXVXVX",
"VXVXVXVXVXVXVXVXVXVX+ t 2.1.N 9.$.o.jXMXMXMXMXMXmXMX-X:.I.I.I.( 5.{.[.[.[.].[.].[./.4 Z...  P MXMXMXVXVXVXVXVXVXVXVXVXVXVXVXVXVX",
"VXVXVXVXVXVXVXVXVXVX+ t 1.N ) +.a.%XbXNXeXtXbXMXMXMXmX1Xk.Z.g j Q.{.{.7.z 5.5.5.V u.'.G   +XNXNXMXMXMXVXVXVXVXVXVXVXVXVXVXVXVXVX",
"VXVXVXVXVXVXVXVXVXVXy b 1.n ' o.h.lXlXtX$X9XvXMXMXMXMXcX7XF.8 5._.).6.&XiXyX#XuXXX  u.~.w W.lXkXbXMXMXMXVXVXVXVXVXVXVXVXVXVXVXVX",
"VXVXVXVXVXVXVXVXVX* v 2.,.n _ *.-XMXtXwXuXtXNXMXMXMXMXMXxX;.q./.{.].W.BXNXNX0XMXjXU @ [.6.S 9X9XBXMXMXMXVXVXVXVXVXVXVXVXVXVXVXVX",
"VXVXVXVXVXVXVXVXVX* s 2.1.N R @XtXmXuXkXMXMXNXmXMXNXMXMXiX  '.{.].}.eXvXMXbX9XvXMXzXX ).5.L rXeXzXMXMXMXVXVXVXVXVXVXVXVXVXVXVXVX",
"VXVXVXVXVXVXVXVXVX& ^ { M x T :XMXMXNXMXMXMXI &XMXeXNXBX%X# '.{.~.F 9XNXMXbXA zXMXzXX [.>. XMXMXOXL uXMXVXVXVXVXVXVXVXVXVXVXVXVX",
"VXVXVXVXVXVXVXVX< ^ #.$.' A.Q *XMXMXMXMXMXMXiXzXbX9XMXyXD J ].^.x 3 L OX*X+X  +X*X+X> i.7.2XMXMXzX0XeXMXVXVXVXVXVXVXVXVXVXVXVXVX",
"VXVXVXVXVXVXVXVX: $.%.$.=.K.( L iXlXMXMXMXMXMXMXNXkXvX#X# Q.[.5.  >         :       < C (.3XBXMXMXMXkXvXVXVXVXVXVXVXVXVXVXVXVXVX",
"VXVXVXVXVXVXVXVX< _ %.#.a.J. .  o $XzXMXMXMXMXMXMXNXtXS >.{.{.u.  : : : : : ; : : ; : F (.3XwXvXNXNXbX9XVXVXVXVXVXVXVXVXVXVXVXVX",
"VXVXVXVXVXVXVXVX: b e.%.=.J. .  A 9XwXlXMXMXMXMXNXwXrX.Xz [.{.u.  : : : : : : : : : > @ 7.3XwXeXeXrX9XF VXVXVXVXVXVXVXVXVXVXVXVX",
"VXVXVXVXVXVXVXVX: b 3.3.3.;.} E % L $XtXkXkXkXkXkXrX|.3 4.{.{.u.@ ; : : ; : : : : : >   ^._.L wXrX$XH + VXVXVXVXVXVXVXVXVXVXVXVX",
"VXVXVXVXVXVXVX- : d ,.M 1.d.N.d. .  .X|.|.|.|.|.|.|.3   q.{.[.u.  : : : : : : : : : : . ^.(..  X#XU   ; VXVXVXVXVXVXVXVXVXVXVXVX",
"VXVXVXVXVXI I 9 > n 1.n 8.B.H.H.B.g                 g $ 5.[.{.u.  o o > : : : > O O :   ^._.        < VXVXVXVXVXVXVXVXVXVXVXVXVX",
"VXVXVXVX  zXaXT > b ,.,.2.{ %.%.$.$.p & - - = = & : A. .B [.{.u.  o o + : : > > o o :   ^./.@ ; : : VXVXVXVXVXVXVXVXVXVXVXVXVXVX",
"VXVXVXP jXMXpX0 : b N N m ] $.$.$.%.} _ } A.A.x.k.l.m.X.l Q.[.>.+XbXzXI       .XuXpXo j `.).@ ; : VXVXVXVXVXVXVXVXVXVXVXVXVXVXVX",
"VXVXVXP MXfX-Xq : W e.w.) #.$.$.$.$.%.$.a.f.c.>XjX6XaXM.. K [.>.|.vXMXiX<XeX&XiXMXbX  Q.`.u.  + VXVXVXVXVXVXVXVXVXVXVXVXVXVXVXVX",
"VXVXP *XNX-XY b : } &.%.%.s.=.$.$.#.$.$.$.=.R.gXMXMXMXyXP K /.6.U 9XMXMXMXMXMXMXMXyXo ).Q.H XX7 VXVXVXVXVXVXVXVXVXVXVXVXVXVXVXVX",
"VX  &XMXMX=XT x : ` %.#.=.H.d.#.$.%.$.$.;.D.xXMXMXMXMXMXiX  F /.(.!.NXMXMXMXMXMX0X2 t ).>.#XMXP VXVXVXVXVXVXVXVXVXVXVXVXVXVXVXVX",
"VX  &XMX-Xw.,.b : } &.$.&.H.H.V.V.C.H.V.F.F.xXMXMXMXMXMXlX  J K ~.].!.oXoX!.oXoXH a _.Q.O OXMXP VXVXVXVXVXVXVXVXVXVXVXVXVXVXVXVX",
"VX  &XmX@.Q n b : W { %.&.V.J.I.J.J.J.J.H.F.xXMXNX5X6X6X1X..Z C Q.Q.~.~.~.~.~.~.7.`.{.V g =X8XF VXVXVXVXVXVXVXVXVXVXVXVXVXVXVXVX",
"VX  &XmX*.Q G b : x 9.{ { V.I.J.J.J.J.J.H.D.cXMXaXc.c.c.S.I. .G A K _._._._._._._._.^.8.A.U.c.u VXVXVXVXVXVXVXVXVXVXVXVXVXVXVXVX",
"VX  &XmXj.9.,.v : v 1.N 8.Z.H.H.H.H.H.G.G.F.cXaXk.C.J.J.J.Z.I. .l J J J J J J J J C $ C.I.I.J.u VXVXVXVXVXVXVXVXVXVXVXVXVXVXVXVX",
"VX  &XMXmX-XT x : = y N 1.{ ;.=.;.;.=.=.s.I.R.T.J.J.H.J.J.H.J.H.y.% % % % % % % % g V.H.J.I.Z.u VXVXVXVXVXVXVXVXVXVXVXVXVXVXVXVX",
"VXVXI yXMX=X! _ - E ` w.N { #.$.$.#.$.#.$.d.o.O.n.v.v.v.v.n.G.K.C.A.t.t.t.t.t.t.t.A.I.n.m.l.o.e VXVXVXVXVXVXVXVXVXVXVXVXVXVXVXVX",
"VXVXVXk pX-XR W t ] -.$.w.#.$.$.$.$.$.$.#.+.-X1X5X4X5X4X5X4XH.S.G.I.I.K.T.T.U.K.T.L.D.1X5X4X;Xh VXVXVXVXVXVXVXVXVXVXVXVXVXVXVXVX",
"VXVXVX2 0 a 6 < 3.{ $.$.$.$.$.$.$.$.$.$.@.@.xXMXMXMXMXMXMXMX>XR.R.L.H.H.J.H.K.H.H.J.:XmXMXMXMXP VXVXVXVXVXVXVXVXVXVXVXVXVXVXVXVX",
"VXVXVXVX  O - i $.$.$.$.$.$.$.#.#.#.#.#.&.D.xXMXMXMXMXMXMXMXMXMXsXz.S.S.S.S.S.S.z.,XMXMXMXMXNXP VXVXVXVXVXVXVXVXVXVXVXVXVXVXVXVX",
"VXVXVXk kXY.0 e $.&.$.$.$.=.#.s.B.B.B.B.B.G.xXMXMXMXMXMXMXMXMXMXmXgXxXgXgXxXgXgXgXxXMXMXMXMXNXP   VXVXVXVXVXVXVXVXVXVXVXVXVXVXVX",
"VXVXI iXMX;X0 s $.$.$.$.&.%.#.g.I.J.I.J.J.F.cXMXmXaXaXaXgXMXMXMXMXMXMXMXMXMXMXMXMXMXMXMXMXmX6XF   = VXVXVXVXVXVXVXVXVXVXVXVXVXVX",
"VX  &XMXnXI # ) $.$.$.$.{ } ] s.I.J.J.J.C.G.hXmXgXR.R.T.4XnXcXmXMXMXMXMXMXMXMXMXMXMXMXnXnXsXT.u > 5 VXVXVXVXVXVXVXVXVXVXVXVXVXVX",
"VX  &XMXh.9 E %.$.$.$.{ N 1.c y.J.J.J.I.J.J.G.b.>XMXMXMXgXD.b.gXMXMXMXMXMXMXMXMXMXMXMX:Xk.5XnXH q d = VXVXVXVXVXVXVXVXVXVXVXVXVX",
"VX  &XmXa.9 E %.$.&.' <.1.6 % p ;.;.;.;.;.@.sXMXxX>X>X>X5XnXnX5XR.:X:X:X:X:X:X:X:X:X:XxXmXgX:Xh a b + VXVXVXVXVXVXVXVXVXVXVXVXVX",
"VX  &XnXr.q W %.$.' 0.v a E [ t.f.f.g.g.f.g.6XhX6Xb.b.l.R.fXsXsXaXaXaXaXaX6XaXaXaXaXaXsXfX5Xl.u a c y 1 VXVXVXVXVXVXVXVXVXVXVXVX",
"VX  &XNXj f ' %.$.<.b a e _ N.G.H.V.C.F.V.C.x.l.b.J.J.J.G.c.k.aXmXnXnXnXnXnXnXnXcXnXcXR.k.S.Z.u a 2.,.1 VXVXVXVXVXVXVXVXVXVXVXVX",
"VX  &XbX7 | %.%.$.3.t t ,.n ) %.$.$.$.$.#.$.#.f.J.H.J.J.J.J.H.G.G.F.G.G.G.G.G.G.G.G.G.J.H.I.H.u a 2.m < VXVXVXVXVXVXVXVXVXVXVXVX",
"VXVXU W.3 | %.{ 3.y y N N b ' $.$.$.$.$.$.{ B.S.v.v.v.v.v.v.v.v.c.v.F.G.G.G.G.G.G.G.G.J.D.O.R e x 2.m 1 VXVXVXVXVXVXVXVXVXVXVXVX",
"VXVXVX  * _ -.| X . 5 E e.N ' %.$.$.$.$.$.+.b.1XsXsXsXsXsXsXsXsXsXaXD.D.J.H.J.J.J.F.b.k.1XfX5XF w 1.b 1 VXVXVXVXVXVXVXVXVXVXVXVX",
"VXVXVXVX= ` +.p.+XF   i =.9.) { $.$.$.#.$.s.l.dXMXMXMXMXMXMXMXMXMXMX4XT.S.F.F.F.S.T.1X,XxXMXNXP 9 n m 4 VXVXVXVXVXVXVXVXVXVXVXVX",
"VXVXVXVX= ` Y  XMX X  i $.%.0.0.=.%.=.$.s.J.v.aXMXMXMXMXMXMXMXMXMXMXMX4XG.T.T.T.H.4XMXMXMXMXbXH   y n 4 VXVXVXVXVXVXVXVXVXVXVXVX",
"VXVXVXVX: e   XXMX@XX i -.$.#.d.J.H.V.H.C.H.c.sXMXMXMXMXMXMXMXMXMXMXMXmXnXmXnXnXnXnXMXMXMXxXh.r VXVX6 : VXVXVXVXVXVXVXVXVXVXVXVX",
"VXVXVXVXVXVX  OXMX@X# 4 E $.$.=.f.J.K.J.J.J.D.,X8X7X7X7X4X5X4XcXMXMXMXMXMXMXMXMXMXMXMXMXMXzXY 2 VXVXVXVXVXVXVXVXVXVXVXVXVXVXVXVX",
"VXVXVXVXVXVXVXI iXM.0 - = ] &.#.#.N.J.J.J.J.I.S.O.O.O.x.v.m.k.5XgXgXMXMXMXMXMXMXMXMXMXMXnX<Xq 1 VXVXVXVXVXVXVXVXVXVXVXVXVXVXVXVX",
"VXVXVXVXVXVXVXVX  | e.b 1 ` $.$.#.] B.J.Z.Z.J.d.| ] | g.J.C.C.S.k.Y.cXmXnXmXmXmXmXmXnXMX<XY = VXVXVXVXVXVXVXVXVXVXVXVXVXVXVXVXVX",
"VXVXVXVXVXVXVXVXVX; _ ` - 1 d <.2.,.8.8.8.8.*.' 2.<.2.2.8.8.t 7 : g R.R.R.R.R.R.R.E.h.p.q.d = VXVXVXVXVXVXVXVXVXVXVXVXVXVXVXVXVX",
"VXVXVXVXVXVXVXVXVXVXi p 3 = 4 v 2.1.N n n c 0.<.N N ) ' _ ' ^ | W y g [ [ [ [ [ [ [ Q W z 5 VXVXVXVXVXVXVXVXVXVXVXVXVXVXVXVXVXVX",
"VXVXVXVXVXVXVXVXVXVXVX& : : + 6 s s m 2.1.1.m M 1.) $.&.%.%.%.&.r.9.i w a c c c c b y v t VXVXVXVXVXVXVXVXVXVXVXVXVXVXVXVXVXVXVX",
"VXVXVXVXVXVXVXVXVXVXVXVXVXVXVXVX* * s 1.n n b n 3.$.] $.$.$.$.$.&.%.-.i 6 m b n n s * * VXVXVXVXVXVXVXVXVXVXVXVXVXVXVXVXVXVXVXVX",
"VXVXVXVXVXVXVXVXVXVXVXVXVXVXVXVXVXVX< 4 < < * a 2.,.m ' %.$.$.$.%.%.%.p * < : 4 : 4 : VXVXVXVXVXVXVXVXVXVXVXVXVXVXVXVXVXVXVXVXVX",
"VXVXVXVXVXVXVXVXVXVXVXVXVXVXVXVXVXVXVXVXVX; = < 5 5 b <.0.0.{ %.$.$.9.r * * * = ; ; VXVXVXVXVXVXVXVXVXVXVXVXVXVXVXVXVXVXVXVXVXVX",
"VXVXVXVXVXVXVXVXVXVXVXVXVXVXVXVXVXVXVXVX- * t y y y m N 1.) $.&.&.} v < + < y 5 - VXVXVXVXVXVXVXVXVXVXVXVXVXVXVXVXVXVXVXVXVXVXVX",
"VXVXVXVXVXVXVXVXVXVXVXVXVXVXVXVXVXVXVXVX4 r W 8.1.1.1.m 0.$.` ` ` _ 4 : 5 y 2.t VXVXVXVXVXVXVXVXVXVXVXVXVXVXVXVXVXVXVXVXVXVXVXVX",
"VXVXVXVXVXVXVXVXVXVXVXVXVXVXVXVXVXVXVXVXr $.%.) M m ,.,.,.m 4 * ; ; = s 2.,.,.t VXVXVXVXVXVXVXVXVXVXVXVXVXVXVXVXVXVXVXVXVXVXVXVX",
"VXVXVXVXVXVXVXVXVXVXVXVXVXVXVXVXVXVXVXVXi =.%.*._ - 5 6 t 5 ; * 6 b v ) $.' t VXVXVXVXVXVXVXVXVXVXVXVXVXVXVXVXVXVXVXVXVXVXVXVXVX",
"VXVXVXVXVXVXVXVXVXVXVXVXVXVXVXVXVXVXVXVXe E $.-.$.W e * * * + t v 2.e.=.$.E VXVXVXVXVXVXVXVXVXVXVXVXVXVXVXVXVXVXVXVXVXVXVXVXVXVX",
"VXVXVXVXVXVXVXVXVXVXVXVXVXVXVXVXVXVXVXVXVX& ^ ` ` ` r VXVX: 5 n 0.w.&.} p & VXVXVXVXVXVXVXVXVXVXVXVXVXVXVXVXVXVXVXVXVXVXVXVXVXVX",
"VXVXVXVXVXVXVXVXVXVXVXVXVXVXVXVXVXVXVXVXVXVX- = - = VXVXVX5 m N 9.$.$.i & VXVXVXVXVXVXVXVXVXVXVXVXVXVXVXVXVXVXVXVXVXVXVXVXVXVXVX",
"VXVXVXVXVXVXVXVXVXVXVXVXVXVXVXVXVXVXVXVXVXVXVXVXVXVXVXVXt N 1.,.s 5 5 - * VXVXVXVXVXVXVXVXVXVXVXVXVXVXVXVXVXVXVXVXVXVXVXVXVXVXVX",
"VXVXVXVXVXVXVXVXVXVXVXVXVXVXVXVXVXVXVXVXVXVXVXVXVXVXVX* y 8.2.e.} _ | / y * VXVXVXVXVXVXVXVXVXVXVXVXVXVXVXVXVXVXVXVXVXVXVXVXVXVX",
"VXVXVXVXVXVXVXVXVXVXVXVXVXVXVXVXVXVXVXVXVXVXVXVXVXVXVXVXt 2.N ' -.-.-.w.y * VXVXVXVXVXVXVXVXVXVXVXVXVXVXVXVXVXVXVXVXVXVXVXVXVXVX",
"VXVXVXVXVXVXVXVXVXVXVXVXVXVXVXVXVXVXVXVXVXVXVXVXVXVXVXVXVXVXVXVXVXVXVXVXVXVXVXVXVXVXVXVXVXVXVXVXVXVXVXVXVXVXVXVXVXVXVXVXVXVXVXVX"
};
