/* XPM */
static char *result[] = {
/* columns rows colors chars-per-pixel */
"64 77 245 2 ",
"   c #000000",
".  c #030803",
"X  c #020319",
"o  c #00141E",
"O  c #021416",
"+  c #0E0C0F",
"@  c #350301",
"#  c #330E14",
"$  c #000424",
"%  c #000924",
"&  c #000A2F",
"*  c #001422",
"=  c #001923",
"-  c #041928",
";  c #141B25",
":  c #181C26",
">  c #181C27",
",  c #000039",
"<  c #000036",
"1  c #1C1E30",
"2  c #261D28",
"3  c #2B0931",
"4  c #09292F",
"5  c #2D2029",
"6  c #36222B",
"7  c #382434",
"8  c #2C2C36",
"9  c #192B18",
"0  c #580000",
"q  c #4B0E04",
"w  c #6F0407",
"e  c #51132D",
"r  c #6A092D",
"t  c #482729",
"y  c #4A2734",
"u  c #5B2D3A",
"i  c #562B37",
"p  c #543A33",
"a  c #4F322C",
"s  c #652B28",
"d  c #652F3A",
"f  c #69313C",
"g  c #73332E",
"h  c #49320C",
"j  c #745B25",
"k  c #6F4B38",
"l  c #624A27",
"z  c #0E3B4B",
"x  c #322857",
"c  c #741448",
"v  c #552B41",
"b  c #50345D",
"n  c #742944",
"m  c #6B3241",
"M  c #743443",
"N  c #7B3445",
"B  c #7F3847",
"V  c #7B3749",
"C  c #7E3849",
"Z  c #75354A",
"A  c #6C2E44",
"S  c #703B68",
"D  c #0A454A",
"F  c #346063",
"G  c #4E5056",
"H  c #5C5E62",
"J  c #4C4E65",
"K  c #734D70",
"L  c #744B70",
"P  c #547477",
"I  c #77797A",
"U  c #666D72",
"Y  c #775342",
"T  c #920C0D",
"R  c #BD0900",
"E  c #BF1A00",
"W  c #AD0800",
"Q  c #B1380C",
"!  c #9A2923",
"~  c #853B2F",
"^  c #883429",
"/  c #863C35",
"(  c #973531",
")  c #99301B",
"_  c #C33A00",
"`  c #C61000",
"'  c #AF4D10",
"]  c #B57211",
"[  c #984236",
"{  c #944E32",
"}  c #A6452C",
"|  c #AC4A32",
" . c #A74838",
".. c #B24B33",
"X. c #B44D3C",
"o. c #B94C38",
"O. c #BD5136",
"+. c #B1482C",
"@. c #99693E",
"#. c #AC6837",
"$. c #C54E09",
"%. c #CD7410",
"&. c #C24A2E",
"*. c #C34D31",
"=. c #C55435",
"-. c #CA5634",
";. c #CD5935",
":. c #C75939",
">. c #D25A36",
",. c #CA532D",
"<. c #CA7925",
"1. c #CB633D",
"2. c #CB663A",
"3. c #D16B32",
"4. c #8D0851",
"5. c #823947",
"6. c #8B3D46",
"7. c #843A49",
"8. c #8A3A48",
"9. c #913F44",
"0. c #902459",
"q. c #9D3872",
"w. c #8E326C",
"e. c #AB2971",
"r. c #954144",
"t. c #9C4342",
"y. c #984645",
"u. c #8B505A",
"i. c #A34641",
"p. c #AB4B44",
"a. c #B25342",
"s. c #A67142",
"d. c #B46E4D",
"f. c #994C72",
"g. c #A74C75",
"h. c #876B6E",
"j. c #A06F5B",
"k. c #C87448",
"l. c #D37445",
"z. c #D77B49",
"x. c #CB7759",
"c. c #D16D47",
"v. c #CF7867",
"b. c #D17663",
"n. c #C65B40",
"m. c #72827F",
"M. c #DF8301",
"N. c #E08610",
"B. c #DA872E",
"V. c #E08D33",
"C. c #E18F3A",
"Z. c #E2913C",
"A. c #E28E2D",
"S. c #BC834B",
"D. c #C6854D",
"F. c #D8834D",
"G. c #CB8955",
"H. c #DC8B53",
"J. c #D58B52",
"K. c #DA9458",
"L. c #CC9057",
"P. c #E19142",
"I. c #E2944C",
"U. c #E89747",
"Y. c #E39553",
"T. c #E49B5B",
"R. c #EA9E5D",
"E. c #E39857",
"W. c #E38D50",
"Q. c #EAA05E",
"!. c #F2A055",
"~. c #E7A366",
"^. c #E6A778",
"/. c #E49E65",
"(. c #BB3A81",
"). c #AB5886",
"_. c #C74B86",
"`. c #C9548A",
"'. c #D1588E",
"]. c #D75A93",
"[. c #D15591",
"{. c #D3679A",
"}. c #E6629D",
"|. c #E9629E",
" X c #EC63A1",
".X c #FD6AAB",
"XX c #F466A6",
"oX c #E95096",
"OX c #6C8C94",
"+X c #779296",
"@X c #96949A",
"#X c #8D8E90",
"$X c #A5989A",
"%X c #949BA2",
"&X c #9CA5A6",
"*X c #8BAEB6",
"=X c #ADB1B3",
"-X c #B8BABB",
";X c #ACAAAC",
":X c #CC8D88",
">X c #D3A791",
",X c #E8AE86",
"<X c #E8B28E",
"1X c #EBBA9B",
"2X c #E9B695",
"3X c #E4AB92",
"4X c #DAB6AF",
"5X c #CFB2B0",
"6X c #E4B9B3",
"7X c #E5B4A8",
"8X c #D98FA6",
"9X c #EFCBB5",
"0X c #E6C8B8",
"qX c #F5D1BA",
"wX c #F0C8AE",
"eX c #F8C09C",
"rX c #97BDC4",
"tX c #A0BFC5",
"yX c #EFAAC4",
"uX c #9DC4CA",
"iX c #A8C4CA",
"pX c #B8D2D8",
"aX c #B1CCD2",
"sX c #C7C8C9",
"dX c #C4D8DC",
"fX c #D6D7D8",
"gX c #D7CCCD",
"hX c #F2D5C4",
"jX c #F4DACB",
"kX c #F4D7C7",
"lX c #E8D4CD",
"zX c #F7E5DB",
"xX c #EEE0D8",
"cX c #CADCE1",
"vX c #DAE5E7",
"bX c #E7EAEB",
"nX c #F8EAE3",
"mX c #F5EBE7",
"MX c #E9F3F5",
"NX c #F4F4F4",
"BX c #FBF5F3",
"VX c #FFFFFF",
"CX c #F9F9F9",
"ZX c #F3F1EF",
"AX c None",
/* pixels */
"AXAXAXAXAXAXAXAXAXAXAXAXAXAXAXAXAXAXAXAXAXAXAXAXAXAXAXAXAXAXAXAXAXAXAXAXAXAXAXAXAXAXAXAXAXAXAXAXAXAXAXAXAXAXAXAXAXAXAXAXAXAXAXAX",
"AXAXAXAXAXAXAXAXAXAXAXAXAXAXAXAXAXAXAXAXAXAXAXAXAXAXAXAXAXAXAXAXAXAXAXAXAXAXAXAXAXAXAXAXAXAXAXAXAXAXAXAXAXAXAXAXAXAXAXAXAXAXAXAX",
"AXAXAXAXAXAXAXAXAXAXAXAXAXAXAXAXAXAXAXAXAXAXAXAXAXAXAXAXAXAXAXAXAXAXAXAXAXAXAXAXAXAXAXAXAXAXAXAXAXAXAXAXAXAXAXAXAXAXAXAXAXAXAXAX",
"AXAXAXAXAXAXAXAXAXAXAXAXAXAXAXAXAXAXAXAXAXAXAXAXAXAXAXAXAXAXAXAXAXAXAXAXAXAXAXAXAXAXAXAXAXAXAXAXAXAXAXAXAXAXAXAXAXAXAXAXAXAXAXAX",
"AXAXAXAXAXAXAXAXAXAXAXAXAXAXAXAXAXAXAXAXAXAXAXAXAXAXAXAXAXAXAXAXAXAXAXAXAXAXAXAXAXAXAXAXAXAXAXAXAXAXAXAXAXAXAXAXAXAXAXAXAXAXAXAX",
"AXAXAXAXAXAXAXAXAXAXAXAXAXAXAXAXAXAXAXAXAXAXAX* % % % $ $ % % $ % % % % AXAXAXAXAXAXAXAXAXAXAXAXAXAXAXAXAXAXAXAXAXAXAXAXAXAXAXAX",
"AXAXAXAXAXAXAXAXAXAXAXAXAXAXAXAXAXAXAXAXAXAX1 u ~ / ~ ^ ~ ~ ~ / ~ ~ / g AXAXAXAXAXAXAXAXAXAXAXAXAXAXAXAXAXAXAXAXAXAXAXAXAXAXAXAX",
"AXAXAXAXAXAXAXAXAXAXAXAXAXAXAXAXAXAXAX7 t t d t.-.-.;.1.:.-.;.;.-.>.>.=.s t t AXAXAXAXAXAXAXAXAXAXAXAXAXAXAXAXAXAXAXAXAXAXAXAXAX",
"AXAXAXAXAXAXAXAXAXAXAXAXAXAXAXAX- o 7 8.o.=.=.O.*.*.l.K.:.*.=.=.=.=.=.-.=.=.[ X * AXAXAXAXAXAXAXAXAXAXAXAXAXAXAXAXAXAXAXAXAXAXAX",
"AXAXAXAXAXAXAXAXAXAXAXAXAXAXAX= v 9.o.o.-.*.2.H.H.1.l.R.1.O.=.=.=.=.=.=.=.-.O.| | s AXAXAXAXAXAXAXAXAXAXAXAXAXAXAXAXAXAXAXAXAXAX",
"AXAXAXAXAXAXAXAXAXAXAXAXAXAX2 m 9.=.>.:.=.&.l.Q.Q.c.2.z.:.=.=.=.=.=.*.*.*.=.=.-.>...s AXAXAXAXAXAXAXAXAXAXAXAXAXAXAXAXAXAXAXAXAX",
"AXAXAXAXAXAXAXAXAXAXAXAXAX: v r.=.-.=.=.=.O.c.K.K.c.o.&.=.-.-.-.=.:.1.1.1.1.:.1.1.2...6 AXAXAXAXAXAXAXAXAXAXAXAXAXAXAXAXAXAXAXAX",
"AXAXAXAXAXAXAXAXAXAXAXAX- f 7.6.o.-.=.:.=.=.-.:.:.=.=.=.-.=.O.*.&.F.Q.Y.T.T.R.E.T.l.&.+.6 AXAXAXAXAXAXAXAXAXAXAXAXAXAXAXAXAXAXAX",
"AXAXAXAXAXAXAXAXAXAXAXAXo f 7.6.=.n.$.R E E E R E R _ =.&.l.H.F.T.#.j j j j j j j h #.Y...s AXAXAXAXAXAXAXAXAXAXAXAXAXAXAXAXAXAX",
"AXAXAXAXAXAXAXAXAXAXAXAXi N C 7.=._ v.4X6X6X6X4X4X6X:X_ c.K.~.R.S.f.w.w.q.q.q.q.q.q.j.d.z.{   AXAXAXAXAXAXAXAXAXAXAXAXAXAXAXAXAX",
"AXAXAXAXAXAXAXAXAXAXAX6 B 7.5.r.=.' 4XVXVXVXVXVXVXVXmXb.E.R.E.L.= `..X.X|.|.|. X XXX_.v H.@.& #XVXVXVXAXAXAXAXAXAXAXAXAXAXAXAXAX",
"AXAXAXAXAXAXAXAXAXAXAX5 B V 9.,.$.$XcXVXaXuXvXVXVXVXVXZX~.U.d.1 J {..X{.w.S S L S 7 q.}.i   %XCXVXVXVXVXAXAXAXAXAXAXAXAXAXAXAXAX",
"AXAXAXAXAXAXAXAXAXAXy M B V i.,.R lXbXpXrX+XpXVXVXVXVXVXZXeX] X [.XX[.).fXbXgX*XvXm.  f.`.c OXdXpXNXVXVXVXAXAXAXAXAXAXAXAXAXAXAX",
"AXAXAXAXAXAXAXAXAXo v 7.5.N [ n.v.bXMXrXdXcXMXVXVXVXVXVXVX4X' ). X.X{.+XCXVXMXaXVXfXm.# XXq.F rX*XbXVXVXVXAXAXAXAXAXAXAXAXAXAXAX",
"AXAXAXAXAXAXAXAXAX* u 9.5.Z ( x.uXMXMXpXVXVXVXbXVXCXCXVXVX+Xc .X XoX8XaXVXVXbX*XCXVXfX@  X4.OXaXaXvXNXCXVXAXAXAXAXAXAXAXAXAXAXAX",
"AXAXAXAXAXAXAXAXAX$ ~ =.8.n ! z.NXVXVXVXVXVXgXG CXcXdXVXaXP 0.XX.X0.P pXVXVXfXG CXVXfX@ |.4.%XVXVX@XF pXVXAXAXAXAXAXAXAXAXAXAXAX",
"AXAXAXAXAXAXAXAX* ~ *.=.o.z.#.U VXVXVXVXVXVXbXfXVXpXdXVXOXz g.XXf.3 z U #X@XI + #X@XI 3 q.(.yXCXVXbXaXuXVXAXAXAXAXAXAXAXAXAXAXAX",
"AXAXAXAXAXAXAXAX* o.>.=.*.W.d.z -XfXMXVXVXVXVXVXVXbXvXfX8 w.{.|.6 . X         ;       8 J oXyXMXVXVXVXvXMXAXAXAXAXAXAXAXAXAXAXAX",
"AXAXAXAXAXAXAXAX* [ :.=.*.W.D.X . OXdXCXVXVXVXVXVXVXvX*XD g..X}.v O > > : : : : : : - 2 J [.8XuXMXCXCXMXiXAXAXAXAXAXAXAXAXAXAXAX",
"AXAXAXAXAXAXAXAX= m t.-.,.W.D.X   %XuXaXVXVXVXVXVXcXuXrXD g..X|.v O : : : : : : : : : ; . _.8XuXiXuXiXuXG AXAXAXAXAXAXAXAXAXAXAX",
"AXAXAXAXAXAXAXAX= m 6.y.9.a.:.( X D +XaXpXcXcXpXcXpX*XJ O `..X|.i O : : : : : : : : : ;   '.{.P uXaX*XJ > AXAXAXAXAXAXAXAXAXAXAX",
"AXAXAXAXAXAXAX% = f 7.V M d.z.z.S.q D *X+XOXOXOX+X+XP . . `..X}.v O ; ; : : ; : ; : ; ; . '.`.  +X+XI   o AXAXAXAXAXAXAXAXAXAXAX",
"AXAXAXAXAXAXq s ; f 7.B N x.T.E.K.a..           .   @ k . `..X}.v   X X ; : : : ; X X ; . '.'.. . .   1 AXAXAXAXAXAXAXAXAXAXAXAX",
"AXAXAXAXAX  g ,.t u 7.5.V X.-.=.:.:.} * = * * % * X @.J.9 `..X}.v       ; 2 : ; X   X ; . '.'.. ; > > AXAXAXAXAXAXAXAXAXAXAXAXAX",
"AXAXAXAX  sXgXT 2 d C N A X.=.=.=.-.O.| } k.L.D.] %.B.B.h S {.|.# -XNXfXO       +XdXsX  D {.].. ; > AXAXAXAXAXAXAXAXAXAXAXAXAXAX",
"AXAXAXAX  bXNXw * / p.i.i.o.*.=.=.=.=.-.-.l.P.R.hXkXkX0X# , ).|.. -XCXVXsX=X-X-XvXVXxX  ).].f.. - AXAXAXAXAXAXAXAXAXAXAXAXAXAXAX",
"AXAXAXAXU xXgXr * } >.-.-.1.1.=.=.=.=.=.=.&.x.eXVXVXVXVX#XG ).}.0.OXdXVXVXVXVXVXVXVX-X@ XX).J I 8 AXAXAXAXAXAXAXAXAXAXAXAXAXAXAX",
"AXAXAXH CX6XW Z - } ;.-.*.H.H.*.=.=.=.=.*.%.wXVXVXVXVXVXVX&X. f. Xe.*XVXVXVXVXVXVX-X3 y  X4.&XCXH AXAXAXAXAXAXAXAXAXAXAXAXAXAXAX",
"AXAXAX8 VX7XW n - } ;.*.*.F.T.H.H.H.H.H.H.B.wXVXVXVXVXVXVX&X  K f.[.{.@X@X@X@X@X@XF c ].).  &XVXH AXAXAXAXAXAXAXAXAXAXAXAXAXAXAX",
"AXAX).pXVX5XT N - / a.-.=.H.R.T.T.T.T.~.~.A.9XVXVXzXqXkXkX>X{ x J )._.(.(.(.(.(.).e.].XXb l >XqXG AXAXAXAXAXAXAXAXAXAXAXAXAXAXAX",
"AX. =XVXBX$Xw N 2 v t.o.o.F.R.E.T.T.R.K.L.B.2XbXbX2XM.A.A.Y.G.p L J ).}.}.}.}.|.}. X}.'.M G.!.B.p AXAXAXAXAXAXAXAXAXAXAXAXAXAXAX",
"AX. =XVXb.! N N 2 d 7.5.n G.R.E.T.Y.R.K.p $ : 1 $ S.~.R.T.T.T.K.a b K L L K K K K K b a K.R./.H.p AXAXAXAXAXAXAXAXAXAXAXAXAXAXAX",
"AX. =XCXb.! Z C - m 7.5.5.a.c.c.c.@.p k | ..+.)   d.Q.T.T.T.T.T.K.Y , , , , , , < < Y J.E.T.T.K.p AXAXAXAXAXAXAXAXAXAXAXAXAXAXAX",
"AX  =XCXv.Q / i u M 7.Z y g ^ ^ ^ i e ( =.;.>.=.  ] U.Z.Z.Z.I.T.Q.D.@.s.s.s.s.s.s.s.D.R.P.P.B.%.a AXAXAXAXAXAXAXAXAXAXAXAXAXAXAX",
"AX  =XVXx._  .* 5.7.8.9.s s t a t g X.2.=.=.O.a.I >X2X2X2X2X,XI.K.R.Q.R.R.Q.Q.Q.Q.Q.E.T.<X1X3X:Xp AXAXAXAXAXAXAXAXAXAXAXAXAXAXAX",
"AX  =XCXv.! d 5 N B [ -.=.=.=.=.=.=.=.=.=.-.) G NXVXVXVXVXVXzXZ.T.T.E.T.T.T.E.T.T.K.I.^.BXVXVXNXH AXAXAXAXAXAXAXAXAXAXAXAXAXAXAX",
"AXAXH $XBX@X  5 V V t.;.:.=.=.=.=.-.=.=.-.p.0 4 NXVXVXVXVXVXVXmXBX2XM.A.V.V.V.V.V.M.2XBXVXVXVXNXH AXAXAXAXAXAXAXAXAXAXAXAXAXAXAX",
"AXAXAXX -XdX&X  N V [ ;.=.=.=.=.=.=.=.-.>.w U gXCXVXVXVXVXVXVXVXVXnXqXkXhXhXhXhXkXqXnXVXVXVXVXCXH AXAXAXAXAXAXAXAXAXAXAXAXAXAXAX",
"AXAXAXAX  lXfX  N 7.y.O.=.=.=.-.=.-.=.o.+.w =XVXVXZXnXmXnXBXVXVXVXVXVXVXVXVXVXVXVXVXVXVXVXVXVXxXH AXAXAXAXAXAXAXAXAXAXAXAXAXAXAX",
"AXAXAXAX4 } } - N 5.B 7.=.-.=.-.=.=.X.Z $ ] eXVXVXwXV.T.P.xXVXVXVXVXVXVXVXVXVXVXVXVXVXVXVXVXzXV.p AXAXAXAXAXAXAXAXAXAXAXAXAXAXAX",
"AXAXAXH bX7XT * 5.7.B 5.8.9.9.9.y.g % a G.E.~.^.~.xXCXBXBXwX/.2XVXVXVXVXVXVXVXVXVXVXVXVX2XT.9XZXH AXAXAXAXAXAXAXAXAXAXAXAXAXAXAX",
"AXAXAX# 0X:XQ y i N 8.7.7.7.M 3 3 g ^ ( l.3.3XjXkXkXkXkXkXkXkXkX9X9X9X9X9X9X9X9X9X9X9X9XkXkXjXqXG AXAXAXAXAXAXAXAXAXAXAXAXAXAXAX",
"AXAXI #X_ _ p.N = i Z A M A k k k a.l.l.2.$.3XBXBX1XM.A.M.kXCXnX1X,X<X<X<X<X<X<X<X<X,X1XmXVXkX%.a AXAXAXAXAXAXAXAXAXAXAXAXAXAXAX",
"AX  =XVXb.! n N 6 = ; : : X @.T.E.T.K.E.T.T.E.Y.Y.E.R.E.T.E.Z.^.BXVXVXVXVXVXVXVXVXVXVXCX~.Z.Q.K.p AXAXAXAXAXAXAXAXAXAXAXAXAXAXAX",
"AX  =XVXb.! N B Z t 6 N N m y.c.c.2.c.1.2.n.1.2.K.T.T.T.T.E.E.T.<X<X<X<X<X<X<X<X<X<X<X<XT.I.Q.K.p AXAXAXAXAXAXAXAXAXAXAXAXAXAXAX",
"AX  =XVXc.T Z 7.7.y y 9.C C [ *.*.*.*.*.=.&.:.F.Z.C.C.C.Z.C.Z.C.M.M.A.P.P.P.P.P.P.P.Z.P.T.I.B.$.a AXAXAXAXAXAXAXAXAXAXAXAXAXAXAX",
"AX  =XVX3Xg./ N 7.y 6 N 9.7.t.-.=.=.=.=.:.o.3.~.1X1X1X1X1X1X1X1X1XeX,XI.E.T.T.E.T.K.T.I.I.<X7X:Xp AXAXAXAXAXAXAXAXAXAXAXAXAXAXAX",
"AX  $XVXVX7XW N 7.y X t =.i.r.=.-.=.=.=.=.*.3.^.BXVXVXVXVXVXVXVXVXVXxXY.E.T.T.T.T.E.T.~.I.zXVXNXH AXAXAXAXAXAXAXAXAXAXAXAXAXAXAX",
"AXAXG @XCX7XR X.r.y % t O.=. .6.o.&.&.*.+.z.I.^.BXVXVXVXVXVXVXVXVXVXVXnX/.M.C.V.C.M.1XBXZXVXVXVXH AXAXAXAXAXAXAXAXAXAXAXAXAXAXAX",
"AXAXAX  &XxX6X$.0 e y t =.>.O.p.F.F.F.z.z.E.I.^.VXVXVXVXVXVXVXVXVXVXVXVXxXkXjXjXjXhXnXVXCXcX;X;Xz   AXAXAXAXAXAXAXAXAXAXAXAXAXAX",
"AXAXAXAX  sXlX) #Xh.s 2 } O.-.;.H.T.~./.T.R.Y.^.zXnXnXnXnXnXzXnXVXVXVXVXVXVXVXVXVXVXVXVXvX).    g ~ s AXAXAXAXAXAXAXAXAXAXAXAXAX",
"AXAXAXAXAX    H CX5X0 - * [ -.-.*.F.~.T.T.E.E.E.I.I.W.I.I.I.C.^.BXVXVXVXVXVXVXVXVXVXVXNXG 0 8.9.=.>.| = AXAXAXAXAXAXAXAXAXAXAXAX",
"AXAXAXAXAXAXAXH CX;X0 Z -  .>.-.-.:.z.Q.Q.Q.Q.T.2.;.;.1.E.R.Y.R.,X^.hXVXVXVXVXVXVXVXVXVXh.r t.*.=.=.=.| 6 AXAXAXAXAXAXAXAXAXAXAX",
"AXAXAXAXAXAXAXG &XgX5Xr * s ( i.i.( p.d.d.s.d.l.:.*.&.-.l.l.W.Q.U.A.^.qXqX9XqXqXqXqX0X;Xu.n i.-.=.=.-.=.f 7 AXAXAXAXAXAXAXAXAXAX",
"AXAXAXAXAXAX7 e   sXgXT i - 7 C V Z Z n n c 9.o.o.X.X.X...+.a.G.G.G.F.<.<.<.<.<.%.B.' w / n 9.o.=.=.-.=.i.d * AXAXAXAXAXAXAXAXAX",
"AXAXAXAXAX= u 7.6.+ w -.6.y y 7.B 5.B 5.5.7.7.B B C C B B C N N N n N N N n 5.n N N N B B C C 6.O.=.=.=.;.~ % AX6 6 6 AXAXAXAXAX",
"AXAXAXAX* u V V 8.5 ^ >.a d N N V V C 5.5.7.f 6 B 7.7.7.7.7.7.7.8.7.5.7.5.5.7.8.C r.A 5 5 M 8.7.r.7.i.-.;.i.i - ..=.[ * AXAXAXAX",
"AXAXAXAX* [ a. .8.m f g o v 9.X.p.X.[ V B 8.f = i u u i u i u u u u u u u u u u u u y o AXy u u C C r.t.i.f d } -.>.| - AXAXAXAX",
"AXAXAXAX* | >.=.6.7.M 2 7 / p.-.-.-.O.r.7.V i = = o o = * o o o * * o * o o * o = o = 1 AXAXo ; f M Z V V s [ >.=.;.| * AXAXAXAX",
"AXAXAXAX*  .;.=.8.N 5.5.5.o.-.=.=.=.-.O.r.7 = : AXAXAXAXAXAXAXAXAXAXAXAXAXAXAXAXAXAXAXAXAXAXAXAX= * y 5.V X.;.=.=.-.[ * AXAXAXAX",
"AXAXAXAX* | >.=.a f 7.7.O.=.-.=.=.=.;.=.i - ; AXAXAXAXAXAXAXAXAXAXAXAXAXAXAXAXAXAXAXAXAXAXAXAXAXAXAXAXy V X.;.;.>.[ 2 AXAXAXAXAX",
"AXAXAXAXAXg [ g : f 7.6.=.;.-.:.-.a.[ g AXAXAXAXAXAXAXAXAXAXAXAXAXAXAXAXAXAXAXAXAXAXAXAXAXAXAXAXAXAXAXAXy r.p. .[ t AXAXAXAXAXAX",
"AXAXAXAXAXAX% % o u V 6.p.X.o.X...5.y X AXAXAXAXAXAXAXAXAXAXAXAXAXAXAXAXAXAXAXAXAXAXAXAXAXAXAXAXAXAXAXAXo i A v * AXAXAXAXAXAXAX",
"AXAXAXAXAXAXAXAXAXo y 5.V V V M - * = AXAXAXAXAXAXAXAXAXAXAXAXAXAXAXAXAXAXAXAXAXAXAXAXAXAXAXAXAXAXAXAXAXAX= = = AXAXAXAXAXAXAXAX",
"AXAXAXAXAXAXAXAXAXAXAX7 6 6 7 6 AXAXAXAXAXAXAXAXAXAXAXAXAXAXAXAXAXAXAXAXAXAXAXAXAXAXAXAXAXAXAXAXAXAXAXAXAXAXAXAXAXAXAXAXAXAXAXAX",
"AXAXAXAXAXAXAXAXAXAXAXAXAXAXAXAXAXAXAXAXAXAXAXAXAXAXAXAXAXAXAXAXAXAXAXAXAXAXAXAXAXAXAXAXAXAXAXAXAXAXAXAXAXAXAXAXAXAXAXAXAXAXAXAX",
"AXAXAXAXAXAXAXAXAXAXAXAXAXAXAXAXAXAXAXAXAXAXAXAXAXAXAXAXAXAXAXAXAXAXAXAXAXAXAXAXAXAXAXAXAXAXAXAXAXAXAXAXAXAXAXAXAXAXAXAXAXAXAXAX",
"AXAXAXAXAXAXAXAXAXAXAXAXAXAXAXAXAXAXAXAXAXAXAXAXAXAXAXAXAXAXAXAXAXAXAXAXAXAXAXAXAXAXAXAXAXAXAXAXAXAXAXAXAXAXAXAXAXAXAXAXAXAXAXAX",
"AXAXAXAXAXAXAXAXAXAXAXAXAXAXAXAXAXAXAXAXAXAXAXAXAXAXAXAXAXAXAXAXAXAXAXAXAXAXAXAXAXAXAXAXAXAXAXAXAXAXAXAXAXAXAXAXAXAXAXAXAXAXAXAX",
"AXAXAXAXAXAXAXAXAXAXAXAXAXAXAXAXAXAXAXAXAXAXAXAXAXAXAXAXAXAXAXAXAXAXAXAXAXAXAXAXAXAXAXAXAXAXAXAXAXAXAXAXAXAXAXAXAXAXAXAXAXAXAXAX",
"AXAXAXAXAXAXAXAXAXAXAXAXAXAXAXAXAXAXAXAXAXAXAXAXAXAXAXAXAXAXAXAXAXAXAXAXAXAXAXAXAXAXAXAXAXAXAXAXAXAXAXAXAXAXAXAXAXAXAXAXAXAXAXAX",
"AXAXAXAXAXAXAXAXAXAXAXAXAXAXAXAXAXAXAXAXAXAXAXAXAXAXAXAXAXAXAXAXAXAXAXAXAXAXAXAXAXAXAXAXAXAXAXAXAXAXAXAXAXAXAXAXAXAXAXAXAXAXAXAX"
};
