/* XPM */
static char *result[] = {
/* columns rows colors chars-per-pixel */
"64 77 245 2 ",
"   c #000000",
".  c #060404",
"X  c #00140B",
"o  c #000114",
"O  c #00031B",
"+  c #08091A",
"@  c #00151E",
"#  c #001A19",
"$  c #17080F",
"%  c #280000",
"&  c #380019",
"*  c #2A3016",
"=  c #3C231F",
"-  c #000122",
";  c #000C24",
":  c #001423",
">  c #011923",
",  c #0D1B26",
"<  c #02172A",
"1  c #141B25",
"2  c #191C26",
"3  c #191D2B",
"4  c #001330",
"5  c #221D26",
"6  c #241E29",
"7  c #2A1D27",
"8  c #300F31",
"9  c #152630",
"0  c #26222B",
"q  c #32212B",
"w  c #3C232B",
"e  c #372233",
"r  c #292C37",
"t  c #540008",
"y  c #49000B",
"u  c #7B0000",
"i  c #6D0011",
"p  c #510B2B",
"a  c #6C0A2F",
"s  c #5A2B2B",
"d  c #4A2635",
"f  c #5C2D3C",
"g  c #562B39",
"h  c #4B332D",
"j  c #68312C",
"k  c #74352B",
"l  c #622E3C",
"z  c #672A3E",
"x  c #69313E",
"c  c #7B3431",
"v  c #6F4637",
"b  c #775F06",
"n  c #001342",
"m  c #060543",
"M  c #043B46",
"N  c #393A40",
"B  c #6B1948",
"V  c #542D49",
"C  c #772A45",
"Z  c #6B3245",
"A  c #743443",
"S  c #7A3744",
"D  c #7A3648",
"F  c #793749",
"G  c #773754",
"H  c #613B5B",
"J  c #723366",
"K  c #463660",
"L  c #375652",
"P  c #53595C",
"I  c #6C504C",
"U  c #574F64",
"Y  c #6C4D6D",
"T  c #767779",
"R  c #657A7D",
"E  c #586267",
"W  c #920902",
"Q  c #A90600",
"!  c #93330E",
"~  c #B12800",
"^  c #8A3D2D",
"/  c #873935",
"(  c #943936",
")  c #943D2D",
"_  c #A63E34",
"`  c #C33A00",
"'  c #C13600",
"]  c #C40000",
"[  c #945500",
"{  c #9A4338",
"}  c #97442A",
"|  c #A8452D",
" . c #A84839",
".. c #B34D33",
"X. c #B94D33",
"o. c #B34A3A",
"O. c #BD5134",
"+. c #BA5239",
"@. c #B94B28",
"#. c #9B6A3C",
"$. c #89672B",
"%. c #B76B31",
"&. c #BE461C",
"*. c #C74D0E",
"=. c #C96B05",
"-. c #C7532C",
";. c #C34D32",
":. c #C55435",
">. c #CA5534",
",. c #C75B39",
"<. c #CA5D3A",
"1. c #C75737",
"2. c #D25936",
"3. c #C44B2E",
"4. c #CB643D",
"5. c #CC683C",
"6. c #CF6F34",
"7. c #823946",
"8. c #8B3D46",
"9. c #843A49",
"0. c #8B3D49",
"q. c #8E3852",
"w. c #AF3478",
"e. c #93346C",
"r. c #9B4344",
"t. c #964244",
"y. c #864551",
"u. c #A24642",
"i. c #A84B42",
"p. c #AF5C46",
"a. c #9A6B46",
"s. c #A7674B",
"d. c #AC734C",
"f. c #98557E",
"g. c #904772",
"h. c #B24D78",
"j. c #916468",
"k. c #B96F65",
"l. c #CC6B42",
"z. c #C26645",
"x. c #CD7447",
"c. c #D17445",
"v. c #D67D49",
"b. c #CB6C58",
"n. c #C35748",
"m. c #DF8601",
"M. c #E18B15",
"N. c #DE8C31",
"B. c #E08D31",
"V. c #E18F39",
"C. c #E2913C",
"Z. c #E08C2A",
"A. c #BD814C",
"S. c #C4854B",
"D. c #D8834D",
"F. c #DA8B55",
"G. c #DA9156",
"H. c #CC8D54",
"J. c #E19243",
"K. c #E2944C",
"L. c #E29654",
"P. c #E39856",
"I. c #E39B5B",
"U. c #EA9E5C",
"Y. c #E39658",
"T. c #E08E53",
"R. c #ECA15E",
"E. c #E7A05F",
"W. c #D48777",
"Q. c #DD9461",
"!. c #E49D62",
"~. c #E8A369",
"^. c #E5A472",
"/. c #E6AA7E",
"(. c #737A83",
"). c #517C85",
"_. c #9D5681",
"`. c #B95688",
"'. c #AF798E",
"]. c #DA5A95",
"[. c #CC558F",
"{. c #E85A9B",
"}. c #DA619A",
"|. c #E7639F",
" X c #EE65A2",
".X c #F467A5",
"XX c #FB69A9",
"oX c #77949B",
"OX c #6C8D94",
"+X c #679399",
"@X c #8D9193",
"#X c #A99292",
"$X c #AEA19D",
"%X c #9D9FA0",
"&X c #89AEB6",
"*X c #89B3BB",
"=X c #93ADB3",
"-X c #AAB4B7",
";X c #B7B8BA",
":X c #ADA8AE",
">X c #AA97A8",
",X c #D59B94",
"<X c #E7AE85",
"1X c #EAB289",
"2X c #EAB99A",
"3X c #E2A99D",
"4X c #CBB2AB",
"5X c #ECBEA2",
"6X c #E9B6A8",
"7X c #E2AAA1",
"8X c #CE9AA7",
"9X c #ECC0A5",
"0X c #EEC7AD",
"qX c #EDC8B4",
"wX c #F3CDB5",
"eX c #95BAC2",
"rX c #B2AFC0",
"tX c #9DC1C9",
"yX c #A6C5CC",
"uX c #BED7DB",
"iX c #B4CBD0",
"pX c #C3C4C4",
"aX c #CBC5CB",
"sX c #C8D8DB",
"dX c #D7D9D9",
"fX c #DACCCB",
"gX c #F4D9CA",
"hX c #F5DFD3",
"jX c #F7DED5",
"kX c #EACFCB",
"lX c #F8E3DA",
"zX c #CFDEE1",
"xX c #DAE6E8",
"cX c #DEEDF0",
"vX c #E8E9EA",
"bX c #F7ECE9",
"nX c #ECF2F4",
"mX c #F3F3F4",
"MX c #FCF5F2",
"NX c #FDF9F6",
"BX c #F5FBFB",
"VX c #FFFFFF",
"CX c #F4F7F8",
"ZX c #F5EFEE",
"AX c None",
/* pixels */
"AXAXAXAXAXAXAXAXAXAXAXAXAXAXAXAXAXAXAXAXAXAXAXAXAXAXAXAXAXAXAXAXAXAXAXAXAXAXAXAXAXAXAXAXAXAXAXAXAXAXAXAXAXAXAXAXAXAXAXAXAXAXAXAX",
"AXAXAXAXAXAXAXAXAXAXAXAXAXAXAXAXAXAXAXAXAXAXAXAXAXAXAXAXAXAXAXAXAXAXAXAXAXAXAXAXAXAXAXAXAXAXAXAXAXAXAXAXAXAXAXAXAXAXAXAXAXAXAXAX",
"AXAXAXAXAXAXAXAXAXAXAXAXAXAXAXAXAXAXAXAXAXAXAXAXAXAXAXAXAXAXAXAXAXAXAXAXAXAXAXAXAXAXAXAXAXAXAXAXAXAXAXAXAXAXAXAXAXAXAXAXAXAXAXAX",
"AXAXAXAXAXAXAXAXAXAXAXAXAXAXAXAXAXAXAXAXAXAXAXAXAXAXAXAXAXAXAXAXAXAXAXAXAXAXAXAXAXAXAXAXAXAXAXAXAXAXAXAXAXAXAXAXAXAXAXAXAXAXAXAX",
"AXAXAXAXAXAXAXAXAXAXAXAXAXAXAXAXAXAXAXAXAXAXAXAXAXAXAXAXAXAXAXAXAXAXAXAXAXAXAXAXAXAXAXAXAXAXAXAXAXAXAXAXAXAXAXAXAXAXAXAXAXAXAXAX",
"AXAXAXAXAXAXAXAXAXAXAXAXAXAXAXAXAXAXAXAXAXAXAXAXAXAXAXAXAXAXAXAXAXAXAXAXAXAXAXAXAXAXAXAXAXAXAXAXAXAXAXAXAXAXAXAXAXAXAXAXAXAXAXAX",
"AXAXAXAXAXAXAXAXAXAXAXAXAXAXAXAXAXAXAXAXAXAXAXAXAX3 , , , , , , , 1 , , 1 AXAXAXAXAXAXAXAXAXAXAXAXAXAXAXAXAXAXAXAXAXAXAXAXAXAXAX",
"AXAXAXAXAXAXAXAXAXAXAXAXAXAXAXAXAXAXAXAXAX> : ; < A ..+.X.X.X.X.X.+.X.:.{ - : AXAXAXAXAXAXAXAXAXAXAXAXAXAXAXAXAXAXAXAXAXAXAXAXAX",
"AXAXAXAXAXAXAXAXAXAXAXAXAXAXAXAXAXAXAX: - d ( ..| o.;.;.v.v.:.>.:.>.>.1.;. ...7 - AXAXAXAXAXAXAXAXAXAXAXAXAXAXAXAXAXAXAXAXAXAXAX",
"AXAXAXAXAXAXAXAXAXAXAXAXAXAXAXAXAXAX> g { { +.>.<.D.v.>.F.F.@.:.:.:.:.:.:.2.>.|  .j AXAXAXAXAXAXAXAXAXAXAXAXAXAXAXAXAXAXAXAXAXAX",
"AXAXAXAXAXAXAXAXAXAXAXAXAXAXAXAXAX7 f r.:.1.:.:.4.!.~.l.c.v.:.:.:.:.:.:.;.;.;.>.2...s AXAXAXAXAXAXAXAXAXAXAXAXAXAXAXAXAXAXAXAXAX",
"AXAXAXAXAXAXAXAXAXAXAXAXAXAXAXAX0 f 8.>.:.:.:.:.<.L.T.l.3.;.:.:.:.:.<.4.l.<.l.l.4.2.X.w AXAXAXAXAXAXAXAXAXAXAXAXAXAXAXAXAXAXAXAX",
"AXAXAXAXAXAXAXAXAXAXAXAXAXAXAX@ l 9.y.:.:.;.:.:.:.;.:.:.;.-.:.,.1.:.F.P.G.E.Y.G.I.v.3.X.2 AXAXAXAXAXAXAXAXAXAXAXAXAXAXAXAXAXAXAX",
"AXAXAXAXAXAXAXAXAXAXAXAXAXAXAX@ g 9.8.:.>.*.' ` ' ' ' ' 3.:.4.G.Y.U.#.X * * * * *   #.Y.@.d AXAXAXAXAXAXAXAXAXAXAXAXAXAXAXAXAXAX",
"AXAXAXAXAXAXAXAXAXAXAXAXAXAX@ f F D D :.] qXmXbXbXbXbXbX,X` P.E.R.$.f.}.].].].].].{.`.b T.h   pXVXVXAXAXAXAXAXAXAXAXAXAXAXAXAXAX",
"AXAXAXAXAXAXAXAXAXAXAXAXAXAX@ x 9.t.o.@.'.nXBXsXxXVXVXVXZX5XM.G.s.9 [.XX|.w.w.h.w.h.h.`.$.  ;XVXVXVXVXAXAXAXAXAXAXAXAXAXAXAXAXAX",
"AXAXAXAXAXAXAXAXAXAXAXAXAXAXd A 7.8.>.` sXcXsXoXyXVXVXVXVXMX9XL.o e.{.].'.;X-X@X-XR t [.e.o sXcXnXVXVXAXAXAXAXAXAXAXAXAXAXAXAXAX",
"AXAXAXAXAXAXAXAXAXAXAXAXAX> S 9.7.r.1.k.NXsXtXzXsXVXVXVXVXVXCX6.G {.XX`.-XVXVXiXVXdXL p XXp oXeXsXVXVXVXAXAXAXAXAXAXAXAXAXAXAXAX",
"AXAXAXAXAXAXAXAXAXAXAXAXAX: S 9.S ( b.yXBXsXxXBXVXCXVXBXVXVXxX  .X.X].8XuXVXVXtXvXVXdXt  Xp =XiXzXVXVXVXAXAXAXAXAXAXAXAXAXAXAXAX",
"AXAXAXAXAXAXAXAXAXAXAXAXAX: ..i.C ( b.BXVXVXVXVXvX0 mXuXxXnX&X&  XXXe.OXsXVXBXP dXVXdXt {.$ xXNXpXM iXVXAXAXAXAXAXAXAXAXAXAXAXAX",
"AXAXAXAXAXAXAXAXAXAXAXAX7 ..:.;.x.A.I NXVXVXVXVXVXvXVXiXvXdX4 Y  Xg.8 r E T T 0 E T E e _.].bXNXBXdXtXVXAXAXAXAXAXAXAXAXAXAXAXAX",
"AXAXAXAXAXAXAXAXAXAXAXAXq :.:.;.D.Q.4 %XiXBXVXVXVXVXVXCXcX=Xt ]..XZ X +       1       e Y {.aXmXVXVXnXzXAXAXAXAXAXAXAXAXAXAXAXAX",
"AXAXAXAXAXAXAXAXAXAXAXAX7  .;.;.D.H.o   *XsXCXVXVXVXVXnXuX+Xa XX.XG X 2 2 2 2 2 1 2 1 0 H {.rXuXxXxXxXoXAXAXAXAXAXAXAXAXAXAXAXAX",
"AXAXAXAXAXAXAXAXAXAXAXAX6 Z i.o.l.S.s o oX*XsXnXcXnXnXiX&XOXB .X.XG X 2 2 2 2 2 2 3 1 > 6 {.>X*XtXeXoX  AXAXAXAXAXAXAXAXAXAXAXAX",
"AXAXAXAXAXAXAXAXAXAXAXAX6 S D A r.2.l.v   oX*X=X*X=X&XeXR   G .X.XG X 3 2 2 2 2 2 2 2 > e  Xa OXtX&X  1 AXAXAXAXAXAXAXAXAXAXAXAX",
"AXAXAXAXAXAXAXAXAXAXAX0 6 S 9.C d.!.I.U.v O + + + + + + 0 X G .X.XG X 2 1 2 2 2 2 1 2 > q  Xq.  $ + 3 AXAXAXAXAXAXAXAXAXAXAXAXAX",
"AXAXAXAXAXAXAXAXAXAXu ..< S D F  .4.<.4.1.j - - O o O o d.A.B XX.XG       3 2 3       , 7  Xq.. 1 1 AXAXAXAXAXAXAXAXAXAXAXAXAXAX",
"AXAXAXAXAXAXAXAXAX-XaXW 1 F F F r.>.;.:.1.X.| %.H.H.6.=.Z.%.n `..Xa ;XnXpX      R sXpX  U .Xe.X 1 AXAXAXAXAXAXAXAXAXAXAXAXAXAXAX",
"AXAXAXAXAXAXAXAX  dXmXt 6  . . .o.3.:.:.:.:.>.4.D.C.gXjXlX4X  Y XXt eXBXNXpXpXpXzXVXvX% }.`.p   0 AXAXAXAXAXAXAXAXAXAXAXAXAXAXAX",
"AXAXAXAXAXAXAXAX%XfX4Xi 7 :.>.>.4.c.;.:.:.;.;.>.F.wXVXVXNXvX@XH [.w.(.uXVXVXVXVXVXZX%Xp .XV %XT   AXAXAXAXAXAXAXAXAXAXAXAXAXAXAX",
"AXAXAXAXAXAXAX  nXkXQ Z 7 O.>.;.v.I.4.5.l.4.4.6.1XVXVXVXVXVXmX  U }.w.8XnXbXvXvXZX:X% e.}.. CXpX  AXAXAXAXAXAXAXAXAXAXAXAXAXAXAX",
"AXAXAXAXAXAXAXO vXkXQ Z 5 X.O.3.c.E.I.I.I.I.I.L.<XVXVXNXNXNXvX% Y U ].[.H J J J J V g. XU $ bX;X  AXAXAXAXAXAXAXAXAXAXAXAXAXAXAX",
"AXAXAXAXAXAXo nXVX;X  : > 2 ; ) v.I.U.G.I.I.I.K.<XVXVX9XI.~.~.G.6 H Y `..X X X X X X X}.> G.R.d.o AXAXAXAXAXAXAXAXAXAXAXAXAXAXAX",
"AXAXAXAXAXAX1 T (.Y / X.X.X.X.( d.~.E.I.E.I.U.P.<XVX5X!.L.P.G.I.G.V K g._._._._._._.g.Z G.G.R.a.o AX, : AXAXAXAXAXAXAXAXAXAXAXAX",
"AXAXAXAXAXAX: & W | p.2.1.:.1.X.p.v.c.c.c.c.l.v.^.0XI.L.I.I.I.I.E.S.I m n n n n n m v S.~.G.~.a.o AXw  .s AXAXAXAXAXAXAXAXAXAXAX",
"AXAXAXAXAX, ) u.+.-.>.:.:.:.:.1.-.3.;.;.;.;.3.<.v.=.V.J.J.J.J.J.I.~.S.#.#.#.a.#.#.#.A.R.C.J.Z.} - : q >.j AXAXAXAXAXAXAXAXAXAXAX",
"AXAXAXAXh ^ >.>.,.:.:.:.:.:.>.:.>.:.:.:.:.:.:.;.n.,X2X9X5X5X5X2XG.K.U.R.R.R.R.R.R.R.P.!.5X5X3Xj.  q c >.s AXAXAXAXAXAXAXAXAXAXAX",
"AXAXAX< c 2.:.:.:.:.,.:.:.:.:.:.:.:.;.:.:.:.:.*.W.VXVXVXVXVXVXVX1X/.~.P.R.P.P.P.I.L.U.5XVXVXVX-X  k 2.>.s AXAXAXAXAXAXAXAXAXAXAX",
"AXAX: g r.>.:.:.:.:.-.1.:.:.:.>.:.;.>.1.:.:.;.6.1XVXVXVXVXVXVXVXVXVX0XV.I.I.U.I.P.C.9XVXVXVXVX:X. u.2.:.j AXAXAXAXAXAXAXAXAXAXAX",
"AXAX- / 1.:.:.2.u.9.8.t.8.:.>.>.;.l.Y.Y.G.Y.F.J.<XVXVXVXVXVXVXVXVXVXNXMXMXMXMXMXMXNXNXVXVXVXVX-X. 8.>.:.s AXAXAXAXAXAXAXAXAXAXAX",
"AX; } +.>.:.r.c % . r d 9.8.u.q._ l.I.I.I.I.I.K.<XVXVXwX<X<X0XVXVXVXVXVXVXVXVXVXVXVXVXVXVXVXwXa.8 r.>.<.j AXAXAXAXAXAXAXAXAXAXAX",
"AX; ..2.O./ f   -X$XW d l f e / z.T.U.!.!.U.U.I.^.qXqXgXhXgXgXqX0XBXVXVXVXVXVXVXVXVXVXVX0XwXlX#X% 0. .) h AXAXAXAXAXAXAXAXAXAXAX",
"AX: / ..) - >   fX6X~ A @ @ 3 / l.T.v.D.D.D.D.D.F.9X5XhXbXbXhX5X9XgXhXhXhXhXhXhXhXhXhXgX5X5XlX%X% 9.A < AXAXAXAXAXAXAXAXAXAXAXAX",
"AX5 : ; ; AXAXOXO.` i.A > : 7.t.u.;.l.<.4.<.4.-.W.MXVX1Xm.m./.NXNX5X^././././././.<X^.2XNXNX1X[ 8 9.A 5 AXAXAXAXAXAXAXAXAXAXAXAX",
"AXAXAXAXAXAXO VX7XW 9.x 6 : ..>.:.5.I.I.I.I.I.I.I.J.K.I.I.I.P.K.V.bXVXVXVXVXVXVXVXVXVXZXC.K.Y.a.8 C : AXAXAXAXAXAXAXAXAXAXAXAXAX",
"AXAXAXAXAXAXo CX3XQ F y.S 2 A 8.7.t.,.1.1.,.,.1.,.:.G.U.I.I.I.P.I.~.^.^.^.^.^.^.^.~.^.~.I.I.U.#.- q AXAXAXAXAXAXAXAXAXAXAXAXAXAX",
"AXAXAXAXAXAXO BX3XW F 7.7.2 A D A t.>.:.:.:.:.;.<.G.B.Z.N.B.N.N.B.Z.M.C.L.L.L.L.L.G.P.P.P.V.=.! < AXAXAXAXAXAXAXAXAXAXAXAXAXAXAX",
"AXAXAXAXAXAXO VXMX8XW F 7.0 e { r.8.>.:.:.:.:.;.1.!.gXlXhXhXlXhXhXhXlX9Xm.I.I.I.I.I.L.Z.J.gXjX#X  AXAXAXAXAXAXAXAXAXAXAXAXAXAXAX",
"AXAXAXAXAXAXO ;XVXkXQ u.9.5 + } :.r.o.X.:.;.3.,.v.I.VXVXVXVXVXVXVXVXVXbX2XB.J.J.J.N.<XwXwXVXVX;X  AXAXAXAXAXAXAXAXAXAXAXAXAXAXAX",
"AXAXAXAXAXAXAX  pXkXW.&.a d : { 2.X.t.l.l.l.z.v.E.I.NXVXVXVXVXVXVXVXVXVXMX2X2X2X5X1XgXVXVXVXMX$X  AXAXAXAXAXAXAXAXAXAXAXAXAXAXAX",
"AXAXAXAXAXAXAXAX  iXjX~ E 9.7 } :.:.4.G.U.!.U.I.I.I.bXNXMXNXMXNXCXmXCXmXBXVXVXVXBXVXVXVXVXVXW.W < AXAXAXAXAXAXAXAXAXAXAXAXAXAXAX",
"AXAXAXAXAXAXAXAXAXr   T VXj.& ; ^ >.>.:.G.U.I.I.I.I.I.~.I.~.E.E.h 9 r   @XVXVXVXVXVXVXVXVXVX#Xy : AXAXAXAXAXAXAXAXAXAXAXAXAXAXAX",
"AXAXAXAXAXAXAXAXAXAXAX@XVXy.a e ^ >.-.>.,.F.U.U.U.I.5.<.2.+.h h Z | @.( V @XNXVXVXVXVXVXVX,X/ O AXAXAXAXAXAXAXAXAXAXAXAXAXAXAXAX",
"AXAXAXAXAXAXAXAXAXAXAXAX%XdX'.& w / u.r.8.p.s.s.s.c.>.>.| s z x i.1.>.1.| { @X9X0X0X5X,X$X8.p AXAXAXAXAXAXAXAXAXAXAXAXAXAXAXAXAX",
"AXAXAXAXAXAXAXAXAXAXAXAX  NX,Xu 0 < l D 9.C C C 7._ i.i.c Z 9.8.>.>.>.>.>.-.W [ %.%.@.W i Z q AXAXAXAXAXAXAXAXAXAXAXAXAXAXAXAXAX",
"AXAXAXAXAXAXAXAXAXAXAXAXN sXW.@.7.+ > A x 7.9.0.7.C F D D 9.S 7.o.o.O.>.:.:.:.k p B C x x , AXAXAXAXAXAXAXAXAXAXAXAXAXAXAXAXAXAX",
"AXAXAXAXAXAXAXAXAXAXAXAXAX  ! 4.O.AXAX> @ l S A A 7.9.9.9.7.9.D F F  .:.+.1.:.2.k d l @ : AXAXAXAXAXAXAXAXAXAXAXAXAXAXAXAXAXAXAX",
"AXAXAXAXAXAXAXAXAXAXAXAXAXAX< < > AXAXAX2 2 2 > q 7.7.D S 7.7.9.D F S S t.:.1.1.k : 7 7 0 AXAXAXAXAXAXAXAXAXAXAXAXAXAXAXAXAXAXAX",
"AXAXAXAXAXAXAXAXAXAXAXAXAXAXAXAXAXAXAXAX@ x l @ > 6 5 7 2 f 0.9.0.d , f 0.9.8.s ; ^ 1.X.O.= AXAXAXAXAXAXAXAXAXAXAXAXAXAXAXAXAXAX",
"AXAXAXAXAXAXAXAXAXAXAXAXAXAXAXAXAXAXAX, x 7.S x A A A 6 ; > w w d 5 > 0 l 0.D ; ) ;.1.1.>.d AXAXAXAXAXAXAXAXAXAXAXAXAXAXAXAXAXAX",
"AXAXAXAXAXAXAXAXAXAXAXAXAXAXAXAXAXAXAX, S 7.7.S l 0.9. .| ( f l , 1 0 > q l 9.V o.>.:.;.i.w AXAXAXAXAXAXAXAXAXAXAXAXAXAXAXAXAXAX",
"AXAXAXAXAXAXAXAXAXAXAXAXAXAXAXAXAXAXAX, S 9.7.x @ l l { ..{ Z x 0 1 2 AXAX0 9.7.+.>.1.i.g 0 AXAXAXAXAXAXAXAXAXAXAXAXAXAXAXAXAXAX",
"AXAXAXAXAXAXAXAXAXAXAXAXAXAXAXAXAXAXAX, S 9.7.A q > : ; ; : @ : 1 AXAXAXAXq A 7. .O. .V : AXAXAXAXAXAXAXAXAXAXAXAXAXAXAXAXAXAXAX",
"AXAXAXAXAXAXAXAXAXAXAXAXAXAXAXAXAXAXAX, A 7.7.8.7.1 AXAXAXAXAXAXAXAXAXAXAXAX: x 7.d @ > AXAXAXAXAXAXAXAXAXAXAXAXAXAXAXAXAXAXAXAX",
"AXAXAXAXAXAXAXAXAXAXAXAXAXAXAXAXAXAXAXAX> Z i.>.+., AXAXAXAXAXAXAXAXAXAXAXAXAX5 6 6 2 AXAXAXAXAXAXAXAXAXAXAXAXAXAXAXAXAXAXAXAXAX",
"AXAXAXAXAXAXAXAXAXAXAXAXAXAXAXAXAXAXAXAXAXe s j s AXAXAXAXAXAXAXAXAXAXAXAXAXAXAXAXAXAXAXAXAXAXAXAXAXAXAXAXAXAXAXAXAXAXAXAXAXAXAX",
"AXAXAXAXAXAXAXAXAXAXAXAXAXAXAXAXAXAXAXAXAXAXAXAXAXAXAXAXAXAXAXAXAXAXAXAXAXAXAXAXAXAXAXAXAXAXAXAXAXAXAXAXAXAXAXAXAXAXAXAXAXAXAXAX",
"AXAXAXAXAXAXAXAXAXAXAXAXAXAXAXAXAXAXAXAXAXAXAXAXAXAXAXAXAXAXAXAXAXAXAXAXAXAXAXAXAXAXAXAXAXAXAXAXAXAXAXAXAXAXAXAXAXAXAXAXAXAXAXAX",
"AXAXAXAXAXAXAXAXAXAXAXAXAXAXAXAXAXAXAXAXAXAXAXAXAXAXAXAXAXAXAXAXAXAXAXAXAXAXAXAXAXAXAXAXAXAXAXAXAXAXAXAXAXAXAXAXAXAXAXAXAXAXAXAX",
"AXAXAXAXAXAXAXAXAXAXAXAXAXAXAXAXAXAXAXAXAXAXAXAXAXAXAXAXAXAXAXAXAXAXAXAXAXAXAXAXAXAXAXAXAXAXAXAXAXAXAXAXAXAXAXAXAXAXAXAXAXAXAXAX",
"AXAXAXAXAXAXAXAXAXAXAXAXAXAXAXAXAXAXAXAXAXAXAXAXAXAXAXAXAXAXAXAXAXAXAXAXAXAXAXAXAXAXAXAXAXAXAXAXAXAXAXAXAXAXAXAXAXAXAXAXAXAXAXAX",
"AXAXAXAXAXAXAXAXAXAXAXAXAXAXAXAXAXAXAXAXAXAXAXAXAXAXAXAXAXAXAXAXAXAXAXAXAXAXAXAXAXAXAXAXAXAXAXAXAXAXAXAXAXAXAXAXAXAXAXAXAXAXAXAX",
"AXAXAXAXAXAXAXAXAXAXAXAXAXAXAXAXAXAXAXAXAXAXAXAXAXAXAXAXAXAXAXAXAXAXAXAXAXAXAXAXAXAXAXAXAXAXAXAXAXAXAXAXAXAXAXAXAXAXAXAXAXAXAXAX",
"AXAXAXAXAXAXAXAXAXAXAXAXAXAXAXAXAXAXAXAXAXAXAXAXAXAXAXAXAXAXAXAXAXAXAXAXAXAXAXAXAXAXAXAXAXAXAXAXAXAXAXAXAXAXAXAXAXAXAXAXAXAXAXAX",
"AXAXAXAXAXAXAXAXAXAXAXAXAXAXAXAXAXAXAXAXAXAXAXAXAXAXAXAXAXAXAXAXAXAXAXAXAXAXAXAXAXAXAXAXAXAXAXAXAXAXAXAXAXAXAXAXAXAXAXAXAXAXAXAX",
"AXAXAXAXAXAXAXAXAXAXAXAXAXAXAXAXAXAXAXAXAXAXAXAXAXAXAXAXAXAXAXAXAXAXAXAXAXAXAXAXAXAXAXAXAXAXAXAXAXAXAXAXAXAXAXAXAXAXAXAXAXAXAXAX",
"AXAXAXAXAXAXAXAXAXAXAXAXAXAXAXAXAXAXAXAXAXAXAXAXAXAXAXAXAXAXAXAXAXAXAXAXAXAXAXAXAXAXAXAXAXAXAXAXAXAXAXAXAXAXAXAXAXAXAXAXAXAXAXAX"
};
