/* XPM */
static char *result[] = {
/* columns rows colors chars-per-pixel */
"64 74 247 2 ",
"   c #000000",
".  c #040603",
"X  c #001309",
"o  c #000118",
"O  c #00151D",
"+  c #001616",
"@  c #171C1D",
"#  c #2C0001",
"$  c #00290F",
"%  c #000323",
"&  c #000D24",
"*  c #000028",
"=  c #001523",
"-  c #001924",
";  c #011A2A",
":  c #091826",
">  c #191C26",
",  c #161B26",
"<  c #050336",
"1  c #251E28",
"2  c #2C1434",
"3  c #36092E",
"4  c #0E2B30",
"5  c #2B202B",
"6  c #24232C",
"7  c #34242A",
"8  c #392333",
"9  c #2C3236",
"0  c #53020A",
"q  c #73070C",
"w  c #460A2A",
"e  c #680630",
"r  c #48262A",
"t  c #592B29",
"y  c #463325",
"u  c #4A2738",
"i  c #5C2C3A",
"p  c #552A39",
"a  c #622D28",
"s  c #6B3129",
"d  c #6C313E",
"f  c #693237",
"g  c #75353B",
"h  c #6F3433",
"j  c #5A4A11",
"k  c #554333",
"l  c #4F4330",
"z  c #785339",
"x  c #68451A",
"c  c #373959",
"v  c #313A48",
"b  c #05374E",
"n  c #77094C",
"m  c #493353",
"M  c #762546",
"N  c #782E46",
"B  c #6B3141",
"V  c #653248",
"C  c #743444",
"Z  c #7B3645",
"A  c #7E3846",
"S  c #763549",
"D  c #7A3649",
"F  c #7E3949",
"G  c #6F2E4F",
"H  c #5F3960",
"J  c #0B5557",
"K  c #334C5B",
"L  c #4E5052",
"P  c #6E5058",
"I  c #534A6A",
"U  c #745474",
"Y  c #6D4E70",
"T  c #556B6D",
"R  c #75777A",
"E  c #6C6B70",
"W  c #960B05",
"Q  c #AA0F00",
"!  c #8E2511",
"~  c #AD2F08",
"^  c #843B2E",
"/  c #893C2C",
"(  c #963C2D",
")  c #883C34",
"_  c #99393D",
"`  c #AB3C2A",
"'  c #C43A00",
"]  c #C13D12",
"[  c #C10000",
"{  c #994334",
"}  c #94432A",
"|  c #A24632",
" . c #AB4A3E",
".. c #A74737",
"X. c #B44D3C",
"o. c #BA4F3A",
"O. c #B64C33",
"+. c #BB5137",
"@. c #AE492E",
"#. c #946439",
"$. c #B26336",
"%. c #B47A35",
"&. c #985902",
"*. c #C24619",
"=. c #CC4A00",
"-. c #C24829",
";. c #C34D31",
":. c #C55435",
">. c #CA5634",
",. c #CD5835",
"<. c #CB5D3A",
"1. c #C65738",
"2. c #CE5731",
"3. c #CB633C",
"4. c #CF6A3F",
"5. c #D47439",
"6. c #D9731A",
"7. c #813947",
"8. c #8C3D46",
"9. c #843A49",
"0. c #8B3D4A",
"q. c #923D43",
"w. c #83385B",
"e. c #AD176D",
"r. c #962B6E",
"t. c #AA3774",
"y. c #880053",
"u. c #9B4343",
"i. c #954145",
"p. c #97564C",
"a. c #A54742",
"s. c #AD5246",
"d. c #986943",
"f. c #AF6F4A",
"g. c #964C77",
"h. c #B7497B",
"j. c #B15176",
"k. c #956E6C",
"l. c #B46D69",
"z. c #CD6B41",
"x. c #C56547",
"c. c #D47747",
"v. c #C96A57",
"b. c #CC754C",
"n. c #CB6959",
"m. c #DF8400",
"M. c #E0880E",
"N. c #DA862E",
"B. c #E08C29",
"V. c #E18F37",
"C. c #E1903D",
"Z. c #BD8345",
"A. c #C7874E",
"S. c #DB854A",
"D. c #C98C53",
"F. c #DC8B53",
"G. c #D68953",
"H. c #DB9558",
"J. c #DB9257",
"K. c #E19242",
"L. c #E3944A",
"P. c #E29653",
"I. c #E49B5B",
"U. c #E79A58",
"Y. c #E1874F",
"T. c #EAA15E",
"R. c #D4877A",
"E. c #D78963",
"W. c #E49E64",
"Q. c #E4A16C",
"!. c #E8A364",
"~. c #E5A371",
"^. c #E9A875",
"/. c #F0A360",
"(. c #6C7A88",
"). c #B95588",
"_. c #B24F84",
"`. c #AD628A",
"'. c #C4588C",
"]. c #C75D92",
"[. c #D95A94",
"{. c #E45B9A",
"}. c #F5579F",
"|. c #D26198",
" X c #E9619E",
".X c #EC64A2",
"XX c #FC6AAB",
"oX c #F367A5",
"OX c #FA71AD",
"+X c #ED5FA0",
"@X c #6E8A90",
"#X c #87898B",
"$X c #8C9394",
"%X c #B0938E",
"&X c #8F9CA4",
"*X c #90AEB4",
"=X c #AAABAC",
"-X c #AAAFB4",
";X c #ADB1B2",
":X c #B6B7B9",
">X c #B1AEB2",
",X c #B09F9F",
"<X c #D09989",
"1X c #DEA298",
"2X c #E7AD83",
"3X c #EDB58E",
"4X c #E9B592",
"5X c #EBBB9D",
"6X c #EDB894",
"7X c #ECB294",
"8X c #D3B3AF",
"9X c #EBBEA2",
"0X c #E7BAB4",
"qX c #CC92B1",
"wX c #EFCBB5",
"eX c #DDC0BE",
"rX c #98BDC5",
"tX c #89B7C0",
"yX c #A7BEC5",
"uX c #9EC1C8",
"iX c #A5C6CC",
"pX c #B9D3D9",
"aX c #B1CDD3",
"sX c #C9C9CA",
"dX c #C7D7DA",
"fX c #D6D6D7",
"gX c #DDCAC8",
"hX c #F4D8C8",
"jX c #F4DED2",
"kX c #F3D5D1",
"lX c #ECD3CD",
"zX c #F6E5DC",
"xX c #F8E4D8",
"cX c #C7DDE1",
"vX c #D9E6E8",
"bX c #CCE0E4",
"nX c #E5E8E9",
"mX c #FAEBE4",
"MX c #F5E7E3",
"NX c #EAEEF0",
"BX c #ECF4F5",
"VX c #FCF5F3",
"CX c #FFFFFF",
"ZX c #F7F7F7",
"AX c #F7F1EE",
"SX c #E7DFE6",
"DX c None",
/* pixels */
"DXDXDXDXDXDXDXDXDXDXDXDXDXDXDXDXDXDXDXDXDXDXDXDXDXDXDXDXDXDXDXDXDXDXDXDXDXDXDXDXDXDXDXDXDXDXDXDXDXDXDXDXDXDXDXDXDXDXDXDXDXDXDXDX",
"DXDXDXDXDXDXDXDXDXDXDXDXDXDXDXDXDXDXDXDXDXDXDXDXDXDXDXDXDXDXDXDXDXDXDXDXDXDXDXDXDXDXDXDXDXDXDXDXDXDXDXDXDXDXDXDXDXDXDXDXDXDXDXDX",
"DXDXDXDXDXDXDXDXDXDXDXDXDXDXDXDXDXDXDXDXDXDXDXDXDXDXDXDXDXDXDXDXDXDXDXDXDXDXDXDXDXDXDXDXDXDXDXDXDXDXDXDXDXDXDXDXDXDXDXDXDXDXDXDX",
"DXDXDXDXDXDXDXDXDXDXDXDXDXDXDXDXDXDXDXDXDXDXDXDXDXDXDXDXDXDXDXDXDXDXDXDXDXDXDXDXDXDXDXDXDXDXDXDXDXDXDXDXDXDXDXDXDXDXDXDXDXDXDXDX",
"DXDXDXDXDXDXDXDXDXDXDXDXDXDXDXDXDXDXDXDXDXDXDXDXDXDXDXDXDXDXDXDXDXDXDXDXDXDXDXDXDXDXDXDXDXDXDXDXDXDXDXDXDXDXDXDXDXDXDXDXDXDXDXDX",
"DXDXDXDXDXDXDXDXDXDXDXDXDXDXDXDXDXDXDXDXDXDXDX- = & & & & & & & & & & = DXDXDXDXDXDXDXDXDXDXDXDXDXDXDXDXDXDXDXDXDXDXDXDXDXDXDXDX",
"DXDXDXDXDXDXDXDXDXDXDXDXDXDXDXDXDXDXDXDX& % & p _ | | ` | | | | | |  .( % % DXDXDXDXDXDXDXDXDXDXDXDXDXDXDXDXDXDXDXDXDXDXDXDXDXDX",
"DXDXDXDXDXDXDXDXDXDXDXDXDXDXDXDXDXDXDX8 g ^ ^ q.+.>.,.c.<.,.,.,.,.,.,.:.^ ) t DXDXDXDXDXDXDXDXDXDXDXDXDXDXDXDXDXDXDXDXDXDXDXDXDX",
"DXDXDXDXDXDXDXDXDXDXDXDXDXDXDXDXDX8 t Z X.2.,.3.3.+.4.I.4.;.:.:.:.:.:.:.>.,._ 8 r DXDXDXDXDXDXDXDXDXDXDXDXDXDXDXDXDXDXDXDXDXDXDX",
"DXDXDXDXDXDXDXDXDXDXDXDXDXDXDXO u 8.+.:.:.:.,.H.I.S.<.I.4.:.:.:.:.:.:.:.:.:.:.:.+.1 DXDXDXDXDXDXDXDXDXDXDXDXDXDXDXDXDXDXDXDXDXDX",
"DXDXDXDXDXDXDXDXDXDXDXDXDXDXO u u.o.:.>.:.:.1.I.!.G.;.4.1.+.:.:.:.;.;.;.;.;.;.;.;.o.t DXDXDXDXDXDXDXDXDXDXDXDXDXDXDXDXDXDXDXDXDX",
"DXDXDXDXDXDXDXDXDXDXDXDXDX1 p S a.>.:.>.:.:.:.c.S.z.:.;.:.;.;.+.;.c.F.S.S.F.c.G.c.,.@.a DXDXDXDXDXDXDXDXDXDXDXDXDXDXDXDXDXDXDXDX",
"DXDXDXDXDXDXDXDXDXDXDXDXDX> 7.F u.2.;.-.*.*.*.] ~ *.-.,.;.3.4.z.z.b.D.A.A.D.D.D.A.@.z.$.t DXDXDXDXDXDXDXDXDXDXDXDXDXDXDXDXDXDXDX",
"DXDXDXDXDXDXDXDXDXDXDXDXDX7 D F u.>.>.x.v.v.v.v.n.n.x.2.:.S.T.I.H.p.< 2 2 2 2 2 3 < D.Y.O.; DXDXDXDXDXDXDXDXDXDXDXDXDXDXDXDXDXDX",
"DXDXDXDXDXDXDXDXDXDXDXDXr A 7.S q.2.' jXCXCXVXVXVXVXMX~ S.I.T.T.j '..X{.{..X.X.XoX}.F %.G.o   sXCXCXDXDXDXDXDXDXDXDXDXDXDXDXDXDX",
"DXDXDXDXDXDXDXDXDXDXDXDX8 9.A u.;.x.&XZXBXdXcXCXCXCXCXxXQ.C.D.z b ].XX+Xr.e.t.t.r.g.'.j.j 9 sXCXCXCXCXDXDXDXDXDXDXDXDXDXDXDXDXDX",
"DXDXDXDXDXDXDXDXDXDXDXr V A D X.=.n.cXNXpX*XrXBXCXCXCXCXjX3XZ.o `..X{.].:XyX&X&X*X  h.).G 9 vXNXNXCXCXCXDXDXDXDXDXDXDXDXDXDXDXDX",
"DXDXDXDXDXDXDXDXDXDX= d 0.7.N O.o.<XCXaXrXpXpXCXCXCXCXCXCXwX=.G .XXX).&XCXCXbXbXCXR.$ j.{.4 *XtXdXCXCXCXCXDXDXDXDXDXDXDXDXDXDXDX",
"DXDXDXDXDXDXDXDXDXDXO f 9.7.S ~ %XpXCXaXbXCXCXCXCXCXCXCXCX-Xe oX.X}.qXaXCXCXdXpXCXCX#Xe.{.4 *XuXdXCXCXCXDXDXDXDXDXDXDXDXDXDXDXDX",
"DXDXDXDXDXDXDXDXDXDX% ) X.S M Q 1XZXCXZXCXCXZXE fXBXpXCXvX@Xn XXXXr.@XcXCXCX=X=XCXCX@Xe.{.- nXCXsXT aXCXDXDXDXDXDXDXDXDXDXDXDXDX",
"DXDXDXDXDXDXDXDXDX- / +.:. .f.! 8XCXCXCXCXCXCXsXNXvXuXCX&XJ g.oXh.w J $X>X:XE L ;X>XT G _.`.CXCXMX:XtXCXDXDXDXDXDXDXDXDXDXDXDXDX",
"DXDXDXDXDXDXDXDXDX; O.,.:.,.T.&.(.vXnXCXCXCXCXZXCXNXdXBXT n ]..X, X .                 v _.OXSXBXCXCXcXBXDXDXDXDXDXDXDXDXDXDXDXDX",
"DXDXDXDXDXDXDXDXDX- @.:.:.1.U.d.  4 tXNXCXCXCXCXCXCXBXuXJ t.XX{.p + > > > > , > , , O v _..XrXvXCXCXCXpXDXDXDXDXDXDXDXDXDXDXDXDX",
"DXDXDXDXDXDXDXDXDX- B  .2.1.I.d.  K iXiXvXCXCXCXCXNXiXiXK t.XX.Xm O > > , > > , > , , X w.OXyXaXiXiXaXR DXDXDXDXDXDXDXDXDXDXDXDX",
"DXDXDXDXDX    DXDX- B i.q.u.3.:.q < T *XcXcXcXcXcXpXuXT $ ).XX{.u + > > > > > > > > > X w. Xk.@XaXrXT 9   DXDXDXDXDXDXDXDXDXDXDX",
"DXDXDXDXDX;XfX-X  - B 9.S 7.b.S.G.d.  @X@X@X@X@X@X@X@X.   _.XX+Xp o > 6 > > > > , , , . w..Xw T @X@X    DXDXDXDXDXDXDXDXDXDXDXDX",
"DXDXDXDXo ZXCXgX0 @ B 0.A 9.G.P.P.F.h                 z $ h.XX{.p     . , , > , o   O X w.oXV   . . , DXDXDXDXDXDXDXDXDXDXDXDXDX",
"DXDXDXDXL NX0X[ O.5 B 0.7.9.o.;.:.:.<.s - 7 7 7 7 - z I.j h.XX.Xu 9 v 9 , , : 6 9 L 5 . w.oXV X , 6 DXDXDXDXDXDXDXDXDXDXDXDXDXDX",
"DXDXDX(.AX1Xz.O.7.1 B F S F o.>.:.:.:.+.O.3.H.J.S.N.N.V.x m )..X# sXCXfX      K yXBX#X  g.oXG X , DXDXDXDXDXDXDXDXDXDXDXDXDXDXDX",
"DXDXDX#XCXR.Q i.C - { X. .X.O.:.:.:.:.:.:.,.c.m.wXzXxXxXL o ).oX  yXZXCXfXfXfXfXBXCX$Xy.|._.    9 DXDXDXDXDXDXDXDXDXDXDXDXDXDXDX",
"DXDXDX#XCXR.! S Z - @.,.>.>.c.<.;.;.:.+.;.:.b.9XVXCXCXCXsXR w.].h.(.dXCXCXCXCXCXZXfXT t..XK =XR   DXDXDXDXDXDXDXDXDXDXDXDXDXDXDX",
"DXDXDX#XCXR.Q F Z - @.,.:.1.I.S.,.3.3.3.<.5.~.CXCXCXCXCXCX:X  U  Xe.>XZXNXAXNXNXSXH w ).].4 CXyX  DXDXDXDXDXDXDXDXDXDXDXDXDXDXDX",
"DXDXDX#XCXR.Q 7.A ; @.>.:.1.H.I.H.I.I.H.I.P.Q.VXCXCXCXCXCX;X  Y Y [.|.Y U U U U Y - [.].m v ZX:X  DXDXDXDXDXDXDXDXDXDXDXDXDXDXDX",
"DXDXDX$XCXVX,Xq Z > g s.>.,.P.I.T.H.T.T.T.P.Q.VXCXmX2X4X5X~.f.< I `.). X{.{.|.{.{.{.XX_.9 D.5XZ.  DXDXDXDXDXDXDXDXDXDXDXDXDXDXDX",
"DXDXDXE :XCXeXW S > B q.a.a.H.I.T.H.T.H.T.P.~.CXMX4XB.C.C.U.H.f.v m _.).`.].].].].]._.p.Z.T.C.#.% DXDXDXDXDXDXDXDXDXDXDXDXDXDXDX",
"DXDXDXDX  fX1X~ S > B 7.S 7.S.F.F.F.F.F.G.S.!.xX4XM.I.I.I.H.I.I.#.H c c c c c c c c y Z./.U.T.d.o DXDXDXDXDXDXDXDXDXDXDXDXDXDXDX",
"DXDXDXDX> 0 ` s.Z > g 7.A 9.+.;.;.;.;.;.-.z.I.S.P.T.I.I.I.H.I.I./.#.@ y y y y y y 7 A.T.U.U.U.#.o DXDXDXDXDXDXDXDXDXDXDXDXDXDXDX",
"DXDXDXDXDX  e s.;.1 d 9.A 7.+.>.1.:.1.:.:.:.1.' 5.K.K.C.K.K.L.I.I.H.J.J.H.H.H.H.H.J.I.L.K.K.=.s ; DXDXDXDXDXDXDXDXDXDXDXDXDXDXDX",
"DXDXDXDX  fX&X# h d A D 9.X.>.:.:.1.:.:.:.-.x.lXMXzXzXzXzXmXhXm.B.P.W.I.T.I.W.T.I.I.m.wXmXmXMX%X  DXDXDXDXDXDXDXDXDXDXDXDXDXDXDX",
"DXDXDXE aXCX8X0 : 7.7.q.X.>.} O.2.1.;.;.-.-.E.CXCXCXCXCXCXCXVXwXhX^.B.K.K.K.K.K.C.V.5XmXCXCXCX;X  DXDXDXDXDXDXDXDXDXDXDXDXDXDXDX",
"DXDXDX$XCXZX1XQ ; F D  .>.+.a ( @.+.4.4.3.5.^.VXCXCXCXCXCXCXCXCXCXhX2X7X4X6X4X4X4X3XAXCXCXCXCX=X  DXDXDXDXDXDXDXDXDXDXDXDXDXDXDX",
"DXDXDX#XCXR.' | ; A D  .>.:.>.^ o k I.I.I.H.Q.VXCXCXCXCXCXCXCXCXCXCXCXCXCXCXCXCXCXCXCXCXCXCXCX=X  DXDXDXDXDXDXDXDXDXDXDXDXDXDXDX",
"DXDXDX#XCXR.~ d 1 A S  .>.:.:.+...V k k k k k L vXAXI.~.P.xXCXCXCXCXCXCXCXCXCXCXCXCXCXCXCXCX5X#.  DXDXDXDXDXDXDXDXDXDXDXDXDXDXDX",
"DXDXDX#XCXn.W V : 7.D  .2.:.:.>.+.a.( ( ( } ( . <XwXzXxXxXwX5XwXCXCXCXCXCXCXCXCXCXCXCXzX4XwXxX%X  DXDXDXDXDXDXDXDXDXDXDXDXDXDXDX",
"DXDXDX#XCXeXl.e p f S u.o.>.:.:.:.>.,.,.>.,.>.  <XhXmXMXMXhX6XwXkXjXjXjXjXjXjXjXjXjXjXwXwXwXmX,X  DXDXDXDXDXDXDXDXDXDXDXDXDXDXDX",
"DXDXDXR ZXCX8Xq A O d F q.1.:.:.:.:.:.:.>.:.O.0 fXxXm.V.6.hXCXVX2X!.Q.~.~.~.Q.Q.~.~.P.hXCXAX^.&.* DXDXDXDXDXDXDXDXDXDXDXDXDXDXDX",
"DXDXDXDXL ZX0XQ C : C 7.i.:.1.:.:.:.:.:.,.@.7 J.!.!.I.I.L.T.I.2XZXCXCXCXCXCXCXCXCXCXCXhXK.W.T.d.o DXDXDXDXDXDXDXDXDXDXDXDXDXDXDX",
"DXDXDXDXDXE SXkX~ d u 5 i u.1.,.,.:.u.u.h s @.3.S.P.I.I.I.H.P.I.6X5X5X5X5X5X5X5X5X5X5X2XK.P./.d.o DXDXDXDXDXDXDXDXDXDXDXDXDXDXDX",
"DXDXDXDXDXDX*X8X=.Q 0 8 f r / / / ^ u 8 f | ,.b.S.V.V.V.C.C.C.V.m.m.B.K.C.K.C.C.C.C.V.P.H.V.6./ * DXDXDXDXDXDXDXDXDXDXDXDXDXDXDX",
"DXDXDXDXDXDXDX0 +.1XP 3 P s 1 r a t a t | >.1.P.3XwX5X5X5X5X9X5X5X9X2XL.I.H.I.I.I.I.H.L.Q.6X1Xk.  DXDXDXDXDXDXDXDXDXDXDXDXDXDXDX",
"DXDXDXDXDXDXDXDXR CX$X  s 1.q.X.,.>.>.>.:.:.<.N.zXCXCXCXCXCXCXCXCXCXjXL.I.I.I.I.I.P.!.I.9XCXCX;X  DXDXDXDXDXDXDXDXDXDXDXDXDXDXDX",
"DXDXDXDXDXDX  ,XZXR.h o s :.:.i._ ;.;.;.-.3.I.C.xXCXCXCXCXCXCXCXCXCXCXzXV.V.C.K.V.B.xXCXVXCXCX;X  DXDXDXDXDXDXDXDXDXDXDXDXDXDXDX",
"DXDXDXDXDXDX  yXCXv.! 2 a >.>.O.x.P.G.F.F.F.I.C.MXCXCXCXCXCXCXCXCXCXCXCXxXzXzXxXxXxXZXCXCXCX0Xp.  DXDXDXDXDXDXDXDXDXDXDXDXDXDXDX",
"DXDXDXDXDXDXDX$XsXs.0.p r | :.;.z.F.I.!.I.I.I.L.wXxXhXjXjXjXjXjXCXCXCXCXCXCXCXCXCXCXCXCXCXCXl.q ; DXDXDXDXDXDXDXDXDXDXDXDXDXDXDX",
"DXDXDXDXDXDXDXDX  8.0.i = : O.,.;.1.F.I.I.I.I.I.C.B.6.N.B.C.M.I.mXAXVXCXCXCXCXCXCXCXCXCXCXMXk.# - DXDXDXDXDXDXDXDXDXDXDXDXDXDXDX",
"DXDXDXDXDXDXDXDXr :.a.p O 1 O.>.:.:.>.J.I.I.I.U.z.;.:.:.F.I.I.I.I.V.wXCXCXCXCXCXCXCXCXCXMX*.r DXDXDXDXDXDXDXDXDXDXDXDXDXDXDXDXDX",
"DXDXDXDXDXDXDXDXDXt +.2.@.; t ) i.8.q.p.p.p.p.4.>.;.>.:.3.3.c./.U.U.~.3X3X3X3X3X3X3X<X%Xk.q.r DXDXDXDXDXDXDXDXDXDXDXDXDXDXDXDXDX",
"DXDXDXDXDXDXDXDXDXDXh { ^ ; ; 5 B 9.S D N M N _ a.a...a.u._ s.f.f.f.f.$.$.$.$.$.$.$.~ W e V 5 DXDXDXDXDXDXDXDXDXDXDXDXDXDXDXDXDX",
"DXDXDXDXDXDXDXDXDXDXDX% & > > = r C 7.7.9.7.7.D S S N i Z 7.Z M N M M M M M M M M M S 8.) & DXDXDXDXDXDXDXDXDXDXDXDXDXDXDXDXDXDX",
"DXDXDXDXDXDXDXDXDXDXDXDXDXDXDXDXDX5 Z 7.7.7.7.8.8.8.7.1 d A D A 7.A A A Z Z Z Z D 7.F X.O.> DXDXDXDXDXDXDXDXDXDXDXDXDXDXDXDXDXDX",
"DXDXDXDXDXDXDXDXDXDXDXDXDXDX- - : > 1 C 0.F A +.:.:.X.A 8 1 1 5 5 5 5 5 5 5 1 : 7 S X.>.X.C 7 DXDXDXDXDXDXDXDXDXDXDXDXDXDXDXDXDX",
"DXDXDXDXDXDXDXDXDXDXDXDXDX1 d Z p O O 7 B i.+.:.:.:.1.o.t = DXDXDXDXDXDX, - i g g X.:.>.1.X.r DXDXDXDXDXDXDXDXDXDXDXDXDXDXDXDXDX",
"DXDXDXDXDXDXDXDXDXDXDXDXDX1 Z 0.Z i i @ , C  .:.:.:.:.,.f DXDXDXDXDXDXDX> - p C i.a.:.:.:.:.C 2 DXDXDXDXDXDXDXDXDXDXDXDXDXDXDXDX",
"DXDXDXDXDXDXDXDXDXDXDXDXDX6 Z 7.7.9.9.p r h i.:.1.:.:.o.a DXDXDXDXDXDXDXDX> O r Z D a.:.:.:.a.f O DXDXDXDXDXDXDXDXDXDXDXDXDXDXDX",
"DXDXDXDXDXDXDXDXDXDXDXDXDX1 C 9.9.F 7.S  .>.>.:.:.:.+.7.8 DXDXDXDXDXDXDXDXDXDXDX5 D S  .>.:.>.^ % DXDXDXDXDXDXDXDXDXDXDXDXDXDXDX",
"DXDXDXDXDXDXDXDXDXDXDXDXDXDX; ..| = 7 ; { <.,.>.2.o.Z 8 DXDXDXDXDXDXDXDXDXDXDXDXDX7 S 7.u.>.,...p - DXDXDXDXDXDXDXDXDXDXDXDXDXDX",
"DXDXDXDXDXDXDXDXDXDXDXDXDXDX& O.>.| 1 = a ) ^ ^ ^ g u DXDXDXDXDXDXDXDXDXDXDXDXDXDXDXr B 8.u.a.q.B O & % DXDXDXDXDXDXDXDXDXDXDXDX",
"DXDXDXDXDXDXDXDXDXDXDXDXDXDXDX^ O.| 1 : - % % % % = DXDXDXDXDXDXDXDXDXDXDXDXDXDXDXDXDXu S F S 7.V - ^ { s DXDXDXDXDXDXDXDXDXDXDX",
"DXDXDXDXDXDXDXDXDXDXDXDXDXDXDX& & = , DXDXDXDXDXDXDXDXDXDXDXDXDXDXDXDXDXDXDXDXDXDXDXDXDX7 D 7.9.d s >.,.{ % DXDXDXDXDXDXDXDXDXDX",
"DXDXDXDXDXDXDXDXDXDXDXDXDXDXDXDXDXDXDXDXDXDXDXDXDXDXDXDXDXDXDXDXDXDXDXDXDXDXDXDXDXDXDXDXDX1 Z F a.>.:.u.i - DXDXDXDXDXDXDXDXDXDX",
"DXDXDXDXDXDXDXDXDXDXDXDXDXDXDXDXDXDXDXDXDXDXDXDXDXDXDXDXDXDXDXDXDXDXDXDXDXDXDXDXDXDXDXDXDX6 A 0.8.u.u.V 6 DXDXDXDXDXDXDXDXDXDXDX",
"DXDXDXDXDXDXDXDXDXDXDXDXDXDXDXDXDXDXDXDXDXDXDXDXDXDXDXDXDXDXDXDXDXDXDXDXDXDXDXDXDXDXDXDXDXDXp i i p p 1 DXDXDXDXDXDXDXDXDXDXDXDX",
"DXDXDXDXDXDXDXDXDXDXDXDXDXDXDXDXDXDXDXDXDXDXDXDXDXDXDXDXDXDXDXDXDXDXDXDXDXDXDXDXDXDXDXDXDXDX= O - = = DXDXDXDXDXDXDXDXDXDXDXDXDX",
"DXDXDXDXDXDXDXDXDXDXDXDXDXDXDXDXDXDXDXDXDXDXDXDXDXDXDXDXDXDXDXDXDXDXDXDXDXDXDXDXDXDXDXDXDXDXDXDXDXDXDXDXDXDXDXDXDXDXDXDXDXDXDXDX"
};
