/* XPM */
static char *result[] = {
/* columns rows colors chars-per-pixel */
"64 76 243 2 ",
"   c #000000",
".  c #00020A",
"X  c #020419",
"o  c #00151E",
"O  c #001C1C",
"+  c #110C0A",
"@  c #30050A",
"#  c #000723",
"$  c #001523",
"%  c #011923",
"&  c #091B27",
"*  c #141B26",
"=  c #191C26",
"-  c #181B27",
";  c #000934",
":  c #251E28",
">  c #102D32",
",  c #29212A",
"<  c #33222D",
"1  c #3B2829",
"2  c #382332",
"3  c #272C34",
"4  c #192F0C",
"5  c #480000",
"6  c #580600",
"7  c #6D0606",
"8  c #51340F",
"9  c #530F32",
"0  c #650D22",
"q  c #48262A",
"w  c #4A2632",
"e  c #4C2934",
"r  c #472634",
"t  c #5E2E3A",
"y  c #542A37",
"u  c #542E2E",
"i  c #6A3129",
"p  c #632E3C",
"a  c #69333E",
"s  c #783639",
"d  c #703128",
"f  c #6A261A",
"g  c #2D403F",
"h  c #534725",
"j  c #79553A",
"k  c #724C2F",
"l  c #6F471C",
"z  c #000647",
"x  c #363950",
"c  c #162143",
"v  c #5A154D",
"b  c #480746",
"n  c #403D5C",
"m  c #772A46",
"M  c #722646",
"N  c #6D3242",
"B  c #673243",
"V  c #743443",
"C  c #7A3644",
"Z  c #7E3847",
"A  c #7B3748",
"S  c #7D3849",
"D  c #753449",
"F  c #663248",
"G  c #543E61",
"H  c #064B4D",
"J  c #365055",
"K  c #2F6B66",
"L  c #444549",
"P  c #4B5256",
"I  c #724D53",
"U  c #505063",
"Y  c #755877",
"T  c #6C5170",
"R  c #586767",
"E  c #566F75",
"W  c #63676A",
"Q  c #787172",
"!  c #8B0000",
"~  c #A80D00",
"^  c #BA2F00",
"/  c #84392C",
"(  c #8F3532",
")  c #9D2A2B",
"_  c #C23A01",
"`  c #CA2E00",
"'  c #9A4A1C",
"]  c #98432E",
"[  c #9C4239",
"{  c #AC4A3E",
"}  c #A84638",
"|  c #B44D33",
" . c #B34C3C",
".. c #B94E37",
"X. c #BC513A",
"o. c #BA5134",
"O. c #B4442B",
"+. c #B5673D",
"@. c #9F5C26",
"#. c #C6490E",
"$. c #C4492D",
"%. c #C34D32",
"&. c #C94F31",
"*. c #C55335",
"=. c #CA5634",
"-. c #CB5A34",
";. c #C95D3A",
":. c #C55739",
">. c #CD5732",
",. c #C67323",
"<. c #CA633C",
"1. c #D17236",
"2. c #C6721A",
"3. c #8B0656",
"4. c #823947",
"5. c #843A49",
"6. c #8A3C48",
"7. c #8B3A49",
"8. c #8A0F66",
"9. c #90386D",
"0. c #A73770",
"q. c #994444",
"w. c #8F5050",
"e. c #A54742",
"r. c #B05949",
"t. c #8D6549",
"y. c #AD7B44",
"u. c #B56D4B",
"i. c #974E7A",
"p. c #A3486E",
"a. c #8B7471",
"s. c #AF7370",
"d. c #CD6943",
"f. c #CD7245",
"g. c #D27445",
"h. c #D47A49",
"j. c #D87A48",
"k. c #CB6A55",
"l. c #CC7567",
"z. c #C15B46",
"x. c #DF8602",
"c. c #E0880E",
"v. c #D98936",
"b. c #DB842D",
"n. c #E08C2A",
"m. c #E18E33",
"M. c #E18F39",
"N. c #E2913B",
"B. c #B98149",
"V. c #DD874B",
"C. c #C98755",
"Z. c #DC8C53",
"A. c #D88B52",
"S. c #D59156",
"D. c #DC9356",
"F. c #C9864C",
"G. c #E29244",
"H. c #E2944B",
"J. c #E89848",
"K. c #E28F54",
"L. c #E29553",
"P. c #E39956",
"I. c #E49B5B",
"U. c #E99E5D",
"Y. c #E49758",
"T. c #E8A15D",
"R. c #D1887C",
"E. c #D78F67",
"W. c #E39D64",
"Q. c #E7A265",
"!. c #E7AA7D",
"~. c #E6A677",
"^. c #657A80",
"/. c #B25285",
"(. c #B06E87",
"). c #CB4685",
"_. c #CB568C",
"`. c #C85D92",
"'. c #DB5B95",
"]. c #DD5997",
"[. c #D24D8B",
"{. c #E45A99",
"}. c #D5629A",
"|. c #EA629E",
" X c #EC65A2",
".X c #FD6BAB",
"XX c #F366A4",
"oX c #EE79AD",
"OX c #68858C",
"+X c #778E94",
"@X c #7FB0BA",
"#X c #86898A",
"$X c #959798",
"%X c #8C9092",
"&X c #B58F98",
"*X c #8BB3BB",
"=X c #94B0B7",
"-X c #A7AAAB",
";X c #B4B6B7",
":X c #AEB3B8",
">X c #AD9FAB",
",X c #D7988B",
"<X c #DDA49C",
"1X c #E7AC82",
"2X c #E8AF86",
"3X c #E8B18B",
"4X c #EBB58B",
"5X c #ECBA99",
"6X c #EEAE93",
"7X c #D5B6AE",
"8X c #E9BCA6",
"9X c #E884AC",
"0X c #EDC4AA",
"qX c #EFCDB9",
"wX c #EDC8B5",
"eX c #F2CEB8",
"rX c #F1D1BE",
"tX c #9ABDC5",
"yX c #A4C4CB",
"uX c #A9C6CC",
"iX c #B9D4DA",
"pX c #B3CBD0",
"aX c #9AC0C8",
"sX c #C4D9DD",
"dX c #D4D4D5",
"fX c #CEC9CC",
"gX c #F2D4C3",
"hX c #F3D7CD",
"jX c #EFD8D1",
"kX c #F6E3D9",
"lX c #D2DFE1",
"zX c #D7E4E7",
"xX c #CAE4E8",
"cX c #E6EAEB",
"vX c #F9EBE4",
"bX c #F6ECE9",
"nX c #FBF2ED",
"mX c #F3F3F3",
"MX c #FDF9F7",
"NX c #FFFEFE",
"BX c #F9F7F6",
"VX c #EBF3F4",
"CX c None",
/* pixels */
"CXCXCXCXCXCXCXCXCXCXCXCXCXCXCXCXCXCXCXCXCXCXCXCXCXCXCXCXCXCXCXCXCXCXCXCXCXCXCXCXCXCXCXCXCXCXCXCXCXCXCXCXCXCXCXCXCXCXCXCXCXCXCXCX",
"CXCXCXCXCXCXCXCXCXCXCXCXCXCXCXCXCXCXCXCXCXCXCXCXCXCXCXCXCXCXCXCXCXCXCXCXCXCXCXCXCXCXCXCXCXCXCXCXCXCXCXCXCXCXCXCXCXCXCXCXCXCXCXCX",
"CXCXCXCXCXCXCXCXCXCXCXCXCXCXCXCXCXCXCXCXCXCXCXCXCXCXCXCXCXCXCXCXCXCXCXCXCXCXCXCXCXCXCXCXCXCXCXCXCXCXCXCXCXCXCXCXCXCXCXCXCXCXCXCX",
"CXCXCXCXCXCXCXCXCXCXCXCXCXCXCXCXCXCXCXCXCXCXCXCXCXCXCXCXCXCXCXCXCXCXCXCXCXCXCXCXCXCXCXCXCXCXCXCXCXCXCXCXCXCXCXCXCXCXCXCXCXCXCXCX",
"CXCXCXCXCXCXCXCXCXCXCXCXCXCXCXCXCXCXCXCXCXCXCXCXCXCXCX- * * * * * * * * * * - * CXCXCXCXCXCXCXCXCXCXCXCXCXCXCXCXCXCXCXCXCXCXCXCX",
"CXCXCXCXCXCXCXCXCXCXCXCXCXCXCXCXCXCXCXCXCXCXCX% $ # $ N } ..| O.| | | | | | X.] # # CXCXCXCXCXCXCXCXCXCXCXCXCXCXCXCXCXCXCXCXCXCX",
"CXCXCXCXCXCXCXCXCXCXCXCXCXCXCXCXCXCXCXCXCXo # e ( [ } e.%.*.d.j.;.*.=.=.=.-.=.X.] } u X CXCXCXCXCXCXCXCXCXCXCXCXCXCXCXCXCXCXCXCX",
"CXCXCXCXCXCXCXCXCXCXCXCXCXCXCXCXCXCXCXCX< t s q.:.=.-.1.f.:.g.U.;.&.*.*.:.*.*.*.-.-.( s i CXCXCXCXCXCXCXCXCXCXCXCXCXCXCXCXCXCXCX",
"CXCXCXCXCXCXCXCXCXCXCXCXCXCXCXCXCXCXCX% B e.=.-.*.*.<.I.T.g.<.D.;.*.*.*.*.*.*.*.*.:.=.=.o.< CXCXCXCXCXCXCXCXCXCXCXCXCXCXCXCXCXCX",
"CXCXCXCXCXCXCXCXCXCXCXCXCXCXCXCXCXCX$ p e.*.*.*.*.=.<.I.Q.h.*.;.*.*.*.*.*.%.%.%.%.%.%.&.%.o.1 CXCXCXCXCXCXCXCXCXCXCXCXCXCXCXCXCX",
"CXCXCXCXCXCXCXCXCXCXCXCXCXCXCXCXCX< a D e.-.*.*.*.*.<.f.g.<.%.&.*.%.%.$.&.Z.K.K.K.D.K.K.V.*.O.u CXCXCXCXCXCXCXCXCXCXCXCXCXCXCXCX",
"CXCXCXCXCXCXCXCXCXCXCXCXCXCXCXCXCX2 6.S { =.*._ #.^ ^ ` ^ ^ #.=.%.d.h.h.h.u.y.y.y.y.y.B.+.' j.+.0 CXCXCXCXCXCXCXCXCXCXCXCXCXCXCX",
"CXCXCXCXCXCXCXCXCXCXCXCXCXCXCXCXCXe 4.D { &.*.R.R.R.R.R.R.R.l.O.;.Z.Q.U.S.I b v v v v v v v C.A.o.# CXCXCXCXCXCXCXCXCXCXCXCXCXCX",
"CXCXCXCXCXCXCXCXCXCXCXCXCXCXCXo y 5.4.D { #.k.VXMXNXNXNXNXNXjX#.Y.I.U.C.: ].XXXXXXXXXX XXXXXv B.B.X   cXNXNXCXCXCXCXCXCXCXCXCXCX",
"CXCXCXCXCXCXCXCXCXCXCXCXCXCXCXo y 5.Z } #.s.:XNXzXuXsXNXNXNXNXkXL.J.F.h n |..X].M 8.0.9.8.S |.p.  R cXNXNXNXNXCXCXCXCXCXCXCXCXCX",
"CXCXCXCXCXCXCXCXCXCXCXCXCXCXCXy V 5.Z  .` ,XcXzXuX*XuXNXNXNXNXNXkX4X@.; _.XX).&XfXfX=X:X:X. 0./.8.R zXzXVXNXNXNXCXCXCXCXCXCXCXCX",
"CXCXCXCXCXCXCXCXCXCXCXCXCXCX% N 6.Z 4...X.7XNXaXpXiXxXNXNXNXNXNXNX8X' 0..X.X/.uXNXNXsXzXBX#X4 )._.H tX@XzXNXNXNXCXCXCXCXCXCXCXCX",
"CXCXCXCXCXCXCXCXCXCXCXCXCXCXo s 6.4.4.^ &XxXNXpXcXNXNXBXNXNXNXNXNX+X3..X|.{.:XxXNXNXpXlXNXVXR ).l.H yXtXlXNXNXNXCXCXCXCXCXCXCXCX",
"CXCXCXCXCXCXCXCXCXCXCXCXCXCX# }  .V M ~ wXNXNXBXMXNXcXJ cXzXsXNXiXK 0..XXX3.+XxXNXNX#X;XNXNXR ).0.K mXMX;XP iXNXCXCXCXCXCXCXCXCX",
"CXCXCXCXCXCXCXCXCXCXCXCXCX, ( =.X.r.C.! fXNXNXNXNXNXBXfXMXsXiXNX+XH p.|.9.@ J +X$X-XL W -X$Xx I /.oXNXNXbXuXtXNXCXCXCXCXCXCXCXCX",
"CXCXCXCXCXCXCXCXCXCXCXCXCX< *.=.&.1.U.8 +XlXzXNXNXNXNXNXNXcXxXzX3 9.'.'.  O         X         x /.oXzXNXNXNXxXVXCXCXCXCXCXCXCXCX",
"CXCXCXCXCXCXCXCXCXCXCXCXCX: | *.&.<.P.j   J yXVXNXNXNXNXNXNXcX*XH [..X'.% O = = = = = = = = O J /.oXtXcXBXBXBXyXCXCXCXCXCXCXCXCX",
"CXCXCXCXCXCXCXCXCXCXCXCXCX: V r.&.<.U.j   E yXaXVXNXNXNXNXzXaXaXH )..X'.% % = = = = = = = = =   0.oXuXyXyXaXaXP CXCXCXCXCXCXCXCX",
"CXCXCXCXCXCXCXCXCXCXCXCXCX: V q.q.q.<.&.0 ; E aXiXsXsXiXiXiX*XU O _..X'.% O * = = - - - = = =   0.|.R =XiXtXP > CXCXCXCXCXCXCXCX",
"CXCXCXCXCXCXCXCXCXCXCX  & , A S m q.h.V.h.t.  OX+XOXOXOXOX+XE .   _..X'.% % - - = = = - - - =   p.{.+ ^.+X^.  X CXCXCXCXCXCXCXCX",
"CXCXCXCXCXCXCXCXCXCXOXR.6 - C S C w.S.D.Y.F.f               @ @.+ _..X'.%     . = - = + .   *   p.{.2       , CXCXCXCXCXCXCXCXCX",
"CXCXCXCXCXCXCXCXCX: VXjX~ $ V 4.Z 6.%.%.%.*.*.u = 1 1 q 1 $ t.I.4 _..X].O g L x * * * > x L ,   p.XX2 O = = CXCXCXCXCXCXCXCXCXCX",
"CXCXCXCXCXCXCXCXR cXNXfX7 = V Z D 6.*.*.*.*.*.o.| f.I.S.v.b.v.v.8 U `.{., cXMXfX      E pXmXW ; /. X2 % = CXCXCXCXCXCXCXCXCXCXCX",
"CXCXCXCXCXCXCXCXL NXjXs.9 : }  . . .o.*.*.*.*.:.*.<.g.m.gXkXkXjX  z }.{.+ pXNXBXfXdXdXlXVXNXW 0.}./.    CXCXCXCXCXCXCXCXCXCXCXCX",
"CXCXCXCXCXCXCXQ ;XNX,X~ N : %.=.=.-.g.;.%.%.%.%.o.>.S.0XNXNXNXNX;XW i._.p.OXzXNXNXNXNXNXNXdXH [.'.J -XR CXCXCXCXCXCXCXCXCXCXCXCX",
"CXCXCXCXCXCX  :XNXnX,X~ B : o.=.%.<.I.g.;.<.<.<.=.1.4XNXNXNXNXNXNX$X  i. X8.fXmXVXVXmXmXdXb b `.0.R NX$XCXCXCXCXCXCXCXCXCXCXCXCX",
"CXCXCXCXCXCX  -XNXl.( 5.M : o.&.*.<.D.I.Y.Y.Y.I.P.G.4XNXNXNXNXNXNX$X# T Y |.(.T Y Y Y Y T = {.(.b W NX%XCXCXCXCXCXCXCXCXCXCXCXCX",
"CXCXCXCXCXCX  :XMXz.) S s = 4...>.<.D.I.I.I.I.I.U.G.3XNXNXkX3X5X5XW.t.; T /./.{.{.{.{.{.].]..X9.h W.5Xt.CXCXCXCXCXCXCXCXCXCXCXCX",
"CXCXCXCXCXCX  -XMXo.) D V = V q.} r.U.U.T.I.T.I.I.H.3XNXkX3Xc.N.G.I.S.t.x G /.`.`.`.`.`.`.`./.w.C.U.G.j CXCXCXCXCXCXCXCXCXCXCXCX",
"CXCXCXCXCXCX  -XNX<Xr.4.N - C S M w.A.Z.Z.Z.A.A.A.V.1XvX~.v.I.I.I.D.U.D.k U G n J x x x n P h F.U.I.I.j CXCXCXCXCXCXCXCXCXCXCXCX",
"CXCXCXCXCXCX  >XNXNX<X~ N - V S A ( *.*.*.*.%.*.$.g.U.H.P.Y.Y.Y.I.I.I.I.U.k $ < 1 1 1 1 , 1 C.W.I.I.Y.j CXCXCXCXCXCXCXCXCXCXCXCX",
"CXCXCXCXCXCXCXCX%XNX<X` } % $ B A q.X.*.*.*.*.*.*.<.;.^ b.M.M.v.M.m.H.I.Y.Z.Z.S.S.S.S.S.S.S.I.H.N.m.#.f CXCXCXCXCXCXCXCXCXCXCXCX",
"CXCXCXCXCXCXCXCX< >Xs.( d $ ] | q.5.*.*.*.*.=.*.*._ l.jXkXkXkXkXkXkX0Xx.M.Y.Q.I.U.U.U.U.I.U.x.0XkXkXjXa.CXCXCXCXCXCXCXCXCXCXCXCX",
"CXCXCXCXCXCXCXCX+ @ 0 < $ y *.-...q.*.*.%.%.%.o.$.#.,XNXNXNXNXNXNXNXvX0X0XQ.N.H.H.H.H.H.G.L.5XnXNXNXNX%XCXCXCXCXCXCXCXCXCXCXCXCX",
"CXCXCXCXCXCXCXCXCXW t - r q.X.=.=.*.*.<.<.<.<.<.-.1.4XNXNXNXNXNXNXNXNXNXNX8X~.1X1X1X!.!.!.3XNXNXNXNXNX%XCXCXCXCXCXCXCXCXCXCXCXCX",
"CXCXCXCXCXCXCXCXP BX<X! u *.*.*.*.*.%.Z.I.I.I.Y.Y.G.3XNXNXNXNXNXNXNXNXNXNXNXMXNXMXNXMXNXNXMXNXNXNXNXMX#XCXCXCXCXCXCXCXCXCXCXCXCX",
"CXCXCXCXCXCXCX%XVXNX<X! q *.*.*.*.*.*.;.A.I.I.I.I.J.3XNXNXhX~.3X!.nXNXNXNXNXNXNXNXNXNXNXNXNXNXNXNXNX4XI . = CXCXCXCXCXCXCXCXCXCX",
"CXCXCXCXCXCX  :XNXgXs.7 s =.*.*.*.*.=.$.V.U.I.Q.I.P.~.qXrXrXgXgXgXrXqXhXNXNXNXNXNXNXNXNXNXNXNXkXqXrXgXa.  % CXCXCXCXCXCXCXCXCXCX",
"CXCXCXCXCXCX  -XNX#.5 y e.*.*.=.*...X. .f.Z.Z.A.Z.A.D.3X1XhXMXnXMX0X~.8XvXvXvXvXvXvXvXvXvXvXbX0X!.5XnX#X  r CXCXCXCXCXCXCXCXCXCX",
"CXCXCXCXCXCX  -XNXk.6 / =.*.*.*.{ D A D e.*.*.*.*._ R.NXNXqXc.H.m.kXNXbXI.I.I.I.I.I.U.I.I.I.N.kXNXnXI.l y D & CXCXCXCXCXCXCXCXCX",
"CXCXCXCXCXCX  -XNXk.6 / =.*.=.{ 7.4.: # y.I.Y.Y.Y.Z.W.3X2X~.P.Y.P.!.!.0XMXMXMXMXMXMXMXMXMXMXNXrX~.1XU.k 9 D $ CXCXCXCXCXCXCXCXCX",
"CXCXCXCXCXCX  ;XNXw.0 ( =.=.{ 6.N w p ( +.h.h.h.h.h.g.,.v.U.I.I.I.H.N.Q.qXqXqXqXqXeXeXeXqXeXqX1Xv.H.Q.j 9 5.a , CXCXCXCXCXCXCXCX",
"CXCXCXCXCXCXCX$XdX> s r.-.*.6.m y e 5.:.&.$.$...$.$.&.f.V.H.H.H.H.H.H.G.x.x.n.m.v.m.v.m.v.m.n.L.U.H.1.l e 6.4.2 CXCXCXCXCXCXCXCX",
"CXCXCXCXCXCXCXCX  $ | =.*.X.6.< e q.S  .=.*.*.*.*.&.d.I.~.1X!.!.!.1X!.!.!.1XQ.P.I.I.I.I.I.I.P.L.Q.!.l.a y 5.4.< CXCXCXCXCXCXCXCX",
"CXCXCXCXCXCXCXCXCX$ } =.X.5.r $ / X.S ..=.*.*.*.*.%.;.L.vXNXNXMXNXMXMXNXMXNXwXc.I.I.I.P.I.I.H.x.0XNXMX+X5 6.Z < CXCXCXCXCXCXCXCX",
"CXCXCXCXCXCXCXCXCX$ } =.O.  . $ / =...q.} &.%.%.$.<.Z.P.bXNXNXNXNXNXNXNXNXNXMXrXx.n.m.m.n.v.kXvXnXNXNX#X5 6.S < CXCXCXCXCXCXCXCX",
"CXCXCXCXCXCXCXCXCX& o.#.a.;XI X / =.=.} u.j.j.h.h.A.U.P.BXNXNXNXNXNXNXNXNXNXNXnXqXgXrXgXgXgXNXNXNXBXqXQ + V 5.< CXCXCXCXCXCXCXCX",
"CXCXCXCXCXCXCXCXCX$ } 7 #XNXs.@ d o.*.$.j.I.U.U.I.I.I.I.jXnXvXvXvXvXvXnXNXNXNXNXNXNXNXNXNXNXNXNXNXmX^ 6 ; r V < CXCXCXCXCXCXCXCX",
"CXCXCXCXCXCXCXCXCX= %   %XMXs.@ $ q *.*.%.d.I.Y.I.I.I.I.L.L.L.H.P.L.M.4XNXNXNXNXNXNXNXNXNXNXNXNXNXbXw.@ CXCX* = CXCXCXCXCXCXCXCX",
"CXCXCXCXCXCXCXCXCXCXCXCXCXa.r.} 2 q *.=.&.=.1.Y.I.Q.T.I.f.-.<.<.P.U.P.W.4X~.kXNXNXNXNXNXNXNXNXNXvXk.r CXCXCXCXCXCXCXCXCXCXCXCXCX",
"CXCXCXCXCXCXCXCXCXCXCXCXCXCXd r.[ * s } e.q.6.u.u.u.u.h.-.&.$.>.g.g.Z.T.J.m.5XeXeXeXeXeXeXeX7X7X&X! = CXCXCXCXCXCXCXCXCXCXCXCXCX",
"CXCXCXCXCXCXCXCXCXCXCXCXCXCX# ( ] $ $ y D D A M M M 4.}  . . . .} O.r.A.h.C.f.,.,.,.,.,.,.,.^ ! 0 t : CXCXCXCXCXCXCXCXCXCXCXCXCX",
"CXCXCXCXCXCXCXCXCXCXCXCXCXCXCX$ $ = - $ p 5.Z 4.m 4.4.A A A A S A A A M m m m m m m m m m m V A p o CXCXCXCXCXCXCXCXCXCXCXCXCXCX",
"CXCXCXCXCXCXCXCXCXCXCXCXCXCXCXCXCXCXCX% p 5.5.S 4.C 4.4.4.4.4.4.5.5.5.5.4.4.S 5.4.4.4.4.4.4.r , : CXCXCXCXCXCXCXCXCXCXCXCXCXCXCX",
"CXCXCXCXCXCXCXCXCXCXCXCXCXCXCXCXCXCXCX% B 7.S  ...} Z 4.w r e e e e e e w w w r w w w w e e CXCXCXCXCXCXCXCXCXCXCXCXCXCXCXCXCXCX",
"CXCXCXCXCXCXCXCXCXCXCXCXCXCXCXCXCXCXCXCXw 4.{ *.=. .D 5.p < o $ O $ o $ % % % O $ o o $ % $ CXCXCXCXCXCXCXCXCXCXCXCXCXCXCXCXCXCX",
"CXCXCXCXCXCXCXCXCXCXCXCXCXCXCXCXCXCXCXCXCXd =.*.*. .7.4.6.p o CXCXCXCXCX= & < r 1 r r < & CXCXCXCXCXCXCXCXCXCXCXCXCXCXCXCXCXCXCX",
"CXCXCXCXCXCXCXCXCXCXCXCXCXCXCXCXCXCXCXCX# d *.*.*.=.o.4.5.t o CXCXCXCXCX= % p 6.5.5.6.p o CXCXCXCXCXCXCXCXCXCXCXCXCXCXCXCXCXCXCX",
"CXCXCXCXCXCXCXCXCXCXCXCXCXCXCXCXCXCXCXCXCXCXi *.=.*.X.4.4.p $ CXCXCXCXCX= a Z Z S D 7.a % CXCXCXCXCXCXCXCXCXCXCXCXCXCXCXCXCXCXCX",
"CXCXCXCXCXCXCXCXCXCXCXCXCXCXCXCXCXCXCXCXCXCX* [  .*.X.4.5.t o CXCXCXCXCX= Z 5.6. . .s 2 CXCXCXCXCXCXCXCXCXCXCXCXCXCXCXCXCXCXCXCX",
"CXCXCXCXCXCXCXCXCXCXCXCXCXCXCXCXCXCXCXCXCXCX, F { =.X.4.5.t o CXCXCXCXCX= C Z q.>.-.d CXCXCXCXCXCXCXCXCXCXCXCXCXCXCXCXCXCXCXCXCX",
"CXCXCXCXCXCXCXCXCXCXCXCXCXCXCXCXCXCXCXCXCXCXCX# } -.X.4.5.t o CXCXCXCXCX= C Z q.=.*.d CXCXCXCXCXCXCXCXCXCXCXCXCXCXCXCXCXCXCXCXCX",
"CXCXCXCXCXCXCXCXCXCXCXCXCXCXCXCXCXCXCXCXCXCXCX% a { *.4.5.t $ CXCXCXCXCX: V S e.*.u CXCXCXCXCXCXCXCXCXCXCXCXCXCXCXCXCXCXCXCXCXCX",
"CXCXCXCXCXCXCXCXCXCXCXCXCXCXCXCXCXCXCXCXCXCXCXCX, C q.4.5.t o CXCXCXCXCX= C 4.6.q.= CXCXCXCXCXCXCXCXCXCXCXCXCXCXCXCXCXCXCXCXCXCX",
"CXCXCXCXCXCXCXCXCXCXCXCXCXCXCXCXCXCXCXCXCXCXCXCXo , p Z 6.t $ CXCXCXCXCX= V 6.D e & CXCXCXCXCXCXCXCXCXCXCXCXCXCXCXCXCXCXCXCXCXCX",
"CXCXCXCXCXCXCXCXCXCXCXCXCXCXCXCXCXCXCXCXCXCXCXCX1 2 w 5.6.t O CXCXCXCXCX= Z 6.V : r CXCXCXCXCXCXCXCXCXCXCXCXCXCXCXCXCXCXCXCXCXCX",
"CXCXCXCXCXCXCXCXCXCXCXCXCXCXCXCXCXCXCXCXCXCXCX% N 7.4.5.5.t $ CXCXCXCXCX= C 5.4.5.5.e o CXCXCXCXCXCXCXCXCXCXCXCXCXCXCXCXCXCXCXCX",
"CXCXCXCXCXCXCXCXCXCXCXCXCXCXCXCXCXCXCXCXCXCXCXCXCXCXCXCXCXCXCXCXCXCXCXCXCXCXCXCXCXCXCXCXCXCXCXCXCXCXCXCXCXCXCXCXCXCXCXCXCXCXCXCX",
"CXCXCXCXCXCXCXCXCXCXCXCXCXCXCXCXCXCXCXCXCXCXCXCXCXCXCXCXCXCXCXCXCXCXCXCXCXCXCXCXCXCXCXCXCXCXCXCXCXCXCXCXCXCXCXCXCXCXCXCXCXCXCXCX",
"CXCXCXCXCXCXCXCXCXCXCXCXCXCXCXCXCXCXCXCXCXCXCXCXCXCXCXCXCXCXCXCXCXCXCXCXCXCXCXCXCXCXCXCXCXCXCXCXCXCXCXCXCXCXCXCXCXCXCXCXCXCXCXCX",
"CXCXCXCXCXCXCXCXCXCXCXCXCXCXCXCXCXCXCXCXCXCXCXCXCXCXCXCXCXCXCXCXCXCXCXCXCXCXCXCXCXCXCXCXCXCXCXCXCXCXCXCXCXCXCXCXCXCXCXCXCXCXCXCX"
};
