/* XPM */
static char *result[] = {
/* columns rows colors chars-per-pixel */
"64 62 228 2 ",
"   c #000000",
".  c #00000B",
"X  c #00001C",
"o  c #000012",
"O  c #1E0000",
"+  c #2A0000",
"@  c #210000",
"#  c #2C081C",
"$  c #311009",
"%  c #302A1D",
"&  c #2F241E",
"*  c #00002B",
"=  c #000022",
"-  c #000133",
";  c #000A37",
":  c #001137",
">  c #001C3A",
",  c #081B35",
"<  c #09162B",
"1  c #2B1824",
"2  c #01233B",
"3  c #0D263D",
"4  c #012B3F",
"5  c #16293E",
"6  c #2F2427",
"7  c #312D27",
"8  c #26293B",
"9  c #312D34",
"0  c #302D3A",
"q  c #32313C",
"w  c #4E1634",
"e  c #4E3636",
"r  c #6C4B3B",
"t  c #001A4A",
"y  c #042846",
"u  c #002C59",
"i  c #002B57",
"p  c #003456",
"a  c #103149",
"s  c #252E42",
"d  c #323444",
"f  c #3A3945",
"g  c #333749",
"h  c #35394A",
"j  c #3A3B4B",
"k  c #343D53",
"l  c #373B58",
"z  c #24344B",
"x  c #0E3E68",
"c  c #001D6A",
"v  c #443E47",
"b  c #622941",
"n  c #384558",
"m  c #304554",
"M  c #0B4D71",
"N  c #254C6C",
"B  c #384A69",
"V  c #3A5578",
"C  c #314E72",
"Z  c #38677E",
"A  c #564848",
"S  c #484A56",
"D  c #514B55",
"F  c #644A45",
"G  c #6C544C",
"H  c #70544F",
"J  c #685859",
"K  c #715554",
"L  c #755858",
"P  c #744D51",
"I  c #76625F",
"U  c #565D67",
"Y  c #43667A",
"T  c #5F606A",
"R  c #676869",
"E  c #776865",
"W  c #656978",
"Q  c #747378",
"!  c #705F60",
"~  c #835B59",
"^  c #89655E",
"/  c #876B65",
"(  c #956B65",
")  c #9A6964",
"_  c #8C7266",
"`  c #92756A",
"'  c #967B70",
"]  c #A26E69",
"[  c #A56B66",
"{  c #AB766E",
"}  c #B37B72",
"|  c #AB7971",
" . c #AC8B7B",
".. c #A48576",
"X. c #BA877A",
"o. c #C5897C",
"O. c #DB8A7D",
"+. c #DD947F",
"@. c #3A558B",
"#. c #3C5986",
"$. c #344E87",
"%. c #36658E",
"&. c #2B6AAF",
"*. c #485C82",
"=. c #487090",
"-. c #797D85",
";. c #4675A9",
":. c #497CB7",
">. c #567BB2",
",. c #0074C7",
"<. c #0069C0",
"1. c #2B8AA9",
"2. c #4B839D",
"3. c #4E8AA3",
"4. c #4A81BD",
"5. c #5391AE",
"6. c #7E8286",
"7. c #0088CC",
"8. c #0F94D2",
"9. c #3E81C6",
"0. c #2EABDB",
"q. c #3BBBE5",
"w. c #1CA3D9",
"e. c #4785C7",
"r. c #5589CB",
"t. c #4E8DD3",
"y. c #5598D6",
"u. c #5293CF",
"i. c #628DCC",
"p. c #649AD4",
"a. c #6E97CF",
"s. c #59A7D9",
"d. c #57B2DE",
"f. c #62A3DA",
"g. c #64AAD9",
"h. c #69B8DC",
"j. c #42BFE7",
"k. c #5DB5E2",
"l. c #61B5E4",
"z. c #65BDE4",
"x. c #64BBEB",
"c. c #6BB7E6",
"v. c #3EC4E9",
"b. c #44C3EA",
"n. c #45C4EA",
"m. c #47CAF3",
"M. c #5EC0E0",
"N. c #6AC5E9",
"B. c #6CC8EB",
"V. c #64C7E9",
"C. c #73C5E9",
"Z. c #75CBED",
"A. c #79CAEB",
"S. c #78C7E7",
"D. c #6BCBF3",
"F. c #74CEF1",
"G. c #6AD3F7",
"H. c #77D7F9",
"J. c #86868A",
"K. c #8F9095",
"L. c #B99683",
"P. c #949FA7",
"I. c #96A3AE",
"U. c #A9A9AB",
"Y. c #B7B6B7",
"T. c #A9ACB1",
"R. c #DA8E80",
"E. c #C89A8A",
"W. c #DB9887",
"Q. c #CD8D80",
"!. c #E49B8A",
"~. c #EB9D8B",
"^. c #E69887",
"/. c #CBA38D",
"(. c #DAA589",
"). c #D6AB93",
"_. c #DDB198",
"`. c #CDA790",
"'. c #E3A18E",
"]. c #EAA18E",
"[. c #EAA591",
"{. c #ECAC95",
"}. c #E5A892",
"|. c #F3AB95",
" X c #E2B59B",
".X c #EEB39A",
"XX c #E5B99E",
"oX c #E8B89C",
"OX c #F3B49B",
"+X c #F3B99E",
"@X c #F9B49B",
"#X c #F1A38F",
"$X c #EBBDA1",
"%X c #F6BEA2",
"&X c #FBBDA2",
"*X c #F4C3A5",
"=X c #FAC3A6",
"-X c #FBC7A9",
";X c #FDCBAC",
":X c #F5C7A9",
">X c #FFD0AF",
",X c #FFD3B2",
"<X c #FEDCBC",
"1X c #FFD8B8",
"2X c #EFC0A3",
"3X c #90B1C2",
"4X c #86CBE8",
"5X c #D3D4D5",
"6X c #C8C9CA",
"7X c #FFDFC2",
"8X c #FFE4C7",
"9X c #CCD9EA",
"0X c #D7DCE9",
"qX c #D4EAF6",
"wX c #D9ECF7",
"eX c #D8E8F5",
"rX c #D8F0FB",
"tX c #E4E4E4",
"yX c #EAEAEA",
"uX c #ECEDF2",
"iX c #EFF0F1",
"pX c #E0F1FA",
"aX c #E8F6FF",
"sX c #F3F3F3",
"dX c #FFFFFF",
"fX c #F9F8F8",
"gX c #F6F1EF",
"hX c None",
/* pixels */
"hXhXhXhXhXhXhXhXhXhXhXhXhXhXhXhXhXhXhXhXhXhXhXhXhXhXhXhXhXhXhXhXhXhXhXhXhXhXhXhXhXhXhXhXhXhXhXhXhXhXhXhXhXhXhXhXhXhXhXhXhXhXhXhX",
"hXhXhXhXhXhXhXhXhXhXhXhXhXhXhXhXhXhXhXhXhXhXhXhXhXhXhXhXhXhXhXhXhXhXhXhXhXhXhXhXhXhXhXhXhXhXhXhXhXhXhXhXhXhXhXhXhXhXhXhXhXhXhXhX",
"hXhXhXhXhXhXhXhXhXhXhXhXhXhXhXhXhXhXhXhXhXhXhXhXhXhXhXhXhXhXhXhXhXhXhXhXhXhXhXhXhXhXhXhXhXhXhXhXhXhXhXhXhXhXhXhXhXhXhXhXhXhXhXhX",
"hXhXhXhXhXhXhXhXhXhXhXhXhXhXhXhXhXhXhXhXhXhXhXhXhXhXhXhXhXhXhXhXhXhXhXhXhXhXhXhXhXhXhXhXhXhXhXhXhXhXhXhXhXhXhXhXhXhXhXhXhXhXhXhX",
"hXhXhXhXhXhXhXhXhXhXhXhXhXhXhXhXhXhXhXhXhXhXhXhXhXhXhXhXhXhXhXhXhXhXhXhXhXhXhXhXhXhXhXhXhXhXhXhXhXhXhXhXhXhXhXhXhXhXhXhXhXhXhXhX",
"hXhXhXhXhXhXhXhXhXhXhXhXhXhXhXhXhXhXhXhXhXhXhXhXhXhXhXhXhXhXhXhXhXhXhXhXhXhXhXhXhXhXhXhXhXhXhXhXhXhXhXhXhXhXhXhXhXhXhXhXhXhXhXhX",
"hXhXhXhXhXhXhXhXhXhXhXhXhXhXhXhXhXhXhXhXhXhXhXhXhXhXhXhXhXhXhXhXhXhXhXhXhXhXhXhXhXhXhXhXhXhXhXhXhXhXhXhXhXhXhXhXhXhXhXhXhXhXhXhX",
"hXhXhXhXhXhXhXhXhXhXhXhXhXhXhXhXhXhXhXhXhXhXhXhXhXhXhXhXhXhXhXhXhXhXhXhXhXhXhXhXhXhXhXhXhXhXhXhXhXhXhXhXhXhXhXhXhXhXhXhXhXhXhXhX",
"hXhXhXhXhXhXhXhXhXhXhXhXhXhXhXhXhXhXhXhXhXhXhX< 5XtX5X0XtXT hXhXhXhXhXhXhXhXhXhXhXhXhXhXhXhXhXhXhXhXhXhXhXhXhXhXhXhXhXhXhXhXhXhX",
"hXhXhXhXhXhXhXhXhXhXhXhXhXhXhXhXhXhXhXhXhXhX=   dXdXdXdXdXT   hXhXhXhXhXhXhXhXhXhXhXhXhXhXhXhXhXhXhXhXhXhXhXhXhXhXhXhXhXhXhXhXhX",
"hXhXhXhXhXhXhXhXhXhXhXhXhXhXhXhXhXhXhX0 S J.Q Q Q Q Q Q Q R -.J.U 8 hXhXhXhXhXhXhXhXhXhXhXhXhXhXhXhXhXhXhXhXhXhXhXhXhXhXhXhXhXhX",
"hXhXhXhXhXhXhXhXhXhXhXhXhXhXhXhXhXhXhXX 6.tXiXtXfXdXdXdXdXdX5XyXU.  hXhXhXhXhXhXhXhXhXhXhXhXhXhXhXhXhXhXhXhXhXhXhXhXhXhXhXhXhXhX",
"hXhXhXhXhXhXhXhXhXhXhXhXhXhXhXhXhXhXhXj = k fX5XfXdXdXdXdXdXY.J.  S hXhXhXhXhXhXhXhXhXhXhXhXhXhXhXhXhXhXhXhXhXhXhXhXhXhXhXhXhXhX",
"hXhXhXhXhXhXhXhXhXhXhXhXhXhXhXhXhXhXhXhX* K.Y.Y.Y.U.T.T.T.T.6XU.* hXhXhXhXhXhXhXhXhXhXhXhXhXhXhXhXhXhXhXhXhXhXhXhXhXhXhXhXhXhXhX",
"hXhXhXhXhXhXhXhXhXhXhXhXhXhXhXhXhXhX2 a s .                     s 2 2 3 2 3 hXhXhXhXhXhXhXhXhXhXhXhXhXhXhXhXhXhXhXhXhXhXhXhXhXhX",
"hXhXhXhXhXhXhXhXhXhXhXhXhXhXhXhXhX8 o.[.W.!.'.(.!.'.(.!.W.!.'.W..X;X;X-X-X;X' 3 hXhXhXhXhXhXhXhXhXhXhXhXhXhXhXhXhXhXhXhXhXhXhXhX",
"hXhXhXhXhXhXhXhXhXhXhXhXhXhXhXhX- } ~.^.%X=X=X-X;X;X;X;X;X;X;X>X;X,X1X1X,X1X>Xf 3 hXhXhXhXhXhXhXhXhXhXhXhXhXhXhXhXhXhXhXhXhXhXhX",
"hXhXhXhXhXhXhXhXhXhXhXhXhXhXhXa A o.OX.X[.%X%X%X;X;X;X;X;X;X;X,X,X,X7X7X1X7X;X .3 hXhXhXhXhXhXhXhXhXhXhXhXhXhXhXhXhXhXhXhXhXhXhX",
"hXhXhXhXhXhXhXhXhXhXhXhXhXhXhX> ] #X}.;X>X;X;X;X-X;X;X;X;X;X;X;X-X,X7X7X1X;X1X;Xy f hXhXhXhXhXhXhXhXhXhXhXhXhXhXhXhXhXhXhXhXhXhX",
"hXhXhXhXhXhXhXhXhXhXhXhXhXhXhX> ) ~..X-X;X;X;X;X;X;X;X;X;X;X;X;X;X7X8X8X8X1X8X:X> f hXhXhXhXhXhXhXhXhXhXhXhXhXhXhXhXhXhXhXhXhXhX",
"hXhXhXhXhXhXhXhXhXhXhXhXhXhXhX> ) ~.*X;X-X;X;X-X;X;X=X-X=X=X=X=X=X;X;X;X;X;X;X*Xy f hXhXhXhXhXhXhXhXhXhXhXhXhXhXhXhXhXhXhXhXhXhX",
"hXhXhXhXhXhXhXhXhXhXhXhXhXhXhX> ) ~.*X;X;X;X;X;X;X;X+X*X+X[.{.{.}.-X>X;X;X;X;X:X3 f hXhXhXhXhXhXhXhXhXhXhXhXhXhXhXhXhXhXhXhXhXhX",
"hXhXhXhXhXhXhXhXhXhXhXhXhXhXhX> ( !.{.-X;X;X;X;X;X;X=X+X*X%X%X%X&X%X%X%X;X;X;X*Xy f hXhXhXhXhXhXhXhXhXhXhXhXhXhXhXhXhXhXhXhXhXhX",
"hXhXhXhXhXhXhXhXhXhXhXhXhXhXhX2 ( OXOX;X;X;X;X-X;X;XOXO.^.O.O.+.R.R.R.'.>X;X;X=X2 f hXhXhXhXhXhXhXhXhXhXhXhXhXhXhXhXhXhXhXhXhXhX",
"hXhXhXhXhXhXhXhXhXhXhXhXhXhXhX2 ) @X{.[.;X;X;X;X-X;X=X+X*X*X=X*X%X&X%X=X;X;X;X*Xy v hXhXhXhXhXhXhXhXhXhXhXhXhXhXhXhXhXhXhXhXhXhX",
"hXhXhXhXhXhXhXhXhXhXhXhXhXhXd : 8 * ).;X-X;X-X;X>X>X>X>X,X}. .<XL.W.,X;X;X,X>X*X; s hXhXhXhXhXhXhXhXhXhXhXhXhXhXhXhXhXhXhXhXhXhX",
"hXhXhXhXhXhXhXhXhXhXhXhXhX0 n I ` J  X>X-X;X;X;XXX.X_.:X*X(.(.}.$X(.$X-X X XXX2Xv K s hXhXhXhXhXhXhXhXhXhXhXhXhXhXhXhXhXhXhXhXhX",
"hXhXhXhXhXhXn 5.2.3.3.=.@.z A ;X).%X;X;X;X;X;X;X^ P w  X_ P.Y.K.. P.R .Xb P ~  X.. X  *.@.5.Y hXhXhXhXhXhXhXhXhXhXhXhXhXhXhXhXhX",
"hXhXhXhXhXB h.G.G.G.G.D.x.%.F  X  ] |.-X;X;X-X;X&X&X%X;X_ T.6XK.  U.Q -X@X=X&X$X( E.  r.x.H.z.Y 6 hXhXhXhXhXhXhXhXhXhXhXhXhXhXhX",
"hXhXhXhX$ V G.V.N.s.z.u.d.%.r XX= } +X;X;X;X;X;X;X;X;X,X/ 6X5X5XtX5XI ;X;X;X,X$X~ }   :.y.s.G.2.+ hXhXhXhXhXhXhXhXhXhXhXhXhXhXhX",
"hXhXhX0 j z.B.B.B.z.N.z.s.c e -X] { |.'.{.;X;X;X;X;X-X,X/ -.K.K.J.J.J ;X;X;X;XW./ o.  g.V.z.N.N.Y 1 hXhXhXhXhXhXhXhXhXhXhXhXhXhX",
"hXhXhX8 S dXdXdXdXdXdXdXdXY.h W.W.O.W.!.*X=X*X-X&X;X-X;X{.+.R.+.W.+.'.;X;X=X=XXXL E.R sXdXdXdXdXJ.. hXhXhXhXhXhXhXhXhXhXhXhXhXhX",
"hXhXhX8 S pXpXpXpXpXpXeX0XuXa.  < * o.].}.!.{.=X+X;X>X;X>X>X>X>X>X>X,X;X,X%X~.!.  I.sX0XrXpXwXaX-.o hXhXhXhXhXhXhXhXhXhXhXhXhXhX",
"hXhXhX0 n b.b.b.j.j.b.q.w.w.t.;.Y : o.~..X[.%XOX+XOX.X.X.X.XOXOX.XOX.X.X.X+XX.[ n &.7.0.b.j.j.m.Z 1 hXhXhXhXhXhXhXhXhXhXhXhXhXhX",
"hXhXhX0 n C.B.B.Z.B.B.Z.Z.l.#.;.>.  Q.#X!.~.^.!.!.!.!.~.!.^.~.^.^.!.!.!.^.#XF   *.t.u.B.f.D.B.F.*.# hXhXhXhXhXhXhXhXhXhXhXhXhXhX",
"hXhXhX9 n Z.F.Z.F.Z.Z.F.Z.C.n k r.e.W r H H H H H H H K L K K K L L H H P r >.n B c.C.C.C.F.A.H.=.# hXhXhXhXhXhXhXhXhXhXhXhXhXhX",
"hXhXhX8 S uXsXiXuXiXsXiXiXfXR x r.t.$.t u u u u i i u ;   y 4 4 <   u u u y e.t J.fXiXsXiXiXgXfX-.o hXhXhXhXhXhXhXhXhXhXhXhXhXhX",
"hXhXhXhXd =     X           1 V u.p.g.f.g.f.f.f.f.f.f.5.%.9 m $ U 2.p.f.g.p.r.n 3         . .   q d hXhXhXhXhXhXhXhXhXhXhXhXhXhX",
"hXhXhXhXs A | | D ) [ ] ] ] e N ,.8.0.q.0.m.n.n.m.n.b.G.H.1.6 N 0.m.b.n.j.7.,.z F | ) [ X.~ I I 4 hXhXhXhXhXhXhXhXhXhXhXhXhXhXhX",
"hXhXhXhX; _ }.'.( }.-XOXOXOXe W eX0X9XeX0XrXrXqXeXqXpX3XM qX  I.aXqXeXeXeX9XeXm ~ #X+X-Xo.E. .o.* hXhXhXhXhXhXhXhXhXhXhXhXhXhXhX",
"hXhXhXhX- ' /. .;X:X-X'.'.[.w 6.dXdXdXdXdXdXdXdXdXdXdXsXtXfX  Y.dXdXdXdXdXdXdXS L ].'.%XE ). . .* hXhXhXhXhXhXhXhXhXhXhXhXhXhXhX",
"hXhXhXhX: / ;X2X;X;X-X-X=X[.e N p.r.C.Z.C.Z.Z.Z.Z.Z.Z.S.4XS.O 3.H.C.C.C.S.g.i.p H @X=X=X:X*X;X>XI : hXhXhXhXhXhXhXhXhXhXhXhXhXhX",
"hXhXhXhX* E ). .1X;X;X;X+X|.F N r.f.x.N.B.N.B.B.D.V.G.5.N h.+ 3.D.N.s.N.y.u.r.i ^ |.%X.X,X/. . .. hXhXhXhXhXhXhXhXhXhXhXhXhXhXhX",
"hXhXhXhX5 _.E. .oX*X;X-X;X=XF M ,.<.7.b.b.j.b.b.v.v.v.G.H.n.+ 3.m.j.b.b.j.7.,.i ^ ;X;X;X_.XX).XXD hXhXhXhXhXhXhXhXhXhXhXhXhXhXhX",
"hXhXhXhXs /.%X*XI _.>X;X;X&Xv W eX9XqXqXqXqXqXqXqXqXpXI.M 9X  P.pXqXqXqX9X9X0Xm I =X;X:Xq >X1X).A hXhXhXhXhXhXhXhXhXhXhXhXhXhXhX",
"hXhXhXhX* E  X/.*X*X;X;X;X;XA -.dXdXdXdXdXdXdXdXdXdXdXgXtXdX  Y.dXdXdXdXdXdXdXn _ >X-X;X:X).`. .X hXhXhXhXhXhXhXhXhXhXhXhXhXhXhX",
"hXhXhX8 f -X/. .1X;X;X;X-X;XG N p.i.h.Z.S.Z.S.Z.Z.A.Z.H.4XZ.O 5.H.S.S.Z.h.r.a.i _ >X-X-X1X`. .o.* hXhXhXhXhXhXhXhXhXhXhXhXhXhXhX",
"hXhXhXhX: E ;X;X=X;X;X,X,X,XG x e.9.t.9.d.k.d.D.V.V.G.5.N M.+ 2.G.V.V.t.e.e.e.t ` 1X>X;X-X-X1X..* hXhXhXhXhXhXhXhXhXhXhXhXhXhXhX",
"hXhXhXhX: _ <X;X;X;X*X/.`.).A N y.t.k.y.x.x.x.l.x.x.k.x.x.l.+ ;.x.k.x.l.t.u.u.p L )./.*X;X;X<XL.- hXhXhXhXhXhXhXhXhXhXhXhXhXhXhX",
"hXhXhXhXhXI  ._.;X;X X  X * 8 l V :.%.$.*.$.@.@.@.@.@.@.@.@.9 B @.@.$.$.*.#.#.h 3 *    X,X$X .` hXhXhXhXhXhXhXhXhXhXhXhXhXhXhXhX",
"hXhXhXhXhXhX  L.1X;X:X$X .> e B ;.e.:.;.l :.V $ 7 % % % % 7 d 0 % 7 ;.n :.;.;.k v > L.;X,X X  hXhXhXhXhXhXhXhXhXhXhXhXhXhXhXhXhX",
"hXhXhXhXhXhXhXJ E J J / J hXq m #.V V B k C l g h g g g g g d d h h B l C V #.h d hXR L J J hXhXhXhXhXhXhXhXhXhXhXhXhXhXhXhXhXhX",
"hXhXhXhXhXhXhXhX> 2 2 - 5 hX9 B 4.:.:.m 0 9 q d d d d d d d d d d d 0 d $ %.e.m 0 hX3 : 2 2 hXhXhXhXhXhXhXhXhXhXhXhXhXhXhXhXhXhX",
"hXhXhXhXhXhXhXhXhXhXhXhXhXhXd d & 6 6 q d d d d d d d d d d d s d d d d d 9 & f d hXhXhXhXhXhXhXhXhXhXhXhXhXhXhXhXhXhXhXhXhXhXhX",
"hXhXhXhXhXhXhXhXhXhXhXhXhXhXd d g g d d d d d d d d d d d d d d d d d d d d g f d hXhXhXhXhXhXhXhXhXhXhXhXhXhXhXhXhXhXhXhXhXhXhX",
"hXhXhXhXhXhXhXhXhXhXhXhXhXhXd d d d d d d d d d d d d d d d d d d d d d d d d f d hXhXhXhXhXhXhXhXhXhXhXhXhXhXhXhXhXhXhXhXhXhXhX",
"hXhXhXhXhXhXhXhXhXhXhXhXhXhXd d d d d q d d d d d d f d h d d d d d d d d d d d d hXhXhXhXhXhXhXhXhXhXhXhXhXhXhXhXhXhXhXhXhXhXhX",
"hXhXhXhXhXhXhXhXhXhXhXhXhXhXd d d d d d d d d d d d d d d d d d d d d d d d d d d hXhXhXhXhXhXhXhXhXhXhXhXhXhXhXhXhXhXhXhXhXhXhX",
"hXhXhXhXhXhXhXhXhXhXhXhXhXhXd d d d d d d j hXhXhXhXhXhXhXhXhXhXd d d d d d d j d hXhXhXhXhXhXhXhXhXhXhXhXhXhXhXhXhXhXhXhXhXhXhX",
"hXhXhXhXhXhXhXhXhXhXhXhXhXhXhXd d d d d h d hXhXhXhXhXhXhXhXhXhXd h d d d d d d hXhXhXhXhXhXhXhXhXhXhXhXhXhXhXhXhXhXhXhXhXhXhXhX",
"hXhXhXhXhXhXhXhXhXhXhXhXhXhXhXh h f h d hXhXhXhXhXhXhXhXhXhXhXhXd h d d d d h hXhXhXhXhXhXhXhXhXhXhXhXhXhXhXhXhXhXhXhXhXhXhXhXhX",
"hXhXhXhXhXhXhXhXhXhXhXhXhXhXhXhXhXhXhXhXhXhXhXhXhXhXhXhXhXhXhXhXd h d d g hXhXhXhXhXhXhXhXhXhXhXhXhXhXhXhXhXhXhXhXhXhXhXhXhXhXhX"
};
