/* XPM */
static char *result[] = {
/* columns rows colors chars-per-pixel */
"64 62 244 2 ",
"   c #000000",
".  c #04040D",
"X  c #1E0000",
"o  c #160000",
"O  c #000012",
"+  c #00001C",
"@  c #1D0019",
"#  c #061513",
"$  c #250000",
"%  c #2A0000",
"&  c #2E0C0B",
"*  c #2F2219",
"=  c #38240D",
"-  c #00002D",
";  c #000025",
":  c #000033",
">  c #000638",
",  c #00153B",
"<  c #021939",
"1  c #0D0E2D",
"2  c #2B1729",
"3  c #01223C",
"4  c #04293E",
"5  c #0D263D",
"6  c #1B243B",
"7  c #102524",
"8  c #2D2625",
"9  c #352B29",
"0  c #292939",
"q  c #302C33",
"w  c #312E3A",
"e  c #32313A",
"r  c #363136",
"t  c #43332D",
"y  c #421B23",
"u  c #6B4733",
"i  c #001D40",
"p  c #063053",
"a  c #282D41",
"s  c #2C3142",
"d  c #273143",
"f  c #323443",
"g  c #333749",
"h  c #353A4B",
"j  c #3C3D4C",
"k  c #3B3946",
"l  c #373F54",
"z  c #002370",
"x  c #463F4A",
"c  c #3E404F",
"v  c #3D4352",
"b  c #374359",
"n  c #1A4666",
"m  c #1A4767",
"M  c #004664",
"N  c #374967",
"B  c #374D72",
"V  c #3B5377",
"C  c #2A4C74",
"Z  c #3C687F",
"A  c #114A5F",
"S  c #45434D",
"D  c #564A4E",
"F  c #484A56",
"G  c #5B5054",
"H  c #53545D",
"J  c #5D4B52",
"K  c #6A4E4A",
"L  c #674E53",
"P  c #695759",
"I  c #765859",
"U  c #7D4742",
"Y  c #76625E",
"T  c #585A62",
"R  c #4A5068",
"E  c #546477",
"W  c #66666D",
"Q  c #726D70",
"!  c #6C5F60",
"~  c #875D5B",
"^  c #915755",
"/  c #886459",
"(  c #866A65",
")  c #8C736A",
"_  c #95776D",
"`  c #9A786F",
"'  c #B27B71",
"]  c #A9786F",
"[  c #C17F74",
"{  c #9F8173",
"}  c #AC8B7C",
"|  c #A28476",
" . c #B4897A",
".. c #B3907F",
"X. c #C68A7C",
"o. c #D58C7E",
"O. c #0F5481",
"+. c #3A5983",
"@. c #265587",
"#. c #3F6392",
"$. c #3E618E",
"%. c #347AB1",
"&. c #077594",
"*. c #5B7383",
"=. c #436897",
"-. c #4F7893",
";. c #7B7E84",
":. c #63728B",
">. c #4575AC",
",. c #4370A5",
"<. c #4779B5",
"1. c #487AB8",
"2. c #526EA9",
"3. c #465F89",
"4. c #0A76C9",
"5. c #327CC1",
"6. c #0D95B9",
"7. c #3389A7",
"8. c #4E88AB",
"9. c #7193B0",
"0. c #5F839A",
"q. c #1A8BCC",
"w. c #0790D3",
"e. c #2793D1",
"r. c #288ECE",
"t. c #37ABDB",
"y. c #3BB7E3",
"u. c #4D84CD",
"i. c #4C84C6",
"p. c #5289CB",
"a. c #4D8BD2",
"s. c #5597D6",
"d. c #5494D0",
"f. c #5BA9C8",
"g. c #5CABDA",
"h. c #5AA2D8",
"j. c #4EB0DD",
"k. c #64B8D8",
"l. c #65A8D7",
"z. c #49B9E4",
"x. c #55B9E5",
"c. c #5FAFE2",
"v. c #68BBE4",
"b. c #619BD1",
"n. c #43C1E9",
"m. c #4AC2E8",
"M. c #55C4EA",
"N. c #56C4E9",
"B. c #48C9F2",
"V. c #56CBF2",
"C. c #6BC6EB",
"Z. c #6BCBEE",
"A. c #68C4E8",
"S. c #74CAEC",
"D. c #71C5E7",
"F. c #6CCEF2",
"G. c #71CDF3",
"H. c #72D1F4",
"J. c #78D6F9",
"K. c #6BD0F1",
"L. c #89878B",
"P. c #888D95",
"I. c #979697",
"U. c #99938D",
"Y. c #BA9684",
"T. c #B88580",
"R. c #9C9FA3",
"E. c #828EA5",
"W. c #9DA1A5",
"Q. c #8DA0AC",
"!. c #A5A5A8",
"~. c #B5B5B7",
"^. c #AEAFB1",
"/. c #B6A59D",
"(. c #DD8E80",
"). c #C49E89",
"_. c #C69986",
"`. c #D99786",
"'. c #CF8F81",
"]. c #E59C8A",
"[. c #E99C8B",
"{. c #E39787",
"}. c #CCA48E",
"|. c #C6A18B",
" X c #D8AC93",
".X c #DEB298",
"XX c #D4A990",
"oX c #EBA18E",
"OX c #E5A28D",
"+X c #EAA591",
"@X c #EBAB94",
"#X c #E2AA92",
"$X c #E3B59B",
"%X c #EEB299",
"&X c #EBBA9E",
"*X c #E7B99E",
"=X c #F2B49B",
"-X c #F3B99F",
";X c #F0A591",
":X c #EDBEA1",
">X c #F5BDA1",
",X c #FBBDA2",
"<X c #F5C2A4",
"1X c #FAC3A6",
"2X c #FBC7A8",
"3X c #FDCBAC",
"4X c #F5C5A8",
"5X c #FFD0AF",
"6X c #FFD2B2",
"7X c #FFDCBB",
"8X c #FFD8B7",
"9X c #F3C5A8",
"0X c #97AED8",
"qX c #ACB8CE",
"wX c #A3BEE3",
"eX c #9CD5EF",
"rX c #9CD7F1",
"tX c #96CAE6",
"yX c #A6D7EE",
"uX c #A6D8EF",
"iX c #AAD9EF",
"pX c #B2D7ED",
"aX c #A6DAF2",
"sX c #ABDCF3",
"dX c #A3DFF9",
"fX c #B4DEF2",
"gX c #BCD1F3",
"hX c #ABC6E6",
"jX c #B6E4F8",
"kX c #ADE1F7",
"lX c #C4C5C7",
"zX c #D4D4D6",
"xX c #D3CFCB",
"cX c #FFE3C6",
"vX c #D2DCEA",
"bX c #CDE8F6",
"nX c #CAE9F8",
"mX c #D1F0FD",
"MX c #E3E6E7",
"NX c #FEFFFF",
"BX c #F5F6F7",
"VX c #ECF1F3",
"CX c #E6DAD4",
"ZX c None",
/* pixels */
"ZXZXZXZXZXZXZXZXZXZXZXZXZXZXZXZXZXZXZXZXZXZXZXZXZXZXZXZXZXZXZXZXZXZXZXZXZXZXZXZXZXZXZXZXZXZXZXZXZXZXZXZXZXZXZXZXZXZXZXZXZXZXZXZX",
"ZXZXZXZXZXZXZXZXZXZXZXZXZXZXZXZXZXZXZXZXZXZXZXZXZX!.W.^.ZXZXZXZXZXZXZXZXZXZXZXZXZXZXZXZXZXZXZXZXZXZXZXZXZXZXZXZXZXZXZXZXZXZXZXZX",
"ZXZXZXZXZXZXZXZXZXZXZXZXZXZXZXZXZXZXZXZXZXZXZX1 W NXNXNXI.  ZXZXZXZXZXZXZXZXZXZXZXZXZXZXZXZXZXZXZXZXZXZXZXZXZXZXZXZXZXZXZXZXZXZX",
"ZXZXZXZXZXZXZXZXZXZXZXZXZXZXZXZXZXZXZXZXZXZXZX; T NXNXNXP.  ZXZXZXZXZXZXZXZXZXZXZXZXZXZXZXZXZXZXZXZXZXZXZXZXZXZXZXZXZXZXZXZXZXZX",
"ZXZXZXZXZXZXZXZXZXZXZXZXZXZXZXZXZXZXZXZXe j T k H ;.Q L.H F T S f ZXZXZXZXZXZXZXZXZXZXZXZXZXZXZXZXZXZXZXZXZXZXZXZXZXZXZXZXZXZXZX",
"ZXZXZXZXZXZXZXZXZXZXZXZXZXZXZXZXZXZXZXZX  !.BXVXMXBXBXVXBXMXBXlX  ZXZXZXZXZXZXZXZXZXZXZXZXZXZXZXZXZXZXZXZXZXZXZXZXZXZXZXZXZXZXZX",
"ZXZXZXZXZXZXZXZXZXZXZXZXZXZXZXZXZXZXZXZXc - W NXlXNXNXNXNX~.P.O F ZXZXZXZXZXZXZXZXZXZXZXZXZXZXZXZXZXZXZXZXZXZXZXZXZXZXZXZXZXZXZX",
"ZXZXZXZXZXZXZXZXZXZXZXZXZXZXZXZXZXZXZXZXS O ~.MXzXzXzXzXzXMXlX; j ZXZXZXZXZXZXZXZXZXZXZXZXZXZXZXZXZXZXZXZXZXZXZXZXZXZXZXZXZXZXZX",
"ZXZXZXZXZXZXZXZXZXZXZXZXZXZXZXZXZXZXZXZXZXZXZXZXZXZXZXZXZXZXZXZXZXZXZXZXZXZXZXZXZXZXZXZXZXZXZXZXZXZXZXZXZXZXZXZXZXZXZXZXZXZXZXZX",
"ZXZXZXZXZXZXZXZXZXZXZXZXZXZXZXZXZXZXZXa s < g c c c v v v v h 6 a a d d s ZXZXZXZXZXZXZXZXZXZXZXZXZXZXZXZXZXZXZXZXZXZXZXZXZXZXZX",
"ZXZXZXZXZXZXZXZXZXZXZXZXZXZXZXZXZXk x `.oX+X+XoX+X+X+X+XoX+X+XOX>X3X2X2X6XT.3 ZXZXZXZXZXZXZXZXZXZXZXZXZXZXZXZXZXZXZXZXZXZXZXZXZX",
"ZXZXZXZXZXZXZXZXZXZXZXZXZXZXZXZXZX: X.].oX1X3X1X3X3X3X3X5X3X5X5X6X6X6X8X6X8XY : ZXZXZXZXZXZXZXZXZXZXZXZXZXZXZXZXZXZXZXZXZXZXZXZX",
"ZXZXZXZXZXZXZXZXZXZXZXZXZXZXZXZX4 I (.=X%X+X>X-X2X3X3X3X3X3X2X6X6X6XcX7X6X3X|.g ZXZXZXZXZXZXZXZXZXZXZXZXZXZXZXZXZXZXZXZXZXZXZXZX",
"ZXZXZXZXZXZXZXZXZXZXZXZXZXZXZXZX,  .[.%X5X6X3X3X3X3X3X3X3X3X3X2X2X8XcX6X6X6X6XG 5 ZXZXZXZXZXZXZXZXZXZXZXZXZXZXZXZXZXZXZXZXZXZXZX",
"ZXZXZXZXZXZXZXZXZXZXZXZXZXZXZXZX, ' [.&X3X3X3X2X3X3X3X3X3X3X3X3X2XcXcX7X8X7X2XG 5 ZXZXZXZXZXZXZXZXZXZXZXZXZXZXZXZXZXZXZXZXZXZXZX",
"ZXZXZXZXZXZXZXZXZXZXZXZXZXZXZXZX, ' [.2X3X3X3X2X3X3X3X1X2X1X1X1X2X3X3X3X3X3X3XG 5 ZXZXZXZXZXZXZXZXZXZXZXZXZXZXZXZXZXZXZXZXZXZXZX",
"ZXZXZXZXZXZXZXZXZXZXZXZXZXZXZXZX, ' [.2X3X3X3X3X3X3X3X=X1X%X@X@X<X5X3X2X3X3X3XG 5 ZXZXZXZXZXZXZXZXZXZXZXZXZXZXZXZXZXZXZXZXZXZXZX",
"ZXZXZXZXZXZXZXZXZXZXZXZXZXZXZXZX, ' [.%X3X3X2X3X3X3X3X1X-X>X,X,X>X-X>X3X3X3X3XG 5 ZXZXZXZXZXZXZXZXZXZXZXZXZXZXZXZXZXZXZXZXZXZXZX",
"ZXZXZXZXZXZXZXZXZXZXZXZXZXZXZXZX< ] =X-X3X3X3X3X3X2X5X@Xo.o.o.o.(.o.{.3X3X3X3XG 5 ZXZXZXZXZXZXZXZXZXZXZXZXZXZXZXZXZXZXZXZXZXZXZX",
"ZXZXZXZXZXZXZXZXZXZXZXZXZXZXZXZXi  .=X;X@X3X3X3X3X3X5X2X,X<X2X1X1X1X1X3X3X3X3XG 0 ZXZXZXZXZXZXZXZXZXZXZXZXZXZXZXZXZXZXZXZXZXZXZX",
"ZXZXZXZXZXZXZXZXZXZXZXZXZXZXZXs : 6 1 &X3X3X3X3X2X2X4X2X5X#X..7X).`.3X3X9X3X3XD > k ZXZXZXZXZXZXZXZXZXZXZXZXZXZXZXZXZXZXZXZXZXZX",
"ZXZXZXZXZXZXZXZXZXZXZXZXZXZXs S ) _ ( 4X3X3X3X3X5X*X  }.5X*Xo.#X#X X5X$X  XX6XG P g ZXZXZXZXZXZXZXZXZXZXZXZXZXZXZXZXZXZXZXZXZXZX",
"ZXZXZXZXZXZXZXZXZXZXZXZXZXZX: ) 3XXX-X3X3X2X3X2X5X:X  |.6XS ~.0.L.W <X*X   X6X( :X- ZXZXZXZXZXZXZXZXZXZXZXZXZXZXZXZXZXZXZXZXZXZX",
"ZXZXZXZXZXZXZXX X X $ X $ = - _  X  [ %X3X3X3X3X5X@X^ .X5X! zXI.R.0.:X<X~ `.2X( `.> t % X X ZXZXZXZXZXZXZXZXZXZXZXZXZXZXZXZXZXZX",
"ZXZXZXZXZX$ 3.A.k.k.k.k.d.1.p ) .X  '.,X3X3X3X3X3X>X2X2X5XJ       . 4X3X2X-X2X/ X.O =.i.k.v.8.$ ZXZXZXZXZXZXZXZXZXZXZXZXZXZXZXZX",
"ZXZXZXZX2 E K.J.K.H.H.H.v.G.n / 2X~ X.;XOX=X3X3X3X5X3X3X3XL W W W S <X3X3X5X%XI '.  2.C.G.H.K.8.% ZXZXZXZXZXZXZXZXZXZXZXZXZXZXZX",
"ZXZXZXZX2 &.V.m.m.z.t.j.r.r.z D `.`.'.{.OX4X1X>X2X<X2X3X2XW MXMXVXW &X5X2X>X1XI T.M %.e.e.m.V.7.2 ZXZXZXZXZXZXZXZXZXZXZXZXZXZXZX",
"ZXZXZX0 F sXsXsXsXaXaXuXsXwXwX0X  + < '.oXoXOX%X2X-X3X3X3X` u ^ ^ ~ 4X5X<XoX[.y -.jXdXsXsXsXiXjX*.@ ZXZXZXZXZXZXZXZXZXZXZXZXZXZX",
"ZXZXZX0 F NXNXNXNXNXNXNXNXNXNXNXxXI.; `.+X@XoX-X=X-X=X=X=XoXoXoXoXoX%X%X-X_.] . I.NXNXNXNXNXNXNXL.. ZXZXZXZXZXZXZXZXZXZXZXZXZXZX",
"ZXZXZX0 v aXaXaXaXaXaXaXaXwX0X0XgXE.  `.oX].[.{.].{.[.[.].].OXoXoX[.[.[.;X^   0 9.0XhXaXyXyXyXkX*.@ ZXZXZXZXZXZXZXZXZXZXZXZXZXZX",
"ZXZXZXw b N.N.N.N.N.M.M.N.x.z.j.4.5.i.P K K K K K K K K L L L L L L K K u 2.i.1.d.z.x.N.N.N.N.V.$.& ZXZXZXZXZXZXZXZXZXZXZXZXZXZX",
"ZXZXZXw b N.N.N.N.N.M.M.N.M.V.h.p.p.a.C A n n n n n m p 5 4 5 4 4 4 n m p >.s.d.q.j.j.z.V.N.N.V.Z 2 ZXZXZXZXZXZXZXZXZXZXZXZXZXZX",
"ZXZXZX0 v yXyXyXyXyXyXyXyXyXyXf.1.a.i.u.u.u.u.u.u.i.a.=.r g f f k c i.u.i.u.<.8.sXyXyXyXyXyXyXsX*.@ ZXZXZXZXZXZXZXZXZXZXZXZXZXZX",
"ZXZXZX6 H NXNXNXNXNXNXNXNXNXNX$ V u.j.c.g.g.g.j.g.g.c.=.o c f h 2 $ h.g.c.h.p P NXNXNXNXNXNXNXNXL.  ZXZXZXZXZXZXZXZXZXZXZXZXZXZX",
"ZXZXZXe j W.W.W.R.R.R.R.R.W.W.q $.a.d.A.g.K.K.Z.K.Z.K.k.f.f s $ 0.f.N.K.A.a.B S !.R.R.R.R.W.R.!.T 0 ZXZXZXZXZXZXZXZXZXZXZXZXZXZX",
"ZXZXZXf g                     8 +.c.v.A.v.Z.C.C.Z.A.A.Z.V.k.X 0.Z.K.Z.Z.A.s.B 8                 0 g ZXZXZXZXZXZXZXZXZXZXZXZXZXZX",
"ZXZXZXZXi Y OXOX`.`.].`.].].!   W.NXNXBXNXNXNXBXNXBXNX~.R VX  ^.NXBXBXBXBXNXL.  ( +X`.`.OX`.{.) < ZXZXZXZXZXZXZXZXZXZXZXZXZXZXZX",
"ZXZXZXZX< Y OXOXI '.=X@X+X+XL   ^.NXNXNXNXNXNXNXNXNXNXNXNXNX  ~.NXNXNXNXNXNXP.  ~ oX+X%X`.X.]  .: ZXZXZXZXZXZXZXZXZXZXZXZXZXZXZX",
"ZXZXZXZX- ` |.| .X<X3X+X+X+XJ   P.bXvXnXbXbXbXbXbXbXbXnXmXnX  W.mXbXmXnXnXbXQ O / [.+X4X! }.} ..O ZXZXZXZXZXZXZXZXZXZXZXZXZXZXZX",
"ZXZXZXZX, ( 2X*X6X3X2X-X>X+XJ 8 O.w.n.n.n.n.n.n.n.m.B.6.M z.% 7.B.z.e.y.q.w.N 3 I =X-X2X.X<X*X<XP < ZXZXZXZXZXZXZXZXZXZXZXZXZXZX",
"ZXZXZXZX: ( $X|.6X3X3X5X-XOXL # 3.b.s.D.S.S.S.S.S.S.S.k.l.D.% 8.H.Z.D.D.v.l.R 1 ~ OX4X@X6X.X|.}.3 ZXZXZXZXZXZXZXZXZXZXZXZXZXZXZX",
"ZXZXZXZX> ..|.{ 5X2X3X2X2X2XP # $.4.j.M.M.M.M.x.M.N.m.F.J.N.% 7.V.M.M.M.j.4.V ; ) 3X3X2X3X}.Y.).: ZXZXZXZXZXZXZXZXZXZXZXZXZXZXZX",
"ZXZXZXa h <X.X.X( .X5X2X3X,XP   :.0XtXrXeXrXrXrXrXeXsXk.6.tXo 9.dXeXrXrXtX0XE O ( 1X3X3XD 5X5X<XI < ZXZXZXZXZXZXZXZXZXZXZXZXZXZX",
"ZXZXZXZX- S 4X&X}.<X5X2X5X$XP   ~.NXNXNXNXNXNXNXNXNXNXCX/.NX  ~.NXNXNXNXNXNXI.  ( <X3X2X|.&X&X| ; ZXZXZXZXZXZXZXZXZXZXZXZXZXZXZX",
"ZXZXZXZX0 <XY.) 8X3X3X2X8X( ZX& 0.hXpXjXjXfXjXfXfXfXfXjXmXfX  9.jXfXjXjXpXhX:.9 ZXT.6X4X8X|.{ ).; ZXZXZXZXZXZXZXZXZXZXZXZXZXZXZX",
"ZXZXZXZX6 Y.9X<X3X2X3X3X6X` ZXt +.4.q.r.t.t.t.M.m.z.V.6.A z.& 7.V.m.z.q.q.4.C t ZXY.8X2X3X<X4X} - ZXZXZXZXZXZXZXZXZXZXZXZXZXZXZX",
"ZXZXZXZX> ! 8X5X3X3X2X4X3X_ ZX* =.p.v.s.v.C.A.Z.G.C.G.A.k.A.$ 8.H.C.G.v.u.s.R r ZXY.5X3X4X3X8X} : ZXZXZXZXZXZXZXZXZXZXZXZXZXZXZX",
"ZXZXZXZX< Y *X<X3X3X$X  : h ZXq V i.1.<.1.,.<.1.<.<.<.1.8.>.* V 1.1.>.1.,.<.B w ZXS   .X5X<X&X{ - ZXZXZXZXZXZXZXZXZXZXZXZXZXZXZX",
"ZXZXZXZXZXZX  ).7X6X3XY.) i ZXe b i.>.V g =.N & * * * * * * g e * 8 +.g #.#.b w ZXi _ 3X8X$X  ZXZXZXZXZXZXZXZXZXZXZXZXZXZXZXZXZX",
"ZXZXZXZXZXZXZX{ Y.} ..}._ - ZXw B $.$.=.N >.V e b s g g g g f f g h #.N >.=.b w ZX- | Y.Y.} ZXZXZXZXZXZXZXZXZXZXZXZXZXZXZXZXZXZX",
"ZXZXZXZXZXZXZXZX: - - + i ZXZXq V 1.<.w q & 9 f f f f f f f f f f e * f $ #.V q ZXZX> - : - ZXZXZXZXZXZXZXZXZXZXZXZXZXZXZXZXZXZX",
"ZXZXZXZXZXZXZXZXZXZXZXZXZXZXZXe l B B h f g f f f f f f f f f f f g g f g N l e ZXZXZXZXZXZXZXZXZXZXZXZXZXZXZXZXZXZXZXZXZXZXZXZX",
"ZXZXZXZXZXZXZXZXZXZXZXZXZXZXZXg s q q f f f f f f f f f f f f f f f f f f w e f ZXZXZXZXZXZXZXZXZXZXZXZXZXZXZXZXZXZXZXZXZXZXZXZX",
"ZXZXZXZXZXZXZXZXZXZXZXZXZXZXZXf f f f f f f f f e f f f f f f f f f f f f f h f ZXZXZXZXZXZXZXZXZXZXZXZXZXZXZXZXZXZXZXZXZXZXZXZX",
"ZXZXZXZXZXZXZXZXZXZXZXZXZXZXZXf f e f f f f f f g f f f f f f f e f f f f f h f ZXZXZXZXZXZXZXZXZXZXZXZXZXZXZXZXZXZXZXZXZXZXZXZX",
"ZXZXZXZXZXZXZXZXZXZXZXZXZXZXZXf f f f f f f f f f f f f f f f f f f f f f f f h ZXZXZXZXZXZXZXZXZXZXZXZXZXZXZXZXZXZXZXZXZXZXZXZX",
"ZXZXZXZXZXZXZXZXZXZXZXZXZXZXZXf f f f f f f g f f f f f f f f f f f f f f f f f ZXZXZXZXZXZXZXZXZXZXZXZXZXZXZXZXZXZXZXZXZXZXZXZX",
"ZXZXZXZXZXZXZXZXZXZXZXZXZXZXZXf f f f f f g ZXZXZXZXZXZXZXZXZXZXf g f f f f f f ZXZXZXZXZXZXZXZXZXZXZXZXZXZXZXZXZXZXZXZXZXZXZXZX",
"ZXZXZXZXZXZXZXZXZXZXZXZXZXZXZXf f f f f f j ZXZXZXZXZXZXZXZXZXZXf h f f f f h f ZXZXZXZXZXZXZXZXZXZXZXZXZXZXZXZXZXZXZXZXZXZXZXZX",
"ZXZXZXZXZXZXZXZXZXZXZXZXZXZXZXf f f f g f ZXZXZXZXZXZXZXZXZXZXZXf g f f f f f ZXZXZXZXZXZXZXZXZXZXZXZXZXZXZXZXZXZXZXZXZXZXZXZXZX",
"ZXZXZXZXZXZXZXZXZXZXZXZXZXZXZXf f f f k g ZXZXZXZXZXZXZXZXZXZXZXf g f f f j ZXZXZXZXZXZXZXZXZXZXZXZXZXZXZXZXZXZXZXZXZXZXZXZXZXZX",
"ZXZXZXZXZXZXZXZXZXZXZXZXZXZXZXf f f f ZXZXZXZXZXZXZXZXZXZXZXZXZXf k f g f ZXZXZXZXZXZXZXZXZXZXZXZXZXZXZXZXZXZXZXZXZXZXZXZXZXZXZX"
};
