/* XPM */
static char *result[] = {
/* columns rows colors chars-per-pixel */
"64 64 62 1 ",
"  c #00002B",
". c #856C5B",
"X c #856D5B",
"o c #856E5B",
"O c #E19371",
"+ c #E19472",
"@ c #E19572",
"# c #E39673",
"$ c #E29773",
"% c #E29774",
"& c #E29874",
"* c #E29974",
"= c #E39974",
"- c #E39975",
"; c #E49975",
": c #E49A75",
"> c #E39D77",
", c #E49E77",
"< c #E49E78",
"1 c #D9AC7F",
"2 c #E5A179",
"3 c #E5A17A",
"4 c #E5A27A",
"5 c #E6A27A",
"6 c #D9AC80",
"7 c #D9AD80",
"8 c #DAAF81",
"9 c #DAB082",
"0 c #EBB384",
"q c #EBB484",
"w c #EBB585",
"e c #EBB686",
"r c #ECB686",
"t c #ECB786",
"y c #EDB787",
"u c #ECB887",
"i c #ECB987",
"p c #EDB988",
"a c #EDBB89",
"s c #EDBC89",
"d c #EEBC89",
"f c #EEBD8A",
"g c #EEBE8A",
"h c #EEBE8B",
"j c #EFBE8B",
"k c #EFBF8B",
"l c #F3BA88",
"z c #F3BA89",
"x c #F3BB89",
"c c #F0BE8B",
"v c #F0BF8B",
"b c #F4BD8A",
"n c #EFC08C",
"m c #EFC18C",
"M c #F1C18C",
"N c #F1C18D",
"B c #F1C28D",
"V c #F6C28D",
"C c #F6C38E",
"Z c #F6C48E",
"A c #F6C48F",
"S c None",
/* pixels */
"SSSSSSSSSSSSSSSSSSSSSSSSSSSSSSSSSSSSSSSSSSSSSSSSSSSSSSSSSSSSSSSS",
"SSSSSSSSSSSSSSSSSSSSSSSSSSSSSSSSSSSSSSSSSSSSSSSSSSSSSSSSSSSSSSSS",
"SSSSSSSSSSSSSSSSSSSSSSSSSSSSSSSSSSSSSSSSSSSSSSSSSSSSSSSSSSSSSSSS",
"SSSSSSSSSSSSSSSSSSSSSSSSSSSSSSSSSSSSSSSSSSSSSSSSSSSSSSSSSSSSSSSS",
"SSSSSSSSSSSSSSSSSSSSSSSSSSSSSSSSSSSSSSSSSSSSSSSSSSSSSSSSSSSSSSSS",
"SSSSSSSSSSSSSSSSSSSSSSSSSSSSSSSSSSSSSSSSSSSSSSSSSSSSSSSSSSSSSSSS",
"SSSSSSSSSSSSSSSSSSSSSSSSSSSSSSSSSSSSSSSSSSSSSSSSSSSSSSSSSSSSSSSS",
"SSSSSSSSSSSSSSSSSSSSSSSSSSSSSSSSSSSSSSSSSSSSSSSSSSSSSSSSSSSSSSSS",
"SSSSSSSSSSSSSSSSSSSSSSSSSSSSSSSSSSSSSSSSSSSSSSSSSSSSSSSSSSSSSSSS",
"SSSSSSSSSSSSSSSSSSSSSSSSSSSSSSSSSSSSSSSSSSSSSSSSSSSSSSSSSSSSSSSS",
"SSSSSSSSSSSSSSSSSSSSSSSSSSSSSSSSSSSSSSSSSSSSSSSSSSSSSSSSSSSSSSSS",
"SSSSSSSSSSSSSSSSSSSSSSSSSSSSSSSSSSSSSSSSSSSSSSSSSSSSSSSSSSSSSSSS",
"SSSSSSSSSSSSSSSSSSSSSSSSSSSSSSSSSSSSSSSSSSSSSSSSSSSSSSSSSSSSSSSS",
"SSSSSSSSSSSSSSSSSSSSSSSSSSSSSSSSSSSSSSSSSSSSSSSSSSSSSSSSSSSSSSSS",
"SSSSSSSSSSSSSSSSSSSSSSSSSSSSSSSSSSSSSSSSSSSSSSSSSSSSSSSSSSSSSSSS",
"SSSSSSSSSSSSSSSSSSSSSSSSSSSSSSSSSSSSSSSSSSSSSSSSSSSSSSSSSSSSSSSS",
"SSSSSSSSSSSSSSSSSSSSSSSSSSSSSSSSSSSSSSSSSSSSSSSSSSSSSSSSSSSSSSSS",
"SSSSSSSSSSSSSSSSSSSSSSSSSSSSSSSSSSSSSSSSSSSSSSSSSSSSSSSSSSSSSSSS",
"                                                                ",
"..........XoXXXXXX..............................................",
"6666666617899999987166666666666666666666666666666666666666666666",
"CCCCCCCZAVblxxxxzbVAZCCCCCCCCCCCCCCCCCCCCCCCCCCCCCCCCCCCCCCCCCCC",
"cccccccvMy5#=:;-#5yMvccccccccccccccccccccccccccccccccccccccccccc",
"fffffffgnr2+&**&+2engfffffffffffffffffffffffffffffffffffffffffff",
"fffffffhngrqruurqeagffffffffffffffffffffffffffffffffffffffffffff",
"ffffffgawrhkprrpjngfffffffffffffffffffffffffffffffffffffffffffff",
"ffffffnw><ip4++3tngfffffffffffffffffffffffffffffffffffffffffffff",
"ffffffnw>,ui2OO2engffffffffffffffffffffffffffffffffffffffgffffff",
"ffffffgawwddr00ragfffffffffffffffffffffffffffffffffffffgnngfffff",
"fffffffgnnffknnkgfffffffffffffffffffffffffffffffffffffgawwagffff",
"fffffffffgfffggfffffffffffffffffffffffffffffffffffffffnw>>wngfff",
"fffffffffffffffffffffffffffffffffffffffffffffffffffffhne<,wngfff",
"fffffffffffffffffffffffffffffffffffffffffffffffffffgknmhiusfffff",
"ffffffffffffffffffffffffffffffffffffffffffffffffffgar00wridfffff",
"ffffffffffffffffffffffffffffffffffffffffffffffffffne2+$%@2engfff",
"ffffffffffffffffffffffffffffffffffffffffffffffffffne2+$$+2engfff",
"ffffffffffffffffffffffffffffffffffffffffffffffffffgar0qq0ragffff",
"cccccccccccccccccccccccccccccccccccccccccccccccccccvMBNNBMvccccc",
"CCCCCCCCCCCCCCCCCCCCCCCCCCCCCCCCCCCCCCCCCCCCCCCCCCCZAAAAAAZCCCCC",
"6767676767676767676767676767676767676767676767676767676767676767",
"................................................................",
"                                                                ",
"SSSSSSSSSSSSSSSSSSSSSSSSSSSSSSSSSSSSSSSSSSSSSSSSSSSSSSSSSSSSSSSS",
"SSSSSSSSSSSSSSSSSSSSSSSSSSSSSSSSSSSSSSSSSSSSSSSSSSSSSSSSSSSSSSSS",
"SSSSSSSSSSSSSSSSSSSSSSSSSSSSSSSSSSSSSSSSSSSSSSSSSSSSSSSSSSSSSSSS",
"SSSSSSSSSSSSSSSSSSSSSSSSSSSSSSSSSSSSSSSSSSSSSSSSSSSSSSSSSSSSSSSS",
"SSSSSSSSSSSSSSSSSSSSSSSSSSSSSSSSSSSSSSSSSSSSSSSSSSSSSSSSSSSSSSSS",
"SSSSSSSSSSSSSSSSSSSSSSSSSSSSSSSSSSSSSSSSSSSSSSSSSSSSSSSSSSSSSSSS",
"SSSSSSSSSSSSSSSSSSSSSSSSSSSSSSSSSSSSSSSSSSSSSSSSSSSSSSSSSSSSSSSS",
"SSSSSSSSSSSSSSSSSSSSSSSSSSSSSSSSSSSSSSSSSSSSSSSSSSSSSSSSSSSSSSSS",
"SSSSSSSSSSSSSSSSSSSSSSSSSSSSSSSSSSSSSSSSSSSSSSSSSSSSSSSSSSSSSSSS",
"SSSSSSSSSSSSSSSSSSSSSSSSSSSSSSSSSSSSSSSSSSSSSSSSSSSSSSSSSSSSSSSS",
"SSSSSSSSSSSSSSSSSSSSSSSSSSSSSSSSSSSSSSSSSSSSSSSSSSSSSSSSSSSSSSSS",
"SSSSSSSSSSSSSSSSSSSSSSSSSSSSSSSSSSSSSSSSSSSSSSSSSSSSSSSSSSSSSSSS",
"SSSSSSSSSSSSSSSSSSSSSSSSSSSSSSSSSSSSSSSSSSSSSSSSSSSSSSSSSSSSSSSS",
"SSSSSSSSSSSSSSSSSSSSSSSSSSSSSSSSSSSSSSSSSSSSSSSSSSSSSSSSSSSSSSSS",
"SSSSSSSSSSSSSSSSSSSSSSSSSSSSSSSSSSSSSSSSSSSSSSSSSSSSSSSSSSSSSSSS",
"SSSSSSSSSSSSSSSSSSSSSSSSSSSSSSSSSSSSSSSSSSSSSSSSSSSSSSSSSSSSSSSS",
"SSSSSSSSSSSSSSSSSSSSSSSSSSSSSSSSSSSSSSSSSSSSSSSSSSSSSSSSSSSSSSSS",
"SSSSSSSSSSSSSSSSSSSSSSSSSSSSSSSSSSSSSSSSSSSSSSSSSSSSSSSSSSSSSSSS",
"SSSSSSSSSSSSSSSSSSSSSSSSSSSSSSSSSSSSSSSSSSSSSSSSSSSSSSSSSSSSSSSS",
"SSSSSSSSSSSSSSSSSSSSSSSSSSSSSSSSSSSSSSSSSSSSSSSSSSSSSSSSSSSSSSSS",
"SSSSSSSSSSSSSSSSSSSSSSSSSSSSSSSSSSSSSSSSSSSSSSSSSSSSSSSSSSSSSSSS",
"SSSSSSSSSSSSSSSSSSSSSSSSSSSSSSSSSSSSSSSSSSSSSSSSSSSSSSSSSSSSSSSS"
};
