/* XPM */
static char *result[] = {
/* columns rows colors chars-per-pixel */
"64 64 100 2 ",
"   c black",
".  c #000017",
"X  c #000027",
"o  c #00002B",
"O  c #000131",
"+  c #000E34",
"@  c #001135",
"#  c #001D36",
"$  c #002037",
"%  c #002038",
"&  c #14293B",
"*  c #192A3A",
"=  c #1D343E",
"-  c #242B3B",
";  c #2E303C",
":  c #33323D",
">  c #3A353E",
",  c #58353F",
"<  c #373642",
"1  c #383642",
"2  c #3C3A47",
"3  c #463A41",
"4  c #573740",
"5  c #5D3941",
"6  c #603C42",
"7  c #5B4445",
"8  c #554B4E",
"9  c #5E554C",
"0  c #634445",
"q  c #694244",
"w  c #6B4D49",
"e  c #714E49",
"r  c #61524A",
"t  c #64594E",
"y  c #76524B",
"u  c #7B544E",
"i  c #6C5E51",
"p  c #7D5651",
"a  c #7F5D53",
"s  c #746152",
"d  c #7B6456",
"f  c #835B54",
"g  c #8A6057",
"h  c #856C5B",
"j  c #896F5C",
"k  c #9C6656",
"l  c #9F6958",
"z  c #8A715E",
"x  c #9D735D",
"c  c #B4725E",
"v  c #8F7461",
"b  c #907561",
"n  c #BD7B62",
"m  c #C57D64",
"M  c #C97F65",
"N  c #AB866A",
"B  c #B38F70",
"V  c #BE9772",
"C  c #BF9973",
"Z  c #C78166",
"A  c #CA8166",
"S  c #CC8468",
"D  c #CB8D6D",
"F  c #D28669",
"G  c #D78C6D",
"H  c #D98D6D",
"J  c #CF906F",
"K  c #DF906F",
"L  c #DD8F70",
"P  c #C39C75",
"I  c #DE9975",
"U  c #E28F6F",
"Y  c #E39371",
"T  c #E99673",
"R  c #E39C76",
"E  c #EB9975",
"W  c #E59F78",
"Q  c #EA9E78",
"!  c #D5A67B",
"~  c #D9A67C",
"^  c #D6AA7E",
"/  c #D9AC7F",
"(  c #E6A27A",
")  c #EBA079",
"_  c #F2A47C",
"`  c #D9AC80",
"'  c #DBB182",
"]  c #EAAF81",
"[  c #E3B585",
"{  c #ECB585",
"}  c #EBB887",
"|  c #EEBD8A",
" . c #F1B384",
".. c #F0BE8B",
"X. c #EFC08C",
"o. c #F6C38E",
"O. c #F8C58F",
"+. c #F8C790",
"@. c #FECA92",
"#. c None",
/* pixels */
"#.#.#.#.#.#.#.#.#.#.#.#.#.#.#.#.#.#.#.#.#.#.#.#.#.#.#.#.#.#.#.#.#.#.#.#.#.#.#.#.#.#.#.#.#.#.#.#.#.#.#.#.#.#.#.#.#.#.#.#.#.#.#.#.",
"#.#.#.#.#.#.#.#.#.#.#.#.#.#.#.#.#.#.#.#.#.#.#.#.#.#.#.#.#.#.#.#.#.#.#.#.#.#.#.#.#.#.#.#.#.#.#.#.#.#.#.#.#.#.#.#.#.#.#.#.#.#.#.#.",
"#.#.#.#.#.#.#.#.#.#.#.#.#.#.#.#.#.#.#.#.#.#.#.#.#.#.#.#.#.#.#.#.#.#.#.#.#.#.#.#.#.#.#.#.#.#.#.#.#.#.#.#.#.#.#.#.#.#.#.#.#.#.#.#.",
"#.#.#.#.#.#.#.#.#.#.#.#.#.#.#.#.#.#.#.#.#.#.#.#.#.#.#.#.#.#.#.#.#.#.#.#.#.#.#.#.#.#.#.#.#.#.#.#.#.#.#.#.#.#.#.#.#.#.#.#.#.#.#.#.",
"#.#.#.#.#.#.#.#.#.#.#.#.#.#.#.#.#.#.#.#.#.#.#.#.#.#.#.#.#.#.#.#.#.#.#.#.#.#.#.#.#.#.#.#.#.#.#.#.#.#.#.#.#.#.#.#.#.#.#.#.#.#.#.#.",
"#.#.#.#.#.#.#.#.#.#.#.#.#.#.#.#.#.#.#.#.#.#.#.#.#.#.#.#.#.#.#.#.#.#.#.#.#.#.#.#.#.#.#.#.#.#.#.#.#.#.#.#.#.#.#.#.#.#.#.#.#.#.#.#.",
"#.#.#.#.#.#.#.#.#.#.#.#.#.#.#.#.#.#.#.#.#.#.#.#.#.#.#.#.#.#.#.#.#.#.#.#.#.#.#.#.#.#.#.#.#.#.#.#.#.#.#.#.#.#.#.#.#.#.#.#.#.#.#.#.",
"#.#.#.#.#.#.#.#.#.#.#.#.#.#.#.#.#.#.#.#.#.#.#.#.#.#.#.#.#.#.#.#.#.#.#.#.#.#.#.#.#.#.#.#.#.#.#.#.#.#.#.#.#.#.#.#.#.#.#.#.#.#.#.#.",
"#.#.#.#.#.#.#.#.#.#.#.#.#.#.#.#.#.#.#.#.#.#.#.#.#.#.#.#.#.#.#.#.#.#.#.#.#.#.#.#.#.#.#.#.#.#.#.#.#.#.#.#.#.#.#.#.#.#.#.#.#.#.#.#.",
"#.#.#.#.#.#.#.#.#.#.#.#.#.#.#.#.#.#.#.#.#.#.#.#.#.#.#.#.#.#.#.#.#.#.#.#.#.#.#.#.#.#.#.#.#.#.#.#.#.#.#.#.#.#.#.#.#.#.#.#.#.#.#.#.",
"#.#.#.#.#.#.#.#.#.#.#.#.#.#.#.#.#.#.#.#.#.#.#.#.#.#.#.#.#.#.#.#.#.#.#.#.#.#.#.#.#.#.#.#.#.#.#.#.#.#.#.#.#.#.#.#.#.#.#.#.#.#.#.#.",
"#.#.#.#.#.#.#.#.#.#.#.#.#.#.#.#.#.#.#.#.#.#.#.#.#.#.#.#.#.#.#.#.#.#.#.#.#.#.#.#.#.#.#.#.#.#.#.#.#.#.#.#.#.#.#.#.#.#.#.#.#.#.#.#.",
"#.#.#.#.#.#.#.#.#.#.#.#.#.#.#.#.#.#.#.#.#.#.#.#.#.#.#.#.#.#.#.#.#.#.#.#.#.#.#.#.#.#.#.#.#.#.#.#.#.#.#.#.#.#.#.#.#.#.#.#.#.#.#.#.",
"#.#.#.#.#.#.#.#.#.#.#.#.#.#.#.#.#.#.#.#.#.#.#.#.#.#.#.#.#.#.#.#.#.#.#.#.#.#.#.#.#.#.#.#.#.#.#.#.#.#.#.#.#.#.#.#.#.#.#.#.#.#.#.#.",
"#.#.#.#.#.#.#.#.#.#.#.#.#.#.#.#.#.#.#.#.#.#.#.#.#.#.#.#.#.#.#.#.#.#.#.#.#.#.#.#.#.#.#.#.#.#.#.#.#.#.#.#.#.#.#.#.#.#.#.#.#.#.#.#.",
"#.#.#.#.#.#.#.#.#.#.#.#.#.#.#.#.#.#.#.#.#.#.#.#.#.#.#.#.#.#.#.#.#.#.#.#.#.#.#.#.#.#.#.#.#.#.#.#.#.#.#.#.#.#.#.#.#.#.#.#.#.#.#.#.",
"#.#.#.#.#.#.#.#.#.#.#.#.#.#.#.#.#.#.#.#.#.#.#.#.#.#.#.#.#.#.#.#.#.#.#.#.#.#.#.#.#.#.#.#.#.#.#.#.#.#.#.#.#.#.#.#.#.#.#.#.#.#.#.#.",
"#.#.#.#.#.#.#.#.#.#.#.#.#.#.#.#.#.#.#.#.#.#.#.#.#.#.#.#.#.#.#.#.#.#.#.#.#.#.#.#.#.#.#.#.#.#.#.#.#.#.#.#.#.#.#.#.#.#.#.#.#.#.#.#.",
"o o o o o o o o o o o o o o o o o o o o o o o o #.#.#.#.#.#.#.#.#.#.#.#.#.#.#.#.#.#.#.#.#.#.#.#.#.#.#.#.#.#.#.#.#.#.#.#.#.#.#.#.",
"h h h h h h h h h h h h h h h h h h h h h j b s #.#.#.#.#.#.#.#.#.#.#.#.#.#.#.#.#.#.#.#.#.#.#.#.#.#.#.#.#.#.#.#.#.#.#.#.#.#.#.#.",
"` ` ` ` ` ` ` ` ` ` ` ` ` ` ` ` ` ` ` ` ` ` [ P t . #.#.#.#.#.#.#.#.#.#.#.#.#.#.#.#.#.#.#.#.#.#.#.#.#.#.#.#.#.#.#.#.#.#.#.#.#.#.",
"o.o.o.o.o.o.o.o.o.o.o.o.o.o.o.o.o.o.o.o.o.O.@.} N , #.#.#.#.#.#.#.#.#.#.#.#.#.#.#.#.#.#.#.#.#.#.#.#.#.#.#.#.#.#.#.#.#.#.#.#.#.#.",
"..........................................| o.} R c e + #.#.#.#.#.#.#.#.#.#.#.#.#.#.#.#.#.#.#.#.#.#.#.#.#.#.#.#.#.#.#.#.#.#.#.#.",
"| | | | | | | | | | | | | | | | | | | | | | | { _ F f @ #.#.#.#.#.#.#.#.#.#.#.#.#.#.#.#.#.#.#.#.#.#.#.#.#.#.#.#.#.#.#.#.#.#.#.#.",
"| | | | | | | | | | | ..| | | | | | | | | X.X.{ ) A f + #.#.#.#.#.#.#.#.#.#.#.#.#.#.#.#.#.#.#.#.#.#.#.#.#.#.#.#.#.#.#.#.#.#.#.#.",
"| | | | | | | | | | | | | ..| | | | | | | | X.{ ) A u + #.#.#.#.#.#.#.#.#.#.#.#.#.#.#.#.#.#.#.#.#.#.#.#.#.#.#.#.#.#.#.#.#.#.#.#.",
"| | | | | | | | | | | | | | | | | | | | | | | { ) A p @ #.#.#.#.#.#.#.#.#.#.#.#.#.#.#.#.#.#.#.#.#.#.#.#.#.#.#.#.#.#.#.#.#.#.#.#.",
"| | | | | | | | | | | | | | | | | | | | | | ..{ ) A u + #.#.#.#.#.#.#.#.#.#.#.#.#.#.#.#.#.#.#.#.#.#.#.#.#.#.#.#.#.#.#.#.#.#.#.#.",
"| | | | | | | | | | | ..| | | | | | | | | ..| } ) M u o o o o o o o o o o o o o o o o o - > #.#.#.#.#.#.#.#.#.#.#.#.#.#.#.#.#.#.",
"| ..| | | | | | | | | | | | | | | | | | | | o.{ Q M e = s z h h h h h h h h h h h h z d 8 - #.#.#.#.#.#.#.#.#.#.#.#.#.#.#.#.#.#.",
"| | | | | | | ..| | | | | | | | | | | | | X.X.{ ) M 6 t P [ ` ` ` ` ` ` ` ` ` ` / / [ P d O #.#.#.#.#.#.#.#.#.#.#.#.#.#.#.#.#.#.",
"| | | | | | | | | | | | | | | | | | | | | | X.{ ) M , s ' @.O.o.o.o.o.o.o.o.o.o.o.O.@.[ z o #.#.#.#.#.#.#.#.#.#.#.#.#.#.#.#.#.#.",
"| | | | | | | | | | | | | | | | | | | | | X.X.{ Q M 6 i ^ O.o...................| o.@.[ v O #.#.#.#.#.#.#.#.#.#.#.#.#.#.#.#.#.#.",
"| | | | | | | | | | | | | | | | | X.| | | X.X.| Q m 6 i ^ o.| | | ..| | | | | | ..| } C s o #.#.#.#.#.#.#.#.#.#.#.#.#.#.#.#.#.#.",
"| | ..| | | | | | | | | | ..| | X.X.| | X.X.X.} ( M 5 i ^ O...| | | | | | | | ..@.} B r #.#.#.#.#.#.#.#.#.#.#.#.#.#.#.#.#.#.#.#.",
"| | | | | | | | | | | | | | | } { { | } { { } _ Q M 5 i ^ o...| | | | | | ....| } V r   #.#.#.#.#.#.#.#.#.#.#.#.#.#.#.#.#.#.#.#.",
"| | | | | | | | | | | | | | o.} R R { { ( Y R R T M 5 i ^ o.| | | | | | | o.+.} B r #.#.#.#.#.#.#.#.#.#.#.#.#.#.#.#.#.#.#.#.#.#.",
"..............| ........| | X.} ( ( | } ( Y U U T Z 6 i ^ o.| | | | | | ..} [ C r   #.#.#.#.#.#.#.#.#.#.#.#.#.#.#.#.#.#.#.#.#.#.",
"o.O.O.o.o.o.o.o.o.O.O.o.o.O.O.o...o.o.o.o. .Q Y T Z 6 i ^ o...| | | | ..o.` N t #.#.#.#.#.#.#.#.#.#.#.#.#.#.#.#.#.#.#.#.#.#.#.#.",
"` ` ` ` ` ` ` ` / ` / / ` ` / ` / / / / / ! D F Y S 0 i ^ O...| | | | ..+.` i   #.#.#.#.#.#.#.#.#.#.#.#.#.#.#.#.#.#.#.#.#.#.#.#.",
"h h h h h h h h h h h h h h h h j h h h h d w k H H q i ^ o...| | | | ..O.` i   #.#.#.#.#.#.#.#.#.#.#.#.#.#.#.#.#.#.#.#.#.#.#.#.",
"o o o o o o o o o o o o o o o o X o o o o O o 7 n n , s ^ o...| | | | ..o.' N r #.#.#.#.#.#.#.#.#.#.#.#.#.#.#.#.#.#.#.#.#.#.#.#.",
"#.#.#.#.#.#.#.#.#.#.#.#.#.#.#.#.#.#.#.#.- ; & 3 y w @ d ^ o.| | | | | | | | [ C r   #.#.#.#.#.#.#.#.#.#.#.#.#.#.#.#.#.#.#.#.#.#.",
"#.#.#.#.#.#.#.#.#.#.#.#.#.#.#.#.#.#.#.#.: 1 1 - $ @ o d ^ O.| | | | | | | ..@.} B r #.#.#.#.#.#.#.#.#.#.#.#.#.#.#.#.#.#.#.#.#.#.",
"#.#.#.#.#.#.#.#.#.#.#.#.#.#.#.#.#.#.#.#.: < < ; ; # o s ` +.o.| | | | | | | | | | V 9   #.#.#.#.#.#.#.#.#.#.#.#.#.#.#.#.#.#.#.#.",
"#.#.#.#.#.#.#.#.#.#.#.#.#.#.#.#.#.#.#.#.: < : ; * > 4 x !  .} } | | | | | | | o.@.[ B r #.#.#.#.#.#.#.#.#.#.#.#.#.#.#.#.#.#.#.#.",
"#.#.#.#.#.#.#.#.#.#.#.#.#.#.#.#.#.#.#.#.: 2 1 * O 7 c H I R Y ( } ..| | | | | | ..| [ C s o #.#.#.#.#.#.#.#.#.#.#.#.#.#.#.#.#.#.",
"#.#.#.#.#.#.#.#.#.#.#.#.#.#.#.#.#.#.#.#.: : - 3 7 l H E U Y Y ( { ..o.| | ......| o.@.} b o #.#.#.#.#.#.#.#.#.#.#.#.#.#.#.#.#.#.",
"#.#.#.#.#.#.#.#.#.#.#.#.#.#.#.#.#.#.#.#.#.#.# p n L T T Y Q  .o.o.O.O.o.o.o.o.O.o.O.@.[ z o #.#.#.#.#.#.#.#.#.#.#.#.#.#.#.#.#.#.",
"#.#.#.#.#.#.#.#.#.#.#.#.#.#.#.#.#.#.#.#.#.#.O y Z L D S A J ^ ' / / / ` ` ` ` ` ` ` [ P d O #.#.#.#.#.#.#.#.#.#.#.#.#.#.#.#.#.#.",
"#.#.#.#.#.#.#.#.#.#.#.#.#.#.#.#.#.#.#.#.#.#.#.#.u f f p p f h h h h h h h h h h h h j d 8 - #.#.#.#.#.#.#.#.#.#.#.#.#.#.#.#.#.#.",
"#.#.#.#.#.#.#.#.#.#.#.#.#.#.#.#.#.#.#.#.#.#.#.#.+ @ @ + @ O o o o o o o o o o o o o o O - > #.#.#.#.#.#.#.#.#.#.#.#.#.#.#.#.#.#.",
"#.#.#.#.#.#.#.#.#.#.#.#.#.#.#.#.#.#.#.#.#.#.#.#.#.#.#.#.#.#.#.#.#.#.#.#.#.#.#.#.#.#.#.#.#.#.#.#.#.#.#.#.#.#.#.#.#.#.#.#.#.#.#.#.",
"#.#.#.#.#.#.#.#.#.#.#.#.#.#.#.#.#.#.#.#.#.#.#.#.#.#.#.#.#.#.#.#.#.#.#.#.#.#.#.#.#.#.#.#.#.#.#.#.#.#.#.#.#.#.#.#.#.#.#.#.#.#.#.#.",
"#.#.#.#.#.#.#.#.#.#.#.#.#.#.#.#.#.#.#.#.#.#.#.#.#.#.#.#.#.#.#.#.#.#.#.#.#.#.#.#.#.#.#.#.#.#.#.#.#.#.#.#.#.#.#.#.#.#.#.#.#.#.#.#.",
"#.#.#.#.#.#.#.#.#.#.#.#.#.#.#.#.#.#.#.#.#.#.#.#.#.#.#.#.#.#.#.#.#.#.#.#.#.#.#.#.#.#.#.#.#.#.#.#.#.#.#.#.#.#.#.#.#.#.#.#.#.#.#.#.",
"#.#.#.#.#.#.#.#.#.#.#.#.#.#.#.#.#.#.#.#.#.#.#.#.#.#.#.#.#.#.#.#.#.#.#.#.#.#.#.#.#.#.#.#.#.#.#.#.#.#.#.#.#.#.#.#.#.#.#.#.#.#.#.#.",
"#.#.#.#.#.#.#.#.#.#.#.#.#.#.#.#.#.#.#.#.#.#.#.#.#.#.#.#.#.#.#.#.#.#.#.#.#.#.#.#.#.#.#.#.#.#.#.#.#.#.#.#.#.#.#.#.#.#.#.#.#.#.#.#.",
"#.#.#.#.#.#.#.#.#.#.#.#.#.#.#.#.#.#.#.#.#.#.#.#.#.#.#.#.#.#.#.#.#.#.#.#.#.#.#.#.#.#.#.#.#.#.#.#.#.#.#.#.#.#.#.#.#.#.#.#.#.#.#.#.",
"#.#.#.#.#.#.#.#.#.#.#.#.#.#.#.#.#.#.#.#.#.#.#.#.#.#.#.#.#.#.#.#.#.#.#.#.#.#.#.#.#.#.#.#.#.#.#.#.#.#.#.#.#.#.#.#.#.#.#.#.#.#.#.#.",
"#.#.#.#.#.#.#.#.#.#.#.#.#.#.#.#.#.#.#.#.#.#.#.#.#.#.#.#.#.#.#.#.#.#.#.#.#.#.#.#.#.#.#.#.#.#.#.#.#.#.#.#.#.#.#.#.#.#.#.#.#.#.#.#.",
"#.#.#.#.#.#.#.#.#.#.#.#.#.#.#.#.#.#.#.#.#.#.#.#.#.#.#.#.#.#.#.#.#.#.#.#.#.#.#.#.#.#.#.#.#.#.#.#.#.#.#.#.#.#.#.#.#.#.#.#.#.#.#.#.",
"#.#.#.#.#.#.#.#.#.#.#.#.#.#.#.#.#.#.#.#.#.#.#.#.#.#.#.#.#.#.#.#.#.#.#.#.#.#.#.#.#.#.#.#.#.#.#.#.#.#.#.#.#.#.#.#.#.#.#.#.#.#.#.#.",
"#.#.#.#.#.#.#.#.#.#.#.#.#.#.#.#.#.#.#.#.#.#.#.#.#.#.#.#.#.#.#.#.#.#.#.#.#.#.#.#.#.#.#.#.#.#.#.#.#.#.#.#.#.#.#.#.#.#.#.#.#.#.#.#."
};
