/* XPM */
static char *result[] = {
/* columns rows colors chars-per-pixel */
"31 33 17 1 ",
"  c #17111A",
". c #1A1C2C",
"X c #753939",
"o c #34725C",
"O c #A05E47",
"+ c #CF7957",
"@ c #39855A",
"# c #4E9E56",
"$ c #6EAF74",
"% c #EC8A2D",
"& c #D9915D",
"* c #83E04C",
"= c #ECC269",
"- c #682B82",
"; c #BF3FB3",
": c #F3D8A0",
"> c None",
/* pixels */
">>>>>>>>>>>>>>>>>>>>>>>>>>>>>>>",
">>>>>>>>>>>>>>>>>>>>>>>>>>>>>>>",
">>>>>>>>>>>>>>>>>>>>>>>>>>>>>>>",
">>>>>>>>>>>>>>>>>>>>>>>>>>>>>>>",
">>>>>>>>>>>>>>>>>>>>>>>>>>>>>>>",
">>>>>>>>>>>>>>>>>>>>>>>   >>>>>",
">>>>>>>>>>>>>>>>>>>>>> $O% >>>>",
">>>>>>>>>>>>>>>>>>>>>> ##+& >>>",
">>>>>>>>>>>>>>>>>>>>> $#o#O >>>",
">>>>>>>>>>>>>>>>>>>> $#@@o# >>>",
">>>>>>>>>>>>>>>>>>> $#@@o  >>>>",
">>>>>>>>>>>>>>     ##@@o >>>>>>",
">>>>>>>>>>>>> $$$###@@o >>>>>>>",
">>>>>>>>>>>> +######@o.>>>>>>>>",
">>>>>>>>>>> :+###@@@o >>>>>>>>>",
">>>>>>>>>> :*:+#@@@@o >>>>>>>>>",
">>>>>>>>> :;*::+@@@@o >>>>>>>>>",
">>>>>>>> :;-;*::+@@@o.>>>>>>>>>",
">>>>>>> +:--::X==+@@o.>>>>>>>>>",
">>>>>> $+::::==X==++ >>>>>>>>>>",
">>>>> $##+:X====X== >>>>>>>>>>>",
">>>> $###o+=X=X=== >>>>>>>>>>>>",
">>> $###@@o+===X= >>>>>>>>>>>>>",
">>> $##@@@@o+=== >>>>>>>>>>>>>>",
">>> $##@@@@@o++ >>>>>>>>>>>>>>>",
">>> ##@@@@@@@o >>>>>>>>>>>>>>>>",
">>>> #@@@@@@o >>>>>>>>>>>>>>>>>",
">>>>> o@@@@o >>>>>>>>>>>>>>>>>>",
">>>>>> oooo >>>>>>>>>>>>>>>>>>>",
">>>>>>>    >>>>>>>>>>>>>>>>>>>>",
">>>>>>>>>>>>>>>>>>>>>>>>>>>>>>>",
">>>>>>>>>>>>>>>>>>>>>>>>>>>>>>>",
">>>>>>>>>>>>>>>>>>>>>>>>>>>>>>>"
};
