/* XPM */
static char *result[] = {
/* columns rows colors chars-per-pixel */
"64 59 233 2 ",
"   c #000000",
".  c #130000",
"X  c #1B0D07",
"o  c #1D1B04",
"O  c #1C1C0A",
"+  c #000614",
"@  c #0A1210",
"#  c #23221C",
"$  c #00002C",
"%  c #000F2E",
"&  c #00142D",
"*  c #000339",
"=  c #001B36",
"-  c #001835",
";  c #171429",
":  c #07222F",
">  c #022536",
",  c #052837",
"<  c #1A2939",
"1  c #062D38",
"2  c #272626",
"3  c #262B27",
"4  c #292B2B",
"5  c #282828",
"6  c #2E2D34",
"7  c #272C39",
"8  c #302E36",
"9  c #372C37",
"0  c #35333E",
"q  c #3A343C",
"w  c #3A3335",
"e  c #332E33",
"r  c #221E1E",
"t  c #4F0F0E",
"y  c #72000A",
"u  c #413137",
"i  c #44393A",
"p  c #523033",
"a  c #78313F",
"s  c #742F3F",
"d  c #661F3A",
"f  c #654639",
"g  c #08054F",
"h  c #000045",
"j  c #1A134C",
"k  c #3D3A4C",
"l  c #383543",
"z  c #3C3B58",
"x  c #2B2C4F",
"c  c #3D3465",
"v  c #27356E",
"b  c #152256",
"n  c #433842",
"m  c #593941",
"M  c #423A53",
"N  c #7D3A42",
"B  c #7B3641",
"V  c #643E44",
"C  c #463A62",
"Z  c #483A71",
"A  c #751A46",
"S  c #2D4759",
"D  c #3F5079",
"F  c #574649",
"G  c #464756",
"H  c #4D5151",
"J  c #65484B",
"K  c #7B4548",
"L  c #73544B",
"P  c #695654",
"I  c #765451",
"U  c #6D4E51",
"Y  c #6D6159",
"T  c #686A47",
"R  c #4B4B64",
"E  c #4D4B69",
"W  c #53446C",
"Q  c #53476B",
"!  c #53546B",
"~  c #4A4A76",
"^  c #584976",
"/  c #44547D",
"(  c #555472",
")  c #595A7A",
"_  c #604E7E",
"`  c #64506F",
"'  c #5B6479",
"]  c #6B6B6B",
"[  c #686C73",
"{  c #70706F",
"}  c #5A6744",
"|  c #9D4834",
" . c #833549",
".. c #893546",
"X. c #884749",
"o. c #875D5A",
"O. c #965852",
"+. c #94514C",
"@. c #B45955",
"#. c #AF5952",
"$. c #976758",
"%. c #936C5A",
"&. c #A76459",
"*. c #A5755B",
"=. c #B67B5D",
"-. c #BB6E5E",
";. c #8D6362",
":. c #996B65",
">. c #91756F",
",. c #A26D65",
"<. c #AB746B",
"1. c #A9746C",
"2. c #B27B68",
"3. c #C6625F",
"4. c #CD6A62",
"5. c #CB6A61",
"6. c #D16C63",
"7. c #DB7C69",
"8. c #D77567",
"9. c #C77260",
"0. c #E07B6A",
"q. c #BD8262",
"w. c #B78C7A",
"e. c #B7917D",
"r. c #AA8E77",
"t. c #8E837F",
"y. c #CB8D6A",
"u. c #D9886B",
"i. c #CE9169",
"p. c #DD956E",
"a. c #D1916A",
"s. c #CA867A",
"d. c #C88678",
"f. c #D38D7E",
"g. c #DE9A70",
"h. c #E3896D",
"j. c #E29C72",
"k. c #E69471",
"l. c #E4916F",
"z. c #C8B370",
"x. c #EAA275",
"c. c #E5A778",
"v. c #E6B37F",
"b. c #E8D373",
"n. c #E4CF63",
"m. c #533882",
"M. c #5E5E82",
"N. c #5A5C87",
"B. c #534A84",
"V. c #604C89",
"C. c #634F85",
"Z. c #67528A",
"A. c #6A538C",
"S. c #655887",
"D. c #6D5C92",
"F. c #6B5690",
"G. c #705F98",
"H. c #566188",
"J. c #5A6188",
"K. c #65658B",
"L. c #666A8F",
"P. c #697286",
"I. c #747A86",
"U. c #6B6B94",
"Y. c #6D6D99",
"T. c #696494",
"R. c #736C9E",
"E. c #726498",
"W. c #747599",
"Q. c #6E7198",
"!. c #6969A4",
"~. c #766FA2",
"^. c #7474A2",
"/. c #7975A6",
"(. c #7878A6",
"). c #7B7BAB",
"_. c #7578AC",
"`. c #7E7EB0",
"'. c #9A6B83",
"]. c #B07987",
"[. c #78849B",
"{. c #7F81B0",
"}. c #92928E",
"|. c #949494",
" X c #969A9C",
".X c #878A8D",
"XX c #BD9882",
"oX c #BB9680",
"OX c #AB909A",
"+X c #8488AA",
"@X c #8182B3",
"#X c #898BB7",
"$X c #8A98B8",
"%X c #929DBC",
"&X c #9798BA",
"*X c #9299A8",
"=X c #94A2BD",
"-X c #A5A5A5",
";X c #ACACB6",
":X c #BABABB",
">X c #A29BB6",
",X c #C29B84",
"<X c #D39483",
"1X c #DEB094",
"2X c #D1B089",
"3X c #ECBB9C",
"4X c #E6B598",
"5X c #F2BF9F",
"6X c #E5B186",
"7X c #EBC289",
"8X c #FAC6A5",
"9X c #9B9DC4",
"0X c #99A6C2",
"qX c #9AA8C3",
"wX c #ABB5CB",
"eX c #B4BDCF",
"rX c #C3BECC",
"tX c #BAC3D5",
"yX c #CCCCCC",
"uX c #C4C3C8",
"iX c #C8C6D7",
"pX c #D6D5D6",
"aX c #CDCFD5",
"sX c #D7DBE3",
"dX c #CFD4E0",
"fX c #E2E3E4",
"gX c #E3E4EB",
"hX c #EBEAED",
"jX c #F4F4F4",
"kX c #FDFDFD",
"lX c #F7F8FA",
"zX c #F2F0EC",
"xX c None",
/* pixels */
"xXxXxXxXxXxXxXxXxXxXxXxXxXxXxXxXxXxXxXxXxXxXxXxXxXxXxXxXxXxXxXxXxXxXxXxXxXxXxXxXxXxXxXxXxXxXxXxXxXxXxXxXxXxXxXxXxXxXxXxXxXxXxXxX",
"xXxXxXxXxXxXxXxXxXxXxXxXxXxXxXxXxXxXxXxXxXxXxXxXxXxXxXxXxXxXxXxXxXxXxXxXxXxXxXxXxXxXxXxXxXxXxXxXxXxXxXxXxXxXxXxXxXxXxXxXxXxXxXxX",
"xXxXxXxXxXxXxXxXxXxXxXxXxXxXxXxXxXxXxXxXxXxXxXxXxXxXxXxXxXxXxXxXxXxXxXxXxXxXxXxXxXxXxXxXxXxXxXxXxXxXxXxXxXxXxXxXxXxXxXxXxXxXxXxX",
"xXxXxXxXxXxXxXxXxXxXxXxXxXxXxXxXxXxXxXxXxXxXxXxXxXxXxXxXxXxXxXxXxXxXxXxXxXxXxXxXxXxXxXxXxXxXxXxXxXxXxXxXxXxXxXxXxXxXxXxXxXxXxXxX",
"xXxXxXxXxXxXxXxXxXxXxXxXxXxXxXxXxXxXxXxXxXxXxXxXxXxXxXxXxXxXxXxXxXxXxXxXxXxXxXxXxXxXxXxXxXxXxXxXxXxXxXxXxXxXxXxXxXxXxXxXxXxXxXxX",
"xXxXxXxXxXxXxXxXxXxXxXxXxXxXxX6 8 4 5 2 2 2 2 2 2 5 2 5 2 2 4 xXxXxXxXxXxXxXxXxXxXxXxXxXxXxXxXxXxXxXxXxXxXxXxXxXxXxXxXxXxXxXxXxX",
"xXxXxXxXxXxXxXxXxXxXxXxXxXxXk Q W ^ S.L.K.K.K.K.K.K.K.K.K.!.H.S xXxXxXxXxXxXxXxXxXxXxXxXxXxXxXxXxXxXxXxXxXxXxXxXxXxXxXxXxXxXxXxX",
"xXxXxXxXxXxXxXxXxXxXxXxXxX6 Q Z.A.D.(.).(.).)./.(.).).(.).'.{./ e xXxXxXxXxXxXxXxXxXxXxXxXxXxXxXxXxXxXxXxXxXxXxXxXxXxXxXxXxXxXxX",
"xXxXxXxXxXxXxXxXxXxXxXxXl W Z.Z.~.~.c h g g g g g g g h h N.@X).S.l xXxXxXxXxXxXxXxXxXxXxXxXxXxXxXxXxXxXxXxXxXxXxXxXxXxXxXxXxXxX",
"xXxXxXxXxXxXxXxXxXxXxX3 M S.F.Z.G.~..X|.|.|.|.}.|.|.|.|.}.[.Q.{.W.G O xXxXxXxXxXxXxXxXxXxXxXxXxXxXxXxXxXxXxXxXxXxXxXxXxXxXxXxXxX",
"xXxXxXxXxXxXxXxXxXxXxX3 M _ F.A.j { fXkXkXkXkXlXlXkXkXkXkX:Xj Q.^.k xXxXxXxXxXxXxXxXxXxXxXxXxXxXxXxXxXxXxXxXxXxXxXxXxXxXxXxXxXxX",
"xXxXxXxXxXxXxXxXxXxXxX3 k _ F.A.* ] zXkXuX:XpXkXzXuX:XpXkXyX  T.^.k xXxXxXxXxXxXxXxXxXxXxXxXxXxXxXxXxXxXxXxXxXxXxXxXxXxXxXxXxXxX",
"xXxXxXxXxXxXxXxXxXxXxX3 k _ A.A.g { jXpX    { lXpX    .XlXyX$ U.W.k xXxXxXxXxXxXxXxXxXxXxXxXxXxXxXxXxXxXxXxXxXxXxXxXxXxXxXxXxXxX",
"xXxXxXxXxXxXxXxXxXxXxX3 k _ A.A.* ] kXfX    ] jXpX    { kXpX  T.^.k xXxXxXxXxXxXxXxXxXxXxXxXxXxXxXxXxXxXxXxXxXxXxXxXxXxXxXxXxXxX",
"xXxXxXxXxXxXxXxXxXxXxX3 M _ F.A.Z I.yXyX-X|.:XkXfX-X X;XpX;X/ !.^.k xXxXxXxXxXxXxXxXxXxXxXxXxXxXxXxXxXxXxXxXxXxXxXxXxXxXxXxXxXxX",
"xXxXxXxXxXxXxXxXxXxXxX3 k _ A.Z.W.(.j -XlXkXkXkXkXkXkXfX[ ~ _.@XQ.k xXxXxXxXxXxXxXxXxXxXxXxXxXxXxXxXxXxXxXxXxXxXxXxXxXxXxXxXxXxX",
"xXxXxXxXxXxXxXxXxXxXxX3 M _ A.Z./.^.  -XkXgXiXkXhXrXkXjXF b `.@XQ.k xXxXxXxXxXxXxXxXxXxXxXxXxXxXxXxXxXxXxXxXxXxXxXxXxXxXxXxXxXxX",
"xXxXxXxXxXxXxXxXxXxXxX3 k _ A.Z.~.^.x =XjX>XE.hXiXm.pXgX' ~ {.`.Y.k xXxXxXxXxXxXxXxXxXxXxXxXxXxXxXxXxXxXxXxXxXxXxXxXxXxXxXxXxXxX",
"xXxXxXxXxX# # # 8 0 xXxXk _ Z.A.R.@X_.{.9X+X/.&X#X/.&X&XR._.{.{.Q.k xXxX0 6 2 # # xXxXxXxXxXxXxXxXxXxXxXxXxXxXxXxXxXxXxXxXxXxXxX",
"xXxXxXxXG ( K.) R 8 xXxXk _ A.Z.R.'.{._.!.(.).!.^.).!.!.'.@X_.{.Q.k xXxX6 E ) K.( G xXxXxXxXxXxXxXxXxXxXxXxXxXxXxXxXxXxXxXxXxXxX",
"xXxXxXo E ^.'.`.( O xXxXM C.A.Z.~.).).).).).).).).).).).`._.{.{.Q.k xXxXO ) (.`.^.R o xXxXxXxXxXxXxXxXxXxXxXxXxXxXxXxXxXxXxXxXxX",
"xXxXxXo ! ).!.B.l o O O 5 n C C.F.G.D.!.).).).).).).)./.T.^._.!.F.^ z o o l ( ^./.R o xXxXxXxXxXxXxXxXxXxXxXxXxXxXxXxXxXxXxXxXxX",
"xXxXxXo ! (.Q.S G R E R R M ( D.D.F.T.!._.{.).).).).`.^.D.R.`.!.F.G._ R R G G U.(.E o xXxXxXxXxXxXxXxXxXxXxXxXxXxXxXxXxXxXxXxXxX",
"xXxXxXO ! _.{.(.(.(.(.(.(./.(.(.).)._.{.`.@X@X'.`.`.`.`.).`.'.).).).(.(.(././.@X(.E o xXxXxXxXxXxXxXxXxXxXxXxXxXxXxXxXxXxXxXxXxX",
"xXxXxXxXG J.Y.U.U.U.K.T.L.L.L.K.K.K.K.K.K.M.N.H.H.H.N.H.J.J.K.K.K.K.L.L.U.U.U.U.J.G xXxXxXxXxXxXxXxXxXxXxXxXxXxXxXxXxXxXxXxXxXxX",
"xXxXxXxXxX6 8 8 6 6 6 8 8 8 8 8 6 6 6 6 e w w u u u u w u w 8 6 6 6 8 8 6 6 8 8 6 xXxXxXxXxXxXxXxXxXxXxXxXxXxXxXxXxXxXxXxXxXxXxX",
"xXxXxXxXxXxXxXxXxXxX8 : & 7 @       2 , & +.@.#.#.#.#.@.@.N $ , 7 & : 8 xXxXxXxXxXxXxXxXxXxXxXxXxXxXxXxXxXxXxXxXxXxXxXxXxXxXxXxX",
"xXxXxXxXxXxXxXxXxXxX7 J I u ! |. X.XG 9 f 9.0.u.7.8.7.7.h.-.L i n I J 7 xXxXxXxXxXxXxXxXxXxXxXxXxXxXxXxXxXxXxXxXxXxXxXxXxXxXxXxX",
"xXxXxXxXxXxXxXxXxXxX, ,.d.t  XlXkXzXI.y 9.u.g.g.l.p.g.l.g.g.a.L U 9.:.> xXxXxXxXxXxXxXxXxXxXxXxXxXxXxXxXxXxXxXxXxXxXxXxXxXxXxXxX",
"xXxXxXxXxXxXxXxXxXxX> <.s.N [ :XaX:XS y 8.l.j.g.c.v.v.v.j.x.x.f P 1Xw.& xXxXxXxXxXxXxXxXxXxXxXxXxXxXxXxXxXxXxXxXxXxXxXxXxXxXxXxX",
"xXxXxXxXxXxXxXxXxXxX1 1.s.I 1 G ; + G ;.3.a.g.p.c.6X7X6Xj.p.i.L >.3X,X$ xXxXxXxXxXxXxXxXxXxXxXxXxXxXxXxXxXxXxXxXxXxXxXxXxXxXxXxX",
"xXxXxXxXxXxXxXxXxXxX, 1.s.t [.zX-XG fXyXs #.h.l.c.c.v.c.x.=.f e.4X5Xe.$ xXxXxXxXxXxXxXxXxXxXxXxXxXxXxXxXxXxXxXxXxXxXxXxXxXxXxXxX",
"xXxXxXxXxXxXxXxXxX% - ,.s.+.OXfX*XH pXyXI ..@.q.q.=.=.=.q.:.>.1X8X8XoX$ xXxXxXxXxXxXxXxXxXxXxXxXxXxXxXxXxXxXxXxXxXxXxXxXxXxXxXxX",
"xXxXxXxXxXxXxXxX< , - :.f.<X1.H 1 x 1 ;.s.o.& 8 0 9 q 7 $ r.7X8X5X5XoX$ xXxXxXxXxXxXxXxXxXxXxXxXxXxXxXxXxXxXxXxXxXxXxXxXxXxXxXxX",
"xXxXxXxXxXxXxX= $.q.=.%.;.s.s.&.,.1.O.w.4X2Xe.,XXXXXXXXXe.1X8X8X4XoXP < = xXxXxXxXxXxXxXxXxXxXxXxXxXxXxXxXxXxXxXxXxXxXxXxXxXxXxX",
"xXxXxXxXxXxX0 I a.x.x.*.F 1.d.d.d.d.7.<X4X4X4X3X4X4X4X4X4X4X1X1X,Xm $ l F F xXxXxXxXxXxXxXxXxXxXxXxXxXxXxXxXxXxXxXxXxXxXxXxXxXxX",
"xXxXxXxXxX= $.a.g.j.j.g.y.o.F F H F F P ] P Y Y Y Y Y Y Y Y P Y o.@.X.l %.%.l xXxX. . . . . . . . X     b !.`.N.  ~ ^.R O xXxXxX",
"xXxXxXxXxX= 2.x.c.p.h.y.2.i $ X.X.K K N A B  .N N N  .B a s a d O.7.&.7 $.&.n + xX' I.P.P.P.P.P.P.J.[.-XiXiX9X$X;X;X#X' X xXxXxX",
"xXxXxXxXxX= *.g.j.p.8.+.> > K 5.6.4.4.4.6.6.6.6.6.6.6.6.6.6.5.5.7.k.*.7 X.X.0 + R $X0X=X=X=X%X=X=X$XtXlXkXlXwXtXkXsX+X!   xXxXxX",
"xXxXxXxXxX> &.h.h.9. .:.,X2XoXO.@.7.l.k.k.&.A B  . .y | u.k.l.p.k.x.*.7 $.$.q ~ (.=XqXqX0XqX0X0XqXdXjXkXjXiXgXgXdXtX%X'   xXxXxX",
"xXxXxXxXxX1 X.5.3.@.P XX8X5XXX1 ..9.y.a.i.q.} } T T [ t.i.a.y.i.a.i.%.8 %.$.w N.{.$X=X%X%X%X%X$X0XgXlXjXtX$XgXgX$X$X+X!   xXxXxX",
"xXxXxXxXxXxXm J u %.1X8X5X>.8 5 u s f m f z.b.n.n.b.zXfX{ t f f f f i i +.X.q l ! (.#X{.@X@X`.$XqXwXwX0X=XqX0X9X{.Q.G xXxXxXxXxX",
"xXxXxXxXxXxXxX> $ Y s.2Xe.P b M.' / / v v r.2X2Xz.2XpXiX[ v / D / / S u X.X.q @ l ) T.L.K.K.K.W.[.[.L.B.Q.[.J.B.T.E xXxXxXxXxXxX",
"xXxXxXxXxXxXxXxX0 l < : x _ !._.(.(.{.W.S.C.N.N.V.V.V.Z.(.{.{.{.`.'.) w X.X.q xXxX6 0 7 8 6 6 6 6 6 6 8 6 6 8 8 8 xXxXxXxXxXxXxX",
"xXxXxXxXxXxXxXxXxX7 : c ^ V.D.E.S.! ) ( R C c c C c c c ( ( ( ^.@X`.N.4 V m xXxXxXxXxXxXxXxXxXxXxXxXxXxXxXxXxXxXxXxXxXxXxXxXxXxX",
"xXxXxXxXxXxXxXxXxXxX6 E V.Z.Z.Z.R o # # 5 4 4 4 3 4 5 2 # 5 M T.`._.N.5 < xXxXxXxXxXxXxXxXxXxXxXxXxXxXxXxXxXxXxXxXxXxXxXxXxXxXxX",
"xXxXxXxXxXxXxXxXxXxX0 7 x B.F.F.W 6 xXxXxXxXxXxXxXxXxXxX6 Q Z.V.!._.H.7 xXxXxXxXxXxXxXxXxXxXxXxXxXxXxXxXxXxXxXxXxXxXxXxXxXxXxXxX",
"xXxXxXxXxXxXxXxXxXxX7 I :.].'.^ z xXxXxXxXxXxXxXxXxXxXxXxXC _ '.].OX'.> xXxXxXxXxXxXxXxXxXxXxXxXxXxXxXxXxXxXxXxXxXxXxXxXxXxXxXxX",
"xXxXxXxXxXxXxXxXxXxX, ,.<X<X1.q xXxXxXxXxXxXxXxXxXxXxXxXxXxXi 2.f.s.:.> xXxXxXxXxXxXxXxXxXxXxXxXxXxXxXxXxXxXxXxXxXxXxXxXxXxXxXxX",
"xXxXxXxXxXxXxXxXxXxX7 U o.;.I xXxXxXxXxXxXxXxXxXxXxXxXxXxXxXxXI ;.o.U 7 xXxXxXxXxXxXxXxXxXxXxXxXxXxXxXxXxXxXxXxXxXxXxXxXxXxXxXxX",
"xXxXxXxXxXxXxXxXxXxXl > % & xXxXxXxXxXxXxXxXxXxXxXxXxXxXxXxXxXxX% % , l xXxXxXxXxXxXxXxXxXxXxXxXxXxXxXxXxXxXxXxXxXxXxXxXxXxXxXxX",
"xXxXxXxXxXxXxXxXxXxXxXxXxXxXxXxXxXxXxXxXxXxXxXxXxXxXxXxXxXxXxXxXxXxXxXxXxXxXxXxXxXxXxXxXxXxXxXxXxXxXxXxXxXxXxXxXxXxXxXxXxXxXxXxX",
"xXxXxXxXxXxXxXxXxXxXxXxXxXxXxXxXxXxXxXxXxXxXxXxXxXxXxXxXxXxXxXxXxXxXxXxXxXxXxXxXxXxXxXxXxXxXxXxXxXxXxXxXxXxXxXxXxXxXxXxXxXxXxXxX",
"xXxXxXxXxXxXxXxXxXxXxXxXxXxXxXxXxXxXxXxXxXxXxXxXxXxXxXxXxXxXxXxXxXxXxXxXxXxXxXxXxXxXxXxXxXxXxXxXxXxXxXxXxXxXxXxXxXxXxXxXxXxXxXxX",
"xXxXxXxXxXxXxXxXxXxXxXxXxXxXxXxXxXxXxXxXxXxXxXxXxXxXxXxXxXxXxXxXxXxXxXxXxXxXxXxXxXxXxXxXxXxXxXxXxXxXxXxXxXxXxXxXxXxXxXxXxXxXxXxX",
"xXxXxXxXxXxXxXxXxXxXxXxXxXxXxXxXxXxXxXxXxXxXxXxXxXxXxXxXxXxXxXxXxXxXxXxXxXxXxXxXxXxXxXxXxXxXxXxXxXxXxXxXxXxXxXxXxXxXxXxXxXxXxXxX",
"xXxXxXxXxXxXxXxXxXxXxXxXxXxXxXxXxXxXxXxXxXxXxXxXxXxXxXxXxXxXxXxXxXxXxXxXxXxXxXxXxXxXxXxXxXxXxXxXxXxXxXxXxXxXxXxXxXxXxXxXxXxXxXxX",
"xXxXxXxXxXxXxXxXxXxXxXxXxXxXxXxXxXxXxXxXxXxXxXxXxXxXxXxXxXxXxXxXxXxXxXxXxXxXxXxXxXxXxXxXxXxXxXxXxXxXxXxXxXxXxXxXxXxXxXxXxXxXxXxX",
"xXxXxXxXxXxXxXxXxXxXxXxXxXxXxXxXxXxXxXxXxXxXxXxXxXxXxXxXxXxXxXxXxXxXxXxXxXxXxXxXxXxXxXxXxXxXxXxXxXxXxXxXxXxXxXxXxXxXxXxXxXxXxXxX"
};
