/* XPM */
static char *result[] = {
/* columns rows colors chars-per-pixel */
"65 54 230 2 ",
"   c black",
".  c #070006",
"X  c #130603",
"o  c #1D1B04",
"O  c #1D1C07",
"+  c #00001B",
"@  c #000415",
"#  c #1E1616",
"$  c #0B1200",
"%  c #201A16",
"&  c #290000",
"*  c #222017",
"=  c #23221C",
"-  c #00012C",
";  c #00082A",
":  c #00162B",
">  c #000533",
",  c #001A33",
"<  c #001633",
"1  c #191A32",
"2  c #27142A",
"3  c #002133",
"4  c #062837",
"5  c #1B2D3B",
"6  c #172B36",
"7  c #0E313B",
"8  c #262625",
"9  c #282627",
"0  c #262C26",
"q  c #2A2A2B",
"w  c #272A29",
"e  c #2D2C32",
"r  c #242D3B",
"t  c #292E39",
"y  c #322E36",
"u  c #2B303B",
"i  c #32313C",
"p  c #39353E",
"a  c #1F2011",
"s  c #400000",
"d  c #64080E",
"f  c #453235",
"g  c #45373B",
"h  c #563837",
"j  c #4C2930",
"k  c #6C343E",
"l  c #4A2911",
"z  c #594135",
"x  c #6C493D",
"c  c #02004D",
"v  c #000042",
"b  c #131152",
"n  c #1B3442",
"m  c #3B3747",
"M  c #3B3859",
"N  c #2F304F",
"B  c #3E3763",
"V  c #293C77",
"C  c #443A42",
"Z  c #433D54",
"A  c #5D3B41",
"S  c #683D43",
"D  c #7A3843",
"F  c #782746",
"G  c #423A67",
"H  c #54347C",
"J  c #680043",
"K  c #3E4252",
"L  c #3A4669",
"P  c #53444A",
"I  c #5B4749",
"U  c #47465A",
"Y  c #55514F",
"T  c #674949",
"R  c #744A47",
"E  c #745949",
"W  c #684F51",
"Q  c #635A55",
"!  c #655A56",
"~  c #765452",
"^  c #7A5A56",
"/  c #675148",
"(  c #72704F",
")  c #4B4A64",
"_  c #4A4665",
"`  c #53466C",
"'  c #51516D",
"]  c #525C63",
"[  c #4B4B74",
"{  c #594A76",
"}  c #47557E",
"|  c #555574",
" . c #5B5B7D",
".. c #58567A",
"X. c #5C647A",
"o. c #5A6369",
"O. c #666B74",
"+. c #717579",
"@. c #7E5A77",
"#. c #8E2429",
"$. c #853E45",
"%. c #86474A",
"&. c #964A4C",
"*. c #845957",
"=. c #92534E",
"-. c #A55C57",
";. c #B65A57",
":. c #AD5F45",
">. c #97665B",
",. c #8D6A53",
"<. c #A7675A",
"1. c #B86559",
"2. c #B57A5D",
"3. c #A4755B",
"4. c #876B62",
"5. c #8C7367",
"6. c #946D6A",
"7. c #A26D69",
"8. c #AA7469",
"9. c #B57A68",
"0. c #B77B73",
"q. c #C2645B",
"w. c #CE6962",
"e. c #D16D63",
"r. c #DB7C69",
"t. c #D77466",
"y. c #CA7463",
"u. c #E1796B",
"i. c #A98573",
"p. c #B9876B",
"a. c #C98C66",
"s. c #DA876B",
"d. c #DD966F",
"f. c #DA966E",
"g. c #C78578",
"h. c #D28C7E",
"j. c #DE9A70",
"k. c #CD9273",
"l. c #E2876D",
"z. c #E49471",
"x. c #E29C72",
"c. c #EB9973",
"v. c #CDB872",
"b. c #E9A778",
"n. c #E6B17F",
"m. c #ECD774",
"M. c #E7D05D",
"N. c #5B4588",
"B. c #495782",
"V. c #545F85",
"C. c #5D5C83",
"Z. c #634F82",
"A. c #665289",
"S. c #6A538C",
"D. c #665488",
"F. c #6D5690",
"G. c #6D5C93",
"H. c #675B92",
"J. c #5A6485",
"K. c #64658A",
"L. c #666888",
"P. c #6A6A92",
"I. c #6E6D9C",
"U. c #6A6494",
"Y. c #72689B",
"T. c #74749B",
"R. c #6E7A94",
"E. c #756EA1",
"W. c #7573A3",
"Q. c #7975A6",
"!. c #7B7BAB",
"~. c #7776A8",
"^. c #7E7EB1",
"/. c #6868A2",
"(. c #8B7394",
"). c #B27987",
"_. c #817FAF",
"`. c #7C879E",
"'. c #7D889F",
"]. c #778385",
"[. c #7B84A7",
"{. c #7F80B0",
"}. c #8B8B8C",
"|. c #949492",
" X c #9B9B9D",
".X c #989797",
"XX c #8D8D93",
"oX c #B49482",
"OX c #ABA18F",
"+X c #8488AC",
"@X c #8182B4",
"#X c #8E8FB2",
"$X c #8D9BBA",
"%X c #8B94B8",
"&X c #989BBB",
"*X c #9995A6",
"=X c #96A5BF",
"-X c #9CA6A9",
";X c #A7A8A8",
":X c #BCBBBC",
">X c #B4B3B4",
",X c #ACA5B1",
"<X c #C49C85",
"1X c #C99E86",
"2X c #D49684",
"3X c #CDA28A",
"4X c #D2B18F",
"5X c #E5B598",
"6X c #ECBB9C",
"7X c #E5B397",
"8X c #EAB48F",
"9X c #E39B89",
"0X c #EBCA8D",
"qX c #F8C4A3",
"wX c #99A7C2",
"eX c #9AA9C4",
"rX c #B5B9C6",
"tX c #ACB4CD",
"yX c #949DC1",
"uX c #BDC4D5",
"iX c #C8C8C8",
"pX c #CACCD6",
"aX c #D7D6D8",
"sX c #D1CDD8",
"dX c #DADCE2",
"fX c #E8E9EB",
"gX c #EAEBF1",
"hX c #FEFEFE",
"jX c #F5F5F6",
"kX c None",
/* pixels */
"kXkXkXkXkXkXkXkXkXkXkXkXkXkXkXkXkXkXkXkXkXkXkXkXkXkXkXkXkXkXkXkXkXkXkXkXkXkXkXkXkXkXkXkXkXkXkXkXkXkXkXkXkXkXkXkXkXkXkXkXkXkXkXkXkX",
"kXkXkXkXkXkXkXkXkXkXkXkXkXkXkXkXkXkXkXkXkXkXkXkXkXkXkXkXkXkXkXkXkXkXkXkXkXkXkXkXkXkXkXkXkXkXkXkXkXkXkXkXkXkXkXkXkXkXkXkXkXkXkXkXkX",
"kXkXkXkXkXkXkXkXkXkXkXkXkXkXkXkXkXkXkXkXkXkXkXkXkXkXkXkXkXkXkXkXkXkXkXkXkXkXkXkXkXkXkXkXkXkXkXkXkXkXkXkXkXkXkXkXkXkXkXkXkXkXkXkXkX",
"kXkXkXkXkXkXkXkXkXkXkXkXkXkXkXkXkXkXkXkXkXkXkXkXkXkXkXkXkXkXkXkXkXkXkXkXkXkXkXkXkXkXkXkXkXkXkXkXkXkXkXkXkXkXkXkXkXkXkXkXkXkXkXkXkX",
"kXkXkXkXkXkXkXkXkXkXkXkXkXkXkXkXkXkXkXkXkXkXkXkXkXkXkXkXkXkXkXkXkXkXkXkXkXkXkXkXkXkXkXkXkXkXkXkXkXkXkXkXkXkXkXkXkXkXkXkXkXkXkXkXkX",
"kXkXkXkXkXkXkXkXkXkXkXkXkXkXkXe e e w 9 9 9 9 9 9 9 9 9 9 9 9 kXkXkXkXkXkXkXkXkXkXkXkXkXkXkXkXkXkXkXkXkXkXkXkXkXkXkXkXkXkXkXkXkXkX",
"kXkXkXkXkXkXkXkXkXkXkXkXkXkXZ ` ` { K.K.K.K.K.K.K.K.K.K.K.P.| e kXkXkXkXkXkXkXkXkXkXkXkXkXkXkXkXkXkXkXkXkXkXkXkXkXkXkXkXkXkXkXkXkX",
"kXkXkXkXkXkXkXkXkXkXkXkXkXi { S.S.U.Q.!.!.!.!.!.!.!.!.!.!.@XT._ q kXkXkXkXkXkXkXkXkXkXkXkXkXkXkXkXkXkXkXkXkXkXkXkXkXkXkXkXkXkXkXkX",
"kXkXkXkXkXkXkXkXkXkXkXkXm { Z.S.Q.Y.N v c c c c c c c v b I.@XW.| q kXkXkXkXkXkXkXkXkXkXkXkXkXkXkXkXkXkXkXkXkXkXkXkXkXkXkXkXkXkXkX",
"kXkXkXkXkXkXkXkXkXkXkXw U S.F.S.P.T.XX|..X.X|.|.|..X.X|.XXR.E.@XP.q kXkXkXkXkXkXkXkXkXkXkXkXkXkXkXkXkXkXkXkXkXkXkXkXkXkXkXkXkXkXkX",
"kXkXkXkXkXkXkXkXkXkXkX0 Z Z.F.S.v }.gXhXhXhXhXjXhXhXhXhXjX Xb Q.L.q kXkXkXkXkXkXkXkXkXkXkXkXkXkXkXkXkXkXkXkXkXkXkXkXkXkXkXkXkXkXkX",
"kXkXkXkXkXkXkXkXkXkXkX0 Z Z.S.A.+ }.hXfX:X:XaXhXfX:X:XfXhX X> ~.P.q kXkXkXkXkXkXkXkXkXkXkXkXkXkXkXkXkXkXkXkXkXkXkXkXkXkXkXkXkXkXkX",
"kXkXkXkXkXkXkXkXkXkXkXw Z Z.F.S.- XXhXiX     XhX>X    >XhX;X> ~.L.q kXkXkXkXkXkXkXkXkXkXkXkXkXkXkXkXkXkXkXkXkXkXkXkXkXkXkXkXkXkXkX",
"kXkXkXkXkXkXkXkXkXkXkX0 Z Z.F.D.@ XXhXiX    .XhX;X    >XhX;X- !.U.q kXkXkXkXkXkXkXkXkXkXkXkXkXkXkXkXkXkXkXkXkXkXkXkXkXkXkXkXkXkXkX",
"kXkXkXkXkXkXkXkXkXkXkX0 Z Z.S.S.G }.sXiX X XpXhXaX X X:XaXXX[ !.K.q kXkXkXkXkXkXkXkXkXkXkXkXkXkXkXkXkXkXkXkXkXkXkXkXkXkXkXkXkXkXkX",
"kXkXkXkXkXkXkXkXkXkXkX0 Z Z.S.S.Q.I.1 :XhXhXhXhXhXhXhXiXN K.^.^.K.q kXkXkXkXkXkXkXkXkXkXkXkXkXkXkXkXkXkXkXkXkXkXkXkXkXkXkXkXkXkXkX",
"kXkXkXkXkXkXkXkXkXkXkX0 U { S.S.!.U.  iXhXsXaXhXdXpXhXaX  C.@X{.K.q kXkXkXkXkXkXkXkXkXkXkXkXkXkXkXkXkXkXkXkXkXkXkXkXkXkXkXkXkXkXkX",
"kXkXkXkXkXkXkXkXkXkXkX0 Z A.S.S.Q.I.N rXgX(.#XjX,XG.fXpXM H.{.!.K.q kXkXkXkXkXkXkXkXkXkXkXkXkXkXkXkXkXkXkXkXkXkXkXkXkXkXkXkXkXkXkX",
"kXkXkXkXkX= = 8 i p kX0 Z Z.S.S.W.!.I.+X&X!._.&X@XQ.&X#XI.~.{.{.K.q kXkXi q * = kXkXkXkXkXkXkXkXkXkXkXkXkXkXkXkXkXkXkXkXkXkXkXkXkX",
"kXkXkXkXU | U.O.U q kX= Z A.S.S.W._.@X~./.!.~.U.~.!./.W.{.!.!.{.K.% kXkXp | K.L.' kXkXkXkXkXkXkXkXkXkXkXkXkXkXkXkXkXkXkXkXkXkXkXkX",
"kXkXkXO ' ~._.~.' o kX0 Z { A.S.W.!.!.!.!.!.!.!.!.!.!.!.!.!.!._.K.q kXkXu P.!.@XP.y kXkXkXkXkXkXkXkXkXkXkXkXkXkXkXkXkXkXkXkXkXkXkX",
"kXkXkXO | !.I.) i o o * y m H A.G.U.G.E.!.!.!.!.!.!.!.W.G.Q.Q.U.A.` m $ = m  .!.I.y kXkXkXkXkXkXkXkXkXkXkXkXkXkXkXkXkXkXkXkXkXkXkX",
"kXkXkXO ' !.P.M U ' ' ' ) U ..G.G.F.F.Y.^.!.!.!.!.!.!.E.G.Q.Q.G.G.G.{ ) ) U ' !.I.e kXkXkXkXkXkXkXkXkXkXkXkXkXkXkXkXkXkXkXkXkXkXkX",
"kXkXkXo | !.{.Q.!.!.T.Q.!.Q.!.!.!.!.!.^._.!.^.^.!.^.^.^.!.!.^.!.!.!.!.!.!.~.!.@XP.i kXkXkXkXkXkXkXkXkXkXkXkXkXkXkXkXkXkXkXkXkXkXkX",
"kXkXkXkXU K.P.P.P.P.K.K.L.P.K.K.K.K.K.K.K.V.V.V.V.J.V.V.C.J.K.K.K.K.K.P.P.P.P.P.| e kXkXkXkXkXkXkXkXkXkXkXkXkXkXkXkXkXkXkXkXkXkXkX",
"kXkXkXkXkXe q e q e e e e q e q q e e q e f f f f f f f j y q e e q e e e q e e e kXkXkXkXkXkXkXkXkXkXkXkXkXkXkXkXkXkXkXkXkXkXkXkX",
"kXkXkXkXkXkXkXkXkXq y 3 : y @       q 3 t &.;.;.;.;.;.;.;.h ; e 4 : e e kXkXkXkXkXkXkXkXkXkXkXkXkXkXkXkXkXkXkXkXkXkXkXkXkXkXkXkXkX",
"kXkXkXkXkXkXkXkXkXkXi W ~ e O. X;X}.K j %.y.l.r.r.r.r.r.s.<./ p I ~ A 5 kXkXkXkXkXkXkXkXkXkXkXkXkXkXkXkXkXkXkXkXkXkXkXkXkXkXkXkXkX",
"kXkXkXkXkXkXkXkXkXkXr 8.0.s >XhXhXdX] #.e.d.j.j.f.d.f.f.j.j.a.g >.g.~ : kXkXkXkXkXkXkXkXkXkXkXkXkXkXkXkXkXkXkXkXkXkXkXkXkXkXkXkXkX",
"kXkXkXkXkXkXkXkXkXkXr 0.h.h +.:XiX;X; #.u.d.j.x.b.n.n.b.j.b.a.: 8.9X4.; kXkXkXkXkXkXkXkXkXkXkXkXkXkXkXkXkXkXkXkXkXkXkXkXkXkXkXkXkX",
"kXkXkXkXkXkXkXkXkXkXu 0.g.W n U + ; o.7.w.f.d.x.n.0X8Xn.j.j.a./ oXqX5.+ kXkXkXkXkXkXkXkXkXkXkXkXkXkXkXkXkXkXkXkXkXkXkXkXkXkXkXkXkX",
"kXkXkXkXkXkXkXkXkXkXr 0.y.& -XgX}.+.fX:Xd q.l.x.b.b.b.b.x.=.E 3X6X5X5.+ kXkXkXp r 3 kXkXkXkXkXkXkXkXkXkXkXkXkXkXkXkXkXkXkXkXkXkXkX",
"kXkXkXkXkXkXkXkXkX> 4 8.h.%.;XaX].O.dX>Xk &.1.2.2.2.2.2.9.6.i.6XqX6X4.+ kXkXkXr T ~ I kXkXkXkXkXkXkXkXkXkXkXkXkXkXkXkXkXkXkXkXkXkX",
"kXkXkXkXkXkXkXkXr 4 n 8.h.2X8.m 5 r 7 7.g.~ < i i i i , g 1XqX6XqX6X4.- u r r 4 *.8.~ 3 kXkXy u u y e y e e e X _ ~.{.~.M ) !.C.9 ",
"kXkXkXkXkXkXkX5 3.9.-.%.4.h.g.<.8.8.<.h.5X3XoX3X<X<X<XoX<X6XqXqX3X4.Z I 7.<XoXY S -./ 3   O.+X'.'.'.[.'.[.`.R.rXdXfXtX%XpXaXyXJ.= ",
"kXkXkXkXkXkXg *.d.c.r.&.I 9.g.g.g.g.g.2X5X5X5X5X7X7X7X7X7X7X4X7Xi.2 - *.h.6X7X~ h =.k 6 K [.eXeXwXwXwXwXeXeXtXjXhXhXdXtXjXgX=XL.# ",
"kXkXkXkXkX3 >.f.x.x.d.t.;.W Z P P P P I W Q Q Q ! ! ! ! W Q Y Q -.;.h ^ h.9Xh.I R 8.x L I.%X=XwX=X=X=X=X$XpXhXhXjXtXdXhXpXeXeXR.2 ",
"kXkXkXkX, - p.b.x.x.b.s.w.&.D %.%.%.%.D $.$.$.$.$.$.$.$.$.D D k 1.r.R P 7.8.>.C R <.x M P.+X&X%X%X$X%X%X$XuXfXfXpX$XuXdXeX[.'.X.# ",
"kXkXkXi m 5 3.b.f.d.d.r.w.w.e.e.e.e.e.e.t.e.w.w.w.w.w.w.e.e.e.e.z.f.*.: t t t 5 S &.S 6 9 C.!.!.!.!.Q.@X$X=X$X[.{.$X+X~.{.I.i kXkX",
"kXkXkX- ^ 1Xi.x x <.s.<.&.w.u.t.l.z.z.z.l.&.J F $.k d :.z.z.z.z.c.j.*.> n n r 5 S &.T 7 kX_  ...| | | ..L.O.X.} | L.X.[ ..) kXkXkX",
"kXkXkX@ 6.qX3XQ ! >.;.R u ;.1.1.a.a.a.a.a.i.( ( ( ( ].|.a.a.a.a.k.p.E , i p i r T %.A 4 kXkX= * * * * % X X X # a . O % * % kXkXkX",
"kXkXkX+ 5.qXqX5X6X1XT 1 e h h h h z h j E v.M.M.M.0XhXpXl l z z z h g u kXkXkXi C C kXkXkXkXkXkXkXkXkXkXkXkXkXkXkXkXkXkXkXkXkXkXkX",
"kXkXkXkX^ i.<X<X3Xi.7 N ` B L B.} } V.V ) OXv.4Xv.4XsXrX} } B.B.} } K e kXkXkXkXn 4 kXkXkXkXkXkXkXkXkXkXkXkXkXkXkXkXkXkXkXkXkXkXkX",
"kXkXkXkXkX, , , < , i { S.A.E.^.[._.!.I.Z.N.N.B.N.N.H H.+X!.!.!.^.!.' o kXkXkXkXkXkXkXkXkXkXkXkXkXkXkXkXkXkXkXkXkXkXkXkXkXkXkXkXkX",
"kXkXkXkXkXkXkXkXkX: p ..F.A./.^.{.W.| U _ G B M B B M G ' _ C.!.@X~.' o kXkXkXkXkXkXkXkXkXkXkXkXkXkXkXkXkXkXkXkXkXkXkXkXkXkXkXkXkX",
"kXkXkXkXkXkXkXkXkXkXi ` N.{ H.W.Q.P.m o 0 w 0 q w e 9 8 8 r _ I.!.!.| O kXkXkXkXkXkXkXkXkXkXkXkXkXkXkXkXkXkXkXkXkXkXkXkXkXkXkXkXkX",
"kXkXkXkXkXkXkXkXkXkXkXp m 6 B H.G.A.M 0 kXkXkXkXkXkXkXkXi { A.A.E.!.' O kXkXkXkXkXkXkXkXkXkXkXkXkXkXkXkXkXkXkXkXkXkXkXkXkXkXkXkXkX",
"kXkXkXkXkXkXkXkXkXkXkX3 I >.8.).@.B m kXkXkXkXkXkXkXkXkXm 6.).).(...U kXkXkXkXkXkXkXkXkXkXkXkXkXkXkXkXkXkXkXkXkXkXkXkXkXkXkXkXkXkX",
"kXkXkXkXkXkXkXkXkXkXkX> T p.2Xg.*.: kXkXkXkXkXkXkXkXkXkXC 8.h.h.>.@ kXkXkXkXkXkXkXkXkXkXkXkXkXkXkXkXkXkXkXkXkXkXkXkXkXkXkXkXkXkXkX",
"kXkXkXkXkXkXkXkXkXkXkXkXkXW *.~ I r kXkXkXkXkXkXkXkXkXkXm W ^ ^ / kXkXkXkXkXkXkXkXkXkXkXkXkXkXkXkXkXkXkXkXkXkXkXkXkXkXkXkXkXkXkXkX",
"kXkXkXkXkXkXkXkXkXkXkXkXkX; > < 5 p kXkXkXkXkXkXkXkXkXkXi , ; : kXkXkXkXkXkXkXkXkXkXkXkXkXkXkXkXkXkXkXkXkXkXkXkXkXkXkXkXkXkXkXkXkX",
"kXkXkXkXkXkXkXkXkXkXkXkXkXkXkXkXkXkXkXkXkXkXkXkXkXkXkXkXkXkXkXkXkXkXkXkXkXkXkXkXkXkXkXkXkXkXkXkXkXkXkXkXkXkXkXkXkXkXkXkXkXkXkXkXkX",
"kXkXkXkXkXkXkXkXkXkXkXkXkXkXkXkXkXkXkXkXkXkXkXkXkXkXkXkXkXkXkXkXkXkXkXkXkXkXkXkXkXkXkXkXkXkXkXkXkXkXkXkXkXkXkXkXkXkXkXkXkXkXkXkXkX",
"kXkXkXkXkXkXkXkXkXkXkXkXkXkXkXkXkXkXkXkXkXkXkXkXkXkXkXkXkXkXkXkXkXkXkXkXkXkXkXkXkXkXkXkXkXkXkXkXkXkXkXkXkXkXkXkXkXkXkXkXkXkXkXkXkX"
};
