/* XPM */
static char *result[] = {
/* columns rows colors chars-per-pixel */
"64 40 14 1 ",
"  c #33323D",
". c #944B4B",
"X c #AE7764",
"o c #D06C63",
"O c #CD897C",
"+ c #DE9970",
"@ c #EED878",
"# c #68538A",
"$ c #7B7BAB",
"% c #94A2BD",
"& c #EEBC9D",
"* c #EAC088",
"= c white",
"- c None",
/* pixels */
"----------------------------------------------------------------",
"----------------------------------------------------------------",
"----------------------------------------------------------------",
"----------------------------------------------------------------",
"----------------------------------------------------------------",
"----------------------------------------------------------------",
"---------------------------          ---------------------------",
"-------------------------- ##$$$$$$$$ --------------------------",
"------------------------- ##$       $$ -------------------------",
"------------------------- ## ======= $ -------------------------",
"------------------------- ## =  =  = $ -------------------------",
"------------------------- ## =  =  = $ -------------------------",
"------------------------- ##$ ===== $$ -------------------------",
"------------------------- ##$ =#=#= $$ -------------------------",
"---------------------   - ##$$$$$$$$$$ -   ---------------------",
"-------------------- $$ - ##$$$$$$$$$$ - $$ --------------------",
"-------------------- $     ###$$$$$#$##   $ --------------------",
"-------------------- $$$$$$$$$$$$$$$$$$$$$$ --------------------",
"---------------------                      ---------------------",
"------------------------   == ooooooo   ------------------------",
"------------------------ O    o++**++ & ------------------------",
"------------------------ O = = o++++ && ------------------------",
"-----------------------  OO   O     &&& -  ---------------------",
"---------------------- oo OOOO&&&&&&&&    X -       $$ $ -------",
"--------------------- +++o            o O .  %%%%%%==%=% -------",
"--------------------- +++ooooooooooooo+ O X $%%%%%==%=%% -------",
"---------------------    ooo+++    ++++   .  $$$$%%$%$$ --------",
"--------------------- &&&      @@@=       . -          ---------",
"----------------------   ##$$$#####$$$$ -  ---------------------",
"------------------------  ##          # ------------------------",
"------------------------ OO -------- OO ------------------------",
"------------------------   ---------   -------------------------",
"----------------------------------------------------------------",
"----------------------------------------------------------------",
"----------------------------------------------------------------",
"----------------------------------------------------------------",
"----------------------------------------------------------------",
"----------------------------------------------------------------",
"----------------------------------------------------------------",
"----------------------------------------------------------------"
};
