/* XPM */
static char *result[] = {
/* columns rows colors chars-per-pixel */
"64 56 237 2 ",
"   c #000001",
".  c #000B00",
"X  c #1C1A03",
"o  c #191703",
"O  c #00001C",
"+  c #000016",
"@  c #1C0E16",
"#  c #130E18",
"$  c #1E121A",
"%  c #0C1000",
"&  c #310C1B",
"*  c #23241B",
"=  c #02012D",
"-  c #03072A",
";  c #001929",
":  c #000032",
">  c #001C32",
",  c #250F28",
"<  c #012336",
"1  c #042C3A",
"2  c #182B3A",
"3  c #262524",
"4  c #292626",
"5  c #292B2B",
"6  c #262828",
"7  c #2C2E32",
"8  c #282B39",
"9  c #28313C",
"0  c #34323D",
"q  c #3C333B",
"w  c #382B31",
"e  c #17200F",
"r  c #581E00",
"t  c #730020",
"y  c #4D3538",
"u  c #663D39",
"i  c #72273D",
"p  c #682116",
"a  c #5D453C",
"s  c #6D4D38",
"d  c #6D4B39",
"f  c #091357",
"g  c #0A2547",
"h  c #263544",
"j  c #2B374D",
"k  c #353643",
"l  c #393743",
"z  c #3A3946",
"x  c #3B3B4A",
"c  c #383749",
"v  c #31304F",
"b  c #002766",
"n  c #3C2D6F",
"m  c #323564",
"M  c #33105F",
"N  c #473D45",
"B  c #453B57",
"V  c #5A3D45",
"C  c #673A43",
"Z  c #7E3542",
"A  c #463768",
"S  c #751A46",
"D  c #354C73",
"F  c #384D75",
"G  c #334366",
"H  c #4A4349",
"J  c #574649",
"K  c #45445A",
"L  c #444558",
"P  c #5C5551",
"I  c #515151",
"U  c #4F5650",
"Y  c #664A4A",
"T  c #774648",
"R  c #7A5748",
"E  c #675654",
"W  c #765755",
"Q  c #784F50",
"!  c #616446",
"~  c #63635B",
"^  c #4C4262",
"/  c #4B4A63",
"(  c #4A4B67",
")  c #51456C",
"_  c #5A4977",
"`  c #5B597C",
"'  c #555476",
"]  c #4E4F6E",
"[  c #6C5173",
"{  c #5B676C",
"}  c #5D657A",
"|  c #76767C",
" . c #696670",
".. c #902B2A",
"X. c #9A4532",
"o. c #853E45",
"O. c #85354A",
"+. c #854348",
"@. c #9C4D49",
"#. c #984848",
"$. c #89584C",
"%. c #865855",
"&. c #955A4F",
"*. c #A95856",
"=. c #AE5650",
"-. c #97675A",
";. c #8C6B58",
":. c #A06B53",
">. c #A96B5D",
",. c #B36D5B",
"<. c #916E67",
"1. c #A56C63",
"2. c #AB7367",
"3. c #B4776C",
"4. c #BC7E73",
"5. c #B67B78",
"6. c #C15F5C",
"7. c #C4645E",
"8. c #CC6961",
"9. c #D06C63",
"0. c #DA6F66",
"q. c #D57466",
"w. c #D97768",
"e. c #CC7A64",
"r. c #E47E6B",
"t. c #A48574",
"y. c #BB8971",
"u. c #B6936D",
"i. c #C68B68",
"p. c #DC896B",
"a. c #D2936A",
"s. c #DB936E",
"d. c #C18276",
"f. c #C98678",
"g. c #DE9870",
"h. c #CF8D77",
"j. c #E4916F",
"k. c #E29B71",
"l. c #E69371",
"z. c #E2886D",
"x. c #CFB96F",
"c. c #E4A175",
"v. c #E8A779",
"b. c #F0A678",
"n. c #E3CF71",
"m. c #E0CB5F",
"M. c #523783",
"N. c #5B5B87",
"B. c #515285",
"V. c #634F83",
"C. c #655286",
"Z. c #69548C",
"A. c #6B5A8D",
"S. c #665587",
"D. c #725C8B",
"F. c #755685",
"G. c #6D5691",
"H. c #6E5C94",
"J. c #5D6289",
"K. c #5E6194",
"L. c #65658B",
"P. c #626386",
"I. c #6D768B",
"U. c #687186",
"Y. c #666694",
"T. c #6C6494",
"R. c #636993",
"E. c #6B6D95",
"W. c #6D6D9A",
"Q. c #72689B",
"!. c #71719D",
"~. c #787998",
"^. c #657295",
"/. c #6A6AA3",
"(. c #6767A2",
"). c #766FA2",
"_. c #7574A3",
"`. c #7876A6",
"'. c #7B77AA",
"]. c #7B7BAC",
"[. c #7677A6",
"{. c #7E7EB1",
"}. c #BD7F80",
"|. c #807EAB",
" X c #798291",
".X c #7E84B1",
"XX c #858588",
"oX c #979797",
"OX c #868996",
"+X c #8589A8",
"@X c #8183B3",
"#X c #888AB5",
"$X c #8B97B8",
"%X c #919DBB",
"&X c #9696B9",
"*X c #9E9EA6",
"=X c #93A2BD",
"-X c #BBBABC",
";X c #B4B4B5",
":X c #AFABAD",
">X c #A88385",
",X c #D48E80",
"<X c #C79C85",
"1X c #CE8D81",
"2X c #CDA38A",
"3X c #D0A68C",
"4X c #D7AA8F",
"5X c #DBAD92",
"6X c #DDB194",
"7X c #E9B884",
"8X c #E1B295",
"9X c #EBBA9C",
"0X c #F1BC9E",
"qX c #F2BFA0",
"wX c #DAC486",
"eX c #C3C3BE",
"rX c #FAC5A4",
"tX c #ECC188",
"yX c #9F9EC2",
"uX c #99A6C2",
"iX c #9AA8C3",
"pX c #A2A6C7",
"aX c #B3B7CA",
"sX c #BAC3D5",
"dX c #C4C4C4",
"fX c #CACACA",
"gX c #C5C6CA",
"hX c #D6D6D6",
"jX c #CCCDD6",
"kX c #EEE8D9",
"lX c #D1D4E2",
"zX c #DFE2E9",
"xX c #E5E6E9",
"cX c #FDFDFD",
"vX c #F6F7F8",
"bX c #EDEDF2",
"nX c None",
/* pixels */
"nXnXnXnXnXnXnXnXnXnXnXnXnXnXnXnXnXnXnXnXnXnXnXnXnXnXnXnXnXnXnXnXnXnXnXnXnXnXnXnXnXnXnXnXnXnXnXnXnXnXnXnXnXnXnXnXnXnXnXnXnXnXnXnX",
"nXnXnXnXnXnXnXnXnXnXnXnXnXnXnXnXnXnXnXnXnXnXnXnXnXnXnXnXnXnXnXnXnXnXnXnXnXnXnXnXnXnXnXnXnXnXnXnXnXnXnXnXnXnXnXnXnXnXnXnXnXnXnXnX",
"nXnXnXnXnXnXnXnXnXnXnXnXnXnXnXnXnXnXnXnXnXnXnXnXnXnXnXnXnXnXnXnXnXnXnXnXnXnXnXnXnXnXnXnXnXnXnXnXnXnXnXnXnXnXnXnXnXnXnXnXnXnXnXnX",
"nXnXnXnXnXnXnXnXnXnXnXnXnXnX6 5 3 X X o X X X X X X X X X X nXnXnXnXnXnXnXnXnXnXnXnXnXnXnXnXnXnXnXnXnXnXnXnXnXnXnXnXnXnXnXnXnXnX",
"nXnXnXnXnXnXnXnXnXnXnXnXnXc B B x K K K K K K K K K K K K L nXnXnXnXnXnXnXnXnXnXnXnXnXnXnXnXnXnXnXnXnXnXnXnXnXnXnXnXnXnXnXnXnXnX",
"nXnXnXnXnXnXnXnXnXnXnXnX* / V._ S.).`.[._._._.[._._._._._.!.]   nXnXnXnXnXnXnXnXnXnXnXnXnXnXnXnXnXnXnXnXnXnXnXnXnXnXnXnXnXnXnXnX",
"nXnXnXnXnXnXnXnXnXnXnXx B V.G.Q.Q.Y.Y.Y.Y.Y.Y.Y.Y.Y.Y.Y.[.{.W.K nXnXnXnXnXnXnXnXnXnXnXnXnXnXnXnXnXnXnXnXnXnXnXnXnXnXnXnXnXnXnXnX",
"nXnXnXnXnXnXnXnXnXnX7 B V.Z.Z.'.Y.v   = = = = = = = =   ' {.@X!.K X nXnXnXnXnXnXnXnXnXnXnXnXnXnXnXnXnXnXnXnXnXnXnXnXnXnXnXnXnXnX",
"nXnXnXnXnXnXnXnXnXnX5 ) S.G.S.B.OX;XdXfXfXdXeXeXdXfXfXdX*XN._.'.] X nXnXnXnXnXnXnXnXnXnXnXnXnXnXnXnXnXnXnXnXnXnXnXnXnXnXnXnXnXnX",
"nXnXnXnXnXnXnXnXnXnX5 ^ S.G.V.  OXcXcXcXcXcXcXcXcXcXcXcXjX6 N.[./ X nXnXnXnXnXnXnXnXnXnXnXnXnXnXnXnXnXnXnXnXnXnXnXnXnXnXnXnXnXnX",
"nXnXnXnXnXnXnXnXnXnX5 ^ C.G.V.O oXcXxXoXXXeXcXxXoXXX-XcXhX6 N.'./ X nXnXnXnXnXnXnXnXnXnXnXnXnXnXnXnXnXnXnXnXnXnXnXnXnXnXnXnXnXnX",
"nXnXnXnXnXnXnXnXnXnX5 ^ C.G.C.O oXcXdX    | cXfX     .vXhX8 N.'./ X nXnXnXnXnXnXnXnXnXnXnXnXnXnXnXnXnXnXnXnXnXnXnXnXnXnXnXnXnXnX",
"nXnXnXnXnXnXnXnXnXnX5 ^ C.G.V.  oXcXfX    XXcXfX    <.cXhX3 S.'./ X nXnXnXnXnXnXnXnXnXnXnXnXnXnXnXnXnXnXnXnXnXnXnXnXnXnXnXnXnXnX",
"nXnXnXnXnXnXnXnXnXnX5 ^ C.G.S._ OXdXdX;X;XfXcXbX-X;XsXgX*X` /.`./ X nXnXnXnXnXnXnXnXnXnXnXnXnXnXnXnXnXnXnXnXnXnXnXnXnXnXnXnXnXnX",
"nXnXnXnXnXnXnXnXnXnX5 ^ C.S.G.'.Y.  -XcXcXcXcXcXcXcXxX~ f |..X_./ X nXnXnXnXnXnXnXnXnXnXnXnXnXnXnXnXnXnXnXnXnXnXnXnXnXnXnXnXnXnX",
"nXnXnXnXnXnXnXnXnXnX5 A C.Z.G.'.Y.  eXcXjXgXcXxX-XcXvX~ f {..X!./ X nXnXnXnXnXnXnXnXnXnXnXnXnXnXnXnXnXnXnXnXnXnXnXnXnXnXnXnXnXnX",
"nXnXnXnXnXnXnXnXnXnX5 ^ S.Z.Z.'.W.v -XbX+X|.xX-XM.jXxX| ) [.{._./ X nXnXnXnXnXnXnXnXnXnXnXnXnXnXnXnXnXnXnXnXnXnXnXnXnXnXnXnXnXnX",
"nXnXnXnX3 * 5 0 nXnX5 ^ S.C.Z._.]._.#X&X|.'.&X#X[.&X&X[./.].{._.K X nXnX0 4 * 3 nXnXnXnXnXnXnXnXnXnXnXnXnXnXnXnXnXnXnXnXnXnXnXnX",
"nXnXnX] P.L.' z nXnX6 ^ C.Z.G.`..X.X[.(.'.]./.).]././.{..X].{._./ % nX5 L ` L.` / nXnXnXnXnXnXnXnXnXnXnXnXnXnXnXnXnXnXnXnXnXnXnX",
"nXnX0 R.|.|.E.z nXnX5 ^ C.Z.Z.`.{.'.'.{.{.'.'.|.].].].].{.].{._.K X nXo K !.@X].P.4 nXnXnXnXnXnXnXnXnXnXnXnXnXnXnXnXnXnXnXnXnXnX",
"nXnX0 !.{.P.K 5 X X * 0 B _ S.H.Q.T._.].].].'.].].].'.T.!.]._.A._ B X o 0 / R.].L.6 nXnXnXnXnXnXnXnXnXnXnXnXnXnXnXnXnXnXnXnXnXnX",
"nXnX0 E.'.] k B K K L B x _ H.G.Z.Z.Q.].].].].].].].[.G.Q.'.Q.Z.Q.C./ B L 0 ` '.L.4 nXnXnXnXnXnXnXnXnXnXnXnXnXnXnXnXnXnXnXnXnXnX",
"nXnX0 W.@X[._._._._._._._.[.].'.'.'.]..X{.{.{.{.{.{..X].|.|.].'.].'.[._._._.'.@XL.4 nXnXnXnXnXnXnXnXnXnXnXnXnXnXnXnXnXnXnXnXnXnX",
"nXnX0 ` !.!.!.!.!.!.E.!.!.Y.A.L.Y.E.Y.R.R.R.R.R.R.R.R.R.Y.Y.E.W.E.W.!.W.!.!.!.W.' 4 nXnXnXnXnXnXnXnXnXnXnXnXnXnXnXnXnXnXnXnXnXnX",
"nXnXnXz B x x x z z c z x 9 - = 8 z k h h h h h h h h h h h k z z z z z x z x x nXnXnXnXnXnXnXnXnXnXnXnXnXnXnXnXnXnXnXnXnXnXnXnX",
"nXnXnXnXX nXnXnX4 5 ;     oXhXhX:Xx p @.@.@.@.@.#.#.#.@.@.@.u ; + O 5 4 nXnXnXnXnXnXnXnXnXnXnXnXnXnXnXnXnXnXnXnXnXnXnXnXnXnXnXnX",
"nXnXnXnXnXnXnXnX0 l N w O -XcXcXzX/ ..w.w.q.q.q.w.w.0.0.w.q.$.1 J H 0 nXnXnXnXnXnXnXnXnXnXnXnXnXnXnXnXnXnXnXnXnXnXnXnXnXnXnXnXnX",
"nXnXnXnXnXnXnXnX> J 2.1.y { XXoXXX  ..w.z.s.s.c.7X7Xv.j.j.l.R h <X<X0 nXnXnXnXnXnXnXnXnXnXnXnXnXnXnXnXnXnXnXnXnXnXnXnXnXnXnXnXnX",
"nXnXnXnXnXnXnXnX= J 1X5.l { <.O 8 oX>X=.p.l.k.v.tXtXv.v.a.i.;.t.0X5Xl nXnXnXnXnXnXnXnXnXnXnXnXnXnXnXnXnXnXnXnXnXnXnXnXnXnXnXnXnX",
"nXnXnXnXnXnXnXnX= Y e.3.O dXvX|.| vXdX& =.z.k.c.c.c.c.v.,.q u.qXrX2Xq nXnXnXnXnXnXnXnXnXnXnXnXnXnXnXnXnXnXnXnXnXnXnXnXnXnXnXnXnX",
"nXnXnXnXnXnXnXnX= H y.f.-.:XgX{ { gX:X%.o.#.:.:.-.:.:.:.2.t.6XrXrX2Xz nXnXnXnXnXnXnXnXnXnXnXnXnXnXnXnXnXnXnXnXnXnXnXnXnXnXnXnXnX",
"nXnXnXnXnXnXnXy 9 Y 3.,X,X-.- w q O 1.h.-.1 z z q z 0 > t.qXqX9X0X<Xl nXnXnXnXnXnXnXnXnXnXnXnXnXnXnXnXnXnXnXnXnXnXnXnXnXnXnXnXnX",
"nXnXnXnXnXnXC *.=.=.Q <.,Xf.,.3.3.2.<X9X5X3X3X3X3X3X3X2X8XrXrX8Xt.E 0 nXnX0 8 < nXnXnXnXnXnXnXnXnXnXnXnXnXnXnXnXnXnXnXnXnXnXnXnX",
"nXnXnXnXnXP ,.w.r.q.T Q 3.y.d.d.e.e.<X5X6X8X8X6X6X8X8X6X6X5X8X<XQ , 0 nXnX9 J Y J nXnXnXnXnXnXnXnXnXnXnXnXnXnXnXnXnXnXnXnXnXnXnX",
"nXnXnX: Y y.g.g.l.s.q.*.J x H H L N J P P P P P P P P P P P U W 6.=.0 < < < W 1.W 2 nXnX@ @ @ @ @ @ @ @ $ .   m /.{.T.  m '.N.3 ",
"nXnXnX: R a.b.c.c.k.r.7.+.T +.+.+.+.o.Z o.+.o.o.o.+.o.Z Z Z i #.q.3.0 W ;.N Y >.%.2 . / U.~.I.I.I.I.I.I.} ~.:XjXlXiXyX;XaX$XJ.3 ",
"nXnXnX: Y a.k.g.g.g.e.9.8.9.9.9.9.9.9.9.8.8.9.9.9.9.9.9.9.9.9.q.s.i.k 2.f.Y V +.C 8 # } %XuX=X=X=X=X=X=X$XsXvXcXvXsXaXcXxX%X` $ ",
"nXnXnX2 N R $.$.R &.8.0.0.r.j.j.l.l.l.z.-.p Z O.O.t X.p.l.s.j.l.k.3.h 2.,XY V >.R j N.+XuXiXuXuXiXiX=XiXlXvXcXbXlXzXxXlXjXuXU.$ ",
"nXnXnX8 x I E P I Q ,.6.6.i.a.a.a.a.a.a.t.U ! ! ! { <.i.a.a.a.a.s.:.0 1.4.J Y 2.R j R.#X%X%X%X%X=X=X$XiXzXcXvXjX$XzXbXiX.X$XJ.$ ",
"nXnXnX- W 2X9X6X9X4X&.y u d s d s s a R x.n.n.m.n.bXzX<.r s s s s d 0 J Y 0 Y @.T h x P..X#X#X@X@X@X$XiXaXsXpXuXuXiX=X#X~.{ L nX",
"nXnXnXnXE <X6X4X5X2X .f m G D D D F b ( u.wXwXx.wXkXjXE.b D D D D G 0 < < 1 C #.C 8 . K L.W.T.T.Y.Y. X+X X^.B.E..XU.B.W.'   nXnX",
"nXnXnXnXnXN H N y H V.Z.S.^.].].].].Q.C.T.D.D.T.A.D.Q.'.].].'.]..XP.0 7 0 2 Y #.T h nXnXz x k z c c c x x z c z z k z x k nXnXnX",
"nXnXnXnXnXnXnXnX- > ^ ) m N./.T.J.L.N.) A n A n n M A ` ` ' K./.).T.l 5 nX9 N T V nXnXnXnXnXnXnXnXnXnXnXnXnXnXnXnXnXnXnXnXnXnXnX",
"nXnXnXnXnXnXnXnXnX0 8 q N [ F.B o 5 5 7 9 7 7 7 7 7 7 6 w a [ D.Z.) 0 nXnX0 k 9 nXnXnXnXnXnXnXnXnXnXnXnXnXnXnXnXnXnXnXnXnXnXnXnX",
"nXnXnXnXnXnXnXnXnXnX> W 5.1X1XW ; nXnXnXnXnXnXnXnXnXnX> %.4.1X}.[ g nXnXnXnXnXnXnXnXnXnXnXnXnXnXnXnXnXnXnXnXnXnXnXnXnXnXnXnXnXnX",
"nXnXnXnXnXnXnXnXnXnX> %.5.f.3.Q nXnXnXnXnXnXnXnXnXnXnX< <.4.f.2.d nXnXnXnXnXnXnXnXnXnXnXnXnXnXnXnXnXnXnXnXnXnXnXnXnXnXnXnXnXnXnX",
"nXnXnXnXnXnXnXnXnXnXh N V J N nXnXnXnXnXnXnXnXnXnXnXnXk N N J H nXnXnXnXnXnXnXnXnXnXnXnXnXnXnXnXnXnXnXnXnXnXnXnXnXnXnXnXnXnXnXnX",
"nXnXnXnXnXnXnXnXnXnXnX2 ; = nXnXnXnXnXnXnXnXnXnXnXnXnXnX2 - - nXnXnXnXnXnXnXnXnXnXnXnXnXnXnXnXnXnXnXnXnXnXnXnXnXnXnXnXnXnXnXnXnX",
"nXnXnXnXnXnXnXnXnXnXnXnXnXnXnXnXnXnXnXnXnXnXnXnXnXnXnXnXnXnXnXnXnXnXnXnXnXnXnXnXnXnXnXnXnXnXnXnXnXnXnXnXnXnXnXnXnXnXnXnXnXnXnXnX",
"nXnXnXnXnXnXnXnXnXnXnXnXnXnXnXnXnXnXnXnXnXnXnXnXnXnXnXnXnXnXnXnXnXnXnXnXnXnXnXnXnXnXnXnXnXnXnXnXnXnXnXnXnXnXnXnXnXnXnXnXnXnXnXnX",
"nXnXnXnXnXnXnXnXnXnXnXnXnXnXnXnXnXnXnXnXnXnXnXnXnXnXnXnXnXnXnXnXnXnXnXnXnXnXnXnXnXnXnXnXnXnXnXnXnXnXnXnXnXnXnXnXnXnXnXnXnXnXnXnX",
"nXnXnXnXnXnXnXnXnXnXnXnXnXnXnXnXnXnXnXnXnXnXnXnXnXnXnXnXnXnXnXnXnXnXnXnXnXnXnXnXnXnXnXnXnXnXnXnXnXnXnXnXnXnXnXnXnXnXnXnXnXnXnXnX",
"nXnXnXnXnXnXnXnXnXnXnXnXnXnXnXnXnXnXnXnXnXnXnXnXnXnXnXnXnXnXnXnXnXnXnXnXnXnXnXnXnXnXnXnXnXnXnXnXnXnXnXnXnXnXnXnXnXnXnXnXnXnXnXnX",
"nXnXnXnXnXnXnXnXnXnXnXnXnXnXnXnXnXnXnXnXnXnXnXnXnXnXnXnXnXnXnXnXnXnXnXnXnXnXnXnXnXnXnXnXnXnXnXnXnXnXnXnXnXnXnXnXnXnXnXnXnXnXnXnX",
"nXnXnXnXnXnXnXnXnXnXnXnXnXnXnXnXnXnXnXnXnXnXnXnXnXnXnXnXnXnXnXnXnXnXnXnXnXnXnXnXnXnXnXnXnXnXnXnXnXnXnXnXnXnXnXnXnXnXnXnXnXnXnXnX",
"nXnXnXnXnXnXnXnXnXnXnXnXnXnXnXnXnXnXnXnXnXnXnXnXnXnXnXnXnXnXnXnXnXnXnXnXnXnXnXnXnXnXnXnXnXnXnXnXnXnXnXnXnXnXnXnXnXnXnXnXnXnXnXnX"
};
