/* XPM */
static char *result[] = {
/* columns rows colors chars-per-pixel */
"60 64 240 2 ",
"   c #000000",
".  c #000C01",
"X  c #00130C",
"o  c #00001E",
"O  c #000B19",
"+  c #00151E",
"@  c #00191E",
"#  c #350307",
"$  c #000523",
"%  c #000C25",
"&  c #001423",
"*  c #011923",
"=  c #081A29",
"-  c #151B25",
";  c #191C26",
":  c #1B1C29",
">  c #160B30",
",  c #281E27",
"<  c #1E232C",
"1  c #073532",
"2  c #33212C",
"3  c #3A232B",
"4  c #362125",
"5  c #382232",
"6  c #2D2A35",
"7  c #14240F",
"8  c #530000",
"9  c #4B0108",
"0  c #65001C",
"q  c #680704",
"w  c #530022",
"e  c #501434",
"r  c #41272B",
"t  c #562B29",
"y  c #503926",
"u  c #482635",
"i  c #5C2D3A",
"p  c #582A38",
"a  c #563235",
"s  c #632F2B",
"d  c #6C322B",
"f  c #74362A",
"g  c #632F3B",
"h  c #692F38",
"j  c #69333B",
"k  c #7A3535",
"l  c #552E00",
"z  c #6C4515",
"x  c #714D35",
"c  c #5C4622",
"v  c #2F334D",
"b  c #721356",
"n  c #59304A",
"m  c #732545",
"M  c #6B3242",
"N  c #733442",
"B  c #7A3644",
"V  c #7B3648",
"C  c #7E3849",
"Z  c #793648",
"A  c #793352",
"S  c #563C62",
"D  c #025255",
"F  c #30464B",
"G  c #3E6871",
"H  c #49415F",
"J  c #48545A",
"K  c #695A4E",
"L  c #4E4364",
"P  c #68486B",
"I  c #6C7071",
"U  c #426565",
"Y  c #960000",
"T  c #8D0D00",
"R  c #B60000",
"E  c #BE1800",
"W  c #AE3102",
"Q  c #83392C",
"!  c #893D37",
"~  c #983A37",
"^  c #952E00",
"/  c #C30500",
"(  c #C63A00",
")  c #B84610",
"_  c #AC6D08",
"`  c #9A432E",
"'  c #944132",
"]  c #90512E",
"[  c #B7472F",
"{  c #A14631",
"}  c #A9483A",
"|  c #B44D33",
" . c #B54D3C",
".. c #B94D38",
"X. c #BC523B",
"o. c #BC5136",
"O. c #A94B33",
"+. c #B77130",
"@. c #916528",
"#. c #C9500E",
"$. c #D77A0F",
"%. c #C3492F",
"&. c #C34C31",
"*. c #C55435",
"=. c #CA5635",
"-. c #CD5935",
";. c #C6593B",
":. c #C95C39",
">. c #C3553B",
",. c #D25A36",
"<. c #CB643D",
"1. c #C3643D",
"2. c #D16B30",
"3. c #8D0553",
"4. c #823947",
"5. c #833A49",
"6. c #8A3C4A",
"7. c #8C3C46",
"8. c #913F45",
"9. c #8D346A",
"0. c #AE3377",
"q. c #A92E72",
"w. c #A31769",
"e. c #964145",
"r. c #9C4445",
"t. c #904A50",
"y. c #A74942",
"u. c #B05148",
"i. c #B57251",
"p. c #AC7950",
"a. c #935377",
"s. c #AF4979",
"d. c #AF7B77",
"f. c #8B7572",
"g. c #CD6A44",
"h. c #D47C4A",
"j. c #D27546",
"k. c #D07754",
"l. c #C95D70",
"z. c #DF8500",
"x. c #DF8806",
"c. c #DB8013",
"v. c #DA862D",
"b. c #E08C2C",
"n. c #E18E34",
"m. c #E08E3A",
"M. c #E3913B",
"N. c #E08810",
"B. c #BA814E",
"V. c #D8854C",
"C. c #DC8E54",
"Z. c #D88751",
"A. c #DD9156",
"S. c #DD9659",
"D. c #DA975A",
"F. c #CA8950",
"G. c #E29449",
"H. c #E29554",
"J. c #E49B5B",
"K. c #E99F5D",
"L. c #E49856",
"P. c #E28D4B",
"I. c #EBA15E",
"U. c #E49E64",
"Y. c #E7A365",
"T. c #E5A575",
"R. c #E6A97C",
"E. c #F1A361",
"W. c #D38B7F",
"Q. c #697589",
"!. c #B83E80",
"~. c #BD4E86",
"^. c #AF6282",
"/. c #C55587",
"(. c #CB5D93",
"). c #D85A94",
"_. c #C54986",
"`. c #E65C9A",
"'. c #DB629B",
"]. c #C26193",
"[. c #E3629D",
"{. c #ED63A1",
"}. c #F969A9",
"|. c #FC77B0",
" X c #7A8484",
".X c #738D91",
"XX c #7BA2AA",
"oX c #6C8F95",
"OX c #87878A",
"+X c #949597",
"@X c #939090",
"#X c #9AB3BC",
"$X c #8CACB2",
"%X c #A8A8A9",
"&X c #A9B4B4",
"*X c #B7AFB1",
"=X c #A1949C",
"-X c #D8978C",
";X c #EBB999",
":X c #EBB48E",
">X c #D0B4B2",
",X c #E9BEA9",
"<X c #CBA892",
"1X c #EDC3AB",
"2X c #ECC1A6",
"3X c #EDC8B5",
"4X c #F1D1BE",
"5X c #F9D3BD",
"6X c #F3CCB5",
"7X c #DDC0AB",
"8X c #95BBC2",
"9X c #99BBC3",
"0X c #BEBEC2",
"qX c #C8B9C2",
"wX c #A3C4CB",
"eX c #B8D2D7",
"rX c #B7CBD1",
"tX c #C8C8C9",
"yX c #D7D8D9",
"uX c #D0D0D3",
"iX c #F1D4C3",
"pX c #F3DACC",
"aX c #F4DDD2",
"sX c #EACECA",
"dX c #F7E2D7",
"fX c #D9E5E7",
"gX c #E3ECED",
"hX c #ECECEC",
"jX c #E3E4E5",
"kX c #FAEFE9",
"lX c #F8EAE6",
"zX c #FBF1EC",
"xX c #ECF2F3",
"cX c #E9F7F9",
"vX c #FBF5F3",
"bX c #FFFFFF",
"nX c #F5F7F8",
"mX c #E6EFF1",
"MX c #CFDFE3",
"NX c None",
/* pixels */
"NXNXNXNXNXNXNXNXNXNXNXNXNXNXNXNXNXNXNXNXNXNXNXNXNXNXNXNXNXNXNXNXNXNXNXNXNXNXNXNXNXNXNXNXNXNXNXNXNXNXNXNXNXNXNXNXNXNXNXNX",
"NXNXNXNXNXNXNXNXNXNXNXNXNXNXNXNXNXNXNXNXNXNXNXNXNXNXNXNXNXNXNXNXNXNXNXNXNXNXNXNXNXNXNXNXNXNXNXNXNXNXNXNXNXNXNXNXNXNXNXNX",
"NXNXNXNXNXNXNXNXNXNXNXNXNXNXNXNXNXNXNXNXNXNXNXNXNXNXNXNXNXNXNXNXNXNXNXNXNXNXNXNXNXNXNXNXNXNXNXNXNXNXNXNXNXNXNXNXNXNXNXNX",
"NXNXNXNXNXNXNXNXNXNXNXNXNXNXNXNXNXNXNXNXNXNXNXNXNXNXNX& $ $ $ $ $ $ % $ $ % NXNXNXNXNXNXNXNXNXNXNXNXNXNXNXNXNXNXNXNXNXNX",
"NXNXNXNXNXNXNXNXNXNXNXNXNXNXNXNXNXNXNXNXNXNXNX* $ o 5 4.O.{ ` { { { { { O.O.d $ NXNXNXNXNXNXNXNXNXNXNXNXNXNXNXNXNXNXNXNX",
"NXNXNXNXNXNXNXNXNXNXNXNXNXNXNXNXNXNXNXNXNXNX= i ' ' ~ ..=.-.h.<.=.=.-.=.-.-.O.~ Q NX$ NXNXNXNXNXNXNXNXNXNXNXNXNXNXNXNXNX",
"NXNXNXNXNXNXNXNXNXNXNXNXNXNXNXNXNXNXNXNX5 j ' y.=.=.<.h.g.:.J.<.&.*.*.*.*.*.=.,.&.Q ! r NXNXNXNXNXNXNXNXNXNXNXNXNXNXNXNX",
"NXNXNXNXNXNXNXNXNXNXNXNXNXNXNXNXNXNXNX2 4.u.-.=.*.&.Z.E.A.*.C.<.*.*.*.*.*.*.&.*.=.=.=.` r NXNXNXNXNXNXNXNXNXNXNXNXNXNXNX",
"NXNXNXNXNXNXNXNXNXNXNXNXNXNXNXNXNXNX5 Z u.=.*.*.*.&.h.S.Z.&.&.*.*.*.*.*.g.<.<.<.<.<.<.<.` , NXNXNXNXNXNXNXNXNXNXNXNXNXNX",
"NXNXNXNXNXNXNXNXNXNXNXNXNXNXNXNXNX, C V } =.*.*.*.*.&.%.&.*.*.*.;.:.;.:.S.S.D.S.S.S.S.<.:. .* NXNXNXNXNXNXNXNXNXNXNXNXNX",
"NXNXNXNXNXNXNXNXNXNXNXNXNXNXNXNXNX2 B A } =.*.;.;.;.;.;.;.;.*.&.V.I.J.S.u % : > : , : $ B.H.[ * NXNXNXNXNXNXNXNXNXNXNXNX",
"NXNXNXNXNXNXNXNXNXNXNXNXNXNXNXNXr 4.4.N  .( W.bXbXbXbXvXbXvX;.V.S.I.F.u [.{.{.{.{.{.[.}.9.@.C.    jXbXbXNXNXNXNXNXNXNXNX",
"NXNXNXNXNXNXNXNXNXNXNXNXNXNXNXNX5 t.B  .#.d.rXbXrXwXmXbXbXbXvXR.M.B.5 P {.|.!.b 9.9.9.e (./.7 J hXbXbXbXbXNXNXNXNXNXNXNX",
"NXNXNXNXNXNXNXNXNXNXNXNXNXNXNXu B 5.B X./ >XcXeX8X$XfXbXbXbXbXvX6X_ > [.}.w.qXhXMX$XhXJ # ~./.1 eXeXgXbXbXbXNXNXNXNXNXNX",
"NXNXNXNXNXNXNXNXNXNXNXNXNXNX@ i 5.C C [ d.uXnX8XgXgXbXbXbXbXbXbX>X~ ).}.}.=XfXbXnXrXbXjXQ.w.[.1 $X$XgXbXbXbXNXNXNXNXNXNX",
"NXNXNXNXNXNXNXNXNXNXNXNXNXNXo k } B m E >XnXbXfXbXbXtXtXnXfXbXcX.X3.}.}.0.9XmXbXxX.XbXbX&X3.).1 fXhXrX&XmXbXNXNXNXNXNXNX",
"NXNXNXNXNXNXNXNXNXNXNXNXNXNXf | >.y.i.Y sXbXbXbXbXbXtXtXnX8XbX#XD s.{.s.  oX&XtX&X  0XuX Xb /.^.bXbXuX$XeXbXNXNXNXNXNXNX",
"NXNXNXNXNXNXNXNXNXNXNXNXNX% | ,.&.:.K.l %XfXxXbXbXbXbXbXnXMXmXI b '.).  =         -       v a.|.fXbXbXxXMXmXNXNXNXNXNXNX",
"NXNXNXNXNXNXNXNXNXNXNXNXNX% ' >.*.:.J.K   G eXcXbXbXbXbXbXcXwXD _.}.).X - ; ; ; : ; - : + 6 a.}.9XfXxXnXhXXXNXNXNXNXNXNX",
"NXNXNXNXNXNXNXNXNXNXNXNXNX* n ' *.X.H.]   I 9XwXnXnXnXnXgX8X8XD s.}.).X - ; ; - ; ; - - < . V |.&X8X9X9XXX  NXNXNXNXNXNX",
"NXNXNXNXNXNXNXNXNXNXNXNXNX* M 5.B 4.*.:.]   U 9X8X9X8X#X9X#X<   _.}.).X - - ; ; ; ; ; ; : X A [.# $XwXXX  : NXNXNXNXNXNX",
"NXNXNXNXNXNXNXNXNXNXNXNX= & h 5.V t.S.J.U.i.$ < < < < < < < =   /.}.).X - ; ; ; ; - ; ; - X 9.[.u * < < - NXNXNXNXNXNXNX",
"NXNXNXNXNXNXNXNXNXNXNX. *.t i 5.V 7.;.:.:.:.[ $ & o o o O : D.c _.}.)..       < ; -       X 5.{.u * : - NXNXNXNXNXNXNXNX",
"NXNXNXNXNXNXNXNXNXNXOXkXa.# i 4.Z 4.*.*.*.*.*.| | F.D.F.$.v.n.z S (.).F hXvX+X      XXgX=X  ^.}.u * - NXNXNXNXNXNXNXNXNX",
"NXNXNXNXNXNXNXNXNXNX XbXa.O ! o. ...%.*.*.*.*.*.=.<.$.:XzXlXkXK $ (.`.1 eXbXxXyXjXyXxXbX&X3.'.a.    NXNXNXNXNXNXNXNXNXNX",
"NXNXNXNXNXNXNXNXNX+XsX>Xt.% ` ,.*.:.V.:.%.&.%.&.%.2.2XzXbXbXbXjXOXb ~.(.Q.xXbXbXbXbXbXuXJ 9.[.v uXI NXNXNXNXNXNXNXNXNXNX",
"NXNXNXNXNXNXNXNX. &XvX/ 7.= { ,.=.;.J.Z.h.h.h.V.h.b.dXbXbXbXbXbX&X  a.(._.*XtX0X0XqXtXJ 3./.a.D bX+XNXNXNXNXNXNXNXNXNXNX",
"NXNXNXNXNXNXNXNX+XhXvXT g % f ` { :.L.J.Y.J.J.J.J.n.aXbXbXpXaXdX<Xx v P ).!.0.q.0.0.0.9.[.'.1 p.aXf.NXNXNXNXNXNXNXNXNXNX",
"NXNXNXNXNXNXNX  tXhXtX  d f d t f X.J.J.J.J.J.J.J.b.dXbXiXz.b.b.L.F.K S L (.[.'.'.'.'.'.).s.@.K.n.x NXNXNXNXNXNXNXNXNXNX",
"NXNXNXNXNXNXNX<     8 r.=.=.-.-.X.e.C.A.C.C.C.A.A.M.pX4Xz.J.S.J.J.J.C.c P L H H H H H H 6 p.E.J.I.x NXNX3 s NXNXNXNXNXNX",
"NXNXNXNXNXNXNX4 B y.,.=.*.*.*.*.*.*.&.&.&.&.&.&.%.C.V.G.J.J.J.J.L.J.J.J.s y y y y y y , F.I.U.L.J.x NXNXd =.r NXNXNXNXNX",
"NXNXNXNXNXNX= | =.*.*.*.*.*.*.*.*.*.*.*.*.*.*.;.*.&.;.k.Y.Y.U.U.U.J.J.J.I.J.J.U.I.L.I.J.J.J.U.U.g.s * = d *.3 NXNXNXNXNX",
"NXNXNXNXNX4 o.*.*.*.*.>.*.*.*.*.*.*.*.=.*.*.*.*.*.E sXbXbXbXbXnXbXpXN.H.J.J.J.J.J.J.J.J.b.1XbXbXbX^.. x =.o.3 NXNXNXNXNX",
"NXNXNXNX5 B *.*.*.*.=.;.=.=.*.*.*.=.*.&.&.&.&.o.&.$.aXbXbXbXbXbXbXbXvXkXJ.n.m.m.m.m.G.z.iXbXbXbXbX X# ` =.*.3 NXNXNXNXNX",
"NXNXNXNXt X.*.=.,...e.e.e.e. .=.:.=.&.V.A.A.C.C.C.n.aXbXbXbXbXbXbXbXbXbXzXkXkXkXkXkXkXkXnXbXbXbXbXQ.8 y.=.&.3 NXNXNXNXNX",
"NXNXNXf o.*.,.y.! 8   < 2 N e.r.r.8.[ A.J.J.I.S.J.b.dXbXvX:X:X:XlXbXbXbXbXbXbXbXbXbXbXbXbXbXbXbX;XK e y.-.;.r NXNXNXNXNX",
"NXNX$ ' ,.-.~ g   +XtX^ j p p u h  .V.J.J.J.I.I.J.H.:X1X3XaXdXdX4X;XiXbXbXbXbXbXbXbXbXbXbXzX;X6XdXI w e.` ! NXNXNXNXNXNX",
"NXNX% d { ! & NX  @XsX#.6.2 + : h  .V.h.h.h.h.j.h.2.;XiXiXaXaXaXiX4XiX4X4X4X4X4X4X4X4X4X4X4X4XiXaXf.w 6.N & NXNXNXNXNXNX",
"NXNXNX* $ $ NXNX+X-X/ y.6.3 % f y.y.[ g.g.j.j.g.j.#.3XzXpXx.n.z.3XkXdX2X1X1X1X1X1X1X1X2X2XiXdXdXG.z g 4.i * NXNXNXNXNXNX",
"NXNXNXNXNXNXNX  fXlXR Z 4.i & f >... .Z.H.C.D.D.C.A.m.c.m.J.J.J.G.z.R.zXzXzXzXzXzXzXzXzXvX4X$.n.I.x e g O NXNXNXNXNXNXNX",
"NXNXNXNXNXNXNX  yXdXR C 4.6.p u C Z Z  .%.&.&.%.&.%.&.h.J.L.H.J.S.L.H.b.b.n.n.n.n.n.m.n.b.G.J.H.H.x o NXNXNXNXNXNXNXNXNX",
"NXNXNXNXNXNXNX  yXdX| 4.4.4.p u 4.5.C ..=.*.*.*.*.%.V.Y.T.T.T.T.T.T.T.T.T.J.J.J.J.J.J.J.J.J.U.T.k.j NXNXNXNXNXNXNXNXNXNX",
"NXNXNXNXNXNXNX  uXbXlX) 5.5.p % s =.4...=.*.*.*.>.&.$.6XbXbXbXbXbXbXbXbXbX;XG.J.J.J.J.L.J.G.;XbXbXOXNXNXNXNXNXNXNXNXNXNX",
"NXNXNXNXNXNXNXNX  tXvX/ *.e.u + s =.*.7.} *.&.&.%.C.m.3XbXbXbXbXbXbXbXbXbXbX1Xz.G.G.G.z.pXbXvXbXbXOXNXNXNXNXNXNXNXNXNXNX",
"NXNXNXNXNXNXNXNXNX6 &XvXk.8 w i s -.*.[ V.L.A.A.A.J.n.4XbXbXbXbXbXbXbXbXbXbXvXzXvXvXvXzXbXbXbXbX-Xx NXNXNXNXNXNXNXNXNXNX",
"NXNXNXNXNXNXNXNXNXNXNX+Xq uX*X8 @ f *.*.;.Z.Y.J.J.J.H.T.;X;X;X:X;X<X X X XI jXbXbXbXbXbXbXbXbXbXu.w NXNXNXNXNXNXNXNXNXNX",
"NXNXNXNXNXNXNXNXNXNXNXNX  bX>X8 i , *.=.*.:.h.I.K.K.Y.G.2.2.2.O.@.f 0 ^ ^ q I uXbXbXbXbXbXbXbX-XM > NXNXNXNXNXNXNXNXNXNX",
"NXNXNXNXNXNXNXNXNXNXNXNXNX%XtX*X0 * Q } y.} y.i.i.p.j.2.%.%.Q p e k ..*.-.u.Y f.*XiX5X5X3X>X*XY , NXNXNXNXNXNXNXNXNXNXNX",
"NXNXNXNXNXNXNXNXNXNXNXNXNX  gXlXT u % u Z C C m m m ~ }  .} u Z 5.} =.*.*.=.<.W q _ 2.+.) Y 0 p , NXNXNXNXNXNXNXNXNXNXNX",
"NXNXNXNXNXNXNXNXNXNXNXNXNXNX0X>X( r.3 O p N N 5.5.5.C V V B 5.4.V e. . .*.=.>.-.*.w e m h M g + NXNXNXNXNXNXNXNXNXNXNXNX",
"NXNXNXNXNXNXNXNXNXNXNXNXNXNXNXq X.| NXNXNX@ 2 N N N C 4.4.4.4.4.4.C Z C  ...&.*.=.=., g r & & NXNXNXNXNXNXNXNXNXNXNXNXNX",
"NXNXNXNXNXNXNXNXNXNXNXNXNXNXNXNX% & NXNXNXNX: , * + i V B B N 4.4.4.C Z N N y.>.*.| 4 4 t t t NXNXNXNXNXNXNXNXNXNXNXNXNX",
"NXNXNXNXNXNXNXNXNXNXNXNXNXNXNXNXNXNXNXNXNXNXu 5.2 , , : ; & @ N 4.C M * * j 5.4.M & ; | =.-...& NXNXNXNXNXNXNXNXNXNXNXNX",
"NXNXNXNXNXNXNXNXNXNXNXNXNXNXNXNXNXNXNXNX* i 6.4.V 4.4.5.N * = - ; : ; : ; * j 6.N 4 o.=.*.=.| * NXNXNXNXNXNXNXNXNXNXNXNX",
"NXNXNXNXNXNXNXNXNXNXNXNXNXNXNXNXNXNXNXNX* i 5.4.4.r h 5.8.*.*.8.4.g @ ; : NX* i 4.4.*.*.=. .B * NXNXNXNXNXNXNXNXNXNXNXNX",
"NXNXNXNXNXNXNXNXNXNXNXNXNXNXNXNXNXNXNXNX@ p 5.4.5.2 : r u s s u u 2 - NXNXNX+ g 6.4.=.-.u.B : NXNXNXNXNXNXNXNXNXNXNXNXNX",
"NXNXNXNXNXNXNXNXNXNXNXNXNXNXNXNXNXNXNXNX@ g 6.4.A N r @ NXNXNXNXNXNXNXNXNXNXNX2 g 6.r.! p 2 NXNXNXNXNXNXNXNXNXNXNXNXNXNX",
"NXNXNXNXNXNXNXNXNXNXNXNXNXNXNXNXNXNXNXNXNX3 M 6.u.>.! % NXNXNXNXNXNXNXNXNXNXNXNX, i p = & NXNXNXNXNXNXNXNXNXNXNXNXNXNXNX",
"NXNXNXNXNXNXNXNXNXNXNXNXNXNXNXNXNXNXNXNXNXNX, h ~ { d NXNXNXNXNXNXNXNXNXNXNXNXNXNX* NX= NXNXNXNXNXNXNXNXNXNXNXNXNXNXNXNX",
"NXNXNXNXNXNXNXNXNXNXNXNXNXNXNXNXNXNXNXNXNXNXNX* $ O NXNXNXNXNXNXNXNXNXNXNXNXNXNXNXNXNXNXNXNXNXNXNXNXNXNXNXNXNXNXNXNXNXNX",
"NXNXNXNXNXNXNXNXNXNXNXNXNXNXNXNXNXNXNXNXNXNXNXNXNXNXNXNXNXNXNXNXNXNXNXNXNXNXNXNXNXNXNXNXNXNXNXNXNXNXNXNXNXNXNXNXNXNXNXNX",
"NXNXNXNXNXNXNXNXNXNXNXNXNXNXNXNXNXNXNXNXNXNXNXNXNXNXNXNXNXNXNXNXNXNXNXNXNXNXNXNXNXNXNXNXNXNXNXNXNXNXNXNXNXNXNXNXNXNXNXNX",
"NXNXNXNXNXNXNXNXNXNXNXNXNXNXNXNXNXNXNXNXNXNXNXNXNXNXNXNXNXNXNXNXNXNXNXNXNXNXNXNXNXNXNXNXNXNXNXNXNXNXNXNXNXNXNXNXNXNXNXNX",
"NXNXNXNXNXNXNXNXNXNXNXNXNXNXNXNXNXNXNXNXNXNXNXNXNXNXNXNXNXNXNXNXNXNXNXNXNXNXNXNXNXNXNXNXNXNXNXNXNXNXNXNXNXNXNXNXNXNXNXNX"
};
