/* XPM */
static char *result[] = {
/* columns rows colors chars-per-pixel */
"64 46 233 2 ",
"   c black",
".  c #060600",
"X  c #1D1B03",
"o  c #1E1C09",
"O  c #00001B",
"+  c #030010",
"@  c #001D1B",
"#  c #22221B",
"$  c #00002C",
"%  c #01082B",
"&  c #001A29",
"*  c #000033",
"=  c #001433",
"-  c #001C37",
";  c #100C26",
":  c #3A0F2D",
">  c #00202C",
",  c #012436",
"<  c #002739",
"1  c #162B38",
"2  c #1A292C",
"3  c #272627",
"4  c #262B26",
"5  c #29262C",
"6  c #2A2A2B",
"7  c #282627",
"8  c #2D2D33",
"9  c #292C39",
"0  c #312D36",
"q  c #302F38",
"w  c #2C313D",
"e  c #2B3038",
"r  c #33323D",
"t  c #39343E",
"y  c #2D081F",
"u  c #550000",
"i  c #4C3033",
"p  c #703339",
"a  c #510030",
"s  c #6B473E",
"d  c #000345",
"f  c #2F005C",
"g  c #012644",
"h  c #1A3049",
"j  c #1A3045",
"k  c #2C3242",
"l  c #3A3A45",
"z  c #3B3849",
"x  c #383959",
"c  c #213757",
"v  c #3A2877",
"b  c #3D3C6C",
"n  c #371B6E",
"m  c #5B1143",
"M  c #473D43",
"N  c #473F5A",
"B  c #423B53",
"V  c #543741",
"C  c #7C3642",
"Z  c #6E3C44",
"A  c #473575",
"S  c #3A5159",
"D  c #484446",
"F  c #5A454B",
"G  c #464559",
"H  c #5B5057",
"J  c #684B48",
"K  c #7D4247",
"L  c #7A4749",
"P  c #76554B",
"I  c #684F50",
"U  c #6B5754",
"Y  c #775554",
"T  c #6C504C",
"R  c #7A6A5F",
"E  c #76655C",
"W  c #6D675D",
"Q  c #4B4A63",
"!  c #494768",
"~  c #53476E",
"^  c #4D5162",
"/  c #51516D",
"(  c #505665",
")  c #5D4C7C",
"_  c #584476",
"`  c #555473",
"'  c #5B5A7B",
"]  c #57577A",
"[  c #4C4D79",
"{  c #5E6675",
"}  c #6E6E71",
"|  c #823C44",
" . c #8B4B4A",
".. c #854649",
"X. c #8B534E",
"o. c #9B5A57",
"O. c #895655",
"+. c #A95954",
"@. c #B35855",
"#. c #A14042",
"$. c #8C6355",
"%. c #976859",
"&. c #95705F",
"*. c #A46C5B",
"=. c #A7725A",
"-. c #B37D5A",
";. c #B26E52",
":. c #835C66",
">. c #886767",
",. c #8C7467",
"<. c #977A6C",
"1. c #966864",
"2. c #AB746A",
"3. c #B2796F",
"4. c #B47B68",
"5. c #B67B71",
"6. c #A6706E",
"7. c #C66F5D",
"8. c #CE6B62",
"9. c #D26C63",
"0. c #D86E65",
"q. c #C97662",
"w. c #D47165",
"e. c #DA7D69",
"r. c #D77767",
"t. c #C07E72",
"y. c #A39758",
"u. c #AA8C51",
"i. c #B8927D",
"p. c #B7886F",
"a. c #A5A37E",
"s. c #DC856B",
"d. c #DC966F",
"f. c #D9956D",
"g. c #CD897D",
"h. c #C58277",
"j. c #DE9A70",
"k. c #D08D74",
"l. c #E1856C",
"z. c #E39671",
"x. c #E49B72",
"c. c #EA9C75",
"v. c #E1936F",
"b. c #E6A375",
"n. c #E6B07E",
"m. c #C2B16B",
"M. c #EFD876",
"N. c #5F4E84",
"B. c #5A5982",
"V. c #4D4B85",
"C. c #654E84",
"Z. c #655187",
"A. c #6A528B",
"S. c #685687",
"D. c #765787",
"F. c #6D5D93",
"G. c #6D5691",
"H. c #66658D",
"J. c #646486",
"K. c #6B6594",
"L. c #666B96",
"P. c #6B6B94",
"I. c #6E6E99",
"U. c #666495",
"Y. c #726C9C",
"T. c #6E709A",
"R. c #6A7899",
"E. c #71729E",
"W. c #73789B",
"Q. c #797F84",
"!. c #6F6EA4",
"~. c #7373A3",
"^. c #7979A7",
"/. c #7A76A8",
"(. c #7B7BAB",
"). c #7872A6",
"_. c #7F7FB1",
"`. c #7170A3",
"'. c #5B658E",
"]. c #8C7888",
"[. c #837CA4",
"{. c #778392",
"}. c #7D85A7",
"|. c #868687",
" X c #989796",
".X c #938591",
"XX c #B89582",
"oX c #A08E8D",
"OX c #8383AF",
"+X c #8591AA",
"@X c #8894AE",
"#X c #9C99A6",
"$X c #8181B3",
"%X c #858AB6",
"&X c #8A97B7",
"*X c #968FAF",
"=X c #93A1BC",
"-X c #9CA0A9",
";X c #A5A5A7",
":X c #B1B3B5",
">X c #C69C84",
",X c #D79283",
"<X c #CF8A83",
"1X c #D4A78D",
"2X c #D2A78D",
"3X c #EABB85",
"4X c #ECBB9C",
"5X c #E5B497",
"6X c #F1BB9D",
"7X c #E3A48E",
"8X c #F2BFA0",
"9X c #FAC6A5",
"0X c #F5E5B1",
"qX c #9CAAC4",
"wX c #97A5C2",
"eX c #A7A9C7",
"rX c #AFB6C9",
"tX c #BAC4D5",
"yX c #C9CACA",
"uX c #CBCBD5",
"iX c #CBD1DD",
"pX c #D3D3D3",
"aX c #D7D7DA",
"sX c #D2D0D4",
"dX c #D6D9E4",
"fX c #E5E5E4",
"gX c #EAEAED",
"hX c #EFF1F5",
"jX c #F2F2F3",
"kX c #FEFEFE",
"lX c #F6F5F8",
"zX c #EBEEF4",
"xX c None",
/* pixels */
"xXxXxXxXxXxXxXxXxXxXxXxXxXxXxXxXxXxXxXxXxXxXxXxXxXxXxXxXxXxXxXxXxXxXxXxXxXxXxXxXxXxXxXxXxXxXxXxXxXxXxXxXxXxXxXxXxXxXxXxXxXxXxXxX",
"xXxXxXxXxXxXxXxXxXxXxXxXxXxXxXxXxXxXxXxXxXxXxXxXxXxXxXxXxXxXxXxXxXxXxXxXxXxXxXxXxXxXxXxXxXxXxXxXxXxXxXxXxXxXxXxXxXxXxXxXxXxXxXxX",
"xXxXxXxXxXxXxXxXxXxXxXxXxXxXxXxXxXxXxXxXxXxXxXxXxXxXxXxXxXxXxXxXxXxXxXxXxXxXxXxXxXxXxXxXxXxXxXxXxXxXxXxXxXxXxXxXxXxXxXxXxXxXxXxX",
"xXxXxXxXxXxXxXxXxXxXxXxXxXxXxXxX8 8 q 6 4 7 3 3 3 3 3 3 3 7 7 xXxXxXxXxXxXxXxXxXxXxXxXxXxXxXxXxXxXxXxXxXxXxXxXxXxXxXxXxXxXxXxXxX",
"xXxXxXxXxXxXxXxXxXxXxXxXxXxXxXxX! _ ~ S.P.P.P.P.P.P.P.P.P.P.H.G xXxXxXxXxXxXxXxXxXxXxXxXxXxXxXxXxXxXxXxXxXxXxXxXxXxXxXxXxXxXxXxX",
"xXxXxXxXxXxXxXxXxXxXxXxXxXxXxXz C.G.F.Y.E.~.E.~.~.~.~.E.E.~.}.H.z xXxXxXxXxXxXxXxXxXxXxXxXxXxXxXxXxXxXxXxXxXxXxXxXxXxXxXxXxXxXxX",
"xXxXxXxXxXxXxXxXxXxXxXxXxX4 B C.C.F._.]   $ % $ $ $ $ $   b (.OXL.r xXxXxXxXxXxXxXxXxXxXxXxXxXxXxXxXxXxXxXxXxXxXxXxXxXxXxXxXxXxX",
"xXxXxXxXxXxXxXxXxXxXxXxXxX6 G A.G.C.] ;XyXpXpXyXyXyXpXpXpX:X' ).E.r xXxXxXxXxXxXxXxXxXxXxXxXxXxXxXxXxXxXxXxXxXxXxXxXxXxXxXxXxXxX",
"xXxXxXxXxXxXxXxXxXxXxXxXxX4 N A.G._   aXkXjXjXlXkXlXjXjXkXfX4 U.E.r xXxXxXxXxXxXxXxXxXxXxXxXxXxXxXxXxXxXxXxXxXxXxXxXxXxXxXxXxXxX",
"xXxXxXxXxXxXxXxXxXxXxXxXxX4 N Z.G._ $ aXgX} O -XkX:X; ( fXfXt U.E.r xXxXxXxXxXxXxXxXxXxXxXxXxXxXxXxXxXxXxXxXxXxXxXxXxXxXxXxXxXxX",
"xXxXxXxXxXxXxXxXxXxXxXxXxX4 N Z.G._   fXjX. . |.kX X.   fXzX6 U.E.r xXxXxXxXxXxXxXxXxXxXxXxXxXxXxXxXxXxXxXxXxXxXxXxXxXxXxXxXxXxX",
"xXxXxXxXxXxXxXxXxXxXxXxXxX4 N Z.A.) x tXaX.X} :XkXyX} |.pXpXQ I.E.r xXxXxXxXxXxXxXxXxXxXxXxXxXxXxXxXxXxXxXxXxXxXxXxXxXxXxXxXxXxX",
"xXxXxXxXxXxXxXxXxXxXxXxXxX4 N A.A.F.~.[ .XlXkXkXkXkXkXlX;Xx ^._.P.r xXxXxXxXxXxXxXxXxXxXxXxXxXxXxXxXxXxXxXxXxXxXxXxXxXxXxXxXxXxX",
"xXxXxXxXxXxXxXxXxXxXxXxXxX4 N Z.A.F._.d a.kXdXuXkXaXaXkX X$ }.$XP.r xXxXxXxXxXxXxXxXxXxXxXxXxXxXxXxXxXxXxXxXxXxXxXxXxXxXxXxXxXxX",
"xXxXxXxXxXxXxXxXxXxXxXxXxX4 N Z.A.F.(.[ {.fX*X[.gX*X[.gX#Xb _._.P.r xXxXxXxXxXxXxXxXxXxXxXxXxXxXxXxXxXxXxXxXxXxXxXxXxXxXxXxXxXxX",
"xXxXxXxXxXxXxXxXxXxXxXxXxX4 N Z.Z.G.(.(._.[.(.(.$X(._.[.(./.(._.T.q xXxXxXxXxXxXxXxXxXxXxXxXxXxXxXxXxXxXxXxXxXxXxXxXxXxXxXxXxXxX",
"xXxXxXxXxXxXr 6 X X xXxXxX4 G A.A.F.(.OX(.~./.(.!.(.(.!.(._.(._.I.6 xXxXxXxXX o q xXxXxXxXxXxXxXxXxXxXxXxXxXxXxXxXxXxXxXxXxXxXxX",
"xXxXxXxXxXxX0 Q ` ] G xXxX4 B _ ) G.E.).).(.(.(.(.(.(.(.).).(.(.K.N xXxXxXQ ' ` G q xXxXxXxXxXxXxXxXxXxXxXxXxXxXxXxXxXxXxXxXxXxX",
"xXxXxXxXxXxX6 H._._.' # q 0 q 8 _ G.A.C.F.(.(.(._.(.(.(.F.F.(.F.Z.Z.N # r I.}././ X xXxXxXxXxXxXxXxXxXxXxXxXxXxXxXxXxXxXxXxXxXxX",
"xXxXxXxXxXxX3 P.^.` B.`.E.I.P.I.E././.)./._._.}._._.}.[././.}.(.)./.E.I.L.` H._.` X xXxXxXxXxXxXxXxXxXxXxXxXxXxXxXxXxXxXxXxXxXxX",
"xXxXxXxXxXxX7 P.^./ L.[.E.E.E.E.T.E.T.R.I.K.P.L.L.L.L.L.L.P.P.R.I.Y.T.^.$X' ' (.` X xXxXxXxXxXxXxXxXxXxXxXxXxXxXxXxXxXxXxXxXxXxX",
"xXxXxXxXxXxX6 H._.(._.E.z 8 r t r k r r k l r k r w r w r r t r t k 7 ` (.(.(.(./ X xXxXxXxXxXxXxXxXxXxXxXxXxXxXxXxXxXxXxXxXxXxX",
"xXxXxXxXxXxXxXQ ' ' ] / t & & w     . + 1 >  .@.@.@.@.@.@.X.% > 9 = 2 M ' ' ' ` G xXxXxXxXxXxXxXxXxXxXxXxXxXxXxXxXxXxXxXxXxXxXxX",
"xXxXxXxXxXxXxXxXo X X 3 e I Y 8 |.;X;X} : L 8.l.e.e.e.e.l.q.$.D M Y V 2 X X o X xXxXxXxXxXxXxXxXxXxXxXxXxXxXxXxXxXxXxXxXxXxXxXxX",
"xXxXxXxXxXxXxXxXxXxXxXxX, 3.h.y yXkXkX-Xu 9.s.j.j.j.j.j.j.j.j.X.Y g.$.% xXxXxXxXxXxXxXxXxXxXxXxXxXxXxXxXxXxXxXxXxXxXxXxXxXxXxXxX",
"xXxXxXxXxXxXxXxXxXxXxXxX, 5.h.i }  X-XS u w.v.b.j.n.3X3Xb.z.b.s Y 5X<.O xXxXxXk < xXxXxXxXxXxXxXxXxXxXxXxXxXxXxXxXxXxXxXxXxXxXxX",
"xXxXxXxXxXxXxXxXxXxXxXxX, 3.h.0 |.|.. {.;X@.w.z.j.n.3X3Xb.f.u.&.XX9X<.O xXxX= z Y I xXxXxXxXxXxXxXxXxXxXxXxXxXxXxXxXxXxXxXxXxXxX",
"xXxXxXxXxXxXxXxXxXxXxXxX, 3.5.: pXgXl pXgXG #.r.f.f.j.f.z.p.l >X9X8X,.$ l i l t *.&.9 xXxXz l l l l l l l t G ^.%X/.G J.[.Q X xX",
"xXxXxXxXxXxXxXxXxX* * * = 2.,X3.oX{.- }  X3...i J s s J i &.2X5X9X9X,.i p.7XXX9  .X.q   { @X+X+X+X+X+X+XR.rXgXlXiX&XfXiX%X^ . xX",
"xXxXxXxXxXxXxXxXxX$.=.%...o.5.,X=.p $.s %.7XXX,.<.<.<.<.,.g.9X9X5X>XI Y ,X6X>X9 X.X.w ! }.qXqXqXqXqXwXqXtXhXkXlXdXiXhXiX&X(   xX",
"xXxXxXxXxXxXD g P f.b.v.r. .F h.k.g.g.h.,X4X4X4X4X4X4X4X4X4X4X8X>X9 $ O.g.g.6.0 &.%.k L.%X=X=X=X=X=X&XqXhXkXlXqXiXlXrX&X&X^ xXxX",
"xXxXxXxXxXU 1X,.i f.b.d.d.q.+.I F I I I U E R R R R R R R R W W $.@.Z l Y Y F r X. .k G I.%X%X%X%X%X&XqXtXrXeXwXeXeX&XW.( xXxXxX",
"xXxXxXxXO R 9X1X<.u.k.x.x.s.7. .K ..K K C C | | | | | C C C C p +.e.O.- , , < t ....w . Q L.K.H.H.F.R.}.W.'.V.}.R.[ K./   xXxXxX",
"xXxXxXxXO Y 5X9X5Xl *.c.j.r.8.9.9.w.w.w.w.w.9.9.8.8.8.q.9.9.9.9.s.j.$.= r r w r ....w xXxX8 8 8 8 8 6 3 5 8 8 6 5 8 8 xXxXxXxXxX",
"xXxXxXxXO >.4X9X5XD +.r.P ;.0.0.s.x.z.z.z.c.=.: m m a u 7.c.z.z.c.x.$.* xXxXr l F V xXxXxXxXxXxXxXxXxXxXxXxXxXxXxXxXxXxXxXxXxXxX",
"xXxXxXxXxXU i.2Xi.B | o.- K +.+.;.u.-.-.-.4.y.y.y.y.a.:XXX;.4.u.-.-.Y - xXxXxXq 1 xXxXxXxXxXxXxXxXxXxXxXxXxXxXxXxXxXxXxXxXxXxXxX",
"xXxXxXxXxXxX- = = r 9 1 r k j j h h h h g * m.3XM.M.0XlX-X  h h h h l r xXxXxXxXxXxXxXxXxXxXxXxXxXxXxXxXxXxXxXxXxXxXxXxXxXxXxXxX",
"xXxXxXxXxXxXxXxXxXxXxXxX8 ~ N.) K.~.`.~.P.Z.]..X.X|..X#X[.`.~.T.T.I./ # xXxXxXxXxXxXxXxXxXxXxXxXxXxXxXxXxXxXxXxXxXxXxXxXxXxXxXxX",
"xXxXxXxXxXxXxXxXxXxXxXxXq ) F.A.Y.!.!./.Y.) A v v v n f V.L.!.)./.$X' X xXxXxXxXxXxXxXxXxXxXxXxXxXxXxXxXxXxXxXxXxXxXxXxXxXxXxXxX",
"xXxXxXxXxXxXxXxXxXxXxXxXq ~ A.) A.D.D.A._ r 6 8 8 0 8 0 0 Z D.C.F././ X xXxXxXxXxXxXxXxXxXxXxXxXxXxXxXxXxXxXxXxXxXxXxXxXxXxXxXxX",
"xXxXxXxXxXxXxXxXxXxXxXxXxXB N x 6.<X<X>.g xXxXxXxXxXxXq 2.g.<XE c Q xXxXxXxXxXxXxXxXxXxXxXxXxXxXxXxXxXxXxXxXxXxXxXxXxXxXxXxXxXxX",
"xXxXxXxXxXxXxXxXxXxXxXxXxXxX2 @ $.5.2.Y > xXxXxXxXxXxXk 1.5.2.P   X xXxXxXxXxXxXxXxXxXxXxXxXxXxXxXxXxXxXxXxXxXxXxXxXxXxXxXxXxXxX",
"xXxXxXxXxXxXxXxXxXxXxXxXxXxXxXxX, , , 9 l xXxXxXxXxXxXr 1 , , xXxXxXxXxXxXxXxXxXxXxXxXxXxXxXxXxXxXxXxXxXxXxXxXxXxXxXxXxXxXxXxXxX",
"xXxXxXxXxXxXxXxXxXxXxXxXxXxXxXxXxXxXxXxXxXxXxXxXxXxXxXxXxXxXxXxXxXxXxXxXxXxXxXxXxXxXxXxXxXxXxXxXxXxXxXxXxXxXxXxXxXxXxXxXxXxXxXxX",
"xXxXxXxXxXxXxXxXxXxXxXxXxXxXxXxXxXxXxXxXxXxXxXxXxXxXxXxXxXxXxXxXxXxXxXxXxXxXxXxXxXxXxXxXxXxXxXxXxXxXxXxXxXxXxXxXxXxXxXxXxXxXxXxX",
"xXxXxXxXxXxXxXxXxXxXxXxXxXxXxXxXxXxXxXxXxXxXxXxXxXxXxXxXxXxXxXxXxXxXxXxXxXxXxXxXxXxXxXxXxXxXxXxXxXxXxXxXxXxXxXxXxXxXxXxXxXxXxXxX"
};
