/* XPM */
static char *result[] = {
/* columns rows colors chars-per-pixel */
"64 61 244 2 ",
"   c #000001",
".  c #090203",
"X  c #1D1B03",
"o  c #1C1906",
"O  c #000316",
"+  c #1C1517",
"@  c #08140F",
"#  c #201F13",
"$  c #280F09",
"%  c #1B2411",
"&  c #222119",
"*  c #00032B",
"=  c #000C2C",
"-  c #000024",
";  c #011929",
":  c #000034",
">  c #00003B",
",  c #001B36",
"<  c #001633",
"1  c #16142C",
"2  c #211921",
"3  c #241E2A",
"4  c #2F122E",
"5  c #002233",
"6  c #012A39",
"7  c #13252E",
"8  c #252423",
"9  c #262B2A",
"0  c #292C2B",
"q  c #272828",
"w  c #2D2D33",
"e  c #262B37",
"r  c #312F3B",
"t  c #362834",
"y  c #2D313E",
"u  c #32313B",
"i  c #3D343B",
"p  c #372B2C",
"a  c #560A0E",
"s  c #6A0000",
"d  c #500F34",
"f  c #432B2B",
"g  c #492236",
"h  c #463638",
"j  c #523332",
"k  c #583634",
"l  c #53332E",
"z  c #6A3B3D",
"x  c #66443E",
"c  c #725139",
"v  c #0A094A",
"b  c #353441",
"n  c #3C3B4C",
"m  c #3B3844",
"M  c #353153",
"N  c #3C3469",
"B  c #31346E",
"V  c #0C3543",
"C  c #5B0E42",
"Z  c #4C3E45",
"A  c #423A44",
"S  c #413E53",
"D  c #473B5A",
"F  c #523C44",
"G  c #4C3D69",
"H  c #3F4751",
"J  c #334771",
"K  c #1F4068",
"L  c #584549",
"P  c #424254",
"I  c #464858",
"U  c #524B58",
"Y  c #684A49",
"T  c #7D444B",
"R  c #6E5148",
"E  c #735254",
"W  c #715551",
"Q  c #4B4160",
"!  c #4C4B64",
"~  c #4B4D69",
"^  c #574A67",
"/  c #53556E",
"(  c #474677",
")  c #5B4B79",
"_  c #45567C",
"`  c #4A587C",
"'  c #555573",
"]  c #5C5C7D",
"[  c #565979",
"{  c #455A61",
"}  c #685877",
"|  c #5C616F",
" . c #7D6A61",
".. c #626676",
"X. c #757677",
"o. c #69696E",
"O. c #75655C",
"+. c #88272F",
"@. c #813542",
"#. c #864648",
"$. c #9C494E",
"%. c #955752",
"&. c #8C5653",
"*. c #AA5553",
"=. c #A35855",
"-. c #B65A57",
";. c #A7524E",
":. c #8C6658",
">. c #9B6658",
",. c #926A55",
"<. c #A26E5A",
"1. c #A9775D",
"2. c #B56859",
"3. c #926F66",
"4. c #A36D65",
"5. c #A97469",
"6. c #BB7B6B",
"7. c #B87B73",
"8. c #AA746C",
"9. c #C4645D",
"0. c #C1715D",
"q. c #C96761",
"w. c #DC7C69",
"e. c #D87667",
"r. c #CB7367",
"t. c #83814C",
"y. c #978572",
"u. c #BC8362",
"i. c #AB8977",
"p. c #B78E7B",
"a. c #B8947D",
"s. c #A4826E",
"d. c #AE965C",
"f. c #C2845E",
"g. c #C58964",
"h. c #D48969",
"j. c #DD946E",
"k. c #D3926B",
"l. c #C38275",
"z. c #C8867A",
"x. c #DF9A70",
"c. c #DA9670",
"v. c #D58E7F",
"b. c #E3886D",
"n. c #E39D72",
"m. c #E79772",
"M. c #E3916F",
"N. c #E6A778",
"B. c #E9B17E",
"V. c #CAB37C",
"C. c #ECD773",
"Z. c #E9D15F",
"A. c #5E5D82",
"S. c #565987",
"D. c #505688",
"F. c #624B86",
"G. c #655186",
"H. c #675188",
"J. c #69548B",
"K. c #645C8A",
"L. c #6D5690",
"P. c #6B5B94",
"I. c #7D5C89",
"U. c #5D6384",
"Y. c #5F6592",
"T. c #66658D",
"R. c #646588",
"E. c #70798E",
"W. c #777883",
"Q. c #6B6B94",
"!. c #6D6C9A",
"~. c #676596",
"^. c #71659A",
"/. c #726A9D",
"(. c #726294",
"). c #71719D",
"_. c #767A99",
"`. c #6A748B",
"'. c #6E6EA5",
"]. c #756EA0",
"[. c #7473A2",
"{. c #7975A6",
"}. c #7979A6",
"|. c #7475A9",
" X c #7B7BAC",
".X c #7877A9",
"XX c #7E7EB0",
"oX c #6C75A6",
"OX c #866F92",
"+X c #8D77A2",
"@X c #768290",
"#X c #7C88A3",
"$X c #7E80B1",
"%X c #89898B",
"&X c #8D959A",
"*X c #989898",
"=X c #908D8F",
"-X c #BD9982",
";X c #AF8984",
":X c #8A8DAA",
">X c #8182B3",
",X c #868AB7",
"<X c #8A97B7",
"1X c #929DBB",
"2X c #9D9BB5",
"3X c #8290A8",
"4X c #94A2BE",
"5X c #9EA0B7",
"6X c #AAAAA8",
"7X c #A6A6A4",
"8X c #B8B8B8",
"9X c #ACB0B2",
"0X c #C19B84",
"qX c #D89688",
"wX c #CB8886",
"eX c #D3B28C",
"rX c #EBBA9B",
"tX c #E4B598",
"yX c #F1BD9E",
"uX c #E5B08A",
"iX c #EBC28A",
"pX c #F8C4A3",
"aX c #E5D8B8",
"sX c #99A7C2",
"dX c #A9B4CA",
"fX c #B4B8CB",
"gX c #AEB0C9",
"hX c #969DC6",
"jX c #C0BFC0",
"kX c #B9C3D6",
"lX c #C8C7C8",
"zX c #C8C7D3",
"xX c #D6D6D9",
"cX c #CBD1DD",
"vX c #D0D3E3",
"bX c #DDE1EA",
"nX c #E3E3E4",
"mX c #E7E7EB",
"MX c #ECEDF1",
"NX c #F3F3F4",
"BX c #FDFDFD",
"VX c #F7F7F7",
"CX c #E1DEE6",
"ZX c None",
/* pixels */
"ZXZXZXZXZXZXZXZXZXZXZXZXZXZXZXZXZXZXZXZXZXZXZXZXZXZXZXZXZXZXZXZXZXZXZXZXZXZXZXZXZXZXZXZXZXZXZXZXZXZXZXZXZXZXZXZXZXZXZXZXZXZXZXZX",
"ZXZXZXZXZXZXZXZXZXZXZXZXZXZXZXZXZXZXZXZXZXZXZXZXZXZXZXZXZXZXZXZXZXZXZXZXZXZXZXZXZXZXZXZXZXZXZXZXZXZXZXZXZXZXZXZXZXZXZXZXZXZXZXZX",
"ZXZXZXZXZXZXZXZXZXZXZXZXZXZXZXZXZXZXZXZXZXZXZXZXZXZXZXZXZXZXZXZXZXZXZXZXZXZXZXZXZXZXZXZXZXZXZXZXZXZXZXZXZXZXZXZXZXZXZXZXZXZXZXZX",
"ZXZXZXZXZXZXZXZXZXZXZXZXZXZXZXZX9 9 8 # X X X X X X X X X X X X ZXZXZXZXZXZXZXZXZXZXZXZXZXZXZXZXZXZXZXZXZXZXZXZXZXZXZXZXZXZXZXZX",
"ZXZXZXZXZXZXZXZXZXZXZXZXZXZXZXb A n m n n n n n H n n n n n n P n ZXZXZXZXZXZXZXZXZXZXZXZXZXZXZXZXZXZXZXZXZXZXZXZXZXZXZXZXZXZXZX",
"ZXZXZXZXZXZXZXZXZXZXZXZXZXZX% D ) ) F.!.[.).).).).).!.).).[.).}.A.u ZXZXZXZXZXZXZXZXZXZXZXZXZXZXZXZXZXZXZXZXZXZXZXZXZXZXZXZXZXZX",
"ZXZXZXZXZXZXZXZXZXZXZXZXZXZXS ) L.P.^.!.[.).[.[.].[.).[.[./.[.>X}.' n ZXZXZXZXZXZXZXZXZXZXZXZXZXZXZXZXZXZXZXZXZXZXZXZXZXZXZXZXZX",
"ZXZXZXZXZXZXZXZXZXZXZXZX0 D ) H.J.{.'.M O : : : : : : : : O v _.>X}.A.u ZXZXZXZXZXZXZXZXZXZXZXZXZXZXZXZXZXZXZXZXZXZXZXZXZXZXZXZX",
"ZXZXZXZXZXZXZXZXZXZXZXZX0 ^ J.L.H.K._.*X6X6X6X6X7X7X7X6X6X6X7XW.!.+XoXb ZXZXZXZXZXZXZXZXZXZXZXZXZXZXZXZXZXZXZXZXZXZXZXZXZXZXZXZX",
"ZXZXZXZXZXZXZXZXZXZXZXZX0 I G.L.G.v X.nXBXBXBXBXVXBXBXBXBXBXMX=Xv  XQ.y ZXZXZXZXZXZXZXZXZXZXZXZXZXZXZXZXZXZXZXZXZXZXZXZXZXZXZXZX",
"ZXZXZXZXZXZXZXZXZXZXZXZX0 I G.L.J.* X.NXBXlX8XlXVXBXxX8XlXNXBX=X> {.Q.y ZXZXZXZXZXZXZXZXZXZXZXZXZXZXZXZXZXZXZXZXZXZXZXZXZXZXZXZX",
"ZXZXZXZXZXZXZXZXZXZXZXZX0 G G.L.J.> X.NXCXu   m nXNXo.    lXBX=Xv }.Q.w ZXZXZXZXZXZXZXZXZXZXZXZXZXZXZXZXZXZXZXZXZXZXZXZXZXZXZXZX",
"ZXZXZXZXZXZXZXZXZXZXZXZX0 Q G.L.J.* X.BXmX    O nXNXU     xXBX*X: {.Q.u ZXZXZXZXZXZXZXZXZXZXZXZXZXZXZXZXZXZXZXZXZXZXZXZXZXZXZXZX",
"ZXZXZXZXZXZXZXZXZXZXZXZX0 Q H.J.F.M W.xXxX=Xo.*XmXNX7XX.%XlXxX=XN .XQ.w ZXZXZXZXZXZXZXZXZXZXZXZXZXZXZXZXZXZXZXZXZXZXZXZXZXZXZXZX",
"ZXZXZXZXZXZXZXZXZXZXZXZX0 I G.J.J.!.).o.6XmXNXVXBXBXNXVXNX8Xo.Q..X XQ.r ZXZXZXZXZXZXZXZXZXZXZXZXZXZXZXZXZXZXZXZXZXZXZXZXZXZXZXZX",
"ZXZXZXZXZXZXZXZXZXZXZXZX0 G G.J.J. X).  *XBXBXCXBXBXnXNXBX9X  ~.,X$XR.y ZXZXZXZXZXZXZXZXZXZXZXZXZXZXZXZXZXZXZXZXZXZXZXZXZXZXZXZX",
"ZXZXZXZXZXZXZXZXZXZXZXZX0 I G.J.J.{.oX: 7XBXzX(.mXNX+XgXBX8X- T.>X$XT.u ZXZXZXZXZXZXZXZXZXZXZXZXZXZXZXZXZXZXZXZXZXZXZXZXZXZXZXZX",
"ZXZXZXZXZXZXZXZXZXZXZXZX0 G G.J.J.]. XS.:XzX2XP.fXfX^.:XzX2XS.[. X$XT.u ZXZXZXZXZXZXZXZXZXZXZXZXZXZXZXZXZXZXZXZXZXZXZXZXZXZXZXZX",
"ZXZXZXZXZXZXZXZXZXZXZXZX0 I H.J.J.]. X+X.X'.|. XoX'.$X|.'.|.XX X X>XT.u ZXZXZXZXZXZXZXZXZXZXZXZXZXZXZXZXZXZXZXZXZXZXZXZXZXZXZXZX",
"ZXZXZXZXu 8 X # ZXZXZXZXq Q J.L.J.].>XXX X|.|. X.XoX X|.]. XXX X X$XT.0 ZXZXZXZX# o # r b ZXZXZXZXZXZXZXZXZXZXZXZXZXZXZXZXZXZXZX",
"ZXZXZXw n ! / ' Q ZXZXZXq D ) G.H./.{.[.{. X X X X X X X X{.[. X X{.R.S r ZXZXZX! ' / P r ZXZXZXZXZXZXZXZXZXZXZXZXZXZXZXZXZXZXZX",
"ZXZXZX# S T. X+XR.8 X 8 8 9 t Q H.J.J.H.^..X X X X X X X X^.J.[.{.P.H.) D X . ~ [. X).' 8 ZXZXZXZXZXZXZXZXZXZXZXZXZXZXZXZXZXZXZX",
"ZXZXZXX H ).$X!.R.] A.A.] ] ' K./.^.^.(.]. X X$X XXX$X+X X].!. X{.'.^.].T.A.] A.T.|.+XU.& ZXZXZXZXZXZXZXZXZXZXZXZXZXZXZXZXZXZXZX",
"ZXZXZXX n ).oXn /  X X X X X X X X X X X X X X X X X X X X X X$X.X X X+X X XXXQ.b U. X[ & ZXZXZXZXZXZXZXZXZXZXZXZXZXZXZXZXZXZXZX",
"ZXZXZXX P {. XT.).>X).] A.A.A.A.] A.A.] ] ] ` _ _ _ ` _ _ _ ` [ A.A.] ] [ R. X XR.[. X] & ZXZXZXZXZXZXZXZXZXZXZXZXZXZXZXZXZXZXZX",
"ZXZXZXZXn T. X X X}./ X 8 q 0 q 8 8 8 9 q 9 f j j j j j l l j p 8 q 0 9 X n Q. X X X[./ & ZXZXZXZXZXZXZXZXZXZXZXZXZXZXZXZXZXZXZX",
"ZXZXZXZXZX! [ ' ' ' S 9 < 5 r         3 7 , #.-.-.-.-.-.-.-.*.k : w 7 < 7 m ! ' ' ' ~ I ZXZXZXZXZXZXZXZXZXZXZXZXZXZXZXZXZXZXZXZX",
"ZXZXZXZXZX# # # o o e A E Y t ..*X*X%XU t Y 2.w.w.w.w.w.w.w.e.>.L i L E L e 8 o # & # ZXZXZXZXZXZXZXZXZXZXZXZXZXZXZXZXZXZXZXZXZX",
"ZXZXZXZXZXZXZXZXZXZX< Y 7.5.$ 9XBXBXnXX.s 2.h.j.c.j.j.j.j.j.j.j.6.A &.7.:.5 ZXZXZXZXZXZXZXZXZXZXZXZXZXZXZXZXZXZXZXZXZXZXZXZXZXZX",
"ZXZXZXZXZXZXZXZXZXZX* U z.r.g =XzXCXlX{ s e.b.n.x.n.N.B.B.n.n.N.g.r 3.uX8.: ZXZXZXZXZXZXZXZXZXZXZXZXZXZXZXZXZXZXZXZXZXZXZXZXZXZX",
"ZXZXZXZXZXZXZXZXZXZX= Y p.p.F , u u u 6 #.q.h.x.x.N.uXiXiXN.x.x.g.h i.rXi.- ZXZXZXZXZXZXZXZXZXZXZXZXZXZXZXZXZXZXZXZXZXZXZXZXZXZX",
"ZXZXZXZXZXZXZXZXZXZX= L r.7.1 &XxXX.H lXjX&.-.b.j.N.B.B.B.N.x.<.:.p.tXyXi.* ZXZXZXZXZXZXZXZXZXZXZXZXZXZXZXZXZXZXZXZXZXZXZXZXZXZX",
"ZXZXZXZXZXZXZXZXZXZX* L r.6.j 8XVX*Xo.mXxXU +.q.h.c.g.k.k.j.g.R 3.tXpXyXs.- ZXZXZXZXZXZXZXZXZXZXZXZXZXZXZXZXZXZXZXZXZXZXZXZXZXZX",
"ZXZXZXZXZXZXZXZXZXZXO A p.v.7.;X=X{ 6 @X*X7.%.g k x x x x k W a.tXrXpXyXi.- , ZXZXZXZXZXZXZXZXZXZXZXZXZXZXZXZXZXZXZXZXZXZXZXZXZX",
"ZXZXZXZXZXZXZXZXZXZXR ,.8.7.qX2.a R E a =.qXp. . . . . . .W 3.tXpXpXtXeX .7 Y Y ZXZXZXZXZXZXZXZXZXZXZXZXZXZXZXZXZXZXZXZXZXZXZXZX",
"ZXZXZXZXZXZXZXZXZX, 5.k.W E z.v.z.z.z.l.qXpXyXrXrXrXrXrXrXrXrXpXpXpX0XI 6 L 4.>.A ZXZX# 2 2 2 2 2 2 2 2 2     D.|.XXT.  (  X[ 8 ",
"ZXZXZXZXZXZXZXZXW <.c.n.1.,.4.4.4.5.5.5.7.a.-X0X-X-X0X0X0X0X0Xa.a.a.5.@.g Z %.>.A O ZX..@XE.E.E.E.E.E.`.U.&X8XcXcXhX1XkXgX<XU.2 ",
"ZXZXZXZXZXZXZX, <.x.n.x.m.g.L , i y y u b r u r u u u u u t r r e 5 %.r.&.r #.#.i ; P #XsX4X4X4X4X4X4X4X<XcXBXBXNX9XkXBXnX1X] + ",
"ZXZXZXZXZXZXZX, 1.n.N.j.N.g.i  .-X .4 %.*.$.;.*.*.*.*.*.*.;.$.$.$.$.0.b.>.u <.%.i ~ ).<XsXsXsXsXsXsX1XdXbXBXBXMXcXbXmXvXkXsX`.+ ",
"ZXZXZXZXZXZXZX, >.j.n.x.m.u.i i.pX8.g 2.e.e.r.q.q.q.q.q.9.e.e.b.e.e.h.k.:.i 4.>.h ` $X,XsXsX1X1X1X1X<XfXNXBXNXfXsXMXMX4X$X:X..+ ",
"ZXZXZXZXZXZXZX6 %.w.M.x.N.u.h i.rX3.g 9.b.M.2.d d C C d a 2.m.m.m.m.f.c q f %.%.h M [ #X,X,X,X,X>X,X1XdXkXfXgXsXsXgXhX,X}./ U ZX",
"ZXZXZXZXZXZXZX6 T -.w.c.m.6.i i.pXy.4 ;.0.g.d.:.t.t.t.y.&Xp.f.f.g.g.3.K J ^ T x i @ q ] /.Q.!.Q.Q.!.#X3X#X~.D._.#XY.S.!.)   ZXZX",
"ZXZXZXZXZXZXZXZXZXF 2.w.w.-.t i.pXy.O p g h d.C.C.C.Z.aXVX8X$ f l l } }.$X).! p m u ZXn P P S S P P P I I H S P I n n I H ZXZXZX",
"ZXZXZXZXZXZXZXZXZX6 T $.;.#.t :.p.3.S.S.J K y.eXeXeXV.jXxX5XJ ( _ _ !.>X$X}.~ @ u ZXZXZXX X X X X X .     . X .   o o o ZXZXZXZX",
"ZXZXZXZXZXZXZXZXZXu b b V b u w b T.XXXX|.J.G.F.F.F.F.F.F./. X}.#X.X X.X+X|.~ o ZXZXZXZXZXZXZXZXZXZXZXZXZXZXZXZXZXZXZXZXZXZXZXZX",
"ZXZXZXZXZXZXZXZXZXr N J B G ) G.Y.R.A...] ~ G N N G N N M ~ R.R.] [ S.P.oXoX~ o ZXZXZXZXZXZXZXZXZXZXZXZXZXZXZXZXZXZXZXZXZXZXZXZX",
"ZXZXZXZXZXZXZXZXZXb } OXOXI.G.(.|.' . & q w w w 0 w 0 w w 3 8 8 & % ^ I.+X+X' + ZXZXZXZXZXZXZXZXZXZXZXZXZXZXZXZXZXZXZXZXZXZXZXZX",
"ZXZXZXZXZXZXZXZXZXb -.qXqXOX^ J ~ H ZXZXZXZXZXZXZXZXZXZXZXZXZXZXZX5 3.z.wX;XE < ZXZXZXZXZXZXZXZXZXZXZXZXZXZXZXZXZXZXZXZXZXZXZXZX",
"ZXZXZXZXZXZXZXZXZXb 3.r.z.<.h . o ZXZXZXZXZXZXZXZXZXZXZXZXZXZXZXZX, :.7.l.5.W , ZXZXZXZXZXZXZXZXZXZXZXZXZXZXZXZXZXZXZXZXZXZXZXZX",
"ZXZXZXZXZXZXZXZXZXb Z L U Z ZXZXZXZXZXZXZXZXZXZXZXZXZXZXZXZXZXZXZXZXZ L L L m y ZXZXZXZXZXZXZXZXZXZXZXZXZXZXZXZXZXZXZXZXZXZXZXZX",
"ZXZXZXZXZXZXZXZXZXu 5 = = ZXZXZXZXZXZXZXZXZXZXZXZXZXZXZXZXZXZXZXZXZXZX= * < e ZXZXZXZXZXZXZXZXZXZXZXZXZXZXZXZXZXZXZXZXZXZXZXZXZX",
"ZXZXZXZXZXZXZXZXZXZXZXZXZXZXZXZXZXZXZXZXZXZXZXZXZXZXZXZXZXZXZXZXZXZXZXZXZXZXZXZXZXZXZXZXZXZXZXZXZXZXZXZXZXZXZXZXZXZXZXZXZXZXZXZX",
"ZXZXZXZXZXZXZXZXZXZXZXZXZXZXZXZXZXZXZXZXZXZXZXZXZXZXZXZXZXZXZXZXZXZXZXZXZXZXZXZXZXZXZXZXZXZXZXZXZXZXZXZXZXZXZXZXZXZXZXZXZXZXZXZX",
"ZXZXZXZXZXZXZXZXZXZXZXZXZXZXZXZXZXZXZXZXZXZXZXZXZXZXZXZXZXZXZXZXZXZXZXZXZXZXZXZXZXZXZXZXZXZXZXZXZXZXZXZXZXZXZXZXZXZXZXZXZXZXZXZX",
"ZXZXZXZXZXZXZXZXZXZXZXZXZXZXZXZXZXZXZXZXZXZXZXZXZXZXZXZXZXZXZXZXZXZXZXZXZXZXZXZXZXZXZXZXZXZXZXZXZXZXZXZXZXZXZXZXZXZXZXZXZXZXZXZX",
"ZXZXZXZXZXZXZXZXZXZXZXZXZXZXZXZXZXZXZXZXZXZXZXZXZXZXZXZXZXZXZXZXZXZXZXZXZXZXZXZXZXZXZXZXZXZXZXZXZXZXZXZXZXZXZXZXZXZXZXZXZXZXZXZX",
"ZXZXZXZXZXZXZXZXZXZXZXZXZXZXZXZXZXZXZXZXZXZXZXZXZXZXZXZXZXZXZXZXZXZXZXZXZXZXZXZXZXZXZXZXZXZXZXZXZXZXZXZXZXZXZXZXZXZXZXZXZXZXZXZX",
"ZXZXZXZXZXZXZXZXZXZXZXZXZXZXZXZXZXZXZXZXZXZXZXZXZXZXZXZXZXZXZXZXZXZXZXZXZXZXZXZXZXZXZXZXZXZXZXZXZXZXZXZXZXZXZXZXZXZXZXZXZXZXZXZX",
"ZXZXZXZXZXZXZXZXZXZXZXZXZXZXZXZXZXZXZXZXZXZXZXZXZXZXZXZXZXZXZXZXZXZXZXZXZXZXZXZXZXZXZXZXZXZXZXZXZXZXZXZXZXZXZXZXZXZXZXZXZXZXZXZX",
"ZXZXZXZXZXZXZXZXZXZXZXZXZXZXZXZXZXZXZXZXZXZXZXZXZXZXZXZXZXZXZXZXZXZXZXZXZXZXZXZXZXZXZXZXZXZXZXZXZXZXZXZXZXZXZXZXZXZXZXZXZXZXZXZX",
"ZXZXZXZXZXZXZXZXZXZXZXZXZXZXZXZXZXZXZXZXZXZXZXZXZXZXZXZXZXZXZXZXZXZXZXZXZXZXZXZXZXZXZXZXZXZXZXZXZXZXZXZXZXZXZXZXZXZXZXZXZXZXZXZX"
};
