/* XPM */
static char *result[] = {
/* columns rows colors chars-per-pixel */
"55 64 246 2 ",
"   c #000000",
".  c #000D00",
"X  c #00040C",
"o  c #01051A",
"O  c #00151D",
"+  c #0E0D1A",
"@  c #2F040B",
"#  c #000423",
"$  c #000824",
"%  c #04062A",
"&  c #001523",
"*  c #011924",
"=  c #001B2A",
"-  c #0B1B27",
";  c #181C26",
":  c #141B26",
">  c #000D35",
",  c #271D27",
"<  c #371830",
"1  c #103231",
"2  c #2D212C",
"3  c #23262E",
"4  c #39232A",
"5  c #352132",
"6  c #2D3336",
"7  c #003100",
"8  c #440004",
"9  c #420014",
"0  c #6A0000",
"q  c #4B3710",
"w  c #4D0C2F",
"e  c #750637",
"r  c #472829",
"t  c #522928",
"y  c #492735",
"u  c #522935",
"i  c #5A2B35",
"p  c #582B3B",
"a  c #513825",
"s  c #6A322B",
"d  c #76362C",
"f  c #632E39",
"g  c #67313B",
"h  c #79373A",
"j  c #632F2B",
"k  c #662104",
"l  c #484116",
"z  c #755000",
"x  c #5E4228",
"c  c #474230",
"v  c #6A4932",
"b  c #0E3E4B",
"n  c #3A3B59",
"m  c #3B3548",
"M  c #3B3B61",
"N  c #761051",
"B  c #4C3546",
"V  c #6C3142",
"C  c #733443",
"Z  c #7C3745",
"A  c #7E3846",
"S  c #7B3748",
"D  c #7A3749",
"F  c #6B2E44",
"G  c #673866",
"H  c #044650",
"J  c #2E5355",
"K  c #006260",
"L  c #434649",
"P  c #504E55",
"I  c #69434B",
"U  c #734C70",
"Y  c #5B7278",
"T  c #6F7274",
"R  c #4A4165",
"E  c #8A0B0A",
"W  c #B71400",
"Q  c #B30000",
"!  c #BF2300",
"~  c #B4360E",
"^  c #8A3A2D",
"/  c #983E2E",
"(  c #883B39",
")  c #953835",
"_  c #982C26",
"`  c #C42700",
"'  c #C23600",
"]  c #C31200",
"[  c #9F4532",
"{  c #944137",
"}  c #8A4C33",
"|  c #AC4A32",
" . c #AB4A3D",
".. c #A44638",
"X. c #B44D33",
"o. c #B44D3C",
"O. c #B74B38",
"+. c #BC5134",
"@. c #BD5139",
"#. c #A0402E",
"$. c #AD753A",
"%. c #C94807",
"&. c #CA5100",
"*. c #D47109",
"=. c #C1452E",
"-. c #C54C2A",
";. c #C24B31",
":. c #C55435",
">. c #CA5535",
",. c #C65937",
"<. c #CD5835",
"1. c #C65939",
"2. c #D35A36",
"3. c #C7522E",
"4. c #CC643C",
"5. c #D2722E",
"6. c #833A46",
"7. c #8C3D45",
"8. c #823548",
"9. c #843A49",
"0. c #8A3C4A",
"q. c #853546",
"w. c #86395D",
"e. c #8E3849",
"r. c #AD1A6A",
"t. c #8E3E63",
"y. c #AC3272",
"u. c #901F44",
"i. c #9C4343",
"p. c #954A46",
"a. c #955449",
"s. c #87464F",
"d. c #A34642",
"f. c #A94A42",
"g. c #B05446",
"h. c #B37248",
"j. c #8B4F73",
"k. c #AE4A73",
"l. c #887873",
"z. c #AD6D6C",
"x. c #826A5C",
"c. c #CC6B44",
"v. c #D47B49",
"b. c #D57646",
"n. c #CF714F",
"m. c #CB786C",
"M. c #DF8500",
"N. c #E18B19",
"B. c #DE872C",
"V. c #DD8833",
"C. c #E08C29",
"Z. c #E18E35",
"A. c #E18F3A",
"S. c #E2913D",
"D. c #BC834F",
"F. c #A3817D",
"G. c #D9854A",
"H. c #DB8B52",
"J. c #D48852",
"K. c #DD9557",
"L. c #CE894F",
"P. c #E2944A",
"I. c #E29552",
"U. c #E39957",
"Y. c #E09659",
"T. c #E49B5B",
"R. c #E99C5C",
"E. c #E08E54",
"W. c #EBA05E",
"Q. c #D4887B",
"!. c #E49E63",
"~. c #E39E68",
"^. c #E5A16A",
"/. c #EAA468",
"(. c #E6A676",
"). c #E2A27A",
"_. c #F0A360",
"`. c #727F87",
"'. c #BA3B81",
"]. c #B84985",
"[. c #A85384",
"{. c #8E6B80",
"}. c #C64888",
"|. c #C8578E",
" X c #D45A94",
".X c #CF5790",
"XX c #E55A99",
"oX c #D7679B",
"OX c #E5629E",
"+X c #ED64A2",
"@X c #EF6AA5",
"#X c #F567A7",
"$X c #FA68A9",
"%X c #F175AA",
"&X c #6F8D93",
"*X c #779BA2",
"=X c #689DA3",
"-X c #969899",
";X c #858C8B",
":X c #849BA3",
">X c #9B9CA4",
",X c #A398A6",
"<X c #9AA3A8",
"1X c #8BB2BA",
"2X c #A7A8A9",
"3X c #B5B5B7",
"4X c #AEB3B5",
"5X c #EBB897",
"6X c #E6AE8A",
"7X c #D0AEAB",
"8X c #E7BEA8",
"9X c #CA8896",
"0X c #EFCBB6",
"qX c #ECCAB9",
"wX c #F1CEB9",
"eX c #F2D0BD",
"rX c #ECC2A7",
"tX c #A9BBC2",
"yX c #A8C4CB",
"uX c #A7CAD1",
"iX c #B7D2D8",
"pX c #B1CCD2",
"aX c #9FC1C8",
"sX c #C9C8C9",
"dX c #C8D9DD",
"fX c #D7D8D9",
"gX c #DFCFCE",
"hX c #F1D4C3",
"jX c #F3DACB",
"kX c #EAD9D7",
"lX c #F3DCD3",
"zX c #EECDC8",
"xX c #F6E6DD",
"cX c #CEDFE4",
"vX c #D6E5E8",
"bX c #CEE4E8",
"nX c #E3E8EA",
"mX c #F3E4E2",
"MX c #F7E8E1",
"NX c #F8E9E2",
"BX c #F7ECE8",
"VX c #FBF2ED",
"CX c #EAF3F5",
"ZX c #FFFEFE",
"AX c #F7F7F6",
"SX c None",
/* pixels */
"SXSXSXSXSXSXSXSXSXSXSXSXSXSXSXSXSXSXSXSXSXSXSXSXSXSXSXSXSXSXSXSXSXSXSXSXSXSXSXSXSXSXSXSXSXSXSXSXSXSXSXSXSXSXSX",
"SXSXSXSXSXSXSXSXSXSXSXSXSXSXSXSXSXSXSXSXSXSXSXSXSXSXSXSXSXSXSXSXSXSXSXSXSXSXSXSXSXSXSXSXSXSXSXSXSXSXSXSXSXSXSX",
"SXSXSXSXSXSXSXSXSXSXSXSXSXSXSXSXSXSXSXSXSXSXSX& $ $ $ $ $ $ $ $ $ $ $ SXSXSXSXSXSXSXSXSXSXSXSXSXSXSXSXSXSXSXSX",
"SXSXSXSXSXSXSXSXSXSXSXSXSXSXSXSXSXSXSXO $ o 5 C [ ../ / [ [ [ [ [ ..{ & # SXSXSXSXSXSXSXSXSXSXSXSXSXSXSXSXSXSX",
"SXSXSXSXSXSXSXSXSXSXSXSXSXSXSXSXSXSX= F ( ^ ) o.>.>.b.c.<.<.<.<.>.>.:./ { s SXSXSXSXSXSXSXSXSXSXSXSXSXSXSXSXSX",
"SXSXSXSXSXSXSXSXSXSXSXSXSXSXSXSX5 j ( d.<.<.4.c.4.;.Y.G.=.:.:.:.:.:.:.<.2.| s s SXSXSXSXSXSXSXSXSXSXSXSXSXSXSX",
"SXSXSXSXSXSXSXSXSXSXSXSXSXSXSX2 A o.<.>.:.;.G./.R.,.H.v.;.:.:.:.:.:.:.:.:.:.<.>.s SXSXSXSXSXSXSXSXSXSXSXSXSXSX",
"SXSXSXSXSXSXSXSXSXSXSXSXSXSX5 S O.>.:.:.:.;.v.!.Y.1.;.:.>.:.:.:.1.>.,.,.,.1.1.<.2.d & SXSXSXSXSXSXSXSXSXSXSXSX",
"SXSXSXSXSXSXSXSXSXSXSXSXSXy A A O.,.:.:.:.:.1.1.:.:.:.:.:.:.;.=.v.W.T.T.T.T.T.U.4.:.^ # SXSXSXSXSXSXSXSXSXSXSX",
"SXSXSXSXSXSXSXSXSXSXSXSXSXy 9.S O.>.-.! ! ` ! ! ! ! -.;.4.Y.H.U.h.7 l l a q l q   L.v._ * SXSXSXSXSXSXSXSXSXSX",
"SXSXSXSXSXSXSXSXSXSXSXO u S 6.C | ` Q.BXMXMXmXlXmXmXm.&.K.T._.$.k. X|. X X X X X Xs.V.L.o   fXZXSXSXSXSXSXSXSX",
"SXSXSXSXSXSXSXSXSXSXSXO f 0.6.f.-.z.sXZXvXbXCXZXZXZXmX6XC.Y.h.b [.$X$Xy.y.'.].y.k.].z.z m sXZXZXZXZXSXSXSXSXSX",
"SXSXSXSXSXSXSXSXSXSXSXu C A 0.:.` 7XbXvXaX1XcXZXZXZXZXBX5XI.  j.OXXX|.3X3X<X:X3XX y.k.u.B CXvXAXZXZXSXSXSXSXSX",
"SXSXSXSXSXSXSXSXSXSX* S 0.S 6.:.g.kXAX1XiXiXnXZXZXZXZXZXNX$.s.XX$XoX&XZXZXnXdXZX<X1 k.XXb 1X1XvXZXZXZXSXSXSXSX",
"SXSXSXSXSXSXSXSXSXSX* h 7.Z 6.%.4XCXAXpXZXZXVXBXZXAXZXZXdX  +X$XXX9XpXZXZXdXyXZXZX;Xr. X1 uXpXcXAXAXZXSXSXSXSX",
"SXSXSXSXSXSXSXSXSXSX- X.o.A 7.~ mXZXZXZXZXZX3X&XZXaXAXvX=Xw +X$Xy.K uXAXZX4XT ZXZX&Xy..XP CXZX3XH uXZXSXSXSXSX",
"SXSXSXSXSXSXSXSXSX4 +.:.;.c.K.@ fXZXZXZXZXZXZXZXAXaXAXsX  U @Xt.X 3 6 L L 6 3 L L : B [.%XAXZXZXnXaXZXSXSXSXSX",
"SXSXSXSXSXSXSXSXSXr :.>.:.c.K.r P <XbXZXZXZXZXZXZXZXbX&Xe +X#Xw.. ; + o o - ; o o X n k.%XpXAXZXZXAXbXSXSXSXSX",
"SXSXSXSXSXSXSXSXSX4 p.@.3.b.U.6   &XuXcXZXZXZXZXZXcXuX&XN $X#Xw.. ; ; ; ; ; ; ; ; - = j.%XyXiXdXdXdX`.SXSXSXSX",
"SXSXSXSXSX    SXSX, C i...g.c.#.@ J *XuXvXbXvXvXvXuX*XJ u.#X#Xw.. ; ; : ; ; ; ; ; ;   w.$X`.1XuX1XY o SXSXSXSX",
"SXSXSXSXSX2XsX<X  2 A S C a.v.v.h.k b :X&X&X&X*X*X*Xb   w.#X#Xw.. ; ; ; ; ; ; ; ; ; . t.+X@ `.:X&X  + SXSXSXSX",
"SXSXSXSXP ZXZX7X8 , A 6.C g.I.H.R.h.@               v x w.#X#Xw.      : ; ; :     O . w.+XB       ; SXSXSXSXSX",
"SXSXSXSX;XBX9X] ..* S A S e.;.;.3.<.X.r u x v x x a L.h.N +X+Xw.J T T ; o X 1 P T y   j.+Xy O ; ; SXSXSXSXSXSX",
"SXSX  >XZXc.%. .F , Z 0.8.d.>.:.:.>.>.>.:.H.R.~././.(.g.> `.+Xe 3XZXAXT 6 2 `.iXZX-X% [.+Xy O SXSXSXSXSXSXSXSX",
"SXSXSX-XZXn.) 8.F 4 +.:.:.:.;.:.:.:.:.:.3.;.*.5XZXZXZX3X  j.#Xu.&XdXZXZXAXAXZXZXZX&Xr.OXU   X SXSXSXSXSXSXSXSX",
"SXSXSX>XZXn.) D F 4 +.:.>.c.K.:.=.;.;.;.-.5.0XAXZXZXZXZXsX+ j. Xk.<XZXZXZXZXZXZX,X1 k.XXJ BX-X  SXSXSXSXSXSXSX",
"SXSXSX-XZX3.E 6.g 4 :.>.;.c.T.H.H.H.H.H.H.C.hXZXZXZXZXZXvX  U [.|.oX>X>X>X,X>X>X= k. Xs.H ZX>X  SXSXSXSXSXSXSX",
"SXSX  2XZXlXz.e h , i.:.3.c.T.T.W.T.T.T.T.Z.hXZXZXeX0XeX7X$.m R {.|.}.}.}.}.}.}.].$X].1 L.qXl.  SXSXSXSXSXSXSX",
"SXSXSXT fXZX7XE y & y ) d.c.R.T.T.T.T.T.T.C.jXZXhXI.B.Z.P.W.$.B M j. XoX X XoX X X].k.$.W.S.} SXSXSXSXSXSXSXSX",
"SXSXSXSX  kX9X0 5 s s ( S a.E.H.H.H.H.H.H.P.wXlXM.U.U.T.U.T./.$.I R n n n n n n J c D.W.T./.} SXSXSXSXSXSXSXSX",
"SXSXSXSX, 0 @ V f.<.>.<.d.e.3.;.+.;.;.;.=.J.A.A.T.U.U.U.U.U.U._.h.4 x x x x x x a L.W.K.T.K.} o SXSXSXSXSXSXSX",
"SXSXSXSXSX* O.<.>.:.>.>.d.7.>.>.:.:.:.:.:.3.@.n.^.^.^.^.^.^.T.T.W.W.T.T.T.W.K.!.U.W.^.^.!.n.h # SXSXSXSXSXSXSX",
"SXSXSXSX4 O.:.:.:.:.:.:.:.:.:.:.:.:.:.:.:.W qXZXAXZXZXZXZXAX^.S.U.T.T.T.K.T.T.T.T.N.eXZXZXZX-X  SXSXSXSXSXSXSX",
"SXSXSX5 Z :.:.:.:.:.:.:.:.;.;.+.;.;.;.;.=.*.zXZXZXZXZXZXZXZXVXAX0XM.Z.Z.A.Z.Z.Z.M.jXZXZXZXZX-XSXSX: & SXSXSXSX",
"SXSXSXj @.:.:.:.>.>.>.>.3.4.H.H.H.H.H.H.H.B.hXZXZXZXZXZXZXZXZXZXAXxXxXxXNXNXNXNXxXZXZXZXZXZX-X  O 4 | s SXSXSX",
"SXSX5 ( >.:.:.>.;...d.d.d.h./.T.W.T.W.T.T.C.jXZXZX0XrXrXjXZXZXZXZXZXZXZXZXZXZXZXZXZXZXZXZXwXx.@ p 4 >.h % SXSX",
"SX$ h g.:.:.>.@.d.C B p w a.^.U.K.W.K.W.T.P.5XlXhXwX0X0XwXhXhXAXZXZXZXZXZXZXZXZXZXZXBXhXhXeXx.w C , @.d SXSXSX",
"SX= ..2.:.>.;.p.F F & < % } K.H.H.H.H.J.H.G.).5X5XBXVXVXxX6X5XjXNXxXxXxXxXxXxXxXxXMXeX6X5XVX;X8 h d :.d SXSXSX",
"* Z o.:.;.+.) y - * * h p.7.:.1.1.4.4.,.1.' qXZXVXT.C.M.5XZXZXrX~.(.(.(.(.(.(.(.(.!.hXZXVX!.z y f.<.<.d $ SXSX",
"* | 2.o.F - b I C : * | >.:.1.K.T.K.T.K.U.Y.K.P.I.U.T.U.U.P.C.xXZXZXZXZXZXZXZXZXZXZXhXM.P.!.v ^ <.;.:.d $ SXSX",
"* | 2.o.*   nXzXQ C ; h 0.Z 7.1.1.,.,.,.,.,.:.c.T.T.T.T.U.T.T.!.^.^.^.~.^.^.^.^.^.^.~.U.T.R.v w 0.9.r ; : SXSX",
"- t j t SXSXY z.%.W < C A D 9.:.>.:.:.:.:.;.v.P.Z.Z.Z.A.Z.A.Z.Z.C.S.U.U.U.U.U.U.U.U.U.U.V.&.k V 0.D 2 SXSXSXSX",
"SXSXSXSXSXSXSX  ;XNXP X )  .A :.>.:.:.:.;.=.5.5XNXMXMXNXMXNXMXMXBXhXM.U.T.T.T.U.U.P.M.6XNXMX;X  p y SXSXSXSXSX",
"SXSXSXSXSXSXSX2XfX8Xy X { :. .i.X.;.;.;.=.b.B.8XZXZXZXZXZXZXZXZXZXAXhXU.B.A.A.Z.N.0XjXxXZXZX-XX SXSXSXSXSXSXSX",
"SXSXSXSXSXSX  vXAXQ f = / 2.<.7.c.G.v.v.b.K.P.rXZXZXZXZXZXZXZXZXZXZXZXhX0XwXwXwX0XAXZXZXZXlX{.SXSXSXSXSXSXSXSX",
"SXSXSXSXSXSX  4XgX~ e.5 d +.>.:.J.K.T.W.T.T.P.6XMXMXMXMXMXxXxXZXZXZXZXZXZXZXZXZXZXZXZXZXAXO.0 = SXSXSXSXSXSXSX",
"SXSXSXSXSXSXSXSX@ 9.8.r o j <.:.X.b.K.T.T.T.T.I.B.B.B.Z.A.Z.M.lXAXVXZXZXZXZXZXZXZXZXZXZXmXs.@ SXSXSXSXSXSXSXSX",
"SXSXSXSXSXSXSXSXd :.7.u & s :.:.;.=.c.T.U.K.T.H.;.:.=.v.T.U.R.I.C.5XZXZXZXZXZXAXZXAXZXlXW 4 SXSXSXSXSXSXSXSXSX",
"SXSXSXSXSXSXSXSXSXt :.<./ & 4 0.9.9.0.s.s.6.f.2.>.:.>.>.:.1.T.!.R.!.^.~.^.^.^.~.(.v.g.s.6.2 SXSXSXSXSXSXSXSXSX",
"SXSXSXSXSXSXSXSXSXSXt j r = : 2 C 0.6.A 6.Z 6.7.p.6.i , i p.p.a.a.a.p.a.a.p.a.a.a.0.0.C 2 SXSXSXSXSXSXSXSXSXSX",
"SXSXSXSXSXSXSXSXSXSXSXSXSXSXSXSXy y f 0.6.6.A A 6.o.| | / 5 A q.q.8.A 8.q.q.A 8.e.p y r SXSXSXSXSXSXSXSXSXSXSX",
"SXSXSXSXSXSXSXSXSXSXSXSXSXSXSXSXSXSX4 f p Z 0.Z 9.3.<.<.O.y p p i p u u u u u u p < * SXSXSXSXSXSXSXSXSXSXSXSX",
"SXSXSXSXSXSXSXSXSXSXSXSXSXSXSXSXSXSXSXO O p A 9.6. .+.>.@.i.; O O ; u p u u u u * - SXSXSXSXSXSXSXSXSXSXSXSXSX",
"SXSXSXSXSXSXSXSXSXSXSXSXSXSXSXSXSXSXSXSXSXSXu A 9.C O.:.>.:.i - , f 0.0.9.9.9.h 2 - SXSXSXSXSXSXSXSXSXSXSXSXSX",
"SXSXSXSXSXSXSXSXSXSXSXSXSXSXSXSXSXSXSXSXSXSXSX4 Z D  .:.>.:.p.r p 0.Z 6.Z Z g * ; SXSXSXSXSXSXSXSXSXSXSXSXSXSX",
"SXSXSXSXSXSXSXSXSXSXSXSXSXSXSXSXSXSXSXSXSXSXSXSX, S S f.>.+.>.s u 9.A A y O - ; SXSXSXSXSXSXSXSXSXSXSXSXSXSXSX",
"SXSXSXSXSXSXSXSXSXSXSXSXSXSXSXSXSXSXSXSXSXSXSXSX; * C 9.6.7.:.i.p * * = = * SXSXSXSXSXSXSXSXSXSXSXSXSXSXSXSXSX",
"SXSXSXSXSXSXSXSXSXSXSXSXSXSXSXSXSXSXSXSXSXSXSXSX2 A y g 0.0.7.0.y t +.+.+.^ $ SXSXSXSXSXSXSXSXSXSXSXSXSXSXSXSX",
"SXSXSXSXSXSXSXSXSXSXSXSXSXSXSXSXSXSXSXSXSXSXSXSXSXu 2 2 u u A A ( +.>.:.2...$ SXSXSXSXSXSXSXSXSXSXSXSXSXSXSXSX",
"SXSXSXSXSXSXSXSXSXSXSXSXSXSXSXSXSXSXSXSXSXSXSXSXSXSXSXSX* - p V f.2.>.<.| j SXSXSXSXSXSXSXSXSXSXSXSXSXSXSXSXSX",
"SXSXSXSXSXSXSXSXSXSXSXSXSXSXSXSXSXSXSXSXSXSXSXSXSXSXSXSXSX: * V i. . ...t SXSXSXSXSXSXSXSXSXSXSXSXSXSXSXSXSXSX",
"SXSXSXSXSXSXSXSXSXSXSXSXSXSXSXSXSXSXSXSXSXSXSXSXSXSXSXSXSXSX* f C F F & SXSXSXSXSXSXSXSXSXSXSXSXSXSXSXSXSXSXSX",
"SXSXSXSXSXSXSXSXSXSXSXSXSXSXSXSXSXSXSXSXSXSXSXSXSXSXSXSXSXSXSX* * O * SXSXSXSXSXSXSXSXSXSXSXSXSXSXSXSXSXSXSXSX",
"SXSXSXSXSXSXSXSXSXSXSXSXSXSXSXSXSXSXSXSXSXSXSXSXSXSXSXSXSXSXSXSXSXSXSXSXSXSXSXSXSXSXSXSXSXSXSXSXSXSXSXSXSXSXSX"
};
