/* XPM */
static char *result[] = {
/* columns rows colors chars-per-pixel */
"49 65 9 1 ",
"  c #181C26",
". c #724D70",
"X c #C55435",
"o c #813947",
"O c #E39A5B",
"+ c #F065A3",
"@ c #A1C2C9",
"# c white",
"$ c None",
/* pixels */
"$$$$$$$$$$$$$$$$$$$$$$$$$$$$$$$$$$$$$$$$$$$$$$$$$",
"$$$$$$$$$$$$$$$$$$$$$$$$$$$$$$$$$$$$$$$$$$$$$$$$$",
"$$$$$$$$$$$$$$$$$$$$$$$$$$$$$$$$$$$$$$$$$$$$$$$$$",
"$$$$$$$$$$$$$$$$$$$$$$$$$$$$$$$$$$$$$$$$$$$$$$$$$",
"$$$$$$$$$$$$$$$$$$$          $$$$$$$$$$$$$$$$$$$$",
"$$$$$$$$$$$$$$$$   oXXXXXXXXX  $$$$$$$$$$$$$$$$$$",
"$$$$$$$$$$$$$$  oXXXXXOXXXXXXXX  $$$$$$$$$$$$$$$$",
"$$$$$$$$$$$$$ oXXXXOOXOXXXXXXXXXX $$$$$$$$$$$$$$$",
"$$$$$$$$$$$$ oXXXXXOOXXXXXXXXXXXXX $$$$$$$$$$$$$$",
"$$$$$$$$$$$ ooXXXXXXXXXXXXXOOOOOOXX $$$$$$$$$$$$$",
"$$$$$$$$$$$ ooXXXXXXXXXXOOO       OX $$$$$$$$$$$$",
"$$$$$$$$$$ oooXX######XOOO +++++++ O  ##$$$$$$$$$",
"$$$$$$$$$$ ooXX@#@@####OO .++.... +  ####$$$$$$$$",
"$$$$$$$$$ oooXX#@@@#####O ++.##@#  + @@###$$$$$$$",
"$$$$$$$$$ oooX@#@####### +++@##@## + @@###$$$$$$$",
"$$$$$$$$$ XooX##### #@#@ ++ @## ## + ## @#$$$$$$$",
"$$$$$$$$ XXXO #######@# .+         .+###@#$$$$$$$",
"$$$$$$$$ XXXO  @######@ ++         .+@###@$$$$$$$",
"$$$$$$$$ oXXO  @@####@@ ++          +@@@@ $$$$$$$",
"$$$$$$$$ oooXX  @@@@@@  ++          + @@  $$$$$$$",
"$$$$$$   oooOOO         ++          +    $$$$$$$$",
"$$$$$ #X oooXXXX      O ++          +   $$$$$$$$$",
"$$$$ ##o oooXXXXXXOOOOO .+ ##   @# .+  $$$$$$$$$$",
"$$$$ #Xo XXXXXXXXXXO### .+ @###### +.  $$$$$$$$$$",
"$$$ ##Xo XXXOXXXXXO##### .+.#####. + # $$$$$$$$$$",
"$$$ #Xoo XXXOOOOOOO##### ..+..... +. # $$$$$$$$$$",
"$$$ #Xoo oXXOOOOOOO##OOOO ..+++++++ OO $$$$$$$$$$",
"$$$ #Xoo oooOOOOOOO#OOOOOO ....... OOO $$$$$$$$$$",
"$$$ ##Xo oooXXXXXXOOOOOOOOO       OOOO $$$$$$$$$$",
"$$$$ #XX  ooXXXXXXXXOOOOOOOOOOOOOOOOOX $$$$$$$$$$",
"$$$$ oo  XXoXXXXXXX######OOOOOOOOOO### $$$$$$$$$$",
"$$$$$   oXXXXXXXXXO########OOOOOOO#### $$$$$$$$$$",
"$$$$ #X XXXXXOOOOOO################### $$$$$$$$$$",
"$$$ ##X XXXXXXOOOOO##OOO#############O  $$$$$$$$$",
"$$$ #X oXXXXXXOOOOOOO###OO#########OO#  $$$$$$$$$",
"$$$ #X XXXXoooXXXXX##OOO##OOOOOOOOO##O o $$$$$$$$",
"$$$ #X XXXoo  OOOOOOOOOOOO#########OOO o $$$$$$$$",
"$$$ # oXXoo oXXXXXXXOOOOOOOOOOOOOOOOOO oo $$$$$$$",
"$$$$  XXXo ooXXXXXXOOOOOOOOOOOOOOOOOOX oo $$$$$$$",
"$$$$$ XXo  XoXXXXXXO########OOOOOOOO## oo $$$$$$$",
"$$$$$ XX   XXoXXXXOO#########OOOOO#### oo $$$$$$$",
"$$$$$ X #o XXXOOOOOO#################X  o $$$$$$$",
"$$$$$   #o  XXXOOOOOOOOOOO###########o $  $$$$$$$",
"$$$$$$$$ Xo XXXXOOOOXXXOOOOO########X $$$$$$$$$$$",
"$$$$$$$$$ X  ooooooXXXXXXOOOOOOOOOXoo $$$$$$$$$$$",
"$$$$$$$$$$    oooooooooooooooooooooo $$$$$$$$$$$$",
"$$$$$$$$$$$$$ oooooooooooooooooooo  $$$$$$$$$$$$$",
"$$$$$$$$$$$$$ ooXXoo              $$$$$$$$$$$$$$$",
"$$$$$$$$$$$$$$ XXXooo $$$$       $$$$$$$$$$$$$$$$",
"$$$$$$$$$$$$$$ XXXXoo $$$$  oooo $$$$$$$$$$$$$$$$",
"$$$$$$$$$$$$$$$ XXXoo $$$$ ooooo $$$$$$$$$$$$$$$$",
"$$$$$$$$$$$$$$$ oXXoo $$$$ ooXX $$$$$$$$$$$$$$$$$",
"$$$$$$$$$$$$$$$$ XXoo $$$$ ooXX $$$$$$$$$$$$$$$$$",
"$$$$$$$$$$$$$$$$ oXoo $$$$ ooX $$$$$$$$$$$$$$$$$$",
"$$$$$$$$$$$$$$$$$ ooo $$$$ ooo $$$$$$$$$$$$$$$$$$",
"$$$$$$$$$$$$$$$$$  oo $$$$ oo  $$$$$$$$$$$$$$$$$$",
"$$$$$$$$$$$$$$$$ oooo $$$$ oooo $$$$$$$$$$$$$$$$$",
"$$$$$$$$$$$$$$$$$$$$$$$$$$$$$$$$$$$$$$$$$$$$$$$$$",
"$$$$$$$$$$$$$$$$$$$$$$$$$$$$$$$$$$$$$$$$$$$$$$$$$",
"$$$$$$$$$$$$$$$$$$$$$$$$$$$$$$$$$$$$$$$$$$$$$$$$$",
"$$$$$$$$$$$$$$$$$$$$$$$$$$$$$$$$$$$$$$$$$$$$$$$$$",
"$$$$$$$$$$$$$$$$$$$$$$$$$$$$$$$$$$$$$$$$$$$$$$$$$",
"$$$$$$$$$$$$$$$$$$$$$$$$$$$$$$$$$$$$$$$$$$$$$$$$$",
"$$$$$$$$$$$$$$$$$$$$$$$$$$$$$$$$$$$$$$$$$$$$$$$$$",
"$$$$$$$$$$$$$$$$$$$$$$$$$$$$$$$$$$$$$$$$$$$$$$$$$"
};
