/* XPM */
static char *result[] = {
/* columns rows colors chars-per-pixel */
"64 64 243 2 ",
"   c #000000",
".  c #02030A",
"X  c #170404",
"o  c #000318",
"O  c #00151E",
"+  c #0A1210",
"@  c #360010",
"#  c #000C24",
"$  c #000424",
"%  c #001523",
"&  c #011A23",
"*  c #061927",
"=  c #1A1D26",
"-  c #171825",
";  c #000636",
":  c #08162E",
">  c #251C26",
",  c #281E28",
"<  c #30112A",
"1  c #05252A",
"2  c #1C212B",
"3  c #142328",
"4  c #112636",
"5  c #27232C",
"6  c #33222C",
"7  c #3A2229",
"8  c #382532",
"9  c #2F3138",
"0  c #540203",
"q  c #4C0510",
"w  c #740803",
"e  c #511532",
"r  c #4B2836",
"t  c #5D2D3A",
"y  c #542936",
"u  c #502D27",
"i  c #79372B",
"p  c #622D3A",
"a  c #68313E",
"s  c #702F31",
"d  c #682318",
"f  c #724F2F",
"g  c #764000",
"h  c #2D1344",
"j  c #1B3650",
"k  c #3F3F42",
"l  c #651D50",
"z  c #5C304B",
"x  c #632C42",
"c  c #792743",
"v  c #6B3243",
"b  c #743443",
"n  c #7A3644",
"m  c #7B3846",
"M  c #7C3549",
"N  c #793649",
"B  c #79385A",
"V  c #6D3054",
"C  c #7B3262",
"Z  c #0A4749",
"A  c #315455",
"S  c #2F625A",
"D  c #297172",
"F  c #43444E",
"G  c #73554D",
"H  c #725271",
"J  c #526B6C",
"K  c #67696A",
"L  c #777678",
"P  c #746C73",
"I  c #584966",
"U  c #960100",
"Y  c #A80C00",
"T  c #BA3209",
"R  c #863C2D",
"E  c #93342F",
"W  c #A93A32",
"Q  c #8F1F23",
"!  c #C23501",
"~  c #C43106",
"^  c #A46200",
"/  c #9A4335",
"(  c #914B34",
")  c #BC442B",
"_  c #AA4A33",
"`  c #A84739",
"'  c #B44D3B",
"]  c #B74C37",
"[  c #BD513A",
"{  c #BC5236",
"}  c #AC543A",
"|  c #AD783C",
" . c #A24416",
".. c #C74E0D",
"X. c #D36E00",
"o. c #C4482E",
"O. c #C9542D",
"+. c #C34C31",
"@. c #C55435",
"#. c #CB5634",
"$. c #CC5935",
"%. c #C75839",
"&. c #D15A37",
"*. c #CB633C",
"=. c #CC683F",
"-. c #CB7D3B",
";. c #D2722B",
":. c #823946",
">. c #8C3D45",
",. c #833A49",
"<. c #893B4A",
"1. c #923E47",
"2. c #9C2751",
"3. c #923569",
"4. c #B33E7B",
"5. c #991A5F",
"6. c #984444",
"7. c #87444B",
"8. c #A64842",
"9. c #B15241",
"0. c #86634D",
"q. c #B67B48",
"w. c #AD6C47",
"e. c #8C5776",
"r. c #A64773",
"t. c #8A6D72",
"y. c #B9746D",
"u. c #CE6E42",
"i. c #CA6445",
"p. c #CB7749",
"a. c #D17346",
"s. c #D87A49",
"d. c #CA6D52",
"f. c #C87466",
"g. c #DE871E",
"h. c #DF8500",
"j. c #E28A0A",
"k. c #DD8831",
"l. c #E08B27",
"z. c #E18E36",
"x. c #E18F39",
"c. c #E2913A",
"v. c #BF8647",
"b. c #C28549",
"n. c #D9834D",
"m. c #CA8654",
"M. c #DC8C53",
"N. c #DC8754",
"B. c #DE9256",
"V. c #DE9959",
"C. c #E29244",
"Z. c #E2954C",
"A. c #E29553",
"S. c #E39855",
"D. c #E1955A",
"F. c #E49C5C",
"G. c #E99D5A",
"H. c #E08F45",
"J. c #E9A15E",
"K. c #D58F71",
"L. c #E49D63",
"P. c #E69F64",
"I. c #EAA162",
"U. c #E7A469",
"Y. c #E6A879",
"T. c #5B7E86",
"R. c #A95985",
"E. c #B55387",
"W. c #BB5189",
"Q. c #8A7188",
"!. c #906F88",
"~. c #AF748C",
"^. c #9F5682",
"/. c #C84382",
"(. c #CB558C",
"). c #DB5895",
"_. c #D84F90",
"`. c #E35798",
"'. c #D06196",
"]. c #E4629C",
"[. c #F35EA2",
"{. c #EC67A3",
"}. c #FA68A9",
"|. c #EC79AC",
" X c #77959C",
".X c #73858A",
"XX c #7D9AA1",
"oX c #858586",
"OX c #8B9295",
"+X c #969798",
"@X c #968A8B",
"#X c #849CA4",
"$X c #8CAEB5",
"%X c #A8A9AC",
"&X c #B7BABB",
"*X c #ADB1B2",
"=X c #AC9398",
"-X c #D28D83",
";X c #D29288",
":X c #DEA587",
">X c #E7AE85",
",X c #E7AF88",
"<X c #E8AE85",
"1X c #E9B28B",
"2X c #E7B18C",
"3X c #EBB998",
"4X c #F1BF9F",
"5X c #CEB3B2",
"6X c #E8B3A4",
"7X c #EA82AD",
"8X c #EDC3A8",
"9X c #EEC9B3",
"0X c #E9C7B7",
"qX c #F0CEBA",
"wX c #F2CDB6",
"eX c #96BCC4",
"rX c #8FB9C1",
"tX c #B4CDD3",
"yX c #BCD5D9",
"uX c #A7C6CC",
"iX c #C5D8DC",
"pX c #CCC9CB",
"aX c #F3DACC",
"sX c #F1D4C5",
"dX c #F4DDD2",
"fX c #E7CFCF",
"gX c #F8E2D6",
"hX c #CBDDE1",
"jX c #D3DFE2",
"kX c #D9E7EA",
"lX c #D5E9ED",
"zX c #E6E8EA",
"xX c #F9ECE5",
"cX c #F6EBE8",
"vX c #FBF1ED",
"bX c #F4F5F5",
"nX c #FBF5F2",
"mX c #F6FAFA",
"MX c #FFFEFE",
"NX c #FDF9F7",
"BX c #EEF1F1",
"VX c #DFE0DF",
"CX c None",
/* pixels */
"CXCXCXCXCXCXCXCXCXCXCXCXCXCXCXCXCXCXCXCXCXCXCXCXCXCXCXCXCXCXCXCXCXCXCXCXCXCXCXCXCXCXCXCXCXCXCXCXCXCXCXCXCXCXCXCXCXCXCXCXCXCXCXCX",
"CXCXCXCXCXCXCXCXCXCXCXCXCXCXCXCXCXCXCXCXCXCXCXCXCXCXCXCXCXCXCXCXCXCXCXCXCXCXCXCXCXCXCXCXCXCXCXCXCXCXCXCXCXCXCXCXCXCXCXCXCXCXCXCX",
"CXCXCXCXCXCXCXCXCXCXCXCXCXCXCXCXCXCXCXCXCXCXCXCXCXCXCXCXCXCXCXCXCXCXCXCXCXCXCXCXCXCXCXCXCXCXCXCXCXCXCXCXCXCXCXCXCXCXCXCXCXCXCXCX",
"CXCXCXCXCXCXCXCXCXCXCXCXCXCXCXCXCXCXCXCXCXCXCXCXCXCXCX& % # # % # # # # # # # CXCXCXCXCXCXCXCXCXCXCXCXCXCXCXCXCXCXCXCXCXCXCXCXCX",
"CXCXCXCXCXCXCXCXCXCXCXCXCXCXCXCXCXCXCXCXCXCXCX& # $ % x / _ _ W _ _ _ _ _ _ ' R $ $ CXCXCXCXCXCXCXCXCXCXCXCXCXCXCXCXCXCXCXCXCXCX",
"CXCXCXCXCXCXCXCXCXCXCXCXCXCXCXCXCXCXCXCXCX% # r E _ ` ` +.#.u.n.&.%.%.$.$.%.&.@./ ` u $ CXCXCXCXCXCXCXCXCXCXCXCXCXCXCXCXCXCXCXCX",
"CXCXCXCXCXCXCXCXCXCXCXCXCXCXCXCXCXCXCXCX8 v / 8.%.$.&.s.s.*.a.I.%.@.@.@.@.@.@.@.$.&.' / R CXCXCXCXCXCXCXCXCXCXCXCXCXCXCXCXCXCXCX",
"CXCXCXCXCXCXCXCXCXCXCXCXCXCXCXCXCXCXCXr >.9.$.@.@.] =.J.U.s.%.n.%.@.@.@.@.+.) o.o.) o.+.] R * CXCXCXCXCXCXCXCXCXCXCXCXCXCXCXCXCX",
"CXCXCXCXCXCXCXCXCXCXCXCXCXCXCXCXCXCXy b 9.#.%.%.%.+.i.s.N.=.+.+.@.+.+.o.@.s.s.s.s.s.s.s.s.&.E @ CXCXCXCXCXCXCXCXCXCXCXCXCXCXCXCX",
"CXCXCXCXCXCXCXCXCXCXCXCXCXCXCXCXCX6 ,.N ` %.%.~ ! T ~ ~ ~ T ..i.+.*.u.u.d.v.b.b.b.v.b.b.|  .s.] q CXCXCXCXCXCXCXCXCXCXCXCXCXCXCX",
"CXCXCXCXCXCXCXCXCXCXCXCXCXCXCXCX6 r :.N 8.O.O.f.-X;X-X-XK.-Xf.! i.M.J.F.m.7.l V B C B B B B b.n.9.o CXCXCXCXCXCXCXCXCXCXCXCXCXCX",
"CXCXCXCXCXCXCXCXCXCXCXCXCXCXCXO y <.M :.` O.f.nXMXNXmXMXMXmXgXf.H.A.L.b.: '.}.[.`._.`.).`.].C q.q.8 K BXMXMXCXCXCXCXCXCXCXCXCXCX",
"CXCXCXCXCXCXCXCXCXCXCXCXCXCXCX> t ,.M ' ..y.tXmXhXeXyXMXMXMXMXnX2XJ.q.1 H {.[.'.!.!.e.!.H y ).r.o K bXmXNXMXMXCXCXCXCXCXCXCXCXCX",
"CXCXCXCXCXCXCXCXCXCXCXCXCXCX% a ,.,.,.] ~ ;XmXtXeXeXtXMXMXMXMXMXnX4X^ l {.}.4.%XBXBXuXhXVXF p (.4.A tXuXkXNXMXMXCXCXCXCXCXCXCXCX",
"CXCXCXCXCXCXCXCXCXCXCXCXCXCX& a <.,.,.T =XiXMXuXkXbXmXMXMXMXMXMXMX+X2.{.[.[.=XhXMXMXyXkXMXzXA /.(.Z rXrXkXMXMXMXCXCXCXCXCXCXCXCX",
"CXCXCXCXCXCXCXCXCXCXCXCXCXCXo ` 8.V c ~ 5XmXMXBXNXMXBXL BXkXhXMXhXD 5.}.{.5.#XlXMXMXOX&XMXMXK /./.S BXbX&X.XiXMXCXCXCXCXCXCXCXCX",
"CXCXCXCXCXCXCXCXCXCXCXCXCX7 ` @.+.9.m.w pXMXMXMXMXMXmXpXMXiXyXMXT.A r.].3.. A .X+X+X9 K +X+X9 H E.|.MXMXzXtX*XMXCXCXCXCXCXCXCXCX",
"CXCXCXCXCXCXCXCXCXCXCXCXCX7 @.%.+.=.F.f P &XhXMXMXmXMXMXMXmXkXtX3 r.}.'.  &         o         j E.|.iXmXMXMXkXBXCXCXCXCXCXCXCXCX",
"CXCXCXCXCXCXCXCXCXCXCXCXCX5 / [ O.=.G.f . A uXhXmXMXMXMXMXbXhXrX4 (.}.].3 O 2 2 5 5 3 = 5 2 * 9 4.|.eXiXlXkXkX XCXCXCXCXCXCXCXCX",
"CXCXCXCXCXCXCXCXCXCXCXCXCX> v 6.` 9.s._ q A XXrXlXzXkXkXkXiX$X X1 (.}.).& O = = = = = = = = =   3.|.OXrXuX$XT.- CXCXCXCXCXCXCXCX",
"CXCXCXCXCXCXCXCXCXCXCXCX* > N ,.N 7.s.s.q.f . OXXX X X X X#X.X    (.|.).1 3 5 2 = = = 3 5 5 = + r.].X .X$X.X  2 CXCXCXCXCXCXCXCX",
"CXCXCXCXCXCXCXCXCXCX=X@Xd = n ,.:.7.M.M.B.p.d .   .     o o 7 0.+ '.}.).O       9 5 9 >     o X r.].6   . . 5 CXCXCXCXCXCXCXCXCX",
"CXCXCXCXCXCXCXCXCXT.mXdXU * N N N :.+.+.+.#.%.i d f 0.G g d ^ C.u r.{.].3 oX+XK       * J oXk   r.{.r 1 - - CXCXCXCXCXCXCXCXCXCX",
"CXCXCXCXCXCXCXCXF NXnX5Xq > R 1.1.1.+.@.@.@.@.%.O.a.C.c.Y.<X3X>X  j '.).+ zXMXVXoX.Xt.$XlXMXK l W.'..   CXCXCXCXCXCXCXCXCXCXCXCX",
"CXCXCXCXCXCXCXCXOXMX6XW p , ] #.@.#.*.@.@.@.+.O.@.+.a.Y.vXNXNXbXoXF R.).V #XkXMXbXNXbXmXMXBXS /.].I P k CXCXCXCXCXCXCXCXCXCXCXCX",
"CXCXCXCXCXCX  %XnXNX;XU a > +.$.+.*.S.=.@.%.%.%.{ ;.,XnXMXMXMXMXmX+Xe ^.].3.pXMXmXNXmXmXzXH 3 './.S bXOXCXCXCXCXCXCXCXCXCXCXCXCX",
"CXCXCXCXCXCX  *XMXK.8.,.a 6 ] #.@.*.F.D.D.B.D.D.D.C.1XMXMXMXNXMXMX+X. I ^.).~.Q.Q.Q.Q.Q.H @ ].E.h P MX+XCXCXCXCXCXCXCXCXCXCXCXCX",
"CXCXCXCXCXCX  %XNX@.Q N a = :.' O.*.D.F.F.F.F.F.F.C.2XMXMXaXY.2X1XL.w.h I ^.(.`.).`.`.].).].}.3.f L.2X0.CXCXCXCXCXCXCXCXCXCXCXCX",
"CXCXCXCXCXCX  *XNXi.E ,.V = b >.1.8.D.F.F.F.F.F.F.C.2XMXqXL.l.x.z.G.D.q.h I !.^.R.R.R.r.R.R.C w.B.F.c.f CXCXCXCXCXCXCXCXCXCXCXCX",
"CXCXCXCXCXCX  *XMXVXf.Q x = :.,.b 7.u.a.u.u.u.a.=.n.U.8XF.Z.U.I.L.L.P.F.v.z ; ; ; ; ; ; ; : | S.I.F.I.0.CXCXCXCXCXCXCXCXCXCXCXCX",
"CXCXCXCXCXCXCXL &XmX6X~ ` * 6 x N >.+.+.+.+.+.o.o.%.=.~ g.z.l.l.l.g.H.F.P.b.w.q.p.q.q.q.q.q.P.C.j.;...g CXCXCXCXCXCXCXCXCXCXCXCX",
"CXCXCXCXCXCXCXCX< 5Xy.E i % R ` 6.,.@.%.%.@.@.%.%...d.fXfXaXsXsXaXaX3Xh.z.G.I.I.I.I.I.P.P.P.h.8XgXsXfXP CXCXCXCXCXCXCXCXCXCXCXCX",
"CXCXCXCXCXCXCXCX8 . @ 4 # t @.$.{ ` @.+.+.+.+.+.) ..:XMXMXMXMXMXMXMXvX9XqXL.g.x.z.z.z.z.k.C.8XnXMXMXMXOXCXCXCXCXCXCXCXCXCXCXCXCX",
"CXCXCXCXCXCXCXCXCX%X0.q r 8.@.@.@.@.@.u.s.a.a.p.u.k.1XMXMXMXMXMXMXMXMXMXMXsX8X9X9X9X9X9X9X9XMXMXMXMXMXOXCXCXCXCXCXCXCXCXCXCXCXCX",
"CXCXCXCXCXCXCXP &XMX6XU u #.@.@.@.@.@.n.V.F.F.F.F.C.2XMXMXvXaXdXaXNXMXMXMXMXMXMXMXMXMXMXNXMXMXMXMXMXdXt.. CXCXCXCXCXCXCXCXCXCXCX",
"CXCXCXCXCXCX  %XMXcXK.w p #.@.@.@.@.@.o.n.J.F.F.G.S.>XgXgXqX3X3X3XaXgXxXMXMXMXMXMXMXMXMXMXMXMXvXgXgX8XG . & CXCXCXCXCXCXCXCXCXCX",
"CXCXCXCXCXCX  *XNXd.d r 8.@.@.%.@.] [ ] p.B.B.M.M.n.F.1X,XaXnXvXnX0X>X8XxXxXxXxXxXxXxXxXxXxXcXqXY.8XvXoX  7 CXCXCXCXCXCXCXCXCXCX",
"CXCXCXCXCXCX  %XNXi.0 R #.@.@.@.' N M b } *.*.*.*.O.K.nXnX0XZ.U.S.dXnXxX>X>X>X<X>X>X>X>X,X,XY.dXnXxXY.f e n % CXCXCXCXCXCXCXCXCX",
"CXCXCXCXCXCX  *XNXd.q R %.@.@.8.,.b , < w.J.B.B.B.B.D.Y.Y.L.S.S.A.U.U.3XNXnXnXnXnXnXnXnXnXnXNX9XP.Y.F.f e N , CXCXCXCXCXCXCXCXCX",
"CXCXCXCXCXCX  *XmXG e 8.@.@.6.,.p 7 b ` { =.*.*.*.*.$.O.x.S.S.S.D.Z.x.S.<X<X<X2X,X,X,X,X,X,X2XP.c.H.S.f y <.b 6 CXCXCXCXCXCXCXCX",
"CXCXCXCXCXCXCXCXoX1 ` @.#.@.>.y y b ,.[ #.+.+.+.+.o.%.M.S.S.A.Z.A.A.S.Z.l.l.z.x.x.x.x.x.z.x.z.S.V.Z.*.d y <.,.8 CXCXCXCXCXCXCXCX",
"CXCXCXCXCXCXCXCXCX- _ #.[ 1.y % i 9.N [ #.@.@.@.@.+.*.F.aXvXxXxXxXxXxXxXxXvX4Xl.L.L.L.F.F.L.Z.h.3XcXcXL q <.m 6 CXCXCXCXCXCXCXCX",
"CXCXCXCXCXCXCXCXCX& _ &.) + . % R #.' 6.` +.+.+.) =.M.S.nXMXMXMXMXMXMXMXMXMXnX9Xg.x.x.x.z.C.dXgXvXMXMXOXq ,.m 6 CXCXCXCXCXCXCXCX",
"CXCXCXCXCXCXCXCXCX& { T t.pXe.X R #.#.W d.M.n.n.n.B.F.S.nXMXMXMXMXMXMXMXMXNXMXNXaXdXaXaXaXdXMXMXMXbX0XG X a <.6 CXCXCXCXCXCXCXCX",
"CXCXCXCXCXCXCXCXCX* ( 0 OXNX~.X u / @.o.=.B.J.F.L.F.V.D.9XaXsXsXsXqXsXdXMXMXMXMXMXMXMXMXMXMXMXNXMXNXY 0 & , x 5 CXCXCXCXCXCXCXCX",
"CXCXCXCXCXCXCXCXCX2 $   L pXy.i # 7 %.#.o.$.n.F.G.L.G.L.;.X.X.X.l.z.h.P.aXsXnXMXMXMXMXNXMXMXMXMXNX5XG < CXCXO = CXCXCXCXCXCXCXCX",
"CXCXCXCXCXCXCXCXCXCXCXCXCX  E [ R 7 ` ' 9.' ' p.m.m.p.n.=.#.@.%.M.N.L.I.c.j.wXgXgXgXgXgXgXgXaXfX5XU - CXCXCXCXCXCXCXCXCXCXCXCXCX",
"CXCXCXCXCXCXCXCXCXCXCXCXCXCXo / / % : y b N N b c c ,.' ] ] ' ' ' W i.m.m.m.k.p.-.-.-.-.-.-.W E s x > CXCXCXCXCXCXCXCXCXCXCXCXCX",
"CXCXCXCXCXCXCXCXCXCXCXCXCXCXCXCX* > * O p <.:.M N n m m m ,.,.,.:.M :.M M M c c c c c c :.s a c e & CXCXCXCXCXCXCXCXCXCXCXCXCXCX",
"CXCXCXCXCXCXCXCXCXCXCXCXCXCXCXCXCXCXCXO a <.M >.1.>.:.,.n b b m M M N n n b n n n b n N c m 8 1 > CXCXCXCXCXCXCXCXCXCXCXCXCXCXCX",
"CXCXCXCXCXCXCXCXCXCXCXCXCXCXCXCXCXCXCX& t <.>.[ %.` N :.r > , 6 , 6 6 , > , > > > > > > < 6 CXCXCXCXCXCXCXCXCXCXCXCXCXCXCXCXCXCX",
"CXCXCXCXCXCXCXCXCXCXCXCXCXCXCXCXCXCXCXCX> s @.@.#.' m ,.:.y O CXCXCXCXCX* % = > > > , = & CXCXCXCXCXCXCXCXCXCXCXCXCXCXCXCXCXCXCX",
"CXCXCXCXCXCXCXCXCXCXCXCXCXCXCXCXCXCXCXCXCXi $.@.@.@.' :.<.p * CXCXCXCXCX> & p m n n m p - CXCXCXCXCXCXCXCXCXCXCXCXCXCXCXCXCXCXCX",
"CXCXCXCXCXCXCXCXCXCXCXCXCXCXCXCXCXCXCXCXCXCXs { #.@.+.,.,.t O CXCXCXCXCX= a m <.,.M <.v O CXCXCXCXCXCXCXCXCXCXCXCXCXCXCXCXCXCXCX",
"CXCXCXCXCXCXCXCXCXCXCXCXCXCXCXCXCXCXCXCXCXCX: >.[ #.{ ,.,.t O CXCXCXCXCX= m :.1.[ ' i 6 CXCXCXCXCXCXCXCXCXCXCXCXCXCXCXCXCXCXCXCX",
"CXCXCXCXCXCXCXCXCXCXCXCXCXCXCXCXCXCXCXCXCXCXCX6 ` $.] ,.,.t O CXCXCXCXCX= n ,.6.#.&.i $ CXCXCXCXCXCXCXCXCXCXCXCXCXCXCXCXCXCXCXCX",
"CXCXCXCXCXCXCXCXCXCXCXCXCXCXCXCXCXCXCXCXCXCXCXO R [ @.,.,.t O CXCXCXCXCX= n M 8.@.R u CXCXCXCXCXCXCXCXCXCXCXCXCXCXCXCXCXCXCXCXCX",
"CXCXCXCXCXCXCXCXCXCXCXCXCXCXCXCXCXCXCXCXCXCXCXCX8 >.8.m ,.t & CXCXCXCXCX= n N 6.8.& CXCXCXCXCXCXCXCXCXCXCXCXCXCXCXCXCXCXCXCXCXCX",
"CXCXCXCXCXCXCXCXCXCXCXCXCXCXCXCXCXCXCXCXCXCXCXCXO 5 x :.<.t O CXCXCXCXCX= m <.b r & CXCXCXCXCXCXCXCXCXCXCXCXCXCXCXCXCXCXCXCXCXCX",
"CXCXCXCXCXCXCXCXCXCXCXCXCXCXCXCXCXCXCXCXCXCXCXCXr x t 1.7.a O CXCXCXCXCX2 M 1.n r t r CXCXCXCXCXCXCXCXCXCXCXCXCXCXCXCXCXCXCXCXCX",
"CXCXCXCXCXCXCXCXCXCXCXCXCXCXCXCXCXCXCXCXCXCXCX& v <.<.:.<.t O CXCXCXCXCX= b <.,.<.<.r CXCXCXCXCXCXCXCXCXCXCXCXCXCXCXCXCXCXCXCXCX",
"CXCXCXCXCXCXCXCXCXCXCXCXCXCXCXCXCXCXCXCXCXCXCXCXCXCXCXCXCXCXCXCXCXCXCXCXCXCXCXCXCXCXCXCXCXCXCXCXCXCXCXCXCXCXCXCXCXCXCXCXCXCXCXCX",
"CXCXCXCXCXCXCXCXCXCXCXCXCXCXCXCXCXCXCXCXCXCXCXCXCXCXCXCXCXCXCXCXCXCXCXCXCXCXCXCXCXCXCXCXCXCXCXCXCXCXCXCXCXCXCXCXCXCXCXCXCXCXCXCX",
"CXCXCXCXCXCXCXCXCXCXCXCXCXCXCXCXCXCXCXCXCXCXCXCXCXCXCXCXCXCXCXCXCXCXCXCXCXCXCXCXCXCXCXCXCXCXCXCXCXCXCXCXCXCXCXCXCXCXCXCXCXCXCXCX"
};
