/* XPM */
static char *result[] = {
/* columns rows colors chars-per-pixel */
"64 64 248 2 ",
"   c #000000",
".  c #040803",
"X  c #010818",
"o  c #01141A",
"O  c #110C0A",
"+  c #2D0A11",
"@  c #13280E",
"#  c #000E25",
"$  c #000022",
"%  c #001523",
"&  c #011924",
"*  c #091927",
"=  c #151B25",
"-  c #1A1C26",
";  c #191B28",
":  c #000033",
">  c #1C1231",
",  c #271E29",
"<  c #361C27",
"1  c #1D212B",
"2  c #1C3A3D",
"3  c #2A212B",
"4  c #37222B",
"5  c #322D39",
"6  c #49030C",
"7  c #790A0E",
"8  c #4C2B16",
"9  c #550824",
"0  c #481B31",
"q  c #4A282A",
"w  c #582A2A",
"e  c #4C3426",
"r  c #4A2734",
"t  c #582B38",
"y  c #523D32",
"u  c #6B312B",
"i  c #75352B",
"p  c #632C3B",
"a  c #69323D",
"s  c #793738",
"d  c #71292A",
"f  c #652025",
"g  c #3B422E",
"h  c #5B4032",
"j  c #6F4F2D",
"k  c #7E612E",
"l  c #624414",
"z  c #003645",
"x  c #2B3D46",
"c  c #1B1D4D",
"v  c #54304B",
"b  c #692B44",
"n  c #6C3245",
"m  c #743443",
"M  c #7B3645",
"N  c #7B3649",
"B  c #7E384A",
"V  c #7A3648",
"C  c #76324E",
"Z  c #6C3C61",
"A  c #6D1E54",
"S  c #2D4344",
"D  c #3A4C53",
"F  c #246164",
"G  c #534748",
"H  c #4C5255",
"J  c #554E64",
"K  c #6E4F6E",
"L  c #556C70",
"P  c #636467",
"I  c #727677",
"U  c #6D4A48",
"Y  c #930909",
"T  c #AC0A01",
"R  c #BF2900",
"E  c #AB3211",
"W  c #863B2C",
"Q  c #883D36",
"!  c #913031",
"~  c #B83A26",
"^  c #8F3400",
"/  c #C33704",
"(  c #C12600",
")  c #964232",
"_  c #984538",
"`  c #8D4C31",
"'  c #A94838",
"]  c #B44D32",
"[  c #B44D3B",
"{  c #BA4A35",
"}  c #BD5135",
"|  c #BC5239",
" . c #B4513D",
".. c #AD5032",
"X. c #8B6632",
"o. c #A55D26",
"O. c #CA4F09",
"+. c #C87610",
"@. c #C44C2E",
"#. c #C2472F",
"$. c #C34D31",
"%. c #CD4F30",
"&. c #C55435",
"*. c #CB5634",
"=. c #CC5A36",
"-. c #C4543A",
";. c #C85A39",
":. c #D25935",
">. c #C9532E",
",. c #CB643D",
"<. c #CC683C",
"1. c #D47732",
"2. c #8E0A52",
"3. c #833A47",
"4. c #8C3D44",
"5. c #843A49",
"6. c #8A3C4A",
"7. c #803547",
"8. c #8D3A4C",
"9. c #8F3868",
"0. c #AA3173",
"q. c #984345",
"w. c #8B404B",
"e. c #A54743",
"r. c #AA554B",
"t. c #B27846",
"y. c #B36B47",
"u. c #9A436B",
"i. c #954C79",
"p. c #8D4F79",
"a. c #B04B78",
"s. c #9E7262",
"d. c #C25841",
"f. c #CE6D42",
"g. c #C66446",
"h. c #D47747",
"j. c #CC724A",
"k. c #C4447F",
"l. c #DD8501",
"z. c #DF841D",
"x. c #DD8627",
"c. c #D4853E",
"v. c #E18D2E",
"b. c #E08B25",
"n. c #E18E38",
"m. c #E2913D",
"M. c #E89335",
"N. c #E4912E",
"B. c #E58910",
"V. c #BB827A",
"C. c #C5854A",
"Z. c #DA864D",
"A. c #C88853",
"S. c #DC8D54",
"D. c #D68C55",
"F. c #DB9358",
"G. c #E29244",
"H. c #E3954B",
"J. c #E29654",
"K. c #E49B5C",
"L. c #E69A59",
"P. c #E68D54",
"I. c #E7A15F",
"U. c #DD9A66",
"Y. c #C5847D",
"T. c #E39C62",
"R. c #E19A72",
"E. c #EBA163",
"W. c #E5A26B",
"Q. c #E5A573",
"!. c #E7A97C",
"~. c #F0A662",
"^. c #707588",
"/. c #CF3787",
"(. c #9C5981",
"). c #B44783",
"_. c #B05686",
"`. c #AB688B",
"'. c #C65489",
"]. c #D95A94",
"[. c #D14F8E",
"{. c #E55A9A",
"}. c #CE6196",
"|. c #E7629E",
" X c #F365A5",
".X c #F969AA",
"XX c #EE69A5",
"oX c #4D8187",
"OX c #738F91",
"+X c #7D9DA4",
"@X c #878889",
"#X c #929091",
"$X c #AB8E92",
"%X c #9998A3",
"&X c #97B5BD",
"*X c #8CACB2",
"=X c #A5A5A5",
"-X c #B6B9BB",
";X c #B2ACAC",
":X c #D4968E",
">X c #D8A39C",
",X c #E7AE84",
"<X c #E8AE86",
"1X c #EABB9C",
"2X c #EAB295",
"3X c #EC8EB6",
"4X c #D8AEA9",
"5X c #E9B9AA",
"6X c #DF89B2",
"7X c #ECC0A5",
"8X c #EDC3AA",
"9X c #EDCAB6",
"0X c #F0CEBA",
"qX c #F2CBB4",
"wX c #F1D0BD",
"eX c #98BCC4",
"rX c #8FB8C0",
"tX c #AFBFC3",
"yX c #C1BFC0",
"uX c #9CC3CA",
"iX c #A3C6CC",
"pX c #B4CCD2",
"aX c #BBC9CD",
"sX c #C4C5C6",
"dX c #D9DBDB",
"fX c #CED5D7",
"gX c #E7C7C3",
"hX c #F1D4C4",
"jX c #F4DACB",
"kX c #F5DED3",
"lX c #E6D4D4",
"zX c #F7E3D8",
"xX c #CCDDE1",
"cX c #DCE4E6",
"vX c #E6E8E9",
"bX c #F9EBE4",
"nX c #F9EEE9",
"mX c #F5E8E4",
"MX c #FBF2ED",
"NX c #F4F0EF",
"BX c #E6EFF1",
"VX c #EBF4F6",
"CX c #F3F5F5",
"ZX c #FCF5F3",
"AX c #FDF8F5",
"SX c #FFFEFE",
"DX c #F6FAFA",
"FX c None",
/* pixels */
"FXFXFXFXFXFXFXFXFXFXFXFXFXFXFXFXFXFXFXFXFXFXFXFXFXFXFXFXFXFXFXFXFXFXFXFXFXFXFXFXFXFXFXFXFXFXFXFXFXFXFXFXFXFXFXFXFXFXFXFXFXFXFXFX",
"FXFXFXFXFXFXFXFXFXFXFXFXFXFXFXFXFXFXFXFXFXFXFXFXFXFXFXFXFXFXFXFXFXFXFXFXFXFXFXFXFXFXFXFXFXFXFXFXFXFXFXFXFXFXFXFXFXFXFXFXFXFXFXFX",
"FXFXFXFXFXFXFXFXFXFXFXFXFXFXFXFXFXFXFXFXFXFXFX% # % & & # # # # # % # FXFXFXFXFXFXFXFXFXFXFXFXFXFXFXFXFXFXFXFXFXFXFXFXFXFXFXFXFX",
"FXFXFXFXFXFXFXFXFXFXFXFXFXFXFXFXFXFXFXo FXFX5 Q ' _ ! Q _ ) ) ) ) ) ' q FXFXFXFXFXFXFXFXFXFXFXFXFXFXFXFXFXFXFXFXFXFXFXFXFXFXFXFX",
"FXFXFXFXFXFXFXFXFXFXFXFXFXFXFXFXFXFX> a Q W ! { %.*.h.<.*.:.*.*.=.-.*.' Q i FXFXFXFXFXFXFXFXFXFXFXFXFXFXFXFXFXFXFXFXFXFXFXFXFXFX",
"FXFXFXFXFXFXFXFXFXFXFXFXFXFXFX= r u w.[ :.*.g.f.,.&.F.Z.#.&.&.&.&.&.&.*.:.} i i w FXFXFXFXFXFXFXFXFXFXFXFXFXFXFXFXFXFXFXFXFXFXFX",
"FXFXFXFXFXFXFXFXFXFXFXFXFXFX* p q.-.&.*.&.&.S.E.S.&.S.h.$.&.-.&.&.&.&.$.*.*.&.*.' , FXFXFXFXFXFXFXFXFXFXFXFXFXFXFXFXFXFXFXFXFXFX",
"FXFXFXFXFXFXFXFXFXFXFXFXFXo b q.*.&.*.-.&.&.S.T.S.-.;.&.&.$.&.&.&.*.-.&.&.-.*.*.*...# FXFXFXFXFXFXFXFXFXFXFXFXFXFXFXFXFXFXFXFXFX",
"FXFXFXFXFXFXFXFXFXFXFXFX3 a N q.*.*.$.$.$.@.&.,.,.&.$.&.&.@.$.@.f.F.F.J.S.F.J.F.1.>.] q FXFXFXFXFXFXFXFXFXFXFXFXFXFXFXFXFXFXFXFX",
"FXFXFXFXFXFXFXFXFXFXFXFX1 m B e.*.*./ / R R R R R R &.-.;.D.D.J.j.k k X.k X.k X.l ` P.| d FXFXFXFXFXFXFXFXFXFXFXFXFXFXFXFXFXFXFX",
"FXFXFXFXFXFXFXFXFXFXFXr p B m q.%./ 4XgXhXgXgXgX9XgXd.O.F.E.~.C.s.0.0.).).).).)._.a.X.P.y.  FXDXSXFXFXFXFXFXFXFXFXFXFXFXFXFXFXFX",
"FXFXFXFXFXFXFXFXFXFXo r 6.3.4.[ g.s.NXSXBXVXSXSXSXDXgXU.N.F.C.g 9..X.X]././.]./.[.'.0.t.j P sXSXSXSXFXFXFXFXFXFXFXFXFXFXFXFXFXFX",
"FXFXFXFXFXFXFXFXFXFX4 p 3.V [ O.g.pXBXxX+X&XBXSXSXSXSXkX!.L.@ Z }.|.{.`.=X%X^.%XH t ].9.+ #XSXBXDXSXSXFXFXFXFXFXFXFXFXFXFXFXFXFX",
"FXFXFXFXFXFXFXFXFXo n 5.3.V [ #.Y.DXxXeXpXiXCXSXSXSXSXSXzXc.a '..X|.K cXDXVXuXDXfXS 0 |.9.L iXeXBXSXSXSXFXFXFXFXFXFXFXFXFXFXFXFX",
"FXFXFXFXFXFXFXFXFX& m w.7.7.E V.pXSXpXxXDXSXSXSXSXSXSXSXdX8 {. X XXXrXVXSXDXiXCXDXdX  |.0.F iXeXcXSXSXSXFXFXFXFXFXFXFXFXFXFXFXFX",
"FXFXFXFXFXFXFXFXFX$ ! [ N b T >XDXSXDXDXSXSX@XsXDXpXDXBX*X  |..X[.K uXVXSXBXH BXDXBX+ {.2.OXSXSX=XOXxXSXFXFXFXFXFXFXFXFXFXFXFXFX",
"FXFXFXFXFXFXFXFX; ) &.&.[ A.^ =XSXSXSXSXSXSXdXvXVXrXSXaXz J |._.b & L #X=X#X  @X=X@X* (.0.gXSXSXcXtXiXSXFXFXFXFXFXFXFXFXFXFXFXFX",
"FXFXFXFXFXFXFXFX, &.*.&.=.L.X.L yXfXDXSXSXSXSXSXDXcXcX#X9 }.XXu.. ;         ;       ; D [.3XcXSXSXSXcXBXFXFXFXFXFXFXFXFXFXFXFXFX",
"FXFXFXFXFXFXFXFX- _ &.*.=.T.s.    rXxXCXSXSXSXSXDXBXiXoX2..X.Xu.. = ; 3 1 1 - ; 1 ; ; v /.6XuXcXBXBXBX+XFXFXFXFXFXFXFXFXFXFXFXFX",
"FXFXFXFXFXFXFXFX= b e.} | Z.o.6 x *XrXxXVXCXVXVXBXuXrXL 2.XX.Xu.. - = = - - = - ; ; ;   /.6X*XiXuXeXOX= FXFXFXFXFXFXFXFXFXFXFXFX",
"FXFXFXFXFXFXFXFX- m 5.M 3.,.<. .h o +X&X&X&X&X&XeX&XH . 9. X.Xu.. - - - - = - ; 1 - - . k.].2 *XeX#X- - FXFXFXFXFXFXFXFXFXFXFXFX",
"FXFXFXFXFXH G < - m 3.V 3.D.L.L.D.e 2 D x S S S S D < . 9. X.Xu.. 1 - = ; - - = = = ; . '.].. S D x - FXFXFXFXFXFXFXFXFXFXFXFXFX",
"FXFXFXFX  dXgXT - m 5.3.5.g.<.f.<.&.f     .         D.X.7..X.Xu.      X - = ; .     ;   '.].o       FXFXFXFXFXFXFXFXFXFXFXFXFXFX",
"FXFXFXP dXAXlX7 - n B m B { $.$.@.*.] ' r.A.A.1.+.+.M.o.c _. X2.@XmXcXP       oXsXsXX z }.].. 1 2 FXFXFXFXFXFXFXFXFXFXFXFXFXFXFX",
"FXFXFXP AXkX`.9 1 _ e.[ ' { &.*.&.&.*.*.,.h.l.1XkXjXkXV.  K .X2.OXVXSXdX-XsXsXdXSXNXO ).}.9.. o FXFXFXFXFXFXFXFXFXFXFXFXFXFXFXFX",
"FXFX@XsXAXR.T n ; | =.*.*.h.;.$.&.{ @.@.&.<.1XbXSXSXSXxX@XZ '.).(.+XSXSXSXSXSXSXCX-X   X).L =XG FXFXFXFXFXFXFXFXFXFXFXFXFXFXFXFX",
"FX  -XSXbX:X! n - ] *.$.;.K.Z.<.f.f.f.<.h.H.MXSXSXSXSXSXcX  J }.}.`.cXcXdXcXcXcX=X  9.].2.%XDXP FXFXFXFXFXFXFXFXFXFXFXFXFXFXFXFX",
"FX  -XAXd.! 7.m - ' -.*.;.F.K.K.K.K.K.K.K.J.zXSXSXnXnXMXfXu J J (.|.i.p.i.i.i.i.Z u.XXp.@ $XnXP FXFXFXFXFXFXFXFXFXFXFXFXFXFXFXFX",
"FX  -XAX-.! 7.m - m [ $.-.F.I.K.K.K.K.K.L.J.bXSXbXW.Q.Q.W.D.h v K i.{.{.{.].{.{.].|.|.b t.I.U.h FXFXFXFXFXFXFXFXFXFXFXFXFXFXFXFX",
"FX  -XAX-.! 7.M - m 4.4.q.F.K.K.K.K.K.L.J.J.MXzXT.m.m.m.H.L.F.X.z K (.(.(.(.(.(.(.p.v C.F.I.c.y FXFXFXFXFXFXFXFXFXFXFXFXFXFXFXFX",
"FX  sXSXmXY.E b = , t C 3.g.f.f.f.f.f.<.h.K.1X!.m.T.T.T.T.K.K.F.r.c : : : : : : : y C.K.I.I.K.h FXFXFXFXFXFXFXFXFXFXFXFXFXFXFXFX",
"FXFX@XsXSX>X( 4.% W ' e.N } &.@.$.$.$.{ &.h.O.+.m.v.v.v.v.N.K.K.D.y.t.t.t.t.t.t.t.C.I.n.N.z.O.q FXFXFXFXFXFXFXFXFXFXFXFXFXFXFXFX",
"FXFXFXx fXV.E ! r | :.| ' } *.&.&.&.&.>.>.~ >X9X0X9X0X9X0XqXK.b.H.W.E.E.E.E.E.E.E.L.G.8XwX9X4XG FXFXFXFXFXFXFXFXFXFXFXFXFXFXFXFX",
"FXFXFX4 + 9 5 , q.&.&.&.&.&.&.&.$.$.$.{ @.=.NXSXSXSXSXSXSXSX8X1X<Xx.m.m.m.m.m.m.v.K.7XSXSXSXSXP FXFXFXFXFXFXFXFXFXFXFXFXFXFXFXFX",
"FXFXFXFXI j + u =.&.&.&.&.&.&.&.<.,.<.,.<.J.bXSXSXSXSXSXSXSXSXSXbX!.,X,X<X<X,X<X!.8XSXSXSXSXDXP FXFXFXFXFXFXFXFXFXFXFXFXFXFXFXFX",
"FXFXFX#XCX:X7 w &.=.&.&.&.&.#.j.K.K.K.J.J.J.bXSXSXMXZXMXAXSXSXDXSXAXAXAXAXAXAXDXAXAXSXSXSXSXNXJ   = FXFXFXFXFXFXFXFXFXFXFXFXFXFX",
"FX  ;XZXSX$X6 Q &.&.&.&.*.*.#.h.K.K.K.K.L.F.bXSXMX!.!.Q.9XSXSXSXSXSXSXSXSXSXSXSXSXSXSXSXSXbXU.y X = FXFXFXFXFXFXFXFXFXFXFXFXFXFX",
"FX. yXSX>XG u &.&.&.*.| q.8.8.g.E.K.K.I.I.I.!.<X7XbXbXbXjX,X!.bXSXSXSXSXSXSXSXSXSXSXSX7XQ.qXmXH 9 a * FXFXFXFXFXFXFXFXFXFXFXFXFX",
"FX  -XAXO.6 W *.*.*. .q.N 5 : Q h.f.f.j.f.<.wXzXkXhXhXhXjXzXzX9X1X7X7X7X7X7X7X7X5X7X8XjXzXkX9XH f n X FXFXFXFXFXFXFXFXFXFXFXFXFX",
"FX  -XAXr.9 ) *.&.[ 4.m p ! X.t.h.h.h.h.j.1.hXbXwXx.x.l.,XzXzXhX0X0X0X0X0XwX0X0X0X0XwXzXzX0Xl.e b N t FXFXFXFXFXFXFXFXFXFXFXFXFX",
"FX  yXSXz d | *.&.w.m t w ' h.L.F.S.S.S.S.S.1.z.H.K.K.T.J.m.x.hXZXMXnXnXnXnXnXnXbXMXbXW.z.H.K.y p 6.B 3 FXFXFXFXFXFXFXFXFXFXFXFX",
"FX  -XvX2 ~ *.&.-.w.r r 5.V ' $.>.&.$.&.&.&.;.1.G.G.G.G.G.G.G.x.l.x.H.G.G.G.G.G.G.G.J.T.J.m.1.e t 5.M , FXFXFXFXFXFXFXFXFXFXFXFX",
"FXFXFXH % ' :.{ s < t 3.5.V [ *.&.&.&.&.-.$.S.W.Q.Q.Q.Q.Q.Q.Q.Q.Q.W.H.J.F.T.K.K.F.L.G.H.R.R.g.q p 6.V 3 FXFXFXFXFXFXFXFXFXFXFXFX",
"FXFXFXFX% ..:.] 5 o , i | 5.' *.&.&.&.&.&.&.x.0XMXMXnXMXMXnXnXMXMXnXQ.J.K.K.K.K.K.K.K.m.hXZXBXH 9 6.V , FXFXFXFXFXFXFXFXFXFXFXFX",
"FXFXFXFX& | E s.dXI   u *.| q.~ @.$.$.@.;.S.x.jXSXSXSXSXSXSXSXSXSXSXbX<Xl.m.m.m.l.,XzXbXAXSXSXP + p 3., FXFXFXFXFXFXFXFXFXFXFXFX",
"FXFXFXFX= W + OXDX$XO d :.:.e.y.S.Z.Z.Z.Z.K.x.jXSXSXSXSXSXSXSXSXSXSXSXbXjXzXkXzXkXbXSXSXSXnX>Xy   q t , FXFXFXFXFXFXFXFXFXFXFXFX",
"FXFXFXFX, FX  #XSX$XO q ) -.$.<.Z.T.I.K.I.L.H.1XjXjXjXjXhXjXhXAXSXSXSXSXSXSXSXSXSXSXSXSXSXvXY 0 FXFX& ; FXFXFXFXFXFXFXFXFXFXFXFX",
"FXFXFXFXFXFXFX^.vXs.7 # * } *.*.&.Z.J.I.K.I.I.Z.b.+.1.v.m.m.B.9XzXbXSXSXSXSXSXSXSXSXSXSXZX4X9 , FXFXFXFXFXFXFXFXFXFXFXFXFXFXFXFX",
"FXFXFXFXFXFXFXFX  ] r.s , ..} } } { j.F.D.F.L.f.~ { ~ j.D.D.A.c.+.U.bXMXMXMXMXnXMXMXnXNX>XY & FXFXFXFXFXFXFXFXFXFXFXFXFXFXFXFXFX",
"FXFXFXFXFXFXFXFXFXX ' ] % * a 5.6.3.3.3.B B  .[ V N 3.3.w.3.e q = y F.U.T.U.F.U.T.D.d.8.5.a & FXFXFXFXFXFXFXFXFXFXFXFXFXFXFXFXFX",
"FXFXFXFXFXFXFXFXFXFXw w = = ; t 3.M N V M 7.4.3.V B [ } } | { { ! m e Q _ q._ _ q.Q ! M p , FXFXFXFXFXFXFXFXFXFXFXFXFXFXFXFXFXFX",
"FXFXFXFXFXFXFXFXFXFXFXFXFXFXFX, t r m w.5.5.B N _ | *.*.&.*.*.=.-.| ~ t 0 N C M 7.n 5 t 4 FXFXFXFXFXFXFXFXFXFXFXFXFXFXFXFXFXFXFX",
"FXFXFXFXFXFXFXFXFXFXFXFXFXFXFXFXFXFXr p t t r m 6.e.q.[ *.*.&.} *.*.:.i ; p t t t r & X FXFXFXFXFXFXFXFXFXFXFXFXFXFXFXFXFXFXFXFX",
"FXFXFXFXFXFXFXFXFXFXFXFXFXFXFXFXFXFXFXFXFX& o 4 t r m q.' ' &.&.&.-.e.u % o o & * % FXFXFXFXFXFXFXFXFXFXFXFXFXFXFXFXFXFXFXFXFXFX",
"FXFXFXFXFXFXFXFXFXFXFXFXFXFXFXFXFXFXFXFXFX# 4 r r r V B 3.e.-.*.*.&.s 3 % , t 3 ; FXFXFXFXFXFXFXFXFXFXFXFXFXFXFXFXFXFXFXFXFXFXFX",
"FXFXFXFXFXFXFXFXFXFXFXFXFXFXFXFXFXFXFXFX4 w 4.4.5.5.3.N q.| ] ] { ' - ; 3 r 5.r FXFXFXFXFXFXFXFXFXFXFXFXFXFXFXFXFXFXFXFXFXFXFXFX",
"FXFXFXFXFXFXFXFXFXFXFXFXFXFXFXFXFXFXFXFXu &.*.' B V N 3.3.M 4 & - , * a w.4.3.r FXFXFXFXFXFXFXFXFXFXFXFXFXFXFXFXFXFXFXFXFXFXFXFX",
"FXFXFXFXFXFXFXFXFXFXFXFXFXFXFXFXFXFXFXFXw -.*.*...4 3 4 4 3 & * r V m [ :.] 4 FXFXFXFXFXFXFXFXFXFXFXFXFXFXFXFXFXFXFXFXFXFXFXFXFX",
"FXFXFXFXFXFXFXFXFXFXFXFXFXFXFXFXFXFXFXFXFXi | :.*.] q X FX* & t m 6.[ *.] u FXFXFXFXFXFXFXFXFXFXFXFXFXFXFXFXFXFXFXFXFXFXFXFXFXFX",
"FXFXFXFXFXFXFXFXFXFXFXFXFXFXFXFXFXFXFXFXFXFXu Q Q W w FXFX= p N q.-.:.' w FXFXFXFXFXFXFXFXFXFXFXFXFXFXFXFXFXFXFXFXFXFXFXFXFXFXFX",
"FXFXFXFXFXFXFXFXFXFXFXFXFXFXFXFXFXFXFXFXFXFXFX$ X FXFXFX4 p B C s W W ; FXFXFXFXFXFXFXFXFXFXFXFXFXFXFXFXFXFXFXFXFXFXFXFXFXFXFXFX",
"FXFXFXFXFXFXFXFXFXFXFXFXFXFXFXFXFXFXFXFXFXFXFXFXFXFXFX% b w.w.e.' s Q s r FXFXFXFXFXFXFXFXFXFXFXFXFXFXFXFXFXFXFXFXFXFXFXFXFXFXFX",
"FXFXFXFXFXFXFXFXFXFXFXFXFXFXFXFXFXFXFXFXFXFXFXFXFXFXFXFXt 5.7. .:.=.:.e.t & FXFXFXFXFXFXFXFXFXFXFXFXFXFXFXFXFXFXFXFXFXFXFXFXFXFX",
"FXFXFXFXFXFXFXFXFXFXFXFXFXFXFXFXFXFXFXFXFXFXFXFXFXFXFXFXFXFXFXFXFXFXFXFXFXFXFXFXFXFXFXFXFXFXFXFXFXFXFXFXFXFXFXFXFXFXFXFXFXFXFXFX"
};
