/* XPM */
static char *result[] = {
/* columns rows colors chars-per-pixel */
"64 64 247 2 ",
"   c #000001",
".  c #030A07",
"X  c #000114",
"o  c #00021C",
"O  c #040E14",
"+  c #04161B",
"@  c #111311",
"#  c #2D1211",
"$  c #000024",
"%  c #010923",
"&  c #001423",
"*  c #011923",
"=  c #061927",
"-  c #141B25",
";  c #1A1C26",
":  c #1D1E29",
">  c #141D2A",
",  c #190F24",
"<  c #261C28",
"1  c #2F1426",
"2  c #1C2128",
"3  c #092634",
"4  c #27242B",
"5  c #38222B",
"6  c #383325",
"7  c #382235",
"8  c #2F3036",
"9  c #002700",
"0  c #4E0907",
"q  c #7A0000",
"w  c #50112F",
"e  c #6A0033",
"r  c #46262C",
"t  c #4A2837",
"y  c #562A39",
"u  c #523332",
"i  c #652E29",
"p  c #6B322C",
"a  c #78362B",
"s  c #62293A",
"d  c #6C323E",
"f  c #693538",
"g  c #783637",
"h  c #77292E",
"j  c #492C1B",
"k  c #4C460C",
"l  c #5A4334",
"z  c #704C32",
"x  c #67440A",
"c  c #2E3A47",
"v  c #163453",
"b  c #6B1249",
"n  c #55364E",
"m  c #7B2A44",
"M  c #792B46",
"N  c #6A3343",
"B  c #743444",
"V  c #7A3645",
"C  c #7E3846",
"Z  c #763549",
"A  c #7B3649",
"S  c #7D3949",
"D  c #6B314C",
"F  c #523560",
"G  c #653561",
"H  c #095052",
"J  c #3B5455",
"K  c #31464D",
"L  c #1C6366",
"P  c #27605B",
"I  c #4E5657",
"U  c #544669",
"Y  c #614368",
"T  c #755475",
"R  c #526469",
"E  c #6E7071",
"W  c #755152",
"Q  c #920903",
"!  c #AE0B00",
"~  c #873B2D",
"^  c #883C36",
"/  c #8C332B",
"(  c #AA3A30",
")  c #9F1710",
"_  c #C23701",
"`  c #8D5203",
"'  c #99442A",
"]  c #994232",
"[  c #9A4437",
"{  c #8A502F",
"}  c #AC472E",
"|  c #A84838",
" . c #BA4E33",
".. c #B34D3C",
"X. c #B74D36",
"o. c #BC5135",
"O. c #BD513A",
"+. c #B65139",
"@. c #B8452C",
"#. c #96653B",
"$. c #B77A30",
"%. c #BA5D0A",
"&. c #C94C0A",
"*. c #CE6200",
"=. c #C34B2D",
"-. c #C34928",
";. c #C6542B",
":. c #C24C32",
">. c #C94C30",
",. c #C55435",
"<. c #CA5534",
"1. c #CC5836",
"2. c #C4543A",
"3. c #CB5D3A",
"4. c #C7583A",
"5. c #D15A35",
"6. c #CC643D",
"7. c #C9643F",
"8. c #C57634",
"9. c #D27534",
"0. c #833A46",
"q. c #8C3D44",
"w. c #833A49",
"e. c #8A3C49",
"r. c #933E44",
"t. c #843359",
"y. c #AA146E",
"u. c #943768",
"i. c #A72A75",
"p. c #B13974",
"a. c #860051",
"s. c #984445",
"d. c #85484E",
"f. c #A24642",
"g. c #B35241",
"h. c #946A45",
"j. c #906554",
"k. c #B56E4D",
"l. c #9A4D76",
"z. c #A5447B",
"x. c #B94A7E",
"c. c #A75270",
"v. c #AA6B6B",
"b. c #95756A",
"n. c #CA6945",
"m. c #D16B42",
"M. c #D47948",
"N. c #C67851",
"B. c #D1786A",
"V. c #DE8407",
"C. c #E38906",
"Z. c #E18E38",
"A. c #E5933B",
"S. c #E18D25",
"D. c #DF8B27",
"F. c #D9864A",
"G. c #C98856",
"H. c #D98A54",
"J. c #DC9256",
"K. c #DC955B",
"L. c #C5864F",
"P. c #E29245",
"I. c #E2944C",
"U. c #E39553",
"Y. c #E49955",
"T. c #E39B5C",
"R. c #E79A59",
"E. c #E18B52",
"W. c #E8A05F",
"Q. c #DB8C68",
"!. c #E49D63",
"~. c #E7A268",
"^. c #E5A574",
"/. c #F0AC73",
"(. c #777181",
"). c #CA3882",
"_. c #B35385",
"`. c #AD7592",
"'. c #C7578D",
"]. c #D95596",
"[. c #CD5190",
"{. c #E25B99",
"}. c #CA6597",
"|. c #E4649E",
" X c #EB619F",
".X c #ED65A2",
"XX c #F868A8",
"oX c #F770AB",
"OX c #7D8C8F",
"+X c #75A4AC",
"@X c #848587",
"#X c #8D9495",
"$X c #909294",
"%X c #A69B97",
"&X c #90AFB5",
"*X c #A8A6A7",
"=X c #A9B4B8",
"-X c #B5B9BA",
";X c #B1AEB5",
":X c #B39A9A",
">X c #D3938B",
",X c #C4A998",
"<X c #EBBB9D",
"1X c #E9B593",
"2X c #F0B991",
"3X c #D3B5B3",
"4X c #E3B4AD",
"5X c #C095A9",
"6X c #EDC5AD",
"7X c #EDC4A9",
"8X c #EFCAB5",
"9X c #EBC7BA",
"0X c #F1D0BD",
"qX c #F2CCB6",
"wX c #E5C5AF",
"eX c #9ABCC4",
"rX c #A8B8C1",
"tX c #9CC1C8",
"yX c #A7C4CA",
"uX c #BDC2C4",
"iX c #B5CFD4",
"pX c #CCCCCD",
"aX c #C3C4C5",
"sX c #C8CED0",
"dX c #C8D5D8",
"fX c #D6D7D8",
"gX c #D8CED0",
"hX c #F2D6C6",
"jX c #F9DBCA",
"kX c #F3DDD3",
"lX c #EBCFCC",
"zX c #F6E4DC",
"xX c #F8E4D9",
"cX c #DAE7EA",
"vX c #CDE6EA",
"bX c #E6E6E7",
"nX c #F7E8E1",
"mX c #F8EBE7",
"MX c #FBF1ED",
"NX c #EBF3F5",
"BX c #FBF4F1",
"VX c #F6FCFC",
"CX c #FFFFFE",
"ZX c #F9F8F7",
"AX c #E8EEF0",
"SX c #C7DDE2",
"DX c None",
/* pixels */
"DXDXDXDXDXDXDXDXDXDXDXDXDXDXDXDXDXDXDXDXDXDXDXDXDXDXDXDXDXDXDXDXDXDXDXDXDXDXDXDXDXDXDXDXDXDXDXDXDXDXDXDXDXDXDXDXDXDXDXDXDXDXDXDX",
"DXDXDXDXDXDXDXDXDXDXDXDXDXDXDXDXDXDXDXDXDXDXDXDXDXDXDXDXDXDXDXDXDXDXDXDXDXDXDXDXDXDXDXDXDXDXDXDXDXDXDXDXDXDXDXDXDXDXDXDXDXDXDXDX",
"DXDXDXDXDXDXDXDXDXDXDXDXDXDXDXDXDXDXDXDXDXDXDXDXDXDXDXDXDXDXDXDXDXDXDXDXDXDXDXDXDXDXDXDXDXDXDXDXDXDXDXDXDXDXDXDXDXDXDXDXDXDXDXDX",
"DXDXDXDXDXDXDXDXDXDXDXDXDXDXDXDXDXDXDXDXDXDXDXDXDXDXDXDXDXDXDXDXDXDXDXDXDXDXDXDXDXDXDXDXDXDXDXDXDXDXDXDXDXDXDXDXDXDXDXDXDXDXDXDX",
"DXDXDXDXDXDXDXDXDXDXDXDXDXDXDXDXDXDXDXDXDXDXDX+ $ $ $ $ $ $ $ $ $ $ $ DXDXDXDXDXDXDXDXDXDXDXDXDXDXDXDXDXDXDXDXDXDXDXDXDXDXDXDXDX",
"DXDXDXDXDXDXDXDXDXDXDXDXDXDXDXDXDXDXDXDX% DX$ c ^ ] ( / ~ ] ] ( ] ] ] ~ DX$ DXDXDXDXDXDXDXDXDXDXDXDXDXDXDXDXDXDXDXDXDXDXDXDXDXDX",
"DXDXDXDXDXDXDXDXDXDXDXDXDXDXDXDXDXDXDX7 g ~ ~ ( :.<.3.M.5.3.5.1.1.1.3.,.~ ] i DXDXDXDXDXDXDXDXDXDXDXDXDXDXDXDXDXDXDXDXDXDXDXDXDX",
"DXDXDXDXDXDXDXDXDXDXDXDXDXDXDXDX> y p r.O.5.6.6.m.7.6.W.m.:.,.,.,.,.,.2.<.3.} f p DXDXDXDXDXDXDXDXDXDXDXDXDXDXDXDXDXDXDXDXDXDXDX",
"DXDXDXDXDXDXDXDXDXDXDXDXDXDXDX< d f.4.<.,.:.4.T.~.H.<.H.7.,.,.,.,.:.:.=.@.=.:.>.@.a DXDXDXDXDXDXDXDXDXDXDXDXDXDXDXDXDXDXDXDXDXDX",
"DXDXDXDXDXDXDXDXDXDXDXDXDXDX5 N f.<.,.4.4.,.<.H.T.M.,.,.,.,.:.,.:.6.6.n.7.n.6.m.m.5./ 1 DXDXDXDXDXDXDXDXDXDXDXDXDXDXDXDXDXDXDXDX",
"DXDXDXDXDXDXDXDXDXDXDXDXDX: B A | <.,.=.-.-.;.;.;.;.=.,.,.,.3.4.1.L.J.J.K.J.H.J.H.;.2.| < DXDXDXDXDXDXDXDXDXDXDXDXDXDXDXDXDXDXDX",
"DXDXDXDXDXDXDXDXDXDXDXDXDX< C A s.<.,.<.,.,.,.,. .,.,.;.,.M.T.Y.Y.#.u l l l l l l 5 G.M.} * DXDXDXDXDXDXDXDXDXDXDXDXDXDXDXDXDXDX",
"DXDXDXDXDXDXDXDXDXDXDXDXr B C Z s.>._ lXBXBXMXMXmXMXkX@.F.U.W.R.z x.{.].].].[.].].{.d.$.H.% < pXCXCXDXDXDXDXDXDXDXDXDXDXDXDXDXDX",
"DXDXDXDXDXDXDXDXDXDXDXDXt w.C f.>.n.*XVXNXiXSXVXCXCXCXkX^.A.G.z v }.XX Xp.i.z._.u.u.[.c.k c fXCXCXCXCXDXDXDXDXDXDXDXDXDXDXDXDXDX",
"DXDXDXDXDXDXDXDXDXDXDXy B C Z .._ B.cXvXyXeXeXZXCXCXCXCXnX7X8.o '..X].:XdXfX=X=XsX  t.x.i.8 SXvXcXCXCXCXDXDXDXDXDXDXDXDXDXDXDXDX",
"DXDXDXDXDXDXDXDXDXDX- N w.0.S @.k.;XCXyXiXvXcXCXCXCXCXCXVXwX' _..XXX}.&XVXCXvXSXCXpXJ p. X2 +X+XdXCXCXCXCXDXDXDXDXDXDXDXDXDXDXDX",
"DXDXDXDXDXDXDXDXDXDX$ g s.V s ! ,XcXCXcXNXCXCX-XAXZXbXCXNX+Xb XXXX).%XSXVXVXrX=XCXCX$Xy.].9 dXcXdX-XcXCXDXDXDXDXDXDXDXDXDXDXDXDX",
"DXDXDXDXDXDXDXDXDXDXa } <.s.k.) 3XCXCXCXCXCXVX%XbXcXtXCX=XP u.XX].w L =XpXsX`.E gXpXR u.[.c.ZXCXbX@X&XCXDXDXDXDXDXDXDXDXDXDXDXDX",
"DXDXDXDXDXDXDXDXDX* X.5.,.<.R.` OXbXAXCXCXCXCXVXCXAXdXNXE e _..X7 O O ; 8 8 @ . 8 4 O c l.oXbXZXCXVXSXVXDXDXDXDXDXDXDXDXDXDXDXDX",
"DXDXDXDXDXDXDXDXDX* | <.,.<.R.h.. c eXcXCXCXCXCXCXVXNXyXH x.oX.Xt + , + . X - - X X O c l.oXrXvXZXVXVXiXDXDXDXDXDXDXDXDXDXDXDXDX",
"DXDXDXDXDXDXDXDXDX= N f.:.2.E.#.@ K &XeXcXZXVXVXVXcXtXeXP p.XX Xt + - ; 2 2 ; ; : : ; . S oXrXeXyXyXrXR   DXDXDXDXDXDXDXDXDXDXDX",
"DXDXDXDXDXR @XE DX* N e.w.e.7.3.} r K &XyXyXyXyXyXyX&XK . _.XX Xn O 2 ; - ; ; ; : 2 2 . t..XD +XyX&XK = DXDXDXDXDXDXDXDXDXDXDXDX",
"DXDXDXDX4 cXZXpX  + B w.A w.G.U.J.L.# J I J J J J I I # . x.oX Xt ; 4 2 ; ; ; - - 4 - . t..Xs K R I   DXDXDXDXDXDXDXDXDXDXDXDXDX",
"DXDXDXDX  VXkXB.} < d w.0.0.n.m.m.6.+.0           . j G.k x.XX|.y       : 2 2 ;     . . t. XD   .   DXDXDXDXDXDXDXDXDXDXDXDXDXDX",
"DXDXDXE fX4Xn.! r.< N A Z S X.>.=. .1...| g.G.G.$.8.8.S.x G '. X# aXAXaX      H &XfX`.  l..XM + 8 DXDXDXDXDXDXDXDXDXDXDXDXDXDXDX",
"DXDXDX$XCXB.! s.Z = ^ g.| .. .,.<.<.,.<.<.6.F.C.qXxXjXjXI X _.XX  rXVXCXpXpXpXgXNXCXOXb }._..   2 DXDXDXDXDXDXDXDXDXDXDXDXDXDXDX",
"DXDXDX$XCX>X/ Z V &  .5.<.<.M.6.=. .:.=.=.;.G.8XBXCXCXCXgX@XA '.'.T iXCXCXCXVXCXCXgXP p..XK -X@X  DXDXDXDXDXDXDXDXDXDXDXDXDXDXDX",
"DXDXDX@XZXB.! A V = } <.,.4.T.H.m.M.M.M.m.M./.CXCXCXCXCXCXrX  T [.).5XdXsXsXsXsXrXo m '._.= CXrX  DXDXDXDXDXDXDXDXDXDXDXDXDXDXDX",
"DXDXDX$XCX9Xb.d C = ^ 2.<.<.U.T.T.W.W.T.T.Y.^.MXCXZXxXzXzX,Xz F U '.[.i.i.i.i.i.u.c.XX'.3 h.xX:X  DXDXDXDXDXDXDXDXDXDXDXDXDXDXDX",
"DXDXDX@XfXCX3XQ C : N f. .O.K.T.T.T.T.T.W.Y.~.CXZXqXS.I.I.R.G.z U U _..X.X|.|.|.|.|.].l.#.W.I.#.$ DXDXDXDXDXDXDXDXDXDXDXDXDXDXDX",
"DXDXDXDXI bX4X! B ; d w.0.w.H.U.J.J.J.J.J.I.~.MX7XZ.Y.U.U.T.T.J.z I U Y Y Y U Y U Y u k.W.T.R.h.o DXDXDXDXDXDXDXDXDXDXDXDXDXDXDX",
"DXDXDXDX  d | O.C - d e.A A O.<.,.<.4.,. .6.T.J.P.P.Y.Y.Y.U.Y.T.K.#.2 6 6 6 6 6 6 2 L.R.Y.U.U.#.o DXDXDXDXDXDXDXDXDXDXDXDXDXDXDX",
"DXDXDXDXDX8 s f.X.5 d w.C 0.,.,.:.,.:.<.>.,.4.2.H.~.!.!.!.!.T.I.I.K.K.K.K.J.K.K.J.K.Y.Y.!.!.M.^ % DXDXDXDXDXDXDXDXDXDXDXDXDXDXDX",
"DXDXDXDXR bX*X  i B 0.C r.O.,.4.4.<.,.2.,.@.n.nXMXMXMXMXmXMXkXI.T.Y.Y.R.Y.R.R.T.Y.Y.Z.8XBXMXMX*X  DXDXDXDXDXDXDXDXDXDXDXDXDXDXDX",
"DXDXDXOXnXCX4Xq & 0.S s.o.,.p } 1.<.>.:.@.;.!.VXCXCXCXCXCXCXCXzXnX1XD.I.I.I.I.I.I.Z.hXZXCXCXCX;X  DXDXDXDXDXDXDXDXDXDXDXDXDXDXDX",
"DXDXDX$XCX4XB.( = V S | 1.,.} a h { E.U.U.I./.VXCXCXCXCXCXCXCXCXCXmXkXzXzXxXxXxXxXzXCXCXCXCXCX;X  DXDXDXDXDXDXDXDXDXDXDXDXDXDXDX",
"DXDXDX@XCXB.! ^ : Z Z f.,.,.5.} h u h.h.#.#.h.%XNXMX<X7X<XmXCXCXCXCXCXCXVXCXCXCXCXCXCXCXCXCXqXb.  DXDXDXDXDXDXDXDXDXDXDXDXDXDXDX",
"DXDXDX@XCXB.Q y - 0.w.| 1.,.,.<.O.f.a h h / h   ,XhX0XhXhX0X6X0XCXCXCXCXCXCXCXCXCXCXCXmX7XqXjX%X  DXDXDXDXDXDXDXDXDXDXDXDXDXDXDX",
"DXDXDX$XCXlXv.s y s Z r.X.,.,.,.,.<.1.1.,.1.5.  ,XjXnXzXzXhX6X8XhXhXhXhXhXhXhXhXhXhXhX0X7X8XnX:X  DXDXDXDXDXDXDXDXDXDXDXDXDXDXDX",
"DXDXDXE bXCX3Xq Z + B w.r.<.,.,.,.,.,.<.<.,.} z lX0XV.Z.V.8XMXmX7X<X<X7X<X<X<X<X<X<X1XhXMXmXW.` $ DXDXDXDXDXDXDXDXDXDXDXDXDXDXDX",
"DXDXDXDX  fXhX>Xg c M s ^ 2.4.3.1.<.O.O.O.~ p H.I.U.!.!.!.Y.Z.!.mXBXMXMXBXBXMXBXBXMXBX8XV.P.~.h.X DXDXDXDXDXDXDXDXDXDXDXDXDXDXDX",
"DXDXDXDXDXX sXkX_ Q w - t B } @.X.} g B y a <.3.F.P.P.P.I.P.P.P.I.I.U.!.T.T.T.T.T.T.!.!.T.P.A.#.$ DXDXDXDXDXDXDXDXDXDXDXDXDXDXDX",
"DXDXDXDXDXDXR b.-.B.f w B r 5 r u r r - ] ,.3.J.~.^.^.^.^.^.^.^.!.^.T.P.U.I.I.I.I.I.P.I.T.^.B.d.o DXDXDXDXDXDXDXDXDXDXDXDXDXDXDX",
"DXDXDXDXDXDXDXDXE MX$X@ p  .V |  . .@. .o.,.,.Z.xXBXMXBXMXBXBXBXBXBXhXA.T.T.T.T.T.T.!.P.2XMXMX*X  DXDXDXDXDXDXDXDXDXDXDXDXDXDXDX",
"DXDXDXDXDXDXDX*XAX>XW X i 1.,.s.| <.>.<.=.6.J.Z.zXCXCXCXCXCXCXCXCXCXCXxXP.P.I.P.P.Z.kXMXBXCXCX;X  DXDXDXDXDXDXDXDXDXDXDXDXDXDXDX",
"DXDXDXDXDXDX  -XCX1.) 7 i 1.<.X.n.J.H.H.H.J.T.A.zXCXCXCXCXCXCXCXCXCXCXCXzXxXnXnXnXzXCXCXCXCX4Xj.O DXDXDXDXDXDXDXDXDXDXDXDXDXDXDX",
"DXDXDXDXDXDXDX@X;Xf.r.s 5 ~ o.<.7.M.W.W.T.T.T.U.2XqX6X6X6X6X6XqXCXCXCXCXCXCXCXCXCXCXCXCXCXCXv.0 = DXDXDXDXDXDXDXDXDXDXDXDXDXDXDX",
"DXDXDXDXDXDXDXDX  f.e.7 o + o.1.>.,.M.Y.W.W.T.W.9.*.*.*.S.S.C.A.8X8XnXCXCXCXCXCXCXCXCXCXZX4XW # DXDXDXDXDXDXDXDXDXDXDXDXDXDXDXDX",
"DXDXDXDXDXDXDXDXf [ ..| ~ 4 ~ | g.| ( k.N.k.N.F.n.2.2.2.M.H.Q.~.A.C.2XjXjXjXjXjXjXjXlXgX3X! 0 DXDXDXDXDXDXDXDXDXDXDXDXDXDXDXDXDX",
"DXDXDXDXDXDXDXDXDX% ] +.] * & t Z w.A Z M Z m | ....g.g...( g.G.G.G.N.8.8.8.8.8.8.8._ Q w D 8 DXDXDXDXDXDXDXDXDXDXDXDXDXDXDXDXDX",
"DXDXDXDXDXDXDXDXDXDX, 1 < ; < & r Z w.0.t.w.C Z Z Z M N V A A M 0.M M m m m m m m m M q.^ % DXDXDXDXDXDXDXDXDXDXDXDXDXDXDXDXDXDX",
"DXDXDXDXDXDXDXDXDXDXDXDXDXDXDXDXDX5 B 0.w.C S q.q.r.0.< d S V B B M V Z B V B N B B w.g.X.: DXDXDXDXDXDXDXDXDXDXDXDXDXDXDXDXDXDX",
"DXDXDXDXDXDXDXDXDXDXDXDXDXDX5 5 < + * d w.e.r.,.<.,.O.q.r = : < < : < 2 - 2 5 5 r q.X.<.O.0.5 DXDXDXDXDXDXDXDXDXDXDXDXDXDXDXDXDX",
"DXDXDXDXDXDXDXDXDXDXDXDXDX< B S d < < = y r.O.,.,.,.,.,.i DXDXDXDXDXDXDX> * y C 0.O.,.,.,.O.u DXDXDXDXDXDXDXDXDXDXDXDXDXDXDXDXDX",
"DXDXDXDXDXDXDXDXDXDXDXDXDX4 S 0.C V B 5 * y s. .<.,.,.<.p DXDXDXDXDXDXDXDX2 5 s e.q.O.,.<.,.q.t = DXDXDXDXDXDXDXDXDXDXDXDXDXDXDX",
"DXDXDXDXDXDXDXDXDXDXDXDXDX< C w.S e.e.B [  ...,.,.,.2.r.t DXDXDXDXDXDXDXDXDXDXDXt S 0...1.,.2.g o DXDXDXDXDXDXDXDXDXDXDXDXDXDXDX",
"DXDXDXDXDXDXDXDXDXDXDXDXDXDX7 | [ < t 7 | 5.5.1.5.O.q.t DXDXDXDXDXDXDXDXDXDXDXDXDXt B e.| 1.1.| y = DXDXDXDXDXDXDXDXDXDXDXDXDXDX",
"DXDXDXDXDXDXDXDXDXDXDXDXDXDX% } 1.] - & i ~ ^ ~ ~ g 7 DXDXDXDXDXDXDXDXDXDXDXDXDXDXDXr Z e.f.f.r.N * % % DXDXDXDXDXDXDXDXDXDXDXDX",
"DXDXDXDXDXDXDXDXDXDXDXDXDXDXDXa } ] 4 > DX$ $ $ $ % DXDXDXDXDXDXDXDXDXDXDXDXDXDXDXDXDXr B Z Z w.y * ^ } ~ DXDXDXDXDXDXDXDXDXDXDX",
"DXDXDXDXDXDXDXDXDXDXDXDXDXDXDXDX$ $ - DXDXDXDXDXDXDXDXDXDXDXDXDXDXDXDXDXDXDXDXDXDXDXDXDX< d C w.^ ' 1.2.[ & DXDXDXDXDXDXDXDXDXDX",
"DXDXDXDXDXDXDXDXDXDXDXDXDXDXDXDXDXDXDXDXDXDXDXDXDXDXDXDXDXDXDXDXDXDXDXDXDXDXDXDXDXDXDXDXDX= A w.s.g.O.0.7 DXDXDXDXDXDXDXDXDXDXDX",
"DXDXDXDXDXDXDXDXDXDXDXDXDXDXDXDXDXDXDXDXDXDXDXDXDXDXDXDXDXDXDXDXDXDXDXDXDXDXDXDXDXDXDXDXDX4 d V Z B Z r DXDXDXDXDXDXDXDXDXDXDXDX",
"DXDXDXDXDXDXDXDXDXDXDXDXDXDXDXDXDXDXDXDXDXDXDXDXDXDXDXDXDXDXDXDXDXDXDXDXDXDXDXDXDXDXDXDXDXDX< < < ; ; DXDXDXDXDXDXDXDXDXDXDXDXDX",
"DXDXDXDXDXDXDXDXDXDXDXDXDXDXDXDXDXDXDXDXDXDXDXDXDXDXDXDXDXDXDXDXDXDXDXDXDXDXDXDXDXDXDXDXDXDXDXDXDXDXDXDXDXDXDXDXDXDXDXDXDXDXDXDX"
};
