/* XPM */
static char *result[] = {
/* columns rows colors chars-per-pixel */
"64 64 238 2 ",
"   c #000000",
".  c #070609",
"X  c #1A0001",
"o  c #00041B",
"O  c #000819",
"+  c #00131C",
"@  c #041616",
"#  c #0E1212",
"$  c #260000",
"%  c #350612",
"&  c #000A24",
"*  c #001422",
"=  c #021A24",
"-  c #071827",
";  c #1A1D26",
":  c #171B26",
">  c #18132C",
",  c #251D28",
"<  c #33132C",
"1  c #1D222A",
"2  c #27222A",
"3  c #33212C",
"4  c #3D2329",
"5  c #2A2B36",
"6  c #372335",
"7  c #353339",
"8  c #2E2400",
"9  c #4A0000",
"0  c #5A0200",
"q  c #4C031C",
"w  c #7A0000",
"e  c #670514",
"r  c #4E1329",
"t  c #6F0F33",
"y  c #4E292A",
"u  c #46252B",
"i  c #572A29",
"p  c #492733",
"a  c #572B38",
"s  c #4E3130",
"d  c #642C29",
"f  c #79362C",
"g  c #642E3B",
"h  c #69313E",
"j  c #793638",
"k  c #68322E",
"l  c #7E3B00",
"z  c #334225",
"x  c #7C4300",
"c  c #6D4F37",
"v  c #001B4B",
"b  c #2F334D",
"n  c #2D2C5B",
"m  c #4E1848",
"M  c #71164A",
"N  c #4A3646",
"B  c #582745",
"V  c #6C2A47",
"C  c #772945",
"Z  c #6C3246",
"A  c #733443",
"S  c #793648",
"D  c #793747",
"F  c #773655",
"G  c #6A3759",
"H  c #225A5C",
"J  c #504A68",
"K  c #764B70",
"L  c #527176",
"P  c #706E74",
"I  c #67454E",
"U  c #9B0000",
"Y  c #8E0B08",
"T  c #B10000",
"R  c #952F12",
"E  c #BF2200",
"W  c #BC2D00",
"Q  c #AD3C11",
"!  c #893C2C",
"~  c #883939",
"^  c #963537",
"/  c #AC3D2E",
"(  c #C63B0A",
")  c #924B08",
"_  c #9A4336",
"`  c #904C34",
"'  c #AB493E",
"]  c #A84737",
"[  c #B54B37",
"{  c #BE5236",
"}  c #AC4E2B",
"|  c #9B6637",
" . c #A16D3E",
".. c #B5752E",
"X. c #BA5900",
"o. c #CD5900",
"O. c #C4490D",
"+. c #D56F08",
"@. c #C3492D",
"#. c #C34C31",
"$. c #C55435",
"%. c #CA5634",
"&. c #CC5935",
"*. c #C8583B",
"=. c #D35936",
"-. c #C6542D",
";. c #CB643D",
":. c #D27A39",
">. c #823946",
",. c #843A49",
"<. c #8B3D49",
"1. c #8D3B45",
"2. c #893752",
"3. c #B11876",
"4. c #AF0873",
"5. c #8A3963",
"6. c #A53970",
"7. c #964143",
"8. c #9B4343",
"9. c #964749",
"0. c #8F5457",
"q. c #A74842",
"w. c #B34E45",
"e. c #AD5445",
"r. c #9A6A4C",
"t. c #AB664D",
"y. c #B36D47",
"u. c #8A4C62",
"i. c #B14876",
"p. c #987979",
"a. c #B66C61",
"s. c #C65B46",
"d. c #C76747",
"f. c #D36B45",
"g. c #D86441",
"h. c #D27446",
"j. c #D57E4C",
"k. c #D77B46",
"l. c #CB734F",
"z. c #CA7665",
"x. c #DE8300",
"c. c #E08807",
"v. c #DF8B29",
"b. c #D58B39",
"n. c #E08B26",
"m. c #E18D2D",
"M. c #E18D32",
"N. c #E1903E",
"B. c #E59137",
"V. c #BE8548",
"C. c #AB8177",
"Z. c #C68A49",
"A. c #D6814D",
"S. c #DA854C",
"D. c #D98954",
"F. c #D79458",
"G. c #E39447",
"H. c #E49C5D",
"J. c #E59957",
"K. c #E28F4B",
"L. c #EAA15E",
"P. c #D78969",
"I. c #E39D63",
"U. c #ECA364",
"Y. c #E8A369",
"T. c #E6A775",
"R. c #707785",
"E. c #CF3788",
"W. c #B25988",
"Q. c #947B89",
"!. c #C75B91",
"~. c #D55A94",
"^. c #CF528D",
"/. c #E95B9C",
"(. c #E54D93",
"). c #D6679B",
"_. c #CD6595",
"`. c #ED64A2",
"'. c #F467A6",
"]. c #FA69A9",
"[. c #EF5EA1",
"{. c #728A8F",
"}. c #7E9DA3",
"|. c #6D9AA0",
" X c #5E878F",
".X c #979A9B",
"XX c #898D90",
"oX c #AC9894",
"OX c #B4A29C",
"+X c #959FA1",
"@X c #AC95A7",
"#X c #97B6BC",
"$X c #8DADB3",
"%X c #A6A8A9",
"&X c #B7B8B8",
"*X c #ACB4B6",
"=X c #D7968A",
"-X c #D59A94",
";X c #E7AD83",
":X c #E9AF8D",
">X c #D5B6B4",
",X c #E7B7A8",
"<X c #D4A09D",
"1X c #EDC5AC",
"2X c #EFC6AB",
"3X c #F2C6AB",
"4X c #EEC7B1",
"5X c #EDCAB7",
"6X c #F1CBB9",
"7X c #F1D1BD",
"8X c #8FBAC2",
"9X c #B0B8C3",
"0X c #9CC0C7",
"qX c #B3CBCF",
"wX c #C3C7C8",
"eX c #CAD4D7",
"rX c #D8D8D9",
"tX c #DED1CF",
"yX c #F2D5C5",
"uX c #F3D9CA",
"iX c #F5D9CA",
"pX c #F4DED2",
"aX c #EBCFCA",
"sX c #F6E2D6",
"dX c #CBDDE2",
"fX c #D4DFE1",
"gX c #DAE4E7",
"hX c #C7E3E5",
"jX c #E7E9E9",
"kX c #F8EBE6",
"lX c #EAF2F4",
"zX c #F2F4F5",
"xX c #F6FAFA",
"cX c #FFFFFE",
"vX c #FAF5F4",
"bX c #F2F1EF",
"nX c #E9D7E0",
"mX c None",
/* pixels */
"mXmXmXmXmXmXmXmXmXmXmXmXmXmXmXmXmXmXmXmXmXmXmXmXmXmXmXmXmXmXmXmXmXmXmXmXmXmXmXmXmXmXmXmXmXmXmXmXmXmXmXmXmXmXmXmXmXmXmXmXmXmXmXmX",
"mXmXmXmXmXmXmXmXmXmXmXmXmXmXmXmXmXmXmXmXmXmXmXmXmXmXmXmXmXmXmXmXmXmXmXmXmXmXmXmXmXmXmXmXmXmXmXmXmXmXmXmXmXmXmXmXmXmXmXmXmXmXmXmX",
"mXmXmXmXmXmXmXmXmXmXmXmXmXmXmXmXmXmXmXmXmXmXmXmXmXmXmXmXmXmXmXmXmXmXmXmXmXmXmXmXmXmXmXmXmXmXmXmXmXmXmXmXmXmXmXmXmXmXmXmXmXmXmXmX",
"mXmXmXmXmXmXmXmXmXmXmXmXmXmXmXmXmXmXmXmXmXmXmXmXmXmXmXmXmXmXmXmXmXmXmXmXmXmXmXmXmXmXmXmXmXmXmXmXmXmXmXmXmXmXmXmXmXmXmXmXmXmXmXmX",
"mXmXmXmXmXmXmXmXmXmXmXmXmXmXmXmXmXmXmXmXmXmXmXmXmXmXmXmXmXmXmXmXmXmXmXmXmXmXmXmXmXmXmXmXmXmXmXmXmXmXmXmXmXmXmXmXmXmXmXmXmXmXmXmX",
"mXmXmXmXmXmXmXmXmXmXmXmXmXmXmXmXmXmXmXmXmXmXmXmXmX2 y i u r y y y y i y u mXmXmXmXmXmXmXmXmXmXmXmXmXmXmXmXmXmXmXmXmXmXmXmXmXmXmX",
"mXmXmXmXmXmXmXmXmXmXmXmXmXmXmXmXmXmXmXmXmX- y d d 1.[ $.&.;.$.$.$.$.$.%.[ i d mXmXmXmXmXmXmXmXmXmXmXmXmXmXmXmXmXmXmXmXmXmXmXmXmX",
"mXmXmXmXmXmXmXmXmXmXmXmXmXmXmXmXmXmXmX3 d D ' %.*.d.&.#.S.D.#.$.%.$.$.%.$.$.$.f k u mXmXmXmXmXmXmXmXmXmXmXmXmXmXmXmXmXmXmXmXmXmX",
"mXmXmXmXmXmXmXmXmXmXmXmXmXmXmXmXmXmXa <.{ $.#.$.;.H.H.d.j.S.#.$.$.$.$.#.#.#.$.#.%.] u mXmXmXmXmXmXmXmXmXmXmXmXmXmXmXmXmXmXmXmXmX",
"mXmXmXmXmXmXmXmXmXmXmXmXmXmXmXmX3 a <.$.&.*.s.#.d.F.H.d.#.$.$.#.#.#.d.f.f.f.f.f.f.g.[ % mXmXmXmXmXmXmXmXmXmXmXmXmXmXmXmXmXmXmXmX",
"mXmXmXmXmXmXmXmXmXmXmXmXmXmXmX+ a ,.1.%.*.( E ( E E E E @.*.#.d.;.d.k.Z.Z.Z.Z.Z.Z...{ f.q mXmXmXmXmXmXmXmXmXmXmXmXmXmXmXmXmXmXmX",
"mXmXmXmXmXmXmXmXmXmXmXmXmXmXmX4 h >.>.$.@.z.=X-X=X=X=X-Xs.( j.H.L.F.r.M G 5.u.F 5.5.0.b.f.s mXmXmXmXmXmXmXmXmXmXmXmXmXmXmXmXmXmX",
"mXmXmXmXmXmXmXmXmXmXmXmXmXmX+ h <.>.1.-.w.jXcXzXzXcXxXcXaXP.M.F.D.z ^.].[.E.E.(.^.(.^.u.V.4 XXjXcXcXmXmXmXmXmXmXmXmXmXmXmXmXmXmX",
"mXmXmXmXmXmXmXmXmXmXmXmXmXmX4 A <.1.=.( 9XlXdX8XqXcXcXcXcXkX;XJ.8 K ~.[._.@X+XQ.@XJ t ~.F   eXxXxXcXcXmXmXmXmXmXmXmXmXmXmXmXmXmX",
"mXmXmXmXmXmXmXmXmXmXmXmXmX: A >.S 1.*.a.cXeX0XqXeXcXcXcXcXcXvX..F /.].!.$XxXxXqXzXeXH V `.r $X8XdXcXcXcXmXmXmXmXmXmXmXmXmXmXmXmX",
"mXmXmXmXmXmXmXmXmXmXmXmXmX& ~ <.C 1.l.qXxXgXgXcXxXrXcXzXxXcXgXX '.].(.@XhXcXcX#XlXcXpX9 '.  #XeXeXfXzXcXmXmXmXmXmXmXmXmXmXmXmXmX",
"mXmXmXmXmXmXmXmXmXmXmXmXmXk { ' 9.| a.xXcXcXcXcXzXXXzXqXgXjX X5 `./.M H qXrXrX7 &XfX&Xq ~.2.bXcXrXR.0XcXmXmXmXmXmXmXmXmXmXmXmXmX",
"mXmXmXmXmXmXmXmXmXmXmXmX3 %.%.#.j.A.b rXgXcXcXcXcXcXcXgXjXqX$ W.`.F # #       ;   .   b K /.nXxXcXcXeXlXmXmXmXmXmXmXmXmXmXmXmXmX",
"mXmXmXmXmXmXmXmXmXmXmXmX, ' $.@.j.F.o 2 $XgXxXcXcXcXcXxXdX|.t ].'.F # : ; ; 1 ; 1 ; : 2 G [.9XhXjXlXlX$XmXmXmXmXmXmXmXmXmXmXmXmX",
"mXmXmXmXmXmXmXmXmXmXmXmX, A ' [ f.l.e   |.8XdXlXlXlXlXqX$X XM '.'.F @ : 1 2 1 ; ; 2 1 = < /.@X0XqX8X}.+ mXmXmXmXmXmXmXmXmXmXmXmX",
"mXmXmXmXmXmXmXmXmXmXmXmX, D S V e.k.h.r.. {.$X|.+X}.}.$XL   F '.'.F 1 7 5 ; ; ; 1 5 5 = 4 `.t L $X{.  : mXmXmXmXmXmXmXmXmXmXmXmX",
"mXmXmXmXmXmXmXmXmXmX$ ` ; D <.C t.D.D.J.` $             c c G ].'.F       5 5 5 X     = < `.5.      5 mXmXmXmXmXmXmXmXmXmXmXmXmX",
"mXmXmXmXmXmXmXmXmX.XOX/ - A S Z ^ %.#.#.&._ f ` r.r.) ) +...m _.'.V XX&XXX      H .X.X@ b '.0.# 5 mXmXmXmXmXmXmXmXmXmXmXmXmXmXmX",
"mXmXmXmXmXmXmXmX  rXbX0 , 8.q.8.' @.$.$.$.%.$.f.G.B.3X7X7XC.. K '.9 qXcXzX%X%X%X0XxXjXX W.).q . 1 mXmXmXmXmXmXmXmXmXmXmXmXmXmXmX",
"mXmXmXmXmXmXmXmX.XtX>Xe , -.%.-.;.h.#.#.$.#.#.-.D.5XcXcXcXjXXXG !.i.R.eXcXcXcXcXxXvX%Xq ].G +XR.. mXmXmXmXmXmXmXmXmXmXmXmXmXmXmX",
"mXmXmXmXmXmXmX  zXaXT S 3 $.%.#.j.H.h.h.h.h.h.:.:XcXcXcXcXcXzX  J !.E.@XeXeXeXeXdXXXX i._.  zXwX  mXmXmXmXmXmXmXmXmXmXmXmXmXmXmX",
"mXmXmXmXmXmXmX*XxXtXw 6 O ! ^ } k.L.H.H.H.H.L.J.;XcXcXkXsXsX5X| N J W.!.4.3.3.3.3.6._.`.v ` yXOX  mXmXmXmXmXmXmXmXmXmXmXmXmXmXmX",
"mXmXmXmXmXmX: wXwXXXy ! ! ! f ^ l.L.H.H.H.L.H.G.;XcXpXT.x.m.S.H.t.N n W.).).).).).).!.i.t.H.G.| o mXmXmXmXmXmXmXmXmXmXmXmXmXmXmX",
"mXmXmXmXmXmX-   w R [ &.&.*.%.' y.A.A.j.A.A.j.S.T.iXH.J.I.H.H.F.L.y.G n v v v v v v N ..U.F.L.t.o mX4 _ y mXmXmXmXmXmXmXmXmXmXmX",
"mXmXmXmXmX= ! _ { *.$.$.$.$.$.*.$.#.#.#.#.#.#.&.S.o.M.N.N.N.N.N.L.L.V.|  . . . .t.| V.L.N.M.v.` & & 2 $.k mXmXmXmXmXmXmXmXmXmXmX",
"mXmXmXmXi ] %.&.*.$.$.$.#.$.$.$.$.%.$.$.%.$.$.@.s.>X7X7X7X7X7X7XG.M.J.U.U.U.U.U.U.U.J.I.7X7X5Xp.  u _ -.d mXmXmXmXmXmXmXmXmXmXmX",
"mXmXmX6 7.=.{ $.$.$.$.%.%.$.$.$.$.#.#.#.{ @.[ O.=XcXcXcXcXcXcXcXyXyX;Xx.m.n.m.m.m.x.T.pXcXcXcX*X  ~ =.$.i mXmXmXmXmXmXmXmXmXmXmX",
"mXmX& j w.$.%.&.w.q.q.q.' %.%.$.-.;.A.j.j.A.j.S.;XcXcXcXcXcXcXxXcXcXkX7XyXyXyXyXyXyXsXcXcXcXvX*X. 7.$.$.d mXmXmXmXmXmXmXmXmXmXmX",
"mXmX! [ =.&.q._ 0 X b a ,.q.q.q./ ;.H.L.H.H.H.G.;XcXcXuX2X2XyXcXcXcXcXcXcXcXcXcXcXcXcXcXcXcX7Xp.% 7.&.*.k mXmXmXmXmXmXmXmXmXmXmX",
"mX& } =.$.! a + *XOXY a a a 6 ~ y.D.L.H.H.H.H.H.T.4X1XyXuXuXyX4X1XxXcXcXcXcXcXcXcXcXcXcX1X1XpXoX$ <.' ! i mXmXmXmXmXmXmXmXmXmXmX",
"mX- f ] f mXmX  >X:XQ A * * 6 ~ d.S.h.h.h.h.j.;.P.yXyXuXuXuXuXyXyX5X4X4X4X4X4X4X4X1X1X5XuXyXsXoX% ,.S - mXmXmXmXmXmXmXmXmXmXmXmX",
"mXmXmXmXmXmXmXwXz.T <.>.+ = ] q./ =.A.A.j.j.j.k.P.iXsXY.+.x.L.pXuXuX7XiXuXyXuXuXyXuXyXuXuXpXU.) < 2.a mXmXmXmXmXmXmXmXmXmXmXmXmX",
"mXmXmXmXmXmXo cX>XR C >.g : _ q.q.e.A.j.j.j.j.A.k.o.x.H.Y.Y.H.x.x.7XiXiXuXuXyXuXuXyXuX5Xx.x.L.r.> a mXmXmXmXmXmXmXmXmXmXmXmXmXmX",
"mXmXmXmXmXmXo xX-XU F >.>., Z S Z 1.#.#.@.@.@.[ $.D.S.m.v.v.v.G.G.x.+.c.v.v.n.n.v.v.n.m.Y.G.+.R & mXmXmXmXmXmXmXmXmXmXmXmXmXmXmX",
"mXmXmXmXmXmXo xXkX-XR S >.2 6 ^ q.1.%.$.$.$.-.$.*.L.uXsXpXpXpXpXpXpXsX,Xv.H.H.H.J.L.F.G.G.yXpXoX. mXmXmXmXmXmXmXmXmXmXmXmXmXmXmX",
"mXmXmXmXmXmXmX.XxXaXT / ,.1 & ] *.' 8.$.#.#.{ &.D.H.cXcXcXcXcXcXcXcXcXvX5Xm.K.K.G.v.:XsXpXcXcX&X  mXmXmXmXmXmXmXmXmXmXmXmXmXmXmX",
"mXmXmXmXmXmXmXmX.XrX6X( X g 1 _ =.#.' D.S.D.S.D.J.I.vXcXcXcXcXcXcXcXcXcXcXuXpXpXsXuXkXcXcXcXaXp.& mXmXmXmXmXmXmXmXmXmXmXmXmXmXmX",
"mXmXmXmXmXmXmXmXmXXX%X0.rXu.< i _ %.&.h.H.L.L.L.J.H.3X3X1X3X3X1X+X.X.X.XqXcXcXcXcXcXcXcXcXcXC.0 = mXmXmXmXmXmXmXmXmXmXmXmXmXmXmX",
"mXmXmXmXmXmXmXmXmXmX  XXcX9.e - ! =.%.@.;.F.L.H.I.I.+.o.o.X.) x 9 Y U w s %XcXxXcXcXcXcXcX,X0.1 mXmXmXmXmXmXmXmXmXmXmXmXmXmXmXmX",
"mXmXmXmXmXmXmXmXmXmXmXmX.XnXQ.% 4 ~ q.8.^ e.t.t.t.h.&.*.] a B Z e.s.g.s.] R XX2X3X3X,X-XOX^ q mXmXmXmXmXmXmXmXmXmXmXmXmXmXmXmXmX",
"mXmXmXmXmXmXmXmXmXmXmXmX  cX-XY 6 & p D S S C V C ^ 1.q.j Z ,.1.%.%.$.$.%.-.Y R ) } Q Y w p 6 mXmXmXmXmXmXmXmXmXmXmXmXmXmXmXmXmX",
"mXmXmXmXmXmXmXmXmXmXmXmXmX+Xl.=.' mXmXa p D ,.,.>.D S S S <.D ,.7.7.[ %.$.$.*.] r a V p s mXmXmXmXmXmXmXmXmXmXmXmXmXmXmXmXmXmXmX",
"mXmXmXmXmXmXmXmXmXmXmXmXmXmX0 ` f mXmXmX+ , p p a ,.,.,.,.>.>.>.D A 9.7.' %.%.=.f 1 , o & mXmXmXmXmXmXmXmXmXmXmXmXmXmXmXmXmXmXmX",
"mXmXmXmXmXmXmXmXmXmXmXmXmXmXmXmXmXmXmXmX- g p + = 4 4 6 3 g >.,.<.a 3 B <.1.8.k < f } [ } u mXmXmXmXmXmXmXmXmXmXmXmXmXmXmXmXmXmX",
"mXmXmXmXmXmXmXmXmXmXmXmXmXmXmXmXmXmXmX: h ,.>.A j A A 6 < , u u u ; = , h ,.S * ` #.*.&.$.u mXmXmXmXmXmXmXmXmXmXmXmXmXmXmXmXmXmX",
"mXmXmXmXmXmXmXmXmXmXmXmXmXmXmXmXmXmXmX- D ,.<.A a >.,.] [ _ Z h : : 2 = mXa >.Z [ %.%.{ 9.3 mXmXmXmXmXmXmXmXmXmXmXmXmXmXmXmXmXmX",
"mXmXmXmXmXmXmXmXmXmXmXmXmXmXmXmXmXmXmX- j ,.,.h * u p f ! f p a ; mXmXmXmX, >.>.[ -.[ >.6 mXmXmXmXmXmXmXmXmXmXmXmXmXmXmXmXmXmXmX",
"mXmXmXmXmXmXmXmXmXmXmXmXmXmXmXmXmXmXmX- D ,.,.D h * mXmXmXmXmXmXmXmXmXmXmXmXp D <.~ i 1 mXmXmXmXmXmXmXmXmXmXmXmXmXmXmXmXmXmXmXmX",
"mXmXmXmXmXmXmXmXmXmXmXmXmXmXmXmXmXmXmXmX3 Z q.$.[ : mXmXmXmXmXmXmXmXmXmXmXmXmX6 6 - & mXmXmXmXmXmXmXmXmXmXmXmXmXmXmXmXmXmXmXmXmX",
"mXmXmXmXmXmXmXmXmXmXmXmXmXmXmXmXmXmXmXmXmX3 a f d mXmXmXmXmXmXmXmXmXmXmXmXmXmXmXmXmXmXmXmXmXmXmXmXmXmXmXmXmXmXmXmXmXmXmXmXmXmXmX",
"mXmXmXmXmXmXmXmXmXmXmXmXmXmXmXmXmXmXmXmXmXmXmXmXmXmXmXmXmXmXmXmXmXmXmXmXmXmXmXmXmXmXmXmXmXmXmXmXmXmXmXmXmXmXmXmXmXmXmXmXmXmXmXmX",
"mXmXmXmXmXmXmXmXmXmXmXmXmXmXmXmXmXmXmXmXmXmXmXmXmXmXmXmXmXmXmXmXmXmXmXmXmXmXmXmXmXmXmXmXmXmXmXmXmXmXmXmXmXmXmXmXmXmXmXmXmXmXmXmX",
"mXmXmXmXmXmXmXmXmXmXmXmXmXmXmXmXmXmXmXmXmXmXmXmXmXmXmXmXmXmXmXmXmXmXmXmXmXmXmXmXmXmXmXmXmXmXmXmXmXmXmXmXmXmXmXmXmXmXmXmXmXmXmXmX",
"mXmXmXmXmXmXmXmXmXmXmXmXmXmXmXmXmXmXmXmXmXmXmXmXmXmXmXmXmXmXmXmXmXmXmXmXmXmXmXmXmXmXmXmXmXmXmXmXmXmXmXmXmXmXmXmXmXmXmXmXmXmXmXmX",
"mXmXmXmXmXmXmXmXmXmXmXmXmXmXmXmXmXmXmXmXmXmXmXmXmXmXmXmXmXmXmXmXmXmXmXmXmXmXmXmXmXmXmXmXmXmXmXmXmXmXmXmXmXmXmXmXmXmXmXmXmXmXmXmX",
"mXmXmXmXmXmXmXmXmXmXmXmXmXmXmXmXmXmXmXmXmXmXmXmXmXmXmXmXmXmXmXmXmXmXmXmXmXmXmXmXmXmXmXmXmXmXmXmXmXmXmXmXmXmXmXmXmXmXmXmXmXmXmXmX",
"mXmXmXmXmXmXmXmXmXmXmXmXmXmXmXmXmXmXmXmXmXmXmXmXmXmXmXmXmXmXmXmXmXmXmXmXmXmXmXmXmXmXmXmXmXmXmXmXmXmXmXmXmXmXmXmXmXmXmXmXmXmXmXmX",
"mXmXmXmXmXmXmXmXmXmXmXmXmXmXmXmXmXmXmXmXmXmXmXmXmXmXmXmXmXmXmXmXmXmXmXmXmXmXmXmXmXmXmXmXmXmXmXmXmXmXmXmXmXmXmXmXmXmXmXmXmXmXmXmX",
"mXmXmXmXmXmXmXmXmXmXmXmXmXmXmXmXmXmXmXmXmXmXmXmXmXmXmXmXmXmXmXmXmXmXmXmXmXmXmXmXmXmXmXmXmXmXmXmXmXmXmXmXmXmXmXmXmXmXmXmXmXmXmXmX"
};
