/* XPM */
static char *result[] = {
/* columns rows colors chars-per-pixel */
"64 64 242 2 ",
"   c black",
".  c #050708",
"X  c #02071A",
"o  c #01131D",
"O  c #07161C",
"+  c #0F1112",
"@  c #2F0812",
"#  c #000D23",
"$  c #000122",
"%  c #011A25",
"&  c #011B2A",
"*  c #051626",
"=  c #131B25",
"-  c #1A1C24",
";  c #191C29",
":  c #120F2D",
">  c #241C28",
",  c #251E33",
"<  c #341428",
"1  c #03252C",
"2  c #1D232B",
"3  c #15282B",
"4  c #002E33",
"5  c #25242D",
"6  c #392529",
"7  c #272932",
"8  c #3B2434",
"9  c #3B3433",
"0  c #6E2D00",
"q  c #540E31",
"w  c #6F0837",
"e  c #44252A",
"r  c #492835",
"t  c #5C2D39",
"y  c #572B36",
"u  c #513331",
"i  c #672C27",
"p  c #723429",
"a  c #632E3E",
"s  c #6A2A3C",
"d  c #68313E",
"f  c #77383A",
"g  c #732D35",
"h  c #59261C",
"j  c #39403F",
"k  c #5B432A",
"l  c #6F4C33",
"z  c #7E6038",
"x  c #00284A",
"c  c #00214E",
"v  c #142C56",
"b  c #2F2B4F",
"n  c #00134A",
"m  c #532E48",
"M  c #7F2C43",
"N  c #6B3242",
"B  c #733542",
"V  c #7B3546",
"C  c #7E3847",
"Z  c #7A374A",
"A  c #692F4B",
"S  c #7F174C",
"D  c #2D5B5C",
"F  c #4A474A",
"G  c #535457",
"H  c #475156",
"J  c #6A484D",
"K  c #515364",
"L  c #704B6B",
"P  c #58737B",
"I  c #666567",
"U  c #717474",
"Y  c #B0130C",
"T  c #87382C",
"R  c #923C2D",
"E  c #873A37",
"W  c #913F35",
"Q  c #942429",
"!  c #A83A35",
"~  c #952103",
"^  c #C03D21",
"/  c #C22700",
"(  c #9A422E",
")  c #944233",
"_  c #994336",
"`  c #8A513C",
"'  c #A84838",
"]  c #B44D3B",
"[  c #B84D36",
"{  c #BD5134",
"}  c #BC5139",
"|  c #B0503A",
" . c #B5492D",
".. c #866339",
"X. c #966239",
"o. c #AF753A",
"O. c #814700",
"+. c #C84B08",
"@. c #C1462F",
"#. c #C44C2D",
"$. c #C54B27",
"%. c #C7522D",
"&. c #C34C32",
"*. c #C44D35",
"=. c #C55335",
"-. c #CB5534",
";. c #CE5836",
":. c #C4543A",
">. c #C95938",
",. c #D15936",
"<. c #D05235",
"1. c #CA643D",
"2. c #CD693F",
"3. c #C66338",
"4. c #CE7233",
"5. c #CC640C",
"6. c #833946",
"7. c #833A49",
"8. c #8A3D4B",
"9. c #843747",
"0. c #923E45",
"q. c #843456",
"w. c #A51565",
"e. c #903B62",
"r. c #AE3673",
"t. c #8A1A53",
"y. c #954345",
"u. c #9B4343",
"i. c #944748",
"p. c #9B554A",
"a. c #A84841",
"s. c #BA4D43",
"d. c #A56943",
"f. c #AD7540",
"g. c #B77046",
"h. c #975071",
"j. c #B04E7C",
"k. c #827B7E",
"l. c #C5524A",
"z. c #CE6C42",
"x. c #C86443",
"c. c #CA7346",
"v. c #D17446",
"b. c #D67A48",
"n. c #D4754B",
"m. c #CB7769",
"M. c #DE8502",
"N. c #DD8B34",
"B. c #DE8C2B",
"V. c #E18C27",
"C. c #E18E33",
"Z. c #E1903E",
"A. c #E6912B",
"S. c #E08911",
"D. c #B58D71",
"F. c #BC8247",
"G. c #CA844D",
"H. c #D9874C",
"J. c #DC8B52",
"K. c #D28A56",
"L. c #DA935A",
"P. c #D38A50",
"I. c #E29344",
"U. c #E3964D",
"Y. c #E18E53",
"T. c #E29552",
"R. c #E39B5C",
"E. c #EA9E5B",
"W. c #E39955",
"Q. c #E9A15E",
"!. c #E29D6A",
"~. c #EEA364",
"^. c #E6A36B",
"/. c #E5A779",
"(. c #E6A97B",
"). c #E6A777",
"_. c #6F7F89",
"`. c #BB3D81",
"'. c #C43281",
"]. c #A95483",
"[. c #B95188",
"{. c #C9498D",
"}. c #D95B96",
"|. c #CA548E",
" X c #CC6195",
".X c #DE609B",
"XX c #E5619C",
"oX c #EF65A2",
"OX c #F768A8",
"+X c #F079AD",
"@X c #F4589F",
"#X c #728D91",
"$X c #868485",
"%X c #989999",
"&X c #8C9391",
"*X c #95B4BB",
"=X c #8DA9AE",
"-X c #A9A9AB",
";X c #AD93A1",
":X c #DA9C93",
">X c #E8B18C",
",X c #E9B594",
"<X c #EBBB9C",
"1X c #E8B79A",
"2X c #E7AE86",
"3X c #C9ACB0",
"4X c #E7BBA5",
"5X c #EF88B1",
"6X c #EDC4AC",
"7X c #ECCAB7",
"8X c #F2D1BD",
"9X c #F3C4A7",
"0X c #98BCC4",
"qX c #9EC1C8",
"wX c #A4C4CA",
"eX c #BAD3D8",
"rX c #AECCD2",
"tX c #C8D3D5",
"yX c #D4D1D2",
"uX c #F2D7C8",
"iX c #EAD9D8",
"pX c #F4DED2",
"aX c #F5DED8",
"sX c #EBD0CA",
"dX c #F6E4DC",
"fX c #F7E4DB",
"gX c #C9DEE1",
"hX c #D8E5E8",
"jX c #D3E7E9",
"kX c #E5ECEE",
"lX c #E9E9E9",
"zX c #FAECE4",
"xX c #F6E7E3",
"cX c #FAF1EC",
"vX c #F3F4F4",
"bX c #FBF6F3",
"nX c #FDF9F7",
"mX c #F6FAFB",
"MX c #FEFEFE",
"NX c #F5F7F8",
"BX c #ECF1F3",
"VX c None",
/* pixels */
"VXVXVXVXVXVXVXVXVXVXVXVXVXVXVXVXVXVXVXVXVXVXVXVXVXVXVXVXVXVXVXVXVXVXVXVXVXVXVXVXVXVXVXVXVXVXVXVXVXVXVXVXVXVXVXVXVXVXVXVXVXVXVXVX",
"VXVXVXVXVXVXVXVXVXVXVXVXVXVXVXVXVXVXVXVXVXVXVXVXVXVXVXVXVXVXVXVXVXVXVXVXVXVXVXVXVXVXVXVXVXVXVXVXVXVXVXVXVXVXVXVXVXVXVXVXVXVXVXVX",
"VXVXVXVXVXVXVXVXVXVXVXVXVXVXVXVXVXVXVXVXVXVXVXVXVXVXVXVXVXVXVXVXVXVXVXVXVXVXVXVXVXVXVXVXVXVXVXVXVXVXVXVXVXVXVXVXVXVXVXVXVXVXVXVX",
"VXVXVXVXVXVXVXVXVXVXVXVXVXVXVXVXVXVXVXVXVXVXVXVXVXVXVXVXVXVXVXVXVXVXVXVXVXVXVXVXVXVXVXVXVXVXVXVXVXVXVXVXVXVXVXVXVXVXVXVXVXVXVXVX",
"VXVXVXVXVXVXVXVXVXVXVXVXVXVXVXVXVXVXVXVXVXVXVXVXVXVXVXVXVXVXVXVXVXVXVXVXVXVXVXVXVXVXVXVXVXVXVXVXVXVXVXVXVXVXVXVXVXVXVXVXVXVXVXVX",
"VXVXVXVXVXVXVXVXVXVXVXVXVXVXVXVXVXVXVXVXVXVXVXVXVXVXVXVXVXVXVXVXVXVXVXVXVXVXVXVXVXVXVXVXVXVXVXVXVXVXVXVXVXVXVXVXVXVXVXVXVXVXVXVX",
"VXVXVXVXVXVXVXVXVXVXVXVXVXVXVXVXVXVXVXVXVXVXVXVXVXVXVXVXVXVXVXVXVXVXVXVXVXVXVXVXVXVXVXVXVXVXVXVXVXVXVXVXVXVXVXVXVXVXVXVXVXVXVXVX",
"VXVXVXVXVXVXVXVXVXVXVXVXVXVXVXVXVXVXVXVXVXVXVXVXVXVXVXVXVXVXVXVXVXVXVXVXVXVXVXVXVXVXVXVXVXVXVXVXVXVXVXVXVXVXVXVXVXVXVXVXVXVXVXVX",
"VXVXVXVXVXVXVXVXVXVXVXVXVXVXVXVXVXVXVXVXVXVXVXVXVXVXVXVXVXVXVXVXVXVXVXVXVXVXVXVXVXVXVXVXVXVXVXVXVXVXVXVXVXVXVXVXVXVXVXVXVXVXVXVX",
"VXVXVXVXVXVXVXVXVXVXVXVXVXVXVXVXVXVXVXVXVXVXVXVXVXVXVXVXVXVXVXVXVXVXVXVXVXVXVXVXVXVXVXVXVXVXVXVXVXVXVXVXVXVXVXVXVXVXVXVXVXVXVXVX",
"VXVXVXVXVXVXVXVXVXVXVXVXVXVXVXVXVXVXVXVXVXVXVXVXVXVXVX& t ) ) R R ) ) ) ) ) _ p VXVXVXVXVXVXVXVXVXVXVXVXVXVXVXVXVXVXVXVXVXVXVXVX",
"VXVXVXVXVXVXVXVXVXVXVXVXVXVXVXVXVXVXVXVXVXVXVXX , f ' _ ! *.-.b.n.-.;.,.;.,.,.{ _ R $ $ VXVXVXVXVXVXVXVXVXVXVXVXVXVXVXVXVXVXVXVX",
"VXVXVXVXVXVXVXVXVXVXVXVXVXVXVXVXVXVXVXVXVXo r ) ' l.;.;.H.P.=.J.Y.@.=.=.=.=.=.=.;.=.' ' < VXVXVXVXVXVXVXVXVXVXVXVXVXVXVXVXVXVXVX",
"VXVXVXVXVXVXVXVXVXVXVXVXVXVXVXVXVXVXVXVX= N a.>.;.:.:.1.Q.~.z.x.2.&.=.=.=.=.=.&.*.*.-.-.} i VXVXVXVXVXVXVXVXVXVXVXVXVXVXVXVXVXVX",
"VXVXVXVXVXVXVXVXVXVXVXVXVXVXVXVXVXVXVX8 B 7.=.>.%.$.%.%.2.v.>.&.=.=.&.&.{ b.J.J.J.J.H.J.2.%.p VXVXVXVXVXVXVXVXVXVXVXVXVXVXVXVXVX",
"VXVXVXVXVXVXVXVXVXVXVXVXVXVXVXVXVXVXVXr 8.7.{ =.$.{ ^ $.^ ^ @.&.*.1.J.J.Y.d.z ..........i c.H.Q = VXVXVXVXVXVXVXVXVXVXVXVXVXVXVX",
"VXVXVXVXVXVXVXVXVXVXVXVXVXVXVXVXVXVXu V 7.Z } / 4XlXxXxXiXxXdX:X+.L.Q.Q...[.{.{.{.{.{.{.}.h.o.H.. ; MXMXVXVXVXVXVXVXVXVXVXVXVXVX",
"VXVXVXVXVXVXVXVXVXVXVXVXVXVXVXVXVXo t 8.9.} +.;XkXmXrXgXMXMXMXbX7XB.L.d v XXOX.X].h.].j.q.j.j.k I BXMXMXMXVXVXVXVXVXVXVXVXVXVXVX",
"VXVXVXVXVXVXVXVXVXVXVXVXVXVXVXVX= t C C 8.=.Y dXjXwX0XwXMXMXMXMXMXpX4.< }.OX`.-XBXhX*XkXU u j.{.D eXwXMXMXMXMXVXVXVXVXVXVXVXVXVX",
"VXVXVXVXVXVXVXVXVXVXVXVXVXVXVXVX# d 8.V 9.=.-XNXgXtXNXNXlXMXmXMXMXlX0 XXOX@X-XgXMXMXwXMXmX&Xw..X4 wX0XkXvXMXMXVXVXVXVXVXVXVXVXVX",
"VXVXVXVXVXVXVXVXVXVXVXVXVXVXVXVX6 ( ] 6.y. .BXnXmXMXMXNX$XmXtXkXBX#X8 OXoXt.#XgXvXlXH lXmX%Xw.|.U MXNX%X=XmXMXVXVXVXVXVXVXVXVXVX",
"VXVXVXVXVXVXVXVXVXVXVXVXVXVXVX# ' -.=.z.K.h lXbXMXMXMXMXlXMXeXhXtX1 h.oXZ . 4 I U I   I U j m ].5XMXMXBXeXkXMXVXVXVXVXVXVXVXVXVX",
"VXVXVXVXVXVXVXVXVXVXVXVXVXVXVX# ' -.=.2.Q.1 F =XhXMXMXMXMXMXmXjX#Xw OXoX8 - +       2       b j.5XwXBXMXmXkX0XVXVXVXVXVXVXVXVXVX",
"VXVXVXVXVXVXVXVXVXVXVXVXVXVXVX% N ' { 3.P.q . #XqXgXmXmXmXmXgXwX#Xt.OXoXA * ; 5 7 5 ; 7 7 3 . q.+X*XrXwXwX#X  VXVXVXVXVXVXVXVXVX",
"VXVXVXVXVXVXVXVXVXVXVXU %X%XVX# N 7.V i.z.z...  #X*X*X*X*X*X*XP . Z OXoXm 3 7 2 3 - - 2 5 2 . h.XX3 =X*XP   + VXVXVXVXVXVXVXVXVX",
"VXVXVXVXVXVXVXVXVXVXVX-XMXiX` @ B 9.V p.T.J.Y.X.: & % $ # & 1 u k e.OXoXm       5 3 2       . e.XXX 2 7 ; VXVXVXVXVXVXVXVXVXVXVX",
"VXVXVXVXVXVXVXVXVXVXU yXuXl.} e N Z Z 0.-.=.=.;.! i p ....O.0 B.o.A XXoXq &X%XU . .   D &XI . h.oX3 = + VXVXVXVXVXVXVXVXVXVXVXVX",
"VXVXVXVXVXVXVXVXVX  hXfXY ! 7.> E u.0.' &.=.=.=.>.;.z.T.I.<X6X9X;X  h.OX  tXmXiX].&X%XeXMX-Xq [.|.  ; VXVXVXVXVXVXVXVXVXVXVXVXVX",
"VXVXVXVXVXVXVXVXVX  tXfXY Z Z & ' -.*.;.v.&.&.{ #.@.%.n.6XMXMXMXiX_.L }.r.#XjXMXMXMXMXMXvX#Xw.oXH %X9 VXVXVXVXVXVXVXVXVXVXVXVXVX",
"VXVXVXVXVXVXVXVXVX  yXaXY 7.7.&  .-.*.z.R.v.v.v.v.v.H.(.MXMXMXMXMXkX. L  X'.-XtXtXtXtXtXK w [.r.P mXI VXVXVXVXVXVXVXVXVXVXVXVXVX",
"VXVXVXVXVXVXVXVXVX  hXbX3Xw y.; ) } -.z.R.R.R.R.R.R.W.).MXMXdXuXuX7X..b K [.{.`.r.`.'.[.j.XX|.4 D.sXF VXVXVXVXVXVXVXVXVXVXVXVXVX",
"VXVXVXVXVXVXVXVXVXVX%XlXbXY u * : C ' g.Q.Q.Q.Q.Q.R.W.(.MXpX).C.I.J.!.d.m K ]..X X X X X X[.p.F.Q.I.u VXVXVXVXVXVXVXVXVXVXVXVXVX",
"VXVXVXVXVXVXVXVXVXVX  k.3X~ r R R _ 0.i.b.b.b.b.b.b.H.).uXR.U.R.R.R.R.E.f.J c x x x x x n l G.Q.Q.Q.u VXVXVXVXVXVXVXVXVXVXVXVXVX",
"VXVXVXVXVXVXVXVXVXVXVX  @ ) a.:.;.;.| 9.&.@.&.@.@. .=.b.+.N.I.Z.Z.Z.I.R.~.G.f.f.f.o.f.f.f.L.W.Z.C.5.e VXVXVXVXVXVXVXVXVXVXVXVXVX",
"VXVXVXVXVXVXVXVXVXVXVXf | ,.-.=.=.=.{ ] >.=.=.:.:.>.#.l.sXpXfXpXpXpXuXC.B.R.~.~.~.~.~.~.~.V.1XfXpXsXF VXVXVXVXVXVXVXVXVXVXVXVXVX",
"VXVXVXVXVXVXVXVXVXVXr _ ;.>.=.:.=.=.-.=.&.&.@.{ @.@.%.!.MXMXMXMXMXMXMXfXxX/.M.N.N.N.C.N.M.6XnXMXMXMXG VXVX* VXVXVXVXVXVXVXVXVXVX",
"VXVXVXVXVXVXVXVXVX$ E :.=.=.=.=.=.-.=.1.J.J.J.J.J.J.H.(.MXMXMXnXnXnXMXMXMXzXdXdXdXdXdXdXfXnXMXMXMXmXH . = E ( # VXVXVXVXVXVXVXVX",
"VXVXVXVXVXVXVXVX- y ' -.=.=.;.a.u.y.0.d.~.R.R.R.R.Q.W.(.nXMX8X,X1X8XMXnXMXMXMXMXMXMXMXMXMXMXMXnXnX1Xu a , ( { # VXVXVXVXVXVXVXVX",
"VXVXVXVXVXVXVXVX* ' >.:.:.*.0.9.r , $ J E.W.R.W.W.W.W.^.<X,XpXdXdXpX,X<XbXMXMXnXMXnXnXMXnXMXdX,X6XdXF B 8 R | # VXVXVXVXVXVXVXVX",
"VXVXVXVXVXVXVX* N ] -.-.*.E , e - y V _ 2.1.x.z.z.4.3.m.zXfX7X<X<X7XxXxX<X,X,X,X,X,X,X,X,X>X7XzXfX1Xu N ' =.' o VXVXVXVXVXVXVXVX",
"VXVXVXVXVXVXVX% ] >.a.f r m M 7 * W :.} =.J.J.J.J.L.J.L.1X<XR.V.V.R.<X<XxXzXzXzXzXcXzXcXzXzXuX>X,XB.6 ' -.-.' # VXVXVXVXVXVXVXVX",
"VXVXVXVXVXVXVX* { ;.) . #XvXl.~ @ g y.9.i.1.1.z.1.1.1.1.+.M.I.W.U.I.M.M./.(.>X,X>X>X>X2X>X>X/.C.M.U.e f 0.f 6 = VXVXVXVXVXVXVXVX",
"VXVXVXVXVXVXVX= e i VXVXVX$X/ D.J y 9.7.V =.=.=.=.&.&.=.W.).).).).).(.(.^.).I.C.W.W.J.U.T.C.V.R.2Xm.6 A 7.m o VXVXVXVXVXVXVXVXVX",
"VXVXVXVXVXVXVXVXVXVXVXVXVXVXU lX&X  T } 0.} &.&.&.&.=.2.R.cXbXcXbXbXbXnXbXbXuXW.Z.I.I.I.Z.).(.6XbXvXG @ e 6 VXVXVXVXVXVXVXVXVXVX",
"VXVXVXVXVXVXVXVXVXVXVXVXVXI BX:XC & T ;.{ 0.x.1.2.1.v.W.W.MXMXMXMXMXMXMXMXMXMXpX).2X2X2X).fXbXnXMXcXH VXVXVXVXVXVXVXVXVXVXVXVXVX",
"VXVXVXVXVXVXVXVXVXVXVXVXVXG BXm.Q r p } =.=.P.R.L.L.R.R.R.xXcXcXcXcXcXcXMXMXMXMXnXmXnXnXnXMXMXMXbXs.e VXVXVXVXVXVXVXVXVXVXVXVXVX",
"VXVXVXVXVXVXVXVXVXVXVXVXVXVX  y.i.8 $ i ,.;.#.H.R.~.E.E.R.J.H.H.U.W.U.T.xXzXMXMXMXMXMXMXMXMXMXnXsXw > VXVXVXVXVXVXVXVXVXVXVXVXVX",
"VXVXVXVXVXVXVXVXVXVXVXVXVXVX* ' a.E i h [ } } ! c.K.K.P.T.;.%.%.v.Y.T.E.W.A.8XfXfXzXfXzXfXfXdXyXY & VXVXVXVXVXVXVXVXVXVXVXVXVXVX",
"VXVXVXVXVXVXVXVXVXVXVXVXVXVXVX# ( { ) & ; B C 7.Z V V 9.] ] ] ' ( ( s.G.G.K.b.G.G.G.G.c.G.:.! g t = VXVXVXVXVXVXVXVXVXVXVXVXVXVX",
"VXVXVXVXVXVXVXVXVXVXVXVXVXVXVXVXVX< > > * = N N C 8.9.V V Z y.E p g A 9.Z q.Z g 9.M M 9.9.s s y % VXVXVXVXVXVXVXVXVXVXVXVXVXVXVX",
"VXVXVXVXVXVXVXVXVXVXVXVXVXVXVXVXVXVXVXVXVXVX= + u B B 8.C Z } -.-.| , N N s a a a t a a N 8 3 VXVXVXVXVXVXVXVXVXVXVXVXVXVXVXVXVX",
"VXVXVXVXVXVXVXVXVXVXVXVXVXVXVXVXVXVXVXVXVXVXVXVXVXX 6 B 7.V a.} =.:._ o % o 6 y r r r y > & ; VXVXVXVXVXVXVXVXVXVXVXVXVXVXVXVXVX",
"VXVXVXVXVXVXVXVXVXVXVXVXVXVXVXVXVXVXVXVXVXVXVXVXVXVXVX% N 7.A ] -.=.=.r ; r V 8.8.8.8.g 8 = VXVXVXVXVXVXVXVXVXVXVXVXVXVXVXVXVXVX",
"VXVXVXVXVXVXVXVXVXVXVXVXVXVXVXVXVXVXVXVXVXVXVXVXVXVXVXVXVXy 7.y.[ ;.:.' - V 8.8.9.y a & % VXVXVXVXVXVXVXVXVXVXVXVXVXVXVXVXVXVXVX",
"VXVXVXVXVXVXVXVXVXVXVXVXVXVXVXVXVXVXVXVXVXVXVXVXVXVXVXVXVX% e N 0.a.a.,.f y r r 7 X VXVXVXVXVXVXVXVXVXVXVXVXVXVXVXVXVXVXVXVXVXVX",
"VXVXVXVXVXVXVXVXVXVXVXVXVXVXVXVXVXVXVXVXVXVXVXVXVXVXVXVXVX= y t N Z C ' 8.& p ( ! ( VXVXVXVXVXVXVXVXVXVXVXVXVXVXVXVXVXVXVXVXVXVX",
"VXVXVXVXVXVXVXVXVXVXVXVXVXVXVXVXVXVXVXVXVXVXVXVXVXVXVXVXVXVXt 8 > t y Z C W { ;.,.=.1 VXVXVXVXVXVXVXVXVXVXVXVXVXVXVXVXVXVXVXVXVX",
"VXVXVXVXVXVXVXVXVXVXVXVXVXVXVXVXVXVXVXVXVXVXVXVXVXVXVXVXVXVXVXVXVXo % y Z :.-.;.{ i VXVXVXVXVXVXVXVXVXVXVXVXVXVXVXVXVXVXVXVXVXVX",
"VXVXVXVXVXVXVXVXVXVXVXVXVXVXVXVXVXVXVXVXVXVXVXVXVXVXVXVXVXVXVXVXVXVXVX% Z i.u.W i VXVXVXVXVXVXVXVXVXVXVXVXVXVXVXVXVXVXVXVXVXVXVX",
"VXVXVXVXVXVXVXVXVXVXVXVXVXVXVXVXVXVXVXVXVXVXVXVXVXVXVXVXVXVXVXVXVXVXVXVXr 8 r , VXVXVXVXVXVXVXVXVXVXVXVXVXVXVXVXVXVXVXVXVXVXVXVX",
"VXVXVXVXVXVXVXVXVXVXVXVXVXVXVXVXVXVXVXVXVXVXVXVXVXVXVXVXVXVXVXVXVXVXVXVXVXVXVXVXVXVXVXVXVXVXVXVXVXVXVXVXVXVXVXVXVXVXVXVXVXVXVXVX",
"VXVXVXVXVXVXVXVXVXVXVXVXVXVXVXVXVXVXVXVXVXVXVXVXVXVXVXVXVXVXVXVXVXVXVXVXVXVXVXVXVXVXVXVXVXVXVXVXVXVXVXVXVXVXVXVXVXVXVXVXVXVXVXVX",
"VXVXVXVXVXVXVXVXVXVXVXVXVXVXVXVXVXVXVXVXVXVXVXVXVXVXVXVXVXVXVXVXVXVXVXVXVXVXVXVXVXVXVXVXVXVXVXVXVXVXVXVXVXVXVXVXVXVXVXVXVXVXVXVX",
"VXVXVXVXVXVXVXVXVXVXVXVXVXVXVXVXVXVXVXVXVXVXVXVXVXVXVXVXVXVXVXVXVXVXVXVXVXVXVXVXVXVXVXVXVXVXVXVXVXVXVXVXVXVXVXVXVXVXVXVXVXVXVXVX"
};
