/* XPM */
static char *result[] = {
/* columns rows colors chars-per-pixel */
"64 64 249 2 ",
"   c #000000",
".  c #020905",
"X  c #07140B",
"o  c #050819",
"O  c #071318",
"+  c #141519",
"@  c #1A050B",
"#  c #390000",
"$  c #291B1B",
"%  c #310212",
"&  c #000324",
"*  c #000A24",
"=  c #001424",
"-  c #001923",
";  c #051728",
":  c #151A24",
">  c #191C26",
",  c #181D28",
"<  c #031334",
"1  c #2D1F29",
"2  c #271D28",
"3  c #311030",
"4  c #1D222B",
"5  c #0C3036",
"6  c #272529",
"7  c #38222B",
"8  c #2E2735",
"9  c #353213",
"0  c #500608",
"q  c #6E0509",
"w  c #461925",
"e  c #51152D",
"r  c #6B1432",
"t  c #48272A",
"y  c #54382E",
"u  c #513629",
"i  c #492835",
"p  c #562B39",
"a  c #4F3331",
"s  c #662D2A",
"d  c #68352B",
"f  c #77352C",
"g  c #652D3A",
"h  c #6B313E",
"j  c #663136",
"k  c #7B3833",
"l  c #4C370F",
"z  c #04413F",
"x  c #644538",
"c  c #755132",
"v  c #5F4236",
"b  c #2B3B4B",
"n  c #002C50",
"m  c #582B42",
"M  c #4E3858",
"N  c #692745",
"B  c #7A2948",
"V  c #772946",
"C  c #683441",
"Z  c #733442",
"A  c #7A3645",
"S  c #7B3845",
"D  c #7B3649",
"F  c #7E3849",
"G  c #753649",
"H  c #732357",
"J  c #5C3664",
"K  c #005A5A",
"L  c #374F53",
"P  c #30484E",
"I  c #307072",
"U  c #5B585A",
"Y  c #4A494E",
"T  c #5A4268",
"R  c #4C5563",
"E  c #705274",
"W  c #5B6265",
"Q  c #566C6C",
"!  c #6C6F73",
"~  c #635051",
"^  c #951512",
"/  c #A70000",
"(  c #93320F",
")  c #AC3212",
"_  c #893C2C",
"`  c #893C33",
"'  c #97342D",
"]  c #AE3835",
"[  c #C23808",
"{  c #C71600",
"}  c #954232",
"|  c #9C4335",
" . c #904D33",
".. c #AB4A33",
"X. c #AC4A3D",
"o. c #A64637",
"O. c #B34D3B",
"+. c #B84D35",
"@. c #BD5336",
"#. c #BD5139",
"$. c #B6533B",
"%. c #AB4A2B",
"&. c #90613D",
"*. c #B56E24",
"=. c #C3441A",
"-. c #C85113",
";. c #D16D07",
":. c #C3492C",
">. c #C34C31",
",. c #C84F33",
"<. c #C55335",
"1. c #CA5634",
"2. c #C5533A",
"3. c #CA5A39",
"4. c #D15935",
"5. c #D35A38",
"6. c #CE562E",
"7. c #C37428",
"8. c #CA663A",
"9. c #D46A3D",
"0. c #833A46",
"q. c #8B3D45",
"w. c #843A49",
"e. c #893948",
"r. c #913F43",
"t. c #923969",
"y. c #A83878",
"u. c #A22A64",
"i. c #920A56",
"p. c #9B4343",
"a. c #974347",
"s. c #834C45",
"d. c #A84843",
"f. c #B55944",
"g. c #AD5346",
"h. c #986843",
"j. c #BC7D4A",
"k. c #BE764E",
"l. c #B14C7B",
"z. c #A26666",
"x. c #C75C55",
"c. c #C25D46",
"v. c #CE6941",
"b. c #D16A42",
"n. c #D27445",
"m. c #D37849",
"M. c #C86658",
"N. c #C77A55",
"B. c #CC744E",
"V. c #CE7664",
"C. c #DF851C",
"Z. c #E38C0E",
"A. c #D9863A",
"S. c #DC8529",
"D. c #E08D36",
"F. c #E4923A",
"G. c #E18B2E",
"H. c #BD8758",
"J. c #D9864B",
"K. c #DE9144",
"L. c #C88754",
"P. c #DB8952",
"I. c #DB9355",
"U. c #DA9557",
"Y. c #C5864E",
"T. c #E29345",
"R. c #E2954C",
"E. c #E39554",
"W. c #E49B5C",
"Q. c #E99C5B",
"!. c #E49758",
"~. c #EB9756",
"^. c #E9A15E",
"/. c #D68E74",
"(. c #E59E64",
"). c #E09870",
"_. c #E6A269",
"`. c #E5A574",
"'. c #637D84",
"]. c #C93D86",
"[. c #AF5C88",
"{. c #C54983",
"}. c #C7558B",
"|. c #D2578E",
" X c #D75795",
".X c #D24F8F",
"XX c #CB6196",
"oX c #D96098",
"OX c #E4629C",
"+X c #E9619E",
"@X c #FD6BAC",
"#X c #F565A4",
"$X c #ED67A3",
"%X c #DA689F",
"&X c #728A8E",
"*X c #7B9CA3",
"=X c #70A1A6",
"-X c #8E9394",
";X c #AA9092",
":X c #839DA3",
">X c #91AFB5",
",X c #A9A8A9",
"<X c #ADB4B5",
"1X c #B6B8B9",
"2X c #B5ACAF",
"3X c #D29F9A",
"4X c #D2A696",
"5X c #E8B99A",
"6X c #EFB28F",
"7X c #D58CAE",
"8X c #CCB1AF",
"9X c #EBBFA3",
"0X c #E8B3AC",
"qX c #EDC5AC",
"wX c #EECAB6",
"eX c #F1CCB5",
"rX c #F2D2BF",
"tX c #D9C4B6",
"yX c #8EBBC2",
"uX c #E1B3C4",
"iX c #9CC1C8",
"pX c #A5C4CB",
"aX c #ABC3C8",
"sX c #B7CCD0",
"dX c #B6DBE0",
"fX c #C8C9CA",
"gX c #C8D6DA",
"hX c #D5D6D7",
"jX c #D1CACC",
"kX c #F2D4C3",
"lX c #F8DBCA",
"zX c #ECDCD7",
"xX c #F4DED2",
"cX c #E9CEC7",
"vX c #F7E6DD",
"bX c #F7E2D6",
"nX c #C8DDE1",
"mX c #D9E5E8",
"MX c #D5E9ED",
"NX c #E5E6E7",
"BX c #F7EBE6",
"VX c #FBF2EE",
"CX c #F6F1EF",
"ZX c #EAF2F3",
"AX c #FCF5F2",
"SX c #FFFEFE",
"DX c #F4F7F8",
"FX c #E7EEF0",
"GX c None",
/* pixels */
"GXGXGXGXGXGXGXGXGXGXGXGXGXGXGXGXGXGXGXGXGXGXGXGXGXGXGXGXGXGXGXGXGXGXGXGXGXGXGXGXGXGXGXGXGXGXGXGXGXGXGXGXGXGXGXGXGXGXGXGXGXGXGXGX",
"GXGXGXGXGXGXGXGXGXGXGXGXGXGXGXGXGXGXGXGXGXGXGXGXGXGXGXGXGXGXGXGXGXGXGXGXGXGXGXGXGXGXGXGXGXGXGXGXGXGXGXGXGXGXGXGXGXGXGXGXGXGXGXGX",
"GXGXGXGXGXGXGXGXGXGXGXGXGXGXGXGXGXGXGXGXGXGXGXGXGXGXGXGXGXGXGXGXGXGXGXGXGXGXGXGXGXGXGXGXGXGXGXGXGXGXGXGXGXGXGXGXGXGXGXGXGXGXGXGX",
"GXGXGXGXGXGXGXGXGXGXGXGXGXGXGXGXGXGXGXGXGXGXGXGXGXGXGXGXGXGXGXGXGXGXGXGXGXGXGXGXGXGXGXGXGXGXGXGXGXGXGXGXGXGXGXGXGXGXGXGXGXGXGXGX",
"GXGXGXGXGXGXGXGXGXGXGXGXGXGXGXGXGXGXGXGXGXGXGXO & & * * & & & & & & & & GXGXGXGXGXGXGXGXGXGXGXGXGXGXGXGXGXGXGXGXGXGXGXGXGXGXGXGX",
"GXGXGXGXGXGXGXGXGXGXGXGXGXGXGXGXGXGXGXGXGXGX< C } } ` ' ' } } } } } | _ - GXGXGXGXGXGXGXGXGXGXGXGXGXGXGXGXGXGXGXGXGXGXGXGXGXGXGX",
"GXGXGXGXGXGXGXGXGXGXGXGXGXGXGXGXGXGX< p ` } ` d.,.1.9.n.5.3.1.3.1.4.1.1._ ` d GXGXGXGXGXGXGXGXGXGXGXGXGXGXGXGXGXGXGXGXGXGXGXGXGX",
"GXGXGXGXGXGXGXGXGXGXGXGXGXGXGXGX8 j ` d.<.<.3.n.v.<.m.W.8.>.<.<.<.<.<.1.3.4.+.k ` 7 GXGXGXGXGXGXGXGXGXGXGXGXGXGXGXGXGXGXGXGXGXGX",
"GXGXGXGXGXGXGXGXGXGXGXGXGXGX> p q.#.1.<.<.>.n.W.^.n.8.P.3.<.<.<.<.<.>.>.+.:.>.,.,.] t GXGXGXGXGXGXGXGXGXGXGXGXGXGXGXGXGXGXGXGXGX",
"GXGXGXGXGXGXGXGXGXGXGXGXGX2 p q.2.1.2.3.2.<.B.!.U.n.<.>.<.<.<.<.>.3.v.v.v.8.v.v.b.5.%.3 GXGXGXGXGXGXGXGXGXGXGXGXGXGXGXGXGXGXGXGX",
"GXGXGXGXGXGXGXGXGXGXGXGX- h w.q.<.2.2.[ =.=.=.=.:.=.+.1.<.<.3.<.3.Y.I.I.I.I.U.U.U.8.:.3.e GXGXGXGXGXGXGXGXGXGXGXGXGXGXGXGXGXGXGX",
"GXGXGXGXGXGXGXGXGXGXGXGX> Z w.q.#.,.2.x.x.x.x.x.x.x.2.<.>.J.!.I.E.h.a v x v v v v i h.E.8.k 6 GXGXGXGXGXGXGXGXGXGXGXGXGXGXGXGXGX",
"GXGXGXGXGXGXGXGXGXGXGX7 h 0.D e.2.[ 3XvXVXVXBXBXBXBXwX) I.^.^.^.c l.oX X X X.X.X X Xl.c R.&.  U SXSXSXGXGXGXGXGXGXGXGXGXGXGXGXGX",
"GXGXGXGXGXGXGXGXGXGXGX6 0.w.p.+.6.z.hXSXnXdXMXSXSXSXAXlX^.T.Y.x n |.@X$Xl.y.y.[.y.t.l.}.&.l -XCXSXSXSXSXGXGXGXGXGXGXGXGXGXGXGXGX",
"GXGXGXGXGXGXGXGXGXGXi Z S G p.6.{ jXMXgX>X=XsXSXSXSXSXSXbX6X*.o XX$X.Xl.fXhXaX>XhXQ @ l.[.r &XmXgXZXSXSXSXGXGXGXGXGXGXGXGXGXGXGX",
"GXGXGXGXGXGXGXGXGX> p w.0.G ] c.;XFXZXyXmXFXZXSXSXSXSXSXSX8X%.l.$X@X%X>XSXSXZXsXSXNX-X. #Xu.I yX=XZXSXSXSXGXGXGXGXGXGXGXGXGXGXGX",
"GXGXGXGXGXGXGXGXGXo j o.D N ' M.hXDXDXmXSXSXNX1XSXFXFXSXZX&Xi.@X@X.X[.dXSXSXhX*XSXSXmX# +Xi.&XmXMXsX8XFXSXGXGXGXGXGXGXGXGXGXGXGX",
"GXGXGXGXGXGXGXGXGXs o.1.d.g.%.z.SXSXSXSXSXSXNX-XSXsXsXSX>XK t.$X.XN K >XjXhX,X@ fXhX,X% .Xu.2XSXSXfX&XiXSXGXGXGXGXGXGXGXGXGXGXGX",
"GXGXGXGXGXGXGXGX= ..4.<.>.E.j.b hXNXDXSXSXSXSXSXSXmXmXMXP H XX+X7 X + O + 6 + , O 6 + 8 T .XuXDXSXSXDXnXDXGXGXGXGXGXGXGXGXGXGXGX",
"GXGXGXGXGXGXGXGX- | 2.1.>.!.H.o 6 *XnXDXSXSXSXSXSXSXMXiX5 {.@XOXp O > + : O : , : O O 4 M .X7XpXZXDXDXDXpXGXGXGXGXGXGXGXGXGXGXGX",
"GXGXGXGXGXGXGXGX- C p.<.>.P.N.%   &XiXsXDXDXSXDXDXnXiX>XK {.@X+Xm O : , , 6 , , 2 , , , X l.7XiXiXpXpX>XL GXGXGXGXGXGXGXGXGXGXGX",
"GXGXGXGXGXGXGXGX- h w.0.0.$.8.$.v * &XiXpXaXpXpXaXpX:X8 . {.@X+Xm O , , , : , , , , , : . |. XY yXpX:X4 + GXGXGXGXGXGXGXGXGXGXGX",
"GXGXGXGXGXGXGX7 - h w.S V N.!.E.U. .= U L L L L L R P $   }.@X+Xm X : : , , , , > : : : . |..X. R R L + GXGXGXGXGXGXGXGXGXGXGXGX",
"GXGXGXGXGXGXq +.7 g w.w.S f.b.v.9.c._               c L.9 {.@X+Xm       o : : O       , . |.|.X       GXGXGXGXGXGXGXGXGXGXGXGXGX",
"GXGXGXGX+ fXjX^ 6 g D D G X.:.>.@.<.@...o.k.L.Y.7.7.A.F.l J  X$X% 1XNXjX6 . X + &XgX1X. b XX|.+ 4 8 GXGXGXGXGXGXGXGXGXGXGXGXGXGX",
"GXGXGXGX  ZXCXq - ` O.X.X.+.1.1.<.<.3.3.4.n.A.^.lXbXbXcX$ < [.#X  aXDXSXgXfXfXjXmXSXNX% [.XXt.  - GXGXGXGXGXGXGXGXGXGXGXGXGXGXGX",
"GXGXGX! 1XcX3Xr = | 4.1.1.n.b.+.:.:.:.+.:.-.4XxXSXSXSXSXfX! H }.{.E sXSXSXSXSXSXSXNX-X  @Xy.! 1XY GXGXGXGXGXGXGXGXGXGXGXGXGXGXGX",
"GXGXGX8 SX0X/ G ; %.4.<.>.P.!.m.m.n.m.m.n.C.qXSXSXSXSXSXSX,X. E XX].7XsXfXfXfXfXgX! # l. Xe >XSXW GXGXGXGXGXGXGXGXGXGXGXGXGXGXGX",
"GXGX! 1XSX0X' B ; } #.1.,.J.W.W.W.W.U._.^.F.eXSXSXVXxXbXbX;Xc M T [..Xy.y.y.y.y.l.t.}.#XJ l 4XzXU GXGXGXGXGXGXGXGXGXGXGXGXGXGXGX",
"GX  <XSXCX;Xq S 6 m a.#...P.^.W.W.^.^.^.L.7.4XmXmX5XG.T.F.^.L.x J R [.+XOXOXOX XOXOXOX}.c Y.^.A.y GXGXGXGXGXGXGXGXGXGXGXGXGXGXGX",
"GX  <XSXM.^ G F : g w.S B N.~.!.!.I.U.L.v w w #   H.(.W.Q.Q._.!.c M T T T T T T T T M c U._.^.U.y GXGXGXGXGXGXGXGXGXGXGXGXGXGXGX",
"GX  <XAXV.) w.G 7 h w.D G o.@.#.@.k - d @.>.6.=.  *.~.T.R.R.R.Q.W.h.y y p y y y u u &.^.R.R.R.J.y GXGXGXGXGXGXGXGXGXGXGXGXGXGXGX",
"GX  <XAXM.[ | 2 Z 0.0.S t 7 w w w g ` @.<.<.<.+.Y H._.(.(._.(.!.Q.U.I.U.I.I.I.I.I.I.U.Q.(._.I.c.i GXGXGXGXGXGXGXGXGXGXGXGXGXGXGX",
"GX  <XSXV.) j , S F p.@.@.+.+.....#.2.1.<.6.) ~ NXAXVXAXCXVXlXD.R.!.Q.Q.Q.Q.W.!.Q.Q.T._.VXAXVXNXU GXGXGXGXGXGXGXGXGXGXGXGXGXGXGX",
"GXGX! ,XBX;XO 8 S D d.1.1.1.1.1.1.1.6.@.6.X.q P DXSXSXSXSXSXAXBXVX5XS.K.K.K.K.K.T.S.5XCXSXSXSXSXW GXGXGXGXGXGXGXGXGXGXGXGXGXGXGX",
"GXGXGXGX<XhX1X  A F | <.<.<.<.<.<.<.<.1.3.q &XhXAXSXSXSXSXSXSXSXSXBXbXbXbXbXbXbXbXbXBXSXAXSXSXDXW GXGXGXGXGXGXGXGXGXGXGXGXGXGXGX",
"GXGXGXGX. 3X8Xo A w.q.X.2.1.1.1.1.4.2.d.s ( tXSXSXxX5XqX5XVXSXSXSXSXSXSXSXSXSXSXSXSXSXSXSXSXCX5XY GXGXGXGXGXGXGXGXGXGXGXGXGXGXGX",
"GXGXGXW sXV./ < S 0.D A o.d.X.d.d.| j 8 h.I.`.rXwXrXkXkXkXwXqXkXSXSXSXSXSXSXSXSXSXSXSXSXrXqXrXcX~ GXGXGXGXGXGXGXGXGXGXGXGXGXGXGX",
"GXGXGX$ zX6X) i g A e.w.w.w.N 3 3 s r _ P.9.`.eXwXlXBXbXBXkXqXwXkXkXkXkXkXkXkXkXkXkXkXkXwXqXkXzXU GXGXGXGXGXGXGXGXGXGXGXGXGXGXGX",
"GXGX&X;X:.) d.S - p Z h C g S &. .9.n.n.n.-.4XVXVX5XC.A.C.kXAXBXqX5X5X9X9XqX5XqX5XqX5XqXBXAXkXC.u GXGXGXGXGXGXGXGXGXGXGXGXGXGXGX",
"GX  1XSXV.' A ` i : : 7 7 3 h.!.!.I.I.!.I.I.P.A.R.!.(.W.W.U.D._.VXAXAXCXVXVXVXAXVXVXVXBX_.A.^.U.y GXGXGXGXGXGXGXGXGXGXGXGXGXGXGX",
"GX  <XAXM.^ G D w.t i e.A A | 1.2.2.<.<.2.,.<.9.K.T.T.T.T.T.T.T.T.T.E.W.W.^.U.W.W.W.W.W.W.R.F.A.y GXGXGXGXGXGXGXGXGXGXGXGXGXGXGX",
"GX  <XSX3Xo.D 0.w.i t 0.e.A p.,.,.>.<.<.<.+.v.W._.`.`.`.`.`.`.`.(.`.W.T.E.E.E.R.E.!.R.R.R._.).M.a GXGXGXGXGXGXGXGXGXGXGXGXGXGXGX",
"GX  ,XSXBX3X/ D q.p * t @.p.p.<.<.<.<.<.1.:.9.`.VXAXVXAXAXAXVXAXAXAXxXT.U.!.!.Q.!.W.U.^.T.xXAXNXU GXGXGXGXGXGXGXGXGXGXGXGXGXGXGX",
"GXGXGX,XSX0X] +.s.i = t <.<.X.r.@.<.<.<.:.m.K.`.SXSXSXSXSXSXSXSXSXSXSXBX_.D.R.R.R.A.5XVXVXSXAXSXW GXGXGXGXGXGXGXGXGXGXGXGXGXGXGX",
"GXGXGXGX-XzXkX[ 0 e p t @.4.+.$.P.P.P.P.P.!.T.6XAXSXSXSXSXSXSXSXSXSXSXSXBXvXvXBXvXvXVXSXAXfX-X&X5 $ GXGXGXGXGXGXGXGXGXGXGXGXGXGX",
"GXGXGXGXGX:X;Xs.fX;Xr - f ..1.1.n.U.^.^.W.W.I.(.qXqXqXqXqXqXqXrXSXSXSXSXSXSXSXSXSXSXSXDX<X~ 0 0 ' +.` & GXGXGXGXGXGXGXGXGXGXGXGX",
"GXGXGXGXGXGX. W SX8X# p & %.4.1.:.9.P.^.^.^.^.!.;.;.;.;.G.F.C.E.wXwXvXSXSXSXSXSXSXSXSXSXC q a.g.3.4.<.` $ GXGXGXGXGXGXGXGXGXGXGX",
"GXGXGXGXGXGXGXY 1XjX2Xr ; f ..X.X.] f.N.k.k.B.m.c.,.c.c.m.P.!.(.F.Z.6XlXlXlXlXlXlXrXzX8Xz.V o.6.1.<.<.<.C 8 GXGXGXGXGXGXGXGXGXGX",
"GXGXGXGXGXGXi t @ 1XjX^ g = 1 0.D S G N V N e...+.O.+.] o.] f.L.Y.Y.B.7.7.7.7.7.*.S.%.q A G a.O.1.<.<.<.d.j o GXGXGXGXGXGXGXGXGX",
"GXGXGXGXGX2 g w.q.  q 5.e.p p D D D w.0.F w.G Z D F w.w.F F D B V B B B B B B B A V V Z Z A w.w.O.O.@.1.1.} 3 GXd k s GXGXGXGXGX",
"GXGXGXGX- A a.q.e.p f %.$ m e.r.q.r.q.A F e.C > Z F D B A A A S S S A A D k A A S S g - = g F A w.S p.@.+.a.p f <.5.o.= GXGXGXGX",
"GXGXGXGX= ..3.<.q.w.Z 1 , Z d.<.<.1.X.0.w.w.h - 2 1 1 1 7 2 1 1 1 6 1 1 1 1 1 6 6 1 2 > GX2 1 7 Z S S 0.0.p _ <.<.4...= GXGXGXGX",
"GXGXGXGX= ..4.<.0.F A A D O.<.<.1.1.1.@.q.i > > GXGXGXGXGXGXGXGXGXGXGXGXGXGXGXGXGXGXGXGXGXGXGXGX1 1 p F D ..1.1.1.1.o.= GXGXGXGX",
"GXGXGXGX= o.4.@.t Z w.q.+.<.<.<.2.2.1.1.p - - GXGXGXGXGXGXGXGXGXGXGXGXGXGXGXGXGXGXGXGXGXGXGXGXGXGXGXGXi D #.1.1.1.' 6 GXGXGXGXGX",
"GXGXGXGXGXs f s - h w.q.<.1.<.1.3.d.` s GXGXGXGXGXGXGXGXGXGXGXGXGXGXGXGXGXGXGXGXGXGXGXGXGXGXGXGXGXGXGXGX7 0.a.r.k 7 GXGXGXGXGXGX",
"GXGXGXGXGXGXGXGXGXt C q.a.a.a.p.` p ; GXGXGXGXGXGXGXGXGXGXGXGXGXGXGXGXGXGXGXGXGXGXGXGXGXGXGXGXGXGXGXGXGXGX8 m 7 GXGXGXGXGXGXGXGX",
"GXGXGXGXGXGXGXGXGXGX7 p p i i i GXGXGXGXGXGXGXGXGXGXGXGXGXGXGXGXGXGXGXGXGXGXGXGXGXGXGXGXGXGXGXGXGXGXGXGXGXGXGXGXGXGXGXGXGXGXGXGX",
"GXGXGXGXGXGXGXGXGXGXGXGXGXGXGXGXGXGXGXGXGXGXGXGXGXGXGXGXGXGXGXGXGXGXGXGXGXGXGXGXGXGXGXGXGXGXGXGXGXGXGXGXGXGXGXGXGXGXGXGXGXGXGXGX",
"GXGXGXGXGXGXGXGXGXGXGXGXGXGXGXGXGXGXGXGXGXGXGXGXGXGXGXGXGXGXGXGXGXGXGXGXGXGXGXGXGXGXGXGXGXGXGXGXGXGXGXGXGXGXGXGXGXGXGXGXGXGXGXGX",
"GXGXGXGXGXGXGXGXGXGXGXGXGXGXGXGXGXGXGXGXGXGXGXGXGXGXGXGXGXGXGXGXGXGXGXGXGXGXGXGXGXGXGXGXGXGXGXGXGXGXGXGXGXGXGXGXGXGXGXGXGXGXGXGX",
"GXGXGXGXGXGXGXGXGXGXGXGXGXGXGXGXGXGXGXGXGXGXGXGXGXGXGXGXGXGXGXGXGXGXGXGXGXGXGXGXGXGXGXGXGXGXGXGXGXGXGXGXGXGXGXGXGXGXGXGXGXGXGXGX",
"GXGXGXGXGXGXGXGXGXGXGXGXGXGXGXGXGXGXGXGXGXGXGXGXGXGXGXGXGXGXGXGXGXGXGXGXGXGXGXGXGXGXGXGXGXGXGXGXGXGXGXGXGXGXGXGXGXGXGXGXGXGXGXGX",
"GXGXGXGXGXGXGXGXGXGXGXGXGXGXGXGXGXGXGXGXGXGXGXGXGXGXGXGXGXGXGXGXGXGXGXGXGXGXGXGXGXGXGXGXGXGXGXGXGXGXGXGXGXGXGXGXGXGXGXGXGXGXGXGX"
};
