/* XPM */
static char *result[] = {
/* columns rows colors chars-per-pixel */
"64 62 229 2 ",
"   c #000000",
".  c #060007",
"X  c #000015",
"o  c #00001B",
"O  c #180C08",
"+  c #2C0000",
"@  c #260000",
"#  c #2D1600",
"$  c #300B0E",
"%  c #2F221B",
"&  c #32261F",
"*  c #000023",
"=  c #000029",
"-  c #000133",
";  c #000938",
":  c #00163B",
">  c #041A36",
",  c #311A27",
"<  c #2C1122",
"1  c #0F253C",
"2  c #05263E",
"3  c #18263D",
"4  c #312C29",
"5  c #21283E",
"6  c #292B3C",
"7  c #312F32",
"8  c #332D38",
"9  c #32323C",
"0  c #393539",
"q  c #292426",
"w  c #4B3838",
"e  c #4F3432",
"r  c #421D2C",
"t  c #644530",
"y  c #072742",
"u  c #1B2D45",
"i  c #0C315E",
"p  c #0E3352",
"a  c #0C304A",
"s  c #252E41",
"d  c #293143",
"f  c #323443",
"g  c #333748",
"h  c #363949",
"j  c #393B4A",
"k  c #383845",
"l  c #373C53",
"z  c #0F3A69",
"x  c #343B69",
"c  c #4C3C49",
"v  c #6F3747",
"b  c #0C415A",
"n  c #3F414D",
"m  c #36425B",
"M  c #384051",
"N  c #29495C",
"B  c #0D446D",
"V  c #35426E",
"C  c #354967",
"Z  c #3B5367",
"A  c #344A72",
"S  c #3A5276",
"D  c #2A4974",
"F  c #3C6278",
"G  c #5A484A",
"H  c #474954",
"J  c #594D53",
"K  c #5C5154",
"L  c #5C5658",
"P  c #49434D",
"I  c #664C48",
"U  c #6A504B",
"Y  c #665148",
"T  c #6B5253",
"R  c #665559",
"E  c #75585C",
"W  c #754C51",
"Q  c #50576A",
"!  c #43687D",
"~  c #576470",
"^  c #656469",
"/  c #7C6761",
"(  c #76767B",
")  c #6B6C73",
"_  c #875B58",
"`  c #836864",
"'  c #8C736A",
"]  c #8D786C",
"[  c #93756B",
"{  c #8E716F",
"}  c #A9766E",
"|  c #AB7A71",
" . c #A77872",
".. c #B27B71",
"X. c #9F8274",
"o. c #AB8B7B",
"O. c #A78776",
"+. c #B5897A",
"@. c #B7917F",
"#. c #C38578",
"$. c #D98C7E",
"%. c #D39F7E",
"&. c #3A5A85",
"*. c #265285",
"=. c #386887",
"-. c #3E6394",
";. c #346FB3",
":. c #436986",
">. c #426795",
",. c #497690",
"<. c #787D84",
"1. c #467BB5",
"2. c #446FA8",
"3. c #6079A7",
"4. c #2F7ECD",
"5. c #0070C9",
"6. c #4C7FC5",
"7. c #3E819C",
"8. c #3E87A3",
"9. c #498097",
"0. c #50869E",
"q. c #7C8088",
"w. c #4687A4",
"e. c #4A81BF",
"r. c #5491AA",
"t. c #5CA2BF",
"y. c #2B95D1",
"u. c #369CD8",
"i. c #2D8CD1",
"p. c #2A95CB",
"a. c #4D87CB",
"s. c #538CD1",
"d. c #5597D6",
"f. c #4D92D6",
"g. c #5CA9C6",
"h. c #44ABDB",
"j. c #5AA4DA",
"k. c #5BA9DE",
"l. c #5BA2D4",
"z. c #4BB2DE",
"x. c #51ADCF",
"c. c #63ABDB",
"v. c #65B2DE",
"b. c #61B6D6",
"n. c #5DACE1",
"m. c #4CB9E4",
"M. c #53BDE4",
"N. c #57B4E4",
"B. c #65BBE6",
"V. c #66ADE1",
"C. c #4EC3E9",
"Z. c #4BC0E7",
"A. c #54C4EA",
"S. c #56C3E9",
"D. c #55CBF3",
"F. c #4ECBF3",
"G. c #6DCBEB",
"H. c #6BC3E6",
"J. c #71CAEC",
"K. c #70C7E9",
"L. c #65CEF3",
"P. c #6FD4F7",
"I. c #73D2F4",
"U. c #73D9FD",
"Y. c #72CFF1",
"T. c #959599",
"R. c #878A8F",
"E. c #BA9683",
"W. c #9C9DA3",
"Q. c #A2A5AA",
"!. c #A6AAAD",
"~. c #AAADB4",
"^. c #ACB5BA",
"/. c #B9BABC",
"(. c #AFA19A",
"). c #D88F80",
"_. c #C39C88",
"`. c #DC9484",
"'. c #D69886",
"]. c #E49887",
"[. c #E59C8A",
"{. c #EA9E8B",
"}. c #E49687",
"|. c #CCA38D",
" X c #C7A08B",
".X c #D5AA92",
"XX c #D5A991",
"oX c #E7A28E",
"OX c #ECA18E",
"+X c #E9A691",
"@X c #ECAB94",
"#X c #E5A792",
"$X c #F3A591",
"%X c #E3B69B",
"&X c #EEB39A",
"*X c #E6B598",
"=X c #F2B59C",
"-X c #F3B99F",
";X c #F0A38F",
":X c #ECBDA1",
">X c #F5BDA2",
",X c #FCBCA1",
"<X c #F5C2A5",
"1X c #F9C3A6",
"2X c #FAC6A8",
"3X c #FDCBAC",
"4X c #F6C5A8",
"5X c #FFD0AF",
"6X c #FECFB0",
"7X c #FFD3B3",
"8X c #FFD9B7",
"9X c #FEDABB",
"0X c #FED7B9",
"qX c #BDC1C5",
"wX c #D0D0D1",
"eX c #FFE4C7",
"rX c #DFDFE0",
"tX c #EAEAEB",
"yX c #E4E6E7",
"uX c #F4F0EF",
"iX c #EEF6FB",
"pX c #EAF2F6",
"aX c #F4F2F3",
"sX c #F2F5FA",
"dX c #F4FAFD",
"fX c #FCFEFE",
"gX c #F9F6F8",
"hX c #EEEEF2",
"jX c None",
/* pixels */
"jXjXjXjXjXjXjXjXjXjXjXjXjXjXjXjXjXjXjXjXjXjXjXjXjX( ( <.jXjXjXjXjXjXjXjXjXjXjXjXjXjXjXjXjXjXjXjXjXjXjXjXjXjXjXjXjXjXjXjXjXjXjXjX",
"jXjXjXjXjXjXjXjXjXjXjXjXjXjXjXjXjXjXjXjXjXjXjX> ^ fXfXfXT.  jXjXjXjXjXjXjXjXjXjXjXjXjXjXjXjXjXjXjXjXjXjXjXjXjXjXjXjXjXjXjXjXjXjX",
"jXjXjXjXjXjXjXjXjXjXjXjXjXjXjXjXjXjXjXjXjXjXjX6 ^ fXfXfXT.X jXjXjXjXjXjXjXjXjXjXjXjXjXjXjXjXjXjXjXjXjXjXjXjXjXjXjXjXjXjXjXjXjXjX",
"jXjXjXjXjXjXjXjXjXjXjXjXjXjXjXjXjXjXjXjXj *     = T.T.T.j       j jXjXjXjXjXjXjXjXjXjXjXjXjXjXjXjXjXjXjXjXjXjXjXjXjXjXjXjXjXjXjX",
"jXjXjXjXjXjXjXjXjXjXjXjXjXjXjXjXjXjXjXjX  Q.fXtXtXrXyXrXyXyXfXwX  jXjXjXjXjXjXjXjXjXjXjXjXjXjXjXjXjXjXjXjXjXjXjXjXjXjXjXjXjXjXjX",
"jXjXjXjXjXjXjXjXjXjXjXjXjXjXjXjXjXjXjXjXf H ) gX/.fXfXfXfXQ.R.H f jXjXjXjXjXjXjXjXjXjXjXjXjXjXjXjXjXjXjXjXjXjXjXjXjXjXjXjXjXjXjX",
"jXjXjXjXjXjXjXjXjXjXjXjXjXjXjXjXjXjXjXjXH   /.aXtXtXtXtXyXaXwX  P jXjXjXjXjXjXjXjXjXjXjXjXjXjXjXjXjXjXjXjXjXjXjXjXjXjXjXjXjXjXjX",
"jXjXjXjXjXjXjXjXjXjXjXjXjXjXjXjXjXjXjXjXjXn                   P jXjXjXjXjXjXjXjXjXjXjXjXjXjXjXjXjXjXjXjXjXjXjXjXjXjXjXjXjXjXjXjX",
"jXjXjXjXjXjXjXjXjXjXjXjXjXjXjXjXjXjXjXjXjXjXjXjXjXjXjXjXjXjXjXjXjXjXjXjXjXjXjXjXjXjXjXjXjXjXjXjXjXjXjXjXjXjXjXjXjXjXjXjXjXjXjXjX",
"jXjXjXjXjXjXjXjXjXjXjXjXjXjXjXjXjXjXjXs d s 3 5 3 5 5 5 5 5 5 5 s s d s d jXjXjXjXjXjXjXjXjXjXjXjXjXjXjXjXjXjXjXjXjXjXjXjXjXjXjX",
"jXjXjXjXjXjXjXjXjXjXjXjXjXjXjXjXjXk P '.OX[.@XOX+XOXoX+XoXoXoX[.>X3X3X2X7X+.2 jXjXjXjXjXjXjXjXjXjXjXjXjXjXjXjXjXjXjXjXjXjXjXjXjX",
"jXjXjXjXjXjXjXjXjXjXjXjXjXjXjXjXjX- #.;X`.@X1X2X1X3X5X3X3X5X3X3X7X6X7X7X0X7X/ - jXjXjXjXjXjXjXjXjXjXjXjXjXjXjXjXjXjXjXjXjXjXjXjX",
"jXjXjXjXjXjXjXjXjXjXjXjXjXjXjXjX2 E $.oX-X@X+X1X=X3X3X3X3X3X2X2X0X6X9XeX0X7X_.f jXjXjXjXjXjXjXjXjXjXjXjXjXjXjXjXjXjXjXjXjXjXjXjX",
"jXjXjXjXjXjXjXjXjXjXjXjXjXjXjXjX; +.;X`.-X7X3X3X3X3X3X3X3X3X3X3X2X3X0XeX6X7X0XK 1 jXjXjXjXjXjXjXjXjXjXjXjXjXjXjXjXjXjXjXjXjXjXjX",
"jXjXjXjXjXjXjXjXjXjXjXjXjXjXjXjX: ..[.[.>X3X3X3X2X3X3X3X3X3X3X3X3X3XeXeX0X9X0XG y jXjXjXjXjXjXjXjXjXjXjXjXjXjXjXjXjXjXjXjXjXjXjX",
"jXjXjXjXjXjXjXjXjXjXjXjXjXjXjXjX: ..OX[.3X3X3X3X3X3X2X3X2X2X1X2X1X3X3X3X3X3X6XJ 1 jXjXjXjXjXjXjXjXjXjXjXjXjXjXjXjXjXjXjXjXjXjXjX",
"jXjXjXjXjXjXjXjXjXjXjXjXjXjXjXjX: ..{.[.3X3X3X3X3X3X3X3X&X2X@X@X+X1X3X3X3X3X3XK 1 jXjXjXjXjXjXjXjXjXjXjXjXjXjXjXjXjXjXjXjXjXjXjX",
"jXjXjXjXjXjXjXjXjXjXjXjXjXjXjXjX: ..OX`.-X3X3X3X1X3X3X3X1X-X>X>X>X>X>X>X3X3X3XK 1 jXjXjXjXjXjXjXjXjXjXjXjXjXjXjXjXjXjXjXjXjXjXjX",
"jXjXjXjXjXjXjXjXjXjXjXjXjXjXjXjX: ..{.=X<X3X2X3X3X3X3X5X[.$.$.$.).}.$.oX3X3X3XK 1 jXjXjXjXjXjXjXjXjXjXjXjXjXjXjXjXjXjXjXjXjXjXjX",
"jXjXjXjXjXjXjXjXjXjXjXjXjXjXjXjX: +.;X@X+X=X3X3X3X3X3X3X1X1X1X1X>X>X<X2X3X3X3XJ 1 jXjXjXjXjXjXjXjXjXjXjXjXjXjXjXjXjXjXjXjXjXjXjX",
"jXjXjXjXjXjXjXjXjXjXjXjXjXjXjXjXu 3 8 c 1X2X3X3X3X3X2X4X3X7X'._.9Xo.+X5X2X2X3XK 1 jXjXjXjXjXjXjXjXjXjXjXjXjXjXjXjXjXjXjXjXjXjXjX",
"jXjXjXjXjXjXjXZ ,.! ! :.S x x s G ' ' ] 3X3X3X3X2X7XXX  %X3X%X%.*XXX*X7X|.  :XE 2 m S x ! F jXjXjXjXjXjXjXjXjXjXjXjXjXjXjXjXjXjX",
"jXjXjXjXjXjXZ b.P.G.P.P.H.n.v.= +.3XXX1X3X3X3X3X3X3X'.v :X<XN qX~ T.L 7X.Xv #XR . >.f.k.P.H.! 9 jXjXjXjXjXjXjXjXjXjXjXjXjXjXjXjX",
"jXjXjXjXjX+ ,.U.H.H.k.H.d.v.c.* E.E.  $.-X3X3X2X3X4X=X>X4X<X^ rXX.~.( 3X2X,X=XH # -.a.l.k.I.t.+ jXjXjXjXjXjXjXjXjXjXjXjXjXjXjXjX",
"jXjXjXjX, Z z.S.S.S.m.M.m.i.;.- E._.X `.,X6X3X3X3X3X3X3X6X4X*       G 3X3X3X6XK O 2.M.h.z.S.M.=.$ jXjXjXjXjXjXjXjXjXjXjXjXjXjXjX",
"jXjXjXjXX <.fXdXfXdXfXdXdXfXhX  O.,XW '.@X+X>X6X3X3X3X3X3X-X<.sXyXpX) 2X3X3X6XL   ^.fXdXfXdXfXQ.  jXjXjXjXjXjXjXjXjXjXjXjXjXjXjX",
"jXjXjXjXX <.fXsXdXsXdXiXpXpXtXB { '.).).oX>X<X,X,X2X<X3X3X<XI E E T _ 3X3X1X,XL * ^.gXpXsXiXfXQ.  jXjXjXjXjXjXjXjXjXjXjXjXjXjXjX",
"jXjXjXjX< F F.C.C.C.Z.D.h.y.u.d.;.  y ; [.&XoX+X&X1X-X7X3X3X=X=X=X=X>X6X3X1X{.e D f.y.A.A.Z.F.7.+ jXjXjXjXjXjXjXjXjXjXjXjXjXjXjX",
"jXjXjXjX, ! J.J.G.J.J.J.J.I.v.a.1.Q s } oX>X+X@X>X&X-X=X&X&X-X=X&X-X-X=X=XXX| c 2.d.K.v.K.K.I.0.+ jXjXjXjXjXjXjXjXjXjXjXjXjXjXjX",
"jXjXjXjX, F D.A.A.A.A.S.C.A.h.a.f.>.  oXOX}.{.}.].[.}.[.}.}.].oX].].].].$X_   Z m.h.m.z.m.A.D.9.+ jXjXjXjXjXjXjXjXjXjXjXjXjXjXjX",
"jXjXjXjXX <.fXdXdXdXdXdXdXfXdXm -.a.6.R I I I I U U U T T T T T T T W U t 3.A ^ fXdXdXdXdXdXfXQ.  jXjXjXjXjXjXjXjXjXjXjXjXjXjXjX",
"jXjXjXjXo ( gXuXaXuXaXuXuXaXtX# -.f.a.z i i i i i i i p a 1 2 2 a a p z ; ;.D L aXuXaXaXuXaXfXW.  jXjXjXjXjXjXjXjXjXjXjXjXjXjXjX",
"jXjXjXjXg 9                   q &.f.l.j.k.j.j.j.j.l.k.,.@ M 9 M 4 + d.j.k.l.A q               5 k jXjXjXjXjXjXjXjXjXjXjXjXjXjXjX",
"jXjXjXjXjX3 E ..} +.| | | | | % :.s.l.L.V.Y.J.G.G.J.I.g.r.7 M + :.t.G.Y.H.d.A w | } | } | +.` a jXjXjXjXjXjXjXjXjXjXjXjXjXjXjXjX",
"jXjXjXjXjX> ' $X{.| [.{.OXOX[.4 *.u.h.Z.h.C.C.C.C.A.Z.L.P.u.+ =.C.D.C.A.m.y.B G $XOX{.$X}.#.#.; jXjXjXjXjXjXjXjXjXjXjXjXjXjXjXjX",
"jXjXjXjXjX= o.E.|./ >X1X+X=X#X  W.dXiXdXdXdXsXsXsXiXfX^.b pX  ~.fXaXsXsXiXdXq.r ].+X2X' |.' '.o jXjXjXjXjXjXjXjXjXjXjXjXjXjXjXjX",
"jXjXjXjXjX= E.|..X3X3X1XoX@XoX  W.fXgXfXdXfXdXfXdXdXfXdXiXiX  !.fXsXfXdXdXfXq.r oXoX3XO.%XE.%Xy jXjXjXjXjXjXjXjXjXjXjXjXjXjXjXjX",
"jXjXjXjXjX- O.4X<X3X3X3X3X1X`.% *.i.S.A.S.A.S.A.S.S.D.x.t.M.+ w.D.S.m.M.z.u.B w {.3X>X3X2X:X3X[ - jXjXjXjXjXjXjXjXjXjXjXjXjXjXjX",
"jXjXjXjXjXX O.E._.8X2X3X3X=X&X4 &.V.v.K.G.J.J.G.J.G.Y.g.,.K.@ r.I.K.b.H.j.d.V I =X>X-X5X%X/  X  jXjXjXjXjXjXjXjXjXjXjXjXjXjXjXjX",
"jXjXjXjX> J 2XO.|. X1X3X3X3X&X% *.5.y.C.C.C.C.C.C.C.m.L.U.m.@ 8.D.C.F.C.m.p.z G >X3X7XE.:X%X2X' - jXjXjXjXjXjXjXjXjXjXjXjXjXjXjX",
"jXjXjXjXjXu _.4X2XR 2X3X3X3X>X  W.dXiXiXiXiXiXiXsXpXfX^.b yX  !.fXpXsXiXpXdX<.e 2X2X7XR <X8X.XP jXjXjXjXjXjXjXjXjXjXjXjXjXjXjXjX",
"jXjXjXjXjX- _.E.|.6X3X3X3X3X3X  Q.fXfXfXfXfXfXfXfXfXfXsXiXiX  ~.fXdXfXfXgXgXq.w 6X3X3X3X%XX.XXX jXjXjXjXjXjXjXjXjXjXjXjXjXjXjXjX",
"jXjXjXjX: R 3X_..X7X2X3X2X2X4Xq &.4.h.N.z.M.M.S.S.S.D.x.x.M.+ 9.D.S.S.N.h.4.B Y 3X2X2X3X%XE..X= jXjXjXjXjXjXjXjXjXjXjXjXjXjXjXjX",
"jXjXjXjXjX* ' 7X3X3X3X3X7X7X7X% &.f.d.a.v.B.B.Y.G.G.I.g.9.H.@ r.I.G.G.d.a.f.D Y 8X7X3X3X2X8X X= jXjXjXjXjXjXjXjXjXjXjXjXjXjXjXjX",
"jXjXjXjXjX- o.9X3X3X3X%XO.o.o.% -.a.l.d.n.k.n.k.k.k.k.N.B.j.@ 2.N.k.n.k.f.f.D w @.X.%X7X2X9X|.- jXjXjXjXjXjXjXjXjXjXjXjXjXjXjXjX",
"jXjXjXjXjXjXjX` %X3X7XXX  ; = f 9 e.-.C V V V A V V V V x V 9 l V V V V S S l 6 ;   |.7X4X' ` jXjXjXjXjXjXjXjXjXjXjXjXjXjXjXjXjX",
"jXjXjXjXjXjXjX. .X3X<X<X4X[ 2 7 S e.e.1.m a.S # 9 7 7 7 7 7 f 9 7 7 2.C e.1.C w ; o.2X2X:X= jXjXjXjXjXjXjXjXjXjXjXjXjXjXjXjXjXjX",
"jXjXjXjXjXjXjXjXu u u d h h jX7 C &.S M f g h h g f f g f f f f k g g k 9 S m 9 jXn s u 3 jXjXjXjXjXjXjXjXjXjXjXjXjXjXjXjXjXjXjX",
"jXjXjXjXjXjXjXjXjXk k f f f jX4 S 1.1.l 9 f f f f f f f 9 f f f f f f g % -.S 4 jXf f k f jXjXjXjXjXjXjXjXjXjXjXjXjXjXjXjXjXjXjX",
"jXjXjXjXjXjXjXjXjXjXjXjXjXjXjXg 7 # # 9 f f f f f f f f f f f f f f f f g % 8 f jXjXjXjXjXjXjXjXjXjXjXjXjXjXjXjXjXjXjXjXjXjXjXjX",
"jXjXjXjXjXjXjXjXjXjXjXjXjXjXjXf f g h f f f f f f f f f f f f f f f f f f g h f jXjXjXjXjXjXjXjXjXjXjXjXjXjXjXjXjXjXjXjXjXjXjXjX",
"jXjXjXjXjXjXjXjXjXjXjXjXjXjXjXf f f f f f f f f f f f f f f f f f f f f f f f f f jXjXjXjXjXjXjXjXjXjXjXjXjXjXjXjXjXjXjXjXjXjXjX",
"jXjXjXjXjXjXjXjXjXjXjXjXjXjXjXf f f f f f f f h f f h h h h h h f f f f f f f 9 j f jXjXjXjXjXjXjXjXjXjXjXjXjXjXjXjXjXjXjXjXjXjX",
"jXjXjXjXjXjXjXjXjXjXjXjXjXjXf f f f f f f f f f f f f f f f f f f f h f f f f f j f jXjXjXjXjXjXjXjXjXjXjXjXjXjXjXjXjXjXjXjXjXjX",
"jXjXjXjXjXjXjXjXjXjXjXjXjXjXf f f f f f f l jXjXjXjXjXjXjXjXjXjXjXjXf f f f f f h f jXjXjXjXjXjXjXjXjXjXjXjXjXjXjXjXjXjXjXjXjXjX",
"jXjXjXjXjXjXjXjXjXjXjXjXjXf h f f f f f j f jXjXjXjXjXjXjXjXjXjXjXjXjXjXh f f f j f jXjXjXjXjXjXjXjXjXjXjXjXjXjXjXjXjXjXjXjXjXjX",
"jXjXjXjXjXjXjXjXjXjXjXjXjXf f f f f f f jXjXjXjXjXjXjXjXjXjXjXjXjXjXjXjXf j f h f jXjXjXjXjXjXjXjXjXjXjXjXjXjXjXjXjXjXjXjXjXjXjX",
"jXjXjXjXjXjXjXjXjXjXjXjXjXjXjXjXjXjXjXjXjXjXjXjXjXjXjXjXjXjXjXjXjXjXjXjXjXf f f jXjXjXjXjXjXjXjXjXjXjXjXjXjXjXjXjXjXjXjXjXjXjXjX",
"jXjXjXjXjXjXjXjXjXjXjXjXjXjXjXjXjXjXjXjXjXjXjXjXjXjXjXjXjXjXjXjXjXjXjXjXjXjXjXjXjXjXjXjXjXjXjXjXjXjXjXjXjXjXjXjXjXjXjXjXjXjXjXjX",
"jXjXjXjXjXjXjXjXjXjXjXjXjXjXjXjXjXjXjXjXjXjXjXjXjXjXjXjXjXjXjXjXjXjXjXjXjXjXjXjXjXjXjXjXjXjXjXjXjXjXjXjXjXjXjXjXjXjXjXjXjXjXjXjX",
"jXjXjXjXjXjXjXjXjXjXjXjXjXjXjXjXjXjXjXjXjXjXjXjXjXjXjXjXjXjXjXjXjXjXjXjXjXjXjXjXjXjXjXjXjXjXjXjXjXjXjXjXjXjXjXjXjXjXjXjXjXjXjXjX",
"jXjXjXjXjXjXjXjXjXjXjXjXjXjXjXjXjXjXjXjXjXjXjXjXjXjXjXjXjXjXjXjXjXjXjXjXjXjXjXjXjXjXjXjXjXjXjXjXjXjXjXjXjXjXjXjXjXjXjXjXjXjXjXjX"
};
