/* XPM */
static char *result[] = {
/* columns rows colors chars-per-pixel */
"64 62 223 2 ",
"   c #000000",
".  c #000009",
"X  c #000013",
"o  c #00001C",
"O  c #130B08",
"+  c #250000",
"@  c #2A0100",
"#  c #2F000C",
"$  c #310000",
"%  c #2E1904",
"&  c #33110E",
"*  c #2F221A",
"=  c #3D2D19",
"-  c #000026",
";  c #00002C",
":  c #010A2C",
">  c #000033",
",  c #000737",
"<  c #00163B",
"1  c #001B3C",
"2  c #051535",
"3  c #0D1630",
"4  c #3B0024",
"5  c #3D0129",
"6  c #2D1625",
"7  c #311723",
"8  c #0F253C",
"9  c #04263E",
"0  c #182332",
"q  c #312925",
"w  c #3E352E",
"e  c #2A2938",
"r  c #312C34",
"t  c #332F38",
"y  c #32323D",
"u  c #3F3634",
"i  c #2A2525",
"p  c #433738",
"a  c #553E3B",
"s  c #47282C",
"d  c #773337",
"f  c #000941",
"g  c #082B45",
"h  c #172A41",
"j  c #2D3645",
"k  c #323443",
"l  c #36394A",
"z  c #393C4B",
"x  c #333649",
"c  c #323353",
"v  c #33395A",
"b  c #2B2D49",
"n  c #173A6B",
"m  c #403C47",
"M  c #413E48",
"N  c #583F4B",
"B  c #374156",
"V  c #0F426E",
"C  c #294667",
"Z  c #374868",
"A  c #294A74",
"S  c #324A7C",
"D  c #374C71",
"F  c #3A5378",
"G  c #376379",
"H  c #5B474B",
"J  c #484857",
"K  c #574D53",
"L  c #5C5054",
"P  c #5A565C",
"I  c #6B5C5A",
"U  c #655657",
"Y  c #64504E",
"T  c #4D5B6E",
"R  c #43667B",
"E  c #676567",
"W  c #716F74",
"Q  c #79625E",
"!  c #93655F",
"~  c #856A65",
"^  c #976662",
"/  c #8C7369",
"(  c #99776E",
")  c #B17B71",
"_  c #87575A",
"`  c #AD8B7B",
"'  c #A58677",
"]  c #BA877A",
"[  c #AF8D7A",
"{  c #9E8274",
"}  c #C3897E",
"|  c #C6877A",
" . c #CB8D76",
".. c #1B5386",
"X. c #3B5A87",
"o. c #374C87",
"O. c #007C9E",
"+. c #3C608C",
"@. c #3E6291",
"#. c #3872AF",
"$. c #436A98",
"%. c #4A7B96",
"&. c #436C8C",
"*. c #757A84",
"=. c #747181",
"-. c #4573AA",
";. c #487BB7",
":. c #4A73A7",
">. c #405388",
",. c #0075CA",
"<. c #3D7ECD",
"1. c #0081A3",
"2. c #3B86A3",
"3. c #39809C",
"4. c #4A839C",
"5. c #7D8186",
"6. c #4D88A3",
"7. c #528DA7",
"8. c #5B99B3",
"9. c #4980BE",
"0. c #0D95D5",
"q. c #2497D2",
"w. c #33A9DC",
"e. c #2CA5D2",
"r. c #3DB5E2",
"t. c #4B86C9",
"y. c #5685C7",
"u. c #4F8DD2",
"i. c #488AD1",
"p. c #559BD3",
"a. c #5798D7",
"s. c #5093D1",
"d. c #59A9C7",
"f. c #58A5D9",
"g. c #4AB2DD",
"h. c #61A8DB",
"j. c #65B5D7",
"k. c #66B2CF",
"l. c #5DAEE2",
"z. c #43BFE6",
"x. c #5EB5E3",
"c. c #64BCE3",
"v. c #65B9E6",
"b. c #45C2EA",
"n. c #47C3EA",
"m. c #46C9F2",
"M. c #5ACAF0",
"N. c #63C3E5",
"B. c #6CC2E6",
"V. c #64C6EA",
"C. c #6CC6E9",
"Z. c #6CCAEB",
"A. c #63CAED",
"S. c #70CBEC",
"D. c #69CDF2",
"F. c #71CDF1",
"G. c #6DD4F8",
"H. c #72D4F6",
"J. c #72D0EF",
"K. c #86878B",
"L. c #8B8D92",
"P. c #949599",
"I. c #B69381",
"U. c #969BA3",
"Y. c #9DA7B2",
"T. c #A9A9AC",
"R. c #AEAEB1",
"E. c #B6B6B7",
"W. c #C98D81",
"Q. c #C59C86",
"!. c #DE9585",
"~. c #D99888",
"^. c #DC8F81",
"/. c #E49C8B",
"(. c #E69A89",
"). c #CCA48D",
"_. c #C7A08B",
"`. c #D4AA92",
"'. c #DAAE95",
"]. c #DEB298",
"[. c #CDA790",
"{. c #E6A28E",
"}. c #EBA28E",
"|. c #EBA591",
" X c #ECAC95",
".X c #E5A791",
"XX c #E4B69C",
"oX c #EEB199",
"OX c #EBBA9E",
"+X c #F2B59C",
"@X c #F3B99E",
"#X c #F3AB95",
"$X c #EDBEA1",
"%X c #F5BDA1",
"&X c #FABFA3",
"*X c #F4C2A4",
"=X c #FCC2A6",
"-X c #F7C5A8",
";X c #FBC7A8",
":X c #FDCBAC",
">X c #FFD0AF",
",X c #FECFB0",
"<X c #FFD3B3",
"1X c #FFDBBB",
"2X c #FED7B7",
"3X c #C0BFC0",
"4X c #C9C8C9",
"5X c #DDDBDB",
"6X c #D5D5D6",
"7X c #FFE3C6",
"8X c #D9DCE5",
"9X c #E1DFE0",
"0X c #DBECF6",
"qX c #DCF0FA",
"wX c #E6E7E8",
"eX c #E3EBF5",
"rX c #E5F3FA",
"tX c #EAF5FD",
"yX c #EBFBFF",
"uX c #E8F5FA",
"iX c #FFFFFF",
"pX c #F3F6F6",
"aX c None",
/* pixels */
"aXaXaXaXaXaXaXaXaXaXaXaXaXaXaXaXaXaXaXaXaXaXaXaXaXaXaXaXaXaXaXaXaXaXaXaXaXaXaXaXaXaXaXaXaXaXaXaXaXaXaXaXaXaXaXaXaXaXaXaXaXaXaXaX",
"aXaXaXaXaXaXaXaXaXaXaXaXaXaXaXaXaXaXaXaXaXaXaXaXaXaXaXaXaXaXaXaXaXaXaXaXaXaXaXaXaXaXaXaXaXaXaXaXaXaXaXaXaXaXaXaXaXaXaXaXaXaXaXaX",
"aXaXaXaXaXaXaXaXaXaXaXaXaXaXaXaXaXaXaXaXaXaXaXaXaXaXaXaXaXaXaXaXaXaXaXaX  aXaXaXaXaXaXaXaXaXaXaXaXaXaXaXaXaXaXaXaXaXaXaXaXaXaXaX",
"aXaXaXaXaXaXaXaXaXaXaXaXaXaXaXaXaXaXaXaXaXaXaXaXaXaXaXaXaXaXaXaXaXaX  K.pX5XwXP aXaXaXaXaXaXaXaXaXaXaXaXaXaXaXaXaXaXaXaXaXaXaXaX",
"aXaXaXaXaXaXaXaXaXaXaXaXaXaXaXaXaXaXaXaXaXaXaXaXaXaXaXaXaXaXaXaXaXaXX U.iXiXiXW e aXaXaXaXaXaXaXaXaXaXaXaXaXaXaXaXaXaXaXaXaXaXaX",
"aXaXaXaXaXaXaXaXaXaXaXaXaXaXaXaXaXaXaXaXaXaXaXaXaXaXaXaXaXaXaXaXaXaX  W wXwXwX3 . aXaXaXaXaXaXaXaXaXaXaXaXaXaXaXaXaXaXaXaXaXaXaX",
"aXaXaXaXaXaXaXaXaXaXaXaXaXaXaXaXaXaXaXaXaXaXaXaXaXaXaXaXaXaXaX, L.E.T.P.K.L.L.T.P.E.W 3 aXaXaXaXaXaXaXaXaXaXaXaXaXaXaXaXaXaXaXaX",
"aXaXaXaXaXaXaXaXaXaXaXaXaXaXaXaXaXaXaXaXaXaXaXaXaXaXaXaXaXaXaX  R.4X4XiXiXiXiX6XpX6XP.. aXaXaXaXaXaXaXaXaXaXaXaXaXaXaXaXaXaXaXaX",
"aXaXaXaXaXaXaXaXaXaXaXaXaXaXaXaXaXaXaXaXaXaXaXaXaXaXaXaXaXaXaXJ   R.5XiXiXiXiX6XiXK.  J aXaXaXaXaXaXaXaXaXaXaXaXaXaXaXaXaXaXaXaX",
"aXaXaXaXaXaXaXaXaXaXaXaXaXaXaXaXaXaXaXaXaXaXaXaXaXaXaXaXaXaXaX9 h L.P.5.5.5.5.P.L.5.1 aXaXaXaXaXaXaXaXaXaXaXaXaXaXaXaXaXaXaXaXaX",
"aXaXaXaXaXaXaXaXaXaXaXaXaXaXaXaXaXaXaXaXaXaXaXaXaXaXaXI U U I L N 4 @ 5 4 4 4 # # 5 H Y H aXaXaXaXaXaXaXaXaXaXaXaXaXaXaXaXaXaXaX",
"aXaXaXaXaXaXaXaXaXaXaXaXaXaXaXaXaXaXaXaXaXaXaXaXaXz ).<X:X:X,X&X|.#X XoX#X X X+XoX+X|.}.(.I k aXaXaXaXaXaXaXaXaXaXaXaXaXaXaXaXaX",
"aXaXaXaXaXaXaXaXaXaXaXaXaXaXaXaXaXaXaXaXaXaXaXaX> Q 2X<X2X2X,X<X:X>X:X:X:X>X:X@X;X%X|.^./.W.> aXaXaXaXaXaXaXaXaXaXaXaXaXaXaXaXaX",
"aXaXaXaXaXaXaXaXaXaXaXaXaXaXaXaXaXaXaXaXaXaXaXaXJ `.>X<X7X2X:X2X;X:X:X:X:X:X:X@X&XoX+X%X/.(.~ 1 aXaXaXaXaXaXaXaXaXaXaXaXaXaXaXaX",
"aXaXaXaXaXaXaXaXaXaXaXaXaXaXaXaXaXaXaXaXaXaXaX8 L 2X2X<X7X1X;X:X:X:X:X:X:X;X:X:X,X<X,X+X(.}.] < aXaXaXaXaXaXaXaXaXaXaXaXaXaXaXaX",
"aXaXaXaXaXaXaXaXaXaXaXaXaXaXaXaXaXaXaXaXaXaXaXh H <X2X2X7X7X:X:X:X:X:X:X:X:X:X:X;X;X;X;X/./.) 2 aXaXaXaXaXaXaXaXaXaXaXaXaXaXaXaX",
"aXaXaXaXaXaXaXaXaXaXaXaXaXaXaXaXaXaXaXaXaXaXaX8 L :X:X:X;X:X;X%X%X@X;X=X:X:X:X:X:X:X:X:X/.}.) < aXaXaXaXaXaXaXaXaXaXaXaXaXaXaXaX",
"aXaXaXaXaXaXaXaXaXaXaXaXaXaXaXaXaXaXaXaXaXaXaX8 L :X:X:X:X:X;X X+XoX;X@X:X:X;X:X:X:X:X:X/.}.) < aXaXaXaXaXaXaXaXaXaXaXaXaXaXaXaX",
"aXaXaXaXaXaXaXaXaXaXaXaXaXaXaXaXaXaXaXaXaXaXaX8 L :X:X:X%X X+X+X+X+X X@X:X:X:X:X:X:X:XoX!.}.) < aXaXaXaXaXaXaXaXaXaXaXaXaXaXaXaX",
"aXaXaXaXaXaXaXaXaXaXaXaXaXaXaXaXaXaXaXaXaXaXaX8 L :X:X:X{.!.(.^.(.(.!.{.:X;X:X:X:X;X:X=X%X}.) < aXaXaXaXaXaXaXaXaXaXaXaXaXaXaXaX",
"aXaXaXaXaXaXaXaXaXaXaXaXaXaXaXaXaXaXaXaXaXaXaX8 L :X,X:X:X*X$X;XOX*X;X;X:X:X:X:X;X:X+X{.{./.) 1 aXaXaXaXaXaXaXaXaXaXaXaXaXaXaXaX",
"aXaXaXaXaXaXaXaXaXaXaXaXaXaXaXaXaXaXaXaXaXaXaXh L ;XXX-X>X X[ 1X_.~.<X;XXX-X:X:X:X:X:X:X2 o - h aXaXaXaXaXaXaXaXaXaXaXaXaXaXaXaX",
"aXaXaXaXaXaXaXaXaXaXaXaXaXaXaXaXaXaX&.7.o.$.D 2 I $X  _.<X[._.Q. .[.:XXX  ).>X;X:X:X:X:X[ I.I.I h >.>.$.7.7.6.8.&.aXaXaXaXaXaXaX",
"aXaXaXaXaXaXaXaXaXaXaXaXaXaXaXaX7 4.Z.G.v.s.$.O U {.^ '.:XE Y.W 6XC *X*X^ ~.:X:X:X:X:X:X%XI.=XI.- v.v.D.H.H.G.G.B.R 6 aXaXaXaXaX",
"aXaXaXaXaXaXaXaXaXaXaXaXaXaXaXaX+ d.D.s.s.i.@.O K &X=X;X:XW L.E E.P $X>X=X%X;X:X:X:X:XoX .  I.[ o p.f.s.x.f.c.N.G.4.@ aXaXaXaXaX",
"aXaXaXaXaXaXaXaXaXaXaXaXaXaXaX@ 4.S.Z.B.v.C.6.  P ,X:X:X:XL J L y j *X:X:X:X:X:X:X;X;X=X/.X _.I.> y.a.v.C.B.Z.Z.Z.B.G 6 aXaXaXaX",
"aXaXaXaXaXaXaXaXaXaXaXaXaXaXaX  T.iXiXiXiXiXE.  U :X:X:X:XE wXwXuXW OX>X:X:X:X:X>X*X{.}.!.^ &X)   iXiXiXiXiXiXiXiXiX5.o aXaXaXaX",
"aXaXaXaXaXaXaXaXaXaXaXaXaXaXaX  U.uX0X0X0XeXY., L %X%X:X:X^ d d d _ *X:X:X%X;X@X@X@X%X{.| | | =...8X8X0XqXqXqXqX0XrXW o aXaXaXaX",
"aXaXaXaXaXaXaXaXaXaXaXaXaXaXaX$ 3.m.r.n.b.0.g.S s |.=X<X:X=X=X=X=X&X:X:X>X@X;X%X X{.@X{.; <   #.a.w.q.w.b.b.b.z.z.m.F 7 aXaXaXaX",
"aXaXaXaXaXaXaXaXaXaXaXaXaXaXaX@ 4.G.Z.C.j.S.u.#.J ~ Q.#X X X X XoX XoXoX XoXoXoX X|.+X}.| q >.t.t.f.H.D.C.Z.Z.Z.Z.Z.R 6 aXaXaXaX",
"aXaXaXaXaXaXaXaXaXaXaXaXaXaXaX@ 4.F.C.C.c.B.c.C.T   ^ }.!.!.!.(. .(.(.!.(.~.(. .!.~.!.{.~.X $.u.t.c.V.Z.C.Z.C.Z.N.Z.R 6 aXaXaXaX",
"aXaXaXaXaXaXaXaXaXaXaXaXaXaXaX  R.iXiXiXiXiXiXiXP A :.% p u z M M M p B u s p p w w w = B s.u.X.q iXiXiXiXiXiXiXiXiXK.. aXaXaXaX",
"aXaXaXaXaXaXaXaXaXaXaXaXaXaXaXX P.wX5X5X5X5X5X9XL S ;.C o.S l j y j j j C o.S S S S S A o.t.u.X.* 5X5X5X5X5X5X5X5XwXW : aXaXaXaX",
"aXaXaXaXaXaXaXaXaXaXaXaXaXaXaXz 3               0 D a.x.x.f.+ 6 x k l + %.x.l.l.l.x.x.v.x.a.u.+.*                   e aXaXaXaXaX",
"aXaXaXaXaXaXaXaXaXaXaXaXaXaXaXaXg ( W.} } } W.W.a A s.c.D.V.d.6.+ k k d.j.D.A.A.Z.Z.Z.f.V.s.i.+.* } } } } } } } W.~ 9 aXaXaXaXaX",
"aXaXaXaXaXaXaXaXaXaXaXaXaXaXaXaX> | ) !.|.}./.|.a C f.N.A.N.D.Z.%.@ j.M.A.C.V.V.V.V.A.c.V.c.l.o.q }.}.}.}.{.^ }.#X^ < aXaXaXaXaX",
"aXaXaXaXaXaXaXaXaXaXaXaXaXaXaXaX. )./ [.~ ,X|./.s 5.iXiXiXiXiXiXR.  pXI 3XiXiXiXiXiXiXiXiXiXiXY.  .XoX.X:X*X{ _.` I.- aXaXaXaXaX",
"aXaXaXaXaXaXaXaXaXaXaXaXaXaXaXaXK OX).XXI.;X|..Xs =.rXrXrXrX0XyXY.  0XyXyXrXrXrXrXrXrXrXeXeXeXU.  /.oX|.=X:X<X'.'.I.- aXaXaXaXaX",
"aXaXaXaXaXaXaXaXaXaXaXaXaXaXaX> ~ ;XXX*X;X%X-X/.a V 0.q.z.w.z.m.2.$ g.1.e.m.r.b.z.z.n.z.n.z.0...q !.&X:X:X:X:X$X$X` > aXaXaXaXaX",
"aXaXaXaXaXaXaXaXaXaXaXaXaXaXaXaX  ).Q XX,X%X%X%XH C f.v.C.j.C.H.7.@ B.8.k.S.S.Z.S.S.S.S.B.h.f.X.q OX%X:X;X;X2XQ.` ` o aXaXaXaXaX",
"aXaXaXaXaXaXaXaXaXaXaXaXaXaXaX> ( >X*X$X{ >X>X@Xa A i.x.A.A.V.D.6.@ N.M.A.V.A.V.N.V.V.V.V.f.<.X.*  X>X;X>X-X` `.` ,XU < aXaXaXaX",
"aXaXaXaXaXaXaXaXaXaXaXaXaXaXaXaX1 [.<X*X~ <X:X:Xp 5.iXiXiXiXiXiXR.  pXP 3XiXiXiXiXiXiXiXiXiXiXT.  -X:X:X:X-X~ -X:X` > aXaXaXaXaX",
"aXaXaXaXaXaXaXaXaXaXaXaXaXaXaXaXo `.~ XX<X;X:X:Xa W tXeXuXuXrXyXT.  rXyXuXuXuXuXrXuXrXrXtXrXpXU.  ;X:X:X:X:X<X_.' '.h aXaXaXaXaX",
"aXaXaXaXaXaXaXaXaXaXaXaXaXaXaXaX- [.`.*X:X:X;X:XY V ,.q.w.r.b.m.2.$ z.1.e.n.n.n.n.r.r.w.w.q.,...q -X:X;X:X;X>XXX`.%XK < aXaXaXaX",
"aXaXaXaXaXaXaXaXaXaXaXaXaXaXaXaX; _.2X:X:X:X<X<XY C a.t.h.S.S.H.7.+ C.8.k.J.S.S.J.B.B.j.s.h.u.&.* ,X2X<X:X:X:X:X2X/ - aXaXaXaXaX",
"aXaXaXaXaXaXaXaXaXaXaXaXaXaXaXaX; ).<X-X:X'.I / u D u.t.p.p.p.f.$.@ s.l.f.p.p.a.p.f.p.f.s.a.u.X.* ~ / U '.>X;X;X2X' > aXaXaXaXaX",
"aXaXaXaXaXaXaXaXaXaXaXaXaXaXaXaXaXL K -X<X'.- 1 k c F F v Z c c x k c b c c c c c v S c B $.;.k k , k k '.<X<XXXl aXaXaXaXaXaXaX",
"aXaXaXaXaXaXaXaXaXaXaXaXaXaXaXaXaXaX> ].XX%X` , u Z ;.9.Z -.k y y k y y y y y k * F t.Z ;.:.;.F w < ~ -XXXXX$X).o aXaXaXaXaXaXaX",
"aXaXaXaXaXaXaXaXaXaXaXaXaXaXaXaXaXaXaX; > > g aXr Z F $ y q j k k k k k k k k k j t % y y @.$.Z r aXb > > > , > aXaXaXaXaXaXaXaX",
"aXaXaXaXaXaXaXaXaXaXaXaXaXaXaXaXaXaXaXaXaXaXaXaXr D @.r l l k k k k k k k k k k k x l y v $.:.D r aXaXaXaXaXaXaXaXaXaXaXaXaXaXaX",
"aXaXaXaXaXaXaXaXaXaXaXaXaXaXaXaXaXaXaXaXaXaXaXaXk t * x y k k k k k k k k k k k k k k k y % % r k aXaXaXaXaXaXaXaXaXaXaXaXaXaXaX",
"aXaXaXaXaXaXaXaXaXaXaXaXaXaXaXaXaXaXaXaXaXaXaXaXk x x k k k k k k k k k k k k k k k k k k x x k k aXaXaXaXaXaXaXaXaXaXaXaXaXaXaX",
"aXaXaXaXaXaXaXaXaXaXaXaXaXaXaXaXaXaXaXaXaXaXaXaXy x k k k k k k k k k k k k k k k k k k k k k k k aXaXaXaXaXaXaXaXaXaXaXaXaXaXaX",
"aXaXaXaXaXaXaXaXaXaXaXaXaXaXaXaXaXaXaXaXaXaXaXk z k k k k k x l k l l l l l l l l x k k y k k k k aXaXaXaXaXaXaXaXaXaXaXaXaXaXaX",
"aXaXaXaXaXaXaXaXaXaXaXaXaXaXaXaXaXaXaXaXaXaXaXk k k k k k k y aXaXaXaXaXaXaXaXaXaXk x k k k k k k aXaXaXaXaXaXaXaXaXaXaXaXaXaXaX",
"aXaXaXaXaXaXaXaXaXaXaXaXaXaXaXaXaXaXaXaXaXaXaXk x y k k k z k aXaXaXaXaXaXaXaXaXaXaXz k k k k k k k aXaXaXaXaXaXaXaXaXaXaXaXaXaX",
"aXaXaXaXaXaXaXaXaXaXaXaXaXaXaXaXaXaXaXaXaXaXaXaXk k k k k k aXaXaXaXaXaXaXaXaXaXaXaXl x k k k k k k aXaXaXaXaXaXaXaXaXaXaXaXaXaX",
"aXaXaXaXaXaXaXaXaXaXaXaXaXaXaXaXaXaXaXaXaXaXaXaXk l k k k aXaXaXaXaXaXaXaXaXaXaXaXaXk k k x l l z k aXaXaXaXaXaXaXaXaXaXaXaXaXaX",
"aXaXaXaXaXaXaXaXaXaXaXaXaXaXaXaXaXaXaXaXaXaXaXaXaXk z l z aXaXaXaXaXaXaXaXaXaXaXaXaXaXaXk k k k k k aXaXaXaXaXaXaXaXaXaXaXaXaXaX",
"aXaXaXaXaXaXaXaXaXaXaXaXaXaXaXaXaXaXaXaXaXaXaXaXaXaXk aXaXaXaXaXaXaXaXaXaXaXaXaXaXaXaXaXaXaXaXaXaXaXaXaXaXaXaXaXaXaXaXaXaXaXaXaX",
"aXaXaXaXaXaXaXaXaXaXaXaXaXaXaXaXaXaXaXaXaXaXaXaXaXaXaXaXaXaXaXaXaXaXaXaXaXaXaXaXaXaXaXaXaXaXaXaXaXaXaXaXaXaXaXaXaXaXaXaXaXaXaXaX",
"aXaXaXaXaXaXaXaXaXaXaXaXaXaXaXaXaXaXaXaXaXaXaXaXaXaXaXaXaXaXaXaXaXaXaXaXaXaXaXaXaXaXaXaXaXaXaXaXaXaXaXaXaXaXaXaXaXaXaXaXaXaXaXaX"
};
