/* XPM */
static char *result[] = {
/* columns rows colors chars-per-pixel */
"64 47 231 2 ",
"   c #000000",
".  c #000806",
"X  c #1D1B03",
"o  c #1F1D0B",
"O  c #131700",
"+  c #020319",
"@  c #0B1C1E",
"#  c #180D0F",
"$  c #211E12",
"%  c #2D0F08",
"&  c #25231E",
"*  c #222117",
"=  c #010025",
"-  c #00002C",
";  c #000135",
":  c #000039",
">  c #000835",
",  c #001732",
"<  c #0A1727",
"1  c #241E2B",
"2  c #002336",
"3  c #022639",
"4  c #192B39",
"5  c #13313D",
"6  c #262522",
"7  c #292D2B",
"8  c #272928",
"9  c #2D2B33",
"0  c #262B39",
"q  c #2A303C",
"w  c #32323D",
"e  c #3C323E",
"r  c #302E37",
"t  c #5E0000",
"y  c #5D2539",
"u  c #4A3A36",
"i  c #42343B",
"p  c #483536",
"a  c #562D30",
"s  c #622A3A",
"d  c #7C3D37",
"f  c #68323D",
"g  c #61081F",
"h  c #7A443A",
"j  c #00014B",
"k  c #2B3343",
"l  c #3B364A",
"z  c #3D3C4D",
"x  c #383643",
"c  c #2C2C5A",
"v  c #3E3C52",
"b  c #2F3958",
"n  c #3A3A6B",
"m  c #3A006C",
"M  c #423A44",
"N  c #493C42",
"B  c #443D56",
"V  c #513F46",
"C  c #643941",
"Z  c #7A3942",
"A  c #4B3673",
"S  c #761B46",
"D  c #3F434E",
"F  c #334E56",
"G  c #314B6A",
"H  c #2F4B6A",
"J  c #47414D",
"K  c #5A464C",
"L  c #414153",
"P  c #46465C",
"I  c #48465E",
"U  c #594E51",
"Y  c #694748",
"T  c #7A5346",
"R  c #6E5553",
"E  c #795B58",
"W  c #7D4549",
"Q  c #69625E",
"!  c #75645D",
"~  c #72754D",
"^  c #4E4465",
"/  c #4D4D6B",
"(  c #494A66",
")  c #524A6A",
"_  c #52516E",
"`  c #545B69",
"'  c #494676",
"]  c #594977",
"[  c #545472",
"{  c #5A5A7A",
"}  c #585777",
"|  c #4D5371",
" . c #656567",
".. c #7F6A62",
"X. c #76767A",
"o. c #656073",
"O. c #804039",
"+. c #823048",
"@. c #85474A",
"#. c #87584B",
"$. c #95594C",
"%. c #845B58",
"&. c #975753",
"*. c #90494A",
"=. c #AF5654",
"-. c #886358",
";. c #956759",
":. c #9B795A",
">. c #AB6259",
",. c #BB635B",
"<. c #A5745C",
"1. c #BF715D",
"2. c #815D7B",
"3. c #8C6E62",
"4. c #997F6F",
"5. c #947B6C",
"6. c #9E7F70",
"7. c #956D69",
"8. c #A76E65",
"9. c #A97369",
"0. c #B87C73",
"q. c #B0776F",
"w. c #C36D5A",
"e. c #CD6A62",
"r. c #CC6561",
"t. c #D26D63",
"y. c #D96E66",
"u. c #CF7863",
"i. c #DA7768",
"p. c #A98877",
"a. c #B78777",
"s. c #B9937E",
"d. c #CA8D66",
"f. c #C88B67",
"g. c #DB8C6C",
"h. c #CC897B",
"j. c #C68478",
"k. c #D08B7D",
"l. c #DF9A71",
"z. c #DD956E",
"x. c #E18A6E",
"c. c #E49370",
"v. c #E29D72",
"b. c #EA9673",
"n. c #E3906F",
"m. c #E9A578",
"M. c #E8B17E",
"N. c #C4B164",
"B. c #F0DA76",
"V. c #EAD35F",
"C. c #483182",
"Z. c #595985",
"A. c #57578E",
"S. c #674F88",
"D. c #644E84",
"F. c #69548C",
"G. c #655689",
"H. c #6C5B92",
"J. c #6C5691",
"K. c #5C6491",
"L. c #5D6890",
"P. c #65658B",
"I. c #666589",
"U. c #777984",
"Y. c #6E6194",
"T. c #6B6B94",
"R. c #6D6C9A",
"E. c #69669D",
"W. c #72659A",
"Q. c #726C9D",
"!. c #706397",
"~. c #71729C",
"^. c #747D95",
"/. c #687695",
"(. c #6767A2",
"). c #756FA1",
"_. c #7574A3",
"`. c #7978A7",
"'. c #7B7BAB",
"]. c #7778A8",
"[. c #7E7EB0",
"{. c #B47A85",
"}. c #8A7EA1",
"|. c #82759C",
" X c #7B878A",
".X c #7F8AA2",
"XX c #7D8AA7",
"oX c #8A8A89",
"OX c #939191",
"+X c #AE9992",
"@X c #BAA587",
"#X c #BCAA9B",
"$X c #8589AA",
"%X c #999DA5",
"&X c #8182B3",
"*X c #888EB7",
"=X c #8A94BA",
"-X c #8F99B4",
";X c #95A3BE",
":X c #A7A6A6",
">X c #BBBBBA",
",X c #B6B6B5",
"<X c #ADA6BC",
"1X c #C59C85",
"2X c #D99785",
"3X c #E9B884",
"4X c #EDBB9D",
"5X c #E1B296",
"6X c #F0BE9E",
"7X c #D9AD91",
"8X c #F1E09F",
"9X c #F5C2A2",
"0X c #FCC7A6",
"qX c #9BA9C5",
"wX c #99A6C3",
"eX c #A7A8C5",
"rX c #AAB5CB",
"tX c #C6BFCD",
"yX c #BBC4D3",
"uX c #C9C9CE",
"iX c #C4C7D6",
"pX c #DADADB",
"aX c #D8DBE4",
"sX c #CFD3E1",
"dX c #E3E4E4",
"fX c #ECECED",
"gX c #E4E5EC",
"hX c #F4F3F4",
"jX c #FEFEFE",
"kX c #EBEEF5",
"lX c None",
/* pixels */
"lXlXlXlXlXlXlXlXlXlXlXlXlXlXlXlXlXlXlXlXlXlXlXlXlXlXlXlXlXlXlXlXlXlXlXlXlXlXlXlXlXlXlXlXlXlXlXlXlXlXlXlXlXlXlXlXlXlXlXlXlXlXlXlX",
"lXlXlXlXlXlXlXlXlXlXlXlXlXlXlXlXlXlXlXlXlXlXlXlXlXlXlXlXlXlXlXlXlXlXlXlXlXlXlXlXlXlXlXlXlXlXlXlXlXlXlXlXlXlXlXlXlXlXlXlXlXlXlXlX",
"lXlXlXlXlXlXlXlXlXlXlXlXlXlXlXlXlXlXlXlXlXlXlXlXlXlXlXlXlXlXlXlXlXlXlXlXlXlXlXlXlXlXlXlXlXlXlXlXlXlXlXlXlXlXlXlXlXlXlXlXlXlXlXlX",
"lXlXlXlXlXlXlXlXlXlXlXlXlXlXlXlXlXlXlXlXlXlXlXlXlXlXlXlXlXlXlXlXlXlX6 6 & 6 & & & & 6 6 & 8 7 9 7 lXlXlXlXlXlXlXlXlXlXlXlXlXlXlX",
"lXlXlXlXlXlXlXlXlXlXlXlXlXlXlXlXlXlXlXlXlXlXlXlXlXlXlXlXlXlXlXlXlX( I.I.P.I.I.I.I.I.I.P.I.G.^ ] ^ lXlXlXlXlXlXlXlXlXlXlXlXlXlXlX",
"lXlXlXlXlXlXlXlXlXlXlXlXlXlXlXlXlXlXlXlXlXlXlXlXlXlXlXlXlXlXlXlXw T.&X'.`.'.].'.].].`.`.'.).H.J.D.z lXlXlXlXlXlXlXlXlXlXlXlXlXlX",
"lXlXlXlXlXlXlXlXlXlXlXlXlXlXlXlXlXlXlXlXlXlXlXlXlXlXlXlXlXlXlXL T.&X`.c + ; : : ; ; ; ; + ' '.Y.D.D.B 7 lXlXlXlXlXlXlXlXlXlXlXlX",
"lXlXlXlXlXlXlXlXlXlXlXlXlXlXlXlXlXlXlXlXlXlXlXlXlXlXlXlXlXlXX ( '._.T.:X>X>X>X,X,X>X>X,X,X%XI.G.F.F.) 7 lXlXlXlXlXlXlXlXlXlXlXlX",
"lXlXlXlXlXlXlXlXlXlXlXlXlXlXlXlXlXlXlXlXlXlXlXlXlXlXlXlXlXlXX P ].'  .hXjXjXjXjXjXjXhXjXjXpX1 A F.F.^ 7 lXlXlXlXlXlXlXlXlXlXlXlX",
"lXlXlXlXlXlXlXlXlXlXlXlXlXlXlXlXlXlXlXlXlXlXlXlXlXlXlXlXlXlXX P ].'  .hXaX5.X.uXjX,Xo.oXhXdX9 A J.G.^ 7 lXlXlXlXlXlXlXlXlXlXlXlX",
"lXlXlXlXlXlXlXlXlXlXlXlXlXlXlXlXlXlXlXlXlXlXlXlXlXlXlXlXlXlXX P ].' Q jXuX    ,XjXX..   fXdX8 A J.F.^ 7 lXlXlXlXlXlXlXlXlXlXlXlX",
"lXlXlXlXlXlXlXlXlXlXlXlXlXlXlXlXlXlXlXlXlXlXlXlXlXlXlXlXlXlXX P ].[  .fXuXM < >XjX%X   .dXpXx A F.F.^ 7 lXlXlXlXlXlXlXlXlXlXlXlX",
"lXlXlXlXlXlXlXlXlXlXlXlXlXlXlXlXlXlXlXlXlXlXlXlXlXlXlXlXlXlXX I ].].~.U.>XfXfXhXjXhXfXdX:XU.R.H.F.F.^ 7 lXlXlXlXlXlXlXlXlXlXlXlX",
"lXlXlXlXlXlXlXlXlXlXlXlXlXlXlXlXlXlXlXlXlXlXlXlXlXlXlXlXlXlXX I ].&X_.  ,XjXgXhXjXdXhXjXoX; [.W.S.F.^ 7 lXlXlXlXlXlXlXlXlXlXlXlX",
"lXlXlXlXlXlXlXlXlXlXlXlXlXlXlXlXlXlXlXlXlXlXlXlXlXlXlXlXlXlXX P _.[._.j >XjX|.<XhX}.<XjXOXc ].Y.S.G.^ 7 lXlXlXlXlXlXlXlXlXlXlXlX",
"lXlXlXlXlXlXlXlXlXlXlXlXlXlXlXlXlXlXlXlXlXlXlXlXlX* o 9 w lXlXP _.[.].E.$XeX_.$XeX}.&XeX}.R.'.E.S.G.^ 8 lXlXr $ $ $ lXlXlXlXlXlX",
"lXlXlXlXlXlXlXlXlXlXlXlXlXlXlXlXlXlXlXlXlXlXlXlX/ I.{ _ 9 lXlXP ].[.[.}.].(.[.].(.'.].(.[.&X'.Y.S.F.^ 7 lX7 I { I._ lXlXlXlXlXlX",
"lXlXlXlXlXlXlXlXlXlXlXlXlXlXlXlXlXlXlXlXlXlXlX9 T.&X&X{ & lXlXI ).[.[.'.'.'.'.'.'.'.'.'.'.'.'.Y.S.S.^ 7 lXX ) `.&X_.L lXlXlXlXlX",
"lXlXlXlXlXlXlXlXlXlXlXlXlXlXlXlXlXlXlXlXlXlXlX9 T.`._ w o O B D.G.).'.H.(.'.'.'.'.'.'.'.Y.H.H.J.] M 9 * o o 9 P ~.`.L lXlXlXlXlX",
"lXlXlXlXlXlXlXlXlXlXlXlXlXlXlXlXlXlXlXlXlXlXlX9 R.'.[ _ } { Y.Q.H.].'.!.).[.}.'.'.[.[.'.Q.H.Y.W.H._ [ } { { [ ) ~._.L lXlXlXlXlX",
"lXlXlXlXlXlXlXlXlXlXlXlXlXlXlXlXlXlXlXlXlXlXlX9 P.&X'.'.'.'.'.`.'.].'.].`.'.'.`.'.'.'.'.].].'.'.'.'.'.'.'.'.'.'.[.~.B lXlXlXlXlX",
"lXlXlXlXlXlXlXlXlXlXlXlXlXlXlXlXlXlXlXlXlXlXlXlX( { } } } _ _ _ | ' H G G G G G G G H G | ( j j c [ [ _ _ } } } { ( lXlXlXlXlXlX",
"lXlXlXlXlXlXlXlXlXlXlXlXlXlXlXlXlXlXlXlXlXlXlXlXlXo o X * & @ + @ a h h d d d d h d h d % R :X:XoX7   @ 6 * X o o X lXlXlXlXlXlX",
"lXlXlXlXlXlXlXlXlXlXlXlXlXlXlXlXlXlXlXlXlXlXlXlXlXlXlXlXlXw x w 3 &.y.t.e.t.t.t.t.t.t.e.t %XjXjXpXx + x w lXlXlXlXlXlXlXlXlXlXlX",
"lXlXlXlXlXlXlXlXlXlXlXlXlXlXlXlXlXlXlXlXlXlXlXlXlXlXlXlXlX, p.1X3 ;.b.g.v.M.3Xm.g.z.x.y.t F :X%XU.w ;.8.x lXlXlXlXlXlXlXlXlXlXlX",
"lXlXlXlXlXlXlXlXlXlXlXlXlXlXlXlXlXlXlXlXlXlXlXlXlXlXlXlXlX- 1X9Xp.:.f.c.M.3X3XM.v.c.u.>.+X X  X.U.0 0.j.N lXlXlXlXlXlXlXlXlXlXlX",
"lXlXlXlXlXlXlXlXlXlXlXlXlXlXlXlXlXlXlXlXlXlXlXlXlXlXlXlXlX- @X9X6Xp.p d.m.v.l.l.z.i.*.L dXpXw dXdXx 8.j.M lXlXlXlXlXlXlXlXlXlXlX",
"lXlXlXlXlXlXlXlXlXlXlXlXlXlXlXlXlXlXlXlXlXlXlXlXlX3 k lXlX= 1X0X6X5Xs.-.h T T T #.f *.9.:XoX2 oX:X9.k.0.5 , lXlXlXlXlXlXlXlXlXlX",
"lXlXlXlXlXlXlXlXlXlXlXlXlXlXlXlXlXlXlXlXlXlXlXlXY R M 4 lX, 6.7X4X9X5Xp.Q ! 3..... .a.2X#.y T a $.k.j.8.W W Y lXlXlXlXlXlXlXlXlX",
"lXlXlX& G.`.k / [.[.Z.+ 8 r 9 9 9 9 9 9 9 lXlX4 ;.8.V 3 0 r , R 5X9X9X4X4X4X4X4X4X4X4X4X2Xu.2Xh.h.k.E C r.y.,.M lXlXlXlXlXlXlXlX",
"lXlXlX# /.;XpXuX*XaXkXpX-X/..X.X.X.X.X$X$X`   0 #.&.e %.9.M Z =.5.5.3.5.p.p.p.5.p.5.5.7.3.E E %.E E &.,.g.n.g.f.-.lXlXlXlXlXlXlX",
"lXlXlX# /.eXkXgXyXgXjXjXaXrXwXwXwXqXwXqXqX.Xv k @.#.0 q.2Xx >.u.+.1 y y a y y y y y y y C C C C C f ,.g.v.v.v.m.<.> lXlXlXlXlXlX",
"lXlXlX# ^.wX=XsXjXrXiXjXjXgX;X;X;X;X;X;X;X*XR.k -.8.w 9.j.N <.b.y.r.r.e.e.y.y.t.e.t.e.e.e.r.r.e.e.r.e.u.l.v.v.v.<.> lXlXlXlXlXlX",
"lXlXlXlX` ^.XXeXiXqXeXrXsXiX;X=X*X=X*X=X=X~.| q #.&.e R %.4 <.m.c.n.n.b.w.t +.+.+.S >.c.n.n.n.i.y.i.i.w.#.#.#.#.Y 4 lXlXlXlXlXlX",
"lXlXlXlXlX1 P.(.K.$XXXA./.XX-X~.!.R.R.Q.~./ . q @.O.i 3 2 2 ;.d.d.d.d.d.p. X~ ~ ~ ~ :.d.d.d.d.1.,.,.,.,.E Q ! ! U 0 lXlXlXlXlXlX",
"lXlXlXlXlXlXz L v D D D D D L z z z z z z lXlXw @.*.e q x w i u u u p   >XjX8XV.B.B.N.p p u u p p p = 3.4X6X6X6Xp.= lXlXlXlXlXlX",
"lXlXlXlXlXlXlXlXlXlXlXlXlXlXlXlXlXlXlXlXlXlXlXlXC Y M q lX9 | K.K.L.K.A.-XtX#X@X@X@XoX' Z.L.L.L.Z.' n o.+Xa.s.s.3.lXlXlXlXlXlXlX",
"lXlXlXlXlXlXlXlXlXlXlXlXlXlXlXlXlXlXlXlXlXlXlXlXlX0 k lXlX7 I.'.].~.~.`.H.m C.A C.C.C.F.R.`._.'.).F.F.A - + = = lXlXlXlXlXlXlXlX",
"lXlXlXlXlXlXlXlXlXlXlXlXlXlXlXlXlXlXlXlXlXlXlXlXlXlXlXlXlX9 ] G.b k z D z l l l l l l z v D B D.J.D.n 4 w lXlXlXlXlXlXlXlXlXlXlX",
"lXlXlXlXlXlXlXlXlXlXlXlXlXlXlXlXlXlXlXlXlXlXlXlXlXlXlXlXlX4 2.{.9.E , $ lXlXlXlXlXlXlXlXlXlXlXc |.q.q.&.x lXlXlXlXlXlXlXlXlXlXlX",
"lXlXlXlXlXlXlXlXlXlXlXlXlXlXlXlXlXlXlXlXlXlXlXlXlXlXlXlXlX2 ;.j.h.8.2 lXlXlXlXlXlXlXlXlXlXlXlX. T j.h.q.M lXlXlXlXlXlXlXlXlXlXlX",
"lXlXlXlXlXlXlXlXlXlXlXlXlXlXlXlXlXlXlXlXlXlXlXlXlXlXlXlXlXlXK K K J w lXlXlXlXlXlXlXlXlXlXlXlXlXlXK U K x lXlXlXlXlXlXlXlXlXlXlX",
"lXlXlXlXlXlXlXlXlXlXlXlXlXlXlXlXlXlXlXlXlXlXlXlXlXlXlXlXlXlXlXlXlXlXlXlXlXlXlXlXlXlXlXlXlXlXlXlXlXlXlXlXlXlXlXlXlXlXlXlXlXlXlXlX",
"lXlXlXlXlXlXlXlXlXlXlXlXlXlXlXlXlXlXlXlXlXlXlXlXlXlXlXlXlXlXlXlXlXlXlXlXlXlXlXlXlXlXlXlXlXlXlXlXlXlXlXlXlXlXlXlXlXlXlXlXlXlXlXlX",
"lXlXlXlXlXlXlXlXlXlXlXlXlXlXlXlXlXlXlXlXlXlXlXlXlXlXlXlXlXlXlXlXlXlXlXlXlXlXlXlXlXlXlXlXlXlXlXlXlXlXlXlXlXlXlXlXlXlXlXlXlXlXlXlX",
"lXlXlXlXlXlXlXlXlXlXlXlXlXlXlXlXlXlXlXlXlXlXlXlXlXlXlXlXlXlXlXlXlXlXlXlXlXlXlXlXlXlXlXlXlXlXlXlXlXlXlXlXlXlXlXlXlXlXlXlXlXlXlXlX",
"lXlXlXlXlXlXlXlXlXlXlXlXlXlXlXlXlXlXlXlXlXlXlXlXlXlXlXlXlXlXlXlXlXlXlXlXlXlXlXlXlXlXlXlXlXlXlXlXlXlXlXlXlXlXlXlXlXlXlXlXlXlXlXlX"
};
