/* XPM */
static char *result[] = {
/* columns rows colors chars-per-pixel */
"55 64 246 2 ",
"   c #000000",
".  c #000D00",
"X  c #00040C",
"o  c #01051A",
"O  c #00151D",
"+  c #0E0D1A",
"@  c #2F040B",
"#  c #000423",
"$  c #000824",
"%  c #04062A",
"&  c #001523",
"*  c #011924",
"=  c #001B2A",
"-  c #0B1B27",
";  c #181C26",
":  c #141B26",
">  c #000D35",
",  c #271D27",
"<  c #371830",
"1  c #103231",
"2  c #2D212C",
"3  c #23262E",
"4  c #39232A",
"5  c #352132",
"6  c #2D3336",
"7  c #003100",
"8  c #440004",
"9  c #420014",
"0  c #6A0000",
"q  c #4B3710",
"w  c #4D0C2F",
"e  c #750637",
"r  c #472829",
"t  c #522928",
"y  c #492735",
"u  c #522935",
"i  c #5A2B35",
"p  c #582B3B",
"a  c #513825",
"s  c #6A322B",
"d  c #76362C",
"f  c #632E39",
"g  c #67313B",
"h  c #79373A",
"j  c #632F2B",
"k  c #662104",
"l  c #484116",
"z  c #755000",
"x  c #5E4228",
"c  c #474230",
"v  c #6A4932",
"b  c #0E3E4B",
"n  c #3A3B59",
"m  c #3B3548",
"M  c #3B3B61",
"N  c #761051",
"B  c #4C3546",
"V  c #6C3142",
"C  c #733443",
"Z  c #7C3745",
"A  c #7E3846",
"S  c #7B3748",
"D  c #7A3749",
"F  c #6B2E44",
"G  c #673866",
"H  c #044650",
"J  c #2E5355",
"K  c #006260",
"L  c #434649",
"P  c #504E55",
"I  c #69434B",
"U  c #734C70",
"Y  c #5B7278",
"T  c #6F7274",
"R  c #4A4165",
"E  c #8A0B0A",
"W  c #B71400",
"Q  c #B30000",
"!  c #BF2300",
"~  c #B4360E",
"^  c #8A3A2D",
"/  c #983E2E",
"(  c #883B39",
")  c #953835",
"_  c #982C26",
"`  c #C42700",
"'  c #C23600",
"]  c #C31200",
"[  c #9F4532",
"{  c #944137",
"}  c #8A4C33",
"|  c #AC4A32",
" . c #AB4A3D",
".. c #A44638",
"X. c #B44D33",
"o. c #B44D3C",
"O. c #B74B38",
"+. c #BC5134",
"@. c #BD5139",
"#. c #A0402E",
"$. c #AD753A",
"%. c #C94807",
"&. c #CA5100",
"*. c #D47109",
"=. c #C1452E",
"-. c #C54C2A",
";. c #C24B31",
":. c #C55435",
">. c #CA5535",
",. c #C65937",
"<. c #CD5835",
"1. c #C65939",
"2. c #D35A36",
"3. c #C7522E",
"4. c #CC643C",
"5. c #D2722E",
"6. c #833A46",
"7. c #8C3D45",
"8. c #823548",
"9. c #843A49",
"0. c #8A3C4A",
"q. c #853546",
"w. c #86395D",
"e. c #8E3849",
"r. c #AD1A6A",
"t. c #8E3E63",
"y. c #AC3272",
"u. c #901F44",
"i. c #9C4343",
"p. c #954A46",
"a. c #955449",
"s. c #87464F",
"d. c #A34642",
"f. c #A94A42",
"g. c #B05446",
"h. c #B37248",
"j. c #8B4F73",
"k. c #AE4A73",
"l. c #887873",
"z. c #AD6D6C",
"x. c #826A5C",
"c. c #CC6B44",
"v. c #D47B49",
"b. c #D57646",
"n. c #CF714F",
"m. c #CB786C",
"M. c #DF8500",
"N. c #E18B19",
"B. c #DE872C",
"V. c #DD8833",
"C. c #E08C29",
"Z. c #E18E35",
"A. c #E18F3A",
"S. c #E2913D",
"D. c #BC834F",
"F. c #A3817D",
"G. c #D9854A",
"H. c #DB8B52",
"J. c #D48852",
"K. c #DD9557",
"L. c #CE894F",
"P. c #E2944A",
"I. c #E29552",
"U. c #E39957",
"Y. c #E09659",
"T. c #E49B5B",
"R. c #E99C5C",
"E. c #E08E54",
"W. c #EBA05E",
"Q. c #D4887B",
"!. c #E49E63",
"~. c #E39E68",
"^. c #E5A16A",
"/. c #EAA468",
"(. c #E6A676",
"). c #E2A27A",
"_. c #F0A360",
"`. c #727F87",
"'. c #BA3B81",
"]. c #B84985",
"[. c #A85384",
"{. c #8E6B80",
"}. c #C64888",
"|. c #C8578E",
" X c #D45A94",
".X c #CF5790",
"XX c #E55A99",
"oX c #D7679B",
"OX c #E5629E",
"+X c #ED64A2",
"@X c #EF6AA5",
"#X c #F567A7",
"$X c #FA68A9",
"%X c #F175AA",
"&X c #6F8D93",
"*X c #779BA2",
"=X c #689DA3",
"-X c #969899",
";X c #858C8B",
":X c #849BA3",
">X c #9B9CA4",
",X c #A398A6",
"<X c #9AA3A8",
"1X c #8BB2BA",
"2X c #A7A8A9",
"3X c #B5B5B7",
"4X c #AEB3B5",
"5X c #EBB897",
"6X c #E6AE8A",
"7X c #D0AEAB",
"8X c #E7BEA8",
"9X c #CA8896",
"0X c #EFCBB6",
"qX c #ECCAB9",
"wX c #F1CEB9",
"eX c #F2D0BD",
"rX c #ECC2A7",
"tX c #A9BBC2",
"yX c #A8C4CB",
"uX c #A7CAD1",
"iX c #B7D2D8",
"pX c #B1CCD2",
"aX c #9FC1C8",
"sX c #C9C8C9",
"dX c #C8D9DD",
"fX c #D7D8D9",
"gX c #DFCFCE",
"hX c #F1D4C3",
"jX c #F3DACB",
"kX c #EAD9D7",
"lX c #F3DCD3",
"zX c #EECDC8",
"xX c #F6E6DD",
"cX c #CEDFE4",
"vX c #D6E5E8",
"bX c #CEE4E8",
"nX c #E3E8EA",
"mX c #F3E4E2",
"MX c #F7E8E1",
"NX c #F8E9E2",
"BX c #F7ECE8",
"VX c #FBF2ED",
"CX c #EAF3F5",
"ZX c #FFFEFE",
"AX c #F7F7F6",
"SX c None",
/* pixels */
"SXSXSXSXSXSXSXSXSXSXSXSXSXSXSXSXSXSXSXSXSXSXSXSXSXSXSXSXSXSXSXSXSXSXSXSXSXSXSXSXSXSXSXSXSXSXSXSXSXSXSXSXSXSXSX",
"SXSXSXSXSXSXSXSXSXSXSXSXSXSXSXSXSXSXSXSXSXSXSXSXSXSXSXSXSXSXSXSXSXSXSXSXSXSXSXSXSXSXSXSXSXSXSXSXSXSXSXSXSXSXSX",
"SXSXSXSXSXSXSXSXSXSXSXSXSXSXSXSXSXSXSXSX$ o $ $ $ $ $ $ # $ # & SXSXSXSXSXSXSXSXSXSXSXSXSXSXSXSXSXSXSXSXSXSXSX",
"SXSXSXSXSXSXSXSXSXSXSXSXSXSXSXSXSXSX# & { [ ..[ [ [ [ #./ #...h 5 # # O SXSXSXSXSXSXSXSXSXSXSXSXSXSXSXSXSXSXSX",
"SXSXSXSXSXSXSXSXSXSXSXSXSXSXSXSXSXs { { ,.>.<.>.<.<.>.c.b.>.>.o.) ^ ^ p = SXSXSXSXSXSXSXSXSXSXSXSXSXSXSXSXSXSX",
"SXSXSXSXSXSXSXSXSXSXSXSXSXSXSXs s | 2.<.:.:.,.:.:.:.;.J.U.;.c.c.c.<.1.d.( i 5 SXSXSXSXSXSXSXSXSXSXSXSXSXSXSXSX",
"SXSXSXSXSXSXSXSXSXSXSXSXSXSXs >.<.:.:.:.:.:.:.:.:.:.;.v.H.>.T._.G.;.:.>.2.o.6.2 SXSXSXSXSXSXSXSXSXSXSXSXSXSXSX",
"SXSXSXSXSXSXSXSXSXSXSXSX& d <.1.,.,.,.>.,.,.,.,.:.:.:.:.;.1.Y.T.v.;.:.:.,.>.o.Z 5 SXSXSXSXSXSXSXSXSXSXSXSXSXSX",
"SXSXSXSXSXSXSXSXSXSXSX# ^ >.1.U.!.T.T.Y.T.W.v.=.:.;.:.:.:.:.1.1.>.:.:.:.:.>.O.S 6.y SXSXSXSXSXSXSXSXSXSXSXSXSX",
"SXSXSXSXSXSXSXSXSXSX= _ G.J.. q q q l l l 7 h.R.K.K.4.;.-.! ! ! ` ` ` W -.>.O.D 9.y SXSXSXSXSXSXSXSXSXSXSXSXSX",
"SXSXSXSXSXSXSXZXkX  o L.D.s. X X X X X X|..Xk.$._.T.K.&.m.mXxXkXmXNXNXmXQ.' g.C 6.Z u * SXSXSXSXSXSXSXSXSXSXSX",
"SXSXSXSXSXZXZXZXZXsXm z z.}.k.y.}.'.y.'.$X$X[.1 h.Y.C.6XmXZXZXZXCXbXvXZX7Xz.-. .6.0.f O SXSXSXSXSXSXSXSXSXSXSX",
"SXSXSXSXSXZXZXCXnXvXL N ].y.  4X:X>X3X3X|.+X Xj.  I.5XVXZXZXZXZXcX1XaXvXvX7X` :.6.9.C u SXSXSXSXSXSXSXSXSXSXSX",
"SXSXSXSXZXZXZXvX1X1XH OXk.1 2XZXdXvXZXZX&XoX$XXXs.$.BXZXZXZXZXZXnXiXiX1XCXkXg.+.6.A 8.S * SXSXSXSXSXSXSXSXSXSX",
"SXSXSXSXZXAXVXcXpXyX1  Xr.;XZXZXpXdXZXZXpX9XXX$X+X  fXZXZXAXZXBXAXZXZXiXAXCX4X%.6.S 7.h * SXSXSXSXSXSXSXSXSXSX",
"SXSXSXSXZXuXH 3XZXAXP  Xr.&XZXZXT 2XZXAXpXK y.$XXXw =XvXCXaXZX&X4XZXZXZXZXZXmX~ p.S o.X.- SXSXSXSXSXSXSXSXSXSX",
"SXSXSXSXZXaXnXZXZXZX%Xk.B - L L 3 6 L L 6 ; O s.@XU   sXAXaXZXAXZXZXZXZXZXZXkX@ K.c.;.:.+.4 SXSXSXSXSXSXSXSXSX",
"SXSXSXSXbXAXZXZXAXpX%X[.n O o o ; + o o : : . t.@X+Xe &XcXZXZXZXZXZXZXZXbX<XP r K.c.;.,.:.r SXSXSXSXSXSXSXSXSX",
"SXSXSXSX&XiXdXiXsXyX$Xt.= : : : ; ; ; ; ; ; . w.#X$XN &XiXcXZXZXZXZXZXcXuX&X  3 T.b.3.:.{ 2 SXSXSXSXSXSXSXSXSX",
"SXSXSXSXo Y aXuX1X&X@Xw.. ; ; ; ; ; ; ; ; : . t.#X#XN J *XuXcXvXvXvXbXuX*XJ @ [ b.g.i.i.D 2 SXSX    SXSXSXSXSX",
"SXSXSXSX+   &X:X`.@ +Xt.. : ; ; ; ; ; ; ; ; . w.#X#Xw.X b :X&X&X&X&X&X:Xb k D.G.v.a.C 8.Z 2   >XsX4XSXSXSXSXSX",
"SXSXSXSXSX;       B +Xw.. +   X : ; ; :       w.$X$Xw.t v   X         X 8 h.U.H.K.a.C 6.Z , 8 7XZXZXP SXSXSXSX",
"SXSXSXSXSXSX; ; O y +Xj.  L T P 3 X X ; T T J w.$XXXF h.I.a x v v j t r X.>.;.;.-.7.S 8.Z =  .] Q.CX{.SXSXSXSX",
"SXSXSXSXSXSXSXSXO u XX[.# -XZXiXT 2 2 T AXZX3Xe XX`.> h./././.T.W.E.:.>.:.:.:.>.<.i.8.6.A ; F f.%.c.ZX<X  SXSX",
"SXSXSXSXSXSXSXSXo   U OXr.&XZXZXZXAXZXAXZXcX&XN +Xj.  3XZXZXZX5X*.+.:.:.:.,.:.:.:.:.:.:.+.4 V 9.) n.ZX<XSXSXSX",
"SXSXSXSXSXSXSX  -XnXJ  Xk.1 ,XZXZXZXZXZXZX1Xk. Xj.+ sXZXZXZXZXZXqX*.+.;.=.;.=.:.Y.c.;.,.+.4 g S ) n.ZX-XSXSXSX",
"SXSXSXSXSXSXSX  <XZXH w.|.k.= >X,X>X>X>X>XoX.Xj.U   nXZXZXZXZXZXjXB.H.H.H.H.H.H.R.c.;.:.-.4 g s.E >.ZX-XSXSXSX",
"SXSXSXSXSXSXSX  l.qXL.3 ].$X].}.}.}.}.}.}.|.[.R m $.8XeX0XhXZXZXhXZ.T.T.T.T.T.T.R.c.;.1.i., h e z.kXZX2X  SXSX",
"SXSXSXSXSXSXSXSX} S._.h.a.|.oX XoX XoX X Xj.M P a.W.P.Z.C.P.hXZXjXC.T.T.W.T.T.W.R.c...) y & y E 7XZXfXT SXSXSX",
"SXSXSXSXSXSXSXSX} W.T._.D.c n n n n n n M R I $.W.U.T.U.T.U.M.lXwXA.H.H.H.H.H.H.E.a.S 7.j d < 0 9XfX  SXSXSXSX",
"SXSXSXSXSXSXSXo } T.T.K._.L.a x x x x x x r D.W.T.U.U.K.U.U.T.Z.G.H.+.=.;.;.+.=.-.7...<.>.>.f.g 9 0 , SXSXSXSX",
"SXSXSXSXSXSXSXo v n.~.^.!.Y.!.T.!.T.T.T.T.T.K.U.T.^.^.^.^.^.^.n.:.3.:.:.:.:.:.,.>.7. .>.:.>.,.>.X.* SXSXSXSXSX",
"SXSXSXSXSXSXSX  -XZXZXZXeXN.T.Y.T.T.T.Y.T.Y.Y.A.^.VXZXZXAXZXZXZX8XW :.:.,.:.:.:.>.:.:.:.:.:.:.:.:.O.4 SXSXSXSX",
"SXSXSXSX& : SXSX-XZXZXZXZXlXM.Z.Z.Z.Z.Z.Z.M.0XZXVXZXZXZXZXZXZXZXjX*.=.;.;.;.;.;.;.>.:.:.:.:.:.:.>.:.Z 5 SXSXSX",
"SXSXSXs | 4 &   -XZXZXZXZXZXxXNXNXMXNXNXMXxXVXZXZXZXZXZXZXZXZXZXhXB.H.H.H.H.H.H.E.4.-.>.>.>.:.:.:.:.@.j SXSXSX",
"SXSX# ^ >.4 p @ x.0XZXZXZXZXZXZXZXZXZXZXZXZXZXZXZXZXjXrXrX0XZXZXjXZ.T.T.T.T.T.T._.g.d.d.d.d.:.:.:.:.<.7.5 SXSX",
"SXSXSXd :.; C w x.eXhXhXBXZXZXZXZXZXZXZXZXZXZXAXhXjXwX0X0X0XhXxX5XP.T.T.T.T.T.T.!.a.< B F C d.@.>.:.:.g.h o SX",
"SXSXSXd :.d S 8 ;XVX5X6XeXMXxXxXxXxXxXxXxXxXNXjX5X6XxXVXVXBX5X5X).G.H.J.H.H.H.H.K.} % 2 * g F ) ,.:.:.<...= SX",
"SXSX# d >.2.f.y z R.VXZXhX!.(.(.(.(.(.(.(.(.~.rXZXZX6XM.C.U.VXZXqX~ 1.4.1.1.1.4.;.d.p.6.* & - y ( +.;.>.g.Z & ",
"SXSX% d >.;.>.^ v W.I.M.hXZXZXZXZXZXZXZXZXZXZXNXC.P.Y.T.T.Y.P.P.I.U.T.T.T.T.T.K.1.;.:.| & - q.I b & C o.2.| & ",
"SXSX: ; r 9.0.w v _.T.T.!.^.~.~.^.^.^.^.^.^.^.~.Y.T.Y.T.T.T.T.c.;.<.,.,.>.1.<.,.7.6.9.h ; h Q zXnX  & X.2.| & ",
"SXSXSXSX2 D 0.B k &.Z.U.T.U.U.U.U.Y.U.T.U.S.B.Z.Z.Z.Z.A.Z.Z.Z.P.v.;.:.:.:.:.:.@.6.D 9.V , W %.z.Y SXSXt j y : ",
"SXSXSXSXSXy p   l.BXNX6XM.P.U.U.T.T.T.Y.M.hXNXxXNXNXxXNXNXNXNX5X5.X.,.:.:.:.,.:.A f.) o P mXz.  SXSXSXSXSXSXSX",
"SXSXSXSXSXSXSX  -XZXZXxXjX0XN.Z.A.Z.C.I.hXZXZXZXZXZXZXZXZXZXZXrXB.b.=.=.;.;.O.i. .,./ X J 8XfX2XSXSXSXSXSXSXSX",
"SXSXSXSXSXSXSXSXl.kXZXZXZXAX0X0XwXwX0XeXZXZXZXZXZXZXZXZXZXZXZX5XS.Y.b.v.v.v.c.i.:.<.^ & f Q AXvX  SXSXSXSXSXSX",
"SXSXSXSXSXSXSX= 0 X.AXZXZXZXZXZXZXZXZXZXZXZXZXZXxXNXNXNXNXNXBX5XP.T.T.!.!.T.G.;.:.+.d 5 e.~ gX4X  SXSXSXSXSXSX",
"SXSXSXSXSXSXSXSX@ j.mXZXZXZXZXZXZXZXZXZXZXVXVXxXM.Z.A.Z.B.B.B.P.T.T.T.T.T.b.+.:.>.j o y 0.s.@ SXSXSXSXSXSXSXSX",
"SXSXSXSXSXSXSXSXSX4 W kXZXZXZXAXZXZXZXZXZX5XB.P.T.Y.T.v.=.;.=.H.T.Y.Y.Y.4.;.;.:.:.s & u 0.:.d SXSXSXSXSXSXSXSX",
"SXSXSXSXSXSXSXSXSX2 6.s.g.n.(./.^.^.^./.^.T.T.R.U.4.>.<.,.:.>.<. .A s.s.9.6.0.6.4 & ) <.:.t SXSXSXSXSXSXSXSXSX",
"SXSXSXSXSXSXSXSXSXSX2 C 0.p.p.a.a.p.p.a.a.a.a.a.a.e.j , i 7.7.7.s.Z q.Z 6.9.D 2 ; = r j t SXSXSXSXSXSXSXSXSXSX",
"SXSXSXSXSXSXSXSXSXSXSXy y i 8.8.8.8.8.S 8.q.8.8.D 5 ) | | o.9.S 6.6.0.0.f u y SXSXSXSXSXSXSXSXSXSXSXSXSXSXSXSX",
"SXSXSXSXSXSXSXSXSXSXSXSX* 2 p u u u u u u u i p p y X.<.<.>.6.9.6.Z p p 4 SXSXSXSXSXSXSXSXSXSXSXSXSXSXSXSXSXSX",
"SXSXSXSXSXSXSXSXSXSXSXSXSX- = u u u u u u ; O & ; d.:.:.@. .9.9.Z u O O SXSXSXSXSXSXSXSXSXSXSXSXSXSXSXSXSXSXSX",
"SXSXSXSXSXSXSXSXSXSXSXSXSX: , h 9.0.9.0.0.f , - i :.:.:.o.C 9.S u SXSXSXSXSXSXSXSXSXSXSXSXSXSXSXSXSXSXSXSXSXSX",
"SXSXSXSXSXSXSXSXSXSXSXSXSXSX: & g Z Z 8.9.0.p y i.@.,.:.o.S S 4 SXSXSXSXSXSXSXSXSXSXSXSXSXSXSXSXSXSXSXSXSXSXSX",
"SXSXSXSXSXSXSXSXSXSXSXSXSXSXSX; - & r 9.A 9.u s >.:.:. .C D , SXSXSXSXSXSXSXSXSXSXSXSXSXSXSXSXSXSXSXSXSXSXSXSX",
"SXSXSXSXSXSXSXSXSXSXSXSXSXSXSXSXSX* = * * * p i.:.7.6.0.C = ; SXSXSXSXSXSXSXSXSXSXSXSXSXSXSXSXSXSXSXSXSXSXSXSX",
"SXSXSXSXSXSXSXSXSXSXSXSXSXSXSXSX$ ^ @.+.+.t y 0.s.9.0.f u Z 2 SXSXSXSXSXSXSXSXSXSXSXSXSXSXSXSXSXSXSXSXSXSXSXSX",
"SXSXSXSXSXSXSXSXSXSXSXSXSXSXSXSX$ ..2.>.,.X.{ S 6.u u 5 3 y SXSXSXSXSXSXSXSXSXSXSXSXSXSXSXSXSXSXSXSXSXSXSXSXSX",
"SXSXSXSXSXSXSXSXSXSXSXSXSXSXSXSXSXj | <.>.>.o.V u : O SXSXSXSXSXSXSXSXSXSXSXSXSXSXSXSXSXSXSXSXSXSXSXSXSXSXSXSX",
"SXSXSXSXSXSXSXSXSXSXSXSXSXSXSXSXSXSXt .. . .d.V O : SXSXSXSXSXSXSXSXSXSXSXSXSXSXSXSXSXSXSXSXSXSXSXSXSXSXSXSXSX",
"SXSXSXSXSXSXSXSXSXSXSXSXSXSXSXSXSXSXSX& V F C f * SXSXSXSXSXSXSXSXSXSXSXSXSXSXSXSXSXSXSXSXSXSXSXSXSXSXSXSXSXSX",
"SXSXSXSXSXSXSXSXSXSXSXSXSXSXSXSXSXSXSXSX* * * & SXSXSXSXSXSXSXSXSXSXSXSXSXSXSXSXSXSXSXSXSXSXSXSXSXSXSXSXSXSXSX",
"SXSXSXSXSXSXSXSXSXSXSXSXSXSXSXSXSXSXSXSXSXSXSXSXSXSXSXSXSXSXSXSXSXSXSXSXSXSXSXSXSXSXSXSXSXSXSXSXSXSXSXSXSXSXSX"
};
