/* XPM */
static char *result[] = {
/* columns rows colors chars-per-pixel */
"64 64 247 2 ",
"   c #000001",
".  c #030A07",
"X  c #000114",
"o  c #00021C",
"O  c #040E14",
"+  c #04161B",
"@  c #111311",
"#  c #2D1211",
"$  c #000024",
"%  c #010923",
"&  c #001423",
"*  c #011923",
"=  c #061927",
"-  c #141B25",
";  c #1A1C26",
":  c #1D1E29",
">  c #141D2A",
",  c #190F24",
"<  c #261C28",
"1  c #2F1426",
"2  c #1C2128",
"3  c #092634",
"4  c #27242B",
"5  c #38222B",
"6  c #383325",
"7  c #382235",
"8  c #2F3036",
"9  c #002700",
"0  c #4E0907",
"q  c #7A0000",
"w  c #50112F",
"e  c #6A0033",
"r  c #46262C",
"t  c #4A2837",
"y  c #562A39",
"u  c #523332",
"i  c #652E29",
"p  c #6B322C",
"a  c #78362B",
"s  c #62293A",
"d  c #6C323E",
"f  c #693538",
"g  c #783637",
"h  c #77292E",
"j  c #492C1B",
"k  c #4C460C",
"l  c #5A4334",
"z  c #704C32",
"x  c #67440A",
"c  c #2E3A47",
"v  c #163453",
"b  c #6B1249",
"n  c #55364E",
"m  c #7B2A44",
"M  c #792B46",
"N  c #6A3343",
"B  c #743444",
"V  c #7A3645",
"C  c #7E3846",
"Z  c #763549",
"A  c #7B3649",
"S  c #7D3949",
"D  c #6B314C",
"F  c #523560",
"G  c #653561",
"H  c #095052",
"J  c #3B5455",
"K  c #31464D",
"L  c #1C6366",
"P  c #27605B",
"I  c #4E5657",
"U  c #544669",
"Y  c #614368",
"T  c #755475",
"R  c #526469",
"E  c #6E7071",
"W  c #755152",
"Q  c #920903",
"!  c #AE0B00",
"~  c #873B2D",
"^  c #883C36",
"/  c #8C332B",
"(  c #AA3A30",
")  c #9F1710",
"_  c #C23701",
"`  c #8D5203",
"'  c #99442A",
"]  c #994232",
"[  c #9A4437",
"{  c #8A502F",
"}  c #AC472E",
"|  c #A84838",
" . c #BA4E33",
".. c #B34D3C",
"X. c #B74D36",
"o. c #BC5135",
"O. c #BD513A",
"+. c #B65139",
"@. c #B8452C",
"#. c #96653B",
"$. c #B77A30",
"%. c #BA5D0A",
"&. c #C94C0A",
"*. c #CE6200",
"=. c #C34B2D",
"-. c #C34928",
";. c #C6542B",
":. c #C24C32",
">. c #C94C30",
",. c #C55435",
"<. c #CA5534",
"1. c #CC5836",
"2. c #C4543A",
"3. c #CB5D3A",
"4. c #C7583A",
"5. c #D15A35",
"6. c #CC643D",
"7. c #C9643F",
"8. c #C57634",
"9. c #D27534",
"0. c #833A46",
"q. c #8C3D44",
"w. c #833A49",
"e. c #8A3C49",
"r. c #933E44",
"t. c #843359",
"y. c #AA146E",
"u. c #943768",
"i. c #A72A75",
"p. c #B13974",
"a. c #860051",
"s. c #984445",
"d. c #85484E",
"f. c #A24642",
"g. c #B35241",
"h. c #946A45",
"j. c #906554",
"k. c #B56E4D",
"l. c #9A4D76",
"z. c #A5447B",
"x. c #B94A7E",
"c. c #A75270",
"v. c #AA6B6B",
"b. c #95756A",
"n. c #CA6945",
"m. c #D16B42",
"M. c #D47948",
"N. c #C67851",
"B. c #D1786A",
"V. c #DE8407",
"C. c #E38906",
"Z. c #E18E38",
"A. c #E5933B",
"S. c #E18D25",
"D. c #DF8B27",
"F. c #D9864A",
"G. c #C98856",
"H. c #D98A54",
"J. c #DC9256",
"K. c #DC955B",
"L. c #C5864F",
"P. c #E29245",
"I. c #E2944C",
"U. c #E39553",
"Y. c #E49955",
"T. c #E39B5C",
"R. c #E79A59",
"E. c #E18B52",
"W. c #E8A05F",
"Q. c #DB8C68",
"!. c #E49D63",
"~. c #E7A268",
"^. c #E5A574",
"/. c #F0AC73",
"(. c #777181",
"). c #CA3882",
"_. c #B35385",
"`. c #AD7592",
"'. c #C7578D",
"]. c #D95596",
"[. c #CD5190",
"{. c #E25B99",
"}. c #CA6597",
"|. c #E4649E",
" X c #EB619F",
".X c #ED65A2",
"XX c #F868A8",
"oX c #F770AB",
"OX c #7D8C8F",
"+X c #75A4AC",
"@X c #848587",
"#X c #8D9495",
"$X c #909294",
"%X c #A69B97",
"&X c #90AFB5",
"*X c #A8A6A7",
"=X c #A9B4B8",
"-X c #B5B9BA",
";X c #B1AEB5",
":X c #B39A9A",
">X c #D3938B",
",X c #C4A998",
"<X c #EBBB9D",
"1X c #E9B593",
"2X c #F0B991",
"3X c #D3B5B3",
"4X c #E3B4AD",
"5X c #C095A9",
"6X c #EDC5AD",
"7X c #EDC4A9",
"8X c #EFCAB5",
"9X c #EBC7BA",
"0X c #F1D0BD",
"qX c #F2CCB6",
"wX c #E5C5AF",
"eX c #9ABCC4",
"rX c #A8B8C1",
"tX c #9CC1C8",
"yX c #A7C4CA",
"uX c #BDC2C4",
"iX c #B5CFD4",
"pX c #CCCCCD",
"aX c #C3C4C5",
"sX c #C8CED0",
"dX c #C8D5D8",
"fX c #D6D7D8",
"gX c #D8CED0",
"hX c #F2D6C6",
"jX c #F9DBCA",
"kX c #F3DDD3",
"lX c #EBCFCC",
"zX c #F6E4DC",
"xX c #F8E4D9",
"cX c #DAE7EA",
"vX c #CDE6EA",
"bX c #E6E6E7",
"nX c #F7E8E1",
"mX c #F8EBE7",
"MX c #FBF1ED",
"NX c #EBF3F5",
"BX c #FBF4F1",
"VX c #F6FCFC",
"CX c #FFFFFE",
"ZX c #F9F8F7",
"AX c #E8EEF0",
"SX c #C7DDE2",
"DX c None",
/* pixels */
"DXDXDXDXDXDXDXDXDXDXDXDXDXDXDXDXDXDXDXDXDXDXDXDXDXDXDXDXDXDXDXDXDXDXDXDXDXDXDXDXDXDXDXDXDXDXDXDXDXDXDXDXDXDXDXDXDXDXDXDXDXDXDXDX",
"DXDXDXDXDXDXDXDXDXDXDXDXDXDXDXDXDXDXDXDXDXDXDXDXDXDXDXDXDXDXDXDXDXDXDXDXDXDXDXDXDXDXDXDXDXDXDXDXDXDXDXDXDXDXDXDXDXDXDXDXDXDXDXDX",
"DXDXDXDXDXDXDXDXDXDXDXDXDXDXDXDXDXDXDXDXDXDXDXDXDXDXDXDXDXDXDXDXDXDXDXDXDXDXDXDXDXDXDXDXDXDXDXDXDXDXDXDXDXDXDXDXDXDXDXDXDXDXDXDX",
"DXDXDXDXDXDXDXDXDXDXDXDXDXDXDXDXDXDXDXDXDXDXDXDXDXDXDXDXDXDXDXDXDXDXDXDXDXDXDXDXDXDXDXDXDXDXDXDXDXDXDXDXDXDXDXDXDXDXDXDXDXDXDXDX",
"DXDXDXDXDXDXDXDXDXDXDXDXDXDXDXDXDXDXDXDXDXDXDXDXDXDXDXDXDX$ $ $ $ % $ $ $ $ $ % + DXDXDXDXDXDXDXDXDXDXDXDXDXDXDXDXDXDXDXDXDXDXDX",
"DXDXDXDXDXDXDXDXDXDXDXDXDXDXDXDXDXDXDXDXDXDXDXDXDXDX$ DX~ [ ^ ] ] / | ^ / ( ] ^ t $ DX% DXDXDXDXDXDXDXDXDXDXDXDXDXDXDXDXDXDXDXDX",
"DXDXDXDXDXDXDXDXDXDXDXDXDXDXDXDXDXDXDXDXDXDXDXDXDXi { ~ ,.1.1.1.5.1.1.5.M.3.<.:.r.~ ~ g 7 DXDXDXDXDXDXDXDXDXDXDXDXDXDXDXDXDXDXDX",
"DXDXDXDXDXDXDXDXDXDXDXDXDXDXDXDXDXDXDXDXDXDXDXp p | 1.1.,.4.,.,.,.,.:.m.W.6.3.m.m.5.5.g.q.a t > DXDXDXDXDXDXDXDXDXDXDXDXDXDXDXDX",
"DXDXDXDXDXDXDXDXDXDXDXDXDXDXDXDXDXDXDXDXDXDXa  .>.:.@. .@.=.:.,.,.<.,.7.H.4.F.~.T.4.,.,.<.,.f.d < DXDXDXDXDXDXDXDXDXDXDXDXDXDXDX",
"DXDXDXDXDXDXDXDXDXDXDXDXDXDXDXDXDXDXDXDX1 / 5.6.6.6.9.7.m.m.6.:.:.:.,.,.,.,.F.K.J.4.,.,.<.,.<.f.N 5 DXDXDXDXDXDXDXDXDXDXDXDXDXDX",
"DXDXDXDXDXDXDXDXDXDXDXDXDXDXDXDXDXDXDX, ] 3.,.H.J.J.J.J.J.J.F.4.4.3.,.,.:.-.;.;.;.-.-.-.-.,.<.f.A B : DXDXDXDXDXDXDXDXDXDXDXDXDX",
"DXDXDXDXDXDXDXDXDXDXDXDXDXDXDXDXDXDX* } M.H.1 l l l l l l u #.Y.Y.T.M.:.,.,.,. .;.,.4.4.,.,.<.f.A C 4 DXDXDXDXDXDXDXDXDXDXDXDXDX",
"DXDXDXDXDXDXDXDXDXDXDXDXDXDXCXCXgX2 O H.k.d.|.{.].].].].].{._.z T.!.Y.F.-.lXMXmXMXMXZXZXlX_ <.s.Z 0.V 5 DXDXDXDXDXDXDXDXDXDXDXDX",
"DXDXDXDXDXDXDXDXDXDXDXDXDXCXCXCXCXfX8 k c.[.u.u.z.z.z.p..XoX].v z G.P.^.zXCXCXCXVXSXiXVXCX*Xn.>.f.C w.t DXDXDXDXDXDXDXDXDXDXDXDX",
"DXDXDXDXDXDXDXDXDXDXDXDXCXCXCXcXvXSX8 i._.t.  sX=X=XdXsX`.[..X'.o $.2XnXCXCXCXCXNXeX+XyXvXcXB._ ..Z 0.B y DXDXDXDXDXDXDXDXDXDXDX",
"DXDXDXDXDXDXDXDXDXDXDXCXCXCXCXdX+X+X3  Xp.I aXCXvXvXCXCXeX}.XX.X'.' 9XCXCXCXCXCXCXAXcXiXyXCX;Xk.@.w.0.w.d - DXDXDXDXDXDXDXDXDXDX",
"DXDXDXDXDXDXDXDXDXDXDXDXCXcX-XdXcXdX9 ].y.#XZXCXrXuXCXCXSX*X).oXXXe +XNXCXcXVXbX-XCXCXNXcXCXAX,X! s B s.a $ DXDXDXDXDXDXDXDXDXDX",
"DXDXDXDXDXDXDXDXDXDXDXDXCX&X@XbXCXZXc._.u.E pXpXE b.dXpX&XL e [.XXu.L yXCXyXcXbX%XVXCXCXCXCXCX,X) k.s.,.X.p DXDXDXDXDXDXDXDXDXDX",
"DXDXDXDXDXDXDXDXDXDXDXDXVXdXCXCXVXbXXX_.c . 8 8 . @ 8 4 - O O 5  X}.e R AXdXAXCXVXCXCXCXCXAXbXOX` R.1.:.1. .* DXDXDXDXDXDXDXDXDX",
"DXDXDXDXDXDXDXDXDXDXDXDXiXCXVXNXvXrXXXl.c O X X - - X X O < + t  XXXx.H yXNXCXCXCXCXCXCXAXeXc . h.R.<.<.4.| * DXDXDXDXDXDXDXDXDX",
"DXDXDXDXDXDXDXDXDXDXDX  R tXtXyXtX=XXXG . ; ; 2 : - 2 : : - O n  XXXx.H eXtXcXVXVXVXVXcXtX&XK # h.E.O.,.f.N * DXDXDXDXDXDXDXDXDX",
"DXDXDXDXDXDXDXDXDXDXDXDX= K eXyX+XD XXd.. - 2 ; ; ; - : 2 : O t  XXXx.@ K &XyXyXyXyXrXyX&XK r [ 3.7.e.q.q.d * DXE b.R DXDXDXDXDX",
"DXDXDXDXDXDXDXDXDXDXDXDXDX  I R c s .Xt.. ; 4 - ; - ; ; 2 4 ; y  XXXx.. # I R J J J J I K # L.Y.U.G.w.Z w.d =   dXVXcX4 DXDXDXDX",
"DXDXDXDXDXDXDXDXDXDXDXDXDXDX      D .Xw.. X     ; : : 2       n  XoXx.k G.j             0 +.m.m.m.n.w.0.w.N 1 } }.kXCX  DXDXDXDX",
"DXDXDXDXDXDXDXDXDXDXDXDXDXDXDX4 + D XXl.  E bX&XH       aXbXrX# .X'.G x A.9.*.$.L.G.k.| X.,.:.=.>.X.Z Z Z d 4 s.! m.4XfXE DXDXDX",
"DXDXDXDXDXDXDXDXDXDXDXDXDXDXDX4     _.}.a.$XCXNXdXpXpXpXCXVXuX  .X_.X I jXxXxX0XV.M.3.<.,.,.,.4.:. .......] = D s.! B.CX$XDXDXDX",
"DXDXDXDXDXDXDXDXDXDXDXDXDXDXDX  @X-XK  Xp.P pXCXCXCXCXCXCXsXE x._.t.@XgXCXCXCXZX8XH.,.@.=.:.:.@.6.M.1.<.5.} * Z Z / >XCX$XDXDXDX",
"DXDXDXDXDXDXDXDXDXDXDXDXDXDXDX  uXVX= _.'.m X -XsXsXsXsXdX5X).}.T . rXCXCXCXCXCXCX/.M.M.M.M.M.m.H.T.4.:.3.} * V S Q B.ZX@XDXDXDX",
"DXDXDXDXDXDXDXDXDXDXDXDXDXDXDX  :XkXh.3 '.XXl.i.i.i.i.i.i.'.}.U F z ,XxXxXxXZXCXMX!.Y.T.T.T.T.T.T.J.1.<.:.[ = V N v.4XCX$XDXDXDX",
"DXDXDXDXDXDXDXDXDXDXDXDXDXDXDXo #.Y.W.#.l.].|.|.|..X|.|.|._.U F z G.W.I.I.S.8XBXCX^.Y.T.W.W.T.T.W.Y.O.X.f.N < B Q 3XCXfX@XDXDXDX",
"DXDXDXDXDXDXDXDXDXDXDXDXDXDXDXo #.W.R.W.k.u U Y Y Y Y Y U U F z J.T.Y.Y.Y.Y.Z.7XMX~.I.J.J.J.J.J.U.H.w.A w.d : N ) 4XbXI DXDXDXDX",
"DXDXDXDXDXDXDXDXDXDXDXDXDXDXDXo #.Y.U.U.W.L.2 6 6 6 6 6 6 2 #.W.T.U.J.U.Y.Y.P.P.J.Y.m.,.,.,.4.,.,.O.0.A 0.d ; 0.O.} f   DXDXDXDX",
"DXDXDXDXDXDXDXDXDXDXDXDXDXDXDX& ^ M.!.!.Y.U.K.K.K.K.K.K.K.K.K.U.I.T.!.!.!.!.~.H.2.<.,.>.,.,.,.:.,.O.0.0.w.d 5  .f.s 8 DXDXDXDXDX",
"DXDXDXDXDXDXDXDXDXDXDXDXDXDXDX  *XMXMXBX8XZ.Y.Y.Y.Y.Y.Y.Y.Y.Y.Y.P.kXMXMXMXMXMXMXbXn.-.:.:.,.,.,.<.,.o.r.A A d i   *XbXI DXDXDXDX",
"DXDXDXDXDXDXDXDXDXDXDXDXDXDXDX  ;XVXCXCXZXhXZ.I.I.I.I.I.I.S.1XmXzXCXCXCXCXCXCXCXZX!.;.-.:.:.1.<.} i ,.,.s.w.w.= Q 4XCXcX`.DXDXDX",
"DXDXDXDXDXDXDXDXDXDXDXDXDXDXDX  ;XCXCXCXCXCXzXxXzXxXzXxXzXxXmXCXCXCXCXCXCXCXCXCXCX/.I.H.U.E.{ h a | ,.<.| Z C = ( B.9XCX#XDXDXDX",
"DXDXDXDXDXDXDXDXDXDXDXDXDXDXDX  b.qXCXCXCXCXCXCXCXCXCXCXCXCXCXCXCXCXnX<X7X1XMXNX%Xh.h.h.h.h.n a } 5.,.,.| A C ; ^ ! B.CX@XDXDXDX",
"DXDXDXDXDXDXDXDXDXDXDXDXDXDXDX  %X0XqX7XmXCXCXCXCXCXCXCXCXCXCXCX0X6X0XhXhXhXjX,X  h a / h / [ 2.1.,.,.<.| A 0.= n Q B.CXOXDXDXDX",
"DXDXDXDXDXDXDXDXDXDXDXDXDXDXDX  :XzX8X7XhXhXhXhXhXhXhXhXhXhXhXhX8X6XhXzXxXxXjX,X  <.1.<.;.<.,.,.,.,.,...s.B d y s v.lXZX$XDXDXDX",
"DXDXDXDXDXDXDXDXDXDXDXDXDXDXDX$ ` ~.mXMXhX1X<X7X<X<X<X<X<X<X<X<XnXMXqXV.Z.V.0XgX{ ] ,.1.<.,.,.,.,.,.<.s.S B + Z q 3XCXbXE DXDXDX",
"DXDXDXDXDXDXDXDXDXDXDXDXDXDXDXX h./.P.C.8XBXBXMXBXMXBXBXMXBXBXMX~.Z.Y.!.!.!.Y.I.H.i ' +.O.2.<.1.<.<.O.^ D D 7 / }.0XcX  DXDXDXDX",
"DXDXDXDXDXDXDXDXDXDXDXDXDXDXDX$ #.A.P.K.K.~.K.W.T.T.T.T.T.U.I.I.P.P.P.P.P.P.P.F.4.,.a y B V |  .X.X.B t ; 1 ) _ kXdX  DXDXDXDXDX",
"DXDXDXDXDXDXDXDXDXDXDXDXDXDXDXo [ B.^.W.I.P.I.I.I.U.I.I.P.T.^.~.^.^.^.^.^.^.^.~.J.4.,.' ; 5 r u r 5 5 g w N B.-.b.R DXDXDXDXDXDX",
"DXDXDXDXDXDXDXDXDXDXDXDXDXDXDX  *XBXBX1XI.K.T.W.T.T.T.T.A.hXBXBXBXBXBXZXBXBXBXxXZ.<.,.o. .=.@. .| V  .h @ #XMXE DXDXDXDXDXDXDXDX",
"DXDXDXDXDXDXDXDXDXDXDXDXDXDXDX  ;XCXCXBXBXkXD.I.P.P.P.P.xXCXCXCXCXCXCXCXCXCXCXzXZ.J.6.=.:.<.<.f.s.,.1.i o W >XAX*XDXDXDXDXDXDXDX",
"DXDXDXDXDXDXDXDXDXDXDXDXDXDXDXO j.4XCXCXCXCXnXzXnXnXnXnXCXCXCXCXCXCXCXCXCXCXCXzXA.T.J.H.H.H.J.n.X.<.1.i 7 ) <.CX-X  DXDXDXDXDXDX",
"DXDXDXDXDXDXDXDXDXDXDXDXDXDXDX= 0 v.CXCXCXCXCXCXCXCXCXCXCXCXCXCX8X7X6X7X6X6XqX2XU.Y.T.T.T.W.F.6.<. .~ 5 y r.s.*XOXDXDXDXDXDXDXDX",
"DXDXDXDXDXDXDXDXDXDXDXDXDXDXDXDX# d.4XZXCXCXCXCXCXCXCXCXCXnX8X8XF.C.S.S.*.*.*.9.~.W.W.W.Y.M.>.=.<.:.& o t d.g.  DXDXDXDXDXDXDXDX",
"DXDXDXDXDXDXDXDXDXDXDXDXDXDXDXDXDX0 Q 3XgXhXjXjXjXjXjXjXjX2XC.A.!.!.H.M.2.2.2.m.H.N.k.N.k.( | g.| ~ 4 ~ | ..] f DXDXDXDXDXDXDXDX",
"DXDXDXDXDXDXDXDXDXDXDXDXDXDXDXDXDX7 D e Q _ 8.8.8.8.8.8.8.N.G.G.G.g.( | g.....| | M Z M M S S B t & * ] +.' $ DXDXDXDXDXDXDXDXDX",
"DXDXDXDXDXDXDXDXDXDXDXDXDXDXDXDXDXDX& ^ C B M m m m m m m m A M t.0.w.V D M B Z Z w.w.A w.w.B t & < : 1 1 , DXDXDXDXDXDXDXDXDXDX",
"DXDXDXDXDXDXDXDXDXDXDXDXDXDXDXDXDXDX< o...S Z B B B B V Z V B B M M B d < 0.s.s.q.A S w.w.Z 5 DXDXDXDXDXDXDXDXDXDXDXDXDXDXDXDXDX",
"DXDXDXDXDXDXDXDXDXDXDXDXDXDXDXDXDX5 0.O.<.+.0.r 5 4 ; ; 2 4 : < ; < = r e.O.<.,.:.s.w.w.d * * < 5 < DXDXDXDXDXDXDXDXDXDXDXDXDXDX",
"DXDXDXDXDXDXDXDXDXDXDXDXDXDXDXDXDXu o.,.,.,.o.q.S s * > DXDXDXDXDXDXDXi ,.,.,.,.,.O.r.t = 1 < f w.V < DXDXDXDXDXDXDXDXDXDXDXDXDX",
"DXDXDXDXDXDXDXDXDXDXDXDXDXDXDX= y q.,.,.<.o.e.e.s 5 > DXDXDXDXDXDXDXDXp ,.,.,.,.o.s.y * 5 V V A e.C < DXDXDXDXDXDXDXDXDXDXDXDXDX",
"DXDXDXDXDXDXDXDXDXDXDXDXDXDXDXX g 2.,.<...w.Z y DXDXDXDXDXDXDXDXDXDXDXt r.,.<.,.,... .[ V w.e.w.S C 4 DXDXDXDXDXDXDXDXDXDXDXDXDX",
"DXDXDXDXDXDXDXDXDXDXDXDXDXDX= y | <.<.| e.Z t DXDXDXDXDXDXDXDXDXDXDXDXDXt s.O.1.1.5.5.| 7 r < [ | 7 DXDXDXDXDXDXDXDXDXDXDXDXDXDX",
"DXDXDXDXDXDXDXDXDXDXDXDX% % & N s.s.f.e.B r DXDXDXDXDXDXDXDXDXDXDXDXDXDXDX7 g ~ ~ ~ ^ i & - ] 1.X.& DXDXDXDXDXDXDXDXDXDXDXDXDXDX",
"DXDXDXDXDXDXDXDXDXDXDX~ | ] & y w.V S B r DXDXDXDXDXDXDXDXDXDXDXDXDXDXDXDXDX% $ $ $ $ DX> 4 ] } a DXDXDXDXDXDXDXDXDXDXDXDXDXDXDX",
"DXDXDXDXDXDXDXDXDXDX& ^ 2.1.' ^ A C d < DXDXDXDXDXDXDXDXDXDXDXDXDXDXDXDXDXDXDXDXDXDXDXDXDX- $ $ DXDXDXDXDXDXDXDXDXDXDXDXDXDXDXDX",
"DXDXDXDXDXDXDXDXDXDXDX7 0...2.s.w.C = DXDXDXDXDXDXDXDXDXDXDXDXDXDXDXDXDXDXDXDXDXDXDXDXDXDXDXDXDXDXDXDXDXDXDXDXDXDXDXDXDXDXDXDXDX",
"DXDXDXDXDXDXDXDXDXDXDXDXr Z N Z V d 4 DXDXDXDXDXDXDXDXDXDXDXDXDXDXDXDXDXDXDXDXDXDXDXDXDXDXDXDXDXDXDXDXDXDXDXDXDXDXDXDXDXDXDXDXDX",
"DXDXDXDXDXDXDXDXDXDXDXDXDX: : < < < DXDXDXDXDXDXDXDXDXDXDXDXDXDXDXDXDXDXDXDXDXDXDXDXDXDXDXDXDXDXDXDXDXDXDXDXDXDXDXDXDXDXDXDXDXDX",
"DXDXDXDXDXDXDXDXDXDXDXDXDXDXDXDXDXDXDXDXDXDXDXDXDXDXDXDXDXDXDXDXDXDXDXDXDXDXDXDXDXDXDXDXDXDXDXDXDXDXDXDXDXDXDXDXDXDXDXDXDXDXDXDX"
};
