/* XPM */
static char *result[] = {
/* columns rows colors chars-per-pixel */
"65 54 230 2 ",
"   c black",
".  c #070006",
"X  c #130603",
"o  c #1D1B04",
"O  c #1D1C07",
"+  c #00001B",
"@  c #000415",
"#  c #1E1616",
"$  c #0B1200",
"%  c #201A16",
"&  c #290000",
"*  c #222017",
"=  c #23221C",
"-  c #00012C",
";  c #00082A",
":  c #00162B",
">  c #000533",
",  c #001A33",
"<  c #001633",
"1  c #191A32",
"2  c #27142A",
"3  c #002133",
"4  c #062837",
"5  c #1B2D3B",
"6  c #172B36",
"7  c #0E313B",
"8  c #262625",
"9  c #282627",
"0  c #262C26",
"q  c #2A2A2B",
"w  c #272A29",
"e  c #2D2C32",
"r  c #242D3B",
"t  c #292E39",
"y  c #322E36",
"u  c #2B303B",
"i  c #32313C",
"p  c #39353E",
"a  c #1F2011",
"s  c #400000",
"d  c #64080E",
"f  c #453235",
"g  c #45373B",
"h  c #563837",
"j  c #4C2930",
"k  c #6C343E",
"l  c #4A2911",
"z  c #594135",
"x  c #6C493D",
"c  c #02004D",
"v  c #000042",
"b  c #131152",
"n  c #1B3442",
"m  c #3B3747",
"M  c #3B3859",
"N  c #2F304F",
"B  c #3E3763",
"V  c #293C77",
"C  c #443A42",
"Z  c #433D54",
"A  c #5D3B41",
"S  c #683D43",
"D  c #7A3843",
"F  c #782746",
"G  c #423A67",
"H  c #54347C",
"J  c #680043",
"K  c #3E4252",
"L  c #3A4669",
"P  c #53444A",
"I  c #5B4749",
"U  c #47465A",
"Y  c #55514F",
"T  c #674949",
"R  c #744A47",
"E  c #745949",
"W  c #684F51",
"Q  c #635A55",
"!  c #655A56",
"~  c #765452",
"^  c #7A5A56",
"/  c #675148",
"(  c #72704F",
")  c #4B4A64",
"_  c #4A4665",
"`  c #53466C",
"'  c #51516D",
"]  c #525C63",
"[  c #4B4B74",
"{  c #594A76",
"}  c #47557E",
"|  c #555574",
" . c #5B5B7D",
".. c #58567A",
"X. c #5C647A",
"o. c #5A6369",
"O. c #666B74",
"+. c #717579",
"@. c #7E5A77",
"#. c #8E2429",
"$. c #853E45",
"%. c #86474A",
"&. c #964A4C",
"*. c #845957",
"=. c #92534E",
"-. c #A55C57",
";. c #B65A57",
":. c #AD5F45",
">. c #97665B",
",. c #8D6A53",
"<. c #A7675A",
"1. c #B86559",
"2. c #B57A5D",
"3. c #A4755B",
"4. c #876B62",
"5. c #8C7367",
"6. c #946D6A",
"7. c #A26D69",
"8. c #AA7469",
"9. c #B57A68",
"0. c #B77B73",
"q. c #C2645B",
"w. c #CE6962",
"e. c #D16D63",
"r. c #DB7C69",
"t. c #D77466",
"y. c #CA7463",
"u. c #E1796B",
"i. c #A98573",
"p. c #B9876B",
"a. c #C98C66",
"s. c #DA876B",
"d. c #DD966F",
"f. c #DA966E",
"g. c #C78578",
"h. c #D28C7E",
"j. c #DE9A70",
"k. c #CD9273",
"l. c #E2876D",
"z. c #E49471",
"x. c #E29C72",
"c. c #EB9973",
"v. c #CDB872",
"b. c #E9A778",
"n. c #E6B17F",
"m. c #ECD774",
"M. c #E7D05D",
"N. c #5B4588",
"B. c #495782",
"V. c #545F85",
"C. c #5D5C83",
"Z. c #634F82",
"A. c #665289",
"S. c #6A538C",
"D. c #665488",
"F. c #6D5690",
"G. c #6D5C93",
"H. c #675B92",
"J. c #5A6485",
"K. c #64658A",
"L. c #666888",
"P. c #6A6A92",
"I. c #6E6D9C",
"U. c #6A6494",
"Y. c #72689B",
"T. c #74749B",
"R. c #6E7A94",
"E. c #756EA1",
"W. c #7573A3",
"Q. c #7975A6",
"!. c #7B7BAB",
"~. c #7776A8",
"^. c #7E7EB1",
"/. c #6868A2",
"(. c #8B7394",
"). c #B27987",
"_. c #817FAF",
"`. c #7C879E",
"'. c #7D889F",
"]. c #778385",
"[. c #7B84A7",
"{. c #7F80B0",
"}. c #8B8B8C",
"|. c #949492",
" X c #9B9B9D",
".X c #989797",
"XX c #8D8D93",
"oX c #B49482",
"OX c #ABA18F",
"+X c #8488AC",
"@X c #8182B4",
"#X c #8E8FB2",
"$X c #8D9BBA",
"%X c #8B94B8",
"&X c #989BBB",
"*X c #9995A6",
"=X c #96A5BF",
"-X c #9CA6A9",
";X c #A7A8A8",
":X c #BCBBBC",
">X c #B4B3B4",
",X c #ACA5B1",
"<X c #C49C85",
"1X c #C99E86",
"2X c #D49684",
"3X c #CDA28A",
"4X c #D2B18F",
"5X c #E5B598",
"6X c #ECBB9C",
"7X c #E5B397",
"8X c #EAB48F",
"9X c #E39B89",
"0X c #EBCA8D",
"qX c #F8C4A3",
"wX c #99A7C2",
"eX c #9AA9C4",
"rX c #B5B9C6",
"tX c #ACB4CD",
"yX c #949DC1",
"uX c #BDC4D5",
"iX c #C8C8C8",
"pX c #CACCD6",
"aX c #D7D6D8",
"sX c #D1CDD8",
"dX c #DADCE2",
"fX c #E8E9EB",
"gX c #EAEBF1",
"hX c #FEFEFE",
"jX c #F5F5F6",
"kX c None",
/* pixels */
"kXkXkXkXkXkXkXkXkXkXkXkXkXkXkXkXkXkXkXkXkXkXkXkXkXkXkXkXkXkXkXkXkXkXkXkXkXkXkXkXkXkXkXkXkXkXkXkXkXkXkXkXkXkXkXkXkXkXkXkXkXkXkXkXkX",
"kXkXkXkXkXkXkXkXkXkXkXkXkXkXkXkXkXkXkXkXkXkXkXkXkXkXkXkXkXkXkXkXkXkXkXkXkXkXkXkXkXkXkXkXkXkXkXkXkXkXkXkXkXkXkXkXkXkXkXkXkXkXkXkXkX",
"kXkXkXkXkXkXkXkXkXkXkXkXkXkXkXkXkXkXkXkXkXkXkXkXkXkXkXkXkXkXkXkXkXkXkXkXkXkXkXkXkXkXkXkXkXkXkXkXkXkXkXkXkXkXkXkXkXkXkXkXkXkXkXkXkX",
"kXkXkXkXkXkXkXkXkXkXkXkXkXkXkXkXkXkXkXkXkXkXkXkXkXkXkXkXkXkXkXkXkXkXkXkXkXkXkXkXkXkXkXkXkXkXkXkXkXkXkXkXkXkXkXkXkXkXkXkXkXkXkXkXkX",
"kXkXkXkXkXkXkXkXkXkXkXkXkXkXkXkXkXkXkXkXkXkXkXkXkXkXkXkXkXkXkXkXkXkXkXkXkXkXkXkXkXkXkXkXkXkXkXkXkXkXkXkXkXkXkXkXkXkXkXkXkXkXkXkXkX",
"kXkXkXkXkXkXkXkXkXkXkXkXkXkXkXkXkXkXkXkXkXkXkXkXkXkXkXkXkXkXkXkXkXkX9 8 9 9 9 9 9 9 9 9 9 9 q q e e kXkXkXkXkXkXkXkXkXkXkXkXkXkXkX",
"kXkXkXkXkXkXkXkXkXkXkXkXkXkXkXkXkXkXkXkXkXkXkXkXkXkXkXkXkXkXkXkXkXt | P.K.K.K.K.K.K.K.K.K.K.K.{ ` { Z kXkXkXkXkXkXkXkXkXkXkXkXkXkX",
"kXkXkXkXkXkXkXkXkXkXkXkXkXkXkXkXkXkXkXkXkXkXkXkXkXkXkXkXkXkXkXkXq U T.@X!.!.!.!.!.!.!.!.!.!.!.G.S.S.{ y kXkXkXkXkXkXkXkXkXkXkXkXkX",
"kXkXkXkXkXkXkXkXkXkXkXkXkXkXkXkXkXkXkXkXkXkXkXkXkXkXkXkXkXkXkXq ..W.@XI.b v c c c c c c c > N /.Q.S.Z.{ m kXkXkXkXkXkXkXkXkXkXkXkX",
"kXkXkXkXkXkXkXkXkXkXkXkXkXkXkXkXkXkXkXkXkXkXkXkXkXkXkXkXkXkXkXq P.@XT.T.|.|..X.X|.|.|.|..X|.XXT.U.S.S.D.U 0 kXkXkXkXkXkXkXkXkXkXkX",
"kXkXkXkXkXkXkXkXkXkXkXkXkXkXkXkXkXkXkXkXkXkXkXkXkXkXkXkXkXkXkXq L.Q.b .XjXhXhXhXhXjXhXhXhXhXgX}.v S.F.Z.Z q kXkXkXkXkXkXkXkXkXkXkX",
"kXkXkXkXkXkXkXkXkXkXkXkXkXkXkXkXkXkXkXkXkXkXkXkXkXkXkXkXkXkXkXq P._.>  XhXfX:X:XfXhXaX:X:XgXhX}.+ S.F.Z.Z q kXkXkXkXkXkXkXkXkXkXkX",
"kXkXkXkXkXkXkXkXkXkXkXkXkXkXkXkXkXkXkXkXkXkXkXkXkXkXkXkXkXkXkXq P.Q.v ;XhX>X    >XhX X    iXhXXX> A.F.Z.Z 0 kXkXkXkXkXkXkXkXkXkXkX",
"kXkXkXkXkXkXkXkXkXkXkXkXkXkXkXkXkXkXkXkXkXkXkXkXkXkXkXkXkXkXkXq K.!.- ;XhX>X    ;XhX.X    iXhXXX. A.F.Z.Z 0 kXkXkXkXkXkXkXkXkXkXkX",
"kXkXkXkXkXkXkXkXkXkXkXkXkXkXkXkXkXkXkXkXkXkXkXkXkXkXkXkXkXkXkXq K.!.[ XXaXrX X XaXhXiX X XiXsX}.G A.F.Z.Z 0 kXkXkXkXkXkXkXkXkXkXkX",
"kXkXkXkXkXkXkXkXkXkXkXkXkXkXkXkXkXkXkXkXkXkXkXkXkXkXkXkXkXkXkXq L.!._.H.i iXhXhXhXhXhXhXhX:X1 I.Q.A.S.Z.U 0 kXkXkXkXkXkXkXkXkXkXkX",
"kXkXkXkXkXkXkXkXkXkXkXkXkXkXkXkXkXkXkXkXkXkXkXkXkXkXkXkXkXkXkXq H.^._.V.  aXhXiXdXhXaXsXhXiX  U.!.S.S.Z.Z 0 kXkXkXkXkXkXkXkXkXkXkX",
"kXkXkXkXkXkXkXkXkXkXkXkXkXkXkXkXkXkXkXkXkXkXkXkXkXkXkXkXkXkXkXq K.^._.K.M pXfXG.,XgX#X(.gXrXN I.Q.S.S.Z.Z 0 kXkXkXkXkXkXkXkXkXkXkX",
"kXkXkXkXkXkXkXkXkXkXkXkXkXkXkXkXkXkXkXkXkXkXkXkXkX= = q i kXkXq K.!.^.~.T.#X&X!.@X&X_.Q.&X#XT.!.E.S.S.Z.Z 0 kXp i 8 = = kXkXkXkXkX",
"kXkXkXkXkXkXkXkXkXkXkXkXkXkXkXkXkXkXkXkXkXkXkXkX' K.L.| i kXkX= K.{.!.!.^.W./.!.~./.~.!./.W.@X@XE.S.S.Z.Z 0 kXq U  .K...U kXkXkXkX",
"kXkXkXkXkXkXkXkXkXkXkXkXkXkXkXkXkXkXkXkXkXkXkXy P.@X@XP.y kXkXe K.!.!.!.!.!.!.!.!.!.!.!.!.!.!.!.E.S.D. .Z 8 kXo ' W.@XW.' O kXkXkX",
"kXkXkXkXkXkXkXkXkXkXkXkXkXkXkXkXkXkXkXkXkXkXkXy I.!. .m 8 $ i ` D.U.Q.Q.G.E.!.!.!.!.!.!.!.E.G.U.G.S.H m q a o o i ) I.!.| O kXkXkX",
"kXkXkXkXkXkXkXkXkXkXkXkXkXkXkXkXkXkXkXkXkXkXkXt P.!.) U _ ) ..G.G.G.!.Q.G.E.!.!.!.!.!.^.!.E.S.H.G.G...U ) ) ' ' U U P.!.| O kXkXkX",
"kXkXkXkXkXkXkXkXkXkXkXkXkXkXkXkXkXkXkXkXkXkXkXi P.@X!.!.Q.!.!.!.!.!.^.!.!.!.@X^.^._.!.^.^.!.!.!.!.!.!.Q._.Q.Q.Q.!.W.@XQ.| O kXkXkX",
"kXkXkXkXkXkXkXkXkXkXkXkXkXkXkXkXkXkXkXkXkXkXkXy | P.P.P.P.P.K.K.K.K.K.C.J.J.V.V.V.J.V.C.K.K.K.K.K.K.K.K.K.K.K.P.P.P.P.K.U kXkXkXkX",
"kXkXkXkXkXkXkXkXkXkXkXkXkXkXkXkXkXkXkXkXkXkXkXkXe e q e q e e q e e q y f f f p f f f y q q e q e e e e e e e e q q q e kXkXkXkXkX",
"kXkXkXkXkXkXkXkXkXkXkXkXkXkXkXkXkXkXkXkXkXkXkXkXkXkXkXkXkXy t : 4 t ; k ;.;.;.;.;.;.q.=.r 4 e       . y : 3 y q kXkXkXkXkXkXkXkXkX",
"kXkXkXkXkXkXkXkXkXkXkXkXkXkXkXkXkXkXkXkXkXkXkXkXkXkXkXkXkX5 P ~ S i / <.r.r.r.t.r.r.u.y.%.j K }.;X XO.e ~ ~ m kXkXkXkXkXkXkXkXkXkX",
"kXkXkXkXkXkXkXkXkXkXkXkXkXkXkXkXkXkXkXkXkXkXkXkXkXkXkXkXkX< ~ g.>.g a.x.d.f.d.d.f.d.j.s.y.#.] fXhXhX;X& y.8.n kXkXkXkXkXkXkXkXkXkX",
"kXkXkXkXkXkXkXkXkXkXkXkXkXkXkXkXkXkXkXkXkXkXkXkXkXkXkXkXkX- 5.9X8.1 a.b.j.b.n.n.b.j.x.j.u.#.; ;XiX:X+.k g.0.n kXkXkXkXkXkXkXkXkXkX",
"kXkXkXkXkXkXkXkXkXkXkXkXkXkXkXkXkXkXkXkXkXkXkXkXkXkXkXkXkX+ 5.6XoX/ p.j.j.b.0X0Xn.x.d.f.w.7.o.; + Y n T g.8.r kXkXkXkXkXkXkXkXkXkX",
"kXkXkXkXkXkXkXkXkXkXkXkXkXkXkXkXkXkXkXkXkXkXkX3 r p kXkXkX+ 5.5X6X3XE =.x.b.b.b.b.x.l.q.d :XfX+.}.gX-X& g.0.r kXkXkXkXkXkXkXkXkXkX",
"kXkXkXkXkXkXkXkXkXkXkXkXkXkXkXkXkXkXkXkXkXkXI E W r kXkXkX+ 5.5XqXqXi.4.2.2.2.2.2.2.<.&.k >XdXO.R.dX;X=.g.8.4 > kXkXkXkXkXkXkXkXkX",
"q X.!.) M ~._.~._ X u m y y t y y y i kXkX3 ~ 8.~ 4 r r t - 4.5XqX6XqX3Xp , i y i i < ~ g.8.n r 6 p 8.h.2X7.5 4 u kXkXkXkXkXkXkXkX",
"= J.yXpXsX%XtXgXdX:XR.R.'.`.`.`.'.[.+XO.  3 T <.S Y oX2X8.I C 5.3XqXqX6X<X<X<X<X<X<X<X3X6Xh.<.8.7.<.g.h.>.*.;.2.3.5 kXkXkXkXkXkXkX",
"# L.eXgXjXtXdXhXhXjXrXeXwXwXwXwX=XeXeX'.M r k =.j ~ 7X6Xh.*.> 2 i.7X4X7X5X5X5X5X5X5X5X5X7X2Xg.p.g.g.g.9.A =.r.c.f.*.C kXkXkXkXkXkX",
"# R.wXeXpXhXdXtXjXhXjXpX$X=X=X=X=X=X=X%X/.L x 8.R I 2X9X2X^ k ;.>.Y Q Q Q Q Q Q ! ! ! Q Q Y P P P P K T ;.t.d.j.d.f.>.3 kXkXkXkXkX",
"#  .[.[.eXdXrXyXpXfXgXuX$X%X%X%X$X$X$X+XK.M x 3.R C >.8.7.P R t.1.F D #.D $.$.$.$.$.$.$.$.D %.%.R %.$.&.w.s.j.x.x.b.p.; , kXkXkXkX",
"kXkXi P.!.W.+XwX[.[.$XyX$X+XQ.!.!.!.!.D.9 6 S &.S 5 n t u < E f.d.e.e.e.w.w.e.e.t.e.e.e.w.e.e.e.e.e.e.w.w.r.j.j.j.x.9.5 m i kXkXkX",
"kXkXkX' ..[ J.O.} } X.L.L...| ..| .. .) kX7 S &.D 5 r n r < E f.c.z.z.z.z.:.d F F F J =.l.z.z.x.l.t.u.w.=.<.r.<.x x i.oX^ - kXkXkX",
"kXkXkX% * * O X # * X . X % * * a * * kXkX7 A %.T t y i i , E a.a.a.a.a.a.oXR.( ( ( ( i.a.a.a.a.a.;.w.<.t D ;.>.! ! 3XqX6.@ kXkXkX",
"kXkXkXkXkXkXkXkXkXkXkXkXkXkXkXkXkXkXkXkXkXkXkXC Z i kXkXkXN p h z z z l l pXjX0XM.m.M.v./ j z z h f h h e 1 T 3XqX6XqX6X5.+ kXkXkX",
"kXkXkXkXkXkXkXkXkXkXkXkXkXkXkXkXkXkXkXkXkXkXkX4 u kXkXkXkXq K } B.} V.B.B.tXaX4Xv.OXv.v.' V B.B.} } L B ` N 7 i.3X<X3Xi.^ kXkXkXkX",
"kXkXkXkXkXkXkXkXkXkXkXkXkXkXkXkXkXkXkXkXkXkXkXkXkXkXkXkXkXo | !.^.!.!.!.!.H.H N.N.N.N.B.Z.I.{.!._._.Y.A.H.{ y 4 : , , , kXkXkXkXkX",
"kXkXkXkXkXkXkXkXkXkXkXkXkXkXkXkXkXkXkXkXkXkXkXkXkXkXkXkXkXo ' ~.@X!. .U ' _ M M B B B G _ U | W.@X^.Y.S.F.{ m : kXkXkXkXkXkXkXkXkX",
"kXkXkXkXkXkXkXkXkXkXkXkXkXkXkXkXkXkXkXkXkXkXkXkXkXkXkXkXkXa ' ~.^.I.` 2 8 8 q q w w w q w o m P.!.W.D.{ ..` i kXkXkXkXkXkXkXkXkXkX",
"kXkXkXkXkXkXkXkXkXkXkXkXkXkXkXkXkXkXkXkXkXkXkXkXkXkXkXkXkXO | !.E.Z.A.{ i kXkXkXkXkXkXkXkXw m Z.H.A.G 5 m m kXkXkXkXkXkXkXkXkXkXkX",
"kXkXkXkXkXkXkXkXkXkXkXkXkXkXkXkXkXkXkXkXkXkXkXkXkXkXkXkXkXkXK J.(.).).(.m kXkXkXkXkXkXkXkXkXm B @.).0.>.I 3 kXkXkXkXkXkXkXkXkXkXkX",
"kXkXkXkXkXkXkXkXkXkXkXkXkXkXkXkXkXkXkXkXkXkXkXkXkXkXkXkXkXkXkX@ >.h.h.9.m kXkXkXkXkXkXkXkXkXkX; ^ g.2X0.T ; kXkXkXkXkXkXkXkXkXkXkX",
"kXkXkXkXkXkXkXkXkXkXkXkXkXkXkXkXkXkXkXkXkXkXkXkXkXkXkXkXkXkXkXkXT ^ ^ W m kXkXkXkXkXkXkXkXkXkXt P ^ *.W kXkXkXkXkXkXkXkXkXkXkXkXkX",
"kXkXkXkXkXkXkXkXkXkXkXkXkXkXkXkXkXkXkXkXkXkXkXkXkXkXkXkXkXkXkXkXkX: ; 3 i kXkXkXkXkXkXkXkXkXkXm 5 < > ; kXkXkXkXkXkXkXkXkXkXkXkXkX",
"kXkXkXkXkXkXkXkXkXkXkXkXkXkXkXkXkXkXkXkXkXkXkXkXkXkXkXkXkXkXkXkXkXkXkXkXkXkXkXkXkXkXkXkXkXkXkXkXkXkXkXkXkXkXkXkXkXkXkXkXkXkXkXkXkX",
"kXkXkXkXkXkXkXkXkXkXkXkXkXkXkXkXkXkXkXkXkXkXkXkXkXkXkXkXkXkXkXkXkXkXkXkXkXkXkXkXkXkXkXkXkXkXkXkXkXkXkXkXkXkXkXkXkXkXkXkXkXkXkXkXkX",
"kXkXkXkXkXkXkXkXkXkXkXkXkXkXkXkXkXkXkXkXkXkXkXkXkXkXkXkXkXkXkXkXkXkXkXkXkXkXkXkXkXkXkXkXkXkXkXkXkXkXkXkXkXkXkXkXkXkXkXkXkXkXkXkXkX"
};
