/* XPM */
static char *result[] = {
/* columns rows colors chars-per-pixel */
"64 64 249 2 ",
"   c #000000",
".  c #020905",
"X  c #07140B",
"o  c #050819",
"O  c #071318",
"+  c #141519",
"@  c #1A050B",
"#  c #390000",
"$  c #291B1B",
"%  c #310212",
"&  c #000324",
"*  c #000A24",
"=  c #001424",
"-  c #001923",
";  c #051728",
":  c #151A24",
">  c #191C26",
",  c #181D28",
"<  c #031334",
"1  c #2D1F29",
"2  c #271D28",
"3  c #311030",
"4  c #1D222B",
"5  c #0C3036",
"6  c #272529",
"7  c #38222B",
"8  c #2E2735",
"9  c #353213",
"0  c #500608",
"q  c #6E0509",
"w  c #461925",
"e  c #51152D",
"r  c #6B1432",
"t  c #48272A",
"y  c #54382E",
"u  c #513629",
"i  c #492835",
"p  c #562B39",
"a  c #4F3331",
"s  c #662D2A",
"d  c #68352B",
"f  c #77352C",
"g  c #652D3A",
"h  c #6B313E",
"j  c #663136",
"k  c #7B3833",
"l  c #4C370F",
"z  c #04413F",
"x  c #644538",
"c  c #755132",
"v  c #5F4236",
"b  c #2B3B4B",
"n  c #002C50",
"m  c #582B42",
"M  c #4E3858",
"N  c #692745",
"B  c #7A2948",
"V  c #772946",
"C  c #683441",
"Z  c #733442",
"A  c #7A3645",
"S  c #7B3845",
"D  c #7B3649",
"F  c #7E3849",
"G  c #753649",
"H  c #732357",
"J  c #5C3664",
"K  c #005A5A",
"L  c #374F53",
"P  c #30484E",
"I  c #307072",
"U  c #5B585A",
"Y  c #4A494E",
"T  c #5A4268",
"R  c #4C5563",
"E  c #705274",
"W  c #5B6265",
"Q  c #566C6C",
"!  c #6C6F73",
"~  c #635051",
"^  c #951512",
"/  c #A70000",
"(  c #93320F",
")  c #AC3212",
"_  c #893C2C",
"`  c #893C33",
"'  c #97342D",
"]  c #AE3835",
"[  c #C23808",
"{  c #C71600",
"}  c #954232",
"|  c #9C4335",
" . c #904D33",
".. c #AB4A33",
"X. c #AC4A3D",
"o. c #A64637",
"O. c #B34D3B",
"+. c #B84D35",
"@. c #BD5336",
"#. c #BD5139",
"$. c #B6533B",
"%. c #AB4A2B",
"&. c #90613D",
"*. c #B56E24",
"=. c #C3441A",
"-. c #C85113",
";. c #D16D07",
":. c #C3492C",
">. c #C34C31",
",. c #C84F33",
"<. c #C55335",
"1. c #CA5634",
"2. c #C5533A",
"3. c #CA5A39",
"4. c #D15935",
"5. c #D35A38",
"6. c #CE562E",
"7. c #C37428",
"8. c #CA663A",
"9. c #D46A3D",
"0. c #833A46",
"q. c #8B3D45",
"w. c #843A49",
"e. c #893948",
"r. c #913F43",
"t. c #923969",
"y. c #A83878",
"u. c #A22A64",
"i. c #920A56",
"p. c #9B4343",
"a. c #974347",
"s. c #834C45",
"d. c #A84843",
"f. c #B55944",
"g. c #AD5346",
"h. c #986843",
"j. c #BC7D4A",
"k. c #BE764E",
"l. c #B14C7B",
"z. c #A26666",
"x. c #C75C55",
"c. c #C25D46",
"v. c #CE6941",
"b. c #D16A42",
"n. c #D27445",
"m. c #D37849",
"M. c #C86658",
"N. c #C77A55",
"B. c #CC744E",
"V. c #CE7664",
"C. c #DF851C",
"Z. c #E38C0E",
"A. c #D9863A",
"S. c #DC8529",
"D. c #E08D36",
"F. c #E4923A",
"G. c #E18B2E",
"H. c #BD8758",
"J. c #D9864B",
"K. c #DE9144",
"L. c #C88754",
"P. c #DB8952",
"I. c #DB9355",
"U. c #DA9557",
"Y. c #C5864E",
"T. c #E29345",
"R. c #E2954C",
"E. c #E39554",
"W. c #E49B5C",
"Q. c #E99C5B",
"!. c #E49758",
"~. c #EB9756",
"^. c #E9A15E",
"/. c #D68E74",
"(. c #E59E64",
"). c #E09870",
"_. c #E6A269",
"`. c #E5A574",
"'. c #637D84",
"]. c #C93D86",
"[. c #AF5C88",
"{. c #C54983",
"}. c #C7558B",
"|. c #D2578E",
" X c #D75795",
".X c #D24F8F",
"XX c #CB6196",
"oX c #D96098",
"OX c #E4629C",
"+X c #E9619E",
"@X c #FD6BAC",
"#X c #F565A4",
"$X c #ED67A3",
"%X c #DA689F",
"&X c #728A8E",
"*X c #7B9CA3",
"=X c #70A1A6",
"-X c #8E9394",
";X c #AA9092",
":X c #839DA3",
">X c #91AFB5",
",X c #A9A8A9",
"<X c #ADB4B5",
"1X c #B6B8B9",
"2X c #B5ACAF",
"3X c #D29F9A",
"4X c #D2A696",
"5X c #E8B99A",
"6X c #EFB28F",
"7X c #D58CAE",
"8X c #CCB1AF",
"9X c #EBBFA3",
"0X c #E8B3AC",
"qX c #EDC5AC",
"wX c #EECAB6",
"eX c #F1CCB5",
"rX c #F2D2BF",
"tX c #D9C4B6",
"yX c #8EBBC2",
"uX c #E1B3C4",
"iX c #9CC1C8",
"pX c #A5C4CB",
"aX c #ABC3C8",
"sX c #B7CCD0",
"dX c #B6DBE0",
"fX c #C8C9CA",
"gX c #C8D6DA",
"hX c #D5D6D7",
"jX c #D1CACC",
"kX c #F2D4C3",
"lX c #F8DBCA",
"zX c #ECDCD7",
"xX c #F4DED2",
"cX c #E9CEC7",
"vX c #F7E6DD",
"bX c #F7E2D6",
"nX c #C8DDE1",
"mX c #D9E5E8",
"MX c #D5E9ED",
"NX c #E5E6E7",
"BX c #F7EBE6",
"VX c #FBF2EE",
"CX c #F6F1EF",
"ZX c #EAF2F3",
"AX c #FCF5F2",
"SX c #FFFEFE",
"DX c #F4F7F8",
"FX c #E7EEF0",
"GX c None",
/* pixels */
"GXGXGXGXGXGXGXGXGXGXGXGXGXGXGXGXGXGXGXGXGXGXGXGXGXGXGXGXGXGXGXGXGXGXGXGXGXGXGXGXGXGXGXGXGXGXGXGXGXGXGXGXGXGXGXGXGXGXGXGXGXGXGXGX",
"GXGXGXGXGXGXGXGXGXGXGXGXGXGXGXGXGXGXGXGXGXGXGXGXGXGXGXGXGXGXGXGXGXGXGXGXGXGXGXGXGXGXGXGXGXGXGXGXGXGXGXGXGXGXGXGXGXGXGXGXGXGXGXGX",
"GXGXGXGXGXGXGXGXGXGXGXGXGXGXGXGXGXGXGXGXGXGXGXGXGXGXGXGXGXGXGXGXGXGXGXGXGXGXGXGXGXGXGXGXGXGXGXGXGXGXGXGXGXGXGXGXGXGXGXGXGXGXGXGX",
"GXGXGXGXGXGXGXGXGXGXGXGXGXGXGXGXGXGXGXGXGXGXGXGXGXGXGXGXGXGXGXGXGXGXGXGXGXGXGXGXGXGXGXGXGXGXGXGXGXGXGXGXGXGXGXGXGXGXGXGXGXGXGXGX",
"GXGXGXGXGXGXGXGXGXGXGXGXGXGXGXGXGXGXGXGXGXGXGXGXGXGXGXGX& & & & & & & & * * & & - GXGXGXGXGXGXGXGXGXGXGXGXGXGXGXGXGXGXGXGXGXGXGX",
"GXGXGXGXGXGXGXGXGXGXGXGXGXGXGXGXGXGXGXGXGXGXGXGXGXGXGX; _ | } } } | } ' ' _ | } C < GXGXGXGXGXGXGXGXGXGXGXGXGXGXGXGXGXGXGXGXGXGX",
"GXGXGXGXGXGXGXGXGXGXGXGXGXGXGXGXGXGXGXGXGXGXGXGXGXd _ ` 1.4.3.1.4.3.3.3.n.9.1.>.] } k ` p < GXGXGXGXGXGXGXGXGXGXGXGXGXGXGXGXGXGX",
"GXGXGXGXGXGXGXGXGXGXGXGXGXGXGXGXGXGXGXGXGXGX7 ` k +.5.1.<.<.<.<.<.<.>.8.W.m.<.b.b.3.1.3.d.` s 8 GXGXGXGXGXGXGXGXGXGXGXGXGXGXGXGX",
"GXGXGXGXGXGXGXGXGXGXGXGXGXGXGXGXGXGXGXGXGXt ' 4.,.>.>.+.>.>.>.2.<.<.<.3.P.9.n.(.^.n.:.<.<.4.#.q.p , GXGXGXGXGXGXGXGXGXGXGXGXGXGX",
"GXGXGXGXGXGXGXGXGXGXGXGXGXGXGXGXGXGXGXGX$ +.b.v.v.v.8.8.v.b.3.>.<.>.<.<.>.,.B.!.W.B.#.3.3.<.<.2.r.p 2 GXGXGXGXGXGXGXGXGXGXGXGXGX",
"GXGXGXGXGXGXGXGXGXGXGXGXGXGXGXGXGXGXGXe 3.:.8.U.I.P.I.I.I.I.J.3.<.3.<.<.1.:.) =.:.=.[ =.=.:.3.#.q.w.h - GXGXGXGXGXGXGXGXGXGXGXGX",
"GXGXGXGXGXGXGXGXGXGXGXGXGXGXGXGXGX6 k c.!.h.7 x x x v v v a h.W.!.U.J.<.,.c.M.x.x.x.x.x.x.<.<.2.w.w.Z > GXGXGXGXGXGXGXGXGXGXGXGX",
"GXGXGXGXGXGXGXGXGXGXGXGXGXSXSXSXU   h.!.c l. X X X X X X X X[.c U._.^.J.[ wXBXBXBXBXVXBXBX3X[ 2.q.F 0.Z 7 GXGXGXGXGXGXGXGXGXGXGX",
"GXGXGXGXGXGXGXGXGXGXGXGXSXSXSXSXCX-X9  .|.[.t.y.l.y.y.y.$X@X.Xn c L.T.^.zXSXSXSXSXMXdXnXSXhXz.:.#.r.w.S 6 GXGXGXGXGXGXGXGXGXGXGX",
"GXGXGXGXGXGXGXGXGXGXGXSXSXSXZXgXMX&Xr {.l.@ Q hX>XaXhXjX[..X$XXXo *.6XvXSXSXSXSXSXsX=XyXgXMXjX{ 6.a.G S Z i GXGXGXGXGXGXGXGXGXGX",
"GXGXGXGXGXGXGXGXGXGXGXSXSXSXDX=XyXI u.#X  -XmXSXsXZXSXSX>X%X#X#X[.' tXAXSXSXSXSXSXZXFXmX>XFXCX;Xc.] S 0.w.p > GXGXGXGXGXGXGXGXGX",
"GXGXGXGXGXGXGXGXGXGXGXSXFXfX1XmXmX&Xi.#X# mXSXSX*XhXSXSXdX;X].@X#Xi.&XZXSXFXFXSX1XFXSXSXmXDXDXgXN.' N e.o.j & GXGXGXGXGXGXGXGXGX",
"GXGXGXGXGXGXGXGXGXGXGXSXyX&XfXSXSX2Xu.}.% ,XhXfX@ ,XhXjX>XK r |.+Xt.K >XSXdXsXAX-XhXSXSXSXSXSXSXz.%.g.] 1.o.s GXGXGXGXGXGXGXGXGX",
"GXGXGXGXGXGXGXGXGXGXGXDXnXDXSXSXFXuX.XT 8 + 6 + > + 6 + o $ X 7 +XXXH L NXmXmXSXSXSXSXSXSXDXmXhXP j.U.2.<.4...* GXGXGXGXGXGXGXGX",
"GXGXGXGXGXGXGXGXGXGXGXaXDXDXDXZXpX7X XJ 4 O o + : : O : + > o p +X@X{.z >XmXSXSXSXSXSXSXDXgX*X7 o L.E.>.1.1.| = GXGXGXGXGXGXGXGX",
"GXGXGXGXGXGXGXGXGXGXGXP >XiXpXpX<X7Xl.X : , 4 4 > 4 4 4 4 : O m OX@Xl.z >XpXnXDXSXDXDXDXsXiX*X  % k.P.+.<.d.C - GXGXGXGXGXGXGXGX",
"GXGXGXGXGXGXGXGXGXGXGX+ 5 >XpX>XL |. X. : , , , > : > > 4 : O m +X@X}.X 8 :XpXaXpXpXpXaX>X&X= y @.8.f.S 0.w.h - GXGXGXGXGXGXGXGX",
"GXGXGXGXGXGXGXGXGXGXGXGX+ L W L . |.|.. : , , > , , , > : : X m +X@X}.. $ P R L L L L L R -  .!.!.!.N.V S w.h - 7 GXGXGXGXGXGXGX",
"GXGXGXGXGXGXGXGXGXGXGXGXGX      O |.|.  :       o : : o       p OX@X{.9 L.c               _ c.b.v.b.f.A 0.w.g 7 +.q GXGXGXGXGXGX",
"GXGXGXGXGXGXGXGXGXGXGXGXGXGX8 4 X |.oXb   8XgX&X: X o 2 hXNX1X3 +XXXJ l D.A.7.7.Y.L.k.o.X.@.1.+.:.,.o.G D 0.g 1 ^ cXfX+ GXGXGXGX",
"GXGXGXGXGXGXGXGXGXGXGXGXGXGXGX- . t.XX}.@ NXSXMXfXfXfXjXSXDX<X  #X[.< $ cXbXbXbXQ.A.v.3.3.1.2.<.2.,.>.X.X.g.` = q ZXZX  GXGXGXGX",
"GXGXGXGXGXGXGXGXGXGXGXGXGXGXGXY aX! y.$X  -XNXSXSXSXSXSXSXaX! {.}.t.! fXSXSXSXSXbX`.-.+.>.+.:.:.:.n.n.1.1.4.%.- r 4XjX1X! GXGXGX",
"GXGXGXGXGXGXGXGXGXGXGXGXGXGXGXW SX,Xe XXl.# '.fXfXfXfXfXfX7X].XXE   ,XSXSXSXSXSXSXeXC.m.m.n.m.m.n.I.P.>.2.6.o.; G / 0XSX8 GXGXGX",
"GXGXGXGXGXGXGXGXGXGXGXGXGXGXGXU xX4Xl J @X|.t.l.y.y.y.y.y..X[.T M c ;XbXbXxXVXSXSXwXF.^.Q.Q.W.W.(.W.P.>.1.2.` ; 0.' 8XSX<X! GXGX",
"GXGXGXGXGXGXGXGXGXGXGXGXGXGXGXy A.Q.L.c }.%XOXOXOX%XOXOXOX[.T M x J.^.T.K.G.5XNXMX4X7.L.Q._.Q.W.W.^.J.+.#.a.p 1 0.q ;XCXSX<X. GX",
"GXGXGXGXGXGXGXGXGXGXGXGXGXGXGXy U._.^.U.c M T T T J T T T T M c U.Q.W.W.W._.j.  0 0 w y Y.U.U.E.!.W.N.B S w.N , 0.B ^ V.SX<X  GX",
"GXGXGXGXGXGXGXGXGXGXGXGXGXGXGXy J.K.K.E.E.&.u y y y y y a a h.W.W.E.T.R.R.Q.*.  +.1.,.$.d - k @.#.@.o.Z A w.h 1 Z 0.) M.SX2X  GX",
"GXGXGXGXGXGXGXGXGXGXGXGXGXGXGXt c.U._.(.W.!.U.U.U.U.I.U.I.U.I.Q.!.(._.(.(._.H.Y @.6.<.<.+.' g w w w 7 t S 0.0.A 2 | -.B.AX<X  GX",
"GXGXGXGXGXGXGXGXGXGXGXGXGXGXGXU NXVXAXBX_.T.Q.W.W.Q.W.W.Q.^.~.R.A.kXVXVXVXAXCXNX~ ( 1.<.3.3.$.+.+...+.+.@.p.w.S > j ^ V.SX<X  GX",
"GXGXGXGXGXGXGXGXGXGXGXGXGXGXGXW SXSXSXSXVX5XS.K.K.K.K.K.K.S.5XBXBXSXSXSXSXSXSXDXP q X.1.<.<.<.1.1.1.1.1.6.p.A A 7 O -XBX,X! GXGX",
"GXGXGXGXGXGXGXGXGXGXGXGXGXGXGXW DXSXAXSXSXVXbXbXbXbXbXbXbXxXVXSXSXSXSXSXSXSXSXAXhX&Xq 4.1.<.<.<.<.<.<.<.1.p.D A   1XmX2XGXGXGXGX",
"GXGXGXGXGXGXGXGXGXGXGXGXGXGXGXY 5XVXSXSXSXSXSXSXSXSXSXSXSXSXSXSXSXSXVX5XqX5XxXSXSXtX( s d.c.1.2.<.1.3.<.X.q.w.A o 3X3X  GXGXGXGX",
"GXGXGXGXGXGXGXGXGXGXGXGXGXGXGX~ wXcXqXkXSXSXSXSXSXSXSXSXSXSXSXSXkXqXeXkXkXkXrXwXwX6XK.h.i j ' d.X.X.d.o.D A w.0.; ^ /.fXW GXGXGX",
"GXGXGXGXGXGXGXGXGXGXGXGXGXGXGXU zXlXqXwXkXkXkXkXkXkXkXkXkXkXkXkXwXqXkXBXvXvXxXqXwX).9.J._ r e e 3 C w.w.w.q.S g i ' 6XzX$ GXGXGX",
"GXGXGXGXGXGXGXGXGXGXGXGXGXGXGXu 7.rXAXBXqX5X9X9X9XqX5XqX9XqX5XqXBXAXkXC.D.C.5XVXVX0X;.9.m.9.B.c &.Z N h h h p - A X.[ ] ;X&XGXGX",
"GXGXGXGXGXGXGXGXGXGXGXGXGXGXGXy Q.~.D.(.BXVXVXAXVXAXVXAXAXVXAXBX_.A.Q.W.(.W.!.R.A.P.E.I.E.I.E.!.~.&.3 7 7 , : i S D ' V.SX1X  GX",
"GXGXGXGXGXGXGXGXGXGXGXGXGXGXGXu A.F.R.W.W.(.W.!.W.W.W.U.(.R.E.K.T.T.T.T.T.T.T.K.8.2.<.<.<.<.2.<.1.p.V 0.w.i t w.0.G ^ M.AX<X  GX",
"GXGXGXGXGXGXGXGXGXGXGXGXGXGXGXa k./._.E.R.K.E.E.K.!.E.E.T.W._._.`.`.`.`.`._.`.`.W.9.:.,.<.<.>.<.1.p.w.q.0.i i w.F A ] /.SX1X  GX",
"GXGXGXGXGXGXGXGXGXGXGXGXGXGXGXU BXAXxXR.(.W.!.!.W.W.!.!.R.xXAXAXVXAXAXVXAXAXAXVX`.8.>.<.<.<.<.<.<.p.r.#.t O p w.F / 3XDXSX,X  GX",
"GXGXGXGXGXGXGXGXGXGXGXGXGXGXGXW DXDXSXBXAX5XA.R.R.R.F.(.vXSXSXSXSXSXSXSXSXSXSXAX`.K.m.>.<.<.>.<.q.X.<.<.7 = e s.>.] 0XSX-XGXGXGX",
"GXGXGXGXGXGXGXGXGXGXGXGXGXGX$ 5 -X-XfXSXSXVXbXBXBXvXvXBXSXSXSXSXSXSXSXSXSXSXSXAX`.!.!.P.P.P.I.P.$.>.4.@.t p e 0 [ kXNX-XGXGXGXGX",
"GXGXGXGXGXGXGXGXGXGXGXGX& _ ..} 0 0 ~ ,XDXSXSXSXSXSXSXSXSXSXSXSXwXqXqXqXqXqXeXqX_.U.W.W.W.^.U.m.1.1...f O s ;XjXs.,X-XGXGXGXGXGX",
"GXGXGXGXGXGXGXGXGXGXGX1 _ <.4.<.g.a.q C SXSXSXSXSXSXSXSXSXvXwXeXR.C.F.G.;.;.;.;.^.^.^.^.^.P.9.:.1.4.o.& m # 8XSXW   GXGXGXGXGXGX",
"GXGXGXGXGXGXGXGXGXGX8 C <.1.<.>.6.| V z.1XcXlXlXlXlXlXlXlX6XZ.F.(.I.P.P.c.2.2.3.m.N.k.k.j.f.] d.X.o.f O r 2XhX1XY GXGXGXGXGXGXGX",
"GXGXGXGXGXGXGXGXGXo g d.2.<.1.<.O.a.F 0.q %.7.7.7.7.7.7.7.N.Y.Y.L.f.] ] O.O.O.X.+.e.N V V G F A S 8 = g ^ tX1X@ e t GXGXGXGXGXGX",
"GXGXGXGXGXs k s GX2 ` 4.<.#.O.O.w.w.F Z k G B B B B B B V B B B B w.F F 0.D F D N A 0.w.w.D D D D g i e.3.q   e.w.m 6 GXGXGXGXGX",
"GXGXGXGX- o.4.<.f p r.2.@.p.F 0.A F g - - g S A A A D k A S S S A B A A A D A A > h w.w.D w.r.r.a.q.p $ ..k p w.a.a.A - GXGXGXGX",
"GXGXGXGX; ..4.<.1._ p 0.0.0.F Z 7 1 2 GX, 2 1 1 1 1 1 1 1 1 1 1 2 1 1 1 6 7 1 2 ; g S 0.0.O.<.<.<.d.h > 1 h 0.q.<.1.o.= GXGXGXGX",
"GXGXGXGXO o.4.<.<.<.X.D w.i 1 1 GXGXGXGXGXGXGXGXGXGXGXGXGXGXGXGXGXGXGXGXGXGXGXGX> 2 i q.2.<.1.<.<.<.X.A A w.F q.<.4.%.= GXGXGXGX",
"GXGXGXGXGX6 ' 4.<.6.#.G i GXGXGXGXGXGXGXGXGXGXGXGXGXGXGXGXGXGXGXGXGXGXGXGXGXGXGXGX- ; p 2.1.<.<.<.3.<.#.q.w.C t @.4.o.- GXGXGXGX",
"GXGXGXGXGXGX7 k a.a.e.7 GXGXGXGXGXGXGXGXGXGXGXGXGXGXGXGXGXGXGXGXGXGXGXGXGXGXGXGXGXGXGXGXs ` g.3.<.<.1.<.q.w.h - s f s GXGXGXGXGX",
"GXGXGXGXGXGXGXGX7 i 8 GXGXGXGXGXGXGXGXGXGXGXGXGXGXGXGXGXGXGXGXGXGXGXGXGXGXGXGXGXGXGXGXGXGX< g k a.a.d.a.e.C i GXGXGXGXGXGXGXGXGX",
"GXGXGXGXGXGXGXGXGXGXGXGXGXGXGXGXGXGXGXGXGXGXGXGXGXGXGXGXGXGXGXGXGXGXGXGXGXGXGXGXGXGXGXGXGXGXGXGX7 m i i p 7 GXGXGXGXGXGXGXGXGXGX",
"GXGXGXGXGXGXGXGXGXGXGXGXGXGXGXGXGXGXGXGXGXGXGXGXGXGXGXGXGXGXGXGXGXGXGXGXGXGXGXGXGXGXGXGXGXGXGXGXGXGXGXGXGXGXGXGXGXGXGXGXGXGXGXGX",
"GXGXGXGXGXGXGXGXGXGXGXGXGXGXGXGXGXGXGXGXGXGXGXGXGXGXGXGXGXGXGXGXGXGXGXGXGXGXGXGXGXGXGXGXGXGXGXGXGXGXGXGXGXGXGXGXGXGXGXGXGXGXGXGX",
"GXGXGXGXGXGXGXGXGXGXGXGXGXGXGXGXGXGXGXGXGXGXGXGXGXGXGXGXGXGXGXGXGXGXGXGXGXGXGXGXGXGXGXGXGXGXGXGXGXGXGXGXGXGXGXGXGXGXGXGXGXGXGXGX",
"GXGXGXGXGXGXGXGXGXGXGXGXGXGXGXGXGXGXGXGXGXGXGXGXGXGXGXGXGXGXGXGXGXGXGXGXGXGXGXGXGXGXGXGXGXGXGXGXGXGXGXGXGXGXGXGXGXGXGXGXGXGXGXGX",
"GXGXGXGXGXGXGXGXGXGXGXGXGXGXGXGXGXGXGXGXGXGXGXGXGXGXGXGXGXGXGXGXGXGXGXGXGXGXGXGXGXGXGXGXGXGXGXGXGXGXGXGXGXGXGXGXGXGXGXGXGXGXGXGX",
"GXGXGXGXGXGXGXGXGXGXGXGXGXGXGXGXGXGXGXGXGXGXGXGXGXGXGXGXGXGXGXGXGXGXGXGXGXGXGXGXGXGXGXGXGXGXGXGXGXGXGXGXGXGXGXGXGXGXGXGXGXGXGXGX"
};
