/* XPM */
static char *result[] = {
/* columns rows colors chars-per-pixel */
"64 61 244 2 ",
"   c #000001",
".  c #090203",
"X  c #1D1B03",
"o  c #1C1906",
"O  c #000316",
"+  c #1C1517",
"@  c #08140F",
"#  c #201F13",
"$  c #280F09",
"%  c #1B2411",
"&  c #222119",
"*  c #00032B",
"=  c #000C2C",
"-  c #000024",
";  c #011929",
":  c #000034",
">  c #00003B",
",  c #001B36",
"<  c #001633",
"1  c #16142C",
"2  c #211921",
"3  c #241E2A",
"4  c #2F122E",
"5  c #002233",
"6  c #012A39",
"7  c #13252E",
"8  c #252423",
"9  c #262B2A",
"0  c #292C2B",
"q  c #272828",
"w  c #2D2D33",
"e  c #262B37",
"r  c #312F3B",
"t  c #362834",
"y  c #2D313E",
"u  c #32313B",
"i  c #3D343B",
"p  c #372B2C",
"a  c #560A0E",
"s  c #6A0000",
"d  c #500F34",
"f  c #432B2B",
"g  c #492236",
"h  c #463638",
"j  c #523332",
"k  c #583634",
"l  c #53332E",
"z  c #6A3B3D",
"x  c #66443E",
"c  c #725139",
"v  c #0A094A",
"b  c #353441",
"n  c #3C3B4C",
"m  c #3B3844",
"M  c #353153",
"N  c #3C3469",
"B  c #31346E",
"V  c #0C3543",
"C  c #5B0E42",
"Z  c #4C3E45",
"A  c #423A44",
"S  c #413E53",
"D  c #473B5A",
"F  c #523C44",
"G  c #4C3D69",
"H  c #3F4751",
"J  c #334771",
"K  c #1F4068",
"L  c #584549",
"P  c #424254",
"I  c #464858",
"U  c #524B58",
"Y  c #684A49",
"T  c #7D444B",
"R  c #6E5148",
"E  c #735254",
"W  c #715551",
"Q  c #4B4160",
"!  c #4C4B64",
"~  c #4B4D69",
"^  c #574A67",
"/  c #53556E",
"(  c #474677",
")  c #5B4B79",
"_  c #45567C",
"`  c #4A587C",
"'  c #555573",
"]  c #5C5C7D",
"[  c #565979",
"{  c #455A61",
"}  c #685877",
"|  c #5C616F",
" . c #7D6A61",
".. c #626676",
"X. c #757677",
"o. c #69696E",
"O. c #75655C",
"+. c #88272F",
"@. c #813542",
"#. c #864648",
"$. c #9C494E",
"%. c #955752",
"&. c #8C5653",
"*. c #AA5553",
"=. c #A35855",
"-. c #B65A57",
";. c #A7524E",
":. c #8C6658",
">. c #9B6658",
",. c #926A55",
"<. c #A26E5A",
"1. c #A9775D",
"2. c #B56859",
"3. c #926F66",
"4. c #A36D65",
"5. c #A97469",
"6. c #BB7B6B",
"7. c #B87B73",
"8. c #AA746C",
"9. c #C4645D",
"0. c #C1715D",
"q. c #C96761",
"w. c #DC7C69",
"e. c #D87667",
"r. c #CB7367",
"t. c #83814C",
"y. c #978572",
"u. c #BC8362",
"i. c #AB8977",
"p. c #B78E7B",
"a. c #B8947D",
"s. c #A4826E",
"d. c #AE965C",
"f. c #C2845E",
"g. c #C58964",
"h. c #D48969",
"j. c #DD946E",
"k. c #D3926B",
"l. c #C38275",
"z. c #C8867A",
"x. c #DF9A70",
"c. c #DA9670",
"v. c #D58E7F",
"b. c #E3886D",
"n. c #E39D72",
"m. c #E79772",
"M. c #E3916F",
"N. c #E6A778",
"B. c #E9B17E",
"V. c #CAB37C",
"C. c #ECD773",
"Z. c #E9D15F",
"A. c #5E5D82",
"S. c #565987",
"D. c #505688",
"F. c #624B86",
"G. c #655186",
"H. c #675188",
"J. c #69548B",
"K. c #645C8A",
"L. c #6D5690",
"P. c #6B5B94",
"I. c #7D5C89",
"U. c #5D6384",
"Y. c #5F6592",
"T. c #66658D",
"R. c #646588",
"E. c #70798E",
"W. c #777883",
"Q. c #6B6B94",
"!. c #6D6C9A",
"~. c #676596",
"^. c #71659A",
"/. c #726A9D",
"(. c #726294",
"). c #71719D",
"_. c #767A99",
"`. c #6A748B",
"'. c #6E6EA5",
"]. c #756EA0",
"[. c #7473A2",
"{. c #7975A6",
"}. c #7979A6",
"|. c #7475A9",
" X c #7B7BAC",
".X c #7877A9",
"XX c #7E7EB0",
"oX c #6C75A6",
"OX c #866F92",
"+X c #8D77A2",
"@X c #768290",
"#X c #7C88A3",
"$X c #7E80B1",
"%X c #89898B",
"&X c #8D959A",
"*X c #989898",
"=X c #908D8F",
"-X c #BD9982",
";X c #AF8984",
":X c #8A8DAA",
">X c #8182B3",
",X c #868AB7",
"<X c #8A97B7",
"1X c #929DBB",
"2X c #9D9BB5",
"3X c #8290A8",
"4X c #94A2BE",
"5X c #9EA0B7",
"6X c #AAAAA8",
"7X c #A6A6A4",
"8X c #B8B8B8",
"9X c #ACB0B2",
"0X c #C19B84",
"qX c #D89688",
"wX c #CB8886",
"eX c #D3B28C",
"rX c #EBBA9B",
"tX c #E4B598",
"yX c #F1BD9E",
"uX c #E5B08A",
"iX c #EBC28A",
"pX c #F8C4A3",
"aX c #E5D8B8",
"sX c #99A7C2",
"dX c #A9B4CA",
"fX c #B4B8CB",
"gX c #AEB0C9",
"hX c #969DC6",
"jX c #C0BFC0",
"kX c #B9C3D6",
"lX c #C8C7C8",
"zX c #C8C7D3",
"xX c #D6D6D9",
"cX c #CBD1DD",
"vX c #D0D3E3",
"bX c #DDE1EA",
"nX c #E3E3E4",
"mX c #E7E7EB",
"MX c #ECEDF1",
"NX c #F3F3F4",
"BX c #FDFDFD",
"VX c #F7F7F7",
"CX c #E1DEE6",
"ZX c None",
/* pixels */
"ZXZXZXZXZXZXZXZXZXZXZXZXZXZXZXZXZXZXZXZXZXZXZXZXZXZXZXZXZXZXZXZXZXZXZXZXZXZXZXZXZXZXZXZXZXZXZXZXZXZXZXZXZXZXZXZXZXZXZXZXZXZXZXZX",
"ZXZXZXZXZXZXZXZXZXZXZXZXZXZXZXZXZXZXZXZXZXZXZXZXZXZXZXZXZXZXZXZXZXZXZXZXZXZXZXZXZXZXZXZXZXZXZXZXZXZXZXZXZXZXZXZXZXZXZXZXZXZXZXZX",
"ZXZXZXZXZXZXZXZXZXZXZXZXZXZXZXZXZXZXZXZXZXZXZXZXZXZXZXZXZXZXZXZXZXZXZXZXZXZXZXZXZXZXZXZXZXZXZXZXZXZXZXZXZXZXZXZXZXZXZXZXZXZXZXZX",
"ZXZXZXZXZXZXZXZXZXZXZXZXZXZXZXZXZXZXZXZXZXZXZXZXZXZXZXZXZXZXZXZXX X X X o o X X X X o X & & 0 9 ZXZXZXZXZXZXZXZXZXZXZXZXZXZXZXZX",
"ZXZXZXZXZXZXZXZXZXZXZXZXZXZXZXZXZXZXZXZXZXZXZXZXZXZXZXZXZXZXZXn H n n n n n n S n n n n n m n A m ZXZXZXZXZXZXZXZXZXZXZXZXZXZXZX",
"ZXZXZXZXZXZXZXZXZXZXZXZXZXZXZXZXZXZXZXZXZXZXZXZXZXZXZXZXZXZXw R.[.).).).).).).).!.).[.[.Q.F.) ) I % ZXZXZXZXZXZXZXZXZXZXZXZXZXZX",
"ZXZXZXZXZXZXZXZXZXZXZXZXZXZXZXZXZXZXZXZXZXZXZXZXZXZXZXZXZXn [ }.+XoX/.[.).[.[.).[.).).'./.^.P.L.) S ZXZXZXZXZXZXZXZXZXZXZXZXZXZX",
"ZXZXZXZXZXZXZXZXZXZXZXZXZXZXZXZXZXZXZXZXZXZXZXZXZXZXZXZXu ] }.>X}.v O : : : : : : : : O M ]..XJ.J.) D 0 ZXZXZXZXZXZXZXZXZXZXZXZX",
"ZXZXZXZXZXZXZXZXZXZXZXZXZXZXZXZXZXZXZXZXZXZXZXZXZXZXZXZXu !.$X!._.*X6X6X6X6X7X7X7X6X6X7X*X_.K.H.L.J.! 0 ZXZXZXZXZXZXZXZXZXZXZXZX",
"ZXZXZXZXZXZXZXZXZXZXZXZXZXZXZXZXZXZXZXZXZXZXZXZXZXZXZXZXu Q..Xv =XNXBXBXBXBXBXBXBXBXBXBXmXX.v F.L.F.U 0 ZXZXZXZXZXZXZXZXZXZXZXZX",
"ZXZXZXZXZXZXZXZXZXZXZXZXZXZXZXZXZXZXZXZXZXZXZXZXZXZXZXZXu Q.|.> =XBXNXlX8XzXBXVXlX8XlXBXNXX.* H.L.H.G 0 ZXZXZXZXZXZXZXZXZXZXZXZX",
"ZXZXZXZXZXZXZXZXZXZXZXZXZXZXZXZXZXZXZXZXZXZXZXZXZXZXZXZXu Q.}.v =XBXzX    o.MXnXn   u nXNXX.> H.L.F.I 0 ZXZXZXZXZXZXZXZXZXZXZXZX",
"ZXZXZXZXZXZXZXZXZXZXZXZXZXZXZXZXZXZXZXZXZXZXZXZXZXZXZXZXu Q.[.: *XBXxX    U NXnXO     nXBXX.* H.L.G.Q 0 ZXZXZXZXZXZXZXZXZXZXZXZX",
"ZXZXZXZXZXZXZXZXZXZXZXZXZXZXZXZXZXZXZXZXZXZXZXZXZXZXZXZXu Q.}.N %XnXlX%XX.7XNXmX=XX.=XxXxXW.M H.L.G.U 0 ZXZXZXZXZXZXZXZXZXZXZXZX",
"ZXZXZXZXZXZXZXZXZXZXZXZXZXZXZXZXZXZXZXZXZXZXZXZXZXZXZXZXr T. X}.`.o.8XNXNXVXBXBXVXVXmX6Xo.)./.H.J.H.G 9 ZXZXZXZXZXZXZXZXZXZXZXZX",
"ZXZXZXZXZXZXZXZXZXZXZXZXZXZXZXZXZXZXZXZXZXZXZXZXZXZXZXZXu T.>X>XT.  9XBXNXnXBXBXnXBXBX*X  [. XJ.J.H.I 9 ZXZXZXZXZXZXZXZXZXZXZXZX",
"ZXZXZXZXZXZXZXZXZXZXZXZXZXZXZXZXZXZXZXZXZXZXZXZXZXZXZXZXu T.>X>XT.- 8XBXgX+XNXmX(.zXBX7X: ).{.J.J.H.G 0 ZXZXZXZXZXZXZXZXZXZXZXZX",
"ZXZXZXZXZXZXZXZXZXZXZXZXZXZXZXZXZXZXZXZXZXZXZXZXZXZXZXZXu T. X$X[.S.2XzX:X^.fXgXP.2XzX:XS.{.{.J.H.F.U q ZXZXZXZXZXZXZXZXZXZXZXZX",
"ZXZXZXZXZXZXZXZXZXZXZXZXZXZXZXZXZXZXZXZXZXZXZXZXZXZXZXZXu T.>X X X X|.'..X X'.|..X|.'..X$X X].J.H.H.G 9 ZXZXZXZXZXZXZXZXZXZXZXZX",
"ZXZXZXZXZXZXZXZXZXZXZXZXZXZXZXZXZXZXZXb w & o o ZXZXZXZX0 T.$X X X$X X{..X X|.oX X.X|. X$X>X].J.L.J.I q ZXZXZXZXo o q u ZXZXZXZX",
"ZXZXZXZXZXZXZXZXZXZXZXZXZXZXZXZXZXZXZXw I ~ ' ~ ZXZXZXr S T.{. X X{.{. X X X X X X X X{.[.{.^.J.F.) D 0 ZXZXZX! ' / ! n r ZXZXZX",
"ZXZXZXZXZXZXZXZXZXZXZXZXZXZXZXZXZXZXZX8 ' ).+X{.~ . X D F.H.L.{.{.J.^. X X X X X X X.XQ.H.J.J.H.G t 0 8 8 X 8 R.+X XT.n # ZXZXZX",
"ZXZXZXZXZXZXZXZXZXZXZXZXZXZXZXZXZXZXZX& ] XX.XT.A.] ] (.^.^.^. X.X^./.$X$XXXXX XXX+X X].^.^.^.^.R.[ ] ] A.K.] R.!.$X[.S X ZXZXZX",
"ZXZXZXZXZXZXZXZXZXZXZXZXZXZXZXZXZXZXZX& [  XU.b Q. X X X X X X.X X X X X X X|.XX X X X X X X X X.X X}. X.X X}./ n oX).n X ZXZXZX",
"ZXZXZXZXZXZXZXZXZXZXZXZXZXZXZXZXZXZXZX& ] +XoXT. X XT.] A.A.] S.[ ` D.J ` _ _ _ ` [ [ A.A.] A.A.A.A.A.A.] /.>X).T.$X{.P X ZXZXZX",
"ZXZXZXZXZXZXZXZXZXZXZXZXZXZXZXZXZXZXZX& / [. X X XQ.n X 9 0 q q p j k j k j j k l f 9 q q 8 8 8 q 0 9 8 X / }. X.X XT.n ZXZXZXZX",
"ZXZXZXZXZXZXZXZXZXZXZXZXZXZXZXZXZXZXZXZXI ~ [ ' ' ~ b 7 ; 7 w = j *.-.-.-.-.2.-.-.#.5 6 3         u , ; 9 P / / ' [ ! ZXZXZXZXZX",
"ZXZXZXZXZXZXZXZXZXZXZXZXZXZXZXZXZXZXZXZXZX# # & o & e L R L i L >.e.w.w.e.w.w.w.w.2.Y g U %X*X*Xo.t Y W m 9 & + % # # ZXZXZXZXZX",
"ZXZXZXZXZXZXZXZXZXZXZXZXZXZXZXZXZXZXZXZXZXZXZXZXZXZX5 :.r. .Z 6.j.j.j.j.k.j.j.c.x.h.9.s X.nXBXVX9X$ 8.7.L , ZXZXZXZXZXZXZXZXZXZX",
"ZXZXZXZXZXZXZXZXZXZXZXZXZXZXZXZXZXZXZXZXZXZXZXZXZXZX= 8.tX3.t g.N.x.n.B.B.N.n.x.n.M.q.s { lXCXxX&Xf +Xr.Y * ZXZXZXZXZXZXZXZXZXZX",
"ZXZXZXZXZXZXZXZXZXZXZXZXZXZXZXZXZXZXZXZXZXZXZXZXZXZX* i.rX8.m g.n.x.B.iXiXuXN.c.x.h.q.#.6 y r i 5 F h.r.Y = ZXZXZXZXZXZXZXZXZXZX",
"ZXZXZXZXZXZXZXZXZXZXZXZXZXZXZXZXZXZXZXZXZXZXZXZXZXZX- i.rXtX;X,.<.x.N.B.B.B.N.x.b.*.&.jXlXH X.xX&X1 6.z.L = ZXZXZXZXZXZXZXZXZXZX",
"ZXZXZXZXZXZXZXZXZXZXZXZXZXZXZXZXZXZXZXZXZXZXZXZXZXZX* s.rXpXtX3.c g.k.k.k.h.k.g.q.+.U nXmX| *XBX8Xl 6.r.L : ZXZXZXZXZXZXZXZXZXZX",
"ZXZXZXZXZXZXZXZXZXZXZXZXZXZXZXZXZXZXZXZXZXZXZXZXZX< * s.pXpXpXtXz.W j Y x x x z d &.i.;X@X6 { =X;X7.qX;XA O ZXZXZXZXZXZXZXZXZXZX",
"ZXZXZXZXZXZXZXZXZXZXZXZXZXZXZXZXZXZXZXZXZXZXZXZXY Y 7 3.0XrXpXpXtX3.O. . . . . . .p.qX>.a W R a 4.qXr.8.,.R ZXZXZXZXZXZXZXZXZXZX",
"q ' .X(   ~.XX'.(     8 2 2 2 2 2 2 2 2 # ZXZXA ,.4.F 6 I 0XpXpXpXiXtXrXrXrXrXrXrXyXpXqXz.z.z.z.v.z.W W k.5.5 ZXZXZXZXZXZXZXZXZX",
"8 ] <XfXjX<XsXcXcX8X&XU.`.E.E.E.E.`.E._...ZXO A >.<.Z g @.5.a.a.-X-X0X-X-X-X-X0X0X-X-X8.4.5.4.4.4.4.,.1.n.j.<.R ZXZXZXZXZXZXZXZX",
"+ ] <XbXBXkXdXNXBXBXcX1X4X4X4X4XsXsXsXsX3XP ; h #.#.r &.r.;.6 e r r r r r r u u r r r r u y y i , L g.n.m.n.x.<., ZXZXZXZXZXZXZX",
"+ `.sXkXvXmXbXcXMXBXBXbXdX1X4XsXsXsXsXsX<X).~ h :.>.r >.M.0.$.$.$.$.;.*.*.*.*.*.*.;.$.*.%.4 O.a. .i g.n.c.N.n.1., ZXZXZXZXZXZXZX",
"+ ..<X,XhXmXMXsXfXNXBXNXfX<X4X4X1X4X1X4X<X.X_ i >.<.i &.h.h.e.w.e.e.e.9.q.q.q.q.q.e.e.e.9.g y.pXi.i f.n.c.n.j.>., ZXZXZXZXZXZXZX",
"ZXI / _.,XgXgXhXsXgXfXkXsXsX,X>X,X>X>X,X}.' M i %.%.f q c f.n.m.m.m.2.a a C C C C 5.m.b.9.g 5.rXi.h g.n.x.M.w.=.5 ZXZXZXZXZXZXZX",
"ZXZX  ' !.S.Y.#X_.S.~.#X#X#X!.!.Q.Q.!.].A.0 @ i z T ^ J K 3.g.f.g.f.a.*Xy.t.t.t.t.d.g.2.$.4 y.pXi.t 6.m.j.h.-.T 6 ZXZXZXZXZXZXZX",
"ZXZXZXn I n n I I S P I I I P n H n S I n ZXu H p ! !.XX}...l l f $ 8XVXaXZ.C.C.C.d.h g i   y.pXp.t -.w.e.2.Z ZXZXZXZXZXZXZXZXZX",
"ZXZXZXZXo o o   . X .     . X o X X X X ZXZXZXu @ ~ }.>X>XQ._ _ ( J 5XxXjXV.eXeXeXy.B J D.D.3.a. .t #.;.;.T 6 ZXZXZXZXZXZXZXZXZX",
"ZXZXZXZXZXZXZXZXZXZXZXZXZXZXZXZXZXZXZXZXZXZXZXZXX / ).XX X X X X X X^.F.F.F.F.F.K.H.J.].XXXX~.b 9 b r b b b b ZXZXZXZXZXZXZXZXZX",
"ZXZXZXZXZXZXZXZXZXZXZXZXZXZXZXZXZXZXZXZXZXZXZXZXX ~ oX X~.S.[ ] ] R.) M M N N N N G ^ [ ] K.U.T.S.) N B B N y ZXZXZXZXZXZXZXZXZX",
"ZXZXZXZXZXZXZXZXZXZXZXZXZXZXZXZXZXZXZXZXZXZXZXZXo ^ +X+XOXD % & & 8 0 w e w w 0 e w 0 0 & . ' }.^.H.(.OXOX) b ZXZXZXZXZXZXZXZXZX",
"ZXZXZXZXZXZXZXZXZXZXZXZXZXZXZXZXZXZXZXZXZXZXZXZX= &.+XwXwX>.5 ZXZXZXZXZXZXZXZXZXZXZXZXZXZXZXI ~ Q E OXwXwX8.u ZXZXZXZXZXZXZXZXZX",
"ZXZXZXZXZXZXZXZXZXZXZXZXZXZXZXZXZXZXZXZXZXZXZXZX5 W 5.l.7.:., ZXZXZXZXZXZXZXZXZXZXZXZXZXZXZXZXo . h 5.l.7.4.y ZXZXZXZXZXZXZXZXZX",
"ZXZXZXZXZXZXZXZXZXZXZXZXZXZXZXZXZXZXZXZXZXZXZXZXb A Z L L Z ZXZXZXZXZXZXZXZXZXZXZXZXZXZXZXZXZXZXZXZXL L L Z u ZXZXZXZXZXZXZXZXZX",
"ZXZXZXZXZXZXZXZXZXZXZXZXZXZXZXZXZXZXZXZXZXZXZXZXZXe < * = ZXZXZXZXZXZXZXZXZXZXZXZXZXZXZXZXZXZXZXZXZXZX= = 5 u ZXZXZXZXZXZXZXZXZX",
"ZXZXZXZXZXZXZXZXZXZXZXZXZXZXZXZXZXZXZXZXZXZXZXZXZXZXZXZXZXZXZXZXZXZXZXZXZXZXZXZXZXZXZXZXZXZXZXZXZXZXZXZXZXZXZXZXZXZXZXZXZXZXZXZX",
"ZXZXZXZXZXZXZXZXZXZXZXZXZXZXZXZXZXZXZXZXZXZXZXZXZXZXZXZXZXZXZXZXZXZXZXZXZXZXZXZXZXZXZXZXZXZXZXZXZXZXZXZXZXZXZXZXZXZXZXZXZXZXZXZX",
"ZXZXZXZXZXZXZXZXZXZXZXZXZXZXZXZXZXZXZXZXZXZXZXZXZXZXZXZXZXZXZXZXZXZXZXZXZXZXZXZXZXZXZXZXZXZXZXZXZXZXZXZXZXZXZXZXZXZXZXZXZXZXZXZX",
"ZXZXZXZXZXZXZXZXZXZXZXZXZXZXZXZXZXZXZXZXZXZXZXZXZXZXZXZXZXZXZXZXZXZXZXZXZXZXZXZXZXZXZXZXZXZXZXZXZXZXZXZXZXZXZXZXZXZXZXZXZXZXZXZX",
"ZXZXZXZXZXZXZXZXZXZXZXZXZXZXZXZXZXZXZXZXZXZXZXZXZXZXZXZXZXZXZXZXZXZXZXZXZXZXZXZXZXZXZXZXZXZXZXZXZXZXZXZXZXZXZXZXZXZXZXZXZXZXZXZX",
"ZXZXZXZXZXZXZXZXZXZXZXZXZXZXZXZXZXZXZXZXZXZXZXZXZXZXZXZXZXZXZXZXZXZXZXZXZXZXZXZXZXZXZXZXZXZXZXZXZXZXZXZXZXZXZXZXZXZXZXZXZXZXZXZX",
"ZXZXZXZXZXZXZXZXZXZXZXZXZXZXZXZXZXZXZXZXZXZXZXZXZXZXZXZXZXZXZXZXZXZXZXZXZXZXZXZXZXZXZXZXZXZXZXZXZXZXZXZXZXZXZXZXZXZXZXZXZXZXZXZX",
"ZXZXZXZXZXZXZXZXZXZXZXZXZXZXZXZXZXZXZXZXZXZXZXZXZXZXZXZXZXZXZXZXZXZXZXZXZXZXZXZXZXZXZXZXZXZXZXZXZXZXZXZXZXZXZXZXZXZXZXZXZXZXZXZX",
"ZXZXZXZXZXZXZXZXZXZXZXZXZXZXZXZXZXZXZXZXZXZXZXZXZXZXZXZXZXZXZXZXZXZXZXZXZXZXZXZXZXZXZXZXZXZXZXZXZXZXZXZXZXZXZXZXZXZXZXZXZXZXZXZX",
"ZXZXZXZXZXZXZXZXZXZXZXZXZXZXZXZXZXZXZXZXZXZXZXZXZXZXZXZXZXZXZXZXZXZXZXZXZXZXZXZXZXZXZXZXZXZXZXZXZXZXZXZXZXZXZXZXZXZXZXZXZXZXZXZX"
};
