/* XPM */
static char *result[] = {
/* columns rows colors chars-per-pixel */
"60 64 240 2 ",
"   c #000000",
".  c #000C01",
"X  c #00130C",
"o  c #00001E",
"O  c #000B19",
"+  c #00151E",
"@  c #00191E",
"#  c #350307",
"$  c #000523",
"%  c #000C25",
"&  c #001423",
"*  c #011923",
"=  c #081A29",
"-  c #151B25",
";  c #191C26",
":  c #1B1C29",
">  c #160B30",
",  c #281E27",
"<  c #1E232C",
"1  c #073532",
"2  c #33212C",
"3  c #3A232B",
"4  c #362125",
"5  c #382232",
"6  c #2D2A35",
"7  c #14240F",
"8  c #530000",
"9  c #4B0108",
"0  c #65001C",
"q  c #680704",
"w  c #530022",
"e  c #501434",
"r  c #41272B",
"t  c #562B29",
"y  c #503926",
"u  c #482635",
"i  c #5C2D3A",
"p  c #582A38",
"a  c #563235",
"s  c #632F2B",
"d  c #6C322B",
"f  c #74362A",
"g  c #632F3B",
"h  c #692F38",
"j  c #69333B",
"k  c #7A3535",
"l  c #552E00",
"z  c #6C4515",
"x  c #714D35",
"c  c #5C4622",
"v  c #2F334D",
"b  c #721356",
"n  c #59304A",
"m  c #732545",
"M  c #6B3242",
"N  c #733442",
"B  c #7A3644",
"V  c #7B3648",
"C  c #7E3849",
"Z  c #793648",
"A  c #793352",
"S  c #563C62",
"D  c #025255",
"F  c #30464B",
"G  c #3E6871",
"H  c #49415F",
"J  c #48545A",
"K  c #695A4E",
"L  c #4E4364",
"P  c #68486B",
"I  c #6C7071",
"U  c #426565",
"Y  c #960000",
"T  c #8D0D00",
"R  c #B60000",
"E  c #BE1800",
"W  c #AE3102",
"Q  c #83392C",
"!  c #893D37",
"~  c #983A37",
"^  c #952E00",
"/  c #C30500",
"(  c #C63A00",
")  c #B84610",
"_  c #AC6D08",
"`  c #9A432E",
"'  c #944132",
"]  c #90512E",
"[  c #B7472F",
"{  c #A14631",
"}  c #A9483A",
"|  c #B44D33",
" . c #B54D3C",
".. c #B94D38",
"X. c #BC523B",
"o. c #BC5136",
"O. c #A94B33",
"+. c #B77130",
"@. c #916528",
"#. c #C9500E",
"$. c #D77A0F",
"%. c #C3492F",
"&. c #C34C31",
"*. c #C55435",
"=. c #CA5635",
"-. c #CD5935",
";. c #C6593B",
":. c #C95C39",
">. c #C3553B",
",. c #D25A36",
"<. c #CB643D",
"1. c #C3643D",
"2. c #D16B30",
"3. c #8D0553",
"4. c #823947",
"5. c #833A49",
"6. c #8A3C4A",
"7. c #8C3C46",
"8. c #913F45",
"9. c #8D346A",
"0. c #AE3377",
"q. c #A92E72",
"w. c #A31769",
"e. c #964145",
"r. c #9C4445",
"t. c #904A50",
"y. c #A74942",
"u. c #B05148",
"i. c #B57251",
"p. c #AC7950",
"a. c #935377",
"s. c #AF4979",
"d. c #AF7B77",
"f. c #8B7572",
"g. c #CD6A44",
"h. c #D47C4A",
"j. c #D27546",
"k. c #D07754",
"l. c #C95D70",
"z. c #DF8500",
"x. c #DF8806",
"c. c #DB8013",
"v. c #DA862D",
"b. c #E08C2C",
"n. c #E18E34",
"m. c #E08E3A",
"M. c #E3913B",
"N. c #E08810",
"B. c #BA814E",
"V. c #D8854C",
"C. c #DC8E54",
"Z. c #D88751",
"A. c #DD9156",
"S. c #DD9659",
"D. c #DA975A",
"F. c #CA8950",
"G. c #E29449",
"H. c #E29554",
"J. c #E49B5B",
"K. c #E99F5D",
"L. c #E49856",
"P. c #E28D4B",
"I. c #EBA15E",
"U. c #E49E64",
"Y. c #E7A365",
"T. c #E5A575",
"R. c #E6A97C",
"E. c #F1A361",
"W. c #D38B7F",
"Q. c #697589",
"!. c #B83E80",
"~. c #BD4E86",
"^. c #AF6282",
"/. c #C55587",
"(. c #CB5D93",
"). c #D85A94",
"_. c #C54986",
"`. c #E65C9A",
"'. c #DB629B",
"]. c #C26193",
"[. c #E3629D",
"{. c #ED63A1",
"}. c #F969A9",
"|. c #FC77B0",
" X c #7A8484",
".X c #738D91",
"XX c #7BA2AA",
"oX c #6C8F95",
"OX c #87878A",
"+X c #949597",
"@X c #939090",
"#X c #9AB3BC",
"$X c #8CACB2",
"%X c #A8A8A9",
"&X c #A9B4B4",
"*X c #B7AFB1",
"=X c #A1949C",
"-X c #D8978C",
";X c #EBB999",
":X c #EBB48E",
">X c #D0B4B2",
",X c #E9BEA9",
"<X c #CBA892",
"1X c #EDC3AB",
"2X c #ECC1A6",
"3X c #EDC8B5",
"4X c #F1D1BE",
"5X c #F9D3BD",
"6X c #F3CCB5",
"7X c #DDC0AB",
"8X c #95BBC2",
"9X c #99BBC3",
"0X c #BEBEC2",
"qX c #C8B9C2",
"wX c #A3C4CB",
"eX c #B8D2D7",
"rX c #B7CBD1",
"tX c #C8C8C9",
"yX c #D7D8D9",
"uX c #D0D0D3",
"iX c #F1D4C3",
"pX c #F3DACC",
"aX c #F4DDD2",
"sX c #EACECA",
"dX c #F7E2D7",
"fX c #D9E5E7",
"gX c #E3ECED",
"hX c #ECECEC",
"jX c #E3E4E5",
"kX c #FAEFE9",
"lX c #F8EAE6",
"zX c #FBF1EC",
"xX c #ECF2F3",
"cX c #E9F7F9",
"vX c #FBF5F3",
"bX c #FFFFFF",
"nX c #F5F7F8",
"mX c #E6EFF1",
"MX c #CFDFE3",
"NX c None",
/* pixels */
"NXNXNXNXNXNXNXNXNXNXNXNXNXNXNXNXNXNXNXNXNXNXNXNXNXNXNXNXNXNXNXNXNXNXNXNXNXNXNXNXNXNXNXNXNXNXNXNXNXNXNXNXNXNXNXNXNXNXNXNX",
"NXNXNXNXNXNXNXNXNXNXNXNXNXNXNXNXNXNXNXNXNXNXNXNXNXNXNXNXNXNXNXNXNXNXNXNXNXNXNXNXNXNXNXNXNXNXNXNXNXNXNXNXNXNXNXNXNXNXNXNX",
"NXNXNXNXNXNXNXNXNXNXNXNXNXNXNXNXNXNXNXNXNXNXNXNXNXNXNXNXNXNXNXNXNXNXNXNXNXNXNXNXNXNXNXNXNXNXNXNXNXNXNXNXNXNXNXNXNXNXNXNX",
"NXNXNXNXNXNXNXNXNXNXNXNXNXNXNXNXNXNXNXNXNXNX$ $ $ % $ $ % $ % $ & NXNXNXNXNXNXNXNXNXNXNXNXNXNXNXNXNXNXNXNXNXNXNXNXNXNXNX",
"NXNXNXNXNXNXNXNXNXNXNXNXNXNXNXNXNXNXNXNX$ d O.{ O.{ { { { ~ { O.4.5 o $ & NXNXNXNXNXNXNXNXNXNXNXNXNXNXNXNXNXNXNXNXNXNXNX",
"NXNXNXNXNXNXNXNXNXNXNXNXNXNXNXNXNXO NXQ ~ | -.*.=.-.=.=.,.h.-.=. .` ' ' g = NXNXNXNXNXNXNXNXNXNXNXNXNXNXNXNXNXNXNXNXNXNX",
"NXNXNXNXNXNXNXNXNXNXNXNXNXNXNXNXr Q k *.-.*.*.*.*.*.*.&.j.I.;.<.j.g.=.=.} ~ j 5 NXNXNXNXNXNXNXNXNXNXNXNXNXNXNXNXNXNXNXNX",
"NXNXNXNXNXNXNXNXNXNXNXNXNXNXNXr ~ -.=.*.*.*.*.*.*.*.*.*.<.Z.*.A.E.Z.%.*.*.-.u.4.2 NXNXNXNXNXNXNXNXNXNXNXNXNXNXNXNXNXNXNX",
"NXNXNXNXNXNXNXNXNXNXNXNXNXNX, { ,.g.<.g.<.<.<.<.*.*.*.*.*.&.&.Z.L.h.&.=.*.*.-.u.B 2 NXNXNXNXNXNXNXNXNXNXNXNXNXNXNXNXNXNX",
"NXNXNXNXNXNXNXNXNXNXNXNXNX&  .-.1.D.S.S.S.S.D.S.<.:.:.*.*.*.*.&.&.&.*.*.&.=.=.} V 4.2 NXNXNXNXNXNXNXNXNXNXNXNXNXNXNXNXNX",
"NXNXNXNXNXNXNXNXNXNXNXNX* [ P.B.$ : : : : : $ u S.J.J.V.&.*.>.;.;.;.;.;.>.*.=.} B C , NXNXNXNXNXNXNXNXNXNXNXNXNXNXNXNXNX",
"NXNXNXNXNXNXNXNXbXbXjX  $ S.@.9.}.{.{.}.{.{.{.[.u F.K.J.V.;.vXbXbXvXbXbXvX-X( y.Z C C u NXNXNXNXNXNXNXNXNXNXNXNXNXNXNXNX",
"NXNXNXNXNXNXNXbXbXbXbXxXH 7 l./.n 9.9.b b _.}.{.P v k.M.R.nXbXbXbXgXwXeXbXeXd.#. .V 5.5 NXNXNXNXNXNXNXNXNXNXNXNXNXNXNXNX",
"NXNXNXNXNXNXbXbXbXgXeXeX1 /.s.# J jX#XyXxXqXw.{.[.> _ 2XvXbXbXbXbXfX$X8XeXcX;X/ X.V C N u NXNXNXNXNXNXNXNXNXNXNXNXNXNXNX",
"NXNXNXNXNXNXbXbXbXgXXX8X1 [.w. XhXbXwXnXbXfX=X}.}.).~ >XbXbXbXbXbXbXgXgX8XnXyXd.) C C t.i @ NXNXNXNXNXNXNXNXNXNXNXNXNXNX",
"NXNXNXNXNXNXbXmX&X0XgXMX1 `.3.&XbXbX.XxXbXmX#X0.{.|.3.oXcXbXMXbXtXtXbXbXfXnXcXqXE m A y.k o NXNXNXNXNXNXNXNXNXNXNXNXNXNX",
"NXNXNXNXNXNXbXeX$XtXbXbX^./.b  XtX0X  *XtX&XoX  s.{.s.D #XbX8XxXuXtXbXbXbXbXbXyXY i.y.*.| d NXNXNXNXNXNXNXNXNXNXNXNXNXNX",
"NXNXNXNXNXNXmXMXnXbXbXjX|.a.v     . -         =   ).'.b I mXMXnXbXbXbXbXbXxXjX%Xl K.:.*.,.| % NXNXNXNXNXNXNXNXNXNXNXNXNX",
"NXNXNXNXNXNXXXgXcXnXfX8X}.a.v + ; ; ; ; ; ; ; - X ).}.s.D wXxXbXbXbXbXbXnXeXG   x U.:.*.>.' % NXNXNXNXNXNXNXNXNXNXNXNXNX",
"NXNXNXNXNXNX  XX8XwX9X#X}.A . - ; ; - ; ; ; ; - X `.}.s.D 9X8XmXnXnXnXxXwX8XI   ] J.>.*.' n + NXNXNXNXNXNXNXNXNXNXNXNXNX",
"NXNXNXNXNXNX:   .XwX$X# {.5.X ; ; ; ; ; ; ; ; - X ).}./.  < 8X9X8X9X#X9XwXJ   ] :.>.4.Z 5.j * NXNXNXNXNXNXNXNXNXNXNXNXNX",
"NXNXNXNXNXNXNX- < < = u {.A X ; ; - ; - ; ; ; - X ).}./.  = : < < < < < < o p.I.J.J.7.V 5.g * = NXNXNXNXNXNXNXNXNXNXNXNX",
"NXNXNXNXNXNXNXNX; ; + e {.A X       - ; <       . ).}.s.c D.- $ o o $ & $ O.:.;.;.;.4.5.t.p y *.  NXNXNXNXNXNXNXNXNXNXNX",
"NXNXNXNXNXNXNXNXNX; * v {.^.  %XgXXX      +XnXhXF ).'.S z n.v.$.V.D.F.[ | *.*.*.*.*.4.Z C n 9 t.hX XNXNXNXNXNXNXNXNXNXNX",
"NXNXNXNXNXNXNXNXNXNX    ^.(.b %XbXxXjXyXyXxXbXuX1 `.(.$ K kXlXzX;X$.<.*.=.*.*.*.*.&. . .X.~ o a.bXOXNXNXNXNXNXNXNXNXNXNX",
"NXNXNXNXNXNXNXNXNXNXI uXF `.w.U uXbXbXbXbXnXxXQ./.^.b OXjXbXbXbXzX2X2.[ %.%.%.%.:.Z.:.*.-.` % t.<XyX=XNXNXNXNXNXNXNXNXNX",
"NXNXNXNXNXNXNXNXNXNX+XbXD s.].3.J qX0X0X0X0X>X_.~.^.  &XbXbXbXbXbXdXb.h.V.h.V.h.Z.J.>.=.-.` = 7./ bX&X. NXNXNXNXNXNXNXNX",
"NXNXNXNXNXNXNXNXNXNXf.aXp.1 (.[.q.0.0.0.q.!.!.(.P v x <XdXaXpXbXbXpXb.I.S.I.J.J.J.L.-.{ ` f = g T zXhX+XNXNXNXNXNXNXNXNX",
"NXNXNXNXNXNXNXNXNXNXx n.E.+.a.'.'.'.'.'.'.[.(.L L K F.K.b.b.z.iXbXdXn.J.J.L.J.J.J.J.u.f t d f d   tXhX0X  NXNXNXNXNXNXNX",
"NXNXNXNXNXNXs 3 NXNXx U.J.I.+.6 H L H H H H S P a Z.K.J.J.L.J.z.iXpXm.C.A.A.C.A.A.C.e.*.-.-.=.=.y.9     < NXNXNXNXNXNXNX",
"NXNXNXNXNXr =.d NXNXx L.L.S.E.B.< y y y y y y c J.J.J.J.L.J.J.J.V.M.Z.%.*.&.&.&.&.&.=.*.=.&.*.*.=.-.u.N 4 NXNXNXNXNXNXNX",
"NXNXNXNXNX3 *.d * & h g.U.U.U.J.J.I.J.J.J.J.J.J.J.J.U.U.U.U.U.Y.k.;.*.*.*.*.*.*.*.*.*.*.*.=.*.*.*.*.*.=.| = NXNXNXNXNXNX",
"NXNXNXNXNX3 *.=.k   B.bXbXbX3Xb.L.L.J.L.J.S.J.L.H.x.pXbXnXbXbXbXbXsXE >.*.*.*.*.=.*.*.*.*.*.*.*.*.*.*.*.*.o.4 NXNXNXNXNX",
"NXNXNXNXNX3 o.=.r.# oXbXbXbXbXiXz.G.m.M.G.m.n.L.zXvXbXbXbXbXbXbXbXaX$.%.&.&.&.&.&.*.*.*.*.*.=.*.=.=.*.*.*.*.C 3 NXNXNXNX",
"NXNXNXNXNX3 o.-.y.9 OXbXbXbXbXnXkXkXkXkXkXzXkXzXbXbXbXbXbXbXbXbXbXaXn.C.A.A.A.A.Z.*.=.*.-. .7.e.e.7.X.-.*.*.X.t NXNXNXNX",
"NXNXNXNXNXr *.=.r.e K ;XbXbXbXbXbXbXbXbXbXbXbXbXbXbXbXdX:X;X:XvXbXdXb.J.J.J.J.J.C.[ ~ r.y.8.B 2 6   9 ' } -.;.o.f NXNXNX",
"NXNXNXNXNXNXQ } 8.w I dX2X;XkXbXbXbXbXbXbXbXbXbXbXiX;X4XdXaXdX3X1X:XL.I.J.J.I.J.J.Z.X.h 5 p p h ^ tX@X  g ~ *.,.' $ NXNX",
"NXNXNXNXNXNX& N 5.w I dXiXiXiX4X4X4X4X4X4X4X4X4X4XiXiXiXaXpXaXiXiX;X2.h.h.h.h.h.h.h.u.h : + 3 6.#.sX@X  NX& ~ { d & NXNX",
"NXNXNXNXNXNX* i 7.h z G.dXlX4X,X2X1X2X1X2X1X1X1X2XaXkX3Xz.n.x.pXzX3X#.j.j.j.j.j.g.[ y.y.j % 3 6.y.R -X$XNXNX$ $ = NXNXNX",
"NXNXNXNXNXNXNXO i e x E.n.z.4XvXzXzXzXzXzXzXzXzXvXR.z.G.U.J.L.M.c.v.A.C.C.C.C.A.V. ...*.k = p 4.A R dXfX  NXNXNXNXNXNXNX",
"NXNXNXNXNXNXNXNXNXo x H.L.U.G.n.m.n.n.n.M.m.n.b.b.H.L.L.L.L.L.J.h.o.[ &.&.&.&.&...Z Z C u t 6.4.Z R aXyX  NXNXNXNXNXNXNX",
"NXNXNXNXNXNXNXNXNXNXj k.T.U.L.J.J.S.S.J.L.L.U.T.T.T.T.T.T.T.T.T.Y.Z.%.>.*.*.*.*...C 5.4.u u 6.4.4.[ lXyX  NXNXNXNXNXNXNX",
"NXNXNXNXNXNXNXNXNXNXOXbXbX:XP.J.J.L.J.J.L.G.;XbXbXbXbXbXbXbXbXbX6X$.&.=.*.*.*.*. .5.*.d & p 5.5.W kXbXuX  NXNXNXNXNXNXNX",
"NXNXNXNXNXNXNXNXNXNX@XbXbXbXbXpXx.G.G.G.x.1XbXbXbXbXbXbXbXbXbXbX3Xm.Z.&.*.&.&.} 7.*.=.s & u r.*./ vXtX  NXNXNXNXNXNXNXNX",
"NXNXNXNXNXNXNXNXNXNXk -XbXbXbXbXzXvXvXvXzXbXbXbXbXbXbXbXbXbXbXbX4Xm.L.S.A.A.L.V.[ =.,.s i w 9 k.bX%X6 NXNXNXNXNXNXNXNXNX",
"NXNXNXNXNXNXNXNXNXNXw t.bXbXbXbXbXbXbXbXbXfXI  X X X<X;X;X;X;X;XT.H.L.J.J.Y.Z.;.*.*.d * 8 *XyXq +XNXNXNXNXNXNXNXNXNXNXNX",
"NXNXNXNXNXNXNXNXNXNX> g -XbXbXbXbXbXbXbXuXI q ^ ^ 0 d ] @.2.2.2.C.Y.I.K.I.V.:.&.-.*., i 8 >XbX  NXNXNXNXNXNXNXNXNXNXNXNX",
"NXNXNXNXNXNXNXNXNXNXNX, Y *X>X3X5X5X5X>Xf.Y u.=.=. .k e g ^ &.%.2.k.i.i.i.} } y.} Q & 0 *XtX%XNXNXNXNXNXNXNXNXNXNXNXNXNX",
"NXNXNXNXNXNXNXNXNXNXNX, i 0 Y ) 2.+._ q W ,.=.>.=.-.} C B u } u.} ~ m m m Z 5.B u % u T lXhX. NXNXNXNXNXNXNXNXNXNXNXNXNX",
"NXNXNXNXNXNXNXNXNXNXNXNX+ g j h m e e %.-.-.*.*. . .e.Z 4.5.C Z Z V 6.5.4.N N p + 3 8.( 3X&XNXNXNXNXNXNXNXNXNXNXNXNXNXNX",
"NXNXNXNXNXNXNXNXNXNXNXNXNX+ & u g , *.=.=.>. . .C Z 4.4.4.4.4.4.5.V j N N 2 + NXNXNX| ;.8 NXNXNXNXNXNXNXNXNXNXNXNXNXNXNX",
"NXNXNXNXNXNXNXNXNXNXNXNXNXt t t 4 4 | >.&.y.N N N 4.4.4.4.N B B B g + * , < NXNXNXNX% % NXNXNXNXNXNXNXNXNXNXNXNXNXNXNXNX",
"NXNXNXNXNXNXNXNXNXNXNXNX& ..:.-.| : & N 5.C N * & N 5.C j * * ; : , , 2 5.u NXNXNXNXNXNXNXNXNXNXNXNXNXNXNXNXNXNXNXNXNXNX",
"NXNXNXNXNXNXNXNXNXNXNXNX& | =.*.*.o.4 j 5.j * : ; ; : - ; = * N 5.4.4.V 5.5.i @ NXNXNXNXNXNXNXNXNXNXNXNXNXNXNXNXNXNXNXNX",
"NXNXNXNXNXNXNXNXNXNXNXNX& Z  .*.=.*.4.5.i = NX: ; * g 5.e.*.*.e.5.h r 4.4.5.i & NXNXNXNXNXNXNXNXNXNXNXNXNXNXNXNXNXNXNXNX",
"NXNXNXNXNXNXNXNXNXNXNXNXNX: k u.-.*.5.7.i + NXNXNX- 5 3 u s s r r : 2 5.4.5.i & NXNXNXNXNXNXNXNXNXNXNXNXNXNXNXNXNXNXNXNX",
"NXNXNXNXNXNXNXNXNXNXNXNXNXNX5 p k r.t.M , NXNXNXNXNXNXNXNXNXNXNX& u M V 5.6.n + NXNXNXNXNXNXNXNXNXNXNXNXNXNXNXNXNXNXNXNX",
"NXNXNXNXNXNXNXNXNXNXNXNXNXNXNX& = p p , NXNXNXNXNXNXNXNXNXNXNXNX% ! >. .6.M 3 NXNXNXNXNXNXNXNXNXNXNXNXNXNXNXNXNXNXNXNXNX",
"NXNXNXNXNXNXNXNXNXNXNXNXNXNXNXNX- NX& NXNXNXNXNXNXNXNXNXNXNXNXNXNXd { ` j , NXNXNXNXNXNXNXNXNXNXNXNXNXNXNXNXNXNXNXNXNXNX",
"NXNXNXNXNXNXNXNXNXNXNXNXNXNXNXNXNXNXNXNXNXNXNXNXNXNXNXNXNXNXNXNXNXNX$ % & NXNXNXNXNXNXNXNXNXNXNXNXNXNXNXNXNXNXNXNXNXNXNX",
"NXNXNXNXNXNXNXNXNXNXNXNXNXNXNXNXNXNXNXNXNXNXNXNXNXNXNXNXNXNXNXNXNXNXNXNXNXNXNXNXNXNXNXNXNXNXNXNXNXNXNXNXNXNXNXNXNXNXNXNX",
"NXNXNXNXNXNXNXNXNXNXNXNXNXNXNXNXNXNXNXNXNXNXNXNXNXNXNXNXNXNXNXNXNXNXNXNXNXNXNXNXNXNXNXNXNXNXNXNXNXNXNXNXNXNXNXNXNXNXNXNX",
"NXNXNXNXNXNXNXNXNXNXNXNXNXNXNXNXNXNXNXNXNXNXNXNXNXNXNXNXNXNXNXNXNXNXNXNXNXNXNXNXNXNXNXNXNXNXNXNXNXNXNXNXNXNXNXNXNXNXNXNX",
"NXNXNXNXNXNXNXNXNXNXNXNXNXNXNXNXNXNXNXNXNXNXNXNXNXNXNXNXNXNXNXNXNXNXNXNXNXNXNXNXNXNXNXNXNXNXNXNXNXNXNXNXNXNXNXNXNXNXNXNX"
};
