/* XPM */
static char *result[] = {
/* columns rows colors chars-per-pixel */
"64 64 248 2 ",
"   c #000000",
".  c #040803",
"X  c #010818",
"o  c #01141A",
"O  c #110C0A",
"+  c #2D0A11",
"@  c #13280E",
"#  c #000E25",
"$  c #000022",
"%  c #001523",
"&  c #011924",
"*  c #091927",
"=  c #151B25",
"-  c #1A1C26",
";  c #191B28",
":  c #000033",
">  c #1C1231",
",  c #271E29",
"<  c #361C27",
"1  c #1D212B",
"2  c #1C3A3D",
"3  c #2A212B",
"4  c #37222B",
"5  c #322D39",
"6  c #49030C",
"7  c #790A0E",
"8  c #4C2B16",
"9  c #550824",
"0  c #481B31",
"q  c #4A282A",
"w  c #582A2A",
"e  c #4C3426",
"r  c #4A2734",
"t  c #582B38",
"y  c #523D32",
"u  c #6B312B",
"i  c #75352B",
"p  c #632C3B",
"a  c #69323D",
"s  c #793738",
"d  c #71292A",
"f  c #652025",
"g  c #3B422E",
"h  c #5B4032",
"j  c #6F4F2D",
"k  c #7E612E",
"l  c #624414",
"z  c #003645",
"x  c #2B3D46",
"c  c #1B1D4D",
"v  c #54304B",
"b  c #692B44",
"n  c #6C3245",
"m  c #743443",
"M  c #7B3645",
"N  c #7B3649",
"B  c #7E384A",
"V  c #7A3648",
"C  c #76324E",
"Z  c #6C3C61",
"A  c #6D1E54",
"S  c #2D4344",
"D  c #3A4C53",
"F  c #246164",
"G  c #534748",
"H  c #4C5255",
"J  c #554E64",
"K  c #6E4F6E",
"L  c #556C70",
"P  c #636467",
"I  c #727677",
"U  c #6D4A48",
"Y  c #930909",
"T  c #AC0A01",
"R  c #BF2900",
"E  c #AB3211",
"W  c #863B2C",
"Q  c #883D36",
"!  c #913031",
"~  c #B83A26",
"^  c #8F3400",
"/  c #C33704",
"(  c #C12600",
")  c #964232",
"_  c #984538",
"`  c #8D4C31",
"'  c #A94838",
"]  c #B44D32",
"[  c #B44D3B",
"{  c #BA4A35",
"}  c #BD5135",
"|  c #BC5239",
" . c #B4513D",
".. c #AD5032",
"X. c #8B6632",
"o. c #A55D26",
"O. c #CA4F09",
"+. c #C87610",
"@. c #C44C2E",
"#. c #C2472F",
"$. c #C34D31",
"%. c #CD4F30",
"&. c #C55435",
"*. c #CB5634",
"=. c #CC5A36",
"-. c #C4543A",
";. c #C85A39",
":. c #D25935",
">. c #C9532E",
",. c #CB643D",
"<. c #CC683C",
"1. c #D47732",
"2. c #8E0A52",
"3. c #833A47",
"4. c #8C3D44",
"5. c #843A49",
"6. c #8A3C4A",
"7. c #803547",
"8. c #8D3A4C",
"9. c #8F3868",
"0. c #AA3173",
"q. c #984345",
"w. c #8B404B",
"e. c #A54743",
"r. c #AA554B",
"t. c #B27846",
"y. c #B36B47",
"u. c #9A436B",
"i. c #954C79",
"p. c #8D4F79",
"a. c #B04B78",
"s. c #9E7262",
"d. c #C25841",
"f. c #CE6D42",
"g. c #C66446",
"h. c #D47747",
"j. c #CC724A",
"k. c #C4447F",
"l. c #DD8501",
"z. c #DF841D",
"x. c #DD8627",
"c. c #D4853E",
"v. c #E18D2E",
"b. c #E08B25",
"n. c #E18E38",
"m. c #E2913D",
"M. c #E89335",
"N. c #E4912E",
"B. c #E58910",
"V. c #BB827A",
"C. c #C5854A",
"Z. c #DA864D",
"A. c #C88853",
"S. c #DC8D54",
"D. c #D68C55",
"F. c #DB9358",
"G. c #E29244",
"H. c #E3954B",
"J. c #E29654",
"K. c #E49B5C",
"L. c #E69A59",
"P. c #E68D54",
"I. c #E7A15F",
"U. c #DD9A66",
"Y. c #C5847D",
"T. c #E39C62",
"R. c #E19A72",
"E. c #EBA163",
"W. c #E5A26B",
"Q. c #E5A573",
"!. c #E7A97C",
"~. c #F0A662",
"^. c #707588",
"/. c #CF3787",
"(. c #9C5981",
"). c #B44783",
"_. c #B05686",
"`. c #AB688B",
"'. c #C65489",
"]. c #D95A94",
"[. c #D14F8E",
"{. c #E55A9A",
"}. c #CE6196",
"|. c #E7629E",
" X c #F365A5",
".X c #F969AA",
"XX c #EE69A5",
"oX c #4D8187",
"OX c #738F91",
"+X c #7D9DA4",
"@X c #878889",
"#X c #929091",
"$X c #AB8E92",
"%X c #9998A3",
"&X c #97B5BD",
"*X c #8CACB2",
"=X c #A5A5A5",
"-X c #B6B9BB",
";X c #B2ACAC",
":X c #D4968E",
">X c #D8A39C",
",X c #E7AE84",
"<X c #E8AE86",
"1X c #EABB9C",
"2X c #EAB295",
"3X c #EC8EB6",
"4X c #D8AEA9",
"5X c #E9B9AA",
"6X c #DF89B2",
"7X c #ECC0A5",
"8X c #EDC3AA",
"9X c #EDCAB6",
"0X c #F0CEBA",
"qX c #F2CBB4",
"wX c #F1D0BD",
"eX c #98BCC4",
"rX c #8FB8C0",
"tX c #AFBFC3",
"yX c #C1BFC0",
"uX c #9CC3CA",
"iX c #A3C6CC",
"pX c #B4CCD2",
"aX c #BBC9CD",
"sX c #C4C5C6",
"dX c #D9DBDB",
"fX c #CED5D7",
"gX c #E7C7C3",
"hX c #F1D4C4",
"jX c #F4DACB",
"kX c #F5DED3",
"lX c #E6D4D4",
"zX c #F7E3D8",
"xX c #CCDDE1",
"cX c #DCE4E6",
"vX c #E6E8E9",
"bX c #F9EBE4",
"nX c #F9EEE9",
"mX c #F5E8E4",
"MX c #FBF2ED",
"NX c #F4F0EF",
"BX c #E6EFF1",
"VX c #EBF4F6",
"CX c #F3F5F5",
"ZX c #FCF5F3",
"AX c #FDF8F5",
"SX c #FFFEFE",
"DX c #F6FAFA",
"FX c None",
/* pixels */
"FXFXFXFXFXFXFXFXFXFXFXFXFXFXFXFXFXFXFXFXFXFXFXFXFXFXFXFXFXFXFXFXFXFXFXFXFXFXFXFXFXFXFXFXFXFXFXFXFXFXFXFXFXFXFXFXFXFXFXFXFXFXFXFX",
"FXFXFXFXFXFXFXFXFXFXFXFXFXFXFXFXFXFXFXFXFXFXFXFXFXFXFXFXFXFXFXFXFXFXFXFXFXFXFXFXFXFXFXFXFXFXFXFXFXFXFXFXFXFXFXFXFXFXFXFXFXFXFXFX",
"FXFXFXFXFXFXFXFXFXFXFXFXFXFXFXFXFXFXFXFXFXFXFXFXFXFXFXFXFX# # # % * # # & & % # % FXFXFXFXFXFXFXFXFXFXFXFXFXFXFXFXFXFXFXFXFXFXFX",
"FXFXFXFXFXFXFXFXFXFXFXFXFXFXFXFXFXFXFXFXFXFXFXFXFXFXFXFXq _ ) ) ! _ ) ) ) ! ! ' Q 5 FXFX# FXFXFXFXFXFXFXFXFXFXFXFXFXFXFXFXFXFXFX",
"FXFXFXFXFXFXFXFXFXFXFXFXFXFXFXFXFXFXFXFXFXFXFXFXFXFXi Q ) :.:.*.*.*.*.*.<.h.*.%.{ ! Q W a > FXFXFXFXFXFXFXFXFXFXFXFXFXFXFXFXFXFX",
"FXFXFXFXFXFXFXFXFXFXFXFXFXFXFXFXFXFXFXFXFXFXFXw i i $.:.*.&.&.&.&.&.&.{ Z.K.&.,.f.,.-.=.r.4.i r ; FXFXFXFXFXFXFXFXFXFXFXFXFXFXFX",
"FXFXFXFXFXFXFXFXFXFXFXFXFXFXFXFXFXFXFXFXFXFX, ' *.&.*.-.*.$.&.&.&.&.&.@.h.S.&.S.E.S.&.&.>.*.-.4.t = FXFXFXFXFXFXFXFXFXFXFXFXFXFX",
"FXFXFXFXFXFXFXFXFXFXFXFXFXFXFXFXFXFXFXFXFX# ' *.*.;.&.&.&.&.-.&.&.&.&.&.;.;.-.S.E.S.&.&.&.*.*.*.e.v % FXFXFXFXFXFXFXFXFXFXFXFXFX",
"FXFXFXFXFXFXFXFXFXFXFXFXFXFXFXFXFXFXFXFXq ] @.h.K.F.J.J.F.F.P.h.#.$.$.&.&.$.$.=.,.*.@.@.*.$.&.*.e.V a 3 FXFXFXFXFXFXFXFXFXFXFXFX",
"FXFXFXFXFXFXFXFXFXFXFXFXFXFXFXFXFXFXFXd | P.o.l X.k k k X.X.k C.P.Z.S.;.$.*./ ( R R R R / / -.-.q.B M - FXFXFXFXFXFXFXFXFXFXFXFX",
"FXFXFXFXFXFXFXFXFXFXFXFXFXFXFXSXDXFX  y.P.X.a.).).).).).a.0.0.i.C.~.E.F.O.r.9XgXgXgXgXhXgX>X/ &.q.m M p r FXFXFXFXFXFXFXFXFXFXFX",
"FXFXFXFXFXFXFXFXFXFXFXFXFXFXSXSXSXsXP j t.9.'.]./.[././.]..X.X9.g A.F.v.U.gXSXSXSXDXVXVXSXZXs.g.[ 4.B 6.r o FXFXFXFXFXFXFXFXFXFX",
"FXFXFXFXFXFXFXFXFXFXFXFXFXSXSXDXBXDX#X+ 9.].t H %X^.%X%X$X[. X}.Z @ I.!.kXSXSXSXSXBX*X*XxXVXpXg.O.[ V 7.p 4 FXFXFXFXFXFXFXFXFXFX",
"FXFXFXFXFXFXFXFXFXFXFXFXSXSXSXBXeXiXL 9.|.r S sXDXeXCXDXvXK |..X'.a C.zXSXAXSXSXSXCXiXpXeXxXDXY.@.[ N 7.5.a & FXFXFXFXFXFXFXFXFX",
"FXFXFXFXFXFXFXFXFXFXFXFXSXDXSXvXeXiXF 0.|.  dXSXDXuXDXSXVX&XXX X X{.8 dXSXSXSXSXDXSXDXSXxXpXSXpXs.E N 7.6.a % FXFXFXFXFXFXFXFXFX",
"FXFXFXFXFXFXFXFXFXFXFXFXSXxXOX=XSXSXOX2.{.+ BXSXvXH NXSXCXeXP [..X|.  *XBXDXpXDXsX@XSXSXVXDXSXDX5XT b N [ ) $ FXFXFXFXFXFXFXFXFX",
"FXFXFXFXFXFXFXFXFXFXFXFXSXiXiXmXSXSX3X0.(.> @X=X@X  #X=X#XL & p '.|.J z sXSX&XVXvXdXSXSXSXSXSXSX4X^ A.[ -.&.) - FXFXFXFXFXFXFXFX",
"FXFXFXFXFXFXFXFXFXFXFXFXBXcXSXSXDXcX3X[.D >       -         -   u. X].9 OXcXcXDXSXSXSXSXSXDXfXaXL ` L.;.$.:.&.- FXFXFXFXFXFXFXFX",
"FXFXFXFXFXFXFXFXFXFXFXFX+XcXBXcXcXuX6X'.v ; 1 1 1 - 1 3 1 1 = . u.XX.X2.oXpXBXSXSXSXSXSXCXxX&X    s.L.;.&.$.) , FXFXFXFXFXFXFXFX",
"FXFXFXFXFXFXFXFXFXFXFXFX; +XeXiXuX*X6X'.  = - - - = = - = ; ;   u. X.XA L eXuXvXVXVXVXVXxXeX*XS + ..Z.| | e.n - FXFXFXFXFXFXFXFX",
"FXFXFXFXFXFXFXFXFXFXFXFX1 = +XeX*X2 [.'.. = 1 = ; - = - - - 1 . u..X Xu.  D &X&X&X&X&X&X&X+Xo h | <.,.3.B 3.m - FXFXFXFXFXFXFXFX",
"FXFXFXFXFXFXFXFXFXFXFXFXFX- 5 H D   ].'.. 1 = = = ; ; - = - - . u. X|.9.@ , D S S S S x D 2 8 D.L.L.D.3.V 3.m ; < G H FXFXFXFXFX",
"FXFXFXFXFXFXFXFXFXFXFXFXFXFX.     o ].'.  1       ; = = X       9..X.XC X.C.              f | ,.<.f.g.4.B 5.m = T gXdX  FXFXFXFX",
"FXFXFXFXFXFXFXFXFXFXFXFXFXFXFX1 1 . ].].z X sXsXoX      I dXvXOX2..X_.5 o.G.+.+.c.A.A. .' | *.$.$.>.{ M m N n ; 7 lXSXdXP FXFXFX",
"FXFXFXFXFXFXFXFXFXFXFXFXFXFXFXFXo   u.}._.O NXSXdXyXyXyXdXSXVXOX2..XK   #XkXjXkX1Xl.h.,.:.*.&.&.*.$.$.' ' [ _ - 9 $XjXSXP FXFXFX",
"FXFXFXFXFXFXFXFXFXFXFXFXFXFXFXFXG =XL ).|.  -XZXSXSXSXSXSXSX*Xp.).'.Z @XdXAXSXSXbX2X<.*.@.$.@.{ #.g.h.*.*.>.{ - b T :XSXyX(.FXFX",
"FXFXFXFXFXFXFXFXFXFXFXFXFXFXFXFXP AX*XA ].9.  =XcXdXcXdXxXdX`.[.}.J   vXSXSXSXSXSXMXK.1.f.f.<.f.f.Z.K.-.&.*.] - a ! Y.zXSXaX. FX",
"FXFXFXFXFXFXFXFXFXFXFXFXFXFXFXFXP bX$XO p..Xu.Z (.i.i.i.p.(.{._.J Z u fXMXnXnXSXSXbXF.L.K.K.K.K.K.K.J.=.&.&.' ; m N ! g.AX-X. FX",
"FXFXFXFXFXFXFXFXFXFXFXFXFXFXFXFXh W.I.t.v |.|.].{.].{.{.{.].(.Z v j D.W.Q.W.W.bXSXbXH.L.K.K.K.K.K.K.J.-.$.e.V ; m 7.! =.AX-X  FX",
"FXFXFXFXFXFXFXFXFXFXFXFXFXFXFXFXy n.I.K.C.b p.(.(.(.(.(.(.(.K z U F.L.H.m.m.G.T.zXMXJ.L.K.K.K.K.K.K.F.q.Q 4.m ; m 7.! d.AX-X  FX",
"FXFXFXFXFXFXFXFXFXFXFXFXFXFXFXFXh F.I.I.F.C.h : : : : : : : c y.F.~.K.T.T.T.T.n.!.1XK.h.f.f.f.f.f.f.g.B C v , 1 b ! Y.bXSXyX  FX",
"FXFXFXFXFXFXFXFXFXFXFXFXFXFXFXFXq O.z.v.n.I.C.t.t.t.t.t.t.t.y.S.I.L.v.v.v.v.v.m.+.O.h.&.#.$.$.@.&.$.} B ' ] W * ! ( >XSXsX@XFXFX",
"FXFXFXFXFXFXFXFXFXFXFXFXFXFXFXFXG 4X9X0X8XG.L.E.E.E.E.E.E.E.E.H.b.K.9X9XqX0X9XqX9X>X~ @.&.&.&.&.&.&.| ' } :.} r Q E s.lXr FXFXFX",
"FXFXFXFXFXFXFXFXFXFXFXFXFXFXFXFXP SXSXSXSX7XL.v.m.m.G.m.m.m.v.,X1XqXSXSXSXSXSXSXSXMX,.@.@.@.$.$.&.&.&.&.&.&.-.q., 5 9 + 4 FXFXFX",
"FXFXFXFXFXFXFXFXFXFXFXFXFXFXFXFXP CXSXSXSXSX8X!.,X<X<X<X<X<XQ.bXSXSXSXSXSXSXSXSXSXzXJ.<.,.,.,.,.;.&.-.&.&.&.&.&.w 6 U I FXFXFXFX",
"FXFXFXFXFXFXFXFXFXFXFXFXFXFX=   J NXSXSXSXSXSXAXAXAXAXZXZXSXZXSXSXSXSXAXZXMXZXSXSXMXH.J.F.K.J.K.f.@.&.&.&.&.*.*.w 7 >XCX#XFXFXFX",
"FXFXFXFXFXFXFXFXFXFXFXFXFXFX= X h U.nXSXSXDXSXSXSXSXSXSXSXSXSXSXSXSXSX9XQ.!.!.MXSXnXF.J.K.L.L.I.h.@.&.&.*.&.&.&.Q 6 $XSXDX=X  FX",
"FXFXFXFXFXFXFXFXFXFXFXFXFX% a 9 H bXqXQ.8XSXSXSXSXSXSXSXSXSXSXSXbX!.,XjXbXbXnX1X<X!.I.I.I.I.K.E.y.4.e.4.| *.&.&.&.u G >XSXaX  FX",
"FXFXFXFXFXFXFXFXFXFXFXFXFXo C f H 9XzXzXjX7X1X5X7X7X7X7X7X7X7X1X9XzXzXjXwXwXhXkXzXwX<.f.f.f.f.h.Q : 5 N 4.[ *.&.*.W 6 O.AX-X  FX",
"FXFXFXFXFXFXFXFXFXFXFXFXFXt N p e l.qXzXzXwXwX0X0XwX0X0X0X0X0XwXhXzXzX,Xl.x.x.hXbXhXh.h.h.h.h.h.t.r.W w V q.[ &.*._ 9 r.AX-X  FX",
"FXFXFXFXFXFXFXFXFXFXFXFX3 B 6.p e F.H.z.W.bXMXnXnXnXnXnXnXnXMXMXhXx.m.J.K.K.K.G.x.1.F.F.S.S.F.F.L.h.' r t m q.*.*.e.d z SXsX  FX",
"FXFXFXFXFXFXFXFXFXFXFXFX3 M 6.p e Z.G.J.T.H.G.G.G.H.G.G.H.G.v.l.x.G.G.G.G.G.G.G.1.-.&.$.$.&.$.$.%.' V 5.r r 4.r.&.:.~ 5 vX;X  FX",
"FXFXFXFXFXFXFXFXFXFXFXFX3 m 6.a 4 j.R.T.H.H.L.K.K.F.K.K.J.H.W.Q.Q.Q.Q.Q.Q.Q.Q.Q.W.Z.@.&.&.&.&.&.*.[ N 5.5.t < d } *.] & H FXFXFX",
"FXFXFXFXFXFXFXFXFXFXFXFX3 m 6.9 H mXCXhXm.K.K.K.K.K.K.K.J.Q.bXMXMXnXMXMXMXMXMXMX0Xx.&.&.&.&.&.&.*.' 5.| i , 1 5 ] :.' % FXFXFXFX",
"FXFXFXFXFXFXFXFXFXFXFXFX3 M a + P SXSXSXzXbX,Xl.m.m.n.l.<XbXSXSXSXSXSXSXSXSXSXSXhXv.S.;.@.$.@.@.e.q.r.%.i   I dXs.E } & FXFXFXFX",
"FXFXFXFXFXFXFXFXFXFXFXFX3 t 0   v >XbXSXSXSXbXjXkXzXkXkXbXSXSXSXSXSXSXSXSXSXSXAXhXv.K.S.Z.Z.Z.S.y.~ :.:.d O #XAXOX6 s = FXFXFXFX",
"FXFXFXFXFXFXFXFXFXFXFXFX= o FXFX< Y vXSXSXSXSXSXSXSXSXSXSXSXSXSXMXhXjXjXjXhXjXjX1XH.K.K.K.T.E.S.<.$.$.) 4 O $XSX#X  FX1 FXFXFXFX",
"FXFXFXFXFXFXFXFXFXFXFXFXFXFXFXFX, 9 4XZXSXSXSXSXSXSXSXSXSXSXbXzX0XB.m.M.v.1.1.z.H.K.L.K.K.J.Z.&.%.*.} = * Y s.dXOXFXFXFXFXFXFXFX",
"FXFXFXFXFXFXFXFXFXFXFXFXFXFXFXFXFX& Y >XNXnXZXnXnXnXZXnXMXbXU.+.C.A.D.D.j.~ { ~ h.F.D.D.F.h.{ } -.} ' , s r.~   FXFXFXFXFXFXFXFX",
"FXFXFXFXFXFXFXFXFXFXFXFXFXFXFXFXFX& a 6.w.d.S.T.T.T.T.T.U.F.y ; q e 3.4.3.3.B N ' | 3.5.B 5.7.5.5.a * & ..' o FXFXFXFXFXFXFXFXFX",
"FXFXFXFXFXFXFXFXFXFXFXFXFXFXFXFXFXFX, t ! ! Q 4.q.q.Q q.Q 8 b ' ] ] } } } [ 5.N 5.4.B M V B V 5.t ; * = w w FXFXFXFXFXFXFXFXFXFX",
"FXFXFXFXFXFXFXFXFXFXFXFXFXFXFXFXFXFXFX4 v 5 b C C C 7.0 w ' [ &.:.*.*.&.*.*.-.4.V B 5.6.6.m r t 3 FXFXFXFXFXFXFXFXFXFXFXFXFXFXFX",
"FXFXFXFXFXFXFXFXFXFXFXFXFXFXFXFXFXFXFXFXo & r t t t t 3 i :.*.&.&.&.>.*.[ q.e.q.n r t t p r FXFXFXFXFXFXFXFXFXFXFXFXFXFXFXFXFXFX",
"FXFXFXFXFXFXFXFXFXFXFXFXFXFXFXFXFXFXFXFXFXFX& & o o % % u [ &.&.&.&.e.' q.m r t 4 o & FXFXFXFXFXFXFXFXFXFXFXFXFXFXFXFXFXFXFXFXFX",
"FXFXFXFXFXFXFXFXFXFXFXFXFXFXFXFXFXFXFXFXFXFXFX= < r , % , m | *.*.&._ 5.N m r r r 4 % FXFXFXFXFXFXFXFXFXFXFXFXFXFXFXFXFXFXFXFXFX",
"FXFXFXFXFXFXFXFXFXFXFXFXFXFXFXFXFXFXFXFXFXFXFXFXr 5.r 3 ; - ..] ] | | q.B 3.4.5.8.4.w 3 FXFXFXFXFXFXFXFXFXFXFXFXFXFXFXFXFXFXFXFX",
"FXFXFXFXFXFXFXFXFXFXFXFXFXFXFXFXFXFXFXFXFXFXFXFXr N 4.4.a * , = & 4 M M M V V V ' *.&.w FXFXFXFXFXFXFXFXFXFXFXFXFXFXFXFXFXFXFXFX",
"FXFXFXFXFXFXFXFXFXFXFXFXFXFXFXFXFXFXFXFXFXFXFXFXFXq [ *.[ m N r * & 3 4 4 4 4 ..*.*.-.u FXFXFXFXFXFXFXFXFXFXFXFXFXFXFXFXFXFXFXFX",
"FXFXFXFXFXFXFXFXFXFXFXFXFXFXFXFXFXFXFXFXFXFXFXFXFXFXu ..:.[ 5.N t o * FXX q ] *.:.} u FXFXFXFXFXFXFXFXFXFXFXFXFXFXFXFXFXFXFXFXFX",
"FXFXFXFXFXFXFXFXFXFXFXFXFXFXFXFXFXFXFXFXFXFXFXFXFXFXFXw ' :.-.q.B p = FXFXw ) W Q i FXFXFXFXFXFXFXFXFXFXFXFXFXFXFXFXFXFXFXFXFXFX",
"FXFXFXFXFXFXFXFXFXFXFXFXFXFXFXFXFXFXFXFXFXFXFXFXFXFXFXFX- W W m C 5.a 4 FXFXFX$ $ FXFXFXFXFXFXFXFXFXFXFXFXFXFXFXFXFXFXFXFXFXFXFX",
"FXFXFXFXFXFXFXFXFXFXFXFXFXFXFXFXFXFXFXFXFXFXFXFXFXFXFXr s Q W ' e.8.w.t & FXFXFXFXFXFXFXFXFXFXFXFXFXFXFXFXFXFXFXFXFXFXFXFXFXFXFX",
"FXFXFXFXFXFXFXFXFXFXFXFXFXFXFXFXFXFXFXFXFXFXFXFXFXFX& t e.:.:.:.r.6.6.r FXFXFXFXFXFXFXFXFXFXFXFXFXFXFXFXFXFXFXFXFXFXFXFXFXFXFXFX",
"FXFXFXFXFXFXFXFXFXFXFXFXFXFXFXFXFXFXFXFXFXFXFXFXFXFXFXFXFXFXFXFXFXFXFXFXFXFXFXFXFXFXFXFXFXFXFXFXFXFXFXFXFXFXFXFXFXFXFXFXFXFXFXFX"
};
