/* XPM */
static char *result[] = {
/* columns rows colors chars-per-pixel */
"64 62 244 2 ",
"   c #000000",
".  c #04040D",
"X  c #1E0000",
"o  c #160000",
"O  c #000012",
"+  c #00001C",
"@  c #1D0019",
"#  c #061513",
"$  c #250000",
"%  c #2A0000",
"&  c #2E0C0B",
"*  c #2F2219",
"=  c #38240D",
"-  c #00002D",
";  c #000025",
":  c #000033",
">  c #000638",
",  c #00153B",
"<  c #021939",
"1  c #0D0E2D",
"2  c #2B1729",
"3  c #01223C",
"4  c #04293E",
"5  c #0D263D",
"6  c #1B243B",
"7  c #102524",
"8  c #2D2625",
"9  c #352B29",
"0  c #292939",
"q  c #302C33",
"w  c #312E3A",
"e  c #32313A",
"r  c #363136",
"t  c #43332D",
"y  c #421B23",
"u  c #6B4733",
"i  c #001D40",
"p  c #063053",
"a  c #282D41",
"s  c #2C3142",
"d  c #273143",
"f  c #323443",
"g  c #333749",
"h  c #353A4B",
"j  c #3C3D4C",
"k  c #3B3946",
"l  c #373F54",
"z  c #002370",
"x  c #463F4A",
"c  c #3E404F",
"v  c #3D4352",
"b  c #374359",
"n  c #1A4666",
"m  c #1A4767",
"M  c #004664",
"N  c #374967",
"B  c #374D72",
"V  c #3B5377",
"C  c #2A4C74",
"Z  c #3C687F",
"A  c #114A5F",
"S  c #45434D",
"D  c #564A4E",
"F  c #484A56",
"G  c #5B5054",
"H  c #53545D",
"J  c #5D4B52",
"K  c #6A4E4A",
"L  c #674E53",
"P  c #695759",
"I  c #765859",
"U  c #7D4742",
"Y  c #76625E",
"T  c #585A62",
"R  c #4A5068",
"E  c #546477",
"W  c #66666D",
"Q  c #726D70",
"!  c #6C5F60",
"~  c #875D5B",
"^  c #915755",
"/  c #886459",
"(  c #866A65",
")  c #8C736A",
"_  c #95776D",
"`  c #9A786F",
"'  c #B27B71",
"]  c #A9786F",
"[  c #C17F74",
"{  c #9F8173",
"}  c #AC8B7C",
"|  c #A28476",
" . c #B4897A",
".. c #B3907F",
"X. c #C68A7C",
"o. c #D58C7E",
"O. c #0F5481",
"+. c #3A5983",
"@. c #265587",
"#. c #3F6392",
"$. c #3E618E",
"%. c #347AB1",
"&. c #077594",
"*. c #5B7383",
"=. c #436897",
"-. c #4F7893",
";. c #7B7E84",
":. c #63728B",
">. c #4575AC",
",. c #4370A5",
"<. c #4779B5",
"1. c #487AB8",
"2. c #526EA9",
"3. c #465F89",
"4. c #0A76C9",
"5. c #327CC1",
"6. c #0D95B9",
"7. c #3389A7",
"8. c #4E88AB",
"9. c #7193B0",
"0. c #5F839A",
"q. c #1A8BCC",
"w. c #0790D3",
"e. c #2793D1",
"r. c #288ECE",
"t. c #37ABDB",
"y. c #3BB7E3",
"u. c #4D84CD",
"i. c #4C84C6",
"p. c #5289CB",
"a. c #4D8BD2",
"s. c #5597D6",
"d. c #5494D0",
"f. c #5BA9C8",
"g. c #5CABDA",
"h. c #5AA2D8",
"j. c #4EB0DD",
"k. c #64B8D8",
"l. c #65A8D7",
"z. c #49B9E4",
"x. c #55B9E5",
"c. c #5FAFE2",
"v. c #68BBE4",
"b. c #619BD1",
"n. c #43C1E9",
"m. c #4AC2E8",
"M. c #55C4EA",
"N. c #56C4E9",
"B. c #48C9F2",
"V. c #56CBF2",
"C. c #6BC6EB",
"Z. c #6BCBEE",
"A. c #68C4E8",
"S. c #74CAEC",
"D. c #71C5E7",
"F. c #6CCEF2",
"G. c #71CDF3",
"H. c #72D1F4",
"J. c #78D6F9",
"K. c #6BD0F1",
"L. c #89878B",
"P. c #888D95",
"I. c #979697",
"U. c #99938D",
"Y. c #BA9684",
"T. c #B88580",
"R. c #9C9FA3",
"E. c #828EA5",
"W. c #9DA1A5",
"Q. c #8DA0AC",
"!. c #A5A5A8",
"~. c #B5B5B7",
"^. c #AEAFB1",
"/. c #B6A59D",
"(. c #DD8E80",
"). c #C49E89",
"_. c #C69986",
"`. c #D99786",
"'. c #CF8F81",
"]. c #E59C8A",
"[. c #E99C8B",
"{. c #E39787",
"}. c #CCA48E",
"|. c #C6A18B",
" X c #D8AC93",
".X c #DEB298",
"XX c #D4A990",
"oX c #EBA18E",
"OX c #E5A28D",
"+X c #EAA591",
"@X c #EBAB94",
"#X c #E2AA92",
"$X c #E3B59B",
"%X c #EEB299",
"&X c #EBBA9E",
"*X c #E7B99E",
"=X c #F2B49B",
"-X c #F3B99F",
";X c #F0A591",
":X c #EDBEA1",
">X c #F5BDA1",
",X c #FBBDA2",
"<X c #F5C2A4",
"1X c #FAC3A6",
"2X c #FBC7A8",
"3X c #FDCBAC",
"4X c #F5C5A8",
"5X c #FFD0AF",
"6X c #FFD2B2",
"7X c #FFDCBB",
"8X c #FFD8B7",
"9X c #F3C5A8",
"0X c #97AED8",
"qX c #ACB8CE",
"wX c #A3BEE3",
"eX c #9CD5EF",
"rX c #9CD7F1",
"tX c #96CAE6",
"yX c #A6D7EE",
"uX c #A6D8EF",
"iX c #AAD9EF",
"pX c #B2D7ED",
"aX c #A6DAF2",
"sX c #ABDCF3",
"dX c #A3DFF9",
"fX c #B4DEF2",
"gX c #BCD1F3",
"hX c #ABC6E6",
"jX c #B6E4F8",
"kX c #ADE1F7",
"lX c #C4C5C7",
"zX c #D4D4D6",
"xX c #D3CFCB",
"cX c #FFE3C6",
"vX c #D2DCEA",
"bX c #CDE8F6",
"nX c #CAE9F8",
"mX c #D1F0FD",
"MX c #E3E6E7",
"NX c #FEFFFF",
"BX c #F5F6F7",
"VX c #ECF1F3",
"CX c #E6DAD4",
"ZX c None",
/* pixels */
"ZXZXZXZXZXZXZXZXZXZXZXZXZXZXZXZXZXZXZXZXZXZXZXZXZXZXZXZXZXZXZXZXZXZXZXZXZXZXZXZXZXZXZXZXZXZXZXZXZXZXZXZXZXZXZXZXZXZXZXZXZXZXZXZX",
"ZXZXZXZXZXZXZXZXZXZXZXZXZXZXZXZXZXZXZXZXZXZXZXZXZXZXZXZXZXZXZXZXZXZXZXZX^.R.!.ZXZXZXZXZXZXZXZXZXZXZXZXZXZXZXZXZXZXZXZXZXZXZXZXZX",
"ZXZXZXZXZXZXZXZXZXZXZXZXZXZXZXZXZXZXZXZXZXZXZXZXZXZXZXZXZXZXZXZXZXZX  R.NXNXNXW 1 ZXZXZXZXZXZXZXZXZXZXZXZXZXZXZXZXZXZXZXZXZXZXZX",
"ZXZXZXZXZXZXZXZXZXZXZXZXZXZXZXZXZXZXZXZXZXZXZXZXZXZXZXZXZXZXZXZXZXZX  P.NXNXNXT ; ZXZXZXZXZXZXZXZXZXZXZXZXZXZXZXZXZXZXZXZXZXZXZX",
"ZXZXZXZXZXZXZXZXZXZXZXZXZXZXZXZXZXZXZXZXZXZXZXZXZXZXZXZXZXZXZXs S H F F L.Q L.T j T x s ZXZXZXZXZXZXZXZXZXZXZXZXZXZXZXZXZXZXZXZX",
"ZXZXZXZXZXZXZXZXZXZXZXZXZXZXZXZXZXZXZXZXZXZXZXZXZXZXZXZXZXZXZX  lXBXMXBXVXVXBXMXVXBX!.  ZXZXZXZXZXZXZXZXZXZXZXZXZXZXZXZXZXZXZXZX",
"ZXZXZXZXZXZXZXZXZXZXZXZXZXZXZXZXZXZXZXZXZXZXZXZXZXZXZXZXZXZXZXS O P.~.NXNXNXNXlXBXW - S ZXZXZXZXZXZXZXZXZXZXZXZXZXZXZXZXZXZXZXZX",
"ZXZXZXZXZXZXZXZXZXZXZXZXZXZXZXZXZXZXZXZXZXZXZXZXZXZXZXZXZXZXZXS ; xXMXzXzXzXzXzXMX~.O S ZXZXZXZXZXZXZXZXZXZXZXZXZXZXZXZXZXZXZXZX",
"ZXZXZXZXZXZXZXZXZXZXZXZXZXZXZXZXZXZXZXZXZXZXZXZXZXZXZXZXZXZXZXZXZXZXZXZXZXZXZXZXZXZXZXZXZXZXZXZXZXZXZXZXZXZXZXZXZXZXZXZXZXZXZXZX",
"ZXZXZXZXZXZXZXZXZXZXZXZXZXZXZXZXZXZXZXZXZXZXZXZXZXZXZXs d d d a 6 h v v v v v j v g < d a ZXZXZXZXZXZXZXZXZXZXZXZXZXZXZXZXZXZXZX",
"ZXZXZXZXZXZXZXZXZXZXZXZXZXZXZXZXZXZXZXZXZXZXZXZXZX3 ..6X1X2X3X>X[.+X+X+X+X+X+X+X@XoX;XoX`.x k ZXZXZXZXZXZXZXZXZXZXZXZXZXZXZXZXZX",
"ZXZXZXZXZXZXZXZXZXZXZXZXZXZXZXZXZXZXZXZXZXZXZXZX: Y 6X6X8X8X6X6X6X3X3X3X3X5X3X2X2X2X1XoX[.X.: ZXZXZXZXZXZXZXZXZXZXZXZXZXZXZXZXZX",
"ZXZXZXZXZXZXZXZXZXZXZXZXZXZXZXZXZXZXZXZXZXZXZXZXf |.2X6X7XcX8X6X8X4X2X3X3X3X3X4X=X1X@X%X=X`.I 3 ZXZXZXZXZXZXZXZXZXZXZXZXZXZXZXZX",
"ZXZXZXZXZXZXZXZXZXZXZXZXZXZXZXZXZXZXZXZXZXZXZX5 P 5X6X6X6XcX8X4X2X2X3X3X2X3X3X3X3X2X5X5X@X[. ., ZXZXZXZXZXZXZXZXZXZXZXZXZXZXZXZX",
"ZXZXZXZXZXZXZXZXZXZXZXZXZXZXZXZXZXZXZXZXZXZXZX5 G 2X7X8X7XcX7X3X3X3X3X3X3X3X3X3X2X3X2X3X-X[.' , ZXZXZXZXZXZXZXZXZXZXZXZXZXZXZXZX",
"ZXZXZXZXZXZXZXZXZXZXZXZXZXZXZXZXZXZXZXZXZXZXZXi G 3X3X3X3X3X5X2X2X1X2X2X2X3X3X3X3X3X3X3X4XoX' , ZXZXZXZXZXZXZXZXZXZXZXZXZXZXZXZX",
"ZXZXZXZXZXZXZXZXZXZXZXZXZXZXZXZXZXZXZXZXZXZXZX5 G 5X3X3X3X3X5X1X+X+X%X1X=X3X4X3X3X3X3X3X3X[.' , ZXZXZXZXZXZXZXZXZXZXZXZXZXZXZXZX",
"ZXZXZXZXZXZXZXZXZXZXZXZXZXZXZXZXZXZXZXZXZXZXZX5 G 3X3X2X3X-X-X,X>X>X,X>X1X3X3X3X3X3X3X3X%X[.' , ZXZXZXZXZXZXZXZXZXZXZXZXZXZXZXZX",
"ZXZXZXZXZXZXZXZXZXZXZXZXZXZXZXZXZXZXZXZXZXZXZX5 G 3X3X3X3X{.o.o.(.(.(.o.@X6X3X3X3X3X3X3X>X=X' < ZXZXZXZXZXZXZXZXZXZXZXZXZXZXZXZX",
"ZXZXZXZXZXZXZXZXZXZXZXZXZXZXZXZXZXZXZXZXZXZXZXa G 3X3X5X3X1X1X,X<X1X<X,X2X3X3X3X3X2X3X%X+X=X' i ZXZXZXZXZXZXZXZXZXZXZXZXZXZXZXZX",
"ZXZXZXZXZXZXZXZXZXZXZXZXZXZXZXZXZXZXZXZXZXZXk > D 3X3X4X3X5X`.Y.7X} +X5X3X4X3X3X3X3X3X2X:X1 6 : s ZXZXZXZXZXZXZXZXZXZXZXZXZXZXZX",
"ZXZXZXZXZXZXZXZXZXZXZXZXZXZXZXZXZXZXZXZXZXZXg P G 6X}.  $X5X X#X#X}.$X5X}.  *X3X2X3X3X3X4XY ` ) S d ZXZXZXZXZXZXZXZXZXZXZXZXZXZX",
"ZXZXZXZXZXZXZXZXZXZXZXZXZXZXZXZXZXZXZXZXZXZX- <X) 6X X  *X<XW L.0.~.S 6X).  :X3X3X2X3X3X3X>XXX3X_ : ZXZXZXZXZXZXZXZXZXZXZXZXZXZX",
"ZXZXZXZXZXZXZXZXZXZXZXZXZXZXZXZXZXZXX $ % t > ).Y 3X`.^ <X>X0.!.U.zX! 5X$X^ OX3X3X3X3X3X=X[    X_ - = % X X X X X ZXZXZXZXZXZXZX",
"ZXZXZXZXZXZXZXZXZXZXZXZXZXZXZXZX$ 8.A.k.i.,.O X.~ 4X,X1X3X4X.       J 5X2X2X-X2X3X2X3X3X,XX.  .X_ p 1.d.k.k.k.k.A.3.% ZXZXZXZXZX",
"ZXZXZXZXZXZXZXZXZXZXZXZXZXZXZX% -.H.H.S.v.2.  '.I %X6X3X3X<Xc W Q W P 3X2X3X6X3X3X3X-XOX@XX.~ 2X/ A S.C.H.G.G.H.J.K.R 2 ZXZXZXZX",
"ZXZXZXZXZXZXZXZXZXZXZXZXZXZXZX2 7.V.m.e.e.%.M T.I >X>X1X5X&XQ VXMXMXT 2X2X2X1X1X<X<X1XOX{.o.'.OXH z r.q.z.e.z.M.m.V.&.8 ZXZXZXZX",
"ZXZXZXZXZXZXZXZXZXZXZXZXZXZX@ *.kXiXsXsXsXdXjX-.y +X[.1X6X3X/ U ^ u ` 3X5X5X-X2X%XOX+XoXo.3 +   0XwXhXkXsXkXaXsXsXsXkXv w ZXZXZX",
"ZXZXZXZXZXZXZXZXZXZXZXZXZXZX  L.NXNXNXNXNXNXNXU.. ] o.>X%X=XoXoX;XoXoX%X=X=X=X%X-X@X@XoX`.+ I.xXBXNXNXNXNXNXNXNXNXNXNXF 6 ZXZXZX",
"ZXZXZXZXZXZXZXZXZXZXZXZXZXZX@ *.dXaXaXaXdXhX0X9.a   ^ ;Xo.OXOXoX].[.[.[.{.].].].{.{.].oX`.  E.gX0X0XwXaXiXaXaXaXaXsXaXv 0 ZXZXZX",
"ZXZXZXZXZXZXZXZXZXZXZXZXZXZX2 Z V.N.N.N.N.z.z.d.1.p.2.u K K K P K L P P K K K K K K K K P i.5.4.t.x.x.N.M.M.M.M.N.N.N.b w ZXZXZX",
"ZXZXZXZXZXZXZXZXZXZXZXZXZXZX& $.V.N.N.N.z.j.j.r.a.s.>.p C A 4 5 4 4 4 5 p m n n n n n n C a.p.p.h.N.N.M.M.M.M.M.M.N.N.b w ZXZXZX",
"ZXZXZXZXZXZXZXZXZXZXZXZXZXZX@ *.sXyXyXyXuXuXaXsX1.<.a.u.u.i.c g k k g r =.a.u.u.u.u.u.i.u.i.a.<.f.yXyXyXyXyXyXyXyXuXaXF 0 ZXZXZX",
"ZXZXZXZXZXZXZXZXZXZXZXZXZXZX  L.NXNXNXNXNXNXNXNXP p s.g.g.f.$ 2 h e h $ =.k.g.g.g.g.g.c.g.g.a.+.$ NXNXNXNXNXNXNXNXNXNXF 6 ZXZXZX",
"ZXZXZXZXZXZXZXZXZXZXZXZXZXZX6 T !.R.R.W.R.R.R.W.S B s.N.F.A.f.8.$ g g f.k.K.Z.Z.Z.Z.K.g.A.d.a.+.q R.R.R.W.R.R.W.R.R.W.c e ZXZXZX",
"ZXZXZXZXZXZXZXZXZXZXZXZXZXZXh 0                 8 B h.A.A.A.F.F.-.$ k.V.V.Z.A.A.C.C.Z.x.A.v.x.+.8                     f f ZXZXZX",
"ZXZXZXZXZXZXZXZXZXZXZXZXZXZXZX3 _ ].`.[.`.{.+X(   L.NXBXBXNXBXNX^.  VXF ~.NXBXNXNXBXNXNXBXBXNX!.  P ].{.`.{.`.`.[.oXP 4 ZXZXZXZX",
"ZXZXZXZXZXZXZXZXZXZXZXZXZXZXZX: ' ] Y.`.@X@XoX~   U.NXNXNXNXNXNX~.  NXNXNXNXNXNXNXNXNXNXNXNXNX^.  P @X+X@X=X`.I OXoXY 3 ZXZXZXZX",
"ZXZXZXZXZXZXZXZXZXZXZXZXZXZXZXO ..} }.! 1X+X[.I . :.bXnXmXmXbXmXQ.  nXmXmXbXbXbXnXnXnXnXbXvXvX9.  J @X+X+X6X<X.X| |.{ : ZXZXZXZX",
"ZXZXZXZXZXZXZXZXZXZXZXZXZXZX< P <X&X>X$X2X=X=XI 7 C w.q.y.e.n.B.7.% y.O.6.n.n.n.n.n.n.n.n.z.w.@.8 D +X>X=X4X2X6X:X4X( > ZXZXZXZX",
"ZXZXZXZXZXZXZXZXZXZXZXZXZXZXZX3 }.}..X6X%X1XoXY # V l.v.S.v.S.H.0.$ D.f.k.G.S.S.S.S.S.S.C.b.l.3.# L oX-X5X3X3X5X|..X( : ZXZXZXZX",
"ZXZXZXZXZXZXZXZXZXZXZXZXZXZXZX- Y.Y.XX3X1X1X2X) + V 4.x.V.A.x.V.8.$ N.J.F.M.N.N.N.N.M.N.M.j.4.+.# P 1X2X3X3X4X5X{ |...> ZXZXZXZX",
"ZXZXZXZXZXZXZXZXZXZXZXZXZXZX, I 1X6X3XS 2X3X2X( + E 0XtXrXeXeXdX9.o eX6.k.aXrXrXrXrXrXrXrXtX0X:.  P 1X3X3X5X$X( .X.X<Xk 0 ZXZXZX",
"ZXZXZXZXZXZXZXZXZXZXZXZXZXZXZX; | :X:X|.4X6X>X(   U.NXNXNXNXNXNX~.  BX/.CXNXNXNXNXNXNXNXNXNXNX~.  P $X3X3X3X:X}.:X1Xj - ZXZXZXZX",
"ZXZXZXZXZXZXZXZXZXZXZXZXZXZXZX; Y.| ).8X4X8X..ZXr :.hXhXjXjXsXnX9.  pXmXjXfXfXfXfXfXsXfXjXfXhX;.& ZX( 8X2X3X3X7X_ Y.<Xd ZXZXZXZX",
"ZXZXZXZXZXZXZXZXZXZXZXZXZXZXZX- } 4X<X3X2X8X).ZXt C 4.q.e.z.m.B.8.& z.M 6.V.m.m.B.t.j.t.q.q.4.@.9 ZX{ 6X3X3X2X3X<X4X..6 ZXZXZXZX",
"ZXZXZXZXZXZXZXZXZXZXZXZXZXZXZX: } 7X3X2X2X3XY.ZXt V s.p.v.C.C.H.0.X A.v.v.Z.C.C.S.C.C.v.s.v.d.=.* ZX_ 3X<X3X3X3X5X8X! > ZXZXZXZX",
"ZXZXZXZXZXZXZXZXZXZXZXZXZXZXZX- | &X4X3X.X  S ZXq N <.>.<.>.<.1.Z * >.8.1.<.1.1.<.<.>.<.>.<.i.B q ZXg :   $X3X3X:X*XY , ZXZXZXZX",
"ZXZXZXZXZXZXZXZXZXZXZXZXZXZXZXZXZX  *X8X3X_ i ZXe N =.=.g +.8 * q g * * * * * * & N #.g +.>.i.b e ZXi ) Y.2X6X7X|.  ZXZXZXZXZXZX",
"ZXZXZXZXZXZXZXZXZXZXZXZXZXZXZXZXZXZX| Y.Y.| : ZXe b =.,.N #.h g g f h g g g g c r V >.b =.$.$.B q ZX- _ }.....Y.{ ZXZXZXZXZXZXZX",
"ZXZXZXZXZXZXZXZXZXZXZXZXZXZXZXZXZXZX- : - > ZXZXq B #.$ f * f f f f s f d g f f f q & q e <.<.V q ZXZXi + : - : ZXZXZXZXZXZXZXZX",
"ZXZXZXZXZXZXZXZXZXZXZXZXZXZXZXZXZXZXZXZXZXZXZXZXe l N f f g f f f f f f f g f f e f g f h B B l e ZXZXZXZXZXZXZXZXZXZXZXZXZXZXZX",
"ZXZXZXZXZXZXZXZXZXZXZXZXZXZXZXZXZXZXZXZXZXZXZXZXf f w f f f f f f f f f f f f f c f f f f q q w f ZXZXZXZXZXZXZXZXZXZXZXZXZXZXZX",
"ZXZXZXZXZXZXZXZXZXZXZXZXZXZXZXZXZXZXZXZXZXZXZXZXf f f f f f f f f s f f f f f f e d f f f f f f f ZXZXZXZXZXZXZXZXZXZXZXZXZXZXZX",
"ZXZXZXZXZXZXZXZXZXZXZXZXZXZXZXZXZXZXZXZXZXZXZXZXf f f f f f f f f f f f f f f f f f f f f f f f f ZXZXZXZXZXZXZXZXZXZXZXZXZXZXZX",
"ZXZXZXZXZXZXZXZXZXZXZXZXZXZXZXZXZXZXZXZXZXZXZXZXf f f f f f f f f f f f f f f f f f f f f f f f f ZXZXZXZXZXZXZXZXZXZXZXZXZXZXZX",
"ZXZXZXZXZXZXZXZXZXZXZXZXZXZXZXZXZXZXZXZXZXZXZXZXf f f f f f f f f f f f f f f f f f f f f f f f f ZXZXZXZXZXZXZXZXZXZXZXZXZXZXZX",
"ZXZXZXZXZXZXZXZXZXZXZXZXZXZXZXZXZXZXZXZXZXZXZXZXf f f f f f k f ZXZXZXZXZXZXZXZXZXZXh f f f f f f ZXZXZXZXZXZXZXZXZXZXZXZXZXZXZX",
"ZXZXZXZXZXZXZXZXZXZXZXZXZXZXZXZXZXZXZXZXZXZXZXZXf h f f f f h f ZXZXZXZXZXZXZXZXZXZXj f f f f f f ZXZXZXZXZXZXZXZXZXZXZXZXZXZXZX",
"ZXZXZXZXZXZXZXZXZXZXZXZXZXZXZXZXZXZXZXZXZXZXZXZXZXf f f f f k f ZXZXZXZXZXZXZXZXZXZXZXf f f f f f ZXZXZXZXZXZXZXZXZXZXZXZXZXZXZX",
"ZXZXZXZXZXZXZXZXZXZXZXZXZXZXZXZXZXZXZXZXZXZXZXZXZXZXj f f f h f ZXZXZXZXZXZXZXZXZXZXZXf h f f f f ZXZXZXZXZXZXZXZXZXZXZXZXZXZXZX",
"ZXZXZXZXZXZXZXZXZXZXZXZXZXZXZXZXZXZXZXZXZXZXZXZXZXZXZXf h f g f ZXZXZXZXZXZXZXZXZXZXZXZXZXf f f f ZXZXZXZXZXZXZXZXZXZXZXZXZXZXZX"
};
