/* XPM */
static char *result[] = {
/* columns rows colors chars-per-pixel */
"64 49 244 2 ",
"   c black",
".  c #040804",
"X  c #171500",
"o  c #1E1C0A",
"O  c #1B1904",
"+  c #000017",
"@  c #151211",
"#  c #1E2918",
"$  c #1E220A",
"%  c #20281B",
"&  c #22241B",
"*  c #00012B",
"=  c #020225",
"-  c #051929",
";  c #000034",
":  c #001934",
">  c #16192F",
",  c #042837",
"<  c #1B2A38",
"1  c #252424",
"2  c #29242C",
"3  c #2A2A2D",
"4  c #292C24",
"5  c #2D2B31",
"6  c #272A38",
"7  c #312F38",
"8  c #332C34",
"9  c #2B323C",
"0  c #34333D",
"q  c #383339",
"w  c #2E2C29",
"e  c #20181C",
"r  c #4C0D0B",
"t  c #41343C",
"y  c #48373E",
"u  c #58333E",
"i  c #4E2835",
"p  c #6F3033",
"a  c #7D0600",
"s  c #6C483C",
"d  c #5B4339",
"f  c #060057",
"g  c #2B104D",
"h  c #382B44",
"j  c #2C3442",
"k  c #213641",
"l  c #363543",
"z  c #3C3543",
"x  c #3A3845",
"c  c #3D3B4C",
"v  c #3B3854",
"b  c #302556",
"n  c #332A64",
"m  c #33326B",
"M  c #001156",
"N  c #433B44",
"B  c #483C46",
"V  c #5C3942",
"C  c #5A3540",
"Z  c #413E53",
"A  c #483E5E",
"S  c #643941",
"D  c #4B3D65",
"F  c #463471",
"G  c #334852",
"H  c #4A414B",
"J  c #4A4348",
"K  c #584546",
"L  c #424154",
"P  c #46465C",
"I  c #525659",
"U  c #644B4C",
"Y  c #624345",
"T  c #774B4A",
"R  c #7B5B57",
"E  c #695151",
"W  c #4A4A63",
"Q  c #4C4668",
"!  c #524A6C",
"~  c #555A6A",
"^  c #53566B",
"/  c #484975",
"(  c #5B4B78",
")  c #495174",
"_  c #565574",
"`  c #5A587C",
"'  c #4E5464",
"]  c #604E7E",
"[  c #6A5466",
"{  c #5D6473",
"}  c #656265",
"|  c #736F73",
" . c #60625D",
".. c #873B31",
"X. c #893F47",
"o. c #85494A",
"O. c #994948",
"+. c #8A574C",
"@. c #845A58",
"#. c #985853",
"$. c #98534F",
"%. c #A2534D",
"&. c #BA5D59",
"*. c #B35657",
"=. c #AC504E",
"-. c #8A645A",
";. c #976559",
":. c #976C56",
">. c #A6675A",
",. c #B8655A",
"<. c #AF7B56",
"1. c #A97558",
"2. c #B57B5C",
"3. c #AE744B",
"4. c #845C6C",
"5. c #9A6B66",
"6. c #8C7769",
"7. c #957A6B",
"8. c #8F6460",
"9. c #A36D64",
"0. c #AA7269",
"q. c #B3796F",
"w. c #B97C74",
"e. c #AB7871",
"r. c #C9705E",
"t. c #C56458",
"y. c #CD6D63",
"u. c #D56D65",
"i. c #D57466",
"p. c #D97567",
"a. c #C97768",
"s. c #A79755",
"d. c #998170",
"f. c #98816F",
"g. c #A78876",
"h. c #B5917C",
"j. c #BB947E",
"k. c #B4846A",
"l. c #9F9862",
"z. c #C78867",
"x. c #DD8E6D",
"c. c #DE816B",
"v. c #DA916D",
"b. c #C98679",
"n. c #D28B7E",
"m. c #DF9570",
"M. c #E1846C",
"N. c #E18D6E",
"B. c #E2946F",
"V. c #E39C72",
"C. c #E69772",
"Z. c #E8A477",
"A. c #E7B37F",
"S. c #E9D274",
"D. c #DCC874",
"F. c #523D85",
"G. c #5D5B82",
"H. c #5C5C8B",
"J. c #545986",
"K. c #4C5287",
"L. c #644D83",
"P. c #6A538C",
"I. c #65568A",
"U. c #6C5C92",
"Y. c #6B5A93",
"T. c #5F668D",
"R. c #53628B",
"E. c #5F6892",
"W. c #64668A",
"Q. c #6C6B94",
"!. c #6D6D9A",
"~. c #696595",
"^. c #726B9C",
"/. c #71649B",
"(. c #72729D",
"). c #7F7F95",
"_. c #6F748D",
"`. c #6C6CA5",
"'. c #7675A5",
"]. c #7875A6",
"[. c #7B7BAC",
"{. c #7778A8",
"}. c #7F7FB1",
"|. c #776DA2",
" X c #5D5CA2",
".X c #896084",
"XX c #778297",
"oX c #7D84A9",
"OX c #7F80B0",
"+X c #878889",
"@X c #8A8A95",
"#X c #969799",
"$X c #938D8F",
"%X c #B69889",
"&X c #BAA585",
"*X c #8585AA",
"=X c #8894AD",
"-X c #8282B3",
";X c #888CB5",
":X c #8C95B9",
">X c #8C98B7",
",X c #959BB9",
"<X c #948FB0",
"1X c #A49CB5",
"2X c #94A2BD",
"3X c #98A5BD",
"4X c #9FA7A9",
"5X c #A4A3A3",
"6X c #ABABAB",
"7X c #A2A7AA",
"8X c #B7B8B9",
"9X c #ADACB2",
"0X c #C79182",
"qX c #CCA58A",
"wX c #DAAD92",
"eX c #D1A890",
"rX c #E7B281",
"tX c #E5B698",
"yX c #EBBA9C",
"uX c #E6B699",
"iX c #E9B598",
"pX c #ECC98F",
"aX c #FBC6A5",
"sX c #98A7C2",
"dX c #A6ACC7",
"fX c #B7BBCA",
"gX c #B3BDD1",
"hX c #C3BECC",
"jX c #B8C0D2",
"kX c #C4C4C4",
"lX c #C8C7CA",
"zX c #C7C8D6",
"xX c #D6D7D8",
"cX c #CDD1D5",
"vX c #D3D7E1",
"bX c #E5E5E4",
"nX c #E8E9EA",
"mX c #EBECF1",
"MX c #F4F4F5",
"NX c #FCFCFC",
"BX c #F8F8F8",
"VX c #F2F1F2",
"CX c #DFE1E2",
"ZX c None",
/* pixels */
"ZXZXZXZXZXZXZXZXZXZXZXZXZXZXZXZXZXZXZXZXZXZXZXZXZXZXZXZXZXZXZXZXZXZXZXZXZXZXZXZXZXZXZXZXZXZXZXZXZXZXZXZXZXZXZXZXZXZXZXZXZXZXZXZX",
"ZXZXZXZXZXZXZXZXZXZXZXZXZXZXZXZXZXZXZXZXZXZXZXZXZXZXZXZXZXZXZXZXZXZXZXZXX X X X X X X X X X X X $ 4 4 ZXZXZXZXZXZXZXZXZXZXZXZXZX",
"ZXZXZXZXZXZXZXZXZXZXZXZXZXZXZXZXZXZXZXZXZXZXZXZXZXZXZXZXZXZXZXZXZXZXZXc L Z L G c L L c L G Z Z v N c c ZXZXZXZXZXZXZXZXZXZXZXZX",
"ZXZXZXZXZXZXZXZXZXZXZXZXZXZXZXZXZXZXZXZXZXZXZXZXZXZXZXZXZXZXZXZXZXZXP ~.(.|.(.(.(.(.(.'.'.!.'.(.U.( ( ( c ZXZXZXZXZXZXZXZXZXZXZX",
"ZXZXZXZXZXZXZXZXZXZXZXZXZXZXZXZXZXZXZXZXZXZXZXZXZXZXZXZXZXZXZXZXZXv W.OX{.!.!.!.!.!.!.`.!.!.!.!.!.U.U.P.( N ZXZXZXZXZXZXZXZXZXZX",
"ZXZXZXZXZXZXZXZXZXZXZXZXZXZXZXZXZXZXZXZXZXZXZXZXZXZXZXZXZXZXZXo P Q.OXOXH.; * ; ; ; ; ; ; ; = * / ].^.P.L.( Z ZXZXZXZXZXZXZXZXZX",
"ZXZXZXZXZXZXZXZXZXZXZXZXZXZXZXZXZXZXZXZXZXZXZXZXZXZXZXZXZXZXZXo W '.[.Q.@X5X6X6X6X5X5X5X6X6X6X5X#X^.I.P.P.L.Z % ZXZXZXZXZXZXZXZX",
"ZXZXZXZXZXZXZXZXZXZXZXZXZXZXZXZXZXZXZXZXZXZXZXZXZXZXZXZXZXZXZXo W '.W.g 8XnXBXBXBXMXMXBXBXBXBXBXlX~ n P.P.L.Z % ZXZXZXZXZXZXZXZX",
"ZXZXZXZXZXZXZXZXZXZXZXZXZXZXZXZXZXZXZXZXZXZXZXZXZXZXZXZXZXZXZXo W {.T.+ lXNXbXkX8XbXNXnXlX8XCXNXxX .g P.P.( Z & ZXZXZXZXZXZXZXZX",
"ZXZXZXZXZXZXZXZXZXZXZXZXZXZXZXZXZXZXZXZXZXZXZXZXZXZXZXZXZXZXZXo P {.I.+ lXNX6XI q 8XBXkX .w 5XVXxX .g P.P.L.Z # ZXZXZXZXZXZXZXZX",
"ZXZXZXZXZXZXZXZXZXZXZXZXZXZXZXZXZXZXZXZXZXZXZXZXZXZXZXZXZXZXZXo W '.T.  cXNX#X    6XBX8X. . $XVXCX .g P.Y.L.Z & ZXZXZXZXZXZXZXZX",
"ZXZXZXZXZXZXZXZXZXZXZXZXZXZXZXZXZXZXZXZXZXZXZXZXZXZXZXZXZXZXZXo W '.~.v 8XnX6X+X| kXBXcX+X| 6XCXlX} F P.P.] Z # ZXZXZXZXZXZXZXZX",
"ZXZXZXZXZXZXZXZXZXZXZXZXZXZXZXZXZXZXZXZXZXZXZXZXZXZXZXZXZXZXZXo W `.[.!._.#XlXCXnXMXNXMXnXbXxX5XXX_.U.P.P.] Z & ZXZXZXZXZXZXZXZX",
"ZXZXZXZXZXZXZXZXZXZXZXZXZXZXZXZXZXZXZXZXZXZXZXZXZXZXZXZXZXZXZXo P !.-X-Xf 1 CXNXVXMXNXMXVXNXnX| f (.].L.P.] Z & ZXZXZXZXZXZXZXZX",
"ZXZXZXZXZXZXZXZXZXZXZXZXZXZXZXZXZXZXZXZXZXZXZXZXZXZXZXZXZXZXZXo W (.-XOXm J CXMX1XhXBXzX1XmXbXXXn '.|.P.P.] Z % ZXZXZXZXZXZXZXZX",
"ZXZXZXZXZXZXZXZXZXZXZXZXZXZXZXZXZXZXZXZXZXZXZXZXZXZXZXZXZXZXZXo W !.OX[.H.W.hXzXU.<XcX,XU.fXzX.XJ.{.^.P.P.] Z % ZXZXZXZXZXZXZXZX",
"ZXZXZXZXZXZXZXZXZXZXZXZXZXZXZXZXZXZXZXZXZXZXZXZXG c c x 0 ZXZXO P !.}.[.}.OX;X.X[.[.OXOXOX-X.X[.[.[.!.P.P.L.Z # ZXZXl c c c l ZX",
"ZXZXZXZXZXZXZXZXZXZXZXZXZXZXZXZXZXZXZXZXZXZXZXx ` !.!.T.L & ZXX P '.}.[.OX-X`.`.[.{.`.`.OX`.{.[.OX[./.P.P.L.Z # ZX5 L W.(.Q._ 0 ",
"ZXZXZXZXZXZXZXZXZXZXZXZXZXZXZXZXZXZXZXZXZXZXZXc `.OX[.~.c . ZX2 Q (.[.[.{.{.].[.[.[.OX[.[.}.[.].[.].~.P.L.( c $ ZX& Z Q.[.OX~.q ",
"ZXZXZXZXZXZXZXZXZXZXZXZXZXZXZXZXZXZXZXZXZXZXZXc oX.X` Z 0 & 3 D L.I.`.[.`.~.'.[.[.[.[.[.{.[.].~.U.U.P.] D l 5 2 2 1 5 P T.[.Q.0 ",
"ZXZXZXZXZXZXZXZXZXZXZXZXZXZXZXZXZXZXZXZXZXZXZXc Q.oX_ G W ! ^ U./.Y.^.[.|.U.'.}.[.[.[.[.[.OX]./.P.U./.U.! P W ' ^ ^ W L _ [.Q.7 ",
"ZXZXZXZXZXZXZXZXZXZXZXZXZXZXZXZXZXZXZXZXZXZXZXc !.OX{.'.'.{.{.{.[.].[.}.[.{.[.[.OX[.[.OX[.[.[.[.].[.].].'.'.{.{.{.{.'.'.{.-XQ.0 ",
"ZXZXZXZXZXZXZXZXZXZXZXZXZXZXZXZXZXZXZXZXZXZXZXx ` !.(.!.!.!.!.Q.Q.~.~.T.T.E.E.T.E.E.R.E.T.T.W.~.W.H.G.H.Q.Q.Q.Q.Q.Q.!.(.!.Q._ 0 ",
"ZXZXZXZXZXZXZXZXZXZXZXZXZXZXZXZXZXZXZXZXZXZXZXZXx x x x x l l l l l l 9 j j j j j j j k j j j 7 h 6 6 6 l l x l l l x x x c l ZX",
"ZXZXZXZXZXZXZXZXZXZXZXZXZXZXZXZXZXZXZXZXZXZXZXZXZXo ZXZXZX1 3 + + - p $.O.O.O.O.O.O.O.O.O.%...r +XkXxXkX|   . > 3 1 ZXZXZXZXZXZX",
"ZXZXZXZXZXZXZXZXZXZXZXZXZXZXZXZXZXZXZXZXZXZXZXZXZXZXZXZXZXZX0 K J , o.r.p.i.i.i.i.i.i.u.p.p.=.p 4XMXNXnX#X  8 B l ZXZXZXZXZXZXZX",
"ZXZXZXZXZXZXZXZXZXZXZXZXZXZXZXZXZXZXZXZXZXZXZXZXZXZXZXZXZXZXy h.j.k T N.N.v.Z.A.A.V.x.v.N.M.*.r I #X4X+XI Y 9.5.N ZXZXZXZXZXZXZX",
"ZXZXZXZXZXZXZXZXZXZXZXZXZXZXZXZXZXZXZXZXZXZXZXZXZXZXZXZXZXZXJ wXpX7.-.z.v.V.A.pXpXA.Z.m.v.r.,.$X{ = I | P T b.w.N ZXZXZXZXZXZXZX",
"ZXZXZXZXZXZXZXZXZXZXZXZXZXZXZXZXZXZXZXZXZXZXZXZXZXZXZXZXZXZXB qXaXiXh.K 3.Z.Z.Z.Z.Z.Z.B.t...$XbXlX .8XnX#Xr a.q.B ZXZXZXZXZXZXZX",
"ZXZXZXZXZXZXZXZXZXZXZXZXZXZXZXZXZXZXZXZXZXZXZXZXZXZXZXZXZXZXB qXaXaXwX7.9.<.2.2.2.2.2.,.O.p $XcX8XI 4XxX#X%.b.q.9 * ZXZXZXZXZXZX",
"ZXZXZXZXZXZXZXZXZXZXZXZXZXZXZXZXZXZXZXZXZXZXZXZXZXZXZXZXZXZXB qXaXyXyXyXg.t 8 t t t q > p ,.w.4.G < G } .XrX0X0.0 : j ZXZXZXZXZX",
"ZXZXZXZXZXZXZXZXZXZXZXZXZXZXZXZXZXZXZXZXZXZXZXZXZX: < ZXZXZXx 6.0XyXaXaXwXh.h.h.h.h.h.h.b.wXwX0.@.9.5.:.p.0X9.@.$.%.o.i ZXZXZXZX",
"ZXZXZXZXZXZXZXZXZXZXZXZXZXZXZXZXZXZXZXZXZXZXZXZXJ J N 7 ZXZXq > R eXyXyXyXuXuXuXtXtXtXuXuXyXwXn.a.b.b.b.b.e.U o.y.p.y.+.0 ZXZXZX",
"1 ` ].f . H.{. Xf     .                 ZXZXZXt R 5.K : * , t o.%.7.6.7.7.7.d.d.g.7.7.d.d.d.6.-.R 4.R R R R %.a.x.N.x.z.:.K ZXZX",
"1 ` -X=X@X[.:XdXdX@X{ ' ' ~ ^ ^ ~ ~ { ~ ' ZXZXN ;.1.U 0 E B y ,.r.o.i C C C S S S S S S S C C C V V V V C o.y.x.V.V.V.Z.z.U ; ZX",
"e { :XxXnXdXsXmXMXbXfXoXoX=X=X=X=X=X=X=XXXL   N o.$.u E w.8.q 2.B.,.=.*.=.*.&.,.&.&.&.&.&.*.*.*.,.*.*.*.*.&.y.c.C.Z.Z.Z.v.U * ZX",
"e { ,XvXmXvXcXnXNXNXmXzXsXsXsXsXsXsXsXsX>XW.v x o.#.y R n.0.0 k.C.N.c.M.M.p.t.=.>.*.*.=.&.i.c.c.c.M.c.c.p.p.u.r.2.k.k.z.1.K : ZX",
"e W.sXsXgXmXmXgXvXBXNXmXgXsX2XsX2X2XsXsX:XoXJ.q +.1.K R n.5.0 k.Z.V.B.C.C.x.;.u K U S t T z.V.V.B.m.V.v.p.u.y.*.s J d K J x 6 ZX",
"@ ~ ).{.:XcXvXsXsXvXmXCXgX,X:X:X:X:X,X:X;X(./ N +.>.V K 5.-.0 +.<.<.2.<.3.2.6X8Xl.s.s.s.l.s.1.2.<.<.<.1.>.%.%.5.g.g.g.g.f.K > ZX",
"ZXZXG T.[.[.OX,X>XOX:XsX2X>X*X{.[.[.[.OX!.W 1 t T +.V < y x 0 x H B B H +  .xXVXpXS.S.pXD.:.h h H H H H N 8 N e.tXyXuXyXqXE + ZX",
"ZXZXZXQ ` / / _.W./ ) T._._.` ` ` ` G.G.! ZX. c o.O.C , , , l ) J.R.R.R.K.E.dXhXeX&X&XeX&X| m K.R.R.R.R.K.m / 4.g.j.%X0Xg.K ZXZX",
"ZXZXZXZX8 7 5 1 3 7 3 2 1 1 3 5 5 5 5 5 5 ZXZXy o.o.C < l 5 x W.OX}.{.`.'.'.G.F F.F.F.K.F.L.U.].[.'.[.{.U.L.P.D : + : : - ZXZXZX",
"ZXZXZXZXZXZXZXZXZXZXZXZXZXZXZXZXZXZXZXZXZXZXZXZXV Y N j ZX5 c I./.`.H./ ^ _ v g b n n n n D ! _ _ _ Y.Y./ v P v : + ZXZXZXZXZXZX",
"ZXZXZXZXZXZXZXZXZXZXZXZXZXZXZXZXZXZXZXZXZXZXZXZXZX, j ZXZXZXl D L..X4.T i # 2 w 3 w 4 1 4 4 % o . 2 [ 4.4.d q 6 0 ZXZXZXZXZXZXZX",
"ZXZXZXZXZXZXZXZXZXZXZXZXZXZXZXZXZXZXZXZXZXZXZXZXZXZXZXZXZXZXZX, [ w.n.b.8.7 ZXZXZXZXZXZXZXZXZXZX+ B 9.0X0Xq.U * ZXZXZXZXZXZXZXZX",
"ZXZXZXZXZXZXZXZXZXZXZXZXZXZXZXZXZXZXZXZXZXZXZXZXZXZXZXZXZXZXZXZXd 9.b.w.8.0 ZXZXZXZXZXZXZXZXZXZXZXB #.w.k.9.U ; ZXZXZXZXZXZXZXZX",
"ZXZXZXZXZXZXZXZXZXZXZXZXZXZXZXZXZXZXZXZXZXZXZXZXZXZXZXZXZXZXZXZXZXN B B N l ZXZXZXZXZXZXZXZXZXZXZXZXz B B N x 0 ZXZXZXZXZXZXZXZX",
"ZXZXZXZXZXZXZXZXZXZXZXZXZXZXZXZXZXZXZXZXZXZXZXZXZXZXZXZXZXZXZXZXZXZX* ZX, ZXZXZXZXZXZXZXZXZXZXZXZXZXZXZX* ZXZXZXZXZXZXZXZXZXZXZX",
"ZXZXZXZXZXZXZXZXZXZXZXZXZXZXZXZXZXZXZXZXZXZXZXZXZXZXZXZXZXZXZXZXZXZXZXZXZXZXZXZXZXZXZXZXZXZXZXZXZXZXZXZXZXZXZXZXZXZXZXZXZXZXZXZX"
};
