/* XPM */
static char *result[] = {
/* columns rows colors chars-per-pixel */
"64 46 233 2 ",
"   c black",
".  c #060600",
"X  c #1D1B03",
"o  c #1E1C09",
"O  c #00001B",
"+  c #030010",
"@  c #001D1B",
"#  c #22221B",
"$  c #00002C",
"%  c #01082B",
"&  c #001A29",
"*  c #000033",
"=  c #001433",
"-  c #001C37",
";  c #100C26",
":  c #3A0F2D",
">  c #00202C",
",  c #012436",
"<  c #002739",
"1  c #162B38",
"2  c #1A292C",
"3  c #272627",
"4  c #262B26",
"5  c #29262C",
"6  c #2A2A2B",
"7  c #282627",
"8  c #2D2D33",
"9  c #292C39",
"0  c #312D36",
"q  c #302F38",
"w  c #2C313D",
"e  c #2B3038",
"r  c #33323D",
"t  c #39343E",
"y  c #2D081F",
"u  c #550000",
"i  c #4C3033",
"p  c #703339",
"a  c #510030",
"s  c #6B473E",
"d  c #000345",
"f  c #2F005C",
"g  c #012644",
"h  c #1A3049",
"j  c #1A3045",
"k  c #2C3242",
"l  c #3A3A45",
"z  c #3B3849",
"x  c #383959",
"c  c #213757",
"v  c #3A2877",
"b  c #3D3C6C",
"n  c #371B6E",
"m  c #5B1143",
"M  c #473D43",
"N  c #473F5A",
"B  c #423B53",
"V  c #543741",
"C  c #7C3642",
"Z  c #6E3C44",
"A  c #473575",
"S  c #3A5159",
"D  c #484446",
"F  c #5A454B",
"G  c #464559",
"H  c #5B5057",
"J  c #684B48",
"K  c #7D4247",
"L  c #7A4749",
"P  c #76554B",
"I  c #684F50",
"U  c #6B5754",
"Y  c #775554",
"T  c #6C504C",
"R  c #7A6A5F",
"E  c #76655C",
"W  c #6D675D",
"Q  c #4B4A63",
"!  c #494768",
"~  c #53476E",
"^  c #4D5162",
"/  c #51516D",
"(  c #505665",
")  c #5D4C7C",
"_  c #584476",
"`  c #555473",
"'  c #5B5A7B",
"]  c #57577A",
"[  c #4C4D79",
"{  c #5E6675",
"}  c #6E6E71",
"|  c #823C44",
" . c #8B4B4A",
".. c #854649",
"X. c #8B534E",
"o. c #9B5A57",
"O. c #895655",
"+. c #A95954",
"@. c #B35855",
"#. c #A14042",
"$. c #8C6355",
"%. c #976859",
"&. c #95705F",
"*. c #A46C5B",
"=. c #A7725A",
"-. c #B37D5A",
";. c #B26E52",
":. c #835C66",
">. c #886767",
",. c #8C7467",
"<. c #977A6C",
"1. c #966864",
"2. c #AB746A",
"3. c #B2796F",
"4. c #B47B68",
"5. c #B67B71",
"6. c #A6706E",
"7. c #C66F5D",
"8. c #CE6B62",
"9. c #D26C63",
"0. c #D86E65",
"q. c #C97662",
"w. c #D47165",
"e. c #DA7D69",
"r. c #D77767",
"t. c #C07E72",
"y. c #A39758",
"u. c #AA8C51",
"i. c #B8927D",
"p. c #B7886F",
"a. c #A5A37E",
"s. c #DC856B",
"d. c #DC966F",
"f. c #D9956D",
"g. c #CD897D",
"h. c #C58277",
"j. c #DE9A70",
"k. c #D08D74",
"l. c #E1856C",
"z. c #E39671",
"x. c #E49B72",
"c. c #EA9C75",
"v. c #E1936F",
"b. c #E6A375",
"n. c #E6B07E",
"m. c #C2B16B",
"M. c #EFD876",
"N. c #5F4E84",
"B. c #5A5982",
"V. c #4D4B85",
"C. c #654E84",
"Z. c #655187",
"A. c #6A528B",
"S. c #685687",
"D. c #765787",
"F. c #6D5D93",
"G. c #6D5691",
"H. c #66658D",
"J. c #646486",
"K. c #6B6594",
"L. c #666B96",
"P. c #6B6B94",
"I. c #6E6E99",
"U. c #666495",
"Y. c #726C9C",
"T. c #6E709A",
"R. c #6A7899",
"E. c #71729E",
"W. c #73789B",
"Q. c #797F84",
"!. c #6F6EA4",
"~. c #7373A3",
"^. c #7979A7",
"/. c #7A76A8",
"(. c #7B7BAB",
"). c #7872A6",
"_. c #7F7FB1",
"`. c #7170A3",
"'. c #5B658E",
"]. c #8C7888",
"[. c #837CA4",
"{. c #778392",
"}. c #7D85A7",
"|. c #868687",
" X c #989796",
".X c #938591",
"XX c #B89582",
"oX c #A08E8D",
"OX c #8383AF",
"+X c #8591AA",
"@X c #8894AE",
"#X c #9C99A6",
"$X c #8181B3",
"%X c #858AB6",
"&X c #8A97B7",
"*X c #968FAF",
"=X c #93A1BC",
"-X c #9CA0A9",
";X c #A5A5A7",
":X c #B1B3B5",
">X c #C69C84",
",X c #D79283",
"<X c #CF8A83",
"1X c #D4A78D",
"2X c #D2A78D",
"3X c #EABB85",
"4X c #ECBB9C",
"5X c #E5B497",
"6X c #F1BB9D",
"7X c #E3A48E",
"8X c #F2BFA0",
"9X c #FAC6A5",
"0X c #F5E5B1",
"qX c #9CAAC4",
"wX c #97A5C2",
"eX c #A7A9C7",
"rX c #AFB6C9",
"tX c #BAC4D5",
"yX c #C9CACA",
"uX c #CBCBD5",
"iX c #CBD1DD",
"pX c #D3D3D3",
"aX c #D7D7DA",
"sX c #D2D0D4",
"dX c #D6D9E4",
"fX c #E5E5E4",
"gX c #EAEAED",
"hX c #EFF1F5",
"jX c #F2F2F3",
"kX c #FEFEFE",
"lX c #F6F5F8",
"zX c #EBEEF4",
"xX c None",
/* pixels */
"xXxXxXxXxXxXxXxXxXxXxXxXxXxXxXxXxXxXxXxXxXxXxXxXxXxXxXxXxXxXxXxXxXxXxXxXxXxXxXxXxXxXxXxXxXxXxXxXxXxXxXxXxXxXxXxXxXxXxXxXxXxXxXxX",
"xXxXxXxXxXxXxXxXxXxXxXxXxXxXxXxXxXxXxXxXxXxXxXxXxXxXxXxXxXxXxXxXxXxXxXxXxXxXxXxXxXxXxXxXxXxXxXxXxXxXxXxXxXxXxXxXxXxXxXxXxXxXxXxX",
"xXxXxXxXxXxXxXxXxXxXxXxXxXxXxXxXxXxXxXxXxXxXxXxXxXxXxXxXxXxXxXxXxXxXxXxXxXxXxXxXxXxXxXxXxXxXxXxXxXxXxXxXxXxXxXxXxXxXxXxXxXxXxXxX",
"xXxXxXxXxXxXxXxXxXxXxXxXxXxXxXxXxXxXxXxXxXxXxXxXxXxXxXxXxXxXxXxXxX6 7 7 3 7 7 7 3 3 3 6 6 8 8 8 xXxXxXxXxXxXxXxXxXxXxXxXxXxXxXxX",
"xXxXxXxXxXxXxXxXxXxXxXxXxXxXxXxXxXxXxXxXxXxXxXxXxXxXxXxXxXxXxXxXG H.P.P.P.P.H.P.P.P.H.P.S._ ) N xXxXxXxXxXxXxXxXxXxXxXxXxXxXxXxX",
"xXxXxXxXxXxXxXxXxXxXxXxXxXxXxXxXxXxXxXxXxXxXxXxXxXxXxXxXxXxXxXl H.(.).~.~.~.~.~.E.~.~.~.Y.F.G.C.z xXxXxXxXxXxXxXxXxXxXxXxXxXxXxX",
"xXxXxXxXxXxXxXxXxXxXxXxXxXxXxXxXxXxXxXxXxXxXxXxXxXxXxXxXxXxXr H.}._.!   $ $ $ $ $ $ $   [ (.F.Z.Z.B 4 xXxXxXxXxXxXxXxXxXxXxXxXxX",
"xXxXxXxXxXxXxXxXxXxXxXxXxXxXxXxXxXxXxXxXxXxXxXxXxXxXxXxXxXxXr ~.).B.:XyXpXpXyXyXsXpXpXpX;X] Z.A.A.G 6 xXxXxXxXxXxXxXxXxXxXxXxXxX",
"xXxXxXxXxXxXxXxXxXxXxXxXxXxXxXxXxXxXxXxXxXxXxXxXxXxXxXxXxXxXr E.U.6 fXkXjXjXkXkXlXjXjXkXaX  _ G.Z.N 4 xXxXxXxXxXxXxXxXxXxXxXxXxX",
"xXxXxXxXxXxXxXxXxXxXxXxXxXxXxXxXxXxXxXxXxXxXxXxXxXxXxXxXxXxX0 E.U.r fXfX( ; :XkX;X+ } gXaX$ _ G.Z.G 4 xXxXxXxXxXxXxXxXxXxXxXxXxX",
"xXxXxXxXxXxXxXxXxXxXxXxXxXxXxXxXxXxXxXxXxXxXxXxXxXxXxXxXxXxXr E.H.6 jXfX     XkX{..   jXfX  _ G.Z.N 4 xXxXxXxXxXxXxXxXxXxXxXxXxX",
"xXxXxXxXxXxXxXxXxXxXxXxXxXxXxXxXxXxXxXxXxXxXxXxXxXxXxXxXxXxXr E.I.Q pXpX|.} yXkX:X} .XaXyXx V.G.Z.N 4 xXxXxXxXxXxXxXxXxXxXxXxXxX",
"xXxXxXxXxXxXxXxXxXxXxXxXxXxXxXxXxXxXxXxXxXxXxXxXxXxXxXxXxXxXr P._.^.x ;XkXkXkXkXkXkXhX.X! (.F.A.Z.N 6 xXxXxXxXxXxXxXxXxXxXxXxXxX",
"xXxXxXxXxXxXxXxXxXxXxXxXxXxXxXxXxXxXxXxXxXxXxXxXxXxXxXxXxXxXr P.}._.O  XkXiXsXkXsXaXhXa.d _.F.Z.Z.N 6 xXxXxXxXxXxXxXxXxXxXxXxXxX",
"xXxXxXxXxXxXxXxXxXxXxXxXxXxXxXxXxXxXxXxXxXxXxXxXxXxXxXxXxXxX0 I._.(.b #XgX[.*XgX[.*XgX.X[ (.F.A.Z.G 4 xXxXxXxXxXxXxXxXxXxXxXxXxX",
"xXxXxXxXxXxXxXxXxXxXxXxXxXxXxXxXxXxXxXxXxXxXxXxXxXxXxXxXxXxXr I._._./._.OX(.(.OX(.(.OX(.(./.F.Z.Z.N 4 xXxXxXxXxXxXxXxXxXxXxXxXxX",
"xXxXxXxXxXxXxXxXxXxXxXxXxXxXxXxXxXxXxXxXxXxXxX0 o X xXxXxXxX8 I._.(._._.!./.(.!.(.(.!._.$X(.F.Z.A.N 4 xXxXxXo X 6 r xXxXxXxXxXxX",
"xXxXxXxXxXxXxXxXxXxXxXxXxXxXxXxXxXxXxXxXxXxX8 G ` B.Q xXxXxXB K.(.(.~.).(.(.(.(.(.(.(.).).E.G.C._ B 4 xXxXG ' / Q 0 xXxXxXxXxXxX",
"xXxXxXxXxXxXxXxXxXxXxXxXxXxXxXxXxXxXxXxXxXxXo / /.[.I.r # N Z.Z.K.(.F.F.(.(.(.(.(.(.(.K.C.A.A._ 0 0 0 8 # ' _.(.H.7 xXxXxXxXxXxX",
"xXxXxXxXxXxXxXxXxXxXxXxXxXxXxXxXxXxXxXxXxXxXX ` (.J.` L.T.~./.)./._./.(._.}._._._._.[./.).).^.~.P.I.I.E.T.B.` (.P.6 xXxXxXxXxXxX",
"xXxXxXxXxXxXxXxXxXxXxXxXxXxXxXxXxXxXxXxXxXxXX ` (.B.' $X^.E.I.I.I.K.I.L.L.L.L.L.L.L.I.I.T.T.T.E.E.E.I.E.$XP./ ^.L.7 xXxXxXxXxXxX",
"xXxXxXxXxXxXxXxXxXxXxXxXxXxXxXxXxXxXxXxXxXxXX ` (.(.(.[./ 7 k r k l r r r r r r w r r r t k r r l r 8 B ~.[.(.$XH.6 xXxXxXxXxXxX",
"xXxXxXxXxXxXxXxXxXxXxXxXxXxXxXxXxXxXxXxXxXxXxXG ` ' ' ` B 2 & 9 , %  .@.@.@.@.@.@...& 9 +       8 & & r / ] ] B.Q xXxXxXxXxXxXxX",
"xXxXxXxXxXxXxXxXxXxXxXxXxXxXxXxXxXxXxXxXxXxXxXxXX o X X 2 F Y M M $.r.e.e.e.e.e.e.q.L 5 } ;X;X|.8 Y T 9 # X o o xXxXxXxXxXxXxXxX",
"xXxXxXxXxXxXxXxXxXxXxXxXxXxXxXxXxXxXxXxXxXxXxXxXxXxXxXxX% $.g.Y P x.x.j.j.j.j.j.j.d.8.u ;XkXkXyXy h.3.< xXxXxXxXxXxXxXxXxXxXxXxX",
"xXxXxXxXxXxXxXxXxXxXxXxXxXxXxXxXxXxXxXxXxXxXxX< r xXxXxX$ <.5XY s b.x.b.3X3X3Xj.j.v.9.u S ;X X} i h.3.< xXxXxXxXxXxXxXxXxXxXxXxX",
"xXxXxXxXxXxXxXxXxXxXxXxXxXxXxXxXxXxXxXxXxXxXT Y l = xXxXO <.4XXX&.-.f.b.3X3Xb.j.d.q.@.;X{.. |.{.0 h.3.< xXxXxXxXxXxXxXxXxXxXxXxX",
"xXX Q (.J.Q _.}.}.G r z l l l l l l l xXxXw 1.*.t r l M $ ,.4X9X2Xt u.c.j.d.d.d.e.#.G gXpXt gXaX: 5.3.< xXxXxXxXxXxXxXxXxXxXxXxX",
"xX. ( +XiXfX&XuXlXgXrXR.+X+X+X+X+X+X@X{   w X. .q i.1Xt.V 1.9X9X4X2X&.i J s J s i ..3.oXJ., Q.oXp.,X2.= $ * * xXxXxXxXxXxXxXxXxX",
"xX  ( &XdXzXiXdXjXkXhXtXqXwXqXqXqXqXqX}.! k  .X.9 >X6X,XP H >X5X9X9XXX,.<.<.<.<.<.i.7Xo.s $.p *.k.5.o. .%.=.$.xXxXxXxXxXxXxXxXxX",
"xXxX^ @X&XeXkXiXqXlXkXlXqX&X=X=X=XwX=X%XL.k %.&.r 6.k.h.O.$ 9 >X6X4X4X4X4X4X4X4X4X4X4X,Xg.g.g.g.h.F ..r.z.x.f.T g D xXxXxXxXxXxX",
"xXxXxX( ~.&XeXeXwXeXrXtXqX&X%X%X%X%X%XP.G w  .X.t F Y Y l Z @.%.W E R R R R R E R R W U I J I H I +.q.z.z.b.j.i ,.1XU xXxXxXxXxX",
"xXxXxX  / K.V.R.{.V.'.W.}.W.H.H.H.K.L.Q . w ....t < , , - X.s.+.p p p | | | | | | C C C ..L K C O.8.l.x.j.k.u.<.2X4XR O xXxXxXxX",
"xXxXxXxXxX0 8 5 8 8 8 5 5 5 8 8 8 8 8 xXxXw ....r w r r = $.d.s.9.0.w.q.8.8.8.8.8.8.0.9.w.w.w.0.9.8.r.f.x.*.z 5X9X5XE O xXxXxXxX",
"xXxXxXxXxXxXxXxXxXxXxXxXxXxXxXxXxXxXxXxXxXxXV F l r xXxX* $.x.c.z.z.c.q.u a m m a 1.z.z.z.z.x.l.0.0.*.Y w.+.D 5X9X4X>.+ xXxXxXxX",
"xXxXxXxXxXxXxXxXxXxXxXxXxXxXxXxXxXxXxXxXxXxXxX1 r xXxXxX- P -.-.-.-.;.XX:Xa.u.y.y.y.-.-.-.-.u.;.+.@.L - o...D i.1XXXU xXxXxXxXxX",
"xXxXxXxXxXxXxXxXxXxXxXxXxXxXxXxXxXxXxXxXxXxXxXxXxXxXxXxXr k h h h h . -XkX0XM.M.M.m.d g h h h h j j w w 1 9 r - = = xXxXxXxXxXxX",
"xXxXxXxXxXxXxXxXxXxXxXxXxXxXxXxXxXxXxXxXxXxXxXxXxXxXxXxX# / Y.~.`.R.T.OX*X.X]..X.X].N.I.~.E.~.K.) C.~ r xXxXxXxXxXxXxXxXxXxXxXxX",
"xXxXxXxXxXxXxXxXxXxXxXxXxXxXxXxXxXxXxXxXxXxXxXxXxXxXxXxXX ] [.(.!.!.L.[ f n v v v A ) Y.).!.!.!.A.F.N.8 xXxXxXxXxXxXxXxXxXxXxXxX",
"xXxXxXxXxXxXxXxXxXxXxXxXxXxXxXxXxXxXxXxXxXxXxXxXxXxXxXxXo / (.K.C.D.H i 8 8 8 8 8 6 r _ A.D.D.A.Z.Z.~ 8 xXxXxXxXxXxXxXxXxXxXxXxX",
"xXxXxXxXxXxXxXxXxXxXxXxXxXxXxXxXxXxXxXxXxXxXxXxXxXxXxXxXxXxXG c :.<Xg.2.9 xXxXxXxXxXxXg 1.<X<X6.x B B xXxXxXxXxXxXxXxXxXxXxXxXxX",
"xXxXxXxXxXxXxXxXxXxXxXxXxXxXxXxXxXxXxXxXxXxXxXxXxXxXxXxXxXxXX   P 2.3.1.r xXxXxXxXxXxX> Y 2.5.$.@ 2 xXxXxXxXxXxXxXxXxXxXxXxXxXxX",
"xXxXxXxXxXxXxXxXxXxXxXxXxXxXxXxXxXxXxXxXxXxXxXxXxXxXxXxXxXxXxXxXxX, - 1 r xXxXxXxXxXxXr 9 , , , xXxXxXxXxXxXxXxXxXxXxXxXxXxXxXxX",
"xXxXxXxXxXxXxXxXxXxXxXxXxXxXxXxXxXxXxXxXxXxXxXxXxXxXxXxXxXxXxXxXxXxXxXxXxXxXxXxXxXxXxXxXxXxXxXxXxXxXxXxXxXxXxXxXxXxXxXxXxXxXxXxX",
"xXxXxXxXxXxXxXxXxXxXxXxXxXxXxXxXxXxXxXxXxXxXxXxXxXxXxXxXxXxXxXxXxXxXxXxXxXxXxXxXxXxXxXxXxXxXxXxXxXxXxXxXxXxXxXxXxXxXxXxXxXxXxXxX",
"xXxXxXxXxXxXxXxXxXxXxXxXxXxXxXxXxXxXxXxXxXxXxXxXxXxXxXxXxXxXxXxXxXxXxXxXxXxXxXxXxXxXxXxXxXxXxXxXxXxXxXxXxXxXxXxXxXxXxXxXxXxXxXxX"
};
