/* XPM */
static char *result[] = {
/* columns rows colors chars-per-pixel */
"64 64 238 2 ",
"   c #000000",
".  c #070609",
"X  c #1A0001",
"o  c #00041B",
"O  c #000819",
"+  c #00131C",
"@  c #041616",
"#  c #0E1212",
"$  c #260000",
"%  c #350612",
"&  c #000A24",
"*  c #001422",
"=  c #021A24",
"-  c #071827",
";  c #1A1D26",
":  c #171B26",
">  c #18132C",
",  c #251D28",
"<  c #33132C",
"1  c #1D222A",
"2  c #27222A",
"3  c #33212C",
"4  c #3D2329",
"5  c #2A2B36",
"6  c #372335",
"7  c #353339",
"8  c #2E2400",
"9  c #4A0000",
"0  c #5A0200",
"q  c #4C031C",
"w  c #7A0000",
"e  c #670514",
"r  c #4E1329",
"t  c #6F0F33",
"y  c #4E292A",
"u  c #46252B",
"i  c #572A29",
"p  c #492733",
"a  c #572B38",
"s  c #4E3130",
"d  c #642C29",
"f  c #79362C",
"g  c #642E3B",
"h  c #69313E",
"j  c #793638",
"k  c #68322E",
"l  c #7E3B00",
"z  c #334225",
"x  c #7C4300",
"c  c #6D4F37",
"v  c #001B4B",
"b  c #2F334D",
"n  c #2D2C5B",
"m  c #4E1848",
"M  c #71164A",
"N  c #4A3646",
"B  c #582745",
"V  c #6C2A47",
"C  c #772945",
"Z  c #6C3246",
"A  c #733443",
"S  c #793648",
"D  c #793747",
"F  c #773655",
"G  c #6A3759",
"H  c #225A5C",
"J  c #504A68",
"K  c #764B70",
"L  c #527176",
"P  c #706E74",
"I  c #67454E",
"U  c #9B0000",
"Y  c #8E0B08",
"T  c #B10000",
"R  c #952F12",
"E  c #BF2200",
"W  c #BC2D00",
"Q  c #AD3C11",
"!  c #893C2C",
"~  c #883939",
"^  c #963537",
"/  c #AC3D2E",
"(  c #C63B0A",
")  c #924B08",
"_  c #9A4336",
"`  c #904C34",
"'  c #AB493E",
"]  c #A84737",
"[  c #B54B37",
"{  c #BE5236",
"}  c #AC4E2B",
"|  c #9B6637",
" . c #A16D3E",
".. c #B5752E",
"X. c #BA5900",
"o. c #CD5900",
"O. c #C4490D",
"+. c #D56F08",
"@. c #C3492D",
"#. c #C34C31",
"$. c #C55435",
"%. c #CA5634",
"&. c #CC5935",
"*. c #C8583B",
"=. c #D35936",
"-. c #C6542D",
";. c #CB643D",
":. c #D27A39",
">. c #823946",
",. c #843A49",
"<. c #8B3D49",
"1. c #8D3B45",
"2. c #893752",
"3. c #B11876",
"4. c #AF0873",
"5. c #8A3963",
"6. c #A53970",
"7. c #964143",
"8. c #9B4343",
"9. c #964749",
"0. c #8F5457",
"q. c #A74842",
"w. c #B34E45",
"e. c #AD5445",
"r. c #9A6A4C",
"t. c #AB664D",
"y. c #B36D47",
"u. c #8A4C62",
"i. c #B14876",
"p. c #987979",
"a. c #B66C61",
"s. c #C65B46",
"d. c #C76747",
"f. c #D36B45",
"g. c #D86441",
"h. c #D27446",
"j. c #D57E4C",
"k. c #D77B46",
"l. c #CB734F",
"z. c #CA7665",
"x. c #DE8300",
"c. c #E08807",
"v. c #DF8B29",
"b. c #D58B39",
"n. c #E08B26",
"m. c #E18D2D",
"M. c #E18D32",
"N. c #E1903E",
"B. c #E59137",
"V. c #BE8548",
"C. c #AB8177",
"Z. c #C68A49",
"A. c #D6814D",
"S. c #DA854C",
"D. c #D98954",
"F. c #D79458",
"G. c #E39447",
"H. c #E49C5D",
"J. c #E59957",
"K. c #E28F4B",
"L. c #EAA15E",
"P. c #D78969",
"I. c #E39D63",
"U. c #ECA364",
"Y. c #E8A369",
"T. c #E6A775",
"R. c #707785",
"E. c #CF3788",
"W. c #B25988",
"Q. c #947B89",
"!. c #C75B91",
"~. c #D55A94",
"^. c #CF528D",
"/. c #E95B9C",
"(. c #E54D93",
"). c #D6679B",
"_. c #CD6595",
"`. c #ED64A2",
"'. c #F467A6",
"]. c #FA69A9",
"[. c #EF5EA1",
"{. c #728A8F",
"}. c #7E9DA3",
"|. c #6D9AA0",
" X c #5E878F",
".X c #979A9B",
"XX c #898D90",
"oX c #AC9894",
"OX c #B4A29C",
"+X c #959FA1",
"@X c #AC95A7",
"#X c #97B6BC",
"$X c #8DADB3",
"%X c #A6A8A9",
"&X c #B7B8B8",
"*X c #ACB4B6",
"=X c #D7968A",
"-X c #D59A94",
";X c #E7AD83",
":X c #E9AF8D",
">X c #D5B6B4",
",X c #E7B7A8",
"<X c #D4A09D",
"1X c #EDC5AC",
"2X c #EFC6AB",
"3X c #F2C6AB",
"4X c #EEC7B1",
"5X c #EDCAB7",
"6X c #F1CBB9",
"7X c #F1D1BD",
"8X c #8FBAC2",
"9X c #B0B8C3",
"0X c #9CC0C7",
"qX c #B3CBCF",
"wX c #C3C7C8",
"eX c #CAD4D7",
"rX c #D8D8D9",
"tX c #DED1CF",
"yX c #F2D5C5",
"uX c #F3D9CA",
"iX c #F5D9CA",
"pX c #F4DED2",
"aX c #EBCFCA",
"sX c #F6E2D6",
"dX c #CBDDE2",
"fX c #D4DFE1",
"gX c #DAE4E7",
"hX c #C7E3E5",
"jX c #E7E9E9",
"kX c #F8EBE6",
"lX c #EAF2F4",
"zX c #F2F4F5",
"xX c #F6FAFA",
"cX c #FFFFFE",
"vX c #FAF5F4",
"bX c #F2F1EF",
"nX c #E9D7E0",
"mX c None",
/* pixels */
"mXmXmXmXmXmXmXmXmXmXmXmXmXmXmXmXmXmXmXmXmXmXmXmXmXmXmXmXmXmXmXmXmXmXmXmXmXmXmXmXmXmXmXmXmXmXmXmXmXmXmXmXmXmXmXmXmXmXmXmXmXmXmXmX",
"mXmXmXmXmXmXmXmXmXmXmXmXmXmXmXmXmXmXmXmXmXmXmXmXmXmXmXmXmXmXmXmXmXmXmXmXmXmXmXmXmXmXmXmXmXmXmXmXmXmXmXmXmXmXmXmXmXmXmXmXmXmXmXmX",
"mXmXmXmXmXmXmXmXmXmXmXmXmXmXmXmXmXmXmXmXmXmXmXmXmXmXmXmXmXmXmXmXmXmXmXmXmXmXmXmXmXmXmXmXmXmXmXmXmXmXmXmXmXmXmXmXmXmXmXmXmXmXmXmX",
"mXmXmXmXmXmXmXmXmXmXmXmXmXmXmXmXmXmXmXmXmXmXmXmXmXmXmXmXmXmXmXmXmXmXmXmXmXmXmXmXmXmXmXmXmXmXmXmXmXmXmXmXmXmXmXmXmXmXmXmXmXmXmXmX",
"mXmXmXmXmXmXmXmXmXmXmXmXmXmXmXmXmXmXmXmXmXmXmXmXmXmXmXmXmXmXmXmXmXmXmXmXmXmXmXmXmXmXmXmXmXmXmXmXmXmXmXmXmXmXmXmXmXmXmXmXmXmXmXmX",
"mXmXmXmXmXmXmXmXmXmXmXmXmXmXmXmXmXmXmXmXmXmXmXmXmXmXmXu i y y y y y r y y s 2 mXmXmXmXmXmXmXmXmXmXmXmXmXmXmXmXmXmXmXmXmXmXmXmXmX",
"mXmXmXmXmXmXmXmXmXmXmXmXmXmXmXmXmXmXmXmXmXmXmXmXmXd i [ $.$.$.$.$.$.*.*.#.[ 1.d d y - mXmXmXmXmXmXmXmXmXmXmXmXmXmXmXmXmXmXmXmXmX",
"mXmXmXmXmXmXmXmXmXmXmXmXmXmXmXmXmXmXmXmXmXmXu f f $.$.$.%.$.%.$.%.#.K.S.#.;.d.$.%.q.D d 3 mXmXmXmXmXmXmXmXmXmXmXmXmXmXmXmXmXmXmX",
"mXmXmXmXmXmXmXmXmXmXmXmXmXmXmXmXmXmXmXmXmXu ] %.$.#.#.$.#.#.$.%.$.#.A.j.s.H.H.&.$.$.$.$.<.a mXmXmXmXmXmXmXmXmXmXmXmXmXmXmXmXmXmX",
"mXmXmXmXmXmXmXmXmXmXmXmXmXmXmXmXmXmXmXmX% [ =.h.f.f.f.f.f.;.@.$.$.$.$.$.l.F.H.d.s.*.*.$.$.<.a 3 mXmXmXmXmXmXmXmXmXmXmXmXmXmXmXmX",
"mXmXmXmXmXmXmXmXmXmXmXmXmXmXmXmXmXmXmXq f.-...Z.Z.Z.Z.Z.Z.Z.;.;.d.#.*.@.E E E E E E ( *.$.<.<.a + mXmXmXmXmXmXmXmXmXmXmXmXmXmXmX",
"mXmXmXmXmXmXmXmXmXmXmXmXmXmXmXmXmXmXs h.Z.0.5.5.5.5.5.F M r.F.U.H.j.W d.=X=X=X-X-X-Xz.O.$.S ,.g 4 mXmXmXmXmXmXmXmXmXmXmXmXmXmXmX",
"mXmXmXmXmXmXmXmXmXmXmXmXmXmXcXcXjXXX4 V.u.^.^.E.^.E.E.[.].^.7 Z.J.m.P.aXcXxXcXzXzXcXkXw.$.1.<.<.g + mXmXmXmXmXmXmXmXmXmXmXmXmXmX",
"mXmXmXmXmXmXmXmXmXmXmXmXmXcXcXzXxXrX  F ^.t P @XQ.@X+X_.[.).K 8 J.;XkXcXcXcXcXqX8XdXjXqX( %.1.>.A u mXmXmXmXmXmXmXmXmXmXmXmXmXmX",
"mXmXmXmXmXmXmXmXmXmXmXmXcXcXcXdX8X$Xr [.V H eXzXqXxXxX$X_.]./.F :.bXcXcXcXcXcXeXqX9XhXxXa.*.1.>.,.A ; mXmXmXmXmXmXmXmXmXmXmXmXmX",
"mXmXmXmXmXmXmXmXmXmXmXmXcXxXrXeXqX*X  ].9 nXcXlX#XcXcXhX@X(.].`.  gXcXxXzXcXrXxXcXgXdXxXqXl.^ C <.~ & mXmXmXmXmXmXmXmXmXmXmXmXmX",
"mXmXmXmXmXmXmXmXmXmXmXmXcX0XR.rXcXbXC ~.r &XfX&X7 rXrXqXH M /.`.5  XlXgXqXvXXXzXcXcXcXcXcXa.| 9.' { k mXmXmXmXmXmXmXmXmXmXmXmXmX",
"mXmXmXmXmXmXmXmXmXmXmXmXlXdXxXcXxXnX/.K 6   .   ;       ; @ Z '.W.$ qXjXgXcXvXcXcXcXcXgXrXb Z.A.#.%.$.3 mXmXmXmXmXmXmXmXmXmXmXmX",
"mXmXmXmXmXmXmXmXmXmXmXmX$XjXlXjXhX9X/.K 5 : ; ; : 1 1 ; ; # S '.'.t |.dXzXcXcXcXcXxXgX$X2 o F.A.#.$.[ 2 mXmXmXmXmXmXmXmXmXmXmXmX",
"mXmXmXmXmXmXmXmXmXmXmXmX+ }.8XqX#X@X/.< * 1 1 2 : 2 1 1 ; . F '.'.M  X8XqXlXlXlXlXdX#X|.  e l.d.[ ' A , mXmXmXmXmXmXmXmXmXmXmXmX",
"mXmXmXmXmXmXmXmXmXmXmXmX:   {.$XR.t `.4 = 5 5 1 : : : 5 7 1 F '.'.F   L $X}.}.}.}.$X X. r.h.k.q.V S D 2 mXmXmXmXmXmXmXmXmXmXmXmX",
"mXmXmXmXmXmXmXmXmXmXmXmXmX2       2.`.< =     X 7 5 5       F '.].F c c             $ ` K.D.J.t.C >.D : ` $ mXmXmXmXmXmXmXmXmXmX",
"mXmXmXmXmXmXmXmXmXmXmXmXmXmXmX5 = u.'.b @ XX+XH       XX&XXXC '.~.N ..+.) ) r.r.` f _ &.#.#.#._ Z S A - / OX.XmXmXmXmXmXmXmXmXmX",
"mXmXmXmXmXmXmXmXmXmXmXmXmXmXmX2   q ).W.X gXlXqX%X%X%XbXcXqX9 ].K . C.6X7X3XB.S.f.$.%.%.%.%.#.' 8.q.7., 9 bXrX  mXmXmXmXmXmXmXmX",
"mXmXmXmXmXmXmXmXmXmXmXmXmXmXmX. P .XG ].q %XxXcXcXcXcXcXeXR.i.~.I .XjXcXcXcX5XD.-.#.#.$.#.{ h.;.%.-.-., e >XtX+XmXmXmXmXmXmXmXmX",
"mXmXmXmXmXmXmXmXmXmXmXmXmXmXmX  eXxX  _.i.X XXeXeXeXeXeX@XE.~.J   zXcXxXcXcXcX:X:.h.h.h.h.f.H.A.#.&.$.3 F T aXlX  mXmXmXmXmXmXmX",
"mXmXmXmXmXmXmXmXmXmXmXmXmXmXmX  OX7X| v '.~.6.3.3.3.3.4.!.W.J b | 5XpXpXkXcXcX;XJ.L.H.H.H.H.L.k.} ! ! O 6 Y aXxX*XmXmXmXmXmXmXmX",
"mXmXmXmXmXmXmXmXmXmXmXmXmXmXmXo | G.J. .6.^.).).).).).).W.n N  .I.K.M.c.T.pXcX;XG.H.L.H.H.L.L.y.^ ! f ! ` r XXwXwX: mXmXmXmXmXmX",
"mXmXmXmXmXmXmXmXmXmXmXy _ 3 mXo y.L.F.U. .N v v v v v v n I y.L.H.H.I.I.K.H.uXT.S.A.A.A.j.j.j.y./ *.%.%.%.[ R 0   * mXmXmXmXmXmX",
"mXmXmXmXmXmXmXmXmXmXmXk %.2 & & ` v.N.N.L.Z. .r. . . . . .y.U.H.N.N.N.N.G.M.o.A.*.@.#.#.#.#.#.#.$.$.$.$.$.$.*.*.q.! = mXmXmXmXmX",
"mXmXmXmXmXmXmXmXmXmXmXk %._ 4   p.5X7X7XY.G.U.U.U.U.U.U.U.L.M.G.5X7X7X7X7X7X>Xd.@.-.$.$.*.%.$.$.$.$.$.$.$.$.$.$.%.*.] d mXmXmXmX",
"mXmXmXmXmXmXmXmXmXmXmXi %.=.~   %XcXcXcXpXT.x.m.n.m.m.m.x.;XyXyXcXcXcXcXcXcXcX=X@.@.#.@.#.#.$.$.$.$.$.%.%.%.%.$.$.$.=.~ 6 mXmXmX",
"mXmXmXmXmXmXmXmXmXmXmXi %.%.8.  *XcXcXcXcXsX7XyXyXyXyXyX7XkXcXcXcXcXcXcXcXcXcX;XS.j.j.j.j.A.&.%.&.%.%.' q.q.q.w.=.%.$.w.j & mXmX",
"mXmXmXmXmXmXmXmXmXmXmXk =.=.1.> C.iXcXcXcXcXcXcXcXcXcXcXcXcXcXcXcXyX1X1XuXcXcX;XK.H.H.H.H.L.;./ q.q.q.>.a 6 X 9 _ q.%.%.} ! mXmX",
"mXmXmXmXmXmXmXmXmXmXmXi ! ' 2.$ XXiX4X4XcXcXcXcXcXcXcXcXcXcXvX2X4XyXuXuXyX1X4XY.H.I.H.H.H.H.D.y.~ 6 a a g Y OX*X+ a ~ { =.[ & mX",
"mXmXmXmXmXmXmXmXmXmXmXmX- S 2.% oXiXyXyX5X4X4X4X4X4X4X4X4X1X6XuXyXuXuXuXuXyXuXP.:.h.h.h.h.h.S.d.~ 6 * * C / :X>X  mXmX! ] f - mX",
"mXmXmXmXmXmXmXmXmXmXmXmXmXa ,.r ) L.sXiXuXyXuXyXuXyXuXuXiXyXiXuXuXI.x.x.Y.pXuXP.h.A.A.A.j.A.%.[ q.] * = A 9.T z.wXmXmXmXmXmXmXmX",
"mXmXmXmXmXmXmXmXmXmXmXmXmXmXa > r.L.c.c.6XuXuXuXuXuXyXuXiXiX6Xx.x.H.Y.Y.H.x.o.j.j.j.A.j.j.A.e.q.q.^ : h >.Z R ,XcXO mXmXmXmXmXmX",
"mXmXmXmXmXmXmXmXmXmXmXmXmXmXmX& R +.N.L.n.n.v.v.v.v.n.n.x.+.+.G.G.v.n.n.m.S.D.$.@.#.@.@.#.#.1.Z S A , ,.>.F U -XxXO mXmXmXmXmXmX",
"mXmXmXmXmXmXmXmXmXmXmXmXmXmXmX. .XpXpXG.S.J.H.H.J.J.H.v.2XsXsXpXpXsXpXpXsXuXI.*.#.$.$.$.$.%.1.q._ 6 2 D S Y <XbXxXo mXmXmXmXmXmX",
"mXmXmXmXmXmXmXmXmXmXmXmXmXmXmX  &XcXcXpXpX:Xm.G.G.G.M.5XvXcXcXcXcXcXcXcXcXcXH.S.;.#.#.$.#._ q.*._ & , ,.q.T aXxX.XmXmXmXmXmXmXmX",
"mXmXmXmXmXmXmXmXmXmXmXmXmXmXmX+ p.yXcXcXcXkXpXpXpXpXuXcXcXcXcXxXcXcXcXcXcXvXI.H.D.S.S.S.D.' $.=._ ; g X ( yXtX.XmXmXmXmXmXmXmXmX",
"mXmXmXmXmXmXmXmXmXmXmXmXmXmXmX- 0 oXvXcXcXcXcXcXcXcXcXwX.X+X+XoX1X3X1X1X4X1XH.J.H.H.Y.H.h.=.-._ d % u.rX0.oXXXmXmXmXmXmXmXmXmXmX",
"mXmXmXmXmXmXmXmXmXmXmXmXmXmXmXmX; 0.,XcXcXcXcXcXcXxX%XN w U Y % ) x X.+.o.+.H.L.H.U.K.;.@.-.=.! : e 0.cX{.  mXmXmXmXmXmXmXmXmXmX",
"mXmXmXmXmXmXmXmXmXmXmXmXmXmXmXmXmXq ^ %X<X,X3X3X,X.XR } s.*.g.w.B B a ] $.$.f.t.t.t.t.1.8.q.~ 4 % Q.nX.XmXmXmXmXmXmXmXmXmXmXmXmX",
"mXmXmXmXmXmXmXmXmXmXmXmXmXmXmXmXmX3 p w U R X.) l U $.&.%.$.$.%.1.>.Z D q.8.^ C C V C S S p - 6 Y <XcX  mXmXmXmXmXmXmXmXmXmXmXmX",
"mXmXmXmXmXmXmXmXmXmXmXmXmXmXmXmXmXmXmXa p V m a ] =.$.$.%.[ 1.7.>.D <.>.A S S ,.,.>.A y a mXmX' =.l.+XmXmXmXmXmXmXmXmXmXmXmXmXmX",
"mXmXmXmXmXmXmXmXmXmXmXmXmXmXmXmXmXmXmXO & , : f =.$.%.q.7.9.S S >.>.>.,.,.,.,.a p p 3 + mXmXmXf ~ 0 mXmXmXmXmXmXmXmXmXmXmXmXmXmX",
"mXmXmXmXmXmXmXmXmXmXmXmXmXmXmXmXmXmXu } [ } f < k 1.8.<.a 3 a <.,.<.a 3 4 4 4 = + s h @ mXmXmXmXmXmXmXmXmXmXmXmXmXmXmXmXmXmXmXmX",
"mXmXmXmXmXmXmXmXmXmXmXmXmXmXmXmXmXmXu %.%.*.$.! - S ,.g 2 = ; p p y , < 3 A A A A D ,.h : mXmXmXmXmXmXmXmXmXmXmXmXmXmXmXmXmXmXmX",
"mXmXmXmXmXmXmXmXmXmXmXmXmXmXmXmXmXmX6 <.{ $.*.{ Z >.a mX= 1 : - h Z _ [ ' ,.,.a A <.D D - mXmXmXmXmXmXmXmXmXmXmXmXmXmXmXmXmXmXmX",
"mXmXmXmXmXmXmXmXmXmXmXmXmXmXmXmXmXmXmX6 >.{ %.[ S >.2 mXmXmXmX, a p k ! f p u + h ,.7.D - mXmXmXmXmXmXmXmXmXmXmXmXmXmXmXmXmXmXmX",
"mXmXmXmXmXmXmXmXmXmXmXmXmXmXmXmXmXmXmXmX1 i j 7.D p mXmXmXmXmXmXmXmXmXmXmXmX= Z D ,.,.S - mXmXmXmXmXmXmXmXmXmXmXmXmXmXmXmXmXmXmX",
"mXmXmXmXmXmXmXmXmXmXmXmXmXmXmXmXmXmXmXmXmX* - 6 4 mXmXmXmXmXmXmXmXmXmXmXmXmX; [ $.q.Z 3 mXmXmXmXmXmXmXmXmXmXmXmXmXmXmXmXmXmXmXmX",
"mXmXmXmXmXmXmXmXmXmXmXmXmXmXmXmXmXmXmXmXmXmXmXmXmXmXmXmXmXmXmXmXmXmXmXmXmXmXmXd k a 3 mXmXmXmXmXmXmXmXmXmXmXmXmXmXmXmXmXmXmXmXmX",
"mXmXmXmXmXmXmXmXmXmXmXmXmXmXmXmXmXmXmXmXmXmXmXmXmXmXmXmXmXmXmXmXmXmXmXmXmXmXmXmXmXmXmXmXmXmXmXmXmXmXmXmXmXmXmXmXmXmXmXmXmXmXmXmX",
"mXmXmXmXmXmXmXmXmXmXmXmXmXmXmXmXmXmXmXmXmXmXmXmXmXmXmXmXmXmXmXmXmXmXmXmXmXmXmXmXmXmXmXmXmXmXmXmXmXmXmXmXmXmXmXmXmXmXmXmXmXmXmXmX",
"mXmXmXmXmXmXmXmXmXmXmXmXmXmXmXmXmXmXmXmXmXmXmXmXmXmXmXmXmXmXmXmXmXmXmXmXmXmXmXmXmXmXmXmXmXmXmXmXmXmXmXmXmXmXmXmXmXmXmXmXmXmXmXmX",
"mXmXmXmXmXmXmXmXmXmXmXmXmXmXmXmXmXmXmXmXmXmXmXmXmXmXmXmXmXmXmXmXmXmXmXmXmXmXmXmXmXmXmXmXmXmXmXmXmXmXmXmXmXmXmXmXmXmXmXmXmXmXmXmX",
"mXmXmXmXmXmXmXmXmXmXmXmXmXmXmXmXmXmXmXmXmXmXmXmXmXmXmXmXmXmXmXmXmXmXmXmXmXmXmXmXmXmXmXmXmXmXmXmXmXmXmXmXmXmXmXmXmXmXmXmXmXmXmXmX",
"mXmXmXmXmXmXmXmXmXmXmXmXmXmXmXmXmXmXmXmXmXmXmXmXmXmXmXmXmXmXmXmXmXmXmXmXmXmXmXmXmXmXmXmXmXmXmXmXmXmXmXmXmXmXmXmXmXmXmXmXmXmXmXmX",
"mXmXmXmXmXmXmXmXmXmXmXmXmXmXmXmXmXmXmXmXmXmXmXmXmXmXmXmXmXmXmXmXmXmXmXmXmXmXmXmXmXmXmXmXmXmXmXmXmXmXmXmXmXmXmXmXmXmXmXmXmXmXmXmX",
"mXmXmXmXmXmXmXmXmXmXmXmXmXmXmXmXmXmXmXmXmXmXmXmXmXmXmXmXmXmXmXmXmXmXmXmXmXmXmXmXmXmXmXmXmXmXmXmXmXmXmXmXmXmXmXmXmXmXmXmXmXmXmXmX",
"mXmXmXmXmXmXmXmXmXmXmXmXmXmXmXmXmXmXmXmXmXmXmXmXmXmXmXmXmXmXmXmXmXmXmXmXmXmXmXmXmXmXmXmXmXmXmXmXmXmXmXmXmXmXmXmXmXmXmXmXmXmXmXmX"
};
