/* XPM */
static char *result[] = {
/* columns rows colors chars-per-pixel */
"64 64 242 2 ",
"   c black",
".  c #050708",
"X  c #02071A",
"o  c #01131D",
"O  c #07161C",
"+  c #0F1112",
"@  c #2F0812",
"#  c #000D23",
"$  c #000122",
"%  c #011A25",
"&  c #011B2A",
"*  c #051626",
"=  c #131B25",
"-  c #1A1C24",
";  c #191C29",
":  c #120F2D",
">  c #241C28",
",  c #251E33",
"<  c #341428",
"1  c #03252C",
"2  c #1D232B",
"3  c #15282B",
"4  c #002E33",
"5  c #25242D",
"6  c #392529",
"7  c #272932",
"8  c #3B2434",
"9  c #3B3433",
"0  c #6E2D00",
"q  c #540E31",
"w  c #6F0837",
"e  c #44252A",
"r  c #492835",
"t  c #5C2D39",
"y  c #572B36",
"u  c #513331",
"i  c #672C27",
"p  c #723429",
"a  c #632E3E",
"s  c #6A2A3C",
"d  c #68313E",
"f  c #77383A",
"g  c #732D35",
"h  c #59261C",
"j  c #39403F",
"k  c #5B432A",
"l  c #6F4C33",
"z  c #7E6038",
"x  c #00284A",
"c  c #00214E",
"v  c #142C56",
"b  c #2F2B4F",
"n  c #00134A",
"m  c #532E48",
"M  c #7F2C43",
"N  c #6B3242",
"B  c #733542",
"V  c #7B3546",
"C  c #7E3847",
"Z  c #7A374A",
"A  c #692F4B",
"S  c #7F174C",
"D  c #2D5B5C",
"F  c #4A474A",
"G  c #535457",
"H  c #475156",
"J  c #6A484D",
"K  c #515364",
"L  c #704B6B",
"P  c #58737B",
"I  c #666567",
"U  c #717474",
"Y  c #B0130C",
"T  c #87382C",
"R  c #923C2D",
"E  c #873A37",
"W  c #913F35",
"Q  c #942429",
"!  c #A83A35",
"~  c #952103",
"^  c #C03D21",
"/  c #C22700",
"(  c #9A422E",
")  c #944233",
"_  c #994336",
"`  c #8A513C",
"'  c #A84838",
"]  c #B44D3B",
"[  c #B84D36",
"{  c #BD5134",
"}  c #BC5139",
"|  c #B0503A",
" . c #B5492D",
".. c #866339",
"X. c #966239",
"o. c #AF753A",
"O. c #814700",
"+. c #C84B08",
"@. c #C1462F",
"#. c #C44C2D",
"$. c #C54B27",
"%. c #C7522D",
"&. c #C34C32",
"*. c #C44D35",
"=. c #C55335",
"-. c #CB5534",
";. c #CE5836",
":. c #C4543A",
">. c #C95938",
",. c #D15936",
"<. c #D05235",
"1. c #CA643D",
"2. c #CD693F",
"3. c #C66338",
"4. c #CE7233",
"5. c #CC640C",
"6. c #833946",
"7. c #833A49",
"8. c #8A3D4B",
"9. c #843747",
"0. c #923E45",
"q. c #843456",
"w. c #A51565",
"e. c #903B62",
"r. c #AE3673",
"t. c #8A1A53",
"y. c #954345",
"u. c #9B4343",
"i. c #944748",
"p. c #9B554A",
"a. c #A84841",
"s. c #BA4D43",
"d. c #A56943",
"f. c #AD7540",
"g. c #B77046",
"h. c #975071",
"j. c #B04E7C",
"k. c #827B7E",
"l. c #C5524A",
"z. c #CE6C42",
"x. c #C86443",
"c. c #CA7346",
"v. c #D17446",
"b. c #D67A48",
"n. c #D4754B",
"m. c #CB7769",
"M. c #DE8502",
"N. c #DD8B34",
"B. c #DE8C2B",
"V. c #E18C27",
"C. c #E18E33",
"Z. c #E1903E",
"A. c #E6912B",
"S. c #E08911",
"D. c #B58D71",
"F. c #BC8247",
"G. c #CA844D",
"H. c #D9874C",
"J. c #DC8B52",
"K. c #D28A56",
"L. c #DA935A",
"P. c #D38A50",
"I. c #E29344",
"U. c #E3964D",
"Y. c #E18E53",
"T. c #E29552",
"R. c #E39B5C",
"E. c #EA9E5B",
"W. c #E39955",
"Q. c #E9A15E",
"!. c #E29D6A",
"~. c #EEA364",
"^. c #E6A36B",
"/. c #E5A779",
"(. c #E6A97B",
"). c #E6A777",
"_. c #6F7F89",
"`. c #BB3D81",
"'. c #C43281",
"]. c #A95483",
"[. c #B95188",
"{. c #C9498D",
"}. c #D95B96",
"|. c #CA548E",
" X c #CC6195",
".X c #DE609B",
"XX c #E5619C",
"oX c #EF65A2",
"OX c #F768A8",
"+X c #F079AD",
"@X c #F4589F",
"#X c #728D91",
"$X c #868485",
"%X c #989999",
"&X c #8C9391",
"*X c #95B4BB",
"=X c #8DA9AE",
"-X c #A9A9AB",
";X c #AD93A1",
":X c #DA9C93",
">X c #E8B18C",
",X c #E9B594",
"<X c #EBBB9C",
"1X c #E8B79A",
"2X c #E7AE86",
"3X c #C9ACB0",
"4X c #E7BBA5",
"5X c #EF88B1",
"6X c #EDC4AC",
"7X c #ECCAB7",
"8X c #F2D1BD",
"9X c #F3C4A7",
"0X c #98BCC4",
"qX c #9EC1C8",
"wX c #A4C4CA",
"eX c #BAD3D8",
"rX c #AECCD2",
"tX c #C8D3D5",
"yX c #D4D1D2",
"uX c #F2D7C8",
"iX c #EAD9D8",
"pX c #F4DED2",
"aX c #F5DED8",
"sX c #EBD0CA",
"dX c #F6E4DC",
"fX c #F7E4DB",
"gX c #C9DEE1",
"hX c #D8E5E8",
"jX c #D3E7E9",
"kX c #E5ECEE",
"lX c #E9E9E9",
"zX c #FAECE4",
"xX c #F6E7E3",
"cX c #FAF1EC",
"vX c #F3F4F4",
"bX c #FBF6F3",
"nX c #FDF9F7",
"mX c #F6FAFB",
"MX c #FEFEFE",
"NX c #F5F7F8",
"BX c #ECF1F3",
"VX c None",
/* pixels */
"VXVXVXVXVXVXVXVXVXVXVXVXVXVXVXVXVXVXVXVXVXVXVXVXVXVXVXVXVXVXVXVXVXVXVXVXVXVXVXVXVXVXVXVXVXVXVXVXVXVXVXVXVXVXVXVXVXVXVXVXVXVXVXVX",
"VXVXVXVXVXVXVXVXVXVXVXVXVXVXVXVXVXVXVXVXVXVXVXVXVXVXVXVXVXVXVXVXVXVXVXVXVXVXVXVXVXVXVXVXVXVXVXVXVXVXVXVXVXVXVXVXVXVXVXVXVXVXVXVX",
"VXVXVXVXVXVXVXVXVXVXVXVXVXVXVXVXVXVXVXVXVXVXVXVXVXVXVXVXVXVXVXVXVXVXVXVXVXVXVXVXVXVXVXVXVXVXVXVXVXVXVXVXVXVXVXVXVXVXVXVXVXVXVXVX",
"VXVXVXVXVXVXVXVXVXVXVXVXVXVXVXVXVXVXVXVXVXVXVXVXVXVXVXVXVXVXVXVXVXVXVXVXVXVXVXVXVXVXVXVXVXVXVXVXVXVXVXVXVXVXVXVXVXVXVXVXVXVXVXVX",
"VXVXVXVXVXVXVXVXVXVXVXVXVXVXVXVXVXVXVXVXVXVXVXVXVXVXVXVXVXVXVXVXVXVXVXVXVXVXVXVXVXVXVXVXVXVXVXVXVXVXVXVXVXVXVXVXVXVXVXVXVXVXVXVX",
"VXVXVXVXVXVXVXVXVXVXVXVXVXVXVXVXVXVXVXVXVXVXVXVXVXVXVXVXVXVXVXVXVXVXVXVXVXVXVXVXVXVXVXVXVXVXVXVXVXVXVXVXVXVXVXVXVXVXVXVXVXVXVXVX",
"VXVXVXVXVXVXVXVXVXVXVXVXVXVXVXVXVXVXVXVXVXVXVXVXVXVXVXVXVXVXVXVXVXVXVXVXVXVXVXVXVXVXVXVXVXVXVXVXVXVXVXVXVXVXVXVXVXVXVXVXVXVXVXVX",
"VXVXVXVXVXVXVXVXVXVXVXVXVXVXVXVXVXVXVXVXVXVXVXVXVXVXVXVXVXVXVXVXVXVXVXVXVXVXVXVXVXVXVXVXVXVXVXVXVXVXVXVXVXVXVXVXVXVXVXVXVXVXVXVX",
"VXVXVXVXVXVXVXVXVXVXVXVXVXVXVXVXVXVXVXVXVXVXVXVXVXVXVXVXVXVXVXVXVXVXVXVXVXVXVXVXVXVXVXVXVXVXVXVXVXVXVXVXVXVXVXVXVXVXVXVXVXVXVXVX",
"VXVXVXVXVXVXVXVXVXVXVXVXVXVXVXVXVXVXVXVXVXVXVXVXVXVXVXVXVXVXVXVXVXVXVXVXVXVXVXVXVXVXVXVXVXVXVXVXVXVXVXVXVXVXVXVXVXVXVXVXVXVXVXVX",
"VXVXVXVXVXVXVXVXVXVXVXVXVXVXVXVXVXVXVXVXVXVXVXVXp _ ) ) ) ) ( R R ( ) m # VXVXVXVXVXVXVXVXVXVXVXVXVXVXVXVXVXVXVXVXVXVXVXVXVXVXVX",
"VXVXVXVXVXVXVXVXVXVXVXVXVXVXVXVXVXVXVXVX$ $ R _ =.,.;.;.;.,.<.b.n.<.#.' ' ( C 7 X VXVXVXVXVXVXVXVXVXVXVXVXVXVXVXVXVXVXVXVXVXVXVX",
"VXVXVXVXVXVXVXVXVXVXVXVXVXVXVXVXVXVXVX6 ' ' =.;.=.=.=.=.=.=. .J.J.:.P.H.;.;.} ' W m o VXVXVXVXVXVXVXVXVXVXVXVXVXVXVXVXVXVXVXVXVX",
"VXVXVXVXVXVXVXVXVXVXVXVXVXVXVXVXVXVXi } <.-.*.&.*.=.*.=.=.=.=.z.x.z.~.Q.1.:.>.;.:.' N = VXVXVXVXVXVXVXVXVXVXVXVXVXVXVXVXVXVXVXVX",
"VXVXVXVXVXVXVXVXVXVXVXVXVXVXVXVXVXT &.4.H.H.P.J.J.J.b.&.*.#.=.*.*.%.v.2.%.$.$.%.=.=.7.B 8 VXVXVXVXVXVXVXVXVXVXVXVXVXVXVXVXVXVXVX",
"VXVXVXVXVXVXVXVXVXVXVXVXVXVXVX= T H.c.i ..........z d.Y.J.J.1.=.%.#.^ ^ $.^ %. .=.:.C 8.r VXVXVXVXVXVXVXVXVXVXVXVXVXVXVXVXVXVXVX",
"VXVXVXVXVXVXVXVXVXVXVXVXMXMX2 . b.o.h.}.{.|.{.{.{.{.[...^.Q.W.+.:XiXdXaXxXlXxX4X/ } V 6.C y VXVXVXVXVXVXVXVXVXVXVXVXVXVXVXVXVXVX",
"VXVXVXVXVXVXVXVXVXVXVXMXMXMXmXU k j.[.q.j.j.].h.XXOXXXv l L.C.7XMXMXMXMXgXrXNXkX%X+.} 6.8.t o VXVXVXVXVXVXVXVXVXVXVXVXVXVXVXVXVX",
"VXVXVXVXVXVXVXVXVXMXMXMXMXwXeXD {.j.u U kX0XhXBX-X`.OX X< 4.aXMXMXMXMXMXwX0XqXhXiXY =.8.C C y = VXVXVXVXVXVXVXVXVXVXVXVXVXVXVXVX",
"VXVXVXVXVXVXVXVXVXMXMXNXkX0XwX4 }.w.&XmXMX0XMXMXjX;X@XOX}.0 hXMXMXmXMXlXNXmXeXjXMX-X%.9.V 8.d X VXVXVXVXVXVXVXVXVXVXVXVXVXVXVXVX",
"VXVXVXVXVXVXVXVXVXMXBX=X%XmXBXU |.w.%XNXlXH lXvXgX#Xt.oXOX8 #XBXkXeXmX$XNXMXMXNXMXvX .i.6.] ' 6 VXVXVXVXVXVXVXVXVXVXVXVXVXVXVXVX",
"VXVXVXVXVXVXVXVXVXMXkXeXBXMXmX5X].m j U I   I U I 4 . Z oXh.x tXkXeXMXlXMXMXMXMXnXlXh J.x.=.=.' # VXVXVXVXVXVXVXVXVXVXVXVXVXVXVX",
"VXVXVXVXVXVXVXVXVX0XjXMXMXvXwX+X].b       2       + = 8 oXOXw #XgXmXMXMXMXMXMXkX=XF % L.v.*.=.' # VXVXVXVXVXVXVXVXVXVXVXVXVXVXVX",
"VXVXVXVXVXVXVXVXVX. #XwXrXwX*X+Xe.. 2 7 7 ; 5 7 5 ; o A oXOXS #XwXgXmXmXmXmXgXwX#X  q P.x.*.' N % VXVXVXVXVXVXVXVXVXVXVXVXVXVXVX",
"VXVXVXVXVXVXVXVXVX+   P *X=X3 XXh.. 2 7 2 2 = = 5 7 3 y oXoXL   P *X*X*X=X*X*X#X  ` v.v.i.V 7.N o VX%X%XU VXVXVXVXVXVXVXVXVXVXVX",
"VXVXVXVXVXVXVXVXVXVXVX; 7 2 + oXq..       5 2 5       m oXOXq.l u 4 & * # * % : X.T.J.T.p.V 9.a @ y.iXMX-XVXVXVXVXVXVXVXVXVXVXVX",
"VXVXVXVXVXVXVXVXVXVXVXVX+ O 3 oXh.. I &XD . . . I -X$Xq oX.XA o.N.0 O...X.l i R ;.:.=.=.0.Z Z A 6 } l.sXyXU VXVXVXVXVXVXVXVXVXVX",
"VXVXVXVXVXVXVXVXVXVXVXVXVX3    X[.q -XMXeX&X&X].hXMXtX. oX].. D.9X4X9XZ.H.2.-.,.=.=.=.@.' 0.a.E 2 7. .Y xXyX  VXVXVXVXVXVXVXVXVX",
"VXVXVXVXVXVXVXVXVXVXVXVXVXb %XH XXr.#XlXMXMXMXMXnXhX_.r.|.L _.iXMXMXMX6Xn.%.#.&.&.&.&.v.3.=.>. .& C Z Y aXyX  VXVXVXVXVXVXVXVXVX",
"VXVXVXVXVXVXVXVXVXVXVXVXVXI mXK r.|.w K tXtXtXtXtX3X`. XL . kXMXMXMXMXMX2Xb.v.v.n.n.v.R.2.&.>.' & 7.Z Y pXyX  VXVXVXVXVXVXVXVXVX",
"VXVXVXVXVXVXVXVXVXVXVXVXVXF uXD.1 |.oX[.`.r.`.`.`.|.[.K b X.4XuXuXfXMXMX(.W.R.R.E.R.R.R.2.-.:.) > 9.s 3XbXhX  VXVXVXVXVXVXVXVXVX",
"VXVXVXVXVXVXVXVXVXVXVXVXVXu Z.Q.F.p.[. X X X X X X].K m d.!.J.U.C.).pXMX(.W.R.E.R.R.E.E.g.' 6.: # y Y bXBX%XVXVXVXVXVXVXVXVXVXVX",
"VXVXVXVXVXVXVXVXVXVXVXVXVXu R.R.~.P.l n x x x x x c J f.E.R.R.R.R.U.W.uX^.H.b.b.b.b.b.b.i.0._ ( T y ~ 3Xk.  VXVXVXVXVXVXVXVXVXVX",
"VXVXVXVXVXVXVXVXVXVXVXVXVXe 5.N.Z.Q.L.o.f.f.f.o.f.f.F.~.R.Z.Z.Z.Z.I.N.+.v.=.@.@.@.#.[ #.6.s.;.;.>.a.) @   VXVXVXVXVXVXVXVXVXVXVX",
"VXVXVXVXVXVXVXVXVXVXVXVXVXF sXpXdX,XV.~.~.~.~.~.~.~.E.B.C.uXfXpXpXfXpXsXl.$.=.>.:.=.:.>.] { =.=.=.-.,.| f VXVXVXVXVXVXVXVXVXVXVX",
"VXVXVXVXVXVXVXVXVXVX& VXVXG MXMXMXvX6XM.N.N.N.C.N.M./.dXdXMXMXMXMXMXMXMX/.%.@.&.#.&.&.@.=.=.=.=.=.=.=.3.a.8 VXVXVXVXVXVXVXVXVXVX",
"VXVXVXVXVXVXVXVX# ( E = . G nXMXMXMXnXfXdXdXdXdXxXdXzXMXMXMXMXnXnXMXMXMX(.I.J.P.J.J.J.J.1.*.-.-.-.=.=.=.:.W $ VXVXVXVXVXVXVXVXVX",
"VXVXVXVXVXVXVXVX# } ( , m k 1XbXnXMXMXMXMXMXMXMXMXMXMXMXnXnX8X1X1X8XnXnX(.L.Q.R.R.R.R.E.d.0.u.0._ -.=.=.;.a.y = VXVXVXVXVXVXVXVX",
"VXVXVXVXVXVXVXVX*  .R 8 s F dX6X>XfXMXnXnXMXMXnXMXnXMXbX<X<XpXxXdXpX<X<X!.W.R.R.R.R.W.E.l : , r 7.0.:.=.=.=.' # VXVXVXVXVXVXVXVX",
"VXVXVXVXVXVXVXVX# ' =.' A u <XfXxX8X>X,X,X,X,X,X,X,X,X<XdXxX7X<X<X7XdXfXm.3.z.1.1.2.x.2.0.A y - r 5 E [ =.=.] N * VXVXVXVXVXVXVX",
"VXVXVXVXVXVXVXVX* ' -.=.' 6 V.,X>XuXzXzXzXzXcXzXzXzXcXxX<X<XR.V.V.E.<X1XL.Y.J.J.T.J.J.>.*.:.) * 7 B m u f | ;.] % VXVXVXVXVXVXVX",
"VXVXVXVXVXVXVXVX= 6 f 0.l e J.S.C.).,X>X>X>X>X>X,X2X(./.M.M.I.U.U.I.M.+.1.1.1.1.x.1.1.i.8.0.d @ ~ x.bX_.. W ;.%.% VXVXVXVXVXVXVX",
"VXVXVXVXVXVXVXVXVXo m 7.B 8 m.(.W.B.Z.U.U.U.L.U.C.I.).^.(.(.(.).).(.).L.=.&.=.=.=.=.=.6.7.6.y J m./ $XVXVXVXt e = VXVXVXVXVXVXVX",
"VXVXVXVXVXVXVXVXVXVX< e @ G vXbX6X(.^.Z.I.I.I.Z.W.uXnXbXbXbXbXcXbXbXcXW.2.*.#.*.&.&.[ 0.} T   &XxXP VXVXVXVXVXVXVXVXVXVXVXVXVXVX",
"VXVXVXVXVXVXVXVXVXVXVXVXVXG cXnXnXbXfX).2X>X2X).pXnXMXMXMXMXMXMXMXMXnXR.R.z.3.1.1.3.0.} ,.T & C :XvXI VXVXVXVXVXVXVXVXVXVXVXVXVX",
"VXVXVXVXVXVXVXVXVXVXVXVXVXe s.cXMXMXMXnXnXnXnXnXMXMXMXMXcXcXcXcXcXcXxXW.R.R.L.R.R.K.=.=.{ p r Q m.lXG VXVXVXVXVXVXVXVXVXVXVXVXVX",
"VXVXVXVXVXVXVXVXVXVXVXVXVX> q sXMXMXMXMXMXMXMXMXMXMXcXxXT.U.W.Y.H.H.H.E.E.E.E.!.H.%.-.<.i X 8 8.y.  VXVXVXVXVXVXVXVXVXVXVXVXVXVX",
"VXVXVXVXVXVXVXVXVXVXVXVXVXVX* Y sXiXzXfXzXfXzXdXfX8XA.W.E.T.Y.v.<.%.3.U.K.K.K.c.! } } [ u i W a.' * VXVXVXVXVXVXVXVXVXVXVXVXVXVX",
"VXVXVXVXVXVXVXVXVXVXVXVXVXVX= N g ! } b.c.G.c.G.G.G.K.K.K.s._ ( ' ] ] ] 6.V V V 7.7.N 2 & ( } ( # VXVXVXVXVXVXVXVXVXVXVXVXVXVXVX",
"VXVXVXVXVXVXVXVXVXVXVXVXVXVXVX1 y s s 9.M V M E M M Z Z M N p p E y.Z V V 9.8.V N d = * > > < VXVXVXVXVXVXVXVXVXVXVXVXVXVXVXVXVX",
"VXVXVXVXVXVXVXVXVXVXVXVXVXVXVXVXVX3 8 N m a a a t a A s N , | ;.-.} Z C 8.B B y + = VXVXVXVXVXVXVXVXVXVXVXVXVXVXVXVXVXVXVXVXVXVX",
"VXVXVXVXVXVXVXVXVXVXVXVXVXVXVXVXVX- 1 > t y r r y 6 o # o _ } -.} _ V 9.B 6 o VXVXVXVXVXVXVXVXVXVXVXVXVXVXVXVXVXVXVXVXVXVXVXVXVX",
"VXVXVXVXVXVXVXVXVXVXVXVXVXVXVXVXVXVX= 8 B 8.8.8.8.B r > r =.=.-.] A 8.N & VXVXVXVXVXVXVXVXVXVXVXVXVXVXVXVXVXVXVXVXVXVXVXVXVXVXVX",
"VXVXVXVXVXVXVXVXVXVXVXVXVXVXVXVXVXVXVX% & a y 6.8.8.B > a.=.;.} y.7.y VXVXVXVXVXVXVXVXVXVXVXVXVXVXVXVXVXVXVXVXVXVXVXVXVXVXVXVXVX",
"VXVXVXVXVXVXVXVXVXVXVXVXVXVXVXVXVXVXVXVXVXVXX 5 r r y f -.a.a.0.N e % VXVXVXVXVXVXVXVXVXVXVXVXVXVXVXVXVXVXVXVXVXVXVXVXVXVXVXVXVX",
"VXVXVXVXVXVXVXVXVXVXVXVXVXVXVXVXVXVXVXVXVXVX( ( ( p & 8.' C Z N t t * VXVXVXVXVXVXVXVXVXVXVXVXVXVXVXVXVXVXVXVXVXVXVXVXVXVXVXVXVX",
"VXVXVXVXVXVXVXVXVXVXVXVXVXVXVXVXVXVXVXVXVX& =.,.;.{ ) C C y a 5 8 t VXVXVXVXVXVXVXVXVXVXVXVXVXVXVXVXVXVXVXVXVXVXVXVXVXVXVXVXVXVX",
"VXVXVXVXVXVXVXVXVXVXVXVXVXVXVXVXVXVXVXVXVXVXp { ;.-.} V r % X VXVXVXVXVXVXVXVXVXVXVXVXVXVXVXVXVXVXVXVXVXVXVXVXVXVXVXVXVXVXVXVXVX",
"VXVXVXVXVXVXVXVXVXVXVXVXVXVXVXVXVXVXVXVXVXVXVXt ) u.y.V % VXVXVXVXVXVXVXVXVXVXVXVXVXVXVXVXVXVXVXVXVXVXVXVXVXVXVXVXVXVXVXVXVXVXVX",
"VXVXVXVXVXVXVXVXVXVXVXVXVXVXVXVXVXVXVXVXVXVXVXVX, r r r VXVXVXVXVXVXVXVXVXVXVXVXVXVXVXVXVXVXVXVXVXVXVXVXVXVXVXVXVXVXVXVXVXVXVXVX",
"VXVXVXVXVXVXVXVXVXVXVXVXVXVXVXVXVXVXVXVXVXVXVXVXVXVXVXVXVXVXVXVXVXVXVXVXVXVXVXVXVXVXVXVXVXVXVXVXVXVXVXVXVXVXVXVXVXVXVXVXVXVXVXVX",
"VXVXVXVXVXVXVXVXVXVXVXVXVXVXVXVXVXVXVXVXVXVXVXVXVXVXVXVXVXVXVXVXVXVXVXVXVXVXVXVXVXVXVXVXVXVXVXVXVXVXVXVXVXVXVXVXVXVXVXVXVXVXVXVX",
"VXVXVXVXVXVXVXVXVXVXVXVXVXVXVXVXVXVXVXVXVXVXVXVXVXVXVXVXVXVXVXVXVXVXVXVXVXVXVXVXVXVXVXVXVXVXVXVXVXVXVXVXVXVXVXVXVXVXVXVXVXVXVXVX",
"VXVXVXVXVXVXVXVXVXVXVXVXVXVXVXVXVXVXVXVXVXVXVXVXVXVXVXVXVXVXVXVXVXVXVXVXVXVXVXVXVXVXVXVXVXVXVXVXVXVXVXVXVXVXVXVXVXVXVXVXVXVXVXVX"
};
