/* XPM */
static char *result[] = {
/* columns rows colors chars-per-pixel */
"63 53 245 2 ",
"   c #000000",
".  c #050007",
"X  c #141200",
"o  c #191A03",
"O  c #020416",
"+  c #181616",
"@  c #100E0B",
"#  c #21191C",
"$  c #211A00",
"%  c #24231C",
"&  c #212016",
"*  c #00042A",
"=  c #021727",
"-  c #000332",
";  c #001834",
":  c #1E0F38",
">  c #281629",
",  c #05262C",
"<  c #18262D",
"1  c #042337",
"2  c #142D3A",
"3  c #262523",
"4  c #2A2B2B",
"5  c #272926",
"6  c #2E2D33",
"7  c #292B39",
"8  c #352C3A",
"9  c #2D3037",
"0  c #34333C",
"q  c #38333A",
"w  c #382721",
"e  c #541B26",
"r  c #482A39",
"t  c #49373C",
"y  c #542B2D",
"u  c #6E363E",
"i  c #77181E",
"p  c #050144",
"a  c #1B114E",
"s  c #2E394B",
"d  c #2E3440",
"f  c #353443",
"g  c #3B3944",
"h  c #3D3C4D",
"j  c #383548",
"k  c #343351",
"l  c #3F3D51",
"z  c #3A3759",
"x  c #2D2A4E",
"c  c #3C3261",
"v  c #363671",
"b  c #1F164C",
"n  c #4C3C43",
"m  c #443C48",
"M  c #573C44",
"N  c #413C52",
"B  c #463F59",
"V  c #483F5A",
"C  c #6A3B42",
"Z  c #643841",
"A  c #703B43",
"S  c #473D66",
"D  c #533A7E",
"F  c #410E75",
"G  c #3A4756",
"H  c #484548",
"J  c #554349",
"K  c #424254",
"L  c #45445A",
"P  c #4A4B57",
"I  c #4A545F",
"U  c #664849",
"Y  c #79564C",
"T  c #715455",
"R  c #7A5954",
"E  c #714C4E",
"W  c #4B4B64",
"Q  c #4E4D6A",
"!  c #494568",
"~  c #514369",
"^  c #4A5466",
"/  c #54546D",
"(  c #464676",
")  c #5A4B78",
"_  c #545472",
"`  c #5B5B7D",
"'  c #58577B",
"]  c #4F5A7B",
"[  c #665277",
"{  c #5A6172",
"}  c #686868",
"|  c #77736B",
" . c #696A74",
".. c #7A7A79",
"X. c #706E79",
"o. c #78615D",
"O. c #893D3E",
"+. c #A7423F",
"@. c #864949",
"#. c #974949",
"$. c #85564E",
"%. c #875C58",
"&. c #975953",
"*. c #98514C",
"=. c #A94D55",
"-. c #B85958",
";. c #AC4F4D",
":. c #896255",
">. c #966758",
",. c #8E6F56",
"<. c #A46858",
"1. c #B9625B",
"2. c #AB7658",
"3. c #B57C5C",
"4. c #AB744F",
"5. c #8A6862",
"6. c #9B6A64",
"7. c #986968",
"8. c #897567",
"9. c #897568",
"0. c #94766A",
"q. c #9A7B6C",
"w. c #AA756B",
"e. c #B97D73",
"r. c #AD7268",
"t. c #C2655B",
"y. c #CD6E61",
"u. c #D87766",
"i. c #CC7266",
"p. c #A99656",
"a. c #A9A258",
"s. c #BA8163",
"d. c #B48E79",
"f. c #B3907B",
"g. c #A5926B",
"h. c #DC856A",
"j. c #D98A6B",
"k. c #D8946D",
"l. c #C98679",
"z. c #DE9C71",
"x. c #CD8A6F",
"c. c #E1886D",
"v. c #E29C72",
"b. c #E39771",
"n. c #E2906F",
"m. c #E3A275",
"M. c #E8A678",
"N. c #DFA074",
"B. c #EBD476",
"V. c #D8C473",
"C. c #4B3485",
"Z. c #503985",
"A. c #4A5988",
"S. c #585A85",
"D. c #544A8A",
"F. c #624E82",
"G. c #634F8A",
"H. c #665189",
"J. c #6A538D",
"K. c #645487",
"L. c #6C5690",
"P. c #6C5D93",
"I. c #645291",
"U. c #705B96",
"Y. c #5A668F",
"T. c #5B6790",
"R. c #626286",
"E. c #66698A",
"W. c #6B7387",
"Q. c #6B6C94",
"!. c #6C6C9A",
"~. c #696696",
"^. c #726C9C",
"/. c #72659A",
"(. c #73739E",
"). c #797D96",
"_. c #7C7C86",
"`. c #6C6CA3",
"'. c #756EA4",
"]. c #7575A4",
"[. c #7874A5",
"{. c #7B7BAB",
"}. c #7779A7",
"|. c #7F7FB1",
" X c #6C73A8",
".X c #997490",
"XX c #A26F86",
"oX c #845E82",
"OX c #7783A6",
"+X c #7F80B1",
"@X c #858589",
"#X c #8D9699",
"$X c #999699",
"%X c #8A8E99",
"&X c #BB9681",
"*X c #AC9293",
"=X c #BCA788",
"-X c #8284AD",
";X c #8895AF",
":X c #8181B3",
">X c #8588B5",
",X c #8A94B2",
"<X c #8C97B8",
"1X c #9392AC",
"2X c #96A3BD",
"3X c #9DA2A4",
"4X c #A3A3A2",
"5X c #AAAAA8",
"6X c #A7A3B8",
"7X c #B7B8B9",
"8X c #B3BAAD",
"9X c #D48E82",
"0X c #C89883",
"qX c #D6A68C",
"wX c #D1A98E",
"eX c #E9BB85",
"rX c #EAB99B",
"tX c #E4B598",
"yX c #EBB699",
"uX c #F4C1A1",
"iX c #FDC8A7",
"pX c #EAD689",
"aX c #98A7C2",
"sX c #A6AFC8",
"dX c #B9B8CD",
"fX c #ADB7CC",
"gX c #9D9FCA",
"hX c #C9BFC3",
"jX c #BAC2D5",
"kX c #C8C8C9",
"lX c #C9C9D6",
"zX c #D7D8D8",
"xX c #D0D1DC",
"cX c #D7D9E3",
"vX c #CFD4E0",
"bX c #E4E4E3",
"nX c #EBEBEC",
"mX c #E3E5EC",
"MX c #ECECF1",
"NX c #F3F3F4",
"BX c #FDFDFD",
"VX c #F6F5FA",
"CX c #F6F3EA",
"ZX c #DEE3EB",
"AX c None",
/* pixels */
"AXAXAXAXAXAXAXAXAXAXAXAXAXAXAXAXAXAXAXAXAXAXAXAXAXAXAXAXAXAXAXAXAXAXo X X X X X X X X X X X X o 3 5 5 AXAXAXAXAXAXAXAXAXAXAXAX",
"AXAXAXAXAXAXAXAXAXAXAXAXAXAXAXAXAXAXAXAXAXAXAXAXAXAXAXAXAXAXAXAXAXl L Q W W W ! W W W W W W ! L N h N AXAXAXAXAXAXAXAXAXAXAXAX",
"AXAXAXAXAXAXAXAXAXAXAXAXAXAXAXAXAXAXAXAXAXAXAXAXAXAXAXAXAXAXAXAXf ' !.].(.(.].(.(. X(.(.].].(.Q.) ) ) V 5 AXAXAXAXAXAXAXAXAXAX",
"AXAXAXAXAXAXAXAXAXAXAXAXAXAXAXAXAXAXAXAXAXAXAXAXAXAXAXAXAXAXAXj / ].+X].~.~.Q.~.~.!.~.~.~.!.~.~./.U.L.) N AXAXAXAXAXAXAXAXAXAX",
"AXAXAXAXAXAXAXAXAXAXAXAXAXAXAXAXAXAXAXAXAXAXAXAXAXAXAXAXAXAX6 _ ].:X[.' 9 k k k s k k k k f j S.{.^.H.J.) N 6 AXAXAXAXAXAXAXAX",
"AXAXAXAXAXAXAXAXAXAXAXAXAXAXAXAXAXAXAXAXAXAXAXAXAXAXAXAXAXAX0 E.|.].Q.$X5X5X5X5X4X4X4X5X5X5X4X$XQ.I.H.L.H.W 8 AXAXAXAXAXAXAXAX",
"AXAXAXAXAXAXAXAXAXAXAXAXAXAXAXAXAXAXAXAXAXAXAXAXAXAXAXAXAXAX6 K. X( } zXBXBXBXBXBXBXBXBXBXBXBXlXP a J.L.F.L 6 AXAXAXAXAXAXAXAX",
"AXAXAXAXAXAXAXAXAXAXAXAXAXAXAXAXAXAXAXAXAXAXAXAXAXAXAXAXAXAX6 R.].! } zXBXzX7XkXnXBXbXkX7XbXBXzXm a L.L.[ L 6 AXAXAXAXAXAXAXAX",
"AXAXAXAXAXAXAXAXAXAXAXAXAXAXAXAXAXAXAXAXAXAXAXAXAXAXAXAXAXAX6 R.].( } bXNX..q @ kXVX8XH   $XnXbXP a L.L.F.L 6 AXAXAXAXAXAXAXAX",
"AXAXAXAXAXAXAXAXAXAXAXAXAXAXAXAXAXAXAXAXAXAXAXAXAXAXAXAXAXAX6 R.].( } bXBX .    7XVX3X    $XNXnXH - L.L.F.V 6 AXAXAXAXAXAXAXAX",
"AXAXAXAXAXAXAXAXAXAXAXAXAXAXAXAXAXAXAXAXAXAXAXAXAXAXAXAXAXAX6 R.].S.X.lXbX$X| ..zXBXkX@X| 5XcXkX) c J.L.) L 6 AXAXAXAXAXAXAXAX",
"AXAXAXAXAXAXAXAXAXAXAXAXAXAXAXAXAXAXAXAXAXAXAXAXAXAXAXAXAXAX9 { }.{.Q.).4XzXmXnXVXBXNXnXnXxX3XW.^.L.H.J.F.L 6 AXAXAXAXAXAXAXAX",
"AXAXAXAXAXAXAXAXAXAXAXAXAXAXAXAXAXAXAXAXAXAXAXAXAXAXAXAXAXAX9 K.{.>X`.p | NXBXmXNXBXnXMXBXbX| p [.[.H.J.[ V 6 AXAXAXAXAXAXAXAX",
"AXAXAXAXAXAXAXAXAXAXAXAXAXAXAXAXAXAXAXAXAXAXAXAXAXAXAXAXAXAX6 ` {.:X`.b ..NXMX1XxXBXhX6XnXbX..b [.'.H.J.F.V 9 AXAXAXAXAXAXAXAX",
"AXAXAXAXAXAXAXAXAXAXAXAXAXAXAXAXAXAXAXAXAXAXAXAXAXAXAXAXAXAX6 { }.+X'.Y.).lXdXD.gXvX1X'.dXkX).D.{.^.H.J.F.B 6 AXAXAXAXAXAXAXAX",
"AXAXAXAXAXAXAXAXAXAXAXAXAXAXAXAXAXAXAXAXAXAXAXg N G g 0 AXAX9 K.}.|.|. X|..X|.{.{.:X.X[.-X-X{.{.{.^.H.J.F.V 6 AXAXf h N N g AX",
"AXAXAXAXAXAXAXAXAXAXAXAXAXAXAXAXAXAXAXAXAXAXQ E.^.E./ 9 AXAX4 K.}.|.{.|.|.`.`.{.'.`. X{.`.`.|.:X.X/.H.L.H.L 6 AXAXg K.Q.Q.` K ",
"AXAXAXAXAXAXAXAXAXAXAXAXAXAXAXAXAXAXAXAXAX6 ` {.:X}.' 4 AXAXj { }.|.{.}.}.{.{.{.|.{.{.{.{.{.{.}.{./.H.J.) N 4 AXAXG E.{.:X(.W ",
"AXAXAXAXAXAXAXAXAXAXAXAXAXAXAXAXAXAXAXAXAX0 A.{.^.W g 3 @ N ) F.P.'.}.!.U.}.|.{.{.{.{.{.{.[./.P.P.I.F.S j 6 3 3 & 4 h ` ].].Q ",
"AXAXAXAXAXAXAXAXAXAXAXAXAXAXAXAXAXAXAXAXAX6 Y.+XQ.K L W W ' P.P.P.'.{.`.P.}.|.{.{.{.{.|.{.[.P.J.P.~.L._ L W Q Q Q W K Q (.].W ",
"AXAXAXAXAXAXAXAXAXAXAXAXAXAXAXAXAXAXAXAXAX0 S..X:X}.].[.[.{.{.{.}.{..X|.{.-X+X-X+X+X.X:X:X+X{.{.{.|.{.}.].].}.}.[.[.].}.{.].Q ",
"AXAXAXAXAXAXAXAXAXAXAXAXAXAXAXAXAXAXAXAXAX6 Q E.(.Q.(.(.Q.Q.Q.Q.Q.~.`.T.T.T.Y.Y.T.T.T.T.T.T.Q.Q.~.~.Q.Q.Q.Q.!.Q.Q.(.(.(.(.R.K ",
"AXAXAXAXAXAXAXAXAXAXAXAXAXAXAXAXAXAXAXAXAXAXAXh K N N N h m h h N m m h s s s s s s s j z h h l l l h l h l l h h K h K K j AX",
"AXAXAXAXAXAXAXAXAXAXAXAXAXAXAXAXAXAXAXAXAXAXAXAX% & AX% 4 < = = < = > u *.#.#.#.#.#.*.@.t , < .         4 = = 4 4 % AX& % AXAX",
"AXAXAXAXAXAXAXAXAXAXAXAXAXAXAXAXAXAXAXAXAXAXAXAXAXAXAXAX9 g n t q 9 U 1.u.y.y.y.y.y.u.t.@.7 7 H }  .} G 6 n H q 7 AXAXAXAXAXAX",
"AXAXAXAXAXAXAXAXAXAXAXAXAXAXAXAXAXAXAXAXAXAXAXAXAXAXAXAX1 E 6.%.H Y s.j.n.h.j.k.j.c.n.h.3.O.t #XzXbXzX@Xe >.6.J 1 AXAXAXAXAXAX",
"AXAXAXAXAXAXAXAXAXAXAXAXAXAXAXAXAXAXAXAXAXAXAXAXAXAXAXAX* 5.9Xw.n 4.v.v.z.m.M.N.v.v.v.b.u.;.e #XnXNXbX@Xy l.e.U ; AXAXAXAXAXAX",
"AXAXAXAXAXAXAXAXAXAXAXAXAXAXAXAXAXAXAXAXAXAXAXAXAXAXAXAXO 0.tXf.M 4.M.v.z.M.eXeXM.z.M.b.u.-.e ^ $X3X%XI U i.d.U * AXAXAXAXAXAX",
"AXAXAXAXAXAXAXAXAXAXAXAXAXAXAXAXAXAXAXAXAXAXAXAXAXAXAXAXO q.yXwX0.>.x.j.M.eXeXeXM.N.b.j.1.r.$X..  P @XG U i.d.U * AXAXAXAXAXAX",
"AXAXAXAXAXAXAXAXAXAXAXAXAXAXAXAXAXAXAXAXAXAXAXAXAXAXAXAXO 0.tXuXtXq.U s.v.v.M.v.m.z.c.t.i $XbXkXP 8XCX;Xy e.e.U * AXAXAXAXAXAX",
"AXAXAXAXAXAXAXAXAXAXAXAXAXAXAXAXAXAXAXAXAXAXAXAXAXAXAXAXO q.tXiXuXwX0.>.3.2.2.2.2.2.<.+.u *XkX7XG 3XzX*X&.l.e.V - AXAXAXAXAXAX",
"AXAXAXAXAXAXAXAXAXAXAXAXAXAXAXAXAXAXAXAXAXAXAXAXAXAXAXAXO 0.tXuXrXuXtX0.* 8 f q f 0 = U e.d.T 1 9 2 J e.9X9Xw.M 2 7 AXAXAXAXAX",
"AXAXAXAXAXAXAXAXAXAXAXAXAXAXAXAXAXAXAXAXAXAXAXAXAXAXAX1 ; U g.wXrXiXuXwXf.&X&X&X&X&X&X0XtXqXr.&.r.6.&.l.l.r.>.2.s.2.Y AXAXAXAX",
"AXAXAXAXAXAXAXAXAXAXAXAXAXAXAXAXAXAXAXAXAXAXAXAXAXAXn J q ; : q.tXrXtXrXyXyXrXyXyXrXrXrXrXqXl.l.l.l.l.l.e.J :.k.M.z.r.n AXAXAX",
"AXAXN ^.D.. b !. XC.p     .                 AXAXAXg :.>.H u #.<.5.| 8.8.8.8.8.8.9.9.9.9.9.8.R T T T T T >.s.k.v.m.z.k.s.Y AXAX",
"AX  W }.,X#X1X>XgXdX2X@X .^ { { { { { _ { { ^ AX+ m >.>.H @.i.1.A r u M Z u C u C C C C M Z Z C C E C - t 3.x.k.k.z.N.k.>.- AX",
"AX  I OXdXnXvXaXjXVXNXbX2XOX;X;X,X,X;X;X<X;XOXq   g @.*.8 $.x.h.-.=.-.-.-.1.t.t.t.t.t.-.-.-.-.-.-.t.-.Z * q &.i.n.v.M.k.>.* AX",
"AX  ^ OXjXmXZXvXcXMXBXBXbXdXaXaXaXaXaXaX2X2X;XR.z 8 $.&.8 :.k.v.c.c.c.c.u.;.;.=.=.=.=.-.u.c.c.u.u.y.1.w.g.0.:.=.t.j.b.j.%.- AX",
"AX  I OXaXsXvXNXcXfXmXBXBXZXsX<X2X2X2XaX2X2X<X{.] q >.<.n Y x.m.n.b.b.b.j.$.t M Z Z r Y x.m.v.c.u.#.U &XtXrX&XE *.y.u.y.$.; AX",
"AXAXP X.OXOXsXvXjX<XfXZXZXcXsX<X<X<X<X<X<X2X-X^.( q &.>.n U 4.4.2.2.4.4.d.8X8Xa.a.a.a.p.p.2.2.<.&.y , 0.qXiXrX&Xw.*.=.&.C AXAX",
"AXAXAX3 / (.|.|.<X2X>X-X<X2X2X;X{.}.}.{.{.{.Q.K 3 q @.@.M 9 g K m K f : .XmXCXpXB.B.pXV.p.p x K m h j ; o.wXrXrXf.J : n AXAXAX",
"AXAXAXAXf _ D.S ] W.` v ] W.W.R.` ' ` ' ` S.Q AXO f @.#.y G A.A.A.A.A.A.).dXkX=X&X=X=X&X{ v A.Y.Y.T.E.v S 0.d.d.8.q * AXAXAXAX",
"AXAXAXAXAX3 4 4 3 + 3 5 # # + + 3 3 5 5 3 5 3 AXAXq @.@.y ^ }.:X:X.X}.{.`.D F C.C.C.C.Z.F.~.].{.{.{.{./.G.x - * ; 0 AXAXAXAXAX",
"AXAXAXAXAXAXAXAXAXAXAXAXAXAXAXAXAXAXAXAXAXAXAXAXAXAXM M w Q ].:X+X`.Q W Q z k z c c c c S Q _ _ _ K./.L.J.F.D 2 < AXAXAXAXAXAX",
"AXAXAXAXAXAXAXAXAXAXAXAXAXAXAXAXAXAXAXAXAXAXAXAXAXAXAX2 & Q ].+X XS.f > % 4 4 4 4 4 4 4 5 5 # o 3 ~ H.J.I.I.) j AXAXAXAXAXAXAX",
"AXAXAXAXAXAXAXAXAXAXAXAXAXAXAXAXAXAXAXAXAXAXAXAXAXAXAXAX$ /  X XY.D.[ ~ 4 AXAXAXAXAXAXAXAXAXAX5 f ) L.I.D.x 2 9 0 AXAXAXAXAXAX",
"AXAXAXAXAXAXAXAXAXAXAXAXAXAXAXAXAXAXAXAXAXAXAXAXAXAXAXAXO [ .X*XXXoX) z AXAXAXAXAXAXAXAXAXAXAXAX8 S [ .XXX5.$.n 2 AXAXAXAXAXAX",
"AXAXAXAXAXAXAXAXAXAXAXAXAXAXAXAXAXAXAXAXAXAXAXAXAXAXAXAX- o.l.9X9X7.f AXAXAXAXAXAXAXAXAXAXAXAXAXAX7 V w.9Xl.w.J ; AXAXAXAXAXAX",
"AXAXAXAXAXAXAXAXAXAXAXAXAXAXAXAXAXAXAXAXAXAXAXAXAXAXAXAX1 E 6.w.7.T AXAXAXAXAXAXAXAXAXAXAXAXAXAXAXAXt %.w.w.5.J 1 AXAXAXAXAXAX",
"AXAXAXAXAXAXAXAXAXAXAXAXAXAXAXAXAXAXAXAXAXAXAXAXAXAXAXAX0 f n M n AXAXAXAXAXAXAXAXAXAXAXAXAXAXAXAXAXAXt M M m 0 AXAXAXAXAXAXAX",
"AXAXAXAXAXAXAXAXAXAXAXAXAXAXAXAXAXAXAXAXAXAXAXAXAXAXAXAXAXAXAXAXAXAXAXAXAXAXAXAXAXAXAXAXAXAXAXAXAXAXAXAXAXAXAXAXAXAXAXAXAXAXAX",
"AXAXAXAXAXAXAXAXAXAXAXAXAXAXAXAXAXAXAXAXAXAXAXAXAXAXAXAXAXAXAXAXAXAXAXAXAXAXAXAXAXAXAXAXAXAXAXAXAXAXAXAXAXAXAXAXAXAXAXAXAXAXAX",
"AXAXAXAXAXAXAXAXAXAXAXAXAXAXAXAXAXAXAXAXAXAXAXAXAXAXAXAXAXAXAXAXAXAXAXAXAXAXAXAXAXAXAXAXAXAXAXAXAXAXAXAXAXAXAXAXAXAXAXAXAXAXAX"
};
