/* XPM */
static char *result[] = {
/* columns rows colors chars-per-pixel */
"64 62 229 2 ",
"   c #000000",
".  c #060007",
"X  c #000015",
"o  c #00001B",
"O  c #180C08",
"+  c #2C0000",
"@  c #260000",
"#  c #2D1600",
"$  c #300B0E",
"%  c #2F221B",
"&  c #32261F",
"*  c #000023",
"=  c #000029",
"-  c #000133",
";  c #000938",
":  c #00163B",
">  c #041A36",
",  c #311A27",
"<  c #2C1122",
"1  c #0F253C",
"2  c #05263E",
"3  c #18263D",
"4  c #312C29",
"5  c #21283E",
"6  c #292B3C",
"7  c #312F32",
"8  c #332D38",
"9  c #32323C",
"0  c #393539",
"q  c #292426",
"w  c #4B3838",
"e  c #4F3432",
"r  c #421D2C",
"t  c #644530",
"y  c #072742",
"u  c #1B2D45",
"i  c #0C315E",
"p  c #0E3352",
"a  c #0C304A",
"s  c #252E41",
"d  c #293143",
"f  c #323443",
"g  c #333748",
"h  c #363949",
"j  c #393B4A",
"k  c #383845",
"l  c #373C53",
"z  c #0F3A69",
"x  c #343B69",
"c  c #4C3C49",
"v  c #6F3747",
"b  c #0C415A",
"n  c #3F414D",
"m  c #36425B",
"M  c #384051",
"N  c #29495C",
"B  c #0D446D",
"V  c #35426E",
"C  c #354967",
"Z  c #3B5367",
"A  c #344A72",
"S  c #3A5276",
"D  c #2A4974",
"F  c #3C6278",
"G  c #5A484A",
"H  c #474954",
"J  c #594D53",
"K  c #5C5154",
"L  c #5C5658",
"P  c #49434D",
"I  c #664C48",
"U  c #6A504B",
"Y  c #665148",
"T  c #6B5253",
"R  c #665559",
"E  c #75585C",
"W  c #754C51",
"Q  c #50576A",
"!  c #43687D",
"~  c #576470",
"^  c #656469",
"/  c #7C6761",
"(  c #76767B",
")  c #6B6C73",
"_  c #875B58",
"`  c #836864",
"'  c #8C736A",
"]  c #8D786C",
"[  c #93756B",
"{  c #8E716F",
"}  c #A9766E",
"|  c #AB7A71",
" . c #A77872",
".. c #B27B71",
"X. c #9F8274",
"o. c #AB8B7B",
"O. c #A78776",
"+. c #B5897A",
"@. c #B7917F",
"#. c #C38578",
"$. c #D98C7E",
"%. c #D39F7E",
"&. c #3A5A85",
"*. c #265285",
"=. c #386887",
"-. c #3E6394",
";. c #346FB3",
":. c #436986",
">. c #426795",
",. c #497690",
"<. c #787D84",
"1. c #467BB5",
"2. c #446FA8",
"3. c #6079A7",
"4. c #2F7ECD",
"5. c #0070C9",
"6. c #4C7FC5",
"7. c #3E819C",
"8. c #3E87A3",
"9. c #498097",
"0. c #50869E",
"q. c #7C8088",
"w. c #4687A4",
"e. c #4A81BF",
"r. c #5491AA",
"t. c #5CA2BF",
"y. c #2B95D1",
"u. c #369CD8",
"i. c #2D8CD1",
"p. c #2A95CB",
"a. c #4D87CB",
"s. c #538CD1",
"d. c #5597D6",
"f. c #4D92D6",
"g. c #5CA9C6",
"h. c #44ABDB",
"j. c #5AA4DA",
"k. c #5BA9DE",
"l. c #5BA2D4",
"z. c #4BB2DE",
"x. c #51ADCF",
"c. c #63ABDB",
"v. c #65B2DE",
"b. c #61B6D6",
"n. c #5DACE1",
"m. c #4CB9E4",
"M. c #53BDE4",
"N. c #57B4E4",
"B. c #65BBE6",
"V. c #66ADE1",
"C. c #4EC3E9",
"Z. c #4BC0E7",
"A. c #54C4EA",
"S. c #56C3E9",
"D. c #55CBF3",
"F. c #4ECBF3",
"G. c #6DCBEB",
"H. c #6BC3E6",
"J. c #71CAEC",
"K. c #70C7E9",
"L. c #65CEF3",
"P. c #6FD4F7",
"I. c #73D2F4",
"U. c #73D9FD",
"Y. c #72CFF1",
"T. c #959599",
"R. c #878A8F",
"E. c #BA9683",
"W. c #9C9DA3",
"Q. c #A2A5AA",
"!. c #A6AAAD",
"~. c #AAADB4",
"^. c #ACB5BA",
"/. c #B9BABC",
"(. c #AFA19A",
"). c #D88F80",
"_. c #C39C88",
"`. c #DC9484",
"'. c #D69886",
"]. c #E49887",
"[. c #E59C8A",
"{. c #EA9E8B",
"}. c #E49687",
"|. c #CCA38D",
" X c #C7A08B",
".X c #D5AA92",
"XX c #D5A991",
"oX c #E7A28E",
"OX c #ECA18E",
"+X c #E9A691",
"@X c #ECAB94",
"#X c #E5A792",
"$X c #F3A591",
"%X c #E3B69B",
"&X c #EEB39A",
"*X c #E6B598",
"=X c #F2B59C",
"-X c #F3B99F",
";X c #F0A38F",
":X c #ECBDA1",
">X c #F5BDA2",
",X c #FCBCA1",
"<X c #F5C2A5",
"1X c #F9C3A6",
"2X c #FAC6A8",
"3X c #FDCBAC",
"4X c #F6C5A8",
"5X c #FFD0AF",
"6X c #FECFB0",
"7X c #FFD3B3",
"8X c #FFD9B7",
"9X c #FEDABB",
"0X c #FED7B9",
"qX c #BDC1C5",
"wX c #D0D0D1",
"eX c #FFE4C7",
"rX c #DFDFE0",
"tX c #EAEAEB",
"yX c #E4E6E7",
"uX c #F4F0EF",
"iX c #EEF6FB",
"pX c #EAF2F6",
"aX c #F4F2F3",
"sX c #F2F5FA",
"dX c #F4FAFD",
"fX c #FCFEFE",
"gX c #F9F6F8",
"hX c #EEEEF2",
"jX c None",
/* pixels */
"jXjXjXjXjXjXjXjXjXjXjXjXjXjXjXjXjXjXjXjXjXjXjXjXjXjXjXjXjXjXjXjXjXjXjXjXq.( ( jXjXjXjXjXjXjXjXjXjXjXjXjXjXjXjXjXjXjXjXjXjXjXjXjX",
"jXjXjXjXjXjXjXjXjXjXjXjXjXjXjXjXjXjXjXjXjXjXjXjXjXjXjXjXjXjXjXjXjXjX  T.fXfXfX^ > jXjXjXjXjXjXjXjXjXjXjXjXjXjXjXjXjXjXjXjXjXjXjX",
"jXjXjXjXjXjXjXjXjXjXjXjXjXjXjXjXjXjXjXjXjXjXjXjXjXjXjXjXjXjXjXjXjXjXX T.fXfXfX^ 6 jXjXjXjXjXjXjXjXjXjXjXjXjXjXjXjXjXjXjXjXjXjXjX",
"jXjXjXjXjXjXjXjXjXjXjXjXjXjXjXjXjXjXjXjXjXjXjXjXjXjXjXjXjXjXjXj       j T.T.T.=     = k jXjXjXjXjXjXjXjXjXjXjXjXjXjXjXjXjXjXjXjX",
"jXjXjXjXjXjXjXjXjXjXjXjXjXjXjXjXjXjXjXjXjXjXjXjXjXjXjXjXjXjXjX  wXgXyXtXyXrXrXyXtXfXQ.  jXjXjXjXjXjXjXjXjXjXjXjXjXjXjXjXjXjXjXjX",
"jXjXjXjXjXjXjXjXjXjXjXjXjXjXjXjXjXjXjXjXjXjXjXjXjXjXjXjXjXjXjXg P R.Q.fXfXfXfX/.fX) H f jXjXjXjXjXjXjXjXjXjXjXjXjXjXjXjXjXjXjXjX",
"jXjXjXjXjXjXjXjXjXjXjXjXjXjXjXjXjXjXjXjXjXjXjXjXjXjXjXjXjXjXjXP   wXaXtXtXtXtXtXaX/.  H jXjXjXjXjXjXjXjXjXjXjXjXjXjXjXjXjXjXjXjX",
"jXjXjXjXjXjXjXjXjXjXjXjXjXjXjXjXjXjXjXjXjXjXjXjXjXjXjXjXjXjXjXjXj                   j jXjXjXjXjXjXjXjXjXjXjXjXjXjXjXjXjXjXjXjXjX",
"jXjXjXjXjXjXjXjXjXjXjXjXjXjXjXjXjXjXjXjXjXjXjXjXjXjXjXjXjXjXjXjXjXjXjXjXjXjXjXjXjXjXjXjXjXjXjXjXjXjXjXjXjXjXjXjXjXjXjXjXjXjXjXjX",
"jXjXjXjXjXjXjXjXjXjXjXjXjXjXjXjXjXjXjXjXjXjXjXjXjXjXjXd s d d 6 5 5 5 5 6 3 s 3 5 3 s d s jXjXjXjXjXjXjXjXjXjXjXjXjXjXjXjXjXjXjX",
"jXjXjXjXjXjXjXjXjXjXjXjXjXjXjXjXjXjXjXjXjXjXjXjXjX2 +.5X2X3X3X>X[.+XoX+XOXoXoXOXOX+XoX{.`.P k jXjXjXjXjXjXjXjXjXjXjXjXjXjXjXjXjX",
"jXjXjXjXjXjXjXjXjXjXjXjXjXjXjXjXjXjXjXjXjXjXjXjX- / 0X0X0X7X3X7X3X3X3X3X3X5X3X<X3X<XOX}.$X#.- jXjXjXjXjXjXjXjXjXjXjXjXjXjXjXjXjX",
"jXjXjXjXjXjXjXjXjXjXjXjXjXjXjXjXjXjXjXjXjXjXjXjXf _.7X9XeX0X3X0X3X3X3X3X3X3X3X&X1X+X&X&XoX).E 2 jXjXjXjXjXjXjXjXjXjXjXjXjXjXjXjX",
"jXjXjXjXjXjXjXjXjXjXjXjXjXjXjXjXjXjXjXjXjXjXjX1 K 8X7X3XeX9X3X3X3X3X3X3X3X3X3X3X3X7X5X=X].OX..: jXjXjXjXjXjXjXjXjXjXjXjXjXjXjXjX",
"jXjXjXjXjXjXjXjXjXjXjXjXjXjXjXjXjXjXjXjXjXjXjXy G 0X9X9XeXeX3X3X3X3X3X3X2X3X3X3X3X3X3X>X[.{.| : jXjXjXjXjXjXjXjXjXjXjXjXjXjXjXjX",
"jXjXjXjXjXjXjXjXjXjXjXjXjXjXjXjXjXjXjXjXjXjXjX1 K 3X3X3X3X3X3X1X1X1X3X1X3X3X2X3X3X3X3X3XoXoX..: jXjXjXjXjXjXjXjXjXjXjXjXjXjXjXjX",
"jXjXjXjXjXjXjXjXjXjXjXjXjXjXjXjXjXjXjXjXjXjXjX1 K 3X3X3X3X5X2X+X@X@X1X=X3X3X3X3X3X3X3X3X{.{...: jXjXjXjXjXjXjXjXjXjXjXjXjXjXjXjX",
"jXjXjXjXjXjXjXjXjXjXjXjXjXjXjXjXjXjXjXjXjXjXjX1 K 3X3X3X>X-X>X,X>X>X>X1X3X3X2X3X3X3X3X>X`.{...: jXjXjXjXjXjXjXjXjXjXjXjXjXjXjXjX",
"jXjXjXjXjXjXjXjXjXjXjXjXjXjXjXjXjXjXjXjXjXjXjX1 K 3X3X3XoX$.$.$.).).$.[.3X3X3X3X2X3X3X>X=X{...: jXjXjXjXjXjXjXjXjXjXjXjXjXjXjXjX",
"jXjXjXjXjXjXjXjXjXjXjXjXjXjXjXjXjXjXjXjXjXjXjX1 K 3X3X3X1X<X1X<X,X1X<X1X3X3X2X3X3X3X=X@X@X;X..: jXjXjXjXjXjXjXjXjXjXjXjXjXjXjXjX",
"jXjXjXjXjXjXjXjXjXjXjXjXjXjXjXjXjXjXjXjXjXjXjX1 L 3X4X3X6XoXo.8X X'.3X3X4X2X3X3X3X3X1X1Xc 8 3 u jXjXjXjXjXjXjXjXjXjXjXjXjXjXjXjX",
"jXjXjXjXjXjXjXjXjXjXjXjXjXjXjXjXjXjXF :.x S m > E :X   X7X*XXX%X%.%X3X%X  .X7X3X3X3X3X3X] ' { G 9 x x S :.! F ,.Z jXjXjXjXjXjXjX",
"jXjXjXjXjXjXjXjXjXjXjXjXjXjXjXjX9 ! H.P.j.d.>.. R @Xv XX6XL T.~ qXN 4X:Xv '.3X3X3X3X3X3X1XXX3X@.= c.n.H.P.P.G.P.b.Z jXjXjXjXjXjX",
"jXjXjXjXjXjXjXjXjXjXjXjXjXjXjXjX+ g.I.l.l.s.>.O G -X-X2X3X( !.R.rX) :X3X,X=X1X3X2X3X3X-X$.  E.@.* v.v.l.B.c.H.H.P.0.+ jXjXjXjXjX",
"jXjXjXjXjXjXjXjXjXjXjXjXjXjXjX$ =.M.S.z.z.m.w.O J 6X3X3X3XG       * 1X3X6X6X3X3X3X3X3X1X`.o _.E.* 4.i.m.M.m.S.S.S.z.Z , jXjXjXjX",
"jXjXjXjXjXjXjXjXjXjXjXjXjXjXjX  !.fXdXfXdXfX~.  R 3X3X3X2X) tXtXsX<.-X3X2X3X3X3X6X>XoX@X`.W -XO.  aXgXdXdXfXdXdXgXfX<.X jXjXjXjX",
"jXjXjXjXjXjXjXjXjXjXjXjXjXjXjX  W.fXiXdXiXdX~.o R >X>X3X3X_ E E E I >X3X3X<X2X>X>X1X>XoX).'.'.{ z pXpXsXdXiXdXdXdXfX( X jXjXjXjX",
"jXjXjXjXjXjXjXjXjXjXjXjXjXjXjX+ 7.D.Z.C.C.y.f.C e +X1X6X3X=X&X=X=X=X3X6X7X-X2X=X+X[.=X[.; y   ;.f.u.y.h.A.C.C.C.C.F.F , jXjXjXjX",
"jXjXjXjXjXjXjXjXjXjXjXjXjXjXjX+ 0.I.K.K.v.K.d.2.c  .oX=X&X=X-X=X-X-X&X&X&X-X=X-X&X+X>XoX .6 Q e.a.v.Y.J.J.J.J.G.K.I.! < jXjXjXjX",
"jXjXjXjXjXjXjXjXjXjXjXjXjXjXjX+ 9.D.A.Z.m.m.h.m.Z   _ ;X].].].].].].].{.].].].}.}.}.}.OX[.  -.d.a.h.A.C.A.S.A.A.C.A.F , jXjXjXjX",
"jXjXjXjXjXjXjXjXjXjXjXjXjXjXjX  Q.fXdXdXdXdXdXfX^ D 3.t U U T T T T T T T U U U U U U I L 6.a.-.m iXfXdXdXdXfXdXdXfXq.X jXjXjXjX",
"jXjXjXjXjXjXjXjXjXjXjXjXjXjXjX  W.fXuXaXuXuXaXgXL D 1.; z p a a 2 2 1 a p i i i i i i i z a.f.&.# uXaXuXuXaXuXuXuXgX( * jXjXjXjX",
"jXjXjXjXjXjXjXjXjXjXjXjXjXjXjXk 6               q S d.j.l.l.+ , M 0 M @ >.k.j.j.j.j.j.k.j.d.s.&.q                   d k jXjXjXjX",
"jXjXjXjXjXjXjXjXjXjXjXjXjXjXjXjXy ` +.} } | | | w A d.H.J.H.t.,.+ g 7 w.b.Y.G.G.G.Y.G.B.K.c.s.=.%  .| | | | +.} | E 3 jXjXjXjXjX",
"jXjXjXjXjXjXjXjXjXjXjXjXjXjXjXjX; #.#.`.$X{.OX@XG z y.m.A.C.D.Z.=.+ x.U.L.Z.C.C.C.C.C.h.m.h.u.*.4 oXOX{.{.{.| OX$X[ : jXjXjXjXjX",
"jXjXjXjXjXjXjXjXjXjXjXjXjXjXjXjXo '.' XX[ 3X#X`.8 <.fXiXiXdXsXfX~.  pXp ^.fXiXdXiXdXiXdXiXdXdXW.  oX=X@X2X-X` |.E.+.* jXjXjXjXjX",
"jXjXjXjXjXjXjXjXjXjXjXjXjXjXjXjXy %XE.%XX.3X{.OXr R.fXfXfXdXdXfX~.  iXiXdXdXfXdXfXdXdXfXfXgXfXQ.  [.@X[.1X3X3X.X XE.= jXjXjXjXjX",
"jXjXjXjXjXjXjXjXjXjXjXjXjXjXjX- [ 3X:X3X3X1X2XoXe B u.z.M.z.S.D.0.+ Z.t.x.D.S.A.A.A.S.S.S.S.i.*.& `.2X3X3X3X3X<X4Xo.= jXjXjXjXjX",
"jXjXjXjXjXjXjXjXjXjXjXjXjXjXjXjX  _./ %X5X-X-X=XI B l.c.H.v.K.I.r.@ H.,.g.I.K.K.J.J.K.J.K.v.V.&.4 &X=X3X3X3X0X_.E.O.o jXjXjXjXjX",
"jXjXjXjXjXjXjXjXjXjXjXjXjXjXjX- ' 3X%X:XE.5X3X-XG z 4.m.F.A.Z.F.8.@ m.U.L.Z.C.C.C.C.C.C.C.y.5.*.% *X6X2X3X4X_.|.O.3XJ > jXjXjXjX",
"jXjXjXjXjXjXjXjXjXjXjXjXjXjXjXjXP .X9X<XR 7X3X1Xe <.dXhXiXiXpXfX!.  yXb ^.fXpXiXiXiXiXiXiXiXdXW.  >X3X3X3X4XR 4X4XE.u jXjXjXjXjX",
"jXjXjXjXjXjXjXjXjXjXjXjXjXjXjXjXX XX[ %X3X3X3X5Xe R.fXfXfXfXfXfX~.  iXiXdXfXfXfXfXfXdXfXfXgXfXQ.  3X3X3X3X3X7X|.E._.- jXjXjXjXjX",
"jXjXjXjXjXjXjXjXjXjXjXjXjXjXjXjX* .XE.:X5X3X1X3XI B 4.h.m.S.S.D.w.@ S.g.x.D.S.S.S.M.M.M.M.h.4.&.& 4X3X3X3X1X7X.X_.3XR > jXjXjXjX",
"jXjXjXjXjXjXjXjXjXjXjXjXjXjXjXjX= _.0X3X3X3X7X0XI B s.a.d.G.K.I.r.@ H.,.g.P.G.G.J.B.B.v.a.d.f.&.% 6X7X7X3X3X3X3X0X' * jXjXjXjXjX",
"jXjXjXjXjXjXjXjXjXjXjXjXjXjXjXjX- |.8X4X3X%XX.@.w D d.s.n.n.k.n.,.@ l.N.B.n.n.k.k.n.k.N.d.j.f.>.% O.o.O.:X3X4X3X9Xo.- jXjXjXjXjX",
"jXjXjXjXjXjXjXjXjXjXjXjXjXjXjXjXjX/ ] 4X7X|.  ; 9 l S S V V V V l 9 V x x x V V V V V A C -.1.0 f - ;   |.7X7X%X` jXjXjXjXjXjXjX",
"jXjXjXjXjXjXjXjXjXjXjXjXjXjXjXjXjXjX= <X4X3XO.; 0 C 1.e.C 2.7 7 d g 7 7 7 7 7 7 # S a.m 2.1.e.S 7 2 [ 4X<X4X3X.X. jXjXjXjXjXjXjX",
"jXjXjXjXjXjXjXjXjXjXjXjXjXjXjXjXjXjXjX3 u d n jX9 m S 9 g g g g g f g f g g g g g g h f l &.&.C 8 jXh k d u u s jXjXjXjXjXjXjXjX",
"jXjXjXjXjXjXjXjXjXjXjXjXjXjXjXjXjXjXjXk f k f jX4 S -.% g f f f f f f f f f f f f f f 9 l 1.1.S 4 jXf f k k f jXjXjXjXjXjXjXjXjX",
"jXjXjXjXjXjXjXjXjXjXjXjXjXjXjXjXjXjXjXjXjXjXjXjXg 8 % g 9 f f f f f f f f f f f f f f f 9 # # 7 g jXjXjXjXjXjXjXjXjXjXjXjXjXjXjX",
"jXjXjXjXjXjXjXjXjXjXjXjXjXjXjXjXjXjXjXjXjXjXjXjXd k g f f f f f f f f f f f f f f f f f f g g g f jXjXjXjXjXjXjXjXjXjXjXjXjXjXjX",
"jXjXjXjXjXjXjXjXjXjXjXjXjXjXjXjXjXjXjXjXjXjXjXf k f f f f f f f f f f d 9 f f f f f f f f f f f f jXjXjXjXjXjXjXjXjXjXjXjXjXjXjX",
"jXjXjXjXjXjXjXjXjXjXjXjXjXjXjXjXjXjXjXjXjXjXf j f f f f f f f h f k h h k h k h g f f f f f f f f jXjXjXjXjXjXjXjXjXjXjXjXjXjXjX",
"jXjXjXjXjXjXjXjXjXjXjXjXjXjXjXjXjXjXjXjXjXjXf j f f f f f h f f f f f f f g f f f f f f 9 f f f k f jXjXjXjXjXjXjXjXjXjXjXjXjXjX",
"jXjXjXjXjXjXjXjXjXjXjXjXjXjXjXjXjXjXjXjXjXjXf h f f f f k g jXjXjXjXjXjXjXjXjXjXjXjXl f f f f f f f jXjXjXjXjXjXjXjXjXjXjXjXjXjX",
"jXjXjXjXjXjXjXjXjXjXjXjXjXjXjXjXjXjXjXjXjXjXf j f f f k jXjXjXjXjXjXjXjXjXjXjXjXjXjXf h f f f g f h g jXjXjXjXjXjXjXjXjXjXjXjXjX",
"jXjXjXjXjXjXjXjXjXjXjXjXjXjXjXjXjXjXjXjXjXjXjXf h k j f jXjXjXjXjXjXjXjXjXjXjXjXjXjXjXjXf f f f f g f jXjXjXjXjXjXjXjXjXjXjXjXjX",
"jXjXjXjXjXjXjXjXjXjXjXjXjXjXjXjXjXjXjXjXjXjXjXjXd f f jXjXjXjXjXjXjXjXjXjXjXjXjXjXjXjXjXjXjXjXjXjXjXjXjXjXjXjXjXjXjXjXjXjXjXjXjX",
"jXjXjXjXjXjXjXjXjXjXjXjXjXjXjXjXjXjXjXjXjXjXjXjXjXjXjXjXjXjXjXjXjXjXjXjXjXjXjXjXjXjXjXjXjXjXjXjXjXjXjXjXjXjXjXjXjXjXjXjXjXjXjXjX",
"jXjXjXjXjXjXjXjXjXjXjXjXjXjXjXjXjXjXjXjXjXjXjXjXjXjXjXjXjXjXjXjXjXjXjXjXjXjXjXjXjXjXjXjXjXjXjXjXjXjXjXjXjXjXjXjXjXjXjXjXjXjXjXjX",
"jXjXjXjXjXjXjXjXjXjXjXjXjXjXjXjXjXjXjXjXjXjXjXjXjXjXjXjXjXjXjXjXjXjXjXjXjXjXjXjXjXjXjXjXjXjXjXjXjXjXjXjXjXjXjXjXjXjXjXjXjXjXjXjX",
"jXjXjXjXjXjXjXjXjXjXjXjXjXjXjXjXjXjXjXjXjXjXjXjXjXjXjXjXjXjXjXjXjXjXjXjXjXjXjXjXjXjXjXjXjXjXjXjXjXjXjXjXjXjXjXjXjXjXjXjXjXjXjXjX"
};
