/* XPM */
static char *result[] = {
/* columns rows colors chars-per-pixel */
"64 64 243 2 ",
"   c #000000",
".  c #02030A",
"X  c #170404",
"o  c #000318",
"O  c #00151E",
"+  c #0A1210",
"@  c #360010",
"#  c #000C24",
"$  c #000424",
"%  c #001523",
"&  c #011A23",
"*  c #061927",
"=  c #1A1D26",
"-  c #171825",
";  c #000636",
":  c #08162E",
">  c #251C26",
",  c #281E28",
"<  c #30112A",
"1  c #05252A",
"2  c #1C212B",
"3  c #142328",
"4  c #112636",
"5  c #27232C",
"6  c #33222C",
"7  c #3A2229",
"8  c #382532",
"9  c #2F3138",
"0  c #540203",
"q  c #4C0510",
"w  c #740803",
"e  c #511532",
"r  c #4B2836",
"t  c #5D2D3A",
"y  c #542936",
"u  c #502D27",
"i  c #79372B",
"p  c #622D3A",
"a  c #68313E",
"s  c #702F31",
"d  c #682318",
"f  c #724F2F",
"g  c #764000",
"h  c #2D1344",
"j  c #1B3650",
"k  c #3F3F42",
"l  c #651D50",
"z  c #5C304B",
"x  c #632C42",
"c  c #792743",
"v  c #6B3243",
"b  c #743443",
"n  c #7A3644",
"m  c #7B3846",
"M  c #7C3549",
"N  c #793649",
"B  c #79385A",
"V  c #6D3054",
"C  c #7B3262",
"Z  c #0A4749",
"A  c #315455",
"S  c #2F625A",
"D  c #297172",
"F  c #43444E",
"G  c #73554D",
"H  c #725271",
"J  c #526B6C",
"K  c #67696A",
"L  c #777678",
"P  c #746C73",
"I  c #584966",
"U  c #960100",
"Y  c #A80C00",
"T  c #BA3209",
"R  c #863C2D",
"E  c #93342F",
"W  c #A93A32",
"Q  c #8F1F23",
"!  c #C23501",
"~  c #C43106",
"^  c #A46200",
"/  c #9A4335",
"(  c #914B34",
")  c #BC442B",
"_  c #AA4A33",
"`  c #A84739",
"'  c #B44D3B",
"]  c #B74C37",
"[  c #BD513A",
"{  c #BC5236",
"}  c #AC543A",
"|  c #AD783C",
" . c #A24416",
".. c #C74E0D",
"X. c #D36E00",
"o. c #C4482E",
"O. c #C9542D",
"+. c #C34C31",
"@. c #C55435",
"#. c #CB5634",
"$. c #CC5935",
"%. c #C75839",
"&. c #D15A37",
"*. c #CB633C",
"=. c #CC683F",
"-. c #CB7D3B",
";. c #D2722B",
":. c #823946",
">. c #8C3D45",
",. c #833A49",
"<. c #893B4A",
"1. c #923E47",
"2. c #9C2751",
"3. c #923569",
"4. c #B33E7B",
"5. c #991A5F",
"6. c #984444",
"7. c #87444B",
"8. c #A64842",
"9. c #B15241",
"0. c #86634D",
"q. c #B67B48",
"w. c #AD6C47",
"e. c #8C5776",
"r. c #A64773",
"t. c #8A6D72",
"y. c #B9746D",
"u. c #CE6E42",
"i. c #CA6445",
"p. c #CB7749",
"a. c #D17346",
"s. c #D87A49",
"d. c #CA6D52",
"f. c #C87466",
"g. c #DE871E",
"h. c #DF8500",
"j. c #E28A0A",
"k. c #DD8831",
"l. c #E08B27",
"z. c #E18E36",
"x. c #E18F39",
"c. c #E2913A",
"v. c #BF8647",
"b. c #C28549",
"n. c #D9834D",
"m. c #CA8654",
"M. c #DC8C53",
"N. c #DC8754",
"B. c #DE9256",
"V. c #DE9959",
"C. c #E29244",
"Z. c #E2954C",
"A. c #E29553",
"S. c #E39855",
"D. c #E1955A",
"F. c #E49C5C",
"G. c #E99D5A",
"H. c #E08F45",
"J. c #E9A15E",
"K. c #D58F71",
"L. c #E49D63",
"P. c #E69F64",
"I. c #EAA162",
"U. c #E7A469",
"Y. c #E6A879",
"T. c #5B7E86",
"R. c #A95985",
"E. c #B55387",
"W. c #BB5189",
"Q. c #8A7188",
"!. c #906F88",
"~. c #AF748C",
"^. c #9F5682",
"/. c #C84382",
"(. c #CB558C",
"). c #DB5895",
"_. c #D84F90",
"`. c #E35798",
"'. c #D06196",
"]. c #E4629C",
"[. c #F35EA2",
"{. c #EC67A3",
"}. c #FA68A9",
"|. c #EC79AC",
" X c #77959C",
".X c #73858A",
"XX c #7D9AA1",
"oX c #858586",
"OX c #8B9295",
"+X c #969798",
"@X c #968A8B",
"#X c #849CA4",
"$X c #8CAEB5",
"%X c #A8A9AC",
"&X c #B7BABB",
"*X c #ADB1B2",
"=X c #AC9398",
"-X c #D28D83",
";X c #D29288",
":X c #DEA587",
">X c #E7AE85",
",X c #E7AF88",
"<X c #E8AE85",
"1X c #E9B28B",
"2X c #E7B18C",
"3X c #EBB998",
"4X c #F1BF9F",
"5X c #CEB3B2",
"6X c #E8B3A4",
"7X c #EA82AD",
"8X c #EDC3A8",
"9X c #EEC9B3",
"0X c #E9C7B7",
"qX c #F0CEBA",
"wX c #F2CDB6",
"eX c #96BCC4",
"rX c #8FB9C1",
"tX c #B4CDD3",
"yX c #BCD5D9",
"uX c #A7C6CC",
"iX c #C5D8DC",
"pX c #CCC9CB",
"aX c #F3DACC",
"sX c #F1D4C5",
"dX c #F4DDD2",
"fX c #E7CFCF",
"gX c #F8E2D6",
"hX c #CBDDE1",
"jX c #D3DFE2",
"kX c #D9E7EA",
"lX c #D5E9ED",
"zX c #E6E8EA",
"xX c #F9ECE5",
"cX c #F6EBE8",
"vX c #FBF1ED",
"bX c #F4F5F5",
"nX c #FBF5F2",
"mX c #F6FAFA",
"MX c #FFFEFE",
"NX c #FDF9F7",
"BX c #EEF1F1",
"VX c #DFE0DF",
"CX c None",
/* pixels */
"CXCXCXCXCXCXCXCXCXCXCXCXCXCXCXCXCXCXCXCXCXCXCXCXCXCXCXCXCXCXCXCXCXCXCXCXCXCXCXCXCXCXCXCXCXCXCXCXCXCXCXCXCXCXCXCXCXCXCXCXCXCXCXCX",
"CXCXCXCXCXCXCXCXCXCXCXCXCXCXCXCXCXCXCXCXCXCXCXCXCXCXCXCXCXCXCXCXCXCXCXCXCXCXCXCXCXCXCXCXCXCXCXCXCXCXCXCXCXCXCXCXCXCXCXCXCXCXCXCX",
"CXCXCXCXCXCXCXCXCXCXCXCXCXCXCXCXCXCXCXCXCXCXCXCXCXCXCXCXCXCXCXCXCXCXCXCXCXCXCXCXCXCXCXCXCXCXCXCXCXCXCXCXCXCXCXCXCXCXCXCXCXCXCXCX",
"CXCXCXCXCXCXCXCXCXCXCXCXCXCXCXCXCXCXCXCXCXCXCXCXCX# # # # # # # % # # % & CXCXCXCXCXCXCXCXCXCXCXCXCXCXCXCXCXCXCXCXCXCXCXCXCXCXCX",
"CXCXCXCXCXCXCXCXCXCXCXCXCXCXCXCXCXCXCXCXCXCX$ o R ' _ _ _ _ _ _ W _ _ / x # $ # O CXCXCXCXCXCXCXCXCXCXCXCXCXCXCXCXCXCXCXCXCXCXCX",
"CXCXCXCXCXCXCXCXCXCXCXCXCXCXCXCXCXCXCXCX$ u _ _ { &.$.$.#.#.$.&.s.u.#.+.8.` _ E z # % CXCXCXCXCXCXCXCXCXCXCXCXCXCXCXCXCXCXCXCXCX",
"CXCXCXCXCXCXCXCXCXCXCXCXCXCXCXCXCXCXCXR / _ &.&.%.%.%.@.@.@.+.%.J.a.*.s.s.*.%.%.` E b 8 CXCXCXCXCXCXCXCXCXCXCXCXCXCXCXCXCXCXCXCX",
"CXCXCXCXCXCXCXCXCXCXCXCXCXCXCXCXCX* R o.O.o.W o.o.) ) %.@.%.@.%.n.%.n.I.J.*.+.@.#.$.9.>.8 CXCXCXCXCXCXCXCXCXCXCXCXCXCXCXCXCXCXCX",
"CXCXCXCXCXCXCXCXCXCXCXCXCXCXCXCX@ E &.s.s.s.s.s.s.s.s.+.) +.+.@.+.+.u.M.s.*.@.@.%.@.#.` b y CXCXCXCXCXCXCXCXCXCXCXCXCXCXCXCXCXCX",
"CXCXCXCXCXCXCXCXCXCXCXCXCXCXCXq } s. .q.b.b.v.q.v.v.m.p.u.u.*.+.%...~ T T ! ! ! T @.#.` M ,.6 CXCXCXCXCXCXCXCXCXCXCXCXCXCXCXCXCX",
"CXCXCXCXCXCXCXCXCXCXCXCXCXCXo 9.n.b.B B B B B 3.V l 7.m.G.J.B.*.~ f.K.-X-X-X;X;XK.O.O.8.N M y 6 CXCXCXCXCXCXCXCXCXCXCXCXCXCXCXCX",
"CXCXCXCXCXCXCXCXCXCXMXMXcXK 9 q.q.C `.`.`.`._._.{.}.).1 v.F.V.H.f.cXmXmXMXMXNXMXbXf.+.' :.:.,.y O CXCXCXCXCXCXCXCXCXCXCXCXCXCXCX",
"CXCXCXCXCXCXCXCXCXMXMXmXmXbXK o r.).e e.!.!.!.!.'.[.].H : q.J.,XvXMXMXMXMXtXeXiXmXtXf.~ 9.,.,.t > CXCXCXCXCXCXCXCXCXCXCXCXCXCXCX",
"CXCXCXCXCXCXCXCXMXMXMXkXuXtXA 4._.s A VXiXuXBXBX%X4.}.[.V ^ 4XnXMXMXMXMXMXtXeXeXtXbX:X~ [ B :.,.a O CXCXCXCXCXCXCXCXCXCXCXCXCXCX",
"CXCXCXCXCXCXCXCXMXMXMXkXrXrXZ (./.A zXMXjXyXMXMXhX=X[.}.{.2.+XMXMXMXMXMXMXmXbXkXeXMXiX=XT M ,.<.b % CXCXCXCXCXCXCXCXCXCXCXCXCXCX",
"CXCXCXCXCXCXCXCXMXiX.X&XbXBXS /./.J MXmX&XOXmXmXlX#X5.{.}.5.D hXMXhXkXBXL BXMXMXmXMXmX5XT c V ` / $ CXCXCXCXCXCXCXCXCXCXCXCXCXCX",
"CXCXCXCXCXCXCXCXMXeXtXcXMXMX7XW.3.9 +X+XK 9 +X=X.XA   3.].E.Z L MXyXiXmXpXbXMXMXMXMXmX0Xw N.9.+.@./ 7 CXCXCXCXCXCXCXCXCXCXCXCXCX",
"CXCXCXCXCXCXCXCXlXkXMXMXmXiX7XW.Z         o         &   ].].r.1 yXkXmXMXMXMXMXMXMXjX&XT.f G.=.+.#.@.6 CXCXCXCXCXCXCXCXCXCXCXCXCX",
"CXCXCXCXCXCXCXCX XlXjXkXiXeX|.r.9 - 2 2 = 3 5 2 2 2 & * '.}._.Z $XhXbXMXMXMXMXmXiXuXZ . f F.=.#.[ 6.5 CXCXCXCXCXCXCXCXCXCXCXCXCX",
"CXCXCXCXCXCXCXCX- .X$XuXrXOX|.3.  = = - = = 2 3 = 2 & & ).}.(.1  X$XhXlXzXkXlXhXeX#XA q _ p.9.` 6.v > CXCXCXCXCXCXCXCXCXCXCXCXCX",
"CXCXCXCXCXCXCXCX2   .X$X.XX ].r.. = 5 2 = - = = 2 5 3 & ).}.(.    .X#X XXX X XXX X  f p.n.a.7.b :.n , : CXCXCXCXCXCXCXCXCXCXCXCX",
"CXCXCXCXCXCXCXCXCX5 . .   7 ].r.X #     > 9 9 5       & ).}.'.+ 0.7 o o           s p.A.M.M.6.n ,.n = w @X+XCXCXCXCXCXCXCXCXCXCX",
"CXCXCXCXCXCXCXCXCXCX- - 1 r {.r.  k oXJ : o     J +Xv.3 ).{.E.k C.^ d g G ( f d i @.@.+.+.+.,.N M b & Y dXmXT.CXCXCXCXCXCXCXCXCX",
"CXCXCXCXCXCXCXCXCXCXCXCX    '.'.x K MXlX$X.Xv..XlXmXlX+ ].'.h X >X3X1XY.x.A.d.+.#.@.%.%.@.+.6.>.6.:.= q 5XvXNXF CXCXCXCXCXCXCXCX",
"CXCXCXCXCXCXCXCXCXCXCXCXz K I ]./.S BXMXmXnXbXbXMXzX$XV ).E.F T.bXNXNXvX<Xa.+.+.@.@.+.+.@.*.@.@.#.] > x W 6XmXOXCXCXCXCXCXCXCXCX",
"CXCXCXCXCXCXCXCXCXCXCXCXOXbXD 4.(.2 H VXMXmXmXmXMXpX3.`.R.< OXmXMXMXMXMXnX1X;.%.%.%.%.%.u.B.*.@.#.] , v Y ;XmXNX%X  CXCXCXCXCXCX",
"CXCXCXCXCXCXCXCXCXCXCXCX+XMXP < W.).@ P !.Q.Q.Q.Q.~.).e.H   +XMXNXNXMXMXMX1Xx.D.B.V.B.B.F.F.*.+.#.] , v ,.6.K.mX*X  CXCXCXCXCXCX",
"CXCXCXCXCXCXCXCXCXCXCXCXG 2XL.f 3.}.].`.`._.`.`.`.(.^.I h w.L.1X1XY.aXMXMX2XC.F.F.J.F.F.F.F.%.O.9.R = c ,.Q #.mX*X  CXCXCXCXCXCX",
"CXCXCXCXCXCXCXCXCXCXCXCXf c.J.V.w.C R.R.R.R.R.R.R.^.I 4 q.D.G.x.c.l.L.qXMX1XC.G.F.F.F.G.F.F.8.>.<.b - b B E i.mX*X  CXCXCXCXCXCX",
"CXCXCXCXCXCXCXCXCXCXCXCX0.U.J.I.V.w.: ; ; ; ; ; ; ; z v.G.P.F.L.L.L.Z.F.8XY.n.u.a.=.u.u.u.u.7.N ,.:.= x Q f.dXMX*X  CXCXCXCXCXCX",
"CXCXCXCXCXCXCXCXCXCXCXCXd ..g.g.Z.L.q.q.q.q.q.q.q.q.p.I.L.H.g.l.l.l.z.g.! =.*.) +.+.+.+.+.+.>.M x 6 * ` ! 6XMX&XL CXCXCXCXCXCXCX",
"CXCXCXCXCXCXCXCXCXCXCXCXt.0XsXaX8Xh.I.U.I.I.I.I.P.P.L.k.h.3XdXaXaXsXsXsXfXf.~ %.@.%.@.%.%.@.:.6._ R & i E y.5X< CXCXCXCXCXCXCXCX",
"CXCXCXCXCXCXCXCXCXCXCXCXOXMXMXMXnX8XC.k.z.z.z.z.z.l.L.qX9XvXMXMXMXMXMXMXMX:X..o.+.+.+.) +.%.` ] &.@.y : 4 @   8 CXCXCXCXCXCXCXCX",
"CXCXCXCXCXCXCXCXCXCXCXCXOXMXMXMXMXMX9X9X9X9X9X9X9X8XsXMXMXMXMXMXMXMXMXMXMX1Xk.=.p.p.a.s.u.@.O.#.@.@.8.r q 0.%XCXCXCXCXCXCXCXCXCX",
"CXCXCXCXCXCXCXCXCXCXCX. t.gXMXMXMXMXMXMXMXMXMXMXMXMXMXMXMXMXNXaXdXaXvXMXMX1XC.F.F.J.F.D.n.@.@.@.@.@.#.u U 6XMX&XP CXCXCXCXCXCXCX",
"CXCXCXCXCXCXCXCXCXCX&   G 8XgXdXvXMXMXMXMXMXMXMXMXMXMXMXxXgXaX3X3X3XqXgXgXY.S.F.F.J.I.s.o.%.@.@.@.+.O.p w -XcXMX*X  CXCXCXCXCXCX",
"CXCXCXCXCXCXCXCXCXCXr   L nX4X>XqXxXxXxXxXxXxXxXxXxXxXxX4X>X0XnXnXnXaX>X3XD.N.M.B.M.B.p.] [ [ +.%.@.@.8.r d d.NX*X  CXCXCXCXCXCX",
"CXCXCXCXCXCXCXCXCX& m e f Y.xXnXdXY.>X>X>X>X>X>X>X>X>X>XxXbXdXD.L.Z.9XnXnXK.O.i.*.*.=.} b M :.8.@.@.%.#.i 0 i.NX%X  CXCXCXCXCXCX",
"CXCXCXCXCXCXCXCXCX, b e f G.Y.L.9XmXnXnXnXnXnXnXnXnXnXNX3XU.U.A.V.Z.U.Y.U.V.M.B.B.B.S.w.< < b ,.` @.@.#.R 0 d.MX*X  CXCXCXCXCXCX",
"CXCXCXCXCXCXCXCX8 b <.r f F.H.x.P.1X,X,X,X,X>X,X1X>X<X>XF.x.Z.S.S.F.S.n...*.*.*.*.*.*.%.` b 7 x M 6.@.#.8.e G mX*X  CXCXCXCXCXCX",
"CXCXCXCXCXCXCXCX7 ,.7.y u &.B.F.S.z.z.z.x.z.x.z.x.z.l.g.Z.B.S.A.S.Z.S.S.B.%.) +.) +.+.O.%.:.b r y >.@.%.@.` 1 oXCXCXCXCXCXCXCXCX",
"CXCXCXCXCXCXCXCX6 M <.q L xXvX3Xh.Z.L.J.L.L.L.L.l.4XvXvXxXxXxXxXxXxXcXgXJ.%.+.%.%.%.@.#.' M 9.i % y >.[ $._ - CXCXCXCXCXCXCXCXCX",
"CXCXCXCXCXCXCXCX6 M <.q OXMXMXvXgXaXZ.k.x.x.z.g.9XnXMXMXMXMXMXMXMXMXMXnXS.M.i.o.+.] +._ 6.] #.R % . + ) &._ % CXCXCXCXCXCXCXCXCX",
"CXCXCXCXCXCXCXCX7 ,.a X G 6XnXMXMXMXdXaXaXdXdXsXNXMXMXMXMXMXMXMXMXMXMXnXS.G.M.n.n.s.M.p.` O.&.R X e.pXt.T [ % CXCXCXCXCXCXCXCXCX",
"CXCXCXCXCXCXCXCX5 a 5 & 0 Y nXMXMXMXMXMXMXMXMXMXMXMXMXMXdXqXsXqXqXsXsXwXS.S.F.F.F.I.M.u.O.+./ u X y.mXOX0 ( - CXCXCXCXCXCXCXCXCX",
"CXCXCXCXCXCXCXCX- O CXCX< G 5XvXMXMXMXNXMXMXMXMXMXnXsXaXP.h.z.z.X.X.X.;.P.G.J.G.G.n.$.+.$.%.7 ; s y.pX.X  $ - CXCXCXCXCXCXCXCXCX",
"CXCXCXCXCXCXCXCXCXCXCXCXCX> Y 5XfXaXgXgXgXgXgXgXgX8Xj.C.J.F.N.N.*.@.%.i.N.p.p.m.p.` ' 9.' / 7 R [ E   CXCXCXCXCXCXCXCXCXCXCXCXCX",
"CXCXCXCXCXCXCXCXCXCXCXCXCX= a e E ) -.-.-.-.-.-.-.b.M.m.m.i.W _ ' ' ' ' ] :.V c N N M b y - % / / $ CXCXCXCXCXCXCXCXCXCXCXCXCXCX",
"CXCXCXCXCXCXCXCXCXCXCXCXCXCX& t s c c c c s c c c c :.c M M ,.M ,.m ,.m M M N M n :.,.t O - > * CXCXCXCXCXCXCXCXCXCXCXCXCXCXCXCX",
"CXCXCXCXCXCXCXCXCXCXCXCXCXCXCX= 1 8 N N M :.M M b b b M n m M M m m b n :.:.>.>.>.M <.v & CXCXCXCXCXCXCXCXCXCXCXCXCXCXCXCXCXCXCX",
"CXCXCXCXCXCXCXCXCXCXCXCXCXCXCXCXCXCX6 , > > > > > , , , , 6 6 6 6 , > r :.N ` #.[ >.,.x O CXCXCXCXCXCXCXCXCXCXCXCXCXCXCXCXCXCXCX",
"CXCXCXCXCXCXCXCXCXCXCXCXCXCXCXCXCXCXCX& - , , > , = % * CXCXCXCXCXO y M :.M ' #.%.#.i - CXCXCXCXCXCXCXCXCXCXCXCXCXCXCXCXCXCXCXCX",
"CXCXCXCXCXCXCXCXCXCXCXCXCXCXCXCXCXCXCX* p M n n M p & = CXCXCXCXCX* p <.:.' @.@.@.@.i CXCXCXCXCXCXCXCXCXCXCXCXCXCXCXCXCXCXCXCXCX",
"CXCXCXCXCXCXCXCXCXCXCXCXCXCXCXCXCXCXCX% v <.M :.:.:.v = CXCXCXCXCXO t :.:.[ #.%.@.s CXCXCXCXCXCXCXCXCXCXCXCXCXCXCXCXCXCXCXCXCXCX",
"CXCXCXCXCXCXCXCXCXCXCXCXCXCXCXCXCXCXCXCX6 i ] [ 1.,.M = CXCXCXCXCXO t ,.:.+.$.9.>.* CXCXCXCXCXCXCXCXCXCXCXCXCXCXCXCXCXCXCXCXCXCX",
"CXCXCXCXCXCXCXCXCXCXCXCXCXCXCXCXCXCXCXCX$ i &.$./ M n = CXCXCXCXCXO p ,.:.] &.` 6 CXCXCXCXCXCXCXCXCXCXCXCXCXCXCXCXCXCXCXCXCXCXCX",
"CXCXCXCXCXCXCXCXCXCXCXCXCXCXCXCXCXCXCXCXCXu R @.8.m n = CXCXCXCXCXO t ,.,.%.[ R O CXCXCXCXCXCXCXCXCXCXCXCXCXCXCXCXCXCXCXCXCXCXCX",
"CXCXCXCXCXCXCXCXCXCXCXCXCXCXCXCXCXCXCXCXCXCX* 8.1.:.n = CXCXCXCXCXO p ,.:.8.<.8 CXCXCXCXCXCXCXCXCXCXCXCXCXCXCXCXCXCXCXCXCXCXCXCX",
"CXCXCXCXCXCXCXCXCXCXCXCXCXCXCXCXCXCXCXCXCXCX& r b ,.b = CXCXCXCXCXO t <.:.t 5 o CXCXCXCXCXCXCXCXCXCXCXCXCXCXCXCXCXCXCXCXCXCXCXCX",
"CXCXCXCXCXCXCXCXCXCXCXCXCXCXCXCXCXCXCXCXCXr t r :.7.M 5 CXCXCXCXCX& a 7.<.t t y CXCXCXCXCXCXCXCXCXCXCXCXCXCXCXCXCXCXCXCXCXCXCXCX",
"CXCXCXCXCXCXCXCXCXCXCXCXCXCXCXCXCXCXCXCXCXr <.<.,.,.n = CXCXCXCXCX% t ,.m <.7.b & CXCXCXCXCXCXCXCXCXCXCXCXCXCXCXCXCXCXCXCXCXCXCX",
"CXCXCXCXCXCXCXCXCXCXCXCXCXCXCXCXCXCXCXCXCXCXCXCXCXCXCXCXCXCXCXCXCXCXCXCXCXCXCXCXCXCXCXCXCXCXCXCXCXCXCXCXCXCXCXCXCXCXCXCXCXCXCXCX",
"CXCXCXCXCXCXCXCXCXCXCXCXCXCXCXCXCXCXCXCXCXCXCXCXCXCXCXCXCXCXCXCXCXCXCXCXCXCXCXCXCXCXCXCXCXCXCXCXCXCXCXCXCXCXCXCXCXCXCXCXCXCXCXCX",
"CXCXCXCXCXCXCXCXCXCXCXCXCXCXCXCXCXCXCXCXCXCXCXCXCXCXCXCXCXCXCXCXCXCXCXCXCXCXCXCXCXCXCXCXCXCXCXCXCXCXCXCXCXCXCXCXCXCXCXCXCXCXCXCX"
};
