/* XPM */
static char *result[] = {
/* columns rows colors chars-per-pixel */
"64 64 151 2 ",
"   c #000D32",
".  c #001032",
"X  c #021D35",
"o  c #091F36",
"O  c #002337",
"+  c #0F2237",
"@  c #002837",
"#  c #002538",
"$  c #0B2739",
"%  c #0D2839",
"&  c #102739",
"*  c #1D2439",
"=  c #112839",
"-  c #1D2E3B",
";  c #232C3B",
":  c #2C2D3B",
">  c #342E3C",
",  c #3A2B3C",
"<  c #25313C",
"1  c #2B323D",
"2  c #34323D",
"3  c #3C343E",
"4  c #3F383F",
"5  c #422F3E",
"6  c #46333F",
"7  c #49323E",
"8  c #50303E",
"9  c #273440",
"0  c #283440",
"q  c #343440",
"w  c #3F3940",
"e  c #433541",
"r  c #4C3641",
"t  c #4D3E43",
"y  c #563541",
"u  c #5C3442",
"i  c #5E3A45",
"p  c #653444",
"a  c #6A3645",
"s  c #633845",
"d  c #6B3A46",
"f  c #6D3B49",
"g  c #723B47",
"h  c #763948",
"j  c #7C3C4A",
"k  c #454143",
"l  c #4E4143",
"z  c #4C4B4A",
"x  c #554345",
"c  c #5B4546",
"v  c #5C4847",
"b  c #624346",
"n  c #644B49",
"m  c #6A4E4A",
"M  c #724047",
"N  c #744549",
"B  c #7A464A",
"V  c #764A4A",
"C  c #7E4B4C",
"Z  c #6E504D",
"A  c #76554F",
"S  c #79554F",
"D  c #76584F",
"F  c #78584F",
"G  c #6D5F56",
"H  c #765650",
"J  c #795750",
"K  c #765C53",
"L  c #7C5951",
"P  c #766157",
"I  c #833E4B",
"U  c #883F4D",
"Y  c #85444C",
"T  c #8A444D",
"R  c #854B4D",
"E  c #8C4C4E",
"W  c #914D4F",
"Q  c #83514E",
"!  c #92504F",
"~  c #8A4D51",
"^  c #944E50",
"/  c #994E52",
"(  c #865651",
")  c #8E5553",
"_  c #845D54",
"`  c #8D5B54",
"'  c #955252",
"]  c #9A5253",
"[  c #955C57",
"{  c #9D5A56",
"}  c #945F58",
"|  c #9D5D58",
" . c #A05955",
".. c #A25A5A",
"X. c #A95D5C",
"o. c #866055",
"O. c #8A6256",
"+. c #85665A",
"@. c #8C665A",
"#. c #86685C",
"$. c #926257",
"%. c #936558",
"&. c #9D635A",
"*. c #97685A",
"=. c #9C6B5C",
"-. c #A3615B",
";. c #A9635D",
":. c #A56C5E",
">. c #A96D5F",
",. c #A3715F",
"<. c #826E61",
"1. c #8C7363",
"2. c #947867",
"3. c #A56C62",
"4. c #A96E60",
"5. c #BA6663",
"6. c #BB6C64",
"7. c #A47161",
"8. c #AC7663",
"9. c #AF7865",
"0. c #B07664",
"q. c #B27A66",
"w. c #B67D68",
"e. c #B97E69",
"r. c #C16C66",
"t. c #C27167",
"y. c #C47C67",
"u. c #C07768",
"i. c #C87169",
"p. c #C57F69",
"a. c #AF856F",
"s. c #B18166",
"d. c #B7826C",
"f. c #B9836D",
"g. c #B08771",
"h. c #BB8770",
"j. c #B68C76",
"k. c #B98E76",
"l. c #B6947C",
"z. c #B8987E",
"x. c #C6836B",
"c. c #CE806E",
"v. c #C78A6E",
"b. c #C98D6F",
"n. c #CA8F70",
"m. c #CC9372",
"M. c #CE9874",
"N. c #D49674",
"B. c #D49976",
"V. c #BF9C81",
"C. c None",
/* pixels */
"C.C.2 : % $ = % % & & & = & & & % = = % = = & & & & & & & & + X $ & & & & & & = & & = & & & = & = & = & % & & & & = % % < q C.C.",
"C.O - Z O.O.O.O.o._ o._ _ _ _ o._ _ _ _ _ _ _ _ _ o.o._ _ o.1.2.@._ o.o.o._ _ o.L _ _ _ _ _ L _ _ _ _ _ _ _ _ _ _ _ _ ` A * O C.",
"q q t @.8.8.8.,.8.0.8.0.0.0.9.0.q.0.q.9.0.0.q.q.q.9.9.0.0.q.j.l.9.>.9.>.0.q.9.0.q.q.q.q.0.q.q.q.q.q.9.q.q.q.q.q.0.q.q.8.@.t 2 q ",
"% H =.L x c x l C  .{ -.0.:.| >.q.q.8.9.0.8.0.q.>.-.-.>.>.] A z k V { { -.,.q.q.9.q.9.9.0.0.0.q.0.9.9.8.q.9.9.8.9.e.7.A S =.H % ",
"# _ 0.} 8   3 A $.-.-.:.9.:.-.,.9.9.9.9.8.9.8.9.9.:.:.,.>.-.Q m m _ &.&.-.,.0.9.9.8.8.8.9.8.9.8.8.9.9.8.9.8.9.q.9.=.n : F 8._ # ",
"# H 8.>.E s A ,.q.s.>.0.9.9.0.9.9.9.9.8.9.8.9.8.9.9.9.9.9.0.0.q.q.q.0.9.9.9.0.9.9.9.9.9.9.9.8.8.9.8.8.9.8.9.9.q.,.A : : _ 3.L # ",
"# L 8...{ &.o.n $.d.d.q.q.q.q.q.q.q.q.q.q.w.q.w.q.s.w.q.q.q.q.w.e.q.q.9.q.q.q.q.9.q.9.w.q.q.8.q.9.w.q.q.q.w.w.` v O.o.l Z 8._ O ",
"# H 8.:.:.0.,.A S O.O.O.O.O.O.O.o.O.O.O.O.O.O.O.O.O.o.O.%.&.%.o.o.%.&.-.&.O.@.&.&.=.&.&.&.&.&.&.&.&.%.O.O.O.@.H H 7.,.C ( 8.L # ",
"O A 8.q.q.8.q.q._ + ; > > > > > 2 > > > > q 2 > > 3 1 2 s j s ; ; 8 T T h r y I U I I I I I I I U I a : : ; + L 9.e.:...-.8.D # ",
"# A 8.q.8.8.q.8.F * p j h h j Y T j h h h j E Y j Y E E ^ / ^ E E W / / / E E / / / / / / / / ^ / / T h h p * ( 8.q.8.8.q.8.A # ",
"# A 8.8.8.9.q.8.( ; 8 d a p g B B a a a a g B g a N B Y B B B C Y B B B B B C B B B N N B N B B B B g a a u : L 8.q.8.>.>.8.A # ",
"# A 8.q.q.8.q.8.F - 2 6 3 3 3 3 > w w w 3 w 3 3 3 3 3 3 3 3 3 3 3 3 3 3 3 3 3 3 3 3 3 3 3 3 3 w 3 3 w 3 3 > = L 8.w.:.{ -.8.F # ",
"# H 8.q.9.8.q.8.H 3 ) ;.-.-.-.X.-.-.-...-.-.-...-.X.-.-.-.-...-.-.-.-.-.-.-...-...-.-...-.-...-.-.-...-.-.) w H 8.q.8.,.8.>.F @ ",
"# A 8.0.8.9.q.8.F r ;.i.t.r.r.r.r.r.r.r.r.r.r.r.r.r.r.6.r.r.r.r.r.r.r.r.r.r.r.r.r.r.r.r.r.r.r.r.6.r.r.i.i.;.r H 8.q.8.9.w.8.A @ ",
"# A 8.8.9.8.q.8.H 6 X.6.6.6.6.6.6.6.6.6.6.6.6.6.6.5.6.6.6.6.6.6.5.6.6.6.6.6.6.6.6.5.6.6.6.6.6.6.6.6.6.6.r.X.6 A 8.q.9.8.9.8.A # ",
"# A 8.q.8.8.q.8.L 6 -.r.5.u.v.v.v.x.v.v.n.v.b.v.b.b.v.b.v.b.b.b.b.v.v.v.v.v.b.v.v.b.n.v.n.v.v.v.b.v.e.5.r.-.6 F 8.q.8.9.q.8.A # ",
"# A 8.8.8.9.q.8.J r ..t.u.v.M.M.M.m.m.n.n.n.m.n.n.n.n.n.n.m.n.n.n.m.n.m.n.m.n.m.m.m.m.n.n.n.m.m.N.M.v.e.i...e H 8.q.8.9.q.8.A # ",
"# A 8.q.8.8.q.8.J e ..i.m.M.m.m.M.m.n.p.p.p.p.p.p.p.x.y.y.x.p.p.y.x.y.p.y.p.p.p.y.p.y.p.x.p.x.n.m.m.N.n.p...r H 8.q.9.8.q.8.A # ",
"# H 8.0.9.8.q.8.J e ..p.n.m.m.M.m.m.m.n.n.b.x.y.p.p.p.p.x.y.y.p.y.p.p.p.p.p.p.p.p.p.y.p.y.y.y.x.b.m.m.m.i...r H 8.q.8.0.9.8.A # ",
"# A 8.0.8.8.q.8.J r ..u.m.M.m.n.n.n.n.n.n.b.x.y.p.p.p.p.y.x.p.p.x.p.p.p.y.x.y.x.p.p.x.p.p.p.x.y.x.m.M.n.p...5 H 8.q.8.8.q.8.H # ",
"# A 8.q.9.9.q.8.H r ..p.n.M.n.v.p.y.y.x.p.p.p.p.p.p.p.y.p.x.p.p.y.x.y.p.y.x.y.p.p.x.y.p.p.x.y.y.x.n.M.m.p...r H 8.q.8.9.q.8.A # ",
"# A 8.q.9.8.q.8.S r ..i.n.M.m.n.x.x.x.v.x.y.p.x.p.p.p.x.p.p.p.p.p.p.p.p.p.x.p.p.p.p.p.p.p.p.y.y.x.m.m.n.p...e L 8.q.8.8.9.8.A # ",
"# A 8.8.8.8.q.8.J e ..p.n.N.m.m.b.x.x.m.x.y.p.p.p.p.p.p.p.p.p.p.y.x.x.y.x.y.x.p.y.x.x.y.p.p.y.y.v.m.N.m.p...r H 8.q.9.9.9.8.A # ",
"# F 7.-.{ 3.w.8.H r ..p.n.M.m.x.x.p.x.p.x.p.p.p.p.p.x.p.p.p.p.e.p.p.p.p.y.p.y.p.p.p.p.p.p.x.y.y.x.n.m.m.i...e H 8.q.8.9.q.8.A # ",
"# F 8.-.{ 3.w.8.D 6 ..p.n.M.m.x.u.y.x.y.y.p.p.p.x.p.p.x.x.y.p.x.p.p.p.y.x.x.y.x.p.p.p.p.p.p.p.p.x.n.N.m.i...7 J 8.q.8.9.q.7.D # ",
"# S ,.&.' :.w.8.A 6 ..p.n.M.n.v.y.x.x.y.x.p.p.p.y.p.p.y.p.p.p.p.y.x.y.x.p.y.y.p.y.x.x.y.y.x.p.e.x.m.M.n.p...7 H 8.q.9.8.q.8.F # ",
"# _ >.S b *.e.8.H e ..p.m.M.n.v.y.x.y.y.p.p.p.y.p.p.p.p.x.y.y.x.p.x.y.p.x.p.p.x.p.p.p.p.p.x.y.p.x.m.M.n.p...e H 8.q.8.9.8.8.A # ",
"X #.g.P x *.e.8.H r ..p.n.N.m.x.y.y.y.x.y.x.p.x.x.p.y.x.p.p.p.p.p.p.p.p.y.p.p.y.p.y.x.y.p.p.y.y.x.m.M.n.p...r H 8.9.9.8.q.8.F # ",
". 1.z.P v *.d.8.A 5 ..p.m.M.m.x.y.y.x.y.y.x.p.p.y.p.y.p.p.p.p.p.p.p.x.p.p.x.y.p.x.y.p.x.p.p.p.p.x.m.M.n.i...r L 8.q.9.8.q.7.F # ",
". 1.z.#.v *.e.8.A r ..i.n.M.n.v.y.x.y.x.x.y.p.y.p.p.x.p.y.x.y.x.x.p.y.p.p.p.p.p.p.p.p.p.p.p.y.p.x.M.M.m.p...e H 8.q.8.9.q.8.A # ",
"X +.d.P l *.e.8.A 6 ..p.n.M.n.x.y.x.y.y.y.y.x.x.x.p.p.p.p.x.y.p.y.p.x.y.y.x.x.y.y.p.p.y.p.p.p.p.x.n.M.n.p...6 H 8.q.9.8.9.8.A # ",
"# S 7.S n *.e.8.H 6 ..y.m.M.m.x.y.y.y.x.y.x.y.p.y.p.x.y.p.p.p.p.p.p.p.p.p.p.p.p.x.p.p.x.p.p.p.p.x.m.M.n.p...e H 8.q.8.8.q.8.F # ",
"@ S 8.-.[ :.q.8.H e ..p.n.M.n.v.y.y.p.p.y.x.p.y.x.p.y.x.p.p.p.p.x.y.p.x.y.x.y.p.p.x.p.p.p.p.y.y.v.m.M.m.p...e J 4.w.9.8.q.8.H # ",
"# S ,.` R =.e.8.H r ..i.n.M.m.x.y.y.x.p.y.p.p.x.y.p.p.p.p.y.x.p.p.p.p.p.p.p.p.p.p.p.y.p.p.p.y.y.x.x.n.m.p...r H 4.w.8.9.q.8.H # ",
"# _ ,.S v *.e.8.H e ..p.n.N.m.x.y.x.x.y.x.y.p.p.p.p.y.p.x.y.x.y.p.p.p.y.p.p.x.y.p.p.p.x.p.x.x.p.x.y.n.m.p...r J 8.q.9.8.8.8.H # ",
"# L 8.&.) :.e.8.S 6 ..p.m.M.n.v.y.y.p.p.y.x.y.x.x.p.x.p.p.p.p.p.x.y.p.x.x.p.p.p.y.x.n.n.x.x.m.m.n.m.m.n.i...e H 8.q.8.9.0.8.H # ",
"# F 8.-.{ 4.w.8.F e ..p.n.M.m.x.y.y.p.p.p.x.y.y.y.p.x.y.p.p.p.p.p.y.p.p.y.p.x.y.y.x.v.x.x.x.n.n.n.m.M.m.p...e H 8.q.9.8.q.8.H # ",
"# L 8.-.{ 4.q.8.S 6 ..p.n.M.m.x.y.x.y.x.p.p.y.x.p.p.p.p.y.x.x.y.p.x.p.y.p.p.p.p.x.p.p.p.y.y.y.y.x.m.m.m.p...r J 8.q.8.9.q.8.A # ",
"# A 7.8.4.8.q.8.H e ..i.m.M.n.x.y.p.p.p.x.y.y.x.x.p.p.x.p.p.p.p.x.y.p.x.x.p.p.x.p.p.p.y.x.y.y.y.x.m.M.m.p...e J 8.q.9.8.8.8.A # ",
"# A 8.w.0.8.w.8.J r ..p.n.N.m.v.p.e.x.p.p.y.x.y.y.p.p.y.y.x.p.y.p.p.p.p.y.p.p.y.p.p.p.x.y.x.y.y.x.m.m.m.i...e J 8.q.8.8.q.8.A # ",
"# F 8.8.8.9.q.8.H r ..i.m.M.m.x.y.p.p.p.x.p.p.x.p.y.x.x.y.x.p.x.p.p.p.p.x.y.p.x.y.x.y.p.p.p.p.p.x.m.N.n.i...r H 8.q.8.9.q.8.H # ",
"# A 8.q.8.8.q.8.H e ..p.n.M.n.x.y.y.p.p.y.p.y.y.p.y.p.y.y.p.p.p.x.y.y.x.p.p.p.p.p.p.p.p.x.p.p.y.x.m.M.m.p...5 H 8.q.8.8.q.8.H # ",
"# F 8.0.0.8.q.8.J r ..i.m.M.n.x.y.y.p.p.x.p.x.y.p.x.x.p.p.p.p.y.y.x.p.y.y.p.p.y.y.x.x.y.p.p.x.y.x.m.m.n.p...e S 8.q.8.q.9.8.A # ",
"# A 8.8.9.8.q.8.J e ..p.n.M.m.v.p.p.x.p.y.p.y.x.p.p.y.p.x.y.p.x.x.y.p.x.x.p.p.x.p.p.p.p.p.p.e.y.x.m.N.n.p...r J 8.q.8.8.q.8.A # ",
"# A 8.q.8.8.q.8.H e ..p.m.m.m.m.n.m.v.y.p.p.p.p.p.p.p.p.y.x.x.y.p.y.p.p.p.p.p.p.y.x.p.x.y.x.y.y.x.n.M.m.p...r H 8.w.9.8.q.7.L # ",
"# A 8.q.q.8.q.8.S r ..i.m.m.m.m.m.m.x.y.y.p.p.p.p.p.p.p.p.y.y.y.p.p.p.y.p.p.p.y.y.p.p.y.p.y.y.x.n.m.M.n.p...e H 8.0.8.9.q.8.A # ",
"# H 8.8.9.8.q.8.J r ..p.m.M.m.m.n.x.y.y.p.p.p.p.x.p.y.x.p.x.x.x.p.y.x.y.p.y.x.y.p.y.x.y.p.y.x.n.m.M.m.n.y...6 F 8.0.8.9.q.8.A # ",
"# A 8.q.8.8.q.8.J e ..p.n.m.m.m.m.n.n.n.n.n.n.n.b.b.b.b.b.b.v.n.n.n.n.n.n.n.n.n.n.n.n.n.n.n.n.n.m.m.m.m.p...6 A 9.q.:.-.:.7.L # ",
"# A 8.0.8.9.q.8.F 6 ..p.m.M.m.m.m.m.M.m.m.M.m.m.m.M.m.m.m.m.M.m.m.M.m.m.M.m.m.m.m.m.M.m.m.M.m.m.m.m.M.n.i...r H 8.w.,.-.;.8.F # ",
"# A 8.0.9.8.q.8.H 6 ..p.m.m.m.m.m.m.m.m.m.m.m.m.m.m.m.m.m.m.m.m.m.m.m.m.m.m.m.m.m.m.m.m.m.m.m.m.m.m.m.m.p...e H 8.w.8.8.q.8.A # ",
"# H 8.8.8.9.q.8.F r X.c.B.B.B.N.B.B.B.B.B.B.B.B.B.B.M.B.B.B.B.B.M.B.B.B.B.B.B.B.B.B.B.B.B.B.B.B.B.B.B.N.p.X.r F 8.q.4.-.:.8.F # ",
"# H 8.q.9.8.q.8.H > ~ ;.s.s.q.a.s.s.s.s.s.s.s.s.s.s.s.s.s.s.s.s.s.s.s.s.s.s.s.s.s.a.s.s.s.s.s.s.s.s.a.q.4.~ > H 8.w.4.{ ..8.F # ",
"# A 8.8.8.8.q.8.S $ : 3 4 6 4 4 6 4 4 4 4 e 4 w w w e 4 4 4 6 4 w 4 4 4 6 4 4 4 4 6 4 4 w e w e w w w w w : % L 8.w.:.{ -.9.F @ ",
"# A 8.0.q.q.=.A F %.@.o._ _ o.o._ O.o.o.o._ o.` _ o._ _ o.o._ _ _ _ ` _ _ O.o.o._ _ o.o._ _ _ _ _ _ ` _ o.@.%.F A ,.:.S ( ,._ @ ",
"# A 8.q.q.7._ n %.d.w.w.w.w.q.w.w.0.w.q.q.w.w.q.w.q.w.w.w.e.f.h.h.d.s.w.q.q.w.q.w.q.q.q.w.w.q.w.e.q.q.q.q.w.e.O.n ` ` l Z 8._ O ",
"# A 8.e.:.n Z 7.q.0.8.9.9.9.8.9.8.9.8.8.9.9.8.8.9.8.9.9.0.q.k.V.V.k.9.8.0.9.8.9.8.9.9.9.0.8.8.9.8.9.9.9.0.9.8.q.,.Z ; : S 8.L # ",
"# _ 0.=.c O 2 V [ -.q.>.-.:.>.q.8.8.8.8.8.8.8.8.9.9.>.-.( Z K <.2.4.-.:.8.8.8.8.8.8.8.8.8.8.8.8.8.8.8.8.8.8.8.q.q.=.m 1 F 8._ O ",
"% A =.S x v v x R -.>.>.&.:.q.q.9.9.q.q.9.q.9.q.0.q.8.-.R x 4 b W  .{ 4.q.q.q.9.9.9.q.8.q.q.9.q.q.9.0.q.q.q.q.9.q.d.,.F S =.A & ",
"2 : l @.8.9.8.8.>.q.q.q.q.>.q.q.q.q.q.q.q.q.8.q.q.q.q.9.9.8.,.8.0.8.8.8.0.q.q.9.0.0.0.0.9.q.q.8.8.q.0.q.q.9.q.q.0.0.w.8.%.6 : 2 ",
"2 $ @ n L _ S _ L P F F F F A D A H A F H H H H D D D F L L $.| ( D L ` [ L L [ } { } } [ [ [ [ [ [ _ A D F F A D D F o.n @ $ 2 ",
"2 e 8 6 , , , , , , 6 6 3 6 6 6 6 6 6 6 6 6 6 6 6 6 6 6 3 6 h I 8 2 6 h h u u I T I I I I I I Y U U d 6 , , , 6 6 e , , 6 8 e q ",
"< i j B j B h j j I W E I T W W E ! ! ! W ' W ! W ! ! W ! ! / W / ! W ' ' / ' ' ] ' ] / / ] / ' / / / ~ Y j j T W T h j B j i 9 ",
"C.y f f d d d d a a V N d M B B B B B B B B B B B B B B B B N N B C B N N B B B N N N N B N N N N B B B f s d M B g d d g b y C.",
"C.C.< 1 < < < < < < - - < < - - - - - - - - - - - - - ; - - - - - - - - - - - - - - - - - - - - - - - - < < < - - < < < 0 1 C.C."
};
